<?xml version="1.0" encoding="UTF-8"?><svg id="Layer_2" xmlns="http://www.w3.org/2000/svg" viewBox="0 0 160.86 20.68"><g id="Layer_1-2"><g id="Eye-ClosedDown"><path d="M.73,.15C9.5,10.92,25.38,14.92,38.06,9.06c4.18-1.89,8.01-4.62,11.08-8.05,.15-.17,.41-.18,.58-.03,.19,.14,.13,.41,.11,.61-.24,2.91-1.37,5.53-2.89,7.91-10.03,15.28-34.83,14.8-44.31-.8C1.2,6.26,.16,3.6,.01,.7V.43C-.02,.04,.49-.16,.73,.15H.73Z"/><path d="M111.73,.15c8.78,10.77,24.65,14.77,37.34,8.91,4.18-1.89,8.01-4.62,11.08-8.05,.15-.17,.41-.18,.58-.03,.19,.14,.13,.41,.11,.61-.24,2.91-1.37,5.53-2.89,7.91-10.03,15.28-34.83,14.8-44.31-.8-1.44-2.43-2.47-5.09-2.62-7.99V.43c-.04-.38,.47-.58,.71-.28h0Z"/></g></g></svg>