<?xml version="1.0" encoding="UTF-8"?>
<svg xmlns="http://www.w3.org/2000/svg" xmlns:xlink="http://www.w3.org/1999/xlink" width="48px" height="px" viewBox="0 0 48 86" version="1.1">
<defs>
<filter id="alpha" filterUnits="objectBoundingBox" x="0%" y="0%" width="100%" height="100%">
  <feColorMatrix type="matrix" in="SourceGraphic" values="0 0 0 0 1 0 0 0 0 1 0 0 0 0 1 0 0 0 1 0"/>
</filter>
<mask id="mask0">
  <g filter="url(#alpha)">
<rect x="0" y="0" width="48" height="86" style="fill:rgb(0%,0%,0%);fill-opacity:0.168627;stroke:none;"/>
  </g>
</mask>
<clipPath id="clip1">
  <rect x="0" y="0" width="48" height="86"/>
</clipPath>
<g id="surface5" clip-path="url(#clip1)">
<path style=" stroke:none;fill-rule:nonzero;fill:rgb(0%,0%,0%);fill-opacity:1;" d="M 9.347656 34.5625 C 16.691406 36.5 24.394531 34.75 29.574219 29.214844 C 35.882812 22.484375 39.414062 12.96875 41.902344 3.726562 C 43.484375 10.007812 42.75 16.769531 40.316406 22.773438 C 37.882812 28.78125 33.808594 34.058594 28.933594 38.339844 C 25.050781 41.75 20.109375 44.695312 14.992188 43.925781 C 11.488281 43.398438 8.425781 41.152344 6.238281 38.375 C 5.535156 37.480469 1.753906 32.628906 2.824219 31.429688 C 3.308594 30.886719 4.648438 32.445312 5.277344 32.835938 C 6.53125 33.617188 7.921875 34.183594 9.347656 34.558594 Z M 9.347656 34.5625 "/>
</g>
<mask id="mask1">
  <g filter="url(#alpha)">
<rect x="0" y="0" width="48" height="86" style="fill:rgb(0%,0%,0%);fill-opacity:0.168627;stroke:none;"/>
  </g>
</mask>
<clipPath id="clip2">
  <rect x="0" y="0" width="48" height="86"/>
</clipPath>
<g id="surface8" clip-path="url(#clip2)">
<path style=" stroke:none;fill-rule:nonzero;fill:rgb(0%,0%,0%);fill-opacity:1;" d="M 37.253906 38.765625 C 37.824219 38.058594 38.390625 37.351562 38.960938 36.648438 C 38.632812 40.324219 38.308594 44 37.984375 47.675781 C 38.707031 47.515625 39 46.65625 39.128906 45.929688 C 39.820312 42.039062 39.464844 37.945312 40.773438 34.214844 C 41.382812 32.480469 42.519531 30.960938 43 29.175781 C 43.53125 27.21875 43.625 24.75 43.617188 22.746094 C 43.617188 23.027344 42.160156 24.339844 41.953125 24.597656 C 41.507812 25.15625 41.09375 25.738281 40.703125 26.339844 C 39.914062 27.566406 39.246094 28.871094 38.714844 30.230469 C 37.605469 33.058594 37.457031 35.78125 37.253906 38.765625 Z M 37.253906 38.765625 "/>
</g>
<mask id="mask2">
  <g filter="url(#alpha)">
<rect x="0" y="0" width="48" height="86" style="fill:rgb(0%,0%,0%);fill-opacity:0.168627;stroke:none;"/>
  </g>
</mask>
<clipPath id="clip3">
  <rect x="0" y="0" width="48" height="86"/>
</clipPath>
<g id="surface11" clip-path="url(#clip3)">
<path style=" stroke:none;fill-rule:nonzero;fill:rgb(0%,0%,0%);fill-opacity:1;" d="M 4.847656 48.535156 C 6.230469 55.226562 3.328125 62.1875 4.339844 68.945312 C 5.144531 69.660156 4.808594 66.726562 4.964844 65.882812 C 5.167969 64.789062 5.34375 63.691406 5.5 62.589844 C 5.824219 60.320312 6.046875 58.039062 6.171875 55.75 C 6.300781 53.460938 6.332031 51.164062 6.261719 48.875 C 6.238281 48.097656 5.773438 46.210938 6.089844 45.535156 C 6.472656 44.726562 7.597656 45.792969 8.320312 46.203125 C 7.273438 43.777344 7.054688 41.230469 5.65625 38.898438 C 5.292969 38.300781 4.878906 37.707031 4.285156 37.34375 C 2.691406 36.355469 2.445312 36.34375 2.550781 37.667969 C 2.648438 38.882812 2.53125 41.480469 2.886719 42.429688 C 3.121094 43.058594 3.589844 43.574219 3.886719 44.175781 C 4.507812 45.445312 4.558594 47.152344 4.84375 48.535156 Z M 4.847656 48.535156 "/>
</g>
<mask id="mask3">
  <g filter="url(#alpha)">
<rect x="0" y="0" width="48" height="86" style="fill:rgb(0%,0%,0%);fill-opacity:0.168627;stroke:none;"/>
  </g>
</mask>
<clipPath id="clip4">
  <rect x="0" y="0" width="48" height="86"/>
</clipPath>
<g id="surface14" clip-path="url(#clip4)">
<path style=" stroke:none;fill-rule:nonzero;fill:rgb(0%,0%,0%);fill-opacity:1;" d="M 31.351562 33.753906 C 38.15625 25.519531 42.601562 15.371094 44.027344 4.804688 C 44.175781 3.710938 44.132812 2.015625 42.902344 1.621094 C 42.15625 4.085938 42.410156 7.160156 41.835938 9.777344 C 41.21875 12.601562 40.316406 15.355469 39.246094 18.039062 C 37.078125 23.496094 34.21875 28.644531 31.351562 33.753906 Z M 31.351562 33.753906 "/>
</g>
<mask id="mask4">
  <g filter="url(#alpha)">
<rect x="0" y="0" width="48" height="86" style="fill:rgb(0%,0%,0%);fill-opacity:0.168627;stroke:none;"/>
  </g>
</mask>
<clipPath id="clip5">
  <rect x="0" y="0" width="48" height="86"/>
</clipPath>
<g id="surface17" clip-path="url(#clip5)">
<path style=" stroke:none;fill-rule:nonzero;fill:rgb(0%,0%,0%);fill-opacity:1;" d="M 45.398438 7.984375 C 44.835938 20.621094 38.726562 31.476562 30.835938 41.828125 C 31.351562 38.75 32.59375 35.589844 34.132812 33.292969 C 35.929688 30.621094 37.601562 27.863281 39.085938 25.007812 C 40.535156 22.222656 41.808594 19.34375 42.84375 16.378906 C 43.757812 13.769531 43.660156 10.152344 45.398438 7.984375 Z M 45.398438 7.984375 "/>
</g>
<mask id="mask5">
  <g filter="url(#alpha)">
<rect x="0" y="0" width="48" height="86" style="fill:rgb(0%,0%,0%);fill-opacity:0.168627;stroke:none;"/>
  </g>
</mask>
<clipPath id="clip6">
  <rect x="0" y="0" width="48" height="86"/>
</clipPath>
<g id="surface20" clip-path="url(#clip6)">
<path style=" stroke:none;fill-rule:nonzero;fill:rgb(0%,0%,0%);fill-opacity:1;" d="M 10.71875 44.296875 C 12.957031 45.675781 15.734375 46.636719 18.660156 46.535156 C 24.070312 46.34375 30.113281 41.4375 29.90625 35.71875 C 29.953125 37.03125 25.578125 39.949219 24.53125 40.558594 C 22.902344 41.507812 21.277344 41.402344 19.46875 41.296875 C 16.507812 41.117188 13.753906 40.113281 11.464844 38.710938 C 13.300781 41.230469 16.710938 42.957031 20.453125 43.257812 C 18.816406 44.214844 15.191406 43.917969 13.472656 43.554688 C 12.050781 43.253906 7.980469 41.722656 7.113281 40.84375 C 8.152344 41.894531 9.386719 43.476562 10.71875 44.296875 Z M 10.71875 44.296875 "/>
</g>
<mask id="mask6">
  <g filter="url(#alpha)">
<rect x="0" y="0" width="48" height="86" style="fill:rgb(0%,0%,0%);fill-opacity:0.168627;stroke:none;"/>
  </g>
</mask>
<clipPath id="clip7">
  <rect x="0" y="0" width="48" height="86"/>
</clipPath>
<g id="surface23" clip-path="url(#clip7)">
<path style=" stroke:none;fill-rule:nonzero;fill:rgb(0%,0%,0%);fill-opacity:1;" d="M 8.832031 40.289062 C 6.175781 39.875 4.027344 37.785156 2.835938 35.382812 C 1.789062 33.265625 0.925781 31.292969 0.925781 28.792969 C 1.699219 30.976562 2.480469 33.367188 3.820312 35.304688 C 4.742188 36.644531 7.347656 39.285156 8.832031 40.289062 Z M 8.832031 40.289062 "/>
</g>
<mask id="mask7">
  <g filter="url(#alpha)">
<rect x="0" y="0" width="48" height="86" style="fill:rgb(0%,0%,0%);fill-opacity:0.168627;stroke:none;"/>
  </g>
</mask>
<clipPath id="clip8">
  <rect x="0" y="0" width="48" height="86"/>
</clipPath>
<g id="surface26" clip-path="url(#clip8)">
<path style=" stroke:none;fill-rule:nonzero;fill:rgb(0%,0%,0%);fill-opacity:1;" d="M 38.6875 53.972656 C 39.628906 55.851562 39.417969 57.433594 39.683594 59.09375 C 39.964844 60.878906 40.183594 62.675781 40.339844 64.476562 C 40.640625 67.929688 41.050781 71.84375 40.484375 75.28125 C 38.980469 75.191406 39.445312 72.402344 39.40625 71.425781 C 39.363281 70.457031 39.730469 68.394531 38.847656 67.761719 C 38.535156 67.535156 38.160156 67.367188 37.960938 67.035156 C 37.761719 66.707031 37.792969 66.292969 37.828125 65.910156 C 38.210938 61.953125 38.851562 57.949219 38.6875 53.972656 Z M 38.6875 53.972656 "/>
</g>
<mask id="mask8">
  <g filter="url(#alpha)">
<rect x="0" y="0" width="48" height="86" style="fill:rgb(0%,0%,0%);fill-opacity:0.168627;stroke:none;"/>
  </g>
</mask>
<clipPath id="clip9">
  <rect x="0" y="0" width="48" height="86"/>
</clipPath>
<g id="surface29" clip-path="url(#clip9)">
<path style=" stroke:none;fill-rule:nonzero;fill:rgb(0%,0%,0%);fill-opacity:1;" d="M 4.960938 72.730469 C 4.617188 76.226562 4.273438 76.347656 3.929688 79.84375 C 3.75 81.644531 2.765625 84.988281 3.613281 84.515625 C 4.378906 84.089844 5.769531 84.773438 6.882812 85.394531 C 5.898438 82.304688 6.257812 79.988281 5.925781 77.28125 C 5.632812 74.890625 6.550781 73.554688 4.960938 72.730469 Z M 4.960938 72.730469 "/>
</g>
</defs>
<g id="surface1">
<use xlink:href="#surface5" mask="url(#mask0)"/>
<path style=" stroke:none;fill-rule:nonzero;fill:rgb(52.156863%,85.098039%,64.705882%);fill-opacity:1;" d="M 36.160156 47.515625 C 35.871094 49.386719 35.550781 51.257812 35.199219 53.121094 C 34.132812 58.730469 33.308594 65.011719 35.851562 70.363281 C 36.164062 71.011719 36.5625 71.691406 37.238281 71.945312 C 37.644531 72.097656 38.113281 72.078125 38.488281 72.300781 C 39.4375 72.871094 39.125 74.542969 40.074219 75.113281 C 40.722656 75.503906 41.617188 75.082031 41.996094 74.425781 C 42.375 73.769531 42.378906 72.972656 42.359375 72.214844 C 42.148438 62.585938 40.335938 53.332031 41.339844 43.671875 C 42.25 34.945312 44.058594 26.246094 43.554688 17.492188 C 43.550781 17.441406 40.933594 19.078125 40.703125 19.300781 C 37.335938 22.542969 38.140625 29.238281 37.785156 33.535156 C 37.398438 38.210938 36.875 42.875 36.160156 47.511719 Z M 36.160156 47.515625 "/>
<path style=" stroke:none;fill-rule:nonzero;fill:rgb(52.156863%,85.098039%,64.705882%);fill-opacity:1;" d="M 2.734375 63.066406 C 1.457031 70.871094 -1.113281 75.40625 0.535156 83.140625 C 0.726562 84.039062 1.21875 85.121094 2.136719 85.101562 C 2.671875 85.089844 3.109375 84.691406 3.613281 84.515625 C 4.445312 84.230469 5.351562 84.585938 6.121094 85.003906 C 6.890625 85.425781 7.667969 85.933594 8.546875 85.972656 C 9.425781 86.007812 10.40625 85.320312 10.28125 84.457031 C 7.0625 79.214844 8.363281 75.859375 8.679688 69.722656 C 8.992188 63.582031 9.109375 57.242188 9.046875 51.097656 C 9.011719 47.550781 7.664062 44.492188 6.453125 41.140625 C 5.761719 39.230469 2.128906 33.179688 2.5 38.515625 C 3.089844 46.914062 4.117188 54.621094 2.734375 63.066406 Z M 2.734375 63.066406 "/>
<use xlink:href="#surface8" mask="url(#mask1)"/>
<use xlink:href="#surface11" mask="url(#mask2)"/>
<path style=" stroke:none;fill-rule:nonzero;fill:rgb(52.156863%,85.098039%,64.705882%);fill-opacity:1;" d="M 5.921875 34.242188 C 8.488281 37.617188 12.296875 38.308594 16.542969 38.515625 C 19.753906 38.675781 22.886719 37.417969 25.625 35.738281 C 31.503906 32.128906 33.835938 26.984375 36.804688 20.773438 C 38.269531 17.710938 39.382812 14.488281 40.226562 11.203125 C 41.015625 8.125 41.8125 5.035156 41.371094 1.886719 C 41.304688 1.398438 41.339844 0.867188 41.632812 0.472656 C 42.433594 -0.589844 43.398438 0.503906 44.019531 1.03125 C 44.316406 1.28125 44.773438 1.167969 45.136719 1.28125 C 45.5 1.394531 45.816406 1.632812 46.042969 1.9375 C 46.269531 2.242188 46.289062 2.644531 46.5625 2.875 C 46.859375 3.121094 47.265625 3.125 47.546875 3.4375 C 47.828125 3.75 47.976562 4.203125 47.996094 4.625 C 48.035156 5.355469 47.785156 6.066406 47.769531 6.796875 C 47.75 7.621094 47.609375 8.464844 47.5 9.28125 C 47.28125 10.917969 46.980469 12.542969 46.605469 14.152344 C 45.859375 17.359375 44.824219 20.496094 43.609375 23.554688 C 42.109375 27.332031 40.335938 30.996094 38.46875 34.605469 C 35.265625 40.792969 33.292969 42.71875 27.320312 46.328125 C 24.640625 47.945312 21.589844 49.027344 18.460938 49.125 C 15.332031 49.226562 12.121094 48.296875 9.722656 46.289062 C 7.03125 44.03125 4.414062 43.132812 3.148438 39.863281 C 1.898438 36.652344 1.992188 36.609375 1.125 33.273438 C 0.289062 30.066406 -0.335938 27.019531 0.8125 23.777344 C 0.945312 24.523438 1.203125 25.636719 1.417969 26.175781 C 1.980469 27.582031 2.761719 28.921875 3.464844 30.261719 C 4.195312 31.640625 4.976562 33 5.925781 34.246094 Z M 5.921875 34.242188 "/>
<use xlink:href="#surface14" mask="url(#mask3)"/>
<use xlink:href="#surface17" mask="url(#mask4)"/>
<use xlink:href="#surface20" mask="url(#mask5)"/>
<use xlink:href="#surface23" mask="url(#mask6)"/>
<use xlink:href="#surface26" mask="url(#mask7)"/>
<use xlink:href="#surface29" mask="url(#mask8)"/>
</g>
</svg>
