<?xml version="1.0" encoding="UTF-8"?>
<svg xmlns="http://www.w3.org/2000/svg" xmlns:xlink="http://www.w3.org/1999/xlink" width="48px" height="px" viewBox="0 0 48 31" version="1.1">
<defs>
<filter id="alpha" filterUnits="objectBoundingBox" x="0%" y="0%" width="100%" height="100%">
  <feColorMatrix type="matrix" in="SourceGraphic" values="0 0 0 0 1 0 0 0 0 1 0 0 0 0 1 0 0 0 1 0"/>
</filter>
<mask id="mask0">
  <g filter="url(#alpha)">
<rect x="0" y="0" width="48" height="31" style="fill:rgb(0%,0%,0%);fill-opacity:0.168627;stroke:none;"/>
  </g>
</mask>
<clipPath id="clip1">
  <rect x="0" y="0" width="49" height="31"/>
</clipPath>
<g id="surface5" clip-path="url(#clip1)">
<path style=" stroke:none;fill-rule:nonzero;fill:rgb(0%,0%,0%);fill-opacity:1;" d="M 17.425781 25.355469 C 17.617188 24.867188 16.488281 23.707031 15.792969 23.078125 C 15.253906 22.59375 14.527344 22.445312 13.828125 22.390625 C 13.371094 22.351562 12.503906 22.265625 13.011719 22.960938 C 13.417969 23.515625 14.46875 23.820312 15.066406 24.128906 C 15.792969 24.507812 16.832031 24.90625 17.425781 25.355469 Z M 17.425781 25.355469 "/>
</g>
<mask id="mask1">
  <g filter="url(#alpha)">
<rect x="0" y="0" width="48" height="31" style="fill:rgb(0%,0%,0%);fill-opacity:0.168627;stroke:none;"/>
  </g>
</mask>
<clipPath id="clip2">
  <rect x="0" y="0" width="49" height="31"/>
</clipPath>
<g id="surface8" clip-path="url(#clip2)">
<path style=" stroke:none;fill-rule:nonzero;fill:rgb(0%,0%,0%);fill-opacity:1;" d="M 45.183594 1.3125 C 45.398438 1.394531 45.605469 1.480469 45.8125 1.578125 C 45.953125 2.03125 45.835938 2.539062 45.601562 2.953125 C 45.257812 3.558594 44.703125 4.050781 44.195312 4.515625 C 43.640625 5.027344 43.078125 5.535156 42.511719 6.035156 C 41.378906 7.039062 40.226562 8.023438 39.058594 8.984375 C 37.890625 9.945312 36.824219 10.792969 35.679688 11.664062 C 34.910156 12.253906 34.144531 12.921875 33.316406 13.421875 C 33.035156 13.589844 31.816406 14.375 31.613281 13.855469 C 31.546875 13.695312 31.605469 13.511719 31.714844 13.378906 C 32.109375 12.886719 32.777344 12.480469 33.257812 12.0625 C 33.84375 11.550781 34.425781 11.039062 35.007812 10.519531 C 36.101562 9.535156 37.175781 8.519531 38.203125 7.460938 C 40.214844 5.378906 42.261719 3.394531 43.835938 0.925781 C 44.296875 1.019531 44.746094 1.148438 45.1875 1.3125 Z M 45.183594 1.3125 "/>
</g>
<mask id="mask2">
  <g filter="url(#alpha)">
<rect x="0" y="0" width="48" height="31" style="fill:rgb(0%,0%,0%);fill-opacity:0.168627;stroke:none;"/>
  </g>
</mask>
<clipPath id="clip3">
  <rect x="0" y="0" width="49" height="31"/>
</clipPath>
<g id="surface11" clip-path="url(#clip3)">
<path style=" stroke:none;fill-rule:nonzero;fill:rgb(0%,0%,0%);fill-opacity:1;" d="M 3.214844 20.644531 C 3.171875 21.136719 3.683594 21.476562 4.140625 21.648438 C 6.316406 22.46875 8.71875 22.113281 11.042969 22.101562 C 14.476562 22.082031 17.957031 22.578125 21.347656 21.738281 C 21.996094 21.578125 22.628906 21.351562 23.222656 21.039062 C 23.449219 20.917969 24.8125 20.234375 24.105469 19.980469 C 23.949219 19.925781 23.777344 19.960938 23.617188 20 C 22.21875 20.320312 20.824219 20.640625 19.429688 20.964844 C 18.8125 21.105469 18.21875 21.25 17.59375 21.292969 C 17.25 21.3125 16.90625 21.398438 16.558594 21.414062 C 16.324219 21.421875 15.851562 21.304688 15.652344 21.386719 C 16.769531 20.9375 17.847656 20.402344 18.878906 19.777344 C 17.875 19.863281 16.890625 20.128906 15.941406 20.472656 C 15.464844 20.648438 14.996094 20.839844 14.527344 21.042969 C 14.140625 21.210938 13.714844 21.488281 13.296875 21.542969 C 11.179688 21.820312 9.273438 21.136719 7.1875 20.875 C 5.871094 20.710938 4.542969 20.632812 3.214844 20.644531 Z M 3.214844 20.644531 "/>
</g>
<mask id="mask3">
  <g filter="url(#alpha)">
<rect x="0" y="0" width="48" height="31" style="fill:rgb(0%,0%,0%);fill-opacity:0.168627;stroke:none;"/>
  </g>
</mask>
<clipPath id="clip4">
  <rect x="0" y="0" width="49" height="31"/>
</clipPath>
<g id="surface14" clip-path="url(#clip4)">
<path style=" stroke:none;fill-rule:nonzero;fill:rgb(0%,0%,0%);fill-opacity:1;" d="M 7.421875 24.910156 C 7.117188 25.402344 6.808594 25.898438 6.636719 26.449219 C 7.1875 26.394531 7.523438 25.839844 7.835938 25.386719 C 8.324219 24.679688 8.960938 24.078125 9.6875 23.628906 C 9.929688 23.476562 10.476562 23.15625 10.253906 22.789062 C 10.085938 22.511719 9.601562 22.605469 9.367188 22.707031 C 8.5 23.09375 7.90625 24.140625 7.421875 24.910156 Z M 7.421875 24.910156 "/>
</g>
<mask id="mask4">
  <g filter="url(#alpha)">
<rect x="0" y="0" width="48" height="31" style="fill:rgb(0%,0%,0%);fill-opacity:0.168627;stroke:none;"/>
  </g>
</mask>
<clipPath id="clip5">
  <rect x="0" y="0" width="49" height="31"/>
</clipPath>
<g id="surface17" clip-path="url(#clip5)">
<path style=" stroke:none;fill-rule:nonzero;fill:rgb(0%,0%,0%);fill-opacity:1;" d="M 12.003906 20.6875 C 11.902344 21.335938 11.449219 21.90625 11.460938 22.5625 C 11.386719 22.582031 11.308594 22.546875 11.261719 22.492188 C 11.210938 22.4375 11.183594 22.363281 11.160156 22.292969 C 11.054688 21.988281 10.964844 21.675781 10.894531 21.359375 C 10.855469 21.1875 10.824219 21.015625 10.789062 20.84375 C 10.777344 20.769531 10.765625 20.683594 10.8125 20.621094 C 10.875 20.542969 11.195312 20.703125 11.289062 20.71875 C 11.523438 20.753906 11.769531 20.746094 12.003906 20.691406 Z M 12.003906 20.6875 "/>
</g>
</defs>
<g id="surface1">
<path style=" stroke:none;fill-rule:nonzero;fill:rgb(74.509804%,11.764706%,17.647059%);fill-opacity:1;" d="M 17.628906 28.160156 C 19.390625 29.414062 21.730469 30.101562 23.71875 29.273438 C 22.890625 28.5625 22.402344 27.542969 21.78125 26.644531 C 19.925781 23.945312 16.09375 21.738281 12.753906 22.332031 C 12.722656 23.601562 13.757812 24.328125 14.542969 25.210938 C 15.488281 26.28125 16.464844 27.332031 17.628906 28.160156 Z M 17.628906 28.160156 "/>
<use xlink:href="#surface5" mask="url(#mask0)"/>
<path style=" stroke:none;fill-rule:nonzero;fill:rgb(74.509804%,11.764706%,17.647059%);fill-opacity:1;" d="M 40.105469 0.925781 C 40.429688 0.542969 40.785156 0.132812 41.273438 0.0273438 C 41.96875 -0.125 42.613281 0.386719 43.28125 0.636719 C 44.140625 0.957031 45.097656 1.488281 46 1.632812 C 46.90625 1.773438 47.890625 2.351562 47.960938 3.273438 C 48.011719 3.898438 47.621094 4.464844 47.246094 4.960938 C 46.066406 6.53125 44.96875 7.566406 43.632812 9.003906 C 42.367188 10.375 41.007812 11.65625 39.5625 12.835938 C 34.019531 17.359375 28.832031 20.730469 21.746094 22.21875 C 19.359375 22.71875 16.910156 22.9375 14.476562 22.78125 C 13.433594 22.714844 11.417969 22.980469 9.433594 21.976562 C 14.464844 20.742188 18.027344 18.722656 22.460938 16.03125 C 24.703125 14.671875 26.847656 13.136719 28.859375 11.449219 C 30.8125 9.808594 32.859375 8.273438 34.726562 6.542969 C 36.625 4.777344 38.421875 2.902344 40.105469 0.921875 Z M 40.105469 0.925781 "/>
<path style=" stroke:none;fill-rule:nonzero;fill:rgb(74.509804%,11.764706%,17.647059%);fill-opacity:1;" d="M 6.433594 23.4375 C 5.5625 24.539062 5.167969 25.882812 4.75 27.1875 C 4.332031 28.492188 3.851562 29.824219 2.859375 30.84375 C 4.117188 31.191406 5.492188 30.929688 6.5625 30.328125 C 7.632812 29.730469 8.425781 28.820312 9.042969 27.847656 C 9.589844 26.992188 10.007812 26.070312 10.296875 25.117188 C 10.523438 24.375 11.007812 23.09375 10.667969 22.320312 C 9.875 20.527344 7.035156 22.671875 6.433594 23.4375 Z M 6.433594 23.4375 "/>
<path style=" stroke:none;fill-rule:nonzero;fill:rgb(74.509804%,11.764706%,17.647059%);fill-opacity:1;" d="M 0.957031 21.085938 C 0.964844 21.113281 0.972656 21.140625 0.976562 21.167969 C 1.03125 21.460938 0.980469 21.757812 0.964844 22.054688 C 0.929688 22.691406 1.289062 23.035156 1.773438 23.390625 C 2.800781 24.144531 4.085938 23.777344 5.246094 23.71875 C 7.621094 23.597656 11.09375 22.652344 12.121094 21.808594 C 9.375 20.605469 5.316406 19.429688 2.789062 17.789062 C 2.203125 17.40625 1.5625 16.746094 0.785156 17.027344 C -0.210938 17.386719 -0.0507812 19.253906 0.335938 19.960938 C 0.542969 20.339844 0.851562 20.675781 0.957031 21.085938 Z M 0.957031 21.085938 "/>
<use xlink:href="#surface8" mask="url(#mask1)"/>
<use xlink:href="#surface11" mask="url(#mask2)"/>
<use xlink:href="#surface14" mask="url(#mask3)"/>
<path style=" stroke:none;fill-rule:nonzero;fill:rgb(74.509804%,11.764706%,17.647059%);fill-opacity:1;" d="M 9.480469 21.339844 C 9.535156 21.09375 9.621094 20.851562 9.78125 20.664062 C 9.941406 20.476562 10.1875 20.351562 10.425781 20.394531 C 10.808594 20.457031 11.0625 20.746094 11.449219 20.769531 C 11.878906 20.792969 12.230469 20.433594 12.648438 20.527344 C 13.011719 20.605469 13.140625 21.066406 13.199219 21.449219 C 13.265625 21.902344 13.335938 22.359375 13.40625 22.8125 C 13.453125 23.132812 13.5 23.460938 13.402344 23.765625 C 13.113281 24.652344 11.515625 24.964844 10.757812 24.613281 C 9.6875 24.113281 9.238281 22.429688 9.480469 21.339844 Z M 9.480469 21.339844 "/>
<use xlink:href="#surface17" mask="url(#mask4)"/>
</g>
</svg>
