<?xml version="1.0" encoding="UTF-8"?>
<svg xmlns="http://www.w3.org/2000/svg" xmlns:xlink="http://www.w3.org/1999/xlink" width="48px" height="px" viewBox="0 0 48 55" version="1.1">
<defs>
<filter id="alpha" filterUnits="objectBoundingBox" x="0%" y="0%" width="100%" height="100%">
  <feColorMatrix type="matrix" in="SourceGraphic" values="0 0 0 0 1 0 0 0 0 1 0 0 0 0 1 0 0 0 1 0"/>
</filter>
<mask id="mask0">
  <g filter="url(#alpha)">
<rect x="0" y="0" width="48" height="55" style="fill:rgb(0%,0%,0%);fill-opacity:0.25098;stroke:none;"/>
  </g>
</mask>
<clipPath id="clip1">
  <rect x="0" y="0" width="49" height="55"/>
</clipPath>
<g id="surface5" clip-path="url(#clip1)">
<path style=" stroke:none;fill-rule:nonzero;fill:rgb(0%,0%,0%);fill-opacity:1;" d="M 2.707031 36.636719 L 3.207031 36.996094 C 3.242188 37.019531 3.261719 37.058594 3.261719 37.097656 L 3.261719 52.683594 C 3.261719 52.734375 3.230469 52.777344 3.183594 52.796875 L 2.683594 53.019531 C 2.597656 53.058594 2.5 52.996094 2.5 52.902344 L 2.5 36.738281 C 2.5 36.632812 2.621094 36.574219 2.707031 36.636719 Z M 2.707031 36.636719 "/>
</g>
<mask id="mask1">
  <g filter="url(#alpha)">
<rect x="0" y="0" width="48" height="55" style="fill:rgb(0%,0%,0%);fill-opacity:0.25098;stroke:none;"/>
  </g>
</mask>
<clipPath id="clip2">
  <rect x="0" y="0" width="49" height="55"/>
</clipPath>
<g id="surface8" clip-path="url(#clip2)">
<path style=" stroke:none;fill-rule:nonzero;fill:rgb(0%,0%,0%);fill-opacity:1;" d="M 31.617188 38.023438 C 31.710938 38.410156 31.703125 38.828125 31.667969 39.230469 C 31.59375 40.085938 31.699219 40.867188 31.695312 41.703125 C 31.695312 42.746094 31.574219 43.792969 31.558594 44.839844 C 31.53125 46.285156 31.714844 47.726562 31.648438 49.167969 C 31.621094 49.8125 31.59375 50.597656 31.351562 51.203125 C 31.109375 51.808594 30.597656 52.296875 30.210938 52.792969 C 30.132812 52.894531 30.050781 53.027344 30.109375 53.140625 C 30.179688 53.277344 30.378906 53.265625 30.53125 53.226562 C 31.136719 53.078125 31.765625 52.878906 32.171875 52.417969 C 32.859375 51.636719 32.46875 50.140625 32.476562 49.183594 C 32.488281 47.828125 32.574219 46.472656 32.625 45.117188 C 32.710938 42.683594 32.832031 40.238281 32.648438 37.8125 C 32.625 37.464844 32.71875 36.863281 32.5625 36.554688 C 32.253906 35.949219 31.21875 35.957031 30.644531 35.894531 C 30.285156 35.855469 29.265625 35.804688 29.84375 36.378906 C 30.273438 36.800781 30.960938 36.847656 31.328125 37.363281 C 31.472656 37.566406 31.5625 37.785156 31.617188 38.023438 Z M 31.617188 38.023438 "/>
</g>
<mask id="mask2">
  <g filter="url(#alpha)">
<rect x="0" y="0" width="48" height="55" style="fill:rgb(0%,0%,0%);fill-opacity:0.25098;stroke:none;"/>
  </g>
</mask>
<clipPath id="clip3">
  <rect x="0" y="0" width="49" height="55"/>
</clipPath>
<g id="surface11" clip-path="url(#clip3)">
<path style=" stroke:none;fill-rule:nonzero;fill:rgb(0%,0%,0%);fill-opacity:1;" d="M 21.761719 36.585938 C 21.171875 36.5625 20.582031 36.542969 19.992188 36.480469 C 20.238281 36.214844 20.597656 36.082031 20.945312 35.976562 C 21.632812 35.769531 22.378906 35.585938 23.101562 35.570312 L 28.304688 35.4375 C 28.417969 35.4375 28.535156 35.4375 28.636719 35.492188 C 29.089844 35.757812 28.859375 37.550781 28.871094 38.019531 C 28.90625 39.183594 28.917969 40.347656 28.910156 41.511719 C 28.910156 43.441406 28.75 49.636719 28.773438 50.816406 C 28.792969 51.796875 29.074219 53.136719 28.597656 54.046875 C 27.484375 53.964844 26.367188 53.964844 25.257812 54.039062 C 25.023438 54.054688 24.707031 54.007812 24.683594 53.777344 C 24.664062 53.546875 24.972656 53.449219 25.199219 53.390625 C 26.824219 52.957031 27.539062 51.320312 27.761719 49.828125 C 28.214844 46.769531 27.875 43.660156 27.421875 40.613281 C 27.324219 39.929688 27.199219 39.234375 26.855469 38.636719 C 26.300781 37.671875 25.234375 37.078125 24.136719 36.832031 C 23.34375 36.65625 22.554688 36.617188 21.757812 36.585938 Z M 21.761719 36.585938 "/>
</g>
</defs>
<g id="surface1">
<path style=" stroke:none;fill-rule:nonzero;fill:rgb(73.72549%,74.509804%,75.294118%);fill-opacity:1;" d="M 29.710938 33.863281 C 29.835938 34.140625 29.75 34.507812 29.660156 34.929688 C 29.648438 34.992188 29.632812 35.058594 29.582031 35.097656 C 29.539062 35.132812 29.472656 35.140625 29.414062 35.140625 C 27.890625 35.234375 26.363281 35.328125 24.835938 35.402344 C 24.773438 35.402344 24.699219 35.402344 24.660156 35.351562 C 24.640625 35.324219 24.636719 35.289062 24.628906 35.253906 C 24.558594 34.640625 24.285156 33.789062 24.957031 33.507812 C 25.632812 33.222656 26.441406 33.226562 27.136719 33.226562 C 27.816406 33.226562 28.5625 33.25 29.214844 33.472656 C 29.484375 33.566406 29.632812 33.695312 29.710938 33.863281 Z M 29.710938 33.863281 "/>
<path style=" stroke:none;fill-rule:nonzero;fill:rgb(7.843137%,81.960784%,87.45098%);fill-opacity:1;" d="M 3.554688 43.976562 C 4.433594 41.566406 4.148438 38.558594 3.792969 36.164062 C 2.9375 30.339844 2.15625 24.367188 0.234375 18.765625 C -0.117188 20.261719 0.0351562 22.132812 0.0234375 23.695312 C 0.0117188 25.367188 0.0546875 27.035156 0.160156 28.699219 C 0.375 32.015625 0.851562 35.324219 1.675781 38.546875 C 1.996094 39.789062 2.535156 41.421875 1.492188 42.484375 C 0.808594 43.175781 -0.34375 44.21875 0.460938 45.269531 C 1.265625 46.320312 2.652344 45.832031 3.183594 44.820312 C 3.324219 44.546875 3.449219 44.269531 3.554688 43.976562 Z M 3.554688 43.976562 "/>
<path style="fill-rule:nonzero;fill:rgb(34.509804%,34.901961%,35.686275%);fill-opacity:1;stroke-width:8;stroke-linecap:butt;stroke-linejoin:round;stroke:rgb(65.490196%,66.27451%,67.45098%);stroke-opacity:1;stroke-miterlimit:4;" d="M 179.806242 342.077761 L 14.326419 336.418731 L 14.326419 228.454283 L 179.806242 221.860283 Z M 179.806242 342.077761 " transform="matrix(0.161415,0,0,0.158762,0,0.0270724)"/>
<path style="fill-rule:nonzero;fill:rgb(25.490196%,25.098039%,25.882353%);fill-opacity:1;stroke-width:8;stroke-linecap:butt;stroke-linejoin:round;stroke:rgb(57.647059%,58.431373%,59.607843%);stroke-opacity:1;stroke-miterlimit:4;" d="M 179.806242 221.860283 L 202.868873 228.528097 L 202.118672 329.947753 L 179.806242 342.077761 Z M 179.806242 221.860283 " transform="matrix(0.161415,0,0,0.158762,0,0.0270724)"/>
<use xlink:href="#surface5" mask="url(#mask0)"/>
<use xlink:href="#surface8" mask="url(#mask1)"/>
<path style=" stroke:none;fill-rule:nonzero;fill:rgb(50.196078%,50.980392%,52.156863%);fill-opacity:1;" d="M 14.757812 31.03125 L 20.699219 31.589844 L 22.070312 33.042969 L 22.148438 34.886719 L 18.132812 35.035156 C 18.132812 35.035156 21.058594 39.007812 20.945312 44.707031 C 20.871094 48.597656 19.265625 51.851562 18.257812 53.523438 C 17.804688 54.273438 16.984375 54.738281 16.097656 54.738281 L 14.863281 54.714844 L 14.757812 31.027344 Z M 14.757812 31.03125 "/>
<path style=" stroke:none;fill-rule:nonzero;fill:rgb(65.490196%,66.27451%,67.45098%);fill-opacity:1;" d="M 6.042969 35.394531 C 6.042969 35.394531 -1.402344 43.421875 5.597656 53.773438 C 5.898438 54.21875 6.398438 54.492188 6.9375 54.507812 L 14.863281 54.71875 C 15.410156 54.730469 15.925781 54.480469 16.246094 54.042969 C 17.875 51.832031 22.160156 44.554688 16.546875 35.027344 L 16.488281 33.042969 L 14.757812 31.03125 L 7.589844 31.460938 L 6.113281 33.042969 L 6.046875 35.394531 Z M 6.042969 35.394531 "/>
<path style=" stroke:none;fill-rule:nonzero;fill:rgb(25.490196%,25.098039%,25.882353%);fill-opacity:1;" d="M 17.953125 44.820312 C 17.953125 39.859375 14.816406 35.839844 10.945312 35.839844 C 7.074219 35.839844 3.933594 39.859375 3.933594 44.820312 C 3.933594 49.78125 7.074219 53.800781 10.945312 53.800781 C 14.816406 53.800781 17.953125 49.78125 17.953125 44.820312 Z M 17.953125 44.820312 "/>
<path style=" stroke:none;fill-rule:nonzero;fill:rgb(34.509804%,34.901961%,35.686275%);fill-opacity:1;" d="M 16.277344 44.792969 C 16.277344 39.832031 13.136719 35.8125 9.265625 35.8125 C 5.394531 35.8125 2.253906 39.832031 2.253906 44.792969 C 2.253906 49.753906 5.394531 53.773438 9.265625 53.773438 C 13.136719 53.773438 16.277344 49.753906 16.277344 44.792969 Z M 16.277344 44.792969 "/>
<path style="fill-rule:nonzero;fill:rgb(57.647059%,58.431373%,59.607843%);fill-opacity:1;stroke-width:4;stroke-linecap:butt;stroke-linejoin:miter;stroke:rgb(73.72549%,74.509804%,75.294118%);stroke-opacity:1;stroke-miterlimit:10;" d="M 91.088923 281.969022 C 91.088923 257.733612 76.012302 238.074634 57.402477 238.074634 C 38.792652 238.074634 23.691832 257.733612 23.691832 281.969022 C 23.691832 306.204432 38.792652 325.86341 57.402477 325.86341 C 76.012302 325.86341 91.088923 306.204432 91.088923 281.969022 Z M 91.088923 281.969022 " transform="matrix(0.161415,0,0,0.158762,0,0.0270724)"/>
<path style="fill-rule:nonzero;fill:rgb(72.54902%,86.27451%,91.764706%);fill-opacity:1;stroke-width:3;stroke-linecap:butt;stroke-linejoin:miter;stroke:rgb(42.745098%,43.137255%,44.313725%);stroke-opacity:1;stroke-miterlimit:10;" d="M 76.568903 281.969022 C 76.568903 268.16591 68.002091 256.995477 57.402477 256.995477 C 46.802863 256.995477 38.211851 268.16591 38.211851 281.969022 C 38.211851 295.772134 46.802863 306.942567 57.402477 306.942567 C 68.002091 306.942567 76.568903 295.772134 76.568903 281.969022 Z M 76.568903 281.969022 " transform="matrix(0.161415,0,0,0.158762,0,0.0270724)"/>
<path style=" stroke:none;fill-rule:nonzero;fill:rgb(100%,100%,100%);fill-opacity:1;" d="M 8.945312 42.074219 C 8.226562 41.898438 7.429688 42.601562 7.167969 43.648438 C 6.902344 44.695312 7.269531 45.683594 7.988281 45.859375 C 8.707031 46.035156 9.507812 45.332031 9.769531 44.285156 C 10.035156 43.238281 9.667969 42.25 8.945312 42.074219 Z M 8.945312 42.074219 "/>
<use xlink:href="#surface11" mask="url(#mask2)"/>
<path style=" stroke:none;fill-rule:nonzero;fill:rgb(7.843137%,81.960784%,87.45098%);fill-opacity:1;" d="M 47.730469 3.265625 C 48 2.375 48.089844 1.78125 47.890625 1.695312 C 47.109375 1.339844 46.273438 0.652344 45.574219 0.0898438 C 45.417969 -0.0351562 45.1875 0.0351562 45.125 0.222656 C 43.292969 5.832031 41.125 11.648438 38.082031 16.730469 C 35.25 21.457031 31.730469 26.390625 30.324219 31.761719 C 29.511719 34.867188 28.875 38.816406 30.710938 42.753906 C 31.40625 44.238281 33.34375 45.191406 34.863281 44.527344 C 35.035156 44.449219 35.203125 44.351562 35.320312 44.203125 C 35.625 43.808594 35.425781 43.210938 35.066406 42.859375 C 34.707031 42.507812 34.226562 42.304688 33.835938 41.988281 C 33.066406 41.375 32.691406 40.382812 32.625 39.414062 C 32.148438 32.527344 35.472656 27.304688 38.835938 21.707031 C 42.355469 15.847656 45.738281 9.8125 47.730469 3.265625 Z M 47.730469 3.265625 "/>
<path style=" stroke:none;fill-rule:nonzero;fill:rgb(50.196078%,50.980392%,52.156863%);fill-opacity:1;" d="M 32.175781 39.246094 C 32.175781 38.519531 31.851562 37.929688 31.449219 37.929688 C 31.050781 37.929688 30.722656 38.519531 30.722656 39.246094 C 30.722656 39.972656 31.050781 40.558594 31.449219 40.558594 C 31.851562 40.558594 32.175781 39.972656 32.175781 39.246094 Z M 32.175781 39.246094 "/>
</g>
</svg>
