<?xml version="1.0" encoding="UTF-8"?>
<svg xmlns="http://www.w3.org/2000/svg" xmlns:xlink="http://www.w3.org/1999/xlink" width="48px" height="px" viewBox="0 0 48 71" version="1.1">
<defs>
<filter id="alpha" filterUnits="objectBoundingBox" x="0%" y="0%" width="100%" height="100%">
  <feColorMatrix type="matrix" in="SourceGraphic" values="0 0 0 0 1 0 0 0 0 1 0 0 0 0 1 0 0 0 1 0"/>
</filter>
<mask id="mask0">
  <g filter="url(#alpha)">
<rect x="0" y="0" width="48" height="71" style="fill:rgb(0%,0%,0%);fill-opacity:0.180392;stroke:none;"/>
  </g>
</mask>
<clipPath id="clip1">
  <rect x="0" y="0" width="49" height="71"/>
</clipPath>
<g id="surface5" clip-path="url(#clip1)">
<path style=" stroke:none;fill-rule:nonzero;fill:rgb(0%,0%,0%);fill-opacity:1;" d="M 22.625 33.964844 C 32.308594 26.722656 43.371094 15.222656 46.929688 5 C 42.144531 9.136719 36.765625 12.5625 31.144531 15.46875 C 28.519531 16.828125 25.671875 17.792969 23.0625 19.109375 C 21.820312 19.738281 20.816406 20.875 19.566406 21.558594 C 18.304688 22.242188 16.953125 22.761719 15.554688 23.085938 C 11.054688 24.125 5.171875 22.925781 1.351562 25.964844 C 0.753906 26.445312 8.335938 31.824219 10.8125 33.820312 C 11.214844 34.144531 11.816406 34.011719 12.039062 33.542969 C 12.492188 32.585938 12.550781 31.441406 13.160156 30.589844 C 13.824219 29.671875 14.992188 29.042969 16.097656 28.859375 C 17.226562 28.675781 18.414062 28.921875 19.382812 29.519531 C 18.941406 29.675781 18.832031 30.296875 18.828125 30.785156 C 18.773438 37.066406 19.351562 43.351562 20.554688 49.515625 C 20.984375 51.703125 21.488281 53.890625 21.609375 56.113281 C 21.726562 58.339844 21.429688 60.644531 20.339844 62.59375 C 19.496094 64.105469 18.007812 65.539062 17.757812 67.3125 C 17.535156 68.859375 19.234375 70.210938 20.347656 70.984375 C 20.605469 71.164062 23.339844 66.597656 23.539062 66.273438 C 25.117188 63.65625 26.625 61.640625 26.015625 58.46875 C 25.421875 55.390625 25.03125 52.234375 24.394531 49.191406 C 23.316406 44.03125 22.238281 38.867188 21.160156 33.707031 C 21.476562 34.253906 21.933594 34.484375 22.621094 33.964844 Z M 22.625 33.964844 "/>
</g>
<mask id="mask1">
  <g filter="url(#alpha)">
<rect x="0" y="0" width="48" height="71" style="fill:rgb(0%,0%,0%);fill-opacity:0.180392;stroke:none;"/>
  </g>
</mask>
<clipPath id="clip2">
  <rect x="0" y="0" width="49" height="71"/>
</clipPath>
<g id="surface8" clip-path="url(#clip2)">
<path style=" stroke:none;fill-rule:nonzero;fill:rgb(0%,0%,0%);fill-opacity:1;" d="M 10.371094 61.003906 C 10.371094 61.003906 13.09375 64.5625 13.871094 65.488281 C 15.136719 67 16.46875 68.632812 18.109375 69.765625 C 20.324219 67.203125 24.417969 60.496094 24.417969 60.496094 C 24.339844 59.9375 23.9375 56.605469 23.84375 56.339844 C 23.503906 59.832031 22.992188 61.503906 20.980469 64.074219 C 20.351562 64.875 19.316406 65.941406 18.324219 66.316406 C 16.128906 67.148438 10.378906 60.835938 10.371094 61.003906 Z M 10.371094 61.003906 "/>
</g>
<mask id="mask2">
  <g filter="url(#alpha)">
<rect x="0" y="0" width="48" height="71" style="fill:rgb(0%,0%,0%);fill-opacity:0.180392;stroke:none;"/>
  </g>
</mask>
<clipPath id="clip3">
  <rect x="0" y="0" width="49" height="71"/>
</clipPath>
<g id="surface11" clip-path="url(#clip3)">
<path style=" stroke:none;fill-rule:nonzero;fill:rgb(0%,0%,0%);fill-opacity:1;" d="M 13.441406 30.882812 C 13.410156 31.3125 13.644531 31.355469 14.050781 31.542969 C 14.679688 31.835938 15.355469 32.050781 16.050781 32.105469 C 16.75 32.160156 17.375 32.058594 17.992188 31.8125 C 18.515625 31.609375 18.886719 31.277344 19.347656 30.988281 C 19.222656 30.609375 19.167969 30.238281 19.0625 29.855469 C 18.929688 29.378906 18.648438 29.007812 18.101562 29.066406 C 17.078125 29.175781 16.050781 29.261719 15.027344 29.382812 C 14.769531 29.410156 14.507812 29.472656 14.25 29.476562 C 14.113281 29.480469 13.867188 29.398438 13.742188 29.472656 C 13.492188 29.625 13.484375 30.542969 13.449219 30.832031 C 13.449219 30.847656 13.445312 30.863281 13.445312 30.882812 Z M 13.441406 30.882812 "/>
</g>
<mask id="mask3">
  <g filter="url(#alpha)">
<rect x="0" y="0" width="48" height="71" style="fill:rgb(0%,0%,0%);fill-opacity:0.180392;stroke:none;"/>
  </g>
</mask>
<clipPath id="clip4">
  <rect x="0" y="0" width="49" height="71"/>
</clipPath>
<g id="surface14" clip-path="url(#clip4)">
<path style=" stroke:none;fill-rule:nonzero;fill:rgb(0%,0%,0%);fill-opacity:1;" d="M 16.203125 23.515625 C 17.476562 23.453125 18.609375 24.285156 19.554688 25.136719 C 19.367188 23.972656 18.964844 22.84375 18.378906 21.816406 C 16.832031 22.578125 14.792969 21.839844 13.355469 22.785156 C 12.511719 23.335938 12.09375 24.339844 11.890625 25.320312 C 11.714844 26.167969 11.359375 27.378906 11.453125 28.214844 C 12.238281 27.863281 12.644531 26.699219 13.03125 25.988281 C 13.679688 24.777344 14.714844 23.585938 16.203125 23.515625 Z M 16.203125 23.515625 "/>
</g>
</defs>
<g id="surface1">
<path style=" stroke:none;fill-rule:nonzero;fill:rgb(81.960784%,82.745098%,83.137255%);fill-opacity:1;" d="M 18.960938 23.136719 C 18.4375 23.6875 17.644531 24.113281 16.929688 24.398438 C 15.765625 24.859375 14.511719 25.03125 13.269531 25.199219 C 12.691406 25.277344 12.101562 25.355469 11.527344 25.25 C 10.210938 25.011719 10.082031 24.203125 10.808594 23.234375 C 11.5625 22.230469 13.058594 21.871094 14.230469 21.675781 C 15.902344 21.398438 17.617188 21.246094 19.285156 20.992188 C 19.75 21.835938 19.503906 22.554688 18.960938 23.136719 Z M 18.960938 23.136719 "/>
<use xlink:href="#surface5" mask="url(#mask0)"/>
<path style=" stroke:none;fill-rule:nonzero;fill:rgb(0%,50.588235%,67.843137%);fill-opacity:1;" d="M 10.371094 61.003906 C 10.371094 61.003906 15.28125 67.8125 18.109375 69.765625 C 20.324219 67.203125 24.417969 60.496094 24.417969 60.496094 C 24.417969 60.496094 19.828125 31.363281 18.742188 29.515625 C 17.046875 26.613281 13.902344 28.964844 13.902344 28.964844 C 12.707031 34.429688 10.371094 61.003906 10.371094 61.003906 Z M 10.371094 61.003906 "/>
<use xlink:href="#surface8" mask="url(#mask1)"/>
<use xlink:href="#surface11" mask="url(#mask2)"/>
<path style=" stroke:none;fill-rule:nonzero;fill:rgb(0%,50.588235%,67.843137%);fill-opacity:1;" d="M 19.058594 22.21875 C 19.828125 22.253906 20.703125 22.390625 21.132812 23.027344 C 21.800781 24.019531 20.597656 25.683594 20.304688 26.730469 C 20.003906 27.804688 19.675781 29.238281 18.929688 30.0625 C 15.808594 31.222656 13.695312 30.183594 13.695312 30.183594 C 13.695312 30.183594 11.0625 26.054688 11.433594 24.144531 C 11.769531 22.449219 12.679688 22.800781 14.074219 22.515625 C 15.707031 22.183594 17.398438 22.148438 19.058594 22.21875 Z M 19.058594 22.21875 "/>
<use xlink:href="#surface14" mask="url(#mask3)"/>
<path style=" stroke:none;fill-rule:nonzero;fill:rgb(94.509804%,94.901961%,94.901961%);fill-opacity:1;" d="M 44.058594 0.0117188 C 45.535156 1 46.261719 1.488281 47.738281 2.480469 C 49.800781 3.863281 39.007812 16.21875 37.957031 17.414062 C 33.425781 22.5625 28.683594 26.445312 23.242188 30.679688 C 22.972656 30.890625 22.699219 31.105469 22.425781 31.308594 C 22.132812 31.53125 21.703125 31.40625 21.574219 31.058594 C 20.761719 28.839844 19.234375 25.476562 18.308594 23.914062 C 17.484375 22.523438 16.582031 21.902344 15.964844 21.542969 C 15.78125 21.433594 15.792969 21.167969 15.984375 21.074219 C 18.378906 19.863281 21.257812 19.25 23.746094 18.234375 C 28.429688 16.324219 32.847656 13.652344 36.515625 10.167969 C 37.425781 9.304688 45.191406 0.769531 44.0625 0.0078125 Z M 44.058594 0.0117188 "/>
<path style=" stroke:none;fill-rule:nonzero;fill:rgb(94.509804%,94.901961%,94.901961%);fill-opacity:1;" d="M 2.089844 26.472656 C 1.554688 26.0625 1.1875 25.742188 1.089844 25.578125 C 0.296875 24.226562 0.316406 21.683594 0 20.144531 C 0.203125 21.148438 6.71875 21.636719 7.648438 21.691406 C 9.875 21.832031 11.882812 21.675781 14.160156 21.425781 C 14.390625 21.402344 14.546875 21.660156 14.410156 21.847656 C 13.082031 23.640625 11.992188 29.277344 11.71875 31.703125 C 11.675781 32.09375 11.246094 32.3125 10.902344 32.121094 C 9.425781 31.3125 7.640625 30.183594 6.984375 29.796875 C 5.292969 28.8125 3.640625 27.660156 2.089844 26.472656 Z M 2.089844 26.472656 "/>
</g>
</svg>
