<?xml version="1.0" encoding="UTF-8"?>
<svg xmlns="http://www.w3.org/2000/svg" xmlns:xlink="http://www.w3.org/1999/xlink" width="48px" height="px" viewBox="0 0 48 47" version="1.1">
<g id="surface1">
<path style="fill:none;stroke-width:1.5;stroke-linecap:butt;stroke-linejoin:miter;stroke:rgb(92.156863%,75.686275%,49.019608%);stroke-opacity:1;stroke-miterlimit:10;" d="M 2.920741 150.749981 L 3.322065 150.460451 C 4.08012 149.970478 5.105723 150.14865 5.618525 150.861338 C 6.109032 151.574026 6.621833 152.264442 7.134635 152.954859 C 7.669733 153.689818 7.513663 154.714307 6.800199 155.271095 L 6.398876 155.560624 C 5.685413 156.117411 4.659809 155.939239 4.08012 155.20428 C 3.567318 154.491592 3.009924 153.778904 2.519418 153.043945 C 1.98432 152.286714 2.162686 151.239953 2.920741 150.749981 Z M 2.920741 150.749981 " transform="matrix(0.175202,0,0,0.175392,0,0.00882723)"/>
<path style="fill:none;stroke-width:1.5;stroke-linecap:round;stroke-linejoin:miter;stroke:rgb(92.156863%,75.686275%,49.019608%);stroke-opacity:1;stroke-miterlimit:10;" d="M 3.924049 151.752198 L 2.296461 149.413691 L 0.758055 147.03064 " transform="matrix(0.175202,0,0,0.175392,0,0.00882723)"/>
<path style="fill:none;stroke-width:1.5;stroke-linecap:butt;stroke-linejoin:miter;stroke:rgb(92.156863%,75.686275%,49.019608%);stroke-opacity:1;stroke-miterlimit:10;" d="M 8.182535 157.810045 L 8.561563 157.520516 C 9.275026 156.941457 10.30063 157.052814 10.880319 157.765502 L 12.530203 159.769937 C 13.109893 160.460353 13.043005 161.484842 12.351838 162.086173 L 11.97281 162.420245 C 11.281642 162.999304 10.256038 162.910218 9.654054 162.219802 L 7.959578 160.170824 C 7.379889 159.435865 7.469071 158.389104 8.182535 157.832317 Z M 8.182535 157.810045 " transform="matrix(0.175202,0,0,0.175392,0,0.00882723)"/>
<path style="fill:none;stroke-width:1.5;stroke-linecap:round;stroke-linejoin:miter;stroke:rgb(92.156863%,75.686275%,49.019608%);stroke-opacity:1;stroke-miterlimit:10;" d="M 9.25273 158.76772 C 8.071056 157.275529 6.867087 155.80561 5.7523 154.268877 " transform="matrix(0.175202,0,0,0.175392,0,0.00882723)"/>
<path style="fill:none;stroke-width:1.5;stroke-linecap:butt;stroke-linejoin:miter;stroke:rgb(92.156863%,75.686275%,49.019608%);stroke-opacity:1;stroke-miterlimit:10;" d="M 13.890243 164.536037 L 14.246975 164.201965 C 14.938143 163.600635 15.941451 163.667449 16.565732 164.313322 L 18.34939 166.2064 C 18.951375 166.874545 18.951375 167.899034 18.304799 168.522635 L 17.948067 168.878979 C 17.301491 169.502581 16.231296 169.502581 15.607015 168.812165 L 13.80106 166.874545 C 13.154484 166.2064 13.199076 165.137368 13.890243 164.536037 Z M 13.890243 164.536037 " transform="matrix(0.175202,0,0,0.175392,0,0.00882723)"/>
<path style="fill:none;stroke-width:1.5;stroke-linecap:round;stroke-linejoin:miter;stroke:rgb(92.156863%,75.686275%,49.019608%);stroke-opacity:1;stroke-miterlimit:10;" d="M 15.00503 165.404626 C 13.734173 164.001522 12.441021 162.598417 11.237051 161.15077 " transform="matrix(0.175202,0,0,0.175392,0,0.00882723)"/>
<path style="fill:none;stroke-width:1.5;stroke-linecap:butt;stroke-linejoin:miter;stroke:rgb(92.156863%,75.686275%,49.019608%);stroke-opacity:1;stroke-miterlimit:10;" d="M 19.954683 170.927957 L 20.289119 170.549342 C 20.935696 169.92574 21.983595 169.903468 22.630172 170.549342 L 24.503014 172.353333 C 25.14959 172.976935 25.194181 174.001424 24.569901 174.669569 L 24.235465 175.048184 C 23.611184 175.694058 22.563285 175.738601 21.894412 175.092727 L 19.999275 173.244193 C 19.330403 172.59832 19.308107 171.551559 19.954683 170.927957 Z M 19.954683 170.927957 " transform="matrix(0.175202,0,0,0.175392,0,0.00882723)"/>
<path style="fill:none;stroke-width:1.5;stroke-linecap:round;stroke-linejoin:miter;stroke:rgb(92.156863%,75.686275%,49.019608%);stroke-opacity:1;stroke-miterlimit:10;" d="M 21.136357 171.729731 C 19.754022 170.415713 18.460869 169.03488 17.123125 167.676319 " transform="matrix(0.175202,0,0,0.175392,0,0.00882723)"/>
<path style="fill:none;stroke-width:1.5;stroke-linecap:butt;stroke-linejoin:miter;stroke:rgb(92.156863%,75.686275%,49.019608%);stroke-opacity:1;stroke-miterlimit:10;" d="M 26.35356 176.985805 L 26.687996 176.607189 C 27.28998 175.939044 28.33788 175.87223 29.006752 176.47356 C 29.653328 177.052619 30.299905 177.631678 30.968777 178.188465 C 31.659945 178.789796 31.749128 179.814285 31.169438 180.504701 L 30.835002 180.883317 C 30.255313 181.573733 29.207414 181.662819 28.516246 181.039217 C 27.825078 180.48243 27.178502 179.881099 26.50963 179.30204 C 25.818462 178.678438 25.751575 177.631678 26.35356 176.963533 Z M 26.35356 176.985805 " transform="matrix(0.175202,0,0,0.175392,0,0.00882723)"/>
<path style="fill:none;stroke-width:1.5;stroke-linecap:round;stroke-linejoin:miter;stroke:rgb(92.156863%,75.686275%,49.019608%);stroke-opacity:1;stroke-miterlimit:10;" d="M 27.557529 177.720764 C 26.130602 176.47356 24.748267 175.159542 23.365931 173.867795 " transform="matrix(0.175202,0,0,0.175392,0,0.00882723)"/>
<path style="fill:none;stroke-width:1.5;stroke-linecap:butt;stroke-linejoin:miter;stroke:rgb(92.156863%,75.686275%,49.019608%);stroke-opacity:1;stroke-miterlimit:10;" d="M 33.019985 182.709579 L 33.332125 182.330964 C 33.911814 181.640547 34.959714 181.52919 35.650881 182.108249 L 37.679793 183.711797 C 38.393257 184.290856 38.527031 185.315345 37.969638 186.028032 L 37.679793 186.428919 C 37.100104 187.141607 36.0745 187.275236 35.361037 186.696177 L 33.265238 185.048087 C 32.551774 184.469028 32.440295 183.422267 33.019985 182.709579 Z M 33.019985 182.709579 " transform="matrix(0.175202,0,0,0.175392,0,0.00882723)"/>
<path style="fill:none;stroke-width:1.5;stroke-linecap:round;stroke-linejoin:miter;stroke:rgb(92.156863%,75.686275%,49.019608%);stroke-opacity:1;stroke-miterlimit:10;" d="M 34.268546 183.422267 C 32.797027 182.219606 31.325509 181.016946 29.898582 179.769742 " transform="matrix(0.175202,0,0,0.175392,0,0.00882723)"/>
<path style="fill:none;stroke-width:1.5;stroke-linecap:butt;stroke-linejoin:miter;stroke:rgb(92.156863%,75.686275%,49.019608%);stroke-opacity:1;stroke-miterlimit:10;" d="M 39.953958 188.166096 L 40.243803 187.765209 C 40.778901 187.03025 41.8268 186.896621 42.540264 187.408865 L 44.658359 188.96787 C 45.394118 189.480115 45.572484 190.504603 45.059682 191.239563 L 44.769837 191.662721 C 44.257035 192.397681 43.209136 192.575853 42.451081 192.041337 L 40.31069 190.46006 C 39.552635 189.925545 39.418861 188.878784 39.953958 188.166096 Z M 39.953958 188.166096 " transform="matrix(0.175202,0,0,0.175392,0,0.00882723)"/>
<path style="fill:none;stroke-width:1.5;stroke-linecap:round;stroke-linejoin:miter;stroke:rgb(92.156863%,75.686275%,49.019608%);stroke-opacity:1;stroke-miterlimit:10;" d="M 41.224815 188.789698 C 39.708705 187.653852 38.170299 186.540277 36.698781 185.359888 " transform="matrix(0.175202,0,0,0.175392,0,0.00882723)"/>
<path style="fill:none;stroke-width:1.5;stroke-linecap:butt;stroke-linejoin:miter;stroke:rgb(92.156863%,75.686275%,49.019608%);stroke-opacity:1;stroke-miterlimit:10;" d="M 47.110889 193.288541 L 47.400734 192.887654 C 47.89124 192.130423 48.916844 191.929979 49.674899 192.442224 C 50.388363 192.932197 51.124122 193.399898 51.859881 193.8676 C 52.617936 194.357572 52.840894 195.382061 52.350387 196.139292 L 52.082839 196.562451 C 51.592332 197.319682 50.566729 197.542397 49.808674 197.030152 C 49.050618 196.562451 48.314859 196.072478 47.5791 195.582505 C 46.821045 195.07026 46.598088 194.045772 47.110889 193.288541 Z M 47.110889 193.288541 " transform="matrix(0.175202,0,0,0.175392,0,0.00882723)"/>
<path style="fill:none;stroke-width:1.5;stroke-linecap:round;stroke-linejoin:miter;stroke:rgb(92.156863%,75.686275%,49.019608%);stroke-opacity:1;stroke-miterlimit:10;" d="M 48.426338 193.8676 C 46.843341 192.820839 45.282639 191.707264 43.721938 190.615961 " transform="matrix(0.175202,0,0,0.175392,0,0.00882723)"/>
<path style="fill:none;stroke-width:1.5;stroke-linecap:butt;stroke-linejoin:miter;stroke:rgb(92.156863%,75.686275%,49.019608%);stroke-opacity:1;stroke-miterlimit:10;" d="M 54.513074 198.054641 L 54.780623 197.631483 C 55.248833 196.85198 56.252141 196.629265 57.032492 197.074695 L 59.262065 198.410985 C 60.064712 198.834143 60.332261 199.836361 59.886346 200.638135 L 59.641093 201.061293 C 59.217474 201.863067 58.19187 202.130325 57.389224 201.684895 L 55.092763 200.326334 C 54.290116 199.858632 54.044863 198.834143 54.513074 198.054641 Z M 54.513074 198.054641 " transform="matrix(0.175202,0,0,0.175392,0,0.00882723)"/>
<path style="fill:none;stroke-width:1.5;stroke-linecap:round;stroke-linejoin:miter;stroke:rgb(92.156863%,75.686275%,49.019608%);stroke-opacity:1;stroke-miterlimit:10;" d="M 55.850818 198.589157 C 54.200933 197.609211 52.59564 196.606994 50.990347 195.560233 " transform="matrix(0.175202,0,0,0.175392,0,0.00882723)"/>
<path style="fill:none;stroke-width:1.5;stroke-linecap:butt;stroke-linejoin:miter;stroke:rgb(92.156863%,75.686275%,49.019608%);stroke-opacity:1;stroke-miterlimit:10;" d="M 62.160511 202.442126 L 62.405764 201.996696 C 62.829383 201.194922 63.810396 200.905393 64.613042 201.328551 L 66.909503 202.486669 C 67.734445 202.865285 68.068881 203.84523 67.689854 204.669276 L 67.489192 205.114706 C 67.110164 205.938751 66.106856 206.272824 65.259618 205.871937 L 62.873975 204.669276 C 62.049032 204.246117 61.736892 203.221628 62.160511 202.442126 Z M 62.160511 202.442126 " transform="matrix(0.175202,0,0,0.175392,0,0.00882723)"/>
<path style="fill:none;stroke-width:1.5;stroke-linecap:round;stroke-linejoin:miter;stroke:rgb(92.156863%,75.686275%,49.019608%);stroke-opacity:1;stroke-miterlimit:10;" d="M 63.520551 202.887556 C 61.826075 201.996696 60.153895 201.083565 58.50401 200.148162 " transform="matrix(0.175202,0,0,0.175392,0,0.00882723)"/>
<path style="fill:none;stroke-width:1.5;stroke-linecap:butt;stroke-linejoin:miter;stroke:rgb(92.156863%,75.686275%,49.019608%);stroke-opacity:1;stroke-miterlimit:10;" d="M 70.075497 206.295095 L 70.276159 205.849665 C 70.655186 205.003348 71.591607 204.647004 72.416549 204.981077 C 73.219196 205.292878 73.999547 205.62695 74.802193 205.894208 C 75.627135 206.206009 76.07305 207.141412 75.783206 207.987729 L 75.627135 208.45543 C 75.337291 209.324019 74.378574 209.769449 73.486745 209.435376 C 72.639507 209.145847 71.814565 208.789503 70.967327 208.45543 C 70.097793 208.099086 69.69647 207.119141 70.075497 206.295095 Z M 70.075497 206.295095 " transform="matrix(0.175202,0,0,0.175392,0,0.00882723)"/>
<path style="fill:none;stroke-width:1.5;stroke-linecap:round;stroke-linejoin:miter;stroke:rgb(92.156863%,75.686275%,49.019608%);stroke-opacity:1;stroke-miterlimit:10;" d="M 71.480129 206.629168 C 69.718765 205.894208 67.979698 205.092434 66.285222 204.29066 " transform="matrix(0.175202,0,0,0.175392,0,0.00882723)"/>
<path style="fill:none;stroke-width:1.5;stroke-linecap:butt;stroke-linejoin:miter;stroke:rgb(92.156863%,75.686275%,49.019608%);stroke-opacity:1;stroke-miterlimit:10;" d="M 78.369511 209.301747 L 78.503285 208.834046 C 78.748538 207.943186 79.618072 207.453213 80.443014 207.609113 C 80.844338 207.698199 81.267957 207.809557 81.646984 207.831828 L 82.182082 207.920914 C 82.248969 207.920914 82.315856 207.943186 82.360448 207.943186 C 82.427335 207.920914 82.471926 207.943186 82.605701 207.987729 C 82.828658 207.987729 83.02932 208.032272 83.229981 208.121358 C 83.609009 208.29953 83.921149 208.589059 84.099515 209.012218 L 84.277881 209.479919 C 84.433951 209.903078 84.411655 210.370779 84.233289 210.749395 C 84.144106 210.949838 84.010332 211.12801 83.854262 211.261639 C 83.631305 211.439811 83.274573 211.640254 82.917841 211.773883 C 82.739475 211.862969 82.538813 211.751612 82.360448 211.751612 L 81.803054 211.684797 L 81.022703 211.57344 C 80.554493 211.528897 80.108578 211.395268 79.640368 211.306182 C 78.659355 211.105739 78.124258 210.170336 78.369511 209.301747 Z M 78.369511 209.301747 " transform="matrix(0.175202,0,0,0.175392,0,0.00882723)"/>
<path style="fill:none;stroke-width:1.5;stroke-linecap:round;stroke-linejoin:miter;stroke:rgb(92.156863%,75.686275%,49.019608%);stroke-opacity:1;stroke-miterlimit:10;" d="M 79.818734 209.413105 C 77.968188 208.989946 76.139937 208.410887 74.356278 207.765014 " transform="matrix(0.175202,0,0,0.175392,0,0.00882723)"/>
<path style="fill:none;stroke-width:1.5;stroke-linecap:butt;stroke-linejoin:miter;stroke:rgb(92.156863%,75.686275%,49.019608%);stroke-opacity:1;stroke-miterlimit:10;" d="M 86.931073 208.433159 L 86.730412 207.965457 C 86.418271 207.119141 86.819595 206.161466 87.666833 205.827394 L 90.097068 204.869719 C 90.92201 204.513375 91.880727 204.891991 92.237458 205.716036 L 92.43812 206.183738 C 92.794852 207.007783 92.393529 207.987729 91.546291 208.366344 L 89.09376 209.34629 C 88.224226 209.680363 87.265509 209.279476 86.931073 208.433159 Z M 86.931073 208.433159 " transform="matrix(0.175202,0,0,0.175392,0,0.00882723)"/>
<path style="fill:none;stroke-width:1.5;stroke-linecap:round;stroke-linejoin:miter;stroke:rgb(92.156863%,75.686275%,49.019608%);stroke-opacity:1;stroke-miterlimit:10;" d="M 88.135043 207.675928 L 82.850954 209.769449 " transform="matrix(0.175202,0,0,0.175392,0,0.00882723)"/>
<path style="fill:none;stroke-width:1.5;stroke-linecap:butt;stroke-linejoin:miter;stroke:rgb(92.156863%,75.686275%,49.019608%);stroke-opacity:1;stroke-miterlimit:10;" d="M 95.069017 205.047891 L 94.868355 204.58019 C 94.489328 203.756144 94.890651 202.776199 95.715593 202.419855 L 98.101237 201.373094 C 98.926179 200.994479 99.907192 201.350823 100.286219 202.174868 L 100.486881 202.620298 C 100.865908 203.444343 100.509176 204.424289 99.661938 204.825176 L 97.231703 205.871937 C 96.384465 206.250552 95.425749 205.871937 95.069017 205.047891 Z M 95.069017 205.047891 " transform="matrix(0.175202,0,0,0.175392,0,0.00882723)"/>
<path style="fill:none;stroke-width:1.5;stroke-linecap:round;stroke-linejoin:miter;stroke:rgb(92.156863%,75.686275%,49.019608%);stroke-opacity:1;stroke-miterlimit:10;" d="M 96.250691 204.246117 L 91.011193 206.540082 " transform="matrix(0.175202,0,0,0.175392,0,0.00882723)"/>
<path style="fill:none;stroke-width:1.5;stroke-linecap:butt;stroke-linejoin:miter;stroke:rgb(92.156863%,75.686275%,49.019608%);stroke-opacity:1;stroke-miterlimit:10;" d="M 103.073186 201.395366 L 102.850229 200.949936 C 102.471201 200.12589 102.827933 199.145944 103.630579 198.745057 L 105.993927 197.631483 C 106.81887 197.230596 107.799882 197.542397 108.201205 198.344171 L 108.424163 198.7896 C 108.825486 199.613646 108.49105 200.615863 107.666108 201.01675 L 105.280464 202.152597 C 104.455522 202.553484 103.452214 202.219411 103.073186 201.395366 Z M 103.073186 201.395366 " transform="matrix(0.175202,0,0,0.175392,0,0.00882723)"/>
<path style="fill:none;stroke-width:1.5;stroke-linecap:round;stroke-linejoin:miter;stroke:rgb(92.156863%,75.686275%,49.019608%);stroke-opacity:1;stroke-miterlimit:10;" d="M 104.232564 200.57132 L 99.082249 202.998913 " transform="matrix(0.175202,0,0,0.175392,0,0.00882723)"/>
<path style="fill:none;stroke-width:1.5;stroke-linecap:butt;stroke-linejoin:miter;stroke:rgb(92.156863%,75.686275%,49.019608%);stroke-opacity:1;stroke-miterlimit:10;" d="M 110.965876 197.497854 L 110.720623 197.052424 C 110.3193 196.25065 110.63144 195.248432 111.434087 194.847545 L 113.775139 193.644885 C 114.577786 193.221726 115.558798 193.511256 115.982417 194.31303 L 116.22767 194.758459 C 116.651289 195.537962 116.361444 196.562451 115.558798 196.985609 L 113.19545 198.210542 C 112.370508 198.611429 111.3672 198.299628 110.965876 197.497854 Z M 110.965876 197.497854 " transform="matrix(0.175202,0,0,0.175392,0,0.00882723)"/>
<path style="fill:none;stroke-width:1.5;stroke-linecap:round;stroke-linejoin:miter;stroke:rgb(92.156863%,75.686275%,49.019608%);stroke-opacity:1;stroke-miterlimit:10;" d="M 112.080663 196.629265 L 107.019531 199.23503 " transform="matrix(0.175202,0,0,0.175392,0,0.00882723)"/>
<path style="fill:none;stroke-width:1.5;stroke-linecap:butt;stroke-linejoin:miter;stroke:rgb(92.156863%,75.686275%,49.019608%);stroke-opacity:1;stroke-miterlimit:10;" d="M 118.724792 193.355355 L 118.479539 192.909925 C 118.05592 192.130423 118.345765 191.128205 119.148411 190.682775 L 121.422576 189.4133 C 122.225223 188.990142 123.228531 189.212857 123.674446 190.01463 L 123.919699 190.437789 C 124.365614 191.217291 124.120361 192.24178 123.295418 192.709482 L 120.976662 193.978957 C 120.174015 194.424387 119.170707 194.134858 118.724792 193.355355 Z M 118.724792 193.355355 " transform="matrix(0.175202,0,0,0.175392,0,0.00882723)"/>
<path style="fill:none;stroke-width:1.5;stroke-linecap:round;stroke-linejoin:miter;stroke:rgb(92.156863%,75.686275%,49.019608%);stroke-opacity:1;stroke-miterlimit:10;" d="M 119.839579 192.464495 L 114.845334 195.226161 " transform="matrix(0.175202,0,0,0.175392,0,0.00882723)"/>
<path style="fill:none;stroke-width:1.5;stroke-linecap:butt;stroke-linejoin:miter;stroke:rgb(92.156863%,75.686275%,49.019608%);stroke-opacity:1;stroke-miterlimit:10;" d="M 126.37223 188.990142 L 126.126977 188.566983 C 125.681062 187.787481 125.926315 186.762992 126.706666 186.317562 L 128.958535 184.981272 C 129.738886 184.535842 130.742194 184.736286 131.210404 185.515788 L 131.477953 185.938946 C 131.946164 186.696177 131.723206 187.742938 130.92056 188.210639 L 128.646395 189.569201 C 127.843748 190.036902 126.84044 189.769644 126.37223 188.990142 Z M 126.37223 188.990142 " transform="matrix(0.175202,0,0,0.175392,0,0.00882723)"/>
<path style="fill:none;stroke-width:1.5;stroke-linecap:round;stroke-linejoin:miter;stroke:rgb(92.156863%,75.686275%,49.019608%);stroke-opacity:1;stroke-miterlimit:10;" d="M 127.442425 188.054739 L 122.559659 190.950033 " transform="matrix(0.175202,0,0,0.175392,0,0.00882723)"/>
<path style="fill:none;stroke-width:1.5;stroke-linecap:butt;stroke-linejoin:miter;stroke:rgb(92.156863%,75.686275%,49.019608%);stroke-opacity:1;stroke-miterlimit:10;" d="M 133.885893 184.402213 L 133.618344 183.979055 C 133.150133 183.199552 133.373091 182.197335 134.131146 181.707362 L 136.338424 180.304258 C 137.118774 179.836556 138.122083 180.037 138.612589 180.771959 L 138.902433 181.195118 C 139.392939 181.952348 139.192278 182.999109 138.411927 183.489082 L 136.160058 184.892186 C 135.379707 185.382159 134.376399 185.159444 133.885893 184.402213 Z M 133.885893 184.402213 " transform="matrix(0.175202,0,0,0.175392,0,0.00882723)"/>
<path style="fill:none;stroke-width:1.5;stroke-linecap:round;stroke-linejoin:miter;stroke:rgb(92.156863%,75.686275%,49.019608%);stroke-opacity:1;stroke-miterlimit:10;" d="M 134.933792 183.444539 C 133.328499 184.446756 131.745502 185.493517 130.117913 186.473462 " transform="matrix(0.175202,0,0,0.175392,0,0.00882723)"/>
<path style="fill:none;stroke-width:1.5;stroke-linecap:butt;stroke-linejoin:miter;stroke:rgb(92.156863%,75.686275%,49.019608%);stroke-opacity:1;stroke-miterlimit:10;" d="M 141.265781 179.59157 L 140.998232 179.190683 C 140.485431 178.433452 140.686092 177.408963 141.444147 176.896719 L 143.606833 175.449071 C 144.364889 174.936827 145.390492 175.114999 145.903294 175.849958 L 146.193139 176.250845 C 146.728236 177.008076 146.527575 178.032565 145.76952 178.544809 L 143.584538 180.037 C 142.826483 180.549244 141.800879 180.348801 141.288077 179.59157 Z M 141.265781 179.59157 " transform="matrix(0.175202,0,0,0.175392,0,0.00882723)"/>
<path style="fill:none;stroke-width:1.5;stroke-linecap:round;stroke-linejoin:miter;stroke:rgb(92.156863%,75.686275%,49.019608%);stroke-opacity:1;stroke-miterlimit:10;" d="M 142.291385 178.611624 C 140.708388 179.680656 139.147686 180.749688 137.564689 181.774176 " transform="matrix(0.175202,0,0,0.175392,0,0.00882723)"/>
<path style="fill:none;stroke-width:1.5;stroke-linecap:butt;stroke-linejoin:miter;stroke:rgb(92.156863%,75.686275%,49.019608%);stroke-opacity:1;stroke-miterlimit:10;" d="M 148.511895 174.580483 L 148.222051 174.179596 C 147.686953 173.444636 147.865319 172.420148 148.601078 171.885632 L 150.719173 170.348898 C 151.454932 169.814382 152.502832 169.970283 153.03793 170.705242 L 153.327774 171.106129 C 153.862872 171.841089 153.706802 172.843306 152.971042 173.400093 L 150.808356 174.936827 C 150.050301 175.471343 149.024697 175.315442 148.511895 174.580483 Z M 148.511895 174.580483 " transform="matrix(0.175202,0,0,0.175392,0,0.00882723)"/>
<path style="fill:none;stroke-width:1.5;stroke-linecap:round;stroke-linejoin:miter;stroke:rgb(92.156863%,75.686275%,49.019608%);stroke-opacity:1;stroke-miterlimit:10;" d="M 149.492908 173.578265 C 147.954502 174.669569 146.438392 175.805415 144.855395 176.874447 " transform="matrix(0.175202,0,0,0.175392,0,0.00882723)"/>
<path style="fill:none;stroke-width:1.5;stroke-linecap:butt;stroke-linejoin:miter;stroke:rgb(92.156863%,75.686275%,49.019608%);stroke-opacity:1;stroke-miterlimit:10;" d="M 155.601939 169.368952 L 155.312095 168.990337 C 154.754701 168.255378 154.910771 167.230889 155.624235 166.674101 L 157.720034 165.070553 C 158.433498 164.536037 159.459102 164.669666 160.038791 165.360083 L 160.350931 165.76097 C 160.908324 166.473658 160.752254 167.498147 160.038791 168.054934 L 157.920696 169.680753 C 157.207232 170.237541 156.159333 170.08164 155.624235 169.368952 Z M 155.601939 169.368952 " transform="matrix(0.175202,0,0,0.175392,0,0.00882723)"/>
<path style="fill:none;stroke-width:1.5;stroke-linecap:round;stroke-linejoin:miter;stroke:rgb(92.156863%,75.686275%,49.019608%);stroke-opacity:1;stroke-miterlimit:10;" d="M 156.560656 168.322192 C 155.044546 169.48031 153.573027 170.660699 152.012326 171.752003 " transform="matrix(0.175202,0,0,0.175392,0,0.00882723)"/>
<path style="fill:none;stroke-width:1.5;stroke-linecap:butt;stroke-linejoin:miter;stroke:rgb(92.156863%,75.686275%,49.019608%);stroke-opacity:1;stroke-miterlimit:10;" d="M 162.558209 163.97925 L 162.246069 163.600635 C 161.688675 162.887947 161.800154 161.841186 162.513617 161.262127 L 164.542529 159.636308 C 165.255993 159.057249 166.281597 159.168607 166.861286 159.859023 L 167.195722 160.25991 C 167.775411 160.950326 167.663932 161.974815 166.950469 162.553874 L 164.876965 164.224236 C 164.163502 164.803295 163.137898 164.691938 162.558209 163.97925 Z M 162.558209 163.97925 " transform="matrix(0.175202,0,0,0.175392,0,0.00882723)"/>
<path style="fill:none;stroke-width:1.5;stroke-linecap:round;stroke-linejoin:miter;stroke:rgb(92.156863%,75.686275%,49.019608%);stroke-opacity:1;stroke-miterlimit:10;" d="M 163.49463 162.910218 C 162.000815 164.090608 160.551593 165.31554 159.035483 166.451386 " transform="matrix(0.175202,0,0,0.175392,0,0.00882723)"/>
<path style="fill:none;stroke-width:1.5;stroke-linecap:butt;stroke-linejoin:miter;stroke:rgb(92.156863%,75.686275%,49.019608%);stroke-opacity:1;stroke-miterlimit:10;" d="M 169.358408 158.389104 L 169.046268 158.010489 C 168.466579 157.320072 168.533466 156.295583 169.224634 155.694253 L 171.208954 154.001619 C 171.900122 153.400289 172.948022 153.489375 173.550007 154.15752 L 173.884443 154.536135 C 174.486427 155.226552 174.397244 156.25104 173.683781 156.852371 L 171.677165 158.589548 C 170.985997 159.190878 169.938097 159.101792 169.358408 158.411376 Z M 169.358408 158.389104 " transform="matrix(0.175202,0,0,0.175392,0,0.00882723)"/>
<path style="fill:none;stroke-width:1.5;stroke-linecap:round;stroke-linejoin:miter;stroke:rgb(92.156863%,75.686275%,49.019608%);stroke-opacity:1;stroke-miterlimit:10;" d="M 170.272533 157.297801 C 168.823311 158.522733 167.396383 159.792209 165.902569 160.950326 " transform="matrix(0.175202,0,0,0.175392,0,0.00882723)"/>
<path style="fill:none;stroke-width:1.5;stroke-linecap:butt;stroke-linejoin:miter;stroke:rgb(92.156863%,75.686275%,49.019608%);stroke-opacity:1;stroke-miterlimit:10;" d="M 176.024833 152.643058 L 175.690397 152.264442 C 175.088412 151.596297 175.155299 150.549537 175.824172 149.948207 L 177.763901 148.188758 C 178.432773 147.565156 179.480672 147.609699 180.082657 148.277844 L 180.439389 148.65646 C 181.041374 149.324605 180.996782 150.349094 180.305614 150.972696 L 178.34359 152.754415 C 177.674718 153.378017 176.626818 153.311203 176.024833 152.643058 Z M 176.024833 152.643058 " transform="matrix(0.175202,0,0,0.175392,0,0.00882723)"/>
<path style="fill:none;stroke-width:1.5;stroke-linecap:round;stroke-linejoin:miter;stroke:rgb(92.156863%,75.686275%,49.019608%);stroke-opacity:1;stroke-miterlimit:10;" d="M 176.894367 151.507211 C 175.489736 152.798958 174.085104 154.068434 172.613586 155.271095 " transform="matrix(0.175202,0,0,0.175392,0,0.00882723)"/>
<path style="fill:none;stroke-width:1.5;stroke-linecap:butt;stroke-linejoin:miter;stroke:rgb(92.156863%,75.686275%,49.019608%);stroke-opacity:1;stroke-miterlimit:10;" d="M 182.512892 146.696568 L 182.178456 146.340224 C 181.554176 145.672079 181.598767 144.625319 182.245343 144.001717 L 184.140481 142.197726 C 184.809353 141.551852 185.834957 141.574124 186.459237 142.219997 L 186.815969 142.598612 C 187.44025 143.244486 187.44025 144.268975 186.749082 144.914848 L 184.853944 146.741111 C 184.185072 147.386984 183.137173 147.364713 182.512892 146.696568 Z M 182.512892 146.696568 " transform="matrix(0.175202,0,0,0.175392,0,0.00882723)"/>
<path style="fill:none;stroke-width:1.5;stroke-linecap:round;stroke-linejoin:miter;stroke:rgb(92.156863%,75.686275%,49.019608%);stroke-opacity:1;stroke-miterlimit:10;" d="M 183.36013 145.560722 L 181.308923 147.520613 L 179.190828 149.435962 " transform="matrix(0.175202,0,0,0.175392,0,0.00882723)"/>
<path style="fill:none;stroke-width:1.5;stroke-linecap:butt;stroke-linejoin:miter;stroke:rgb(92.156863%,75.686275%,49.019608%);stroke-opacity:1;stroke-miterlimit:10;" d="M 188.867177 140.594178 L 188.510445 140.237834 C 187.863869 139.59196 187.886165 138.5452 188.510445 137.899327 L 190.360991 136.028521 C 190.985272 135.382647 192.033171 135.360376 192.679748 136.006249 L 193.036479 136.362593 C 193.683056 136.986195 193.683056 138.032956 193.036479 138.7011 L 191.185933 140.571906 C 190.539357 141.21778 189.491458 141.240051 188.844881 140.594178 Z M 188.867177 140.594178 " transform="matrix(0.175202,0,0,0.175392,0,0.00882723)"/>
<path style="fill:none;stroke-width:1.5;stroke-linecap:round;stroke-linejoin:miter;stroke:rgb(92.156863%,75.686275%,49.019608%);stroke-opacity:1;stroke-miterlimit:10;" d="M 189.669823 139.413788 C 188.354375 140.77235 186.972039 142.10864 185.589704 143.400386 " transform="matrix(0.175202,0,0,0.175392,0,0.00882723)"/>
<path style="fill:none;stroke-width:1.5;stroke-linecap:butt;stroke-linejoin:miter;stroke:rgb(92.156863%,75.686275%,49.019608%);stroke-opacity:1;stroke-miterlimit:10;" d="M 195.043096 134.313615 L 194.686364 133.979543 C 194.039788 133.33367 193.995196 132.309181 194.619477 131.641036 L 196.403136 129.725687 C 197.027416 129.057542 198.075316 129.012999 198.744188 129.636601 L 199.10092 129.970673 C 199.769792 130.594275 199.792087 131.641036 199.167807 132.309181 L 197.361852 134.224529 C 196.737572 134.892674 195.689672 134.937217 195.043096 134.313615 Z M 195.043096 134.313615 " transform="matrix(0.175202,0,0,0.175392,0,0.00882723)"/>
<path style="fill:none;stroke-width:1.5;stroke-linecap:round;stroke-linejoin:miter;stroke:rgb(92.156863%,75.686275%,49.019608%);stroke-opacity:1;stroke-miterlimit:10;" d="M 195.823446 133.133226 C 194.530294 134.53633 193.19255 135.87262 191.854806 137.20891 " transform="matrix(0.175202,0,0,0.175392,0,0.00882723)"/>
<path style="fill:none;stroke-width:1.5;stroke-linecap:butt;stroke-linejoin:miter;stroke:rgb(92.156863%,75.686275%,49.019608%);stroke-opacity:1;stroke-miterlimit:10;" d="M 201.062944 127.899424 L 200.683917 127.54308 C 200.015045 126.94175 199.970453 125.894989 200.572438 125.204573 L 202.311506 123.244681 C 202.91349 122.576536 203.939094 122.509722 204.630262 123.111052 L 205.00929 123.422853 C 205.700457 124.024184 205.767345 125.070944 205.143064 125.76136 L 203.381701 127.743524 C 202.779716 128.43394 201.731816 128.500755 201.062944 127.877153 Z M 201.062944 127.899424 " transform="matrix(0.175202,0,0,0.175392,0,0.00882723)"/>
<path style="fill:none;stroke-width:1.5;stroke-linecap:round;stroke-linejoin:miter;stroke:rgb(92.156863%,75.686275%,49.019608%);stroke-opacity:1;stroke-miterlimit:10;" d="M 201.798704 126.674492 C 200.550142 128.122139 199.234694 129.480701 197.941541 130.861533 " transform="matrix(0.175202,0,0,0.175392,0,0.00882723)"/>
<path style="fill:none;stroke-width:1.5;stroke-linecap:butt;stroke-linejoin:miter;stroke:rgb(92.156863%,75.686275%,49.019608%);stroke-opacity:1;stroke-miterlimit:10;" d="M 206.904427 121.307061 L 206.5254 120.972989 C 205.834232 120.39393 205.745049 119.347169 206.347034 118.656753 L 208.019214 116.652318 C 208.598903 115.93963 209.646803 115.850544 210.33797 116.429603 L 210.716998 116.763675 C 211.430461 117.342734 211.497349 118.389495 210.91766 119.079911 L 209.200888 121.128889 C 208.621199 121.819305 207.573299 121.930663 206.904427 121.329332 Z M 206.904427 121.307061 " transform="matrix(0.175202,0,0,0.175392,0,0.00882723)"/>
<path style="fill:none;stroke-width:1.5;stroke-linecap:round;stroke-linejoin:miter;stroke:rgb(92.156863%,75.686275%,49.019608%);stroke-opacity:1;stroke-miterlimit:10;" d="M 207.617891 120.082129 C 206.413921 121.552047 205.098472 122.93288 203.849911 124.380528 " transform="matrix(0.175202,0,0,0.175392,0,0.00882723)"/>
<path style="fill:none;stroke-width:1.5;stroke-linecap:butt;stroke-linejoin:miter;stroke:rgb(92.156863%,75.686275%,49.019608%);stroke-opacity:1;stroke-miterlimit:10;" d="M 212.567544 114.581069 L 212.188516 114.246996 C 211.475053 113.690209 211.38587 112.643448 211.943263 111.930761 L 213.570852 109.881783 C 214.150541 109.169095 215.176145 109.057737 215.889609 109.614525 L 216.268636 109.926326 C 216.9821 110.483113 217.093578 111.529874 216.513889 112.242562 L 214.864005 114.313811 C 214.306611 115.026499 213.258712 115.160128 212.567544 114.581069 Z M 212.567544 114.581069 " transform="matrix(0.175202,0,0,0.175392,0,0.00882723)"/>
<path style="fill:none;stroke-width:1.5;stroke-linecap:round;stroke-linejoin:miter;stroke:rgb(92.156863%,75.686275%,49.019608%);stroke-opacity:1;stroke-miterlimit:10;" d="M 213.258712 113.311593 C 212.077038 114.803784 210.828477 116.22916 209.602211 117.699078 " transform="matrix(0.175202,0,0,0.175392,0,0.00882723)"/>
<path style="fill:none;stroke-width:1.5;stroke-linecap:butt;stroke-linejoin:miter;stroke:rgb(92.156863%,75.686275%,49.019608%);stroke-opacity:1;stroke-miterlimit:10;" d="M 218.052295 107.699176 L 217.650972 107.387375 C 216.937508 106.830588 216.826029 105.806099 217.361127 105.071139 L 218.921829 102.977619 C 219.479222 102.242659 220.504826 102.10903 221.240585 102.643546 L 221.619613 102.955347 C 222.355372 103.489863 222.489146 104.536623 221.931753 105.249311 L 220.348756 107.387375 C 219.791362 108.122334 218.743463 108.255963 218.029999 107.699176 Z M 218.052295 107.699176 " transform="matrix(0.175202,0,0,0.175392,0,0.00882723)"/>
<path style="fill:none;stroke-width:1.5;stroke-linecap:round;stroke-linejoin:miter;stroke:rgb(92.156863%,75.686275%,49.019608%);stroke-opacity:1;stroke-miterlimit:10;" d="M 218.698871 106.429701 C 217.539493 107.944163 216.357819 109.414081 215.176145 110.906272 " transform="matrix(0.175202,0,0,0.175392,0,0.00882723)"/>
<path style="fill:none;stroke-width:1.5;stroke-linecap:butt;stroke-linejoin:miter;stroke:rgb(92.156863%,75.686275%,49.019608%);stroke-opacity:1;stroke-miterlimit:10;" d="M 223.35868 100.661383 L 222.957357 100.349582 C 222.221597 99.815066 222.087823 98.812849 222.600625 98.055618 L 224.116735 95.917554 C 224.629537 95.182594 225.677437 95.004423 226.413196 95.516667 L 226.814519 95.806196 C 227.550278 96.340712 227.728644 97.365201 227.193547 98.122432 L 225.677437 100.282767 C 225.142339 101.039998 224.072144 101.173627 223.35868 100.639111 Z M 223.35868 100.661383 " transform="matrix(0.175202,0,0,0.175392,0,0.00882723)"/>
<path style="fill:none;stroke-width:1.5;stroke-linecap:round;stroke-linejoin:miter;stroke:rgb(92.156863%,75.686275%,49.019608%);stroke-opacity:1;stroke-miterlimit:10;" d="M 223.982961 99.391908 L 220.571713 103.957564 " transform="matrix(0.175202,0,0,0.175392,0,0.00882723)"/>
<path style="fill:none;stroke-width:1.5;stroke-linecap:butt;stroke-linejoin:miter;stroke:rgb(92.156863%,75.686275%,49.019608%);stroke-opacity:1;stroke-miterlimit:10;" d="M 228.464403 93.489961 L 228.06308 93.200431 C 227.305025 92.688187 227.148955 91.663698 227.661757 90.928738 L 229.11098 88.746132 C 229.601486 87.988901 230.62709 87.788457 231.385145 88.27843 L 231.808764 88.56796 C 232.566819 89.057933 232.76748 90.082422 232.254679 90.861924 L 230.78316 93.066802 C 230.248062 93.824033 229.222458 94.002205 228.464403 93.489961 Z M 228.464403 93.489961 " transform="matrix(0.175202,0,0,0.175392,0,0.00882723)"/>
<path style="fill:none;stroke-width:1.5;stroke-linecap:round;stroke-linejoin:miter;stroke:rgb(92.156863%,75.686275%,49.019608%);stroke-opacity:1;stroke-miterlimit:10;" d="M 229.066388 92.220485 L 225.788915 96.852957 " transform="matrix(0.175202,0,0,0.175392,0,0.00882723)"/>
<path style="fill:none;stroke-width:1.5;stroke-linecap:butt;stroke-linejoin:miter;stroke:rgb(92.156863%,75.686275%,49.019608%);stroke-opacity:1;stroke-miterlimit:10;" d="M 233.391761 86.18491 L 232.968142 85.917652 C 232.210087 85.427679 232.009425 84.40319 232.499932 83.645959 L 233.904563 81.441081 C 234.372773 80.661578 235.398377 80.438863 236.156432 80.928836 L 236.580051 81.196094 C 237.360402 81.663796 237.561064 82.688284 237.070557 83.467787 L 235.665926 85.717208 C 235.153124 86.474439 234.12752 86.697154 233.369465 86.207181 Z M 233.391761 86.18491 " transform="matrix(0.175202,0,0,0.175392,0,0.00882723)"/>
<path style="fill:none;stroke-width:1.5;stroke-linecap:round;stroke-linejoin:miter;stroke:rgb(92.156863%,75.686275%,49.019608%);stroke-opacity:1;stroke-miterlimit:10;" d="M 233.949154 84.893163 L 230.78316 89.636992 " transform="matrix(0.175202,0,0,0.175392,0,0.00882723)"/>
<path style="fill:none;stroke-width:1.5;stroke-linecap:butt;stroke-linejoin:miter;stroke:rgb(92.156863%,75.686275%,49.019608%);stroke-opacity:1;stroke-miterlimit:10;" d="M 238.118457 78.768501 L 237.672542 78.501243 C 236.914487 78.01127 236.669234 77.009053 237.15974 76.22955 C 237.627951 75.494591 238.05157 74.73736 238.497485 73.980129 C 238.965695 73.200627 239.969003 72.95564 240.749354 73.40107 L 241.172973 73.668328 C 241.953324 74.113758 242.220872 75.138247 241.752662 75.940021 C 241.306747 76.697252 240.860833 77.454483 240.392622 78.189442 C 239.902116 78.968944 238.898808 79.236202 238.118457 78.746229 Z M 238.118457 78.768501 " transform="matrix(0.175202,0,0,0.175392,0,0.00882723)"/>
<path style="fill:none;stroke-width:1.5;stroke-linecap:round;stroke-linejoin:miter;stroke:rgb(92.156863%,75.686275%,49.019608%);stroke-opacity:1;stroke-miterlimit:10;" d="M 238.631259 77.432211 L 235.599039 82.265126 " transform="matrix(0.175202,0,0,0.175392,0,0.00882723)"/>
<path style="fill:none;stroke-width:1.5;stroke-linecap:butt;stroke-linejoin:miter;stroke:rgb(92.156863%,75.686275%,49.019608%);stroke-opacity:1;stroke-miterlimit:10;" d="M 242.622196 71.196192 L 242.198577 70.951205 C 241.418226 70.505775 241.150677 69.481286 241.596592 68.701784 C 242.042507 67.966825 242.466125 67.187322 242.889744 66.430091 C 243.313363 65.628317 244.316672 65.338788 245.119318 65.784218 L 245.542937 66.029204 C 246.345583 66.452363 246.635428 67.476852 246.189513 68.278626 C 245.743599 69.058128 245.342275 69.83763 244.874065 70.594861 C 244.405854 71.374364 243.402546 71.663893 242.622196 71.196192 Z M 242.622196 71.196192 " transform="matrix(0.175202,0,0,0.175392,0,0.00882723)"/>
<path style="fill:none;stroke-width:1.5;stroke-linecap:round;stroke-linejoin:miter;stroke:rgb(92.156863%,75.686275%,49.019608%);stroke-opacity:1;stroke-miterlimit:10;" d="M 243.112702 69.859902 L 240.236552 74.781903 " transform="matrix(0.175202,0,0,0.175392,0,0.00882723)"/>
<path style="fill:none;stroke-width:1.5;stroke-linecap:butt;stroke-linejoin:miter;stroke:rgb(92.156863%,75.686275%,49.019608%);stroke-opacity:1;stroke-miterlimit:10;" d="M 246.925273 63.512525 L 246.479358 63.28981 C 245.676711 62.84438 245.386867 61.842163 245.832782 61.06266 C 246.256401 60.30543 246.657724 59.525927 247.059047 58.746425 C 247.46037 57.944651 248.441383 57.610578 249.266325 58.033737 L 249.71224 58.278723 C 250.514886 58.67961 250.827026 59.681828 250.403407 60.505873 C 250.002084 61.307647 249.600761 62.087149 249.177142 62.84438 C 248.731227 63.668426 247.727919 63.957955 246.947568 63.534797 Z M 246.925273 63.512525 " transform="matrix(0.175202,0,0,0.175392,0,0.00882723)"/>
<path style="fill:none;stroke-width:1.5;stroke-linecap:round;stroke-linejoin:miter;stroke:rgb(92.156863%,75.686275%,49.019608%);stroke-opacity:1;stroke-miterlimit:10;" d="M 247.371187 62.176235 L 244.628812 67.165051 " transform="matrix(0.175202,0,0,0.175392,0,0.00882723)"/>
<path style="fill:none;stroke-width:1.5;stroke-linecap:butt;stroke-linejoin:miter;stroke:rgb(92.156863%,75.686275%,49.019608%);stroke-opacity:1;stroke-miterlimit:10;" d="M 251.005392 55.717501 L 250.559478 55.494786 C 249.734535 55.071628 249.422395 54.091682 249.823718 53.289908 C 250.225042 52.510405 250.626365 51.730903 250.983097 50.951401 C 251.38442 50.127355 252.365432 49.771011 253.168079 50.171898 L 253.613993 50.394613 C 254.438936 50.773229 254.773372 51.775446 254.394344 52.599491 C 254.015317 53.401265 253.636289 54.203039 253.21267 54.982542 C 252.789051 55.806587 251.808039 56.14066 251.005392 55.717501 Z M 251.005392 55.717501 " transform="matrix(0.175202,0,0,0.175392,0,0.00882723)"/>
<path style="fill:none;stroke-width:1.5;stroke-linecap:round;stroke-linejoin:miter;stroke:rgb(92.156863%,75.686275%,49.019608%);stroke-opacity:1;stroke-miterlimit:10;" d="M 251.429011 54.35894 L 248.82041 59.436841 " transform="matrix(0.175202,0,0,0.175392,0,0.00882723)"/>
<path style="fill:none;stroke-width:1.5;stroke-linecap:butt;stroke-linejoin:miter;stroke:rgb(92.156863%,75.686275%,49.019608%);stroke-opacity:1;stroke-miterlimit:10;" d="M 254.840259 47.811119 L 254.394344 47.588405 C 253.569402 47.209789 253.234966 46.229843 253.613993 45.405798 C 253.993021 44.626295 254.372048 43.846793 254.706484 43.022748 C 255.063216 42.198702 256.044229 41.820087 256.869171 42.198702 L 257.337381 42.399146 C 258.162323 42.75549 258.519055 43.735435 258.162323 44.581752 C 257.827887 45.383526 257.44886 46.1853 257.069832 46.987074 C 256.668509 47.811119 255.687497 48.189735 254.862555 47.811119 Z M 254.840259 47.811119 " transform="matrix(0.175202,0,0,0.175392,0,0.00882723)"/>
<path style="fill:none;stroke-width:1.5;stroke-linecap:round;stroke-linejoin:miter;stroke:rgb(92.156863%,75.686275%,49.019608%);stroke-opacity:1;stroke-miterlimit:10;" d="M 255.219286 46.430287 L 252.789051 51.575003 " transform="matrix(0.175202,0,0,0.175392,0,0.00882723)"/>
<path style="fill:none;stroke-width:1.5;stroke-linecap:butt;stroke-linejoin:miter;stroke:rgb(92.156863%,75.686275%,49.019608%);stroke-opacity:1;stroke-miterlimit:10;" d="M 258.474464 39.771109 L 258.006253 39.570665 C 257.181311 39.214321 256.802284 38.256647 257.159015 37.41033 C 257.515747 36.630828 257.872479 35.829054 258.184619 35.005008 C 258.519055 34.180963 259.477772 33.757805 260.302714 34.091877 L 260.770924 34.292321 C 261.618162 34.626393 262.019486 35.606339 261.662754 36.452656 C 261.350614 37.276701 260.993882 38.100747 260.63715 38.902521 C 260.280418 39.748837 259.299406 40.149724 258.474464 39.771109 Z M 258.474464 39.771109 " transform="matrix(0.175202,0,0,0.175392,0,0.00882723)"/>
<path style="fill:none;stroke-width:1.5;stroke-linecap:round;stroke-linejoin:miter;stroke:rgb(92.156863%,75.686275%,49.019608%);stroke-opacity:1;stroke-miterlimit:10;" d="M 258.8089 38.390276 L 256.512439 43.624078 " transform="matrix(0.175202,0,0,0.175392,0,0.00882723)"/>
<path style="fill:none;stroke-width:1.5;stroke-linecap:butt;stroke-linejoin:miter;stroke:rgb(92.156863%,75.686275%,49.019608%);stroke-opacity:1;stroke-miterlimit:10;" d="M 261.84112 31.642012 L 261.372909 31.46384 C 260.525671 31.129768 260.124348 30.172094 260.458784 29.325777 C 260.770924 28.524003 261.127656 27.722229 261.417501 26.898183 C 261.729641 26.051867 262.666062 25.606437 263.5133 25.940509 L 263.98151 26.09641 C 264.828748 26.430482 265.252367 27.365885 264.940227 28.234473 C 264.650382 29.08079 264.315946 29.882564 263.98151 30.706609 C 263.647074 31.575198 262.688358 31.998356 261.84112 31.642012 Z M 261.84112 31.642012 " transform="matrix(0.175202,0,0,0.175392,0,0.00882723)"/>
<path style="fill:none;stroke-width:1.5;stroke-linecap:round;stroke-linejoin:miter;stroke:rgb(92.156863%,75.686275%,49.019608%);stroke-opacity:1;stroke-miterlimit:10;" d="M 262.130964 30.238908 L 260.012869 35.539524 " transform="matrix(0.175202,0,0,0.175392,0,0.00882723)"/>
<path style="fill:none;stroke-width:1.5;stroke-linecap:butt;stroke-linejoin:miter;stroke:rgb(92.156863%,75.686275%,49.019608%);stroke-opacity:1;stroke-miterlimit:10;" d="M 264.962523 23.401558 L 264.494312 23.245658 C 263.647074 22.933857 263.20116 21.998454 263.5133 21.129866 C 263.803145 20.328092 264.115285 19.504046 264.382834 18.680001 C 264.650382 17.811412 265.586803 17.343711 266.456337 17.63324 L 266.924548 17.789141 C 267.771785 18.100942 268.239996 19.036345 267.950151 19.904933 C 267.704898 20.75125 267.370462 21.575296 267.080618 22.399341 C 266.746182 23.290201 265.809761 23.735631 264.962523 23.42383 Z M 264.962523 23.401558 " transform="matrix(0.175202,0,0,0.175392,0,0.00882723)"/>
<path style="fill:none;stroke-width:1.5;stroke-linecap:round;stroke-linejoin:miter;stroke:rgb(92.156863%,75.686275%,49.019608%);stroke-opacity:1;stroke-miterlimit:10;" d="M 265.207776 22.020725 L 263.245751 27.365885 " transform="matrix(0.175202,0,0,0.175392,0,0.00882723)"/>
<path style="fill:none;stroke-width:1.5;stroke-linecap:butt;stroke-linejoin:miter;stroke:rgb(92.156863%,75.686275%,49.019608%);stroke-opacity:1;stroke-miterlimit:10;" d="M 267.816377 15.072018 L 267.325871 14.938389 C 266.478633 14.64886 266.010422 13.713457 266.277971 12.86714 C 266.54552 12.020823 266.835365 11.219049 267.080618 10.372732 C 267.325871 9.504144 268.239996 8.991899 269.10953 9.259157 L 269.600036 9.392786 C 270.469569 9.660044 270.960076 10.595447 270.692527 11.464036 C 270.469569 12.310353 270.157429 13.15667 269.88988 13.980715 C 269.600036 14.871575 268.663615 15.339276 267.816377 15.072018 Z M 267.816377 15.072018 " transform="matrix(0.175202,0,0,0.175392,0,0.00882723)"/>
<path style="fill:none;stroke-width:1.5;stroke-linecap:round;stroke-linejoin:miter;stroke:rgb(92.156863%,75.686275%,49.019608%);stroke-opacity:1;stroke-miterlimit:10;" d="M 267.994743 13.668914 L 266.23338 19.080888 " transform="matrix(0.175202,0,0,0.175392,0,0.00882723)"/>
<path style="fill:none;stroke-width:1.5;stroke-linecap:butt;stroke-linejoin:miter;stroke:rgb(92.156863%,75.686275%,49.019608%);stroke-opacity:1;stroke-miterlimit:10;" d="M 270.380387 6.653392 L 269.88988 6.519763 C 269.020347 6.274777 268.52984 5.361645 268.775094 4.493057 L 269.510853 1.976378 C 269.73381 1.107789 270.647935 0.573273 271.517469 0.81826 L 272.007975 0.929617 C 272.877509 1.174604 273.390311 2.087735 273.145058 2.978595 L 272.409299 5.517546 C 272.164045 6.408406 271.24992 6.92065 270.380387 6.653392 Z M 270.380387 6.653392 " transform="matrix(0.175202,0,0,0.175392,0,0.00882723)"/>
<path style="fill:none;stroke-width:1.5;stroke-linecap:round;stroke-linejoin:miter;stroke:rgb(92.156863%,75.686275%,49.019608%);stroke-opacity:1;stroke-miterlimit:10;" d="M 270.536457 5.250288 L 268.931164 10.729076 " transform="matrix(0.175202,0,0,0.175392,0,0.00882723)"/>
<path style=" stroke:none;fill-rule:nonzero;fill:rgb(77.254902%,55.294118%,22.745098%);fill-opacity:1;" d="M 18.800781 42.246094 C 18.800781 44.761719 16.765625 46.800781 14.253906 46.800781 C 11.742188 46.800781 9.707031 44.761719 9.707031 42.246094 C 9.707031 39.730469 11.742188 37.695312 14.253906 37.695312 C 16.765625 37.695312 18.800781 39.730469 18.800781 42.246094 Z M 18.800781 42.246094 "/>
<path style="fill:none;stroke-width:0.64;stroke-linecap:round;stroke-linejoin:miter;stroke:rgb(92.156863%,75.686275%,49.019608%);stroke-opacity:1;stroke-miterlimit:10;" d="M 75.649431 219.056663 C 75.850093 219.479822 76.518965 219.546636 76.853401 219.234835 C 77.210133 218.900763 77.232428 218.321704 76.987175 217.920817 C 76.719626 217.430844 76.028459 217.2304 75.471065 217.475387 C 75.002855 217.698102 74.690715 218.165803 74.601532 218.655776 C 74.423166 219.479822 74.891376 220.19251 75.716318 220.459767 C 76.518965 220.727025 77.388499 220.303867 77.990483 219.724808 C 79.328228 218.499876 79.885621 216.050011 80.77745 214.491006 C 80.888929 214.268291 80.978112 214.090119 81.245661 214.090119 C 81.468618 214.090119 81.580097 214.290563 81.646984 214.424192 C 82.092899 215.515495 82.538813 217.0745 82.984728 218.143532 C 83.49753 219.368464 83.80967 220.526582 85.258893 220.816111 C 85.860878 220.927469 86.52975 220.727025 86.931073 220.259324 C 87.332397 219.791623 87.399284 219.078935 87.087144 218.544419 C 86.775003 218.009903 86.083835 217.764916 85.504146 217.96536 C 85.080527 218.12126 84.768387 218.56669 84.812979 218.989849 C 84.879866 219.435279 85.370372 219.791623 85.771695 219.657994 " transform="matrix(0.175202,0,0,0.175392,0,0.00882723)"/>
<path style="fill:none;stroke-width:0.64;stroke-linecap:round;stroke-linejoin:miter;stroke:rgb(92.156863%,75.686275%,49.019608%);stroke-opacity:1;stroke-miterlimit:10;" d="M 107.309376 240.815916 C 107.309376 255.15876 95.693298 266.784482 81.357139 266.784482 C 67.020981 266.784482 55.404903 255.15876 55.404903 240.815916 C 55.404903 226.473072 67.020981 214.869622 81.357139 214.869622 C 95.693298 214.869622 107.309376 226.473072 107.309376 240.815916 Z M 107.309376 240.815916 " transform="matrix(0.175202,0,0,0.175392,0,0.00882723)"/>
<path style="fill:none;stroke-width:0.64;stroke-linecap:round;stroke-linejoin:miter;stroke:rgb(92.156863%,75.686275%,49.019608%);stroke-opacity:1;stroke-miterlimit:10;" d="M 100.17474 240.815916 C 100.17474 251.216705 91.746952 259.635331 81.357139 259.635331 C 70.967327 259.635331 62.539539 251.216705 62.539539 240.815916 C 62.539539 230.437398 70.967327 222.018772 81.357139 222.018772 C 91.746952 222.018772 100.17474 230.437398 100.17474 240.815916 Z M 100.17474 240.815916 " transform="matrix(0.175202,0,0,0.175392,0,0.00882723)"/>
<path style="fill:none;stroke-width:0.5;stroke-linecap:round;stroke-linejoin:miter;stroke:rgb(92.156863%,75.686275%,49.019608%);stroke-opacity:1;stroke-miterlimit:10;" d="M 72.349662 257.319096 C 72.907056 256.717765 73.977251 255.60419 74.2448 254.824688 C 74.2448 254.824688 74.133321 253.51067 73.865772 252.085294 C 70.209272 249.657701 67.823628 245.515202 67.823628 240.815916 C 67.823628 233.332693 73.888068 227.274846 81.357139 227.274846 C 88.848507 227.274846 94.890651 233.332693 94.890651 240.815916 C 94.890651 245.426116 92.59419 249.5018 89.071464 251.951665 C 88.781619 252.77571 88.424888 253.644299 88.135043 254.468344 C 88.068156 254.646516 87.978973 254.846959 88.001269 255.047403 C 88.04586 255.292389 88.224226 255.515104 88.380296 255.693276 C 88.893098 256.250064 89.383604 256.78458 89.896406 257.319096 " transform="matrix(0.175202,0,0,0.175392,0,0.00882723)"/>
<path style="fill:none;stroke-width:0.5;stroke-linecap:round;stroke-linejoin:miter;stroke:rgb(92.156863%,75.686275%,49.019608%);stroke-opacity:1;stroke-miterlimit:10;" d="M 105.92704 240.815916 C 105.92704 254.379258 94.935243 265.381378 81.357139 265.381378 C 67.801332 265.381378 56.787239 254.379258 56.787239 240.815916 C 56.787239 227.252574 67.801332 216.250454 81.357139 216.250454 C 94.935243 216.250454 105.92704 227.252574 105.92704 240.815916 Z M 105.92704 240.815916 " transform="matrix(0.175202,0,0,0.175392,0,0.00882723)"/>
<path style="fill:none;stroke-width:0.64;stroke-linecap:round;stroke-linejoin:miter;stroke:rgb(92.156863%,75.686275%,49.019608%);stroke-opacity:1;stroke-miterlimit:10;" d="M 93.084696 224.602266 C 94.756877 223.755949 97.410069 222.241487 99.238319 221.729243 C 99.416685 221.662428 99.639643 221.595614 99.773417 221.751514 C 99.884896 221.885143 99.773417 222.13013 99.70653 222.241487 C 98.792405 224.000936 97.410069 226.161271 96.250691 227.942991 " transform="matrix(0.175202,0,0,0.175392,0,0.00882723)"/>
<path style="fill:none;stroke-width:0.64;stroke-linecap:round;stroke-linejoin:miter;stroke:rgb(92.156863%,75.686275%,49.019608%);stroke-opacity:1;stroke-miterlimit:10;" d="M 103.140073 235.114413 C 102.716454 235.314856 102.649567 235.96073 102.961707 236.317074 C 103.273848 236.673418 103.853537 236.695689 104.277156 236.450703 C 104.745366 236.161173 104.946028 235.470757 104.700775 234.936241 C 104.500113 234.468539 104.031903 234.156738 103.541396 234.067652 C 102.694159 233.88948 101.980695 234.357182 101.735442 235.181227 C 101.467893 235.983001 101.891512 236.829318 102.448905 237.45292 C 103.697467 238.78921 106.127702 239.345997 107.688403 240.236857 C 107.933656 240.370486 108.089727 240.437301 108.089727 240.704559 C 108.089727 240.927274 107.889065 241.060903 107.755291 241.105446 C 106.685095 241.550876 105.124394 241.996305 104.031903 242.441735 C 102.827933 242.95398 101.668555 243.288052 101.37871 244.7357 C 101.267231 245.33703 101.467893 245.982904 101.936104 246.38379 C 102.404314 246.784677 103.117778 246.873763 103.630579 246.539691 C 104.165677 246.22789 104.433226 245.537474 104.210269 244.980686 C 104.054198 244.557528 103.630579 244.223455 103.184665 244.29027 C 102.761046 244.334813 102.382018 244.824786 102.538088 245.247944 " transform="matrix(0.175202,0,0,0.175392,0,0.00882723)"/>
<path style="fill:none;stroke-width:0.64;stroke-linecap:round;stroke-linejoin:miter;stroke:rgb(92.156863%,75.686275%,49.019608%);stroke-opacity:1;stroke-miterlimit:10;" d="M 97.588435 252.552995 C 98.435673 254.223358 99.929487 256.873666 100.464585 258.699929 C 100.509176 258.878101 100.598359 259.100815 100.442289 259.234444 C 100.308515 259.345802 100.063262 259.234444 99.929487 259.16763 C 98.19042 258.254499 96.027734 256.873666 94.244075 255.715548 " transform="matrix(0.175202,0,0,0.175392,0,0.00882723)"/>
<path style="fill:none;stroke-width:0.64;stroke-linecap:round;stroke-linejoin:miter;stroke:rgb(92.156863%,75.686275%,49.019608%);stroke-opacity:1;stroke-miterlimit:10;" d="M 87.087144 262.597441 C 86.886482 262.174282 86.21761 262.107468 85.860878 262.419269 C 85.526442 262.73107 85.504146 263.310129 85.749399 263.733287 C 86.016948 264.200988 86.708116 264.401432 87.265509 264.178717 C 87.711424 263.956002 88.023564 263.4883 88.135043 262.998328 C 88.291113 262.152011 87.822903 261.439323 87.020256 261.194336 C 86.21761 260.927078 85.348076 261.350237 84.723796 261.929296 C 83.408347 263.154228 82.850954 265.581821 81.959124 267.140826 C 81.82535 267.385813 81.758463 267.541713 81.490914 267.541713 C 81.267957 267.541713 81.134182 267.34127 81.089591 267.229912 C 80.643676 266.138609 80.197761 264.579604 79.751847 263.510572 C 79.239045 262.28564 78.904609 261.127522 77.455386 260.837992 C 76.853401 260.726635 76.206825 260.927078 75.805501 261.39478 C 75.404178 261.862481 75.314995 262.575169 75.649431 263.109685 C 75.961571 263.621929 76.652739 263.889187 77.210133 263.688744 C 77.633752 263.510572 77.968188 263.087414 77.9013 262.641984 C 77.856709 262.218825 77.366203 261.84021 76.942584 261.99611 " transform="matrix(0.175202,0,0,0.175392,0,0.00882723)"/>
<path style="fill:none;stroke-width:0.64;stroke-linecap:round;stroke-linejoin:miter;stroke:rgb(92.156863%,75.686275%,49.019608%);stroke-opacity:1;stroke-miterlimit:10;" d="M 69.629583 257.029566 C 67.979698 257.898155 65.30421 259.390345 63.498255 259.902589 C 63.319889 259.969404 63.074636 260.05849 62.940862 259.880318 C 62.829383 259.76896 62.940862 259.523974 63.030045 259.390345 C 63.921874 257.630897 65.30421 255.470561 66.463588 253.688842 " transform="matrix(0.175202,0,0,0.175392,0,0.00882723)"/>
<path style="fill:none;stroke-width:0.64;stroke-linecap:round;stroke-linejoin:miter;stroke:rgb(92.156863%,75.686275%,49.019608%);stroke-opacity:1;stroke-miterlimit:10;" d="M 59.596501 246.539691 C 60.02012 246.339247 60.087008 245.671103 59.774867 245.33703 C 59.440431 244.980686 58.860742 244.958415 58.459419 245.203401 C 57.968913 245.470659 57.790547 246.161075 58.013504 246.717863 C 58.236462 247.185564 58.704672 247.497365 59.195178 247.586451 C 60.02012 247.764623 60.733584 247.296922 61.001133 246.472876 C 61.268682 245.671103 60.845063 244.802514 60.265374 244.178912 C 59.039108 242.864894 56.608873 242.308106 55.048171 241.417247 C 54.802918 241.283618 54.646848 241.216803 54.646848 240.949545 C 54.646848 240.72683 54.84751 240.593201 54.958988 240.548658 C 56.051479 240.103228 57.612181 239.657798 58.682376 239.212368 C 59.908642 238.700124 61.06802 238.366051 61.357865 236.918404 C 61.469343 236.317074 61.268682 235.648929 60.800471 235.270313 C 60.332261 234.869426 59.618797 234.78034 59.0837 235.092141 C 58.570898 235.426214 58.303349 236.11663 58.50401 236.673418 C 58.660081 237.096576 59.105995 237.430649 59.529614 237.363834 C 59.975529 237.319291 60.332261 236.829318 60.198486 236.40616 " transform="matrix(0.175202,0,0,0.175392,0,0.00882723)"/>
<path style="fill:none;stroke-width:0.64;stroke-linecap:round;stroke-linejoin:miter;stroke:rgb(92.156863%,75.686275%,49.019608%);stroke-opacity:1;stroke-miterlimit:10;" d="M 65.14814 229.101108 C 64.300902 227.430746 62.784792 224.780438 62.27199 222.954175 C 62.205103 222.776003 62.138215 222.531017 62.294285 222.419659 C 62.42806 222.308302 62.651017 222.419659 62.784792 222.486474 C 64.546155 223.399605 66.708841 224.780438 68.4925 225.938556 " transform="matrix(0.175202,0,0,0.175392,0,0.00882723)"/>
<path style=" stroke:none;fill-rule:nonzero;fill:rgb(92.156863%,75.686275%,49.019608%);fill-opacity:1;" d="M 15.671875 38.8125 C 15.671875 38.894531 15.605469 38.960938 15.523438 38.960938 C 15.441406 38.960938 15.375 38.894531 15.375 38.8125 C 15.375 38.730469 15.441406 38.660156 15.523438 38.660156 C 15.605469 38.660156 15.671875 38.730469 15.671875 38.8125 Z M 15.671875 38.8125 "/>
<path style=" stroke:none;fill-rule:nonzero;fill:rgb(92.156863%,75.686275%,49.019608%);fill-opacity:1;" d="M 15.957031 38.988281 C 15.957031 39.082031 15.878906 39.160156 15.785156 39.160156 C 15.691406 39.160156 15.617188 39.082031 15.617188 38.988281 C 15.617188 38.894531 15.691406 38.820312 15.785156 38.820312 C 15.878906 38.820312 15.957031 38.894531 15.957031 38.988281 Z M 15.957031 38.988281 "/>
<path style=" stroke:none;fill-rule:nonzero;fill:rgb(92.156863%,75.686275%,49.019608%);fill-opacity:1;" d="M 16.476562 38.144531 C 16.476562 38.257812 16.386719 38.347656 16.273438 38.347656 C 16.160156 38.347656 16.066406 38.257812 16.066406 38.144531 C 16.066406 38.03125 16.160156 37.9375 16.273438 37.9375 C 16.386719 37.9375 16.476562 38.03125 16.476562 38.144531 Z M 16.476562 38.144531 "/>
<path style=" stroke:none;fill-rule:nonzero;fill:rgb(92.156863%,75.686275%,49.019608%);fill-opacity:1;" d="M 16.234375 39.085938 C 16.234375 39.167969 16.167969 39.234375 16.085938 39.234375 C 16.003906 39.234375 15.9375 39.167969 15.9375 39.085938 C 15.9375 39.003906 16.003906 38.933594 16.085938 38.933594 C 16.167969 38.933594 16.234375 39.003906 16.234375 39.085938 Z M 16.234375 39.085938 "/>
<path style="fill:none;stroke-width:0.64;stroke-linecap:round;stroke-linejoin:miter;stroke:rgb(92.156863%,75.686275%,49.019608%);stroke-opacity:1;stroke-miterlimit:10;" d="M 89.673449 221.506528 L 90.676757 219.568908 " transform="matrix(0.175202,0,0,0.175392,0,0.00882723)"/>
<path style="fill:none;stroke-width:0.64;stroke-linecap:round;stroke-linejoin:miter;stroke:rgb(92.156863%,75.686275%,49.019608%);stroke-opacity:1;stroke-miterlimit:10;" d="M 91.211855 222.241487 L 92.192867 220.326138 " transform="matrix(0.175202,0,0,0.175392,0,0.00882723)"/>
<path style=" stroke:none;fill-rule:nonzero;fill:rgb(92.156863%,75.686275%,49.019608%);fill-opacity:1;" d="M 15.777344 38.414062 C 15.757812 38.355469 15.785156 38.28125 15.832031 38.246094 C 15.875 38.207031 15.941406 38.191406 16 38.195312 C 16.0625 38.199219 16.121094 38.230469 16.175781 38.253906 C 16.242188 38.28125 16.308594 38.316406 16.355469 38.367188 C 16.402344 38.417969 16.433594 38.488281 16.421875 38.554688 C 16.414062 38.625 16.351562 38.6875 16.28125 38.691406 C 16.179688 38.695312 16.105469 38.601562 16.023438 38.558594 C 15.976562 38.539062 15.933594 38.546875 15.890625 38.523438 C 15.839844 38.5 15.792969 38.464844 15.777344 38.414062 Z M 15.777344 38.414062 "/>
<path style=" stroke:none;fill-rule:nonzero;fill:rgb(92.156863%,75.686275%,49.019608%);fill-opacity:1;" d="M 17.835938 43.515625 C 17.835938 43.597656 17.769531 43.664062 17.6875 43.664062 C 17.605469 43.664062 17.539062 43.597656 17.539062 43.515625 C 17.539062 43.433594 17.605469 43.367188 17.6875 43.367188 C 17.769531 43.367188 17.835938 43.433594 17.835938 43.515625 Z M 17.835938 43.515625 "/>
<path style=" stroke:none;fill-rule:nonzero;fill:rgb(92.156863%,75.686275%,49.019608%);fill-opacity:1;" d="M 17.679688 43.777344 C 17.679688 43.871094 17.601562 43.949219 17.507812 43.949219 C 17.414062 43.949219 17.339844 43.871094 17.339844 43.777344 C 17.339844 43.683594 17.414062 43.609375 17.507812 43.609375 C 17.601562 43.609375 17.679688 43.683594 17.679688 43.777344 Z M 17.679688 43.777344 "/>
<path style=" stroke:none;fill-rule:nonzero;fill:rgb(92.156863%,75.686275%,49.019608%);fill-opacity:1;" d="M 18.558594 44.265625 C 18.558594 44.378906 18.46875 44.472656 18.355469 44.472656 C 18.242188 44.472656 18.148438 44.378906 18.148438 44.265625 C 18.148438 44.152344 18.242188 44.0625 18.355469 44.0625 C 18.46875 44.0625 18.558594 44.152344 18.558594 44.265625 Z M 18.558594 44.265625 "/>
<path style=" stroke:none;fill-rule:nonzero;fill:rgb(92.156863%,75.686275%,49.019608%);fill-opacity:1;" d="M 17.5625 44.078125 C 17.5625 44.160156 17.496094 44.230469 17.414062 44.230469 C 17.332031 44.230469 17.265625 44.160156 17.265625 44.078125 C 17.265625 43.996094 17.332031 43.929688 17.414062 43.929688 C 17.496094 43.929688 17.5625 43.996094 17.5625 44.078125 Z M 17.5625 44.078125 "/>
<path style="fill:none;stroke-width:0.64;stroke-linecap:round;stroke-linejoin:miter;stroke:rgb(92.156863%,75.686275%,49.019608%);stroke-opacity:1;stroke-miterlimit:10;" d="M 100.687542 249.145456 L 102.627271 250.125402 " transform="matrix(0.175202,0,0,0.175392,0,0.00882723)"/>
<path style="fill:none;stroke-width:0.64;stroke-linecap:round;stroke-linejoin:miter;stroke:rgb(92.156863%,75.686275%,49.019608%);stroke-opacity:1;stroke-miterlimit:10;" d="M 99.929487 250.659918 L 101.869216 251.662135 " transform="matrix(0.175202,0,0,0.175392,0,0.00882723)"/>
<path style=" stroke:none;fill-rule:nonzero;fill:rgb(92.156863%,75.686275%,49.019608%);fill-opacity:1;" d="M 18.085938 43.769531 C 18.140625 43.753906 18.214844 43.78125 18.253906 43.824219 C 18.292969 43.871094 18.304688 43.9375 18.300781 43.996094 C 18.296875 44.054688 18.265625 44.113281 18.242188 44.171875 C 18.214844 44.238281 18.179688 44.300781 18.128906 44.351562 C 18.078125 44.398438 18.007812 44.429688 17.941406 44.417969 C 17.871094 44.40625 17.8125 44.347656 17.808594 44.277344 C 17.800781 44.171875 17.898438 44.101562 17.9375 44.015625 C 17.957031 43.972656 17.949219 43.925781 17.972656 43.882812 C 18 43.835938 18.035156 43.789062 18.085938 43.769531 Z M 18.085938 43.769531 "/>
<path style=" stroke:none;fill-rule:nonzero;fill:rgb(92.156863%,75.686275%,49.019608%);fill-opacity:1;" d="M 13.136719 45.683594 C 13.136719 45.765625 13.070312 45.832031 12.988281 45.832031 C 12.90625 45.832031 12.839844 45.765625 12.839844 45.683594 C 12.839844 45.601562 12.90625 45.535156 12.988281 45.535156 C 13.070312 45.535156 13.136719 45.601562 13.136719 45.683594 Z M 13.136719 45.683594 "/>
<path style=" stroke:none;fill-rule:nonzero;fill:rgb(92.156863%,75.686275%,49.019608%);fill-opacity:1;" d="M 12.894531 45.503906 C 12.894531 45.597656 12.820312 45.675781 12.726562 45.675781 C 12.632812 45.675781 12.554688 45.597656 12.554688 45.503906 C 12.554688 45.410156 12.632812 45.332031 12.726562 45.332031 C 12.820312 45.332031 12.894531 45.410156 12.894531 45.503906 Z M 12.894531 45.503906 "/>
<path style=" stroke:none;fill-rule:nonzero;fill:rgb(92.156863%,75.686275%,49.019608%);fill-opacity:1;" d="M 12.441406 46.347656 C 12.441406 46.460938 12.351562 46.554688 12.238281 46.554688 C 12.125 46.554688 12.03125 46.460938 12.03125 46.347656 C 12.03125 46.234375 12.125 46.144531 12.238281 46.144531 C 12.351562 46.144531 12.441406 46.234375 12.441406 46.347656 Z M 12.441406 46.347656 "/>
<path style=" stroke:none;fill-rule:nonzero;fill:rgb(92.156863%,75.686275%,49.019608%);fill-opacity:1;" d="M 12.574219 45.410156 C 12.574219 45.492188 12.507812 45.558594 12.425781 45.558594 C 12.34375 45.558594 12.277344 45.492188 12.277344 45.410156 C 12.277344 45.328125 12.34375 45.261719 12.425781 45.261719 C 12.507812 45.261719 12.574219 45.328125 12.574219 45.410156 Z M 12.574219 45.410156 "/>
<path style="fill:none;stroke-width:0.64;stroke-linecap:round;stroke-linejoin:miter;stroke:rgb(92.156863%,75.686275%,49.019608%);stroke-opacity:1;stroke-miterlimit:10;" d="M 73.04083 260.147576 L 72.059818 262.085196 " transform="matrix(0.175202,0,0,0.175392,0,0.00882723)"/>
<path style="fill:none;stroke-width:0.64;stroke-linecap:round;stroke-linejoin:miter;stroke:rgb(92.156863%,75.686275%,49.019608%);stroke-opacity:1;stroke-miterlimit:10;" d="M 71.52472 259.390345 L 70.521412 261.327965 " transform="matrix(0.175202,0,0,0.175392,0,0.00882723)"/>
<path style=" stroke:none;fill-rule:nonzero;fill:rgb(92.156863%,75.686275%,49.019608%);fill-opacity:1;" d="M 12.734375 46.082031 C 12.75 46.136719 12.726562 46.210938 12.679688 46.25 C 12.632812 46.289062 12.570312 46.300781 12.507812 46.296875 C 12.449219 46.292969 12.390625 46.261719 12.335938 46.242188 C 12.269531 46.210938 12.203125 46.175781 12.15625 46.125 C 12.109375 46.074219 12.078125 46.003906 12.085938 45.9375 C 12.097656 45.867188 12.15625 45.808594 12.230469 45.804688 C 12.332031 45.796875 12.402344 45.894531 12.488281 45.933594 C 12.535156 45.953125 12.578125 45.949219 12.621094 45.96875 C 12.667969 45.996094 12.714844 46.03125 12.734375 46.082031 Z M 12.734375 46.082031 "/>
<path style=" stroke:none;fill-rule:nonzero;fill:rgb(92.156863%,75.686275%,49.019608%);fill-opacity:1;" d="M 10.972656 40.980469 C 10.972656 41.0625 10.90625 41.128906 10.820312 41.128906 C 10.738281 41.128906 10.671875 41.0625 10.671875 40.980469 C 10.671875 40.894531 10.738281 40.828125 10.820312 40.828125 C 10.90625 40.828125 10.972656 40.894531 10.972656 40.980469 Z M 10.972656 40.980469 "/>
<path style=" stroke:none;fill-rule:nonzero;fill:rgb(92.156863%,75.686275%,49.019608%);fill-opacity:1;" d="M 11.171875 40.714844 C 11.171875 40.808594 11.09375 40.886719 11 40.886719 C 10.90625 40.886719 10.832031 40.808594 10.832031 40.714844 C 10.832031 40.621094 10.90625 40.546875 11 40.546875 C 11.09375 40.546875 11.171875 40.621094 11.171875 40.714844 Z M 11.171875 40.714844 "/>
<path style=" stroke:none;fill-rule:nonzero;fill:rgb(92.156863%,75.686275%,49.019608%);fill-opacity:1;" d="M 10.363281 40.226562 C 10.363281 40.339844 10.269531 40.433594 10.15625 40.433594 C 10.042969 40.433594 9.953125 40.339844 9.953125 40.226562 C 9.953125 40.113281 10.042969 40.023438 10.15625 40.023438 C 10.269531 40.023438 10.363281 40.113281 10.363281 40.226562 Z M 10.363281 40.226562 "/>
<path style=" stroke:none;fill-rule:nonzero;fill:rgb(92.156863%,75.686275%,49.019608%);fill-opacity:1;" d="M 11.246094 40.414062 C 11.246094 40.5 11.179688 40.566406 11.09375 40.566406 C 11.011719 40.566406 10.945312 40.5 10.945312 40.414062 C 10.945312 40.332031 11.011719 40.265625 11.09375 40.265625 C 11.179688 40.265625 11.246094 40.332031 11.246094 40.414062 Z M 11.246094 40.414062 "/>
<path style="fill:none;stroke-width:0.64;stroke-linecap:round;stroke-linejoin:miter;stroke:rgb(92.156863%,75.686275%,49.019608%);stroke-opacity:1;stroke-miterlimit:10;" d="M 62.049032 232.508648 L 60.109303 231.528702 " transform="matrix(0.175202,0,0,0.175392,0,0.00882723)"/>
<path style="fill:none;stroke-width:0.64;stroke-linecap:round;stroke-linejoin:miter;stroke:rgb(92.156863%,75.686275%,49.019608%);stroke-opacity:1;stroke-miterlimit:10;" d="M 62.784792 230.971914 L 60.867358 229.991968 " transform="matrix(0.175202,0,0,0.175392,0,0.00882723)"/>
<path style=" stroke:none;fill-rule:nonzero;fill:rgb(92.156863%,75.686275%,49.019608%);fill-opacity:1;" d="M 10.425781 40.722656 C 10.367188 40.742188 10.292969 40.714844 10.257812 40.671875 C 10.21875 40.625 10.203125 40.558594 10.207031 40.5 C 10.210938 40.441406 10.242188 40.378906 10.265625 40.324219 C 10.292969 40.257812 10.328125 40.191406 10.378906 40.144531 C 10.429688 40.097656 10.5 40.066406 10.566406 40.078125 C 10.636719 40.085938 10.699219 40.148438 10.703125 40.21875 C 10.707031 40.324219 10.613281 40.394531 10.570312 40.480469 C 10.550781 40.523438 10.558594 40.566406 10.535156 40.613281 C 10.511719 40.660156 10.476562 40.707031 10.425781 40.722656 Z M 10.425781 40.722656 "/>
<path style=" stroke:none;fill-rule:nonzero;fill:rgb(92.156863%,75.686275%,49.019608%);fill-opacity:1;" d="M 17.445312 40.210938 C 17.445312 40.292969 17.378906 40.359375 17.296875 40.359375 C 17.214844 40.359375 17.148438 40.292969 17.148438 40.210938 C 17.148438 40.128906 17.214844 40.0625 17.296875 40.0625 C 17.378906 40.0625 17.445312 40.128906 17.445312 40.210938 Z M 17.445312 40.210938 "/>
<path style=" stroke:none;fill-rule:nonzero;fill:rgb(92.156863%,75.686275%,49.019608%);fill-opacity:1;" d="M 17.574219 40.507812 C 17.574219 40.601562 17.5 40.679688 17.40625 40.679688 C 17.3125 40.679688 17.234375 40.601562 17.234375 40.507812 C 17.234375 40.414062 17.3125 40.339844 17.40625 40.339844 C 17.5 40.339844 17.574219 40.414062 17.574219 40.507812 Z M 17.574219 40.507812 "/>
<path style=" stroke:none;fill-rule:nonzero;fill:rgb(92.156863%,75.686275%,49.019608%);fill-opacity:1;" d="M 18.5 40.113281 C 18.5 40.226562 18.40625 40.316406 18.292969 40.316406 C 18.179688 40.316406 18.089844 40.226562 18.089844 40.113281 C 18.089844 40 18.179688 39.90625 18.292969 39.90625 C 18.40625 39.90625 18.5 40 18.5 40.113281 Z M 18.5 40.113281 "/>
<path style=" stroke:none;fill-rule:nonzero;fill:rgb(92.156863%,75.686275%,49.019608%);fill-opacity:1;" d="M 17.742188 40.761719 C 17.742188 40.84375 17.675781 40.910156 17.59375 40.910156 C 17.507812 40.910156 17.441406 40.84375 17.441406 40.761719 C 17.441406 40.679688 17.507812 40.613281 17.59375 40.613281 C 17.675781 40.613281 17.742188 40.679688 17.742188 40.761719 Z M 17.742188 40.761719 "/>
<path style="fill:none;stroke-width:0.64;stroke-linecap:round;stroke-linejoin:miter;stroke:rgb(92.156863%,75.686275%,49.019608%);stroke-opacity:1;stroke-miterlimit:10;" d="M 99.438981 230.081054 L 101.37871 229.078837 " transform="matrix(0.175202,0,0,0.175392,0,0.00882723)"/>
<path style="fill:none;stroke-width:0.64;stroke-linecap:round;stroke-linejoin:miter;stroke:rgb(92.156863%,75.686275%,49.019608%);stroke-opacity:1;stroke-miterlimit:10;" d="M 100.241628 231.573245 L 102.159061 230.571027 " transform="matrix(0.175202,0,0,0.175392,0,0.00882723)"/>
<path style=" stroke:none;fill-rule:nonzero;fill:rgb(92.156863%,75.686275%,49.019608%);fill-opacity:1;" d="M 17.734375 40.035156 C 17.753906 39.980469 17.816406 39.9375 17.878906 39.933594 C 17.9375 39.929688 17.996094 39.957031 18.042969 39.996094 C 18.089844 40.035156 18.121094 40.09375 18.152344 40.144531 C 18.1875 40.207031 18.21875 40.273438 18.230469 40.34375 C 18.242188 40.414062 18.222656 40.484375 18.171875 40.535156 C 18.125 40.585938 18.042969 40.597656 17.980469 40.558594 C 17.894531 40.503906 17.890625 40.382812 17.847656 40.300781 C 17.824219 40.257812 17.78125 40.238281 17.761719 40.191406 C 17.738281 40.144531 17.71875 40.089844 17.734375 40.039062 Z M 17.734375 40.035156 "/>
<path style=" stroke:none;fill-rule:nonzero;fill:rgb(92.156863%,75.686275%,49.019608%);fill-opacity:1;" d="M 16.4375 45.292969 C 16.4375 45.375 16.371094 45.441406 16.289062 45.441406 C 16.207031 45.441406 16.140625 45.375 16.140625 45.292969 C 16.140625 45.210938 16.207031 45.140625 16.289062 45.140625 C 16.371094 45.140625 16.4375 45.210938 16.4375 45.292969 Z M 16.4375 45.292969 "/>
<path style=" stroke:none;fill-rule:nonzero;fill:rgb(92.156863%,75.686275%,49.019608%);fill-opacity:1;" d="M 16.160156 45.398438 C 16.160156 45.492188 16.085938 45.570312 15.992188 45.570312 C 15.898438 45.570312 15.820312 45.492188 15.820312 45.398438 C 15.820312 45.304688 15.898438 45.226562 15.992188 45.226562 C 16.085938 45.226562 16.160156 45.304688 16.160156 45.398438 Z M 16.160156 45.398438 "/>
<path style=" stroke:none;fill-rule:nonzero;fill:rgb(92.156863%,75.686275%,49.019608%);fill-opacity:1;" d="M 16.59375 46.292969 C 16.59375 46.40625 16.5 46.496094 16.386719 46.496094 C 16.273438 46.496094 16.183594 46.40625 16.183594 46.292969 C 16.183594 46.179688 16.273438 46.085938 16.386719 46.085938 C 16.5 46.085938 16.59375 46.179688 16.59375 46.292969 Z M 16.59375 46.292969 "/>
<path style=" stroke:none;fill-rule:nonzero;fill:rgb(92.156863%,75.686275%,49.019608%);fill-opacity:1;" d="M 15.886719 45.585938 C 15.886719 45.667969 15.820312 45.734375 15.738281 45.734375 C 15.65625 45.734375 15.589844 45.667969 15.589844 45.585938 C 15.589844 45.503906 15.65625 45.4375 15.738281 45.4375 C 15.820312 45.4375 15.886719 45.503906 15.886719 45.585938 Z M 15.886719 45.585938 "/>
<path style="fill:none;stroke-width:0.64;stroke-linecap:round;stroke-linejoin:miter;stroke:rgb(92.156863%,75.686275%,49.019608%);stroke-opacity:1;stroke-miterlimit:10;" d="M 92.12598 258.900372 L 93.106992 260.837992 " transform="matrix(0.175202,0,0,0.175392,0,0.00882723)"/>
<path style="fill:none;stroke-width:0.64;stroke-linecap:round;stroke-linejoin:miter;stroke:rgb(92.156863%,75.686275%,49.019608%);stroke-opacity:1;stroke-miterlimit:10;" d="M 90.60987 259.702146 L 91.590882 261.639766 " transform="matrix(0.175202,0,0,0.175392,0,0.00882723)"/>
<path style=" stroke:none;fill-rule:nonzero;fill:rgb(92.156863%,75.686275%,49.019608%);fill-opacity:1;" d="M 16.460938 45.730469 C 16.519531 45.746094 16.5625 45.8125 16.566406 45.871094 C 16.570312 45.933594 16.542969 45.992188 16.503906 46.039062 C 16.464844 46.085938 16.40625 46.113281 16.355469 46.144531 C 16.292969 46.183594 16.226562 46.214844 16.15625 46.226562 C 16.085938 46.234375 16.011719 46.21875 15.964844 46.167969 C 15.914062 46.121094 15.902344 46.035156 15.941406 45.976562 C 15.996094 45.886719 16.113281 45.886719 16.199219 45.84375 C 16.242188 45.820312 16.261719 45.777344 16.304688 45.757812 C 16.351562 45.730469 16.410156 45.714844 16.460938 45.730469 Z M 16.460938 45.730469 "/>
<path style=" stroke:none;fill-rule:nonzero;fill:rgb(92.156863%,75.686275%,49.019608%);fill-opacity:1;" d="M 11.363281 44.285156 C 11.363281 44.367188 11.296875 44.433594 11.214844 44.433594 C 11.132812 44.433594 11.066406 44.367188 11.066406 44.285156 C 11.066406 44.203125 11.132812 44.136719 11.214844 44.136719 C 11.296875 44.136719 11.363281 44.203125 11.363281 44.285156 Z M 11.363281 44.285156 "/>
<path style=" stroke:none;fill-rule:nonzero;fill:rgb(92.156863%,75.686275%,49.019608%);fill-opacity:1;" d="M 11.277344 43.984375 C 11.277344 44.078125 11.199219 44.15625 11.105469 44.15625 C 11.011719 44.15625 10.9375 44.078125 10.9375 43.984375 C 10.9375 43.890625 11.011719 43.816406 11.105469 43.816406 C 11.199219 43.816406 11.277344 43.890625 11.277344 43.984375 Z M 11.277344 43.984375 "/>
<path style=" stroke:none;fill-rule:nonzero;fill:rgb(92.156863%,75.686275%,49.019608%);fill-opacity:1;" d="M 10.421875 44.382812 C 10.421875 44.496094 10.328125 44.589844 10.214844 44.589844 C 10.101562 44.589844 10.011719 44.496094 10.011719 44.382812 C 10.011719 44.269531 10.101562 44.179688 10.214844 44.179688 C 10.328125 44.179688 10.421875 44.269531 10.421875 44.382812 Z M 10.421875 44.382812 "/>
<path style=" stroke:none;fill-rule:nonzero;fill:rgb(92.156863%,75.686275%,49.019608%);fill-opacity:1;" d="M 11.066406 43.730469 C 11.066406 43.816406 11 43.882812 10.917969 43.882812 C 10.835938 43.882812 10.769531 43.816406 10.769531 43.730469 C 10.769531 43.648438 10.835938 43.582031 10.917969 43.582031 C 11 43.582031 11.066406 43.648438 11.066406 43.730469 Z M 11.066406 43.730469 "/>
<path style="fill:none;stroke-width:0.64;stroke-linecap:round;stroke-linejoin:miter;stroke:rgb(92.156863%,75.686275%,49.019608%);stroke-opacity:1;stroke-miterlimit:10;" d="M 63.297594 251.573049 L 61.357865 252.552995 " transform="matrix(0.175202,0,0,0.175392,0,0.00882723)"/>
<path style="fill:none;stroke-width:0.64;stroke-linecap:round;stroke-linejoin:miter;stroke:rgb(92.156863%,75.686275%,49.019608%);stroke-opacity:1;stroke-miterlimit:10;" d="M 62.494947 250.080859 L 60.555218 251.060805 " transform="matrix(0.175202,0,0,0.175392,0,0.00882723)"/>
<path style=" stroke:none;fill-rule:nonzero;fill:rgb(92.156863%,75.686275%,49.019608%);fill-opacity:1;" d="M 10.773438 44.457031 C 10.757812 44.511719 10.691406 44.558594 10.632812 44.558594 C 10.574219 44.5625 10.515625 44.539062 10.464844 44.5 C 10.417969 44.460938 10.390625 44.402344 10.359375 44.351562 C 10.324219 44.289062 10.292969 44.222656 10.28125 44.152344 C 10.269531 44.082031 10.289062 44.007812 10.335938 43.957031 C 10.386719 43.910156 10.46875 43.894531 10.53125 43.933594 C 10.617188 43.988281 10.617188 44.109375 10.664062 44.191406 C 10.6875 44.234375 10.726562 44.257812 10.75 44.300781 C 10.773438 44.347656 10.789062 44.402344 10.773438 44.453125 Z M 10.773438 44.457031 "/>
<path style=" stroke:none;fill-rule:nonzero;fill:rgb(92.156863%,75.686275%,49.019608%);fill-opacity:1;" d="M 12.371094 39.203125 C 12.371094 39.285156 12.300781 39.351562 12.21875 39.351562 C 12.136719 39.351562 12.070312 39.285156 12.070312 39.203125 C 12.070312 39.121094 12.136719 39.054688 12.21875 39.054688 C 12.300781 39.054688 12.371094 39.121094 12.371094 39.203125 Z M 12.371094 39.203125 "/>
<path style=" stroke:none;fill-rule:nonzero;fill:rgb(92.156863%,75.686275%,49.019608%);fill-opacity:1;" d="M 12.691406 39.09375 C 12.691406 39.1875 12.613281 39.265625 12.519531 39.265625 C 12.425781 39.265625 12.351562 39.1875 12.351562 39.09375 C 12.351562 39 12.425781 38.925781 12.519531 38.925781 C 12.613281 38.925781 12.691406 39 12.691406 39.09375 Z M 12.691406 39.09375 "/>
<path style=" stroke:none;fill-rule:nonzero;fill:rgb(92.156863%,75.686275%,49.019608%);fill-opacity:1;" d="M 12.328125 38.203125 C 12.328125 38.316406 12.234375 38.410156 12.121094 38.410156 C 12.007812 38.410156 11.917969 38.316406 11.917969 38.203125 C 11.917969 38.089844 12.007812 38 12.121094 38 C 12.234375 38 12.328125 38.089844 12.328125 38.203125 Z M 12.328125 38.203125 "/>
<path style=" stroke:none;fill-rule:nonzero;fill:rgb(92.156863%,75.686275%,49.019608%);fill-opacity:1;" d="M 12.921875 38.90625 C 12.921875 38.988281 12.855469 39.054688 12.773438 39.054688 C 12.691406 39.054688 12.625 38.988281 12.625 38.90625 C 12.625 38.824219 12.691406 38.757812 12.773438 38.757812 C 12.855469 38.757812 12.921875 38.824219 12.921875 38.90625 Z M 12.921875 38.90625 "/>
<path style="fill:none;stroke-width:0.64;stroke-linecap:round;stroke-linejoin:miter;stroke:rgb(92.156863%,75.686275%,49.019608%);stroke-opacity:1;stroke-miterlimit:10;" d="M 70.610595 222.753732 L 69.629583 220.816111 " transform="matrix(0.175202,0,0,0.175392,0,0.00882723)"/>
<path style="fill:none;stroke-width:0.64;stroke-linecap:round;stroke-linejoin:miter;stroke:rgb(92.156863%,75.686275%,49.019608%);stroke-opacity:1;stroke-miterlimit:10;" d="M 72.104409 221.951958 L 71.123397 220.014338 " transform="matrix(0.175202,0,0,0.175392,0,0.00882723)"/>
<path style=" stroke:none;fill-rule:nonzero;fill:rgb(92.156863%,75.686275%,49.019608%);fill-opacity:1;" d="M 12.046875 38.761719 C 11.992188 38.746094 11.945312 38.679688 11.945312 38.621094 C 11.941406 38.5625 11.964844 38.503906 12.003906 38.453125 C 12.042969 38.40625 12.101562 38.378906 12.152344 38.347656 C 12.214844 38.3125 12.28125 38.28125 12.351562 38.269531 C 12.421875 38.257812 12.496094 38.277344 12.542969 38.324219 C 12.59375 38.375 12.609375 38.457031 12.570312 38.519531 C 12.511719 38.605469 12.394531 38.605469 12.3125 38.652344 C 12.269531 38.675781 12.246094 38.714844 12.203125 38.738281 C 12.15625 38.761719 12.097656 38.78125 12.046875 38.761719 Z M 12.046875 38.761719 "/>
<path style="fill:none;stroke-width:0.5;stroke-linecap:round;stroke-linejoin:miter;stroke:rgb(92.156863%,75.686275%,49.019608%);stroke-opacity:1;stroke-miterlimit:10;" d="M 64.858295 231.79596 L 69.428921 234.446268 " transform="matrix(0.175202,0,0,0.175392,0,0.00882723)"/>
<path style="fill:none;stroke-width:0.5;stroke-linecap:round;stroke-linejoin:miter;stroke:rgb(92.156863%,75.686275%,49.019608%);stroke-opacity:1;stroke-miterlimit:10;" d="M 73.263787 223.845035 L 75.426474 228.655679 " transform="matrix(0.175202,0,0,0.175392,0,0.00882723)"/>
<path style="fill:none;stroke-width:0.5;stroke-linecap:round;stroke-linejoin:miter;stroke:rgb(92.156863%,75.686275%,49.019608%);stroke-opacity:1;stroke-miterlimit:10;" d="M 89.160647 223.689135 L 86.864186 228.432964 " transform="matrix(0.175202,0,0,0.175392,0,0.00882723)"/>
<path style="fill:none;stroke-width:0.5;stroke-linecap:round;stroke-linejoin:miter;stroke:rgb(92.156863%,75.686275%,49.019608%);stroke-opacity:1;stroke-miterlimit:10;" d="M 98.101237 232.219118 L 93.352245 234.535354 " transform="matrix(0.175202,0,0,0.175392,0,0.00882723)"/>
<path style="fill:none;stroke-width:0.5;stroke-linecap:round;stroke-linejoin:miter;stroke:rgb(92.156863%,75.686275%,49.019608%);stroke-opacity:1;stroke-miterlimit:10;" d="M 98.569447 248.410497 L 93.79816 246.183347 " transform="matrix(0.175202,0,0,0.175392,0,0.00882723)"/>
<path style="fill:none;stroke-width:0.5;stroke-linecap:round;stroke-linejoin:miter;stroke:rgb(92.156863%,75.686275%,49.019608%);stroke-opacity:1;stroke-miterlimit:10;" d="M 63.988761 248.00961 L 68.893823 246.116532 " transform="matrix(0.175202,0,0,0.175392,0,0.00882723)"/>
<path style="fill:none;stroke-width:1.28;stroke-linecap:round;stroke-linejoin:miter;stroke:rgb(92.156863%,75.686275%,49.019608%);stroke-opacity:1;stroke-miterlimit:10;" d="M 75.560248 225.159053 C 76.162233 225.025424 76.741922 225.40404 77.254724 225.738112 C 77.789822 226.049913 78.436398 226.361714 78.993792 226.116728 C 79.551185 225.84947 79.774142 225.203596 79.9971 224.624537 C 80.220057 224.045479 80.62138 223.399605 81.245661 223.444148 C 81.780758 223.46642 82.13749 224.000936 82.338152 224.490909 C 82.516518 224.980881 82.650292 225.55994 83.02932 225.894013 C 84.300177 227.029859 85.481851 225.11451 86.797299 225.270411 " transform="matrix(0.175202,0,0,0.175392,0,0.00882723)"/>
<path style=" stroke:none;fill-rule:nonzero;fill:rgb(92.156863%,75.686275%,49.019608%);fill-opacity:1;" d="M 16.027344 41.832031 C 15.90625 41.621094 15.871094 41.367188 15.929688 41.132812 C 15.960938 41.015625 16.011719 40.890625 15.976562 40.773438 C 15.949219 40.6875 15.875 40.625 15.804688 40.566406 C 15.429688 40.265625 15.023438 40.019531 14.261719 39.972656 C 13.5 40.019531 13.09375 40.265625 12.71875 40.566406 C 12.648438 40.625 12.574219 40.6875 12.546875 40.773438 C 12.507812 40.890625 12.5625 41.011719 12.589844 41.132812 C 12.652344 41.367188 12.617188 41.621094 12.496094 41.832031 C 12.453125 41.910156 12.398438 42 12.429688 42.082031 C 12.453125 42.136719 12.511719 42.167969 12.566406 42.203125 C 12.847656 42.375 13.007812 42.699219 13.0625 43.027344 C 13.117188 43.355469 13.082031 43.6875 13.042969 44.019531 C 13.332031 44.082031 13.597656 44.238281 13.800781 44.453125 C 13.863281 44.523438 13.921875 44.597656 14.003906 44.644531 C 14.082031 44.6875 14.257812 44.675781 14.257812 44.675781 C 14.257812 44.675781 14.4375 44.6875 14.515625 44.644531 C 14.597656 44.597656 14.65625 44.523438 14.71875 44.453125 C 14.921875 44.238281 15.1875 44.082031 15.476562 44.019531 C 15.4375 43.6875 15.402344 43.355469 15.457031 43.027344 C 15.511719 42.699219 15.671875 42.375 15.953125 42.203125 C 16.007812 42.167969 16.0625 42.136719 16.089844 42.082031 C 16.121094 41.996094 16.066406 41.910156 16.023438 41.832031 Z M 16.027344 41.832031 "/>
<path style=" stroke:none;fill-rule:nonzero;fill:rgb(77.254902%,55.294118%,22.745098%);fill-opacity:1;" d="M 13.953125 41.726562 C 13.953125 42.035156 13.707031 42.285156 13.398438 42.285156 C 13.089844 42.285156 12.839844 42.035156 12.839844 41.726562 C 12.839844 41.417969 13.089844 41.167969 13.398438 41.167969 C 13.707031 41.167969 13.953125 41.417969 13.953125 41.726562 Z M 13.953125 41.726562 "/>
<path style=" stroke:none;fill-rule:nonzero;fill:rgb(77.254902%,55.294118%,22.745098%);fill-opacity:1;" d="M 15.628906 41.726562 C 15.628906 42.035156 15.378906 42.285156 15.070312 42.285156 C 14.761719 42.285156 14.515625 42.035156 14.515625 41.726562 C 14.515625 41.417969 14.761719 41.167969 15.070312 41.167969 C 15.378906 41.167969 15.628906 41.417969 15.628906 41.726562 Z M 15.628906 41.726562 "/>
<path style=" stroke:none;fill-rule:nonzero;fill:rgb(77.254902%,55.294118%,22.745098%);fill-opacity:1;" d="M 14.65625 42.578125 C 14.585938 42.375 14.476562 42.183594 14.335938 42.015625 C 14.296875 41.96875 14.222656 41.96875 14.183594 42.015625 C 14.042969 42.179688 13.933594 42.375 13.863281 42.578125 C 13.847656 42.621094 13.835938 42.664062 13.855469 42.707031 C 13.878906 42.753906 13.941406 42.769531 13.996094 42.777344 C 14.039062 42.785156 14.089844 42.789062 14.121094 42.757812 C 14.136719 42.738281 14.140625 42.714844 14.148438 42.691406 C 14.164062 42.617188 14.195312 42.496094 14.21875 42.398438 C 14.230469 42.359375 14.285156 42.359375 14.296875 42.398438 C 14.320312 42.496094 14.347656 42.597656 14.371094 42.691406 C 14.375 42.714844 14.378906 42.738281 14.394531 42.753906 C 14.425781 42.789062 14.476562 42.785156 14.519531 42.777344 C 14.574219 42.769531 14.636719 42.753906 14.664062 42.703125 C 14.683594 42.664062 14.667969 42.617188 14.65625 42.578125 Z M 14.65625 42.578125 "/>
<path style=" stroke:none;fill-rule:nonzero;fill:rgb(92.156863%,75.686275%,49.019608%);fill-opacity:1;" d="M 11.960938 40.070312 C 12.011719 40.046875 12.074219 40.054688 12.128906 40.042969 C 12.273438 40.007812 12.347656 39.832031 12.488281 39.78125 C 12.589844 39.75 12.710938 39.792969 12.761719 39.882812 C 12.8125 39.976562 12.792969 40.101562 12.714844 40.171875 C 12.65625 40.222656 12.574219 40.242188 12.511719 40.289062 C 12.421875 40.355469 12.386719 40.46875 12.328125 40.5625 C 12.269531 40.65625 12.164062 40.746094 12.054688 40.714844 C 11.875 40.65625 11.753906 40.160156 11.960938 40.070312 Z M 11.960938 40.070312 "/>
<path style=" stroke:none;fill-rule:nonzero;fill:rgb(92.156863%,75.686275%,49.019608%);fill-opacity:1;" d="M 11.144531 42.03125 C 11.132812 42.304688 11.242188 42.578125 11.441406 42.769531 C 11.445312 42.769531 11.585938 42.421875 11.59375 42.382812 C 11.628906 42.238281 11.644531 42.09375 11.636719 41.945312 C 11.628906 41.804688 11.609375 41.652344 11.554688 41.523438 C 11.476562 41.335938 11.378906 41.4375 11.296875 41.5625 C 11.207031 41.703125 11.152344 41.863281 11.144531 42.03125 Z M 11.144531 42.03125 "/>
<path style=" stroke:none;fill-rule:nonzero;fill:rgb(92.156863%,75.686275%,49.019608%);fill-opacity:1;" d="M 11.84375 44.289062 C 11.78125 44.222656 11.738281 44.132812 11.757812 44.046875 C 11.773438 43.960938 11.886719 43.898438 11.960938 43.949219 C 11.960938 43.902344 11.972656 43.859375 11.996094 43.820312 C 12.019531 43.785156 12.0625 43.757812 12.109375 43.761719 C 12.15625 43.765625 12.195312 43.796875 12.222656 43.835938 C 12.25 43.875 12.265625 43.917969 12.289062 43.957031 C 12.335938 44.027344 12.402344 44.082031 12.46875 44.128906 C 12.535156 44.179688 12.601562 44.230469 12.652344 44.296875 C 12.699219 44.363281 12.730469 44.453125 12.707031 44.53125 C 12.679688 44.609375 12.59375 44.671875 12.515625 44.648438 C 12.402344 44.613281 12.371094 44.484375 12.253906 44.457031 C 12.09375 44.421875 11.964844 44.417969 11.84375 44.289062 Z M 11.84375 44.289062 "/>
<path style=" stroke:none;fill-rule:nonzero;fill:rgb(92.156863%,75.686275%,49.019608%);fill-opacity:1;" d="M 16.046875 44.546875 C 15.980469 44.546875 15.910156 44.515625 15.878906 44.453125 C 15.84375 44.386719 15.871094 44.300781 15.917969 44.238281 C 15.960938 44.175781 16.023438 44.128906 16.074219 44.070312 C 16.140625 43.988281 16.179688 43.882812 16.265625 43.816406 C 16.351562 43.753906 16.476562 43.746094 16.570312 43.800781 C 16.664062 43.855469 16.71875 43.96875 16.707031 44.074219 C 16.691406 44.183594 16.605469 44.277344 16.503906 44.304688 C 16.378906 44.339844 16.3125 44.324219 16.242188 44.441406 C 16.191406 44.523438 16.15625 44.550781 16.046875 44.546875 Z M 16.046875 44.546875 "/>
<path style=" stroke:none;fill-rule:nonzero;fill:rgb(92.156863%,75.686275%,49.019608%);fill-opacity:1;" d="M 16.753906 42.171875 C 16.753906 41.921875 16.839844 41.667969 16.988281 41.464844 C 17.144531 41.597656 17.234375 41.796875 17.230469 41.996094 C 17.074219 41.964844 16.902344 42.050781 16.835938 42.195312 C 16.933594 42.277344 17.0625 42.324219 17.191406 42.328125 C 17.261719 42.328125 17.230469 42.78125 17.039062 42.976562 C 16.8125 42.773438 16.753906 42.460938 16.753906 42.171875 Z M 16.753906 42.171875 "/>
<path style=" stroke:none;fill-rule:nonzero;fill:rgb(92.156863%,75.686275%,49.019608%);fill-opacity:1;" d="M 15.882812 40.261719 C 15.796875 40.207031 15.722656 40.117188 15.730469 40.015625 C 15.734375 39.917969 15.8125 39.835938 15.90625 39.8125 C 15.996094 39.785156 16.097656 39.804688 16.179688 39.847656 C 16.226562 39.867188 16.273438 39.910156 16.257812 39.957031 C 16.25 39.996094 16.199219 40.015625 16.183594 40.050781 C 16.164062 40.105469 16.21875 40.160156 16.273438 40.171875 C 16.332031 40.179688 16.386719 40.15625 16.441406 40.144531 C 16.496094 40.136719 16.5625 40.140625 16.59375 40.191406 C 16.621094 40.226562 16.609375 40.285156 16.578125 40.320312 C 16.542969 40.351562 16.496094 40.367188 16.449219 40.367188 C 16.472656 40.441406 16.464844 40.53125 16.410156 40.585938 C 16.359375 40.640625 16.25 40.636719 16.214844 40.566406 C 16.179688 40.492188 16.203125 40.441406 16.128906 40.390625 C 16.058594 40.339844 15.960938 40.3125 15.882812 40.261719 Z M 15.882812 40.261719 "/>
<path style=" stroke:none;fill-rule:nonzero;fill:rgb(77.254902%,55.294118%,22.745098%);fill-opacity:1;" d="M 15.195312 43.195312 C 15.195312 43.058594 15.203125 42.914062 15.265625 42.792969 C 15.269531 42.785156 15.257812 42.773438 15.25 42.78125 C 15.125 42.867188 14.996094 42.949219 14.847656 42.972656 C 14.722656 42.992188 14.601562 42.957031 14.480469 42.957031 C 14.316406 42.949219 14.140625 42.941406 13.972656 42.957031 C 13.871094 42.972656 13.765625 42.988281 13.660156 42.972656 C 13.511719 42.953125 13.382812 42.867188 13.257812 42.78125 C 13.25 42.773438 13.238281 42.785156 13.242188 42.792969 C 13.304688 42.914062 13.308594 43.058594 13.3125 43.195312 C 13.316406 43.324219 13.324219 43.453125 13.320312 43.578125 C 13.316406 43.667969 13.285156 43.789062 13.355469 43.863281 C 13.394531 43.90625 13.449219 43.929688 13.503906 43.957031 C 13.65625 44.042969 13.75 44.207031 13.921875 44.25 C 13.980469 44.265625 14.042969 44.257812 14.113281 44.246094 C 14.207031 44.230469 14.300781 44.230469 14.394531 44.246094 C 14.464844 44.257812 14.53125 44.265625 14.582031 44.25 C 14.757812 44.207031 14.851562 44.042969 15.003906 43.957031 C 15.058594 43.929688 15.109375 43.90625 15.152344 43.863281 C 15.226562 43.789062 15.191406 43.667969 15.1875 43.578125 C 15.183594 43.449219 15.1875 43.320312 15.195312 43.195312 Z M 15.195312 43.195312 "/>
<path style=" stroke:none;fill-rule:nonzero;fill:rgb(92.156863%,75.686275%,49.019608%);fill-opacity:1;" d="M 14.1875 43.21875 C 14.15625 43.1875 14.113281 43.171875 14.070312 43.179688 C 14.023438 43.191406 13.988281 43.234375 13.976562 43.277344 C 13.953125 43.363281 13.984375 43.472656 14.015625 43.550781 C 14.023438 43.574219 14.039062 43.597656 14.054688 43.617188 C 14.105469 43.660156 14.164062 43.628906 14.191406 43.578125 C 14.246094 43.472656 14.285156 43.320312 14.1875 43.21875 Z M 14.1875 43.21875 "/>
<path style=" stroke:none;fill-rule:nonzero;fill:rgb(92.156863%,75.686275%,49.019608%);fill-opacity:1;" d="M 13.832031 43.25 C 13.78125 43.246094 13.734375 43.28125 13.710938 43.324219 C 13.6875 43.367188 13.683594 43.417969 13.6875 43.46875 C 13.691406 43.515625 13.699219 43.566406 13.726562 43.605469 C 13.757812 43.644531 13.8125 43.664062 13.855469 43.640625 C 13.917969 43.601562 13.949219 43.519531 13.949219 43.445312 C 13.949219 43.375 13.902344 43.257812 13.832031 43.25 Z M 13.832031 43.25 "/>
<path style=" stroke:none;fill-rule:nonzero;fill:rgb(92.156863%,75.686275%,49.019608%);fill-opacity:1;" d="M 13.648438 43.34375 C 13.632812 43.308594 13.597656 43.277344 13.558594 43.277344 C 13.523438 43.28125 13.492188 43.3125 13.476562 43.34375 C 13.4375 43.40625 13.425781 43.476562 13.433594 43.546875 C 13.441406 43.59375 13.460938 43.640625 13.503906 43.652344 C 13.542969 43.667969 13.59375 43.644531 13.621094 43.605469 C 13.664062 43.539062 13.679688 43.417969 13.648438 43.34375 Z M 13.648438 43.34375 "/>
<path style=" stroke:none;fill-rule:nonzero;fill:rgb(92.156863%,75.686275%,49.019608%);fill-opacity:1;" d="M 14.308594 43.21875 C 14.335938 43.1875 14.382812 43.171875 14.425781 43.179688 C 14.46875 43.191406 14.503906 43.234375 14.515625 43.277344 C 14.539062 43.363281 14.515625 43.472656 14.480469 43.550781 C 14.46875 43.574219 14.457031 43.597656 14.4375 43.617188 C 14.390625 43.660156 14.328125 43.628906 14.304688 43.578125 C 14.246094 43.472656 14.210938 43.320312 14.308594 43.21875 Z M 14.308594 43.21875 "/>
<path style=" stroke:none;fill-rule:nonzero;fill:rgb(92.156863%,75.686275%,49.019608%);fill-opacity:1;" d="M 14.664062 43.25 C 14.714844 43.246094 14.761719 43.28125 14.785156 43.324219 C 14.804688 43.367188 14.808594 43.417969 14.804688 43.46875 C 14.804688 43.515625 14.796875 43.566406 14.769531 43.605469 C 14.738281 43.644531 14.683594 43.664062 14.640625 43.640625 C 14.578125 43.601562 14.546875 43.519531 14.546875 43.445312 C 14.546875 43.375 14.589844 43.257812 14.664062 43.25 Z M 14.664062 43.25 "/>
<path style=" stroke:none;fill-rule:nonzero;fill:rgb(92.156863%,75.686275%,49.019608%);fill-opacity:1;" d="M 14.84375 43.34375 C 14.859375 43.308594 14.894531 43.277344 14.9375 43.277344 C 14.972656 43.28125 15 43.3125 15.019531 43.34375 C 15.058594 43.40625 15.070312 43.476562 15.058594 43.546875 C 15.054688 43.59375 15.035156 43.640625 14.992188 43.652344 C 14.949219 43.667969 14.902344 43.644531 14.875 43.605469 C 14.828125 43.539062 14.8125 43.417969 14.84375 43.34375 Z M 14.84375 43.34375 "/>
<path style=" stroke:none;fill-rule:nonzero;fill:rgb(92.156863%,75.686275%,49.019608%);fill-opacity:1;" d="M 13.59375 43.777344 C 13.585938 43.804688 13.585938 43.835938 13.59375 43.863281 C 13.601562 43.890625 13.613281 43.917969 13.632812 43.933594 C 13.65625 43.949219 13.6875 43.957031 13.71875 43.957031 C 13.800781 43.949219 13.84375 43.84375 13.800781 43.777344 C 13.753906 43.703125 13.625 43.679688 13.59375 43.777344 Z M 13.59375 43.777344 "/>
<path style=" stroke:none;fill-rule:nonzero;fill:rgb(92.156863%,75.686275%,49.019608%);fill-opacity:1;" d="M 13.863281 43.765625 C 13.851562 43.800781 13.851562 43.839844 13.855469 43.878906 C 13.859375 43.917969 13.867188 43.957031 13.882812 43.988281 C 13.902344 44.019531 13.941406 44.042969 13.980469 44.039062 C 14.027344 44.03125 14.058594 43.984375 14.070312 43.9375 C 14.089844 43.871094 14.09375 43.75 14.039062 43.691406 C 13.976562 43.625 13.882812 43.695312 13.863281 43.765625 Z M 13.863281 43.765625 "/>
<path style=" stroke:none;fill-rule:nonzero;fill:rgb(92.156863%,75.686275%,49.019608%);fill-opacity:1;" d="M 14.945312 43.777344 C 14.953125 43.804688 14.953125 43.835938 14.945312 43.863281 C 14.9375 43.890625 14.925781 43.917969 14.90625 43.933594 C 14.882812 43.949219 14.851562 43.957031 14.820312 43.957031 C 14.738281 43.949219 14.695312 43.84375 14.738281 43.777344 C 14.785156 43.703125 14.914062 43.679688 14.945312 43.777344 Z M 14.945312 43.777344 "/>
<path style=" stroke:none;fill-rule:nonzero;fill:rgb(92.156863%,75.686275%,49.019608%);fill-opacity:1;" d="M 14.679688 43.765625 C 14.6875 43.800781 14.6875 43.839844 14.683594 43.878906 C 14.683594 43.917969 14.675781 43.957031 14.65625 43.988281 C 14.636719 44.019531 14.597656 44.042969 14.5625 44.039062 C 14.515625 44.03125 14.480469 43.984375 14.46875 43.9375 C 14.449219 43.871094 14.445312 43.75 14.5 43.691406 C 14.5625 43.625 14.660156 43.695312 14.679688 43.765625 Z M 14.679688 43.765625 "/>
<path style=" stroke:none;fill-rule:nonzero;fill:rgb(92.156863%,75.686275%,49.019608%);fill-opacity:1;" d="M 14.269531 44.046875 C 14.226562 44.046875 14.183594 44.015625 14.15625 43.980469 C 14.152344 43.972656 14.144531 43.960938 14.140625 43.949219 C 14.113281 43.886719 14.113281 43.800781 14.148438 43.738281 C 14.160156 43.71875 14.175781 43.703125 14.195312 43.6875 C 14.226562 43.664062 14.265625 43.648438 14.304688 43.660156 C 14.34375 43.667969 14.375 43.703125 14.394531 43.738281 C 14.429688 43.796875 14.429688 43.882812 14.402344 43.945312 C 14.382812 43.988281 14.34375 44.03125 14.292969 44.042969 C 14.289062 44.042969 14.28125 44.042969 14.273438 44.042969 Z M 14.269531 44.046875 "/>
<path style=" stroke:none;fill-rule:nonzero;fill:rgb(92.156863%,75.686275%,49.019608%);fill-opacity:1;" d="M 12.132812 42.976562 C 12.050781 42.871094 12.0625 42.710938 12.144531 42.605469 C 12.226562 42.5 12.363281 42.445312 12.496094 42.445312 C 12.574219 42.445312 12.65625 42.464844 12.71875 42.507812 C 12.832031 42.582031 12.878906 42.722656 12.917969 42.851562 C 12.949219 42.957031 12.984375 43.058594 12.992188 43.167969 C 13 43.277344 12.984375 43.386719 12.921875 43.476562 C 12.859375 43.570312 12.730469 43.632812 12.632812 43.578125 C 12.484375 43.496094 12.558594 43.320312 12.472656 43.214844 C 12.382812 43.105469 12.226562 43.085938 12.136719 42.976562 Z M 12.132812 42.976562 "/>
<path style=" stroke:none;fill-rule:nonzero;fill:rgb(77.254902%,55.294118%,22.745098%);fill-opacity:1;" d="M 12.714844 42.800781 C 12.714844 42.933594 12.605469 43.042969 12.472656 43.042969 C 12.339844 43.042969 12.230469 42.933594 12.230469 42.800781 C 12.230469 42.664062 12.339844 42.558594 12.472656 42.558594 C 12.605469 42.558594 12.714844 42.664062 12.714844 42.800781 Z M 12.714844 42.800781 "/>
<path style=" stroke:none;fill-rule:nonzero;fill:rgb(92.156863%,75.686275%,49.019608%);fill-opacity:1;" d="M 16.378906 42.976562 C 16.464844 42.871094 16.453125 42.710938 16.371094 42.605469 C 16.289062 42.5 16.152344 42.445312 16.015625 42.445312 C 15.9375 42.445312 15.859375 42.464844 15.792969 42.507812 C 15.683594 42.582031 15.636719 42.722656 15.59375 42.851562 C 15.5625 42.957031 15.53125 43.058594 15.519531 43.167969 C 15.511719 43.277344 15.53125 43.386719 15.589844 43.476562 C 15.652344 43.570312 15.785156 43.632812 15.882812 43.578125 C 16.027344 43.496094 15.953125 43.320312 16.042969 43.214844 C 16.132812 43.105469 16.289062 43.085938 16.378906 42.976562 Z M 16.378906 42.976562 "/>
<path style=" stroke:none;fill-rule:nonzero;fill:rgb(77.254902%,55.294118%,22.745098%);fill-opacity:1;" d="M 16.285156 42.800781 C 16.285156 42.933594 16.175781 43.042969 16.042969 43.042969 C 15.90625 43.042969 15.800781 42.933594 15.800781 42.800781 C 15.800781 42.664062 15.90625 42.558594 16.042969 42.558594 C 16.175781 42.558594 16.285156 42.664062 16.285156 42.800781 Z M 16.285156 42.800781 "/>
<path style=" stroke:none;fill-rule:nonzero;fill:rgb(92.156863%,75.686275%,49.019608%);fill-opacity:1;" d="M 14.070312 45.1875 C 14.109375 45.246094 14.1875 45.269531 14.253906 45.246094 C 14.394531 45.199219 14.414062 44.964844 14.269531 44.914062 C 14.125 44.859375 13.992188 45.070312 14.070312 45.1875 Z M 14.070312 45.1875 "/>
<path style=" stroke:none;fill-rule:nonzero;fill:rgb(92.156863%,75.686275%,49.019608%);fill-opacity:1;" d="M 13.078125 44.78125 C 13.046875 44.824219 13.046875 44.882812 13.054688 44.9375 C 13.066406 44.988281 13.082031 45.035156 13.117188 45.070312 C 13.164062 45.121094 13.246094 45.128906 13.308594 45.097656 C 13.375 45.066406 13.414062 44.996094 13.414062 44.925781 C 13.417969 44.757812 13.203125 44.617188 13.078125 44.78125 Z M 13.078125 44.78125 "/>
<path style=" stroke:none;fill-rule:nonzero;fill:rgb(92.156863%,75.686275%,49.019608%);fill-opacity:1;" d="M 13.628906 44.902344 C 13.585938 44.878906 13.527344 44.894531 13.503906 44.933594 C 13.476562 44.972656 13.492188 45.035156 13.53125 45.058594 C 13.574219 45.082031 13.632812 45.070312 13.65625 45.03125 C 13.679688 44.988281 13.671875 44.933594 13.632812 44.902344 "/>
<path style=" stroke:none;fill-rule:nonzero;fill:rgb(92.156863%,75.686275%,49.019608%);fill-opacity:1;" d="M 13.84375 45.195312 C 14 45.21875 14.027344 44.949219 13.878906 44.929688 C 13.726562 44.910156 13.695312 45.171875 13.84375 45.195312 Z M 13.84375 45.195312 "/>
<path style=" stroke:none;fill-rule:nonzero;fill:rgb(92.156863%,75.686275%,49.019608%);fill-opacity:1;" d="M 15.316406 44.78125 C 15.347656 44.824219 15.347656 44.882812 15.339844 44.9375 C 15.332031 44.988281 15.3125 45.035156 15.28125 45.070312 C 15.230469 45.121094 15.148438 45.128906 15.085938 45.097656 C 15.023438 45.066406 14.980469 44.996094 14.980469 44.925781 C 14.976562 44.757812 15.195312 44.617188 15.316406 44.78125 Z M 15.316406 44.78125 "/>
<path style=" stroke:none;fill-rule:nonzero;fill:rgb(92.156863%,75.686275%,49.019608%);fill-opacity:1;" d="M 14.769531 44.902344 C 14.808594 44.878906 14.867188 44.894531 14.890625 44.933594 C 14.917969 44.972656 14.902344 45.035156 14.863281 45.058594 C 14.820312 45.082031 14.761719 45.070312 14.738281 45.03125 C 14.714844 44.988281 14.722656 44.933594 14.761719 44.902344 "/>
<path style=" stroke:none;fill-rule:nonzero;fill:rgb(92.156863%,75.686275%,49.019608%);fill-opacity:1;" d="M 14.550781 45.195312 C 14.394531 45.21875 14.367188 44.949219 14.515625 44.929688 C 14.667969 44.910156 14.699219 45.171875 14.550781 45.195312 Z M 14.550781 45.195312 "/>
<path style="fill:none;stroke-width:4;stroke-linecap:round;stroke-linejoin:miter;stroke:rgb(92.156863%,75.686275%,49.019608%);stroke-opacity:1;stroke-miterlimit:10;" d="M 80.911225 208.099086 L 80.911225 216.250454 " transform="matrix(0.175202,0,0,0.175392,0,0.00882723)"/>
</g>
</svg>
