<?xml version="1.0" encoding="UTF-8"?>
<svg xmlns="http://www.w3.org/2000/svg" xmlns:xlink="http://www.w3.org/1999/xlink" width="48px" height="px" viewBox="0 0 48 54" version="1.1">
<defs>
<filter id="alpha" filterUnits="objectBoundingBox" x="0%" y="0%" width="100%" height="100%">
  <feColorMatrix type="matrix" in="SourceGraphic" values="0 0 0 0 1 0 0 0 0 1 0 0 0 0 1 0 0 0 1 0"/>
</filter>
<mask id="mask0">
  <g filter="url(#alpha)">
<rect x="0" y="0" width="48" height="54" style="fill:rgb(0%,0%,0%);fill-opacity:0.180392;stroke:none;"/>
  </g>
</mask>
<clipPath id="clip1">
  <rect x="0" y="0" width="48" height="55"/>
</clipPath>
<g id="surface5" clip-path="url(#clip1)">
<path style=" stroke:none;fill-rule:nonzero;fill:rgb(0%,0%,0%);fill-opacity:1;" d="M 14.589844 51.015625 C 16.046875 52.101562 17.632812 53.082031 19.421875 53.976562 C 19.140625 53.835938 25.777344 47.519531 26.394531 46.8125 C 29.394531 43.378906 32.019531 39.625 34.214844 35.644531 C 36.414062 31.664062 38.1875 27.460938 39.492188 23.117188 C 40.148438 20.945312 40.683594 18.742188 41.097656 16.515625 C 41.332031 15.265625 41.167969 10.941406 41.945312 10.105469 C 37.488281 14.902344 34.394531 20.746094 30.625 26.082031 C 26.851562 31.421875 22.070312 36.476562 15.78125 38.488281 C 13.734375 39.140625 11.574219 39.445312 9.425781 39.394531 C 8.515625 39.375 6.9375 38.8125 6.140625 39.457031 C 4.710938 40.617188 6.273438 42.398438 7.042969 43.378906 C 9.40625 46.394531 11.75 48.902344 14.589844 51.015625 Z M 14.589844 51.015625 "/>
</g>
<mask id="mask1">
  <g filter="url(#alpha)">
<rect x="0" y="0" width="48" height="54" style="fill:rgb(0%,0%,0%);fill-opacity:0.180392;stroke:none;"/>
  </g>
</mask>
<clipPath id="clip2">
  <rect x="0" y="0" width="48" height="55"/>
</clipPath>
<g id="surface8" clip-path="url(#clip2)">
<path style=" stroke:none;fill-rule:nonzero;fill:rgb(0%,0%,0%);fill-opacity:1;" d="M 40.242188 8.570312 C 41.585938 9.089844 43.144531 9.171875 44.550781 8.796875 C 44.738281 8.746094 44.933594 8.683594 45.058594 8.550781 C 45.183594 8.417969 45.214844 8.203125 45.066406 8.085938 C 44.953125 7.996094 44.777344 8 44.621094 8.007812 C 43.6875 8.066406 42.753906 8.152344 41.824219 8.261719 C 41.453125 8.304688 40.789062 8.515625 40.433594 8.445312 C 40.136719 8.382812 40.179688 8.128906 40.132812 7.859375 C 40.046875 7.347656 40.066406 6.824219 40.1875 6.320312 C 40.328125 5.746094 40.605469 5.191406 41.007812 4.71875 C 41.042969 4.679688 41.082031 4.636719 41.136719 4.621094 C 41.285156 4.582031 41.382812 4.75 41.414062 4.878906 C 41.640625 5.925781 41.433594 7.035156 40.863281 7.976562 C 40.796875 8.082031 40.542969 8.589844 40.363281 8.550781 C 40.332031 8.542969 40.304688 8.511719 40.277344 8.464844 "/>
</g>
<mask id="mask2">
  <g filter="url(#alpha)">
<rect x="0" y="0" width="48" height="54" style="fill:rgb(0%,0%,0%);fill-opacity:0.180392;stroke:none;"/>
  </g>
</mask>
<clipPath id="clip3">
  <rect x="0" y="0" width="48" height="55"/>
</clipPath>
<g id="surface11" clip-path="url(#clip3)">
<path style=" stroke:none;fill-rule:nonzero;fill:rgb(0%,0%,0%);fill-opacity:1;" d="M 14.480469 35.839844 C 19.261719 36.667969 23.996094 32.832031 27.65625 30.269531 C 27.613281 31.382812 27.054688 32.40625 26.503906 33.382812 C 25.15625 35.777344 23.808594 38.171875 22.464844 40.566406 C 21.527344 42.230469 20.441406 45.195312 18.046875 45.160156 C 16.0625 45.132812 13.695312 43.238281 11.203125 41.433594 C 8.984375 39.828125 6.945312 37.964844 5.5625 35.59375 C 4.976562 34.582031 4.683594 33.546875 4.277344 32.457031 C 4.195312 32.246094 3.945312 31.550781 3.84375 30.921875 C 3.785156 30.550781 4.296875 30.265625 4.523438 30.570312 C 7.589844 34.726562 10.644531 37.28125 14.839844 39.722656 C 14.957031 39.789062 15.050781 39.882812 15.175781 39.925781 C 15.75 40.109375 15.976562 39.582031 15.855469 39.199219 C 15.769531 38.929688 15.558594 38.722656 15.355469 38.523438 L 12.390625 35.652344 C 12.285156 35.546875 12.390625 35.371094 12.535156 35.414062 C 13.183594 35.609375 14.019531 35.757812 14.484375 35.839844 Z M 14.480469 35.839844 "/>
</g>
<mask id="mask3">
  <g filter="url(#alpha)">
<rect x="0" y="0" width="48" height="54" style="fill:rgb(0%,0%,0%);fill-opacity:0.180392;stroke:none;"/>
  </g>
</mask>
<clipPath id="clip4">
  <rect x="0" y="0" width="48" height="55"/>
</clipPath>
<g id="surface14" clip-path="url(#clip4)">
<path style=" stroke:none;fill-rule:nonzero;fill:rgb(0%,0%,0%);fill-opacity:1;" d="M 14.195312 31.023438 C 13.878906 31.101562 13.542969 31.183594 13.3125 31.40625 C 13.078125 31.632812 13.007812 32.054688 13.257812 32.261719 C 13.414062 32.394531 13.644531 32.398438 13.855469 32.394531 C 22.308594 32.199219 30.351562 26.488281 33.203125 18.664062 C 32.710938 20.007812 30.097656 21.773438 29.007812 22.792969 C 27.917969 23.8125 26.703125 24.789062 25.484375 25.695312 C 22.132812 28.1875 18.273438 30.019531 14.195312 31.019531 Z M 14.195312 31.023438 "/>
</g>
<mask id="mask4">
  <g filter="url(#alpha)">
<rect x="0" y="0" width="48" height="54" style="fill:rgb(0%,0%,0%);fill-opacity:0.180392;stroke:none;"/>
  </g>
</mask>
<clipPath id="clip5">
  <rect x="0" y="0" width="48" height="55"/>
</clipPath>
<g id="surface17" clip-path="url(#clip5)">
<path style=" stroke:none;fill-rule:nonzero;fill:rgb(0%,0%,0%);fill-opacity:1;" d="M 29.832031 27.339844 C 31.625 25.488281 33.421875 23.636719 35.21875 21.789062 C 32.882812 26.445312 30.550781 31.101562 28.21875 35.761719 C 28.710938 34.785156 29.914062 33.839844 30.597656 32.960938 C 31.351562 31.992188 32.0625 30.996094 32.730469 29.972656 C 34.066406 27.921875 35.230469 25.765625 36.214844 23.53125 C 37.988281 19.484375 40.199219 13.792969 39.722656 9.320312 C 38.695312 9.964844 37.90625 12.355469 37.300781 13.484375 L 34.808594 18.101562 C 33.148438 21.183594 31.492188 24.261719 29.832031 27.339844 Z M 29.832031 27.339844 "/>
</g>
</defs>
<g id="surface1">
<use xlink:href="#surface5" mask="url(#mask0)"/>
<path style=" stroke:none;fill-rule:nonzero;fill:rgb(100%,33.333333%,36.862745%);fill-opacity:1;" d="M 39.453125 7.78125 C 38.929688 6.738281 39.363281 5.539062 39.804688 4.46875 C 40.410156 2.988281 41.019531 1.503906 41.625 0.0234375 C 43.574219 2.148438 43.792969 5.351562 42.152344 7.664062 C 44.125 7.261719 46.011719 6.539062 47.679688 5.539062 C 48.285156 6.671875 48.011719 8.117188 47.027344 9.027344 C 46.042969 9.9375 43.9375 10.515625 42.671875 9.921875 C 41.3125 9.277344 40.019531 8.914062 39.453125 7.78125 Z M 39.453125 7.78125 "/>
<use xlink:href="#surface8" mask="url(#mask1)"/>
<path style=" stroke:none;fill-rule:nonzero;fill:rgb(100%,33.333333%,36.862745%);fill-opacity:1;" d="M 4.839844 28.4375 C 11.867188 30.34375 19.523438 27.621094 25.175781 23.089844 C 30.828125 18.554688 34.851562 12.40625 38.777344 6.363281 C 40.136719 6.832031 41.183594 7.90625 42.359375 8.707031 C 42.359375 11.628906 41.546875 13.730469 40.6875 16.222656 C 38.429688 22.890625 35.339844 29.398438 31.683594 35.429688 C 29.828125 38.492188 27.785156 41.445312 25.539062 44.242188 C 23.449219 46.84375 20.921875 48.882812 18.53125 51.222656 C 13.078125 47.320312 7.171875 43.59375 3.285156 38.039062 C 1.207031 35.074219 -1.277344 28.703125 0.753906 25.113281 C 1.816406 26.773438 2.898438 27.910156 4.835938 28.4375 Z M 4.839844 28.4375 "/>
<use xlink:href="#surface11" mask="url(#mask2)"/>
<use xlink:href="#surface14" mask="url(#mask3)"/>
<use xlink:href="#surface17" mask="url(#mask4)"/>
</g>
</svg>
