<?xml version="1.0" encoding="UTF-8"?>
<svg xmlns="http://www.w3.org/2000/svg" xmlns:xlink="http://www.w3.org/1999/xlink" width="48px" height="px" viewBox="0 0 48 43" version="1.1">
<defs>
<filter id="alpha" filterUnits="objectBoundingBox" x="0%" y="0%" width="100%" height="100%">
  <feColorMatrix type="matrix" in="SourceGraphic" values="0 0 0 0 1 0 0 0 0 1 0 0 0 0 1 0 0 0 1 0"/>
</filter>
<mask id="mask0">
  <g filter="url(#alpha)">
<rect x="0" y="0" width="48" height="43" style="fill:rgb(0%,0%,0%);fill-opacity:0.301961;stroke:none;"/>
  </g>
</mask>
<clipPath id="clip2">
  <rect x="0" y="0" width="7" height="7"/>
</clipPath>
<g id="surface6" clip-path="url(#clip2)">
<path style=" stroke:none;fill-rule:nonzero;fill:rgb(100%,100%,100%);fill-opacity:1;" d="M 3.5 7.699219 C 3.886719 7.699219 4.199219 7.386719 4.199219 7 C 4.199219 6.613281 3.886719 6.300781 3.5 6.300781 C 3.113281 6.300781 2.800781 6.613281 2.800781 7 C 2.800781 7.386719 3.113281 7.699219 3.5 7.699219 Z M 3.5 7.699219 "/>
<path style=" stroke:none;fill-rule:nonzero;fill:rgb(100%,100%,100%);fill-opacity:1;" d="M 7 7.699219 C 7.386719 7.699219 7.699219 7.386719 7.699219 7 C 7.699219 6.613281 7.386719 6.300781 7 6.300781 C 6.613281 6.300781 6.300781 6.613281 6.300781 7 C 6.300781 7.386719 6.613281 7.699219 7 7.699219 Z M 7 7.699219 "/>
<path style=" stroke:none;fill-rule:nonzero;fill:rgb(100%,100%,100%);fill-opacity:1;" d="M 3.5 4.199219 C 3.886719 4.199219 4.199219 3.886719 4.199219 3.5 C 4.199219 3.113281 3.886719 2.800781 3.5 2.800781 C 3.113281 2.800781 2.800781 3.113281 2.800781 3.5 C 2.800781 3.886719 3.113281 4.199219 3.5 4.199219 Z M 3.5 4.199219 "/>
<path style=" stroke:none;fill-rule:nonzero;fill:rgb(100%,100%,100%);fill-opacity:1;" d="M 7 4.199219 C 7.386719 4.199219 7.699219 3.886719 7.699219 3.5 C 7.699219 3.113281 7.386719 2.800781 7 2.800781 C 6.613281 2.800781 6.300781 3.113281 6.300781 3.5 C 6.300781 3.886719 6.613281 4.199219 7 4.199219 Z M 7 4.199219 "/>
<path style=" stroke:none;fill-rule:nonzero;fill:rgb(100%,100%,100%);fill-opacity:1;" d="M 5.25 5.949219 C 5.636719 5.949219 5.949219 5.636719 5.949219 5.25 C 5.949219 4.863281 5.636719 4.550781 5.25 4.550781 C 4.863281 4.550781 4.550781 4.863281 4.550781 5.25 C 4.550781 5.636719 4.863281 5.949219 5.25 5.949219 Z M 5.25 5.949219 "/>
<path style=" stroke:none;fill-rule:nonzero;fill:rgb(100%,100%,100%);fill-opacity:1;" d="M 1.75 5.949219 C 2.136719 5.949219 2.449219 5.636719 2.449219 5.25 C 2.449219 4.863281 2.136719 4.550781 1.75 4.550781 C 1.363281 4.550781 1.050781 4.863281 1.050781 5.25 C 1.050781 5.636719 1.363281 5.949219 1.75 5.949219 Z M 1.75 5.949219 "/>
<path style=" stroke:none;fill-rule:nonzero;fill:rgb(100%,100%,100%);fill-opacity:1;" d="M 5.25 2.449219 C 5.636719 2.449219 5.949219 2.136719 5.949219 1.75 C 5.949219 1.363281 5.636719 1.050781 5.25 1.050781 C 4.863281 1.050781 4.550781 1.363281 4.550781 1.75 C 4.550781 2.136719 4.863281 2.449219 5.25 2.449219 Z M 5.25 2.449219 "/>
<path style=" stroke:none;fill-rule:nonzero;fill:rgb(100%,100%,100%);fill-opacity:1;" d="M 1.75 2.449219 C 2.136719 2.449219 2.449219 2.136719 2.449219 1.75 C 2.449219 1.363281 2.136719 1.050781 1.75 1.050781 C 1.363281 1.050781 1.050781 1.363281 1.050781 1.75 C 1.050781 2.136719 1.363281 2.449219 1.75 2.449219 Z M 1.75 2.449219 "/>
<path style=" stroke:none;fill-rule:nonzero;fill:rgb(100%,100%,100%);fill-opacity:1;" d="M 0 7.699219 C 0.386719 7.699219 0.699219 7.386719 0.699219 7 C 0.699219 6.613281 0.386719 6.300781 0 6.300781 C -0.386719 6.300781 -0.699219 6.613281 -0.699219 7 C -0.699219 7.386719 -0.386719 7.699219 0 7.699219 Z M 0 7.699219 "/>
<path style=" stroke:none;fill-rule:nonzero;fill:rgb(100%,100%,100%);fill-opacity:1;" d="M 0 4.199219 C 0.386719 4.199219 0.699219 3.886719 0.699219 3.5 C 0.699219 3.113281 0.386719 2.800781 0 2.800781 C -0.386719 2.800781 -0.699219 3.113281 -0.699219 3.5 C -0.699219 3.886719 -0.386719 4.199219 0 4.199219 Z M 0 4.199219 "/>
<path style=" stroke:none;fill-rule:nonzero;fill:rgb(100%,100%,100%);fill-opacity:1;" d="M 3.5 0.699219 C 3.886719 0.699219 4.199219 0.386719 4.199219 0 C 4.199219 -0.386719 3.886719 -0.699219 3.5 -0.699219 C 3.113281 -0.699219 2.800781 -0.386719 2.800781 0 C 2.800781 0.386719 3.113281 0.699219 3.5 0.699219 Z M 3.5 0.699219 "/>
<path style=" stroke:none;fill-rule:nonzero;fill:rgb(100%,100%,100%);fill-opacity:1;" d="M 7 0.699219 C 7.386719 0.699219 7.699219 0.386719 7.699219 0 C 7.699219 -0.386719 7.386719 -0.699219 7 -0.699219 C 6.613281 -0.699219 6.300781 -0.386719 6.300781 0 C 6.300781 0.386719 6.613281 0.699219 7 0.699219 Z M 7 0.699219 "/>
<path style=" stroke:none;fill-rule:nonzero;fill:rgb(100%,100%,100%);fill-opacity:1;" d="M 0 0.699219 C 0.386719 0.699219 0.699219 0.386719 0.699219 0 C 0.699219 -0.386719 0.386719 -0.699219 0 -0.699219 C -0.386719 -0.699219 -0.699219 -0.386719 -0.699219 0 C -0.699219 0.386719 -0.386719 0.699219 0 0.699219 Z M 0 0.699219 "/>
</g>
<pattern id="pattern0" patternUnits="userSpaceOnUse" width="7" height="7" patternTransform="matrix(1.075661,0,0,1.077769,-11.323514,-30.300285)">
<use xlink:href="#surface6"/>
</pattern>
<clipPath id="clip1">
  <rect x="0" y="0" width="48" height="43"/>
</clipPath>
<g id="surface7" clip-path="url(#clip1)">
<path style=" stroke:none;fill-rule:nonzero;fill:url(#pattern0);" d="M 47.902344 3.164062 C 47.761719 2.835938 47.4375 2.617188 47.105469 2.496094 C 46.769531 2.375 46.410156 2.332031 46.066406 2.246094 C 45.386719 2.074219 44.753906 1.730469 44.242188 1.253906 C 43.847656 0.886719 43.515625 0.4375 43.042969 0.183594 C 42.472656 -0.121094 42.050781 -0.0117188 41.71875 0.285156 C 41.019531 0.910156 40.796875 1.960938 40.46875 2.796875 C 40.085938 3.777344 39.671875 4.742188 39.21875 5.691406 C 38.300781 7.640625 37.242188 9.519531 36.0625 11.316406 C 34.71875 13.363281 33.210938 15.304688 31.558594 17.117188 C 28.007812 18.609375 23.292969 19.460938 15.746094 20.441406 C 11.539062 20.988281 6.550781 20.617188 2.320312 20.277344 C 1.828125 20.238281 1.316406 20.195312 0.855469 20.367188 C 0.390625 20.539062 -0.0078125 20.988281 0.0546875 21.480469 C 0.105469 21.859375 0.398438 22.148438 0.613281 22.460938 C 1.328125 23.527344 1.128906 24.929688 1.246094 26.210938 C 1.484375 28.8125 3.527344 29.355469 5.710938 29.085938 C 12.742188 28.230469 19.914062 26.734375 26.148438 23.230469 C 26.769531 22.878906 27.382812 22.5 27.976562 22.097656 C 28.945312 21.441406 29.863281 20.710938 30.703125 19.910156 C 31.765625 19.480469 32.800781 18.992188 33.8125 18.449219 C 35.832031 17.367188 37.734375 16.0625 39.484375 14.578125 C 41.230469 13.089844 42.824219 11.417969 44.21875 9.597656 C 45.488281 7.945312 47.070312 5.871094 47.8125 3.929688 C 47.910156 3.671875 48.023438 3.441406 47.902344 3.164062 Z M 47.902344 3.164062 "/>
</g>
<mask id="mask1">
  <g filter="url(#alpha)">
<rect x="0" y="0" width="48" height="43" style="fill:rgb(0%,0%,0%);fill-opacity:0.121569;stroke:none;"/>
  </g>
</mask>
<clipPath id="clip3">
  <rect x="0" y="0" width="48" height="43"/>
</clipPath>
<g id="surface11" clip-path="url(#clip3)">
<path style=" stroke:none;fill-rule:nonzero;fill:rgb(0%,0%,0%);fill-opacity:1;" d="M 35.210938 14.921875 C 36.804688 13.65625 37.863281 11.679688 39.734375 10.886719 C 39.867188 11.097656 39.867188 11.371094 39.785156 11.605469 C 39.707031 11.839844 39.558594 12.042969 39.410156 12.242188 C 38.695312 13.179688 37.894531 14.054688 37.023438 14.851562 C 36.539062 15.296875 36.019531 15.726562 35.664062 16.285156 C 35.3125 16.84375 35.144531 17.570312 35.421875 18.171875 C 35.207031 18.363281 34.871094 18.359375 34.609375 18.238281 C 34.347656 18.117188 34.144531 17.902344 33.949219 17.6875 C 33.460938 17.15625 32.789062 16.4375 32.847656 15.65625 C 32.851562 15.582031 32.871094 15.503906 32.929688 15.460938 C 32.972656 15.429688 33.027344 15.425781 33.082031 15.417969 C 33.875 15.367188 34.570312 15.429688 35.210938 14.917969 Z M 35.210938 14.921875 "/>
</g>
<mask id="mask2">
  <g filter="url(#alpha)">
<rect x="0" y="0" width="48" height="43" style="fill:rgb(0%,0%,0%);fill-opacity:0.301961;stroke:none;"/>
  </g>
</mask>
<clipPath id="clip5">
  <rect x="0" y="0" width="7" height="7"/>
</clipPath>
<g id="surface15" clip-path="url(#clip5)">
<path style=" stroke:none;fill-rule:nonzero;fill:rgb(100%,100%,100%);fill-opacity:1;" d="M 3.5 7.699219 C 3.886719 7.699219 4.199219 7.386719 4.199219 7 C 4.199219 6.613281 3.886719 6.300781 3.5 6.300781 C 3.113281 6.300781 2.800781 6.613281 2.800781 7 C 2.800781 7.386719 3.113281 7.699219 3.5 7.699219 Z M 3.5 7.699219 "/>
<path style=" stroke:none;fill-rule:nonzero;fill:rgb(100%,100%,100%);fill-opacity:1;" d="M 7 7.699219 C 7.386719 7.699219 7.699219 7.386719 7.699219 7 C 7.699219 6.613281 7.386719 6.300781 7 6.300781 C 6.613281 6.300781 6.300781 6.613281 6.300781 7 C 6.300781 7.386719 6.613281 7.699219 7 7.699219 Z M 7 7.699219 "/>
<path style=" stroke:none;fill-rule:nonzero;fill:rgb(100%,100%,100%);fill-opacity:1;" d="M 3.5 4.199219 C 3.886719 4.199219 4.199219 3.886719 4.199219 3.5 C 4.199219 3.113281 3.886719 2.800781 3.5 2.800781 C 3.113281 2.800781 2.800781 3.113281 2.800781 3.5 C 2.800781 3.886719 3.113281 4.199219 3.5 4.199219 Z M 3.5 4.199219 "/>
<path style=" stroke:none;fill-rule:nonzero;fill:rgb(100%,100%,100%);fill-opacity:1;" d="M 7 4.199219 C 7.386719 4.199219 7.699219 3.886719 7.699219 3.5 C 7.699219 3.113281 7.386719 2.800781 7 2.800781 C 6.613281 2.800781 6.300781 3.113281 6.300781 3.5 C 6.300781 3.886719 6.613281 4.199219 7 4.199219 Z M 7 4.199219 "/>
<path style=" stroke:none;fill-rule:nonzero;fill:rgb(100%,100%,100%);fill-opacity:1;" d="M 5.25 5.949219 C 5.636719 5.949219 5.949219 5.636719 5.949219 5.25 C 5.949219 4.863281 5.636719 4.550781 5.25 4.550781 C 4.863281 4.550781 4.550781 4.863281 4.550781 5.25 C 4.550781 5.636719 4.863281 5.949219 5.25 5.949219 Z M 5.25 5.949219 "/>
<path style=" stroke:none;fill-rule:nonzero;fill:rgb(100%,100%,100%);fill-opacity:1;" d="M 1.75 5.949219 C 2.136719 5.949219 2.449219 5.636719 2.449219 5.25 C 2.449219 4.863281 2.136719 4.550781 1.75 4.550781 C 1.363281 4.550781 1.050781 4.863281 1.050781 5.25 C 1.050781 5.636719 1.363281 5.949219 1.75 5.949219 Z M 1.75 5.949219 "/>
<path style=" stroke:none;fill-rule:nonzero;fill:rgb(100%,100%,100%);fill-opacity:1;" d="M 5.25 2.449219 C 5.636719 2.449219 5.949219 2.136719 5.949219 1.75 C 5.949219 1.363281 5.636719 1.050781 5.25 1.050781 C 4.863281 1.050781 4.550781 1.363281 4.550781 1.75 C 4.550781 2.136719 4.863281 2.449219 5.25 2.449219 Z M 5.25 2.449219 "/>
<path style=" stroke:none;fill-rule:nonzero;fill:rgb(100%,100%,100%);fill-opacity:1;" d="M 1.75 2.449219 C 2.136719 2.449219 2.449219 2.136719 2.449219 1.75 C 2.449219 1.363281 2.136719 1.050781 1.75 1.050781 C 1.363281 1.050781 1.050781 1.363281 1.050781 1.75 C 1.050781 2.136719 1.363281 2.449219 1.75 2.449219 Z M 1.75 2.449219 "/>
<path style=" stroke:none;fill-rule:nonzero;fill:rgb(100%,100%,100%);fill-opacity:1;" d="M 0 7.699219 C 0.386719 7.699219 0.699219 7.386719 0.699219 7 C 0.699219 6.613281 0.386719 6.300781 0 6.300781 C -0.386719 6.300781 -0.699219 6.613281 -0.699219 7 C -0.699219 7.386719 -0.386719 7.699219 0 7.699219 Z M 0 7.699219 "/>
<path style=" stroke:none;fill-rule:nonzero;fill:rgb(100%,100%,100%);fill-opacity:1;" d="M 0 4.199219 C 0.386719 4.199219 0.699219 3.886719 0.699219 3.5 C 0.699219 3.113281 0.386719 2.800781 0 2.800781 C -0.386719 2.800781 -0.699219 3.113281 -0.699219 3.5 C -0.699219 3.886719 -0.386719 4.199219 0 4.199219 Z M 0 4.199219 "/>
<path style=" stroke:none;fill-rule:nonzero;fill:rgb(100%,100%,100%);fill-opacity:1;" d="M 3.5 0.699219 C 3.886719 0.699219 4.199219 0.386719 4.199219 0 C 4.199219 -0.386719 3.886719 -0.699219 3.5 -0.699219 C 3.113281 -0.699219 2.800781 -0.386719 2.800781 0 C 2.800781 0.386719 3.113281 0.699219 3.5 0.699219 Z M 3.5 0.699219 "/>
<path style=" stroke:none;fill-rule:nonzero;fill:rgb(100%,100%,100%);fill-opacity:1;" d="M 7 0.699219 C 7.386719 0.699219 7.699219 0.386719 7.699219 0 C 7.699219 -0.386719 7.386719 -0.699219 7 -0.699219 C 6.613281 -0.699219 6.300781 -0.386719 6.300781 0 C 6.300781 0.386719 6.613281 0.699219 7 0.699219 Z M 7 0.699219 "/>
<path style=" stroke:none;fill-rule:nonzero;fill:rgb(100%,100%,100%);fill-opacity:1;" d="M 0 0.699219 C 0.386719 0.699219 0.699219 0.386719 0.699219 0 C 0.699219 -0.386719 0.386719 -0.699219 0 -0.699219 C -0.386719 -0.699219 -0.699219 -0.386719 -0.699219 0 C -0.699219 0.386719 -0.386719 0.699219 0 0.699219 Z M 0 0.699219 "/>
</g>
<pattern id="pattern1" patternUnits="userSpaceOnUse" width="7" height="7" patternTransform="matrix(1.075661,0,0,1.077769,-10.527226,-31.024786)">
<use xlink:href="#surface15"/>
</pattern>
<clipPath id="clip4">
  <rect x="0" y="0" width="48" height="43"/>
</clipPath>
<g id="surface16" clip-path="url(#clip4)">
<path style=" stroke:none;fill-rule:nonzero;fill:url(#pattern1);" d="M 40.707031 20.464844 C 41.78125 21.539062 42.640625 22.804688 43.117188 24.316406 C 43.667969 26.054688 43.757812 27.902344 43.882812 29.722656 C 44.011719 31.542969 44.1875 33.390625 44.902344 35.070312 C 42.589844 34.246094 40.800781 32.34375 39.53125 30.242188 C 38.261719 28.140625 37.429688 25.804688 36.421875 23.5625 C 35.933594 22.472656 35.234375 20.9375 34.058594 20.4375 C 33.226562 20.078125 31.835938 19.824219 32.53125 18.457031 C 33.722656 16.128906 36.585938 17.457031 38.210938 18.496094 C 39.113281 19.070312 39.964844 19.71875 40.707031 20.460938 Z M 40.707031 20.464844 "/>
</g>
<mask id="mask3">
  <g filter="url(#alpha)">
<rect x="0" y="0" width="48" height="43" style="fill:rgb(0%,0%,0%);fill-opacity:0.121569;stroke:none;"/>
  </g>
</mask>
<clipPath id="clip6">
  <rect x="0" y="0" width="48" height="43"/>
</clipPath>
<g id="surface20" clip-path="url(#clip6)">
<path style=" stroke:none;fill-rule:nonzero;fill:rgb(0%,0%,0%);fill-opacity:1;" d="M 25.207031 20.238281 C 24.648438 20.398438 24.089844 20.554688 23.527344 20.707031 C 21.929688 21.132812 20.3125 21.5 18.6875 21.816406 C 18.203125 21.910156 17.691406 22.011719 17.347656 22.363281 C 17.394531 22.320312 18.058594 22.472656 18.160156 22.480469 C 18.484375 22.503906 18.8125 22.507812 19.136719 22.480469 C 19.734375 22.441406 21.960938 22.257812 22.5 22.175781 C 23.203125 22.070312 23.90625 21.960938 24.609375 21.855469 C 24.703125 21.839844 24.824219 21.839844 24.863281 21.929688 C 24.90625 22.027344 24.792969 22.121094 24.699219 22.171875 C 23.824219 22.640625 22.953125 23.117188 22.082031 23.597656 C 21.984375 23.652344 21.878906 23.722656 21.875 23.832031 C 21.871094 23.921875 21.949219 24.003906 22.035156 24.03125 C 22.125 24.058594 22.214844 24.042969 22.304688 24.027344 C 22.96875 23.90625 23.492188 23.515625 24.097656 23.285156 C 24.875 22.992188 25.617188 22.578125 26.339844 22.179688 C 26.964844 21.832031 27.597656 21.332031 28.265625 21.097656 C 28.9375 20.867188 29.632812 20.671875 30.28125 20.324219 C 30.507812 20.203125 30.738281 20.050781 30.84375 19.816406 C 30.988281 19.480469 30.804688 19.070312 30.519531 18.84375 C 30.175781 18.570312 29.730469 18.410156 29.34375 18.570312 C 28.894531 18.753906 28.46875 19.125 28.027344 19.347656 C 27.398438 19.671875 26.597656 19.820312 25.917969 20.027344 C 25.679688 20.097656 25.445312 20.167969 25.207031 20.238281 Z M 25.207031 20.238281 "/>
</g>
<mask id="mask4">
  <g filter="url(#alpha)">
<rect x="0" y="0" width="48" height="43" style="fill:rgb(0%,0%,0%);fill-opacity:0.301961;stroke:none;"/>
  </g>
</mask>
<clipPath id="clip8">
  <rect x="0" y="0" width="7" height="7"/>
</clipPath>
<g id="surface24" clip-path="url(#clip8)">
<path style=" stroke:none;fill-rule:nonzero;fill:rgb(100%,100%,100%);fill-opacity:1;" d="M 3.5 7.699219 C 3.886719 7.699219 4.199219 7.386719 4.199219 7 C 4.199219 6.613281 3.886719 6.300781 3.5 6.300781 C 3.113281 6.300781 2.800781 6.613281 2.800781 7 C 2.800781 7.386719 3.113281 7.699219 3.5 7.699219 Z M 3.5 7.699219 "/>
<path style=" stroke:none;fill-rule:nonzero;fill:rgb(100%,100%,100%);fill-opacity:1;" d="M 7 7.699219 C 7.386719 7.699219 7.699219 7.386719 7.699219 7 C 7.699219 6.613281 7.386719 6.300781 7 6.300781 C 6.613281 6.300781 6.300781 6.613281 6.300781 7 C 6.300781 7.386719 6.613281 7.699219 7 7.699219 Z M 7 7.699219 "/>
<path style=" stroke:none;fill-rule:nonzero;fill:rgb(100%,100%,100%);fill-opacity:1;" d="M 3.5 4.199219 C 3.886719 4.199219 4.199219 3.886719 4.199219 3.5 C 4.199219 3.113281 3.886719 2.800781 3.5 2.800781 C 3.113281 2.800781 2.800781 3.113281 2.800781 3.5 C 2.800781 3.886719 3.113281 4.199219 3.5 4.199219 Z M 3.5 4.199219 "/>
<path style=" stroke:none;fill-rule:nonzero;fill:rgb(100%,100%,100%);fill-opacity:1;" d="M 7 4.199219 C 7.386719 4.199219 7.699219 3.886719 7.699219 3.5 C 7.699219 3.113281 7.386719 2.800781 7 2.800781 C 6.613281 2.800781 6.300781 3.113281 6.300781 3.5 C 6.300781 3.886719 6.613281 4.199219 7 4.199219 Z M 7 4.199219 "/>
<path style=" stroke:none;fill-rule:nonzero;fill:rgb(100%,100%,100%);fill-opacity:1;" d="M 5.25 5.949219 C 5.636719 5.949219 5.949219 5.636719 5.949219 5.25 C 5.949219 4.863281 5.636719 4.550781 5.25 4.550781 C 4.863281 4.550781 4.550781 4.863281 4.550781 5.25 C 4.550781 5.636719 4.863281 5.949219 5.25 5.949219 Z M 5.25 5.949219 "/>
<path style=" stroke:none;fill-rule:nonzero;fill:rgb(100%,100%,100%);fill-opacity:1;" d="M 1.75 5.949219 C 2.136719 5.949219 2.449219 5.636719 2.449219 5.25 C 2.449219 4.863281 2.136719 4.550781 1.75 4.550781 C 1.363281 4.550781 1.050781 4.863281 1.050781 5.25 C 1.050781 5.636719 1.363281 5.949219 1.75 5.949219 Z M 1.75 5.949219 "/>
<path style=" stroke:none;fill-rule:nonzero;fill:rgb(100%,100%,100%);fill-opacity:1;" d="M 5.25 2.449219 C 5.636719 2.449219 5.949219 2.136719 5.949219 1.75 C 5.949219 1.363281 5.636719 1.050781 5.25 1.050781 C 4.863281 1.050781 4.550781 1.363281 4.550781 1.75 C 4.550781 2.136719 4.863281 2.449219 5.25 2.449219 Z M 5.25 2.449219 "/>
<path style=" stroke:none;fill-rule:nonzero;fill:rgb(100%,100%,100%);fill-opacity:1;" d="M 1.75 2.449219 C 2.136719 2.449219 2.449219 2.136719 2.449219 1.75 C 2.449219 1.363281 2.136719 1.050781 1.75 1.050781 C 1.363281 1.050781 1.050781 1.363281 1.050781 1.75 C 1.050781 2.136719 1.363281 2.449219 1.75 2.449219 Z M 1.75 2.449219 "/>
<path style=" stroke:none;fill-rule:nonzero;fill:rgb(100%,100%,100%);fill-opacity:1;" d="M 0 7.699219 C 0.386719 7.699219 0.699219 7.386719 0.699219 7 C 0.699219 6.613281 0.386719 6.300781 0 6.300781 C -0.386719 6.300781 -0.699219 6.613281 -0.699219 7 C -0.699219 7.386719 -0.386719 7.699219 0 7.699219 Z M 0 7.699219 "/>
<path style=" stroke:none;fill-rule:nonzero;fill:rgb(100%,100%,100%);fill-opacity:1;" d="M 0 4.199219 C 0.386719 4.199219 0.699219 3.886719 0.699219 3.5 C 0.699219 3.113281 0.386719 2.800781 0 2.800781 C -0.386719 2.800781 -0.699219 3.113281 -0.699219 3.5 C -0.699219 3.886719 -0.386719 4.199219 0 4.199219 Z M 0 4.199219 "/>
<path style=" stroke:none;fill-rule:nonzero;fill:rgb(100%,100%,100%);fill-opacity:1;" d="M 3.5 0.699219 C 3.886719 0.699219 4.199219 0.386719 4.199219 0 C 4.199219 -0.386719 3.886719 -0.699219 3.5 -0.699219 C 3.113281 -0.699219 2.800781 -0.386719 2.800781 0 C 2.800781 0.386719 3.113281 0.699219 3.5 0.699219 Z M 3.5 0.699219 "/>
<path style=" stroke:none;fill-rule:nonzero;fill:rgb(100%,100%,100%);fill-opacity:1;" d="M 7 0.699219 C 7.386719 0.699219 7.699219 0.386719 7.699219 0 C 7.699219 -0.386719 7.386719 -0.699219 7 -0.699219 C 6.613281 -0.699219 6.300781 -0.386719 6.300781 0 C 6.300781 0.386719 6.613281 0.699219 7 0.699219 Z M 7 0.699219 "/>
<path style=" stroke:none;fill-rule:nonzero;fill:rgb(100%,100%,100%);fill-opacity:1;" d="M 0 0.699219 C 0.386719 0.699219 0.699219 0.386719 0.699219 0 C 0.699219 -0.386719 0.386719 -0.699219 0 -0.699219 C -0.386719 -0.699219 -0.699219 -0.386719 -0.699219 0 C -0.699219 0.386719 -0.386719 0.699219 0 0.699219 Z M 0 0.699219 "/>
</g>
<pattern id="pattern2" patternUnits="userSpaceOnUse" width="7" height="7" patternTransform="matrix(1.075661,0,0,1.077769,-10.527226,-29.94552)">
<use xlink:href="#surface24"/>
</pattern>
<clipPath id="clip7">
  <rect x="0" y="0" width="48" height="43"/>
</clipPath>
<g id="surface25" clip-path="url(#clip7)">
<path style=" stroke:none;fill-rule:nonzero;fill:url(#pattern2);" d="M 27.191406 24.253906 C 26.796875 26.289062 26.796875 28.378906 26.796875 30.453125 C 26.796875 35.765625 26.796875 37.6875 26.792969 43 C 28.234375 41.082031 29.679688 39.15625 30.796875 37.039062 C 31.917969 34.917969 32.566406 32.578125 32.566406 30.183594 C 32.566406 26.871094 31.78125 26.214844 31.121094 23.0625 C 30.960938 22.304688 31.171875 21.507812 31.042969 20.742188 C 30.953125 20.238281 30.683594 19.257812 30.164062 19.015625 C 29.457031 18.6875 29.101562 19.53125 28.734375 20.117188 C 27.953125 21.371094 27.46875 22.804688 27.191406 24.253906 Z M 27.191406 24.253906 "/>
</g>
<mask id="mask5">
  <g filter="url(#alpha)">
<rect x="0" y="0" width="48" height="43" style="fill:rgb(0%,0%,0%);fill-opacity:0.121569;stroke:none;"/>
  </g>
</mask>
<clipPath id="clip9">
  <rect x="0" y="0" width="48" height="43"/>
</clipPath>
<g id="surface29" clip-path="url(#clip9)">
<path style=" stroke:none;fill-rule:nonzero;fill:rgb(0%,0%,0%);fill-opacity:1;" d="M 30.089844 24.078125 C 30.085938 23.566406 30.058594 22.902344 30.242188 22.417969 C 30.421875 21.929688 30.824219 21.640625 30.855469 21.101562 C 30.878906 20.6875 30.667969 20.28125 30.378906 19.980469 C 30.089844 19.679688 29.726562 19.464844 29.363281 19.253906 C 29.855469 20.351562 29.640625 21.359375 29.53125 22.496094 C 29.355469 24.261719 29.324219 26.046875 29.429688 27.820312 C 29.492188 28.835938 29.410156 29.855469 29.289062 30.867188 C 29.21875 31.460938 28.648438 33.042969 29.640625 33.15625 C 31.714844 33.390625 30.464844 27.398438 30.316406 26.476562 C 30.191406 25.691406 30.09375 24.878906 30.085938 24.078125 Z M 30.089844 24.078125 "/>
</g>
<mask id="mask6">
  <g filter="url(#alpha)">
<rect x="0" y="0" width="48" height="43" style="fill:rgb(0%,0%,0%);fill-opacity:0.121569;stroke:none;"/>
  </g>
</mask>
<clipPath id="clip10">
  <rect x="0" y="0" width="48" height="43"/>
</clipPath>
<g id="surface32" clip-path="url(#clip10)">
<path style=" stroke:none;fill-rule:nonzero;fill:rgb(0%,0%,0%);fill-opacity:1;" d="M 37.917969 20.648438 C 38.503906 21.191406 39.035156 21.792969 39.5 22.441406 C 40.9375 24.4375 41.78125 26.878906 41.792969 29.347656 C 41.792969 29.121094 40.941406 28.375 40.78125 28.164062 C 39.757812 26.828125 38.941406 25.304688 38.195312 23.792969 C 37.453125 22.285156 36.703125 20.761719 35.332031 19.777344 C 34.9375 19.492188 33.851562 19.070312 33.742188 18.550781 C 33.628906 18.015625 34.976562 18.707031 35.230469 18.828125 C 35.800781 19.097656 36.339844 19.417969 36.851562 19.78125 C 37.222656 20.050781 37.578125 20.339844 37.917969 20.648438 Z M 37.917969 20.648438 "/>
</g>
<mask id="mask7">
  <g filter="url(#alpha)">
<rect x="0" y="0" width="48" height="43" style="fill:rgb(0%,0%,0%);fill-opacity:0.301961;stroke:none;"/>
  </g>
</mask>
<clipPath id="clip12">
  <rect x="0" y="0" width="7" height="7"/>
</clipPath>
<g id="surface36" clip-path="url(#clip12)">
<path style=" stroke:none;fill-rule:nonzero;fill:rgb(100%,100%,100%);fill-opacity:1;" d="M 3.5 7.699219 C 3.886719 7.699219 4.199219 7.386719 4.199219 7 C 4.199219 6.613281 3.886719 6.300781 3.5 6.300781 C 3.113281 6.300781 2.800781 6.613281 2.800781 7 C 2.800781 7.386719 3.113281 7.699219 3.5 7.699219 Z M 3.5 7.699219 "/>
<path style=" stroke:none;fill-rule:nonzero;fill:rgb(100%,100%,100%);fill-opacity:1;" d="M 7 7.699219 C 7.386719 7.699219 7.699219 7.386719 7.699219 7 C 7.699219 6.613281 7.386719 6.300781 7 6.300781 C 6.613281 6.300781 6.300781 6.613281 6.300781 7 C 6.300781 7.386719 6.613281 7.699219 7 7.699219 Z M 7 7.699219 "/>
<path style=" stroke:none;fill-rule:nonzero;fill:rgb(100%,100%,100%);fill-opacity:1;" d="M 3.5 4.199219 C 3.886719 4.199219 4.199219 3.886719 4.199219 3.5 C 4.199219 3.113281 3.886719 2.800781 3.5 2.800781 C 3.113281 2.800781 2.800781 3.113281 2.800781 3.5 C 2.800781 3.886719 3.113281 4.199219 3.5 4.199219 Z M 3.5 4.199219 "/>
<path style=" stroke:none;fill-rule:nonzero;fill:rgb(100%,100%,100%);fill-opacity:1;" d="M 7 4.199219 C 7.386719 4.199219 7.699219 3.886719 7.699219 3.5 C 7.699219 3.113281 7.386719 2.800781 7 2.800781 C 6.613281 2.800781 6.300781 3.113281 6.300781 3.5 C 6.300781 3.886719 6.613281 4.199219 7 4.199219 Z M 7 4.199219 "/>
<path style=" stroke:none;fill-rule:nonzero;fill:rgb(100%,100%,100%);fill-opacity:1;" d="M 5.25 5.949219 C 5.636719 5.949219 5.949219 5.636719 5.949219 5.25 C 5.949219 4.863281 5.636719 4.550781 5.25 4.550781 C 4.863281 4.550781 4.550781 4.863281 4.550781 5.25 C 4.550781 5.636719 4.863281 5.949219 5.25 5.949219 Z M 5.25 5.949219 "/>
<path style=" stroke:none;fill-rule:nonzero;fill:rgb(100%,100%,100%);fill-opacity:1;" d="M 1.75 5.949219 C 2.136719 5.949219 2.449219 5.636719 2.449219 5.25 C 2.449219 4.863281 2.136719 4.550781 1.75 4.550781 C 1.363281 4.550781 1.050781 4.863281 1.050781 5.25 C 1.050781 5.636719 1.363281 5.949219 1.75 5.949219 Z M 1.75 5.949219 "/>
<path style=" stroke:none;fill-rule:nonzero;fill:rgb(100%,100%,100%);fill-opacity:1;" d="M 5.25 2.449219 C 5.636719 2.449219 5.949219 2.136719 5.949219 1.75 C 5.949219 1.363281 5.636719 1.050781 5.25 1.050781 C 4.863281 1.050781 4.550781 1.363281 4.550781 1.75 C 4.550781 2.136719 4.863281 2.449219 5.25 2.449219 Z M 5.25 2.449219 "/>
<path style=" stroke:none;fill-rule:nonzero;fill:rgb(100%,100%,100%);fill-opacity:1;" d="M 1.75 2.449219 C 2.136719 2.449219 2.449219 2.136719 2.449219 1.75 C 2.449219 1.363281 2.136719 1.050781 1.75 1.050781 C 1.363281 1.050781 1.050781 1.363281 1.050781 1.75 C 1.050781 2.136719 1.363281 2.449219 1.75 2.449219 Z M 1.75 2.449219 "/>
<path style=" stroke:none;fill-rule:nonzero;fill:rgb(100%,100%,100%);fill-opacity:1;" d="M 0 7.699219 C 0.386719 7.699219 0.699219 7.386719 0.699219 7 C 0.699219 6.613281 0.386719 6.300781 0 6.300781 C -0.386719 6.300781 -0.699219 6.613281 -0.699219 7 C -0.699219 7.386719 -0.386719 7.699219 0 7.699219 Z M 0 7.699219 "/>
<path style=" stroke:none;fill-rule:nonzero;fill:rgb(100%,100%,100%);fill-opacity:1;" d="M 0 4.199219 C 0.386719 4.199219 0.699219 3.886719 0.699219 3.5 C 0.699219 3.113281 0.386719 2.800781 0 2.800781 C -0.386719 2.800781 -0.699219 3.113281 -0.699219 3.5 C -0.699219 3.886719 -0.386719 4.199219 0 4.199219 Z M 0 4.199219 "/>
<path style=" stroke:none;fill-rule:nonzero;fill:rgb(100%,100%,100%);fill-opacity:1;" d="M 3.5 0.699219 C 3.886719 0.699219 4.199219 0.386719 4.199219 0 C 4.199219 -0.386719 3.886719 -0.699219 3.5 -0.699219 C 3.113281 -0.699219 2.800781 -0.386719 2.800781 0 C 2.800781 0.386719 3.113281 0.699219 3.5 0.699219 Z M 3.5 0.699219 "/>
<path style=" stroke:none;fill-rule:nonzero;fill:rgb(100%,100%,100%);fill-opacity:1;" d="M 7 0.699219 C 7.386719 0.699219 7.699219 0.386719 7.699219 0 C 7.699219 -0.386719 7.386719 -0.699219 7 -0.699219 C 6.613281 -0.699219 6.300781 -0.386719 6.300781 0 C 6.300781 0.386719 6.613281 0.699219 7 0.699219 Z M 7 0.699219 "/>
<path style=" stroke:none;fill-rule:nonzero;fill:rgb(100%,100%,100%);fill-opacity:1;" d="M 0 0.699219 C 0.386719 0.699219 0.699219 0.386719 0.699219 0 C 0.699219 -0.386719 0.386719 -0.699219 0 -0.699219 C -0.386719 -0.699219 -0.699219 -0.386719 -0.699219 0 C -0.699219 0.386719 -0.386719 0.699219 0 0.699219 Z M 0 0.699219 "/>
</g>
<pattern id="pattern3" patternUnits="userSpaceOnUse" width="7" height="7" patternTransform="matrix(1.075661,0,0,1.077769,-12.393199,-30.482907)">
<use xlink:href="#surface36"/>
</pattern>
<clipPath id="clip11">
  <rect x="0" y="0" width="48" height="43"/>
</clipPath>
<g id="surface37" clip-path="url(#clip11)">
<path style=" stroke:none;fill-rule:nonzero;fill:url(#pattern3);" d="M 31.261719 15.617188 C 31.800781 15.253906 32.425781 14.871094 33.054688 15.03125 C 33.773438 15.210938 34.136719 16 34.328125 16.714844 C 34.59375 17.714844 34.714844 18.777344 34.46875 19.78125 C 34.222656 20.78125 33.574219 21.722656 32.628906 22.136719 C 32.183594 22.328125 31.65625 22.398438 31.230469 22.171875 C 30.859375 21.976562 30.628906 21.601562 30.414062 21.242188 C 29.910156 20.398438 28.601562 18.710938 28.800781 17.660156 C 28.96875 16.75 30.566406 16.085938 31.261719 15.617188 Z M 31.261719 15.617188 "/>
</g>
<mask id="mask8">
  <g filter="url(#alpha)">
<rect x="0" y="0" width="48" height="43" style="fill:rgb(0%,0%,0%);fill-opacity:0.121569;stroke:none;"/>
  </g>
</mask>
<clipPath id="clip13">
  <rect x="0" y="0" width="48" height="43"/>
</clipPath>
<g id="surface41" clip-path="url(#clip13)">
<path style=" stroke:none;fill-rule:nonzero;fill:rgb(0%,0%,0%);fill-opacity:1;" d="M 6.015625 23.851562 C 7.0625 24.003906 10.03125 24.21875 11.761719 23.914062 C 12.0625 23.859375 12.476562 23.871094 12.546875 24.171875 C 12.613281 24.46875 12.242188 24.660156 11.949219 24.738281 C 10.308594 25.167969 4.628906 26.121094 2.25 26.164062 C 1.863281 26.171875 1.527344 26.207031 1.171875 26.058594 C 1.285156 24.964844 1.148438 23.84375 0.785156 22.808594 C 1.222656 22.78125 1.59375 22.933594 2.003906 23.0625 C 3.28125 23.460938 4.675781 23.660156 6.015625 23.855469 Z M 6.015625 23.851562 "/>
</g>
<mask id="mask9">
  <g filter="url(#alpha)">
<rect x="0" y="0" width="48" height="43" style="fill:rgb(0%,0%,0%);fill-opacity:0.121569;stroke:none;"/>
  </g>
</mask>
<clipPath id="clip14">
  <rect x="0" y="0" width="48" height="43"/>
</clipPath>
<g id="surface44" clip-path="url(#clip14)">
<path style=" stroke:none;fill-rule:nonzero;fill:rgb(0%,0%,0%);fill-opacity:1;" d="M 31.683594 15.359375 C 32.457031 16.167969 32.925781 17.265625 32.96875 18.386719 C 32.972656 18.519531 32.941406 18.691406 32.8125 18.714844 C 32.695312 18.734375 32.605469 18.613281 32.542969 18.507812 C 32.160156 17.847656 31.59375 17.289062 30.9375 16.90625 C 30.769531 16.804688 30.59375 16.71875 30.414062 16.640625 C 30.328125 16.605469 29.925781 16.527344 29.890625 16.453125 C 29.816406 16.308594 30.25 16.226562 30.371094 16.171875 C 30.832031 15.957031 31.253906 15.632812 31.679688 15.359375 Z M 31.683594 15.359375 "/>
</g>
</defs>
<g id="surface1">
<path style=" stroke:none;fill-rule:nonzero;fill:rgb(63.921569%,89.019608%,89.803922%);fill-opacity:1;" d="M 27.976562 22.097656 C 27.382812 22.5 26.769531 22.878906 26.148438 23.230469 C 19.910156 26.734375 12.742188 28.230469 5.710938 29.085938 C 3.523438 29.355469 1.484375 28.8125 1.242188 26.210938 C 1.125 24.929688 1.328125 23.527344 0.609375 22.460938 C 0.398438 22.148438 0.101562 21.859375 0.0546875 21.480469 C -0.0117188 20.988281 0.390625 20.535156 0.855469 20.363281 C 1.320312 20.191406 1.828125 20.234375 2.320312 20.273438 C 6.550781 20.609375 11.539062 20.984375 15.746094 20.4375 C 24.933594 19.246094 29.921875 18.246094 33.726562 16.039062 C 32.371094 18.503906 30.3125 20.507812 27.976562 22.097656 Z M 27.976562 22.097656 "/>
<path style=" stroke:none;fill-rule:nonzero;fill:rgb(63.921569%,89.019608%,89.803922%);fill-opacity:1;" d="M 41.71875 0.28125 C 42.046875 -0.0117188 42.46875 -0.125 43.042969 0.179688 C 43.515625 0.4375 43.847656 0.882812 44.242188 1.25 C 44.753906 1.726562 45.386719 2.070312 46.066406 2.242188 C 46.410156 2.328125 46.769531 2.371094 47.101562 2.492188 C 47.4375 2.613281 47.761719 2.832031 47.902344 3.160156 C 48.019531 3.4375 47.90625 3.667969 47.808594 3.925781 C 47.070312 5.871094 45.484375 7.945312 44.214844 9.59375 C 42.820312 11.417969 41.226562 13.085938 39.480469 14.574219 C 37.734375 16.058594 35.828125 17.363281 33.808594 18.449219 C 32.796875 18.988281 31.757812 19.476562 30.699219 19.90625 C 29.882812 20.234375 28.214844 20.429688 27.578125 20.976562 C 30.839844 18.175781 33.699219 14.90625 36.0625 11.3125 C 37.242188 9.515625 38.296875 7.632812 39.21875 5.6875 C 39.667969 4.738281 40.085938 3.773438 40.46875 2.792969 C 40.796875 1.953125 41.019531 0.90625 41.71875 0.28125 Z M 41.71875 0.28125 "/>
<use xlink:href="#surface7" mask="url(#mask0)"/>
<use xlink:href="#surface11" mask="url(#mask1)"/>
<path style=" stroke:none;fill-rule:nonzero;fill:rgb(63.921569%,89.019608%,89.803922%);fill-opacity:1;" d="M 40.707031 20.464844 C 41.78125 21.539062 42.640625 22.804688 43.117188 24.316406 C 43.667969 26.054688 43.757812 27.902344 43.882812 29.722656 C 44.011719 31.542969 44.1875 33.390625 44.902344 35.070312 C 42.589844 34.246094 40.800781 32.34375 39.53125 30.242188 C 38.261719 28.140625 37.429688 25.804688 36.421875 23.5625 C 35.933594 22.472656 35.234375 20.9375 34.058594 20.4375 C 33.226562 20.078125 31.835938 19.824219 32.53125 18.457031 C 33.722656 16.128906 36.585938 17.457031 38.210938 18.496094 C 39.113281 19.070312 39.964844 19.71875 40.707031 20.460938 Z M 40.707031 20.464844 "/>
<use xlink:href="#surface16" mask="url(#mask2)"/>
<use xlink:href="#surface20" mask="url(#mask3)"/>
<path style=" stroke:none;fill-rule:nonzero;fill:rgb(63.921569%,89.019608%,89.803922%);fill-opacity:1;" d="M 27.191406 24.253906 C 26.796875 26.289062 26.796875 28.378906 26.796875 30.453125 C 26.796875 35.765625 26.796875 37.6875 26.792969 43 C 28.234375 41.082031 29.679688 39.15625 30.796875 37.039062 C 31.917969 34.917969 32.566406 32.578125 32.566406 30.183594 C 32.566406 26.871094 31.78125 26.214844 31.121094 23.0625 C 30.960938 22.304688 31.171875 21.507812 31.042969 20.742188 C 30.953125 20.238281 30.683594 19.257812 30.164062 19.015625 C 29.457031 18.6875 29.101562 19.53125 28.734375 20.117188 C 27.953125 21.371094 27.46875 22.804688 27.191406 24.253906 Z M 27.191406 24.253906 "/>
<use xlink:href="#surface25" mask="url(#mask4)"/>
<use xlink:href="#surface29" mask="url(#mask5)"/>
<use xlink:href="#surface32" mask="url(#mask6)"/>
<path style=" stroke:none;fill-rule:nonzero;fill:rgb(63.921569%,89.019608%,89.803922%);fill-opacity:1;" d="M 31.261719 15.617188 C 31.800781 15.253906 32.425781 14.871094 33.054688 15.03125 C 33.773438 15.210938 34.136719 16 34.328125 16.714844 C 34.59375 17.714844 34.714844 18.777344 34.46875 19.78125 C 34.222656 20.78125 33.574219 21.722656 32.628906 22.136719 C 32.183594 22.328125 31.65625 22.398438 31.230469 22.171875 C 30.859375 21.976562 30.628906 21.601562 30.414062 21.242188 C 29.910156 20.398438 28.601562 18.710938 28.800781 17.660156 C 28.96875 16.75 30.566406 16.085938 31.261719 15.617188 Z M 31.261719 15.617188 "/>
<use xlink:href="#surface37" mask="url(#mask7)"/>
<use xlink:href="#surface41" mask="url(#mask8)"/>
<use xlink:href="#surface44" mask="url(#mask9)"/>
</g>
</svg>
