<?xml version="1.0" encoding="UTF-8"?>
<svg xmlns="http://www.w3.org/2000/svg" xmlns:xlink="http://www.w3.org/1999/xlink" width="48px" height="48px" viewBox="0 0 48 19" version="1.1">
<g id="surface1">
<path style=" stroke:none;fill-rule:nonzero;fill:rgb(7.843137%,81.960784%,87.45098%);fill-opacity:1;" d="M 38.253906 19 C 35.667969 19 33.097656 18.375 31.472656 17.238281 C 29.292969 15.714844 27.960938 13.273438 26.789062 10.910156 L 26.75 10.832031 C 25.871094 9.0625 24.960938 7.230469 24.960938 5.125 C 24.957031 2.640625 26.351562 1.015625 28.886719 0.554688 C 32.019531 -0.015625 35.316406 -0.144531 38.964844 0.160156 C 39.234375 0.179688 39.503906 0.199219 39.777344 0.21875 C 41.65625 0.359375 43.601562 0.5 45.328125 1.417969 C 47.519531 2.585938 47.738281 5.492188 47.898438 7.613281 L 47.921875 7.917969 C 48.046875 9.507812 48.09375 12.515625 47 14.8125 C 46.148438 16.597656 44.378906 17.886719 41.886719 18.546875 C 40.742188 18.847656 39.492188 18.996094 38.25 18.996094 Z M 28.09375 10.257812 C 29.234375 12.546875 30.410156 14.714844 32.3125 16.039062 C 34.367188 17.476562 38.410156 17.960938 41.515625 17.140625 C 42.957031 16.761719 44.847656 15.941406 45.679688 14.191406 C 46.628906 12.195312 46.582031 9.480469 46.46875 8.035156 L 46.441406 7.722656 C 46.308594 5.941406 46.125 3.5 44.640625 2.710938 C 43.183594 1.933594 41.398438 1.804688 39.667969 1.675781 C 39.390625 1.65625 39.117188 1.636719 38.84375 1.613281 C 35.324219 1.320312 32.152344 1.445312 29.144531 1.992188 C 27.308594 2.328125 26.414062 3.351562 26.414062 5.125 C 26.417969 6.886719 27.25 8.5625 28.054688 10.183594 L 28.089844 10.257812 Z M 28.09375 10.257812 "/>
<path style=" stroke:none;fill-rule:nonzero;fill:rgb(7.843137%,81.960784%,87.45098%);fill-opacity:1;" d="M 25.6875 3.09375 L 46.863281 3.09375 L 46.863281 4.554688 L 25.6875 4.554688 Z M 25.6875 3.09375 "/>
<path style=" stroke:none;fill-rule:nonzero;fill:rgb(7.843137%,81.960784%,87.45098%);fill-opacity:1;" d="M 25.6875 5.933594 L 46.863281 5.933594 L 46.863281 7.394531 L 25.6875 7.394531 Z M 25.6875 5.933594 "/>
<path style=" stroke:none;fill-rule:nonzero;fill:rgb(7.843137%,81.960784%,87.45098%);fill-opacity:1;" d="M 26.914062 8.777344 L 46.863281 8.777344 L 46.863281 10.238281 L 26.914062 10.238281 Z M 26.914062 8.777344 "/>
<path style=" stroke:none;fill-rule:nonzero;fill:rgb(7.843137%,81.960784%,87.45098%);fill-opacity:1;" d="M 28.359375 11.621094 L 46.863281 11.621094 L 46.863281 13.082031 L 28.359375 13.082031 Z M 28.359375 11.621094 "/>
<path style=" stroke:none;fill-rule:nonzero;fill:rgb(7.843137%,81.960784%,87.45098%);fill-opacity:1;" d="M 30.292969 14.464844 L 45.9375 14.464844 L 45.9375 15.925781 L 30.292969 15.925781 Z M 30.292969 14.464844 "/>
<path style=" stroke:none;fill-rule:nonzero;fill:rgb(7.843137%,81.960784%,87.45098%);fill-opacity:1;" d="M 9.746094 19 C 8.503906 19 7.257812 18.855469 6.109375 18.550781 C 3.617188 17.890625 1.847656 16.601562 1 14.816406 C -0.09375 12.515625 -0.046875 9.511719 0.078125 7.921875 L 0.101562 7.617188 C 0.257812 5.496094 0.480469 2.589844 2.671875 1.421875 C 4.398438 0.5 6.339844 0.359375 8.222656 0.222656 C 8.492188 0.203125 8.765625 0.183594 9.03125 0.160156 C 12.679688 -0.144531 15.976562 -0.0117188 19.113281 0.558594 C 21.648438 1.019531 23.042969 2.644531 23.039062 5.128906 C 23.039062 7.234375 22.128906 9.066406 21.25 10.835938 L 21.210938 10.910156 C 20.035156 13.277344 18.707031 15.714844 16.527344 17.238281 C 14.902344 18.375 12.332031 19.003906 9.746094 19.003906 Z M 12.726562 1.460938 C 11.574219 1.460938 10.386719 1.511719 9.152344 1.613281 C 8.882812 1.636719 8.605469 1.65625 8.328125 1.675781 C 6.597656 1.804688 4.8125 1.933594 3.359375 2.710938 C 1.875 3.5 1.691406 5.941406 1.558594 7.722656 L 1.53125 8.035156 C 1.421875 9.480469 1.371094 12.195312 2.320312 14.191406 C 3.152344 15.9375 5.042969 16.757812 6.484375 17.140625 C 9.589844 17.960938 13.632812 17.480469 15.6875 16.039062 C 17.589844 14.710938 18.765625 12.546875 19.90625 10.257812 L 19.941406 10.183594 C 20.746094 8.5625 21.578125 6.886719 21.578125 5.125 C 21.582031 3.351562 20.691406 2.328125 18.851562 1.992188 C 16.894531 1.636719 14.871094 1.460938 12.726562 1.460938 Z M 12.726562 1.460938 "/>
<path style=" stroke:none;fill-rule:nonzero;fill:rgb(7.843137%,81.960784%,87.45098%);fill-opacity:1;" d="M 1.136719 3.09375 L 22.3125 3.09375 L 22.3125 4.554688 L 1.136719 4.554688 Z M 1.136719 3.09375 "/>
<path style=" stroke:none;fill-rule:nonzero;fill:rgb(7.843137%,81.960784%,87.45098%);fill-opacity:1;" d="M 1.136719 5.933594 L 22.3125 5.933594 L 22.3125 7.394531 L 1.136719 7.394531 Z M 1.136719 5.933594 "/>
<path style=" stroke:none;fill-rule:nonzero;fill:rgb(7.843137%,81.960784%,87.45098%);fill-opacity:1;" d="M 1.136719 8.777344 L 21.085938 8.777344 L 21.085938 10.238281 L 1.136719 10.238281 Z M 1.136719 8.777344 "/>
<path style=" stroke:none;fill-rule:nonzero;fill:rgb(7.843137%,81.960784%,87.45098%);fill-opacity:1;" d="M 1.136719 11.621094 L 19.640625 11.621094 L 19.640625 13.082031 L 1.136719 13.082031 Z M 1.136719 11.621094 "/>
<path style=" stroke:none;fill-rule:nonzero;fill:rgb(7.843137%,81.960784%,87.45098%);fill-opacity:1;" d="M 2.0625 14.464844 L 17.707031 14.464844 L 17.707031 15.925781 L 2.0625 15.925781 Z M 2.0625 14.464844 "/>
<path style=" stroke:none;fill-rule:nonzero;fill:rgb(7.843137%,81.960784%,87.45098%);fill-opacity:1;" d="M 27.632812 1.449219 C 27.117188 1.886719 26.628906 2.503906 26.355469 2.886719 C 25.644531 3.890625 25.070312 5.789062 25.195312 6.988281 C 25.058594 6.070312 24.714844 5.4375 24.007812 5.453125 C 23.246094 5.472656 22.929688 6.132812 22.808594 6.910156 C 22.757812 5.558594 22.375 4.460938 21.941406 3.230469 C 21.671875 2.453125 19.96875 1.183594 19.386719 0.625 C 21.914062 0.933594 26.261719 1.191406 29.21875 0.523438 C 28.921875 0.570312 27.941406 1.1875 27.632812 1.449219 Z M 27.632812 1.449219 "/>
</g>
</svg>
