<?xml version="1.0" encoding="UTF-8"?>
<svg xmlns="http://www.w3.org/2000/svg" xmlns:xlink="http://www.w3.org/1999/xlink" width="48px" height="48px" viewBox="0 0 48 20" version="1.1">
<defs>
<filter id="alpha" filterUnits="objectBoundingBox" x="0%" y="0%" width="100%" height="100%">
  <feColorMatrix type="matrix" in="SourceGraphic" values="0 0 0 0 1 0 0 0 0 1 0 0 0 0 1 0 0 0 1 0"/>
</filter>
<mask id="mask0">
  <g filter="url(#alpha)">
<rect x="0" y="0" width="48" height="20" style="fill:rgb(0%,0%,0%);fill-opacity:0.301961;stroke:none;"/>
  </g>
</mask>
<clipPath id="clip1">
  <rect x="0" y="0" width="48" height="20"/>
</clipPath>
<g id="surface5" clip-path="url(#clip1)">
<path style=" stroke:none;fill-rule:nonzero;fill:rgb(0%,0%,0%);fill-opacity:1;" d="M 37.800781 8.386719 C 38.699219 9.660156 38.714844 11.355469 38.253906 12.828125 C 36.710938 17.753906 31.796875 20.652344 26.476562 19.832031 C 24.929688 19.59375 22.425781 18.761719 21.148438 17.320312 C 23.113281 17.492188 25.242188 17.601562 27.191406 17.308594 C 29.265625 16.996094 31.3125 16.441406 32.773438 14.917969 C 35.144531 12.441406 35.453125 9.179688 34.164062 6.144531 C 34.164062 6.144531 36.539062 6.59375 37.800781 8.386719 Z M 37.800781 8.386719 "/>
</g>
</defs>
<g id="surface1">
<path style=" stroke:none;fill-rule:nonzero;fill:rgb(25.490196%,25.098039%,25.882353%);fill-opacity:1;" d="M 33.046875 10.992188 L 32.796875 8.4375 C 32.777344 8.226562 32.933594 8.046875 33.152344 8.023438 C 37.3125 7.582031 41.515625 6.089844 45.976562 3.472656 C 46.164062 3.363281 46.40625 3.414062 46.523438 3.59375 L 47.9375 5.773438 C 48.054688 5.953125 47.996094 6.191406 47.808594 6.304688 C 42.878906 9.203125 38.183594 10.851562 33.484375 11.339844 C 33.265625 11.363281 33.066406 11.207031 33.046875 10.992188 Z M 33.046875 10.992188 "/>
<path style=" stroke:none;fill-rule:nonzero;fill:rgb(25.490196%,25.098039%,25.882353%);fill-opacity:1;" d="M 32.453125 5.699219 C 33.136719 5.855469 33.800781 6.03125 34.4375 6.222656 C 35.753906 6.617188 37.042969 7.289062 37.804688 8.386719 C 38.691406 9.667969 38.71875 11.355469 38.257812 12.828125 C 36.710938 17.753906 31.796875 20.652344 26.480469 19.832031 C 23.273438 19.339844 20.90625 17.75 19.480469 15.0625 C 17.496094 11.328125 17.472656 6.425781 22.390625 5.351562 C 25.53125 4.664062 29.199219 4.953125 32.453125 5.699219 Z M 32.453125 5.699219 "/>
<use xlink:href="#surface5" mask="url(#mask0)"/>
<path style=" stroke:none;fill-rule:nonzero;fill:rgb(25.490196%,25.098039%,25.882353%);fill-opacity:1;" d="M 19.886719 10.058594 C 14.664062 9.542969 4.09375 6.046875 0.125 2.484375 C -0.0390625 2.335938 -0.0429688 2.082031 0.121094 1.929688 L 2.039062 0.136719 C 2.191406 -0.00390625 2.433594 -0.0078125 2.589844 0.128906 C 4.078125 1.429688 7.101562 2.976562 10.8125 4.324219 C 14.25 5.574219 17.859375 6.5 20.171875 6.734375 C 20.386719 6.757812 20.542969 6.9375 20.527344 7.144531 L 20.328125 9.703125 C 20.308594 9.921875 20.113281 10.082031 19.886719 10.058594 Z M 19.886719 10.058594 "/>
</g>
</svg>
