<?xml version="1.0" encoding="UTF-8"?>
<svg xmlns="http://www.w3.org/2000/svg" xmlns:xlink="http://www.w3.org/1999/xlink" width="48px" height="48px" viewBox="0 0 48 19" version="1.1">
<defs>
<filter id="alpha" filterUnits="objectBoundingBox" x="0%" y="0%" width="100%" height="100%">
  <feColorMatrix type="matrix" in="SourceGraphic" values="0 0 0 0 1 0 0 0 0 1 0 0 0 0 1 0 0 0 1 0"/>
</filter>
<mask id="mask0">
  <g filter="url(#alpha)">
<rect x="0" y="0" width="48" height="19" style="fill:rgb(0%,0%,0%);fill-opacity:0.360784;stroke:none;"/>
  </g>
</mask>
<clipPath id="clip1">
  <rect x="0" y="0" width="48" height="19"/>
</clipPath>
<g id="surface5" clip-path="url(#clip1)">
<path style=" stroke:none;fill-rule:nonzero;fill:rgb(100%,100%,100%);fill-opacity:1;" d="M 35.472656 16.925781 L 44.890625 4.425781 L 46.332031 7.1875 L 38.296875 17.832031 Z M 35.472656 16.925781 "/>
</g>
<mask id="mask1">
  <g filter="url(#alpha)">
<rect x="0" y="0" width="48" height="19" style="fill:rgb(0%,0%,0%);fill-opacity:0.2;stroke:none;"/>
  </g>
</mask>
<clipPath id="clip2">
  <rect x="0" y="0" width="48" height="19"/>
</clipPath>
<g id="surface8" clip-path="url(#clip2)">
<path style=" stroke:none;fill-rule:nonzero;fill:rgb(100%,100%,100%);fill-opacity:1;" d="M 19.300781 9.5 C 19.300781 4.898438 15.257812 1.167969 10.269531 1.167969 C 5.28125 1.167969 1.238281 4.898438 1.238281 9.5 C 1.238281 14.101562 5.28125 17.832031 10.269531 17.832031 C 15.257812 17.832031 19.300781 14.101562 19.300781 9.5 Z M 19.300781 9.5 "/>
</g>
<mask id="mask2">
  <g filter="url(#alpha)">
<rect x="0" y="0" width="48" height="19" style="fill:rgb(0%,0%,0%);fill-opacity:0.2;stroke:none;"/>
  </g>
</mask>
<clipPath id="clip3">
  <rect x="0" y="0" width="48" height="19"/>
</clipPath>
<g id="surface11" clip-path="url(#clip3)">
<path style=" stroke:none;fill-rule:nonzero;fill:rgb(100%,100%,100%);fill-opacity:1;" d="M 46.761719 9.5 C 46.761719 4.898438 42.71875 1.167969 37.730469 1.167969 C 32.742188 1.167969 28.699219 4.898438 28.699219 9.5 C 28.699219 14.101562 32.742188 17.832031 37.730469 17.832031 C 42.71875 17.832031 46.761719 14.101562 46.761719 9.5 Z M 46.761719 9.5 "/>
</g>
<mask id="mask3">
  <g filter="url(#alpha)">
<rect x="0" y="0" width="48" height="19" style="fill:rgb(0%,0%,0%);fill-opacity:0.360784;stroke:none;"/>
  </g>
</mask>
<clipPath id="clip4">
  <rect x="0" y="0" width="48" height="19"/>
</clipPath>
<g id="surface14" clip-path="url(#clip4)">
<path style=" stroke:none;fill-rule:nonzero;fill:rgb(100%,100%,100%);fill-opacity:1;" d="M 11.445312 1.179688 C 10.683594 1.628906 13.46875 1.285156 14.222656 1.742188 C 14.976562 2.199219 15.566406 2.878906 16.140625 3.542969 C 13.195312 8.171875 6.714844 16.652344 6.714844 16.652344 C 6.246094 17.160156 2.789062 14.316406 2.679688 13.925781 C 2.679688 13.925781 11.851562 0.933594 11.445312 1.179688 Z M 11.445312 1.179688 "/>
</g>
<mask id="mask4">
  <g filter="url(#alpha)">
<rect x="0" y="0" width="48" height="19" style="fill:rgb(0%,0%,0%);fill-opacity:0.360784;stroke:none;"/>
  </g>
</mask>
<clipPath id="clip5">
  <rect x="0" y="0" width="48" height="19"/>
</clipPath>
<g id="surface17" clip-path="url(#clip5)">
<path style=" stroke:none;fill-rule:nonzero;fill:rgb(100%,100%,100%);fill-opacity:1;" d="M 29.367188 13.148438 L 37.730469 1.167969 L 40.417969 1.640625 L 31.121094 15.175781 Z M 29.367188 13.148438 "/>
</g>
</defs>
<g id="surface1">
<use xlink:href="#surface5" mask="url(#mask0)"/>
<use xlink:href="#surface8" mask="url(#mask1)"/>
<use xlink:href="#surface11" mask="url(#mask2)"/>
<use xlink:href="#surface14" mask="url(#mask3)"/>
<path style=" stroke:none;fill-rule:nonzero;fill:rgb(7.843137%,81.960784%,87.45098%);fill-opacity:1;" d="M 10.269531 19 C 4.632812 19 0.046875 14.738281 0.046875 9.5 C 0.046875 4.261719 4.632812 0 10.269531 0 C 15.902344 0 20.488281 4.261719 20.488281 9.5 C 20.488281 14.738281 15.902344 19 10.269531 19 Z M 10.269531 2.335938 C 5.945312 2.335938 2.425781 5.550781 2.425781 9.5 C 2.425781 13.449219 5.945312 16.664062 10.269531 16.664062 C 14.59375 16.664062 18.109375 13.449219 18.109375 9.5 C 18.109375 5.550781 14.59375 2.335938 10.269531 2.335938 Z M 10.269531 2.335938 "/>
<use xlink:href="#surface17" mask="url(#mask4)"/>
<path style=" stroke:none;fill-rule:nonzero;fill:rgb(7.843137%,81.960784%,87.45098%);fill-opacity:1;" d="M 27.695312 10.964844 C 26.90625 9.753906 25.5 8.992188 23.933594 8.921875 C 22.378906 8.851562 20.976562 9.449219 20.089844 10.574219 L 18.210938 9.136719 C 19.5625 7.4375 21.742188 6.480469 24.042969 6.585938 C 26.382812 6.695312 28.496094 7.859375 29.699219 9.707031 Z M 27.695312 10.964844 "/>
<path style=" stroke:none;fill-rule:nonzero;fill:rgb(7.843137%,81.960784%,87.45098%);fill-opacity:1;" d="M 37.730469 19 C 32.097656 19 27.511719 14.738281 27.511719 9.5 C 27.511719 4.261719 32.09375 0 37.730469 0 C 43.371094 0 47.953125 4.261719 47.953125 9.5 C 47.953125 14.738281 43.367188 19 37.730469 19 Z M 37.730469 2.335938 C 33.40625 2.335938 29.890625 5.550781 29.890625 9.5 C 29.890625 13.449219 33.40625 16.664062 37.730469 16.664062 C 42.054688 16.664062 45.574219 13.449219 45.574219 9.5 C 45.574219 5.550781 42.054688 2.335938 37.730469 2.335938 Z M 37.730469 2.335938 "/>
</g>
</svg>
