<?xml version="1.0" encoding="UTF-8"?><svg xmlns="http://www.w3.org/2000/svg"><defs><style>.brw-1{fill:#a97c50;}.brw-2{isolation:isolate;}.brw-3{mix-blend-mode:multiply;opacity:.17;}</style></defs><g class="brw-2"><g id="Layer_2"><g id="Layer_1-2"><g id="Right_wing"><path class="brw-3" d="M49.52,57.32c-12.44,1.61-26.23,3.32-38.2,6.53-5.4,1.45-4.65,2.13-3.08,8.29,5.31,20.88,22.06,40.89,37.04,56.12,17.1,17.39,33.52,23.26,56.62,31.13,25.68,8.76,57.75,12.73,84.16,4.84,2.75-.82,5.62-1.9,7.37-4.18,2.42-3.15,.35-5.94-1.06-9.62,9.65,1.06,20.68-.54,29.07-3.64,8.67-3.2,14.87-6.73,22.14-12.52,5.46-4.34,9.73-10.17,10.79-17.18,.56-3.69-.33-6.45-1.95-9.83-.93-1.94-3.99-8.65-6.28-9.16,3.05,.68,6.02-2.09,6.66-5.15s-.42-6.2-1.62-9.09c-6.16-14.88-11.31-19.84-20.15-33.15-8.81-13.26-17.23-28.24-28.08-43.78-1.49-2.13-1.24,.22-3.54-.97-5.75-2.97-10.43,2.28-15.09,4.68-5.48,2.83-11.69,4.95-17.34,7.6-13.61,6.38-27.2,12.82-41.01,18.75-11.41,4.91-22.71,10.69-34.9,12.7-13.91,2.29-27.53,5.8-41.57,7.62Z"/>
  <path id="right-wing-fill" class="brw-1" d="M0,65.36c19.28,24.43,42.08,46.58,69.38,61.51,15.74,8.61,32.98,14.66,50.77,17.16,8.37,1.18,16.87,1.4,25.3,.81,4.29-.3,8.56-.79,12.81-1.44,3.71-.57,7.76-.96,11.01-2.99,1.1-.69,1.93-1.99,1.65-3.26-.25-1.15-1.29-1.94-2.26-2.62-4.8-3.38-9.98-6.53-14.49-10.28,2.36-.65,6.19,1.3,8.63,1.86,3.38,.78,6.81,1.37,10.26,1.78,6.7,.79,13.5,.88,20.21,.22,13.39-1.32,26.52-5.67,37.68-13.25,2.4-1.63,4.97-4.02,4.52-6.89-.31-1.98-1.99-3.42-3.55-4.68-8.02-6.45-16.48-12.43-23.66-19.85,7.09,4.26,9.86,5.14,12.13,6,4.9,1.85,18.66,6.04,17.8-3.06-.18-1.93-1.03-3.72-1.87-5.46-6.13-12.62-12.22-26.74-18.9-39.41-7.45-14.13-12.83-25.92-15.48-41.52"/>
</g></g></g></g></svg>
