<?xml version="1.0" encoding="UTF-8"?><svg id="Layer_2" xmlns="http://www.w3.org/2000/svg"><defs><style>.devilHorns-1{fill:#e21a05;}</style></defs><g id="Hats"><g id="Hat-DevilHorns"><path class="devilHorns-1" d="M24.49,56.24c-1.88,1.54-3.76,3.07-5.64,4.61-.71,.58-1.44,1.17-2.31,1.45-1.86,.59-3.85-1.09-5.1-2.28C3.99,52.93-.58,37.02,.06,27.04,.67,17.49,3.71,8.1,8.81,0c5.23,14.09,9.33,23.08,20.49,33.03,4.41,3.93,9.34,7.93,11.63,9.77,.79,.64,0,0-1.19,.98-5.08,4.15-10.17,8.31-15.25,12.46Z"/><path d="M183.53,71.1c18.7,18.77,31.03,46.06,40.92,71.68,1.82,4.73,8.97,2.61,7.89-2.34-.01-.05-.02-.1-.03-.16-3.81-17.06-11.02-34.46-19.13-49.98-17.02-32.58-49.14-55.61-84.74-63.4-33.03-7.22-66.74-4.01-94.31,16.15-10.99,8.04-24.32,21.94-27.75,35.48-.14,.54,.55,.89,.92,.48,17.05-19.34,42.87-45.94,85.51-45.94,15.44,0,31.01,3.41,40.66,6.4,20.87,6.47,34.62,16.12,50.07,31.63Z"/><path class="devilHorns-1" d="M188.2,70.15c5.78,2.82,13.23,3.11,18.23-.93,8-6.47,13.83-21.96,14-31.95,.16-9.57-2.11-19.18-6.55-27.66-6.35,13.62-15.12,22.72-26.02,32.96-1.96,1.84-4.26,3.82-6.69,5.47-3.08,2.09-4.42,5.98-3.08,9.45,2.18,5.65,5.66,10.5,10.1,12.67Z"/></g></g></svg>
