<?xml version="1.0" encoding="UTF-8"?><svg xmlns="http://www.w3.org/2000/svg"><defs><style>.hat-1{fill:#d9dbe8;}.hat-2{fill:#14d1df;}.hat-3{isolation:isolate;}.hat-4{mix-blend-mode:multiply;opacity:.24;}</style></defs><g class="hat-3"><g id="Layer_2"><g id="Hats"><g id="Hat-Turban"><path class="hat-4" d="M63.82,141.21c7.17-3.94,14.32-4.94,22.47-5.06,7.75-.12,15.52-.23,23.25,.44,6.95,.6,14.29,.57,20.76,3.44,5.22,2.32,9.53,5.81,14.34,8.73,5.44,3.3,10.86,6.62,16.3,9.91,10.59,6.41,21.25,12.71,32.14,18.6,20.65,11.15,50.9,24.16,74.56,25.58,.47,.03,.95,.05,1.42,.08,2.64,.12,8.32-1.07,10.61-.02-26.98-12.38-54.07-24.82-79.09-40.79-25.26-16.12-49.75-36.37-79.48-40.13-17.07-2.16-34.5,1.46-50.37,8.1s-30.34,16.2-44.26,26.31c-5.69,4.13-11.37,8.42-15.77,13.9-2.3,2.86-4.45,6.11-5.78,9.54-1.87,4.82-.08,7.57,4.59,4.36,8.43-5.8,16.72-12.32,24.34-18.91,9.28-8.02,18.49-17.39,29.13-23.58,.29-.17,.58-.33,.86-.49Z"/><path class="hat-1" d="M54.24,136.78c35.71-9.57,74.47-7.36,108.86,6.21-10.73-28.66-37.58-50-68-53.42-6.91-.78-14.14-.64-20.49,2.18-6.91,3.07-12.08,8.97-17.02,14.7-3.3,3.82-6.64,7.71-8.67,12.33s2.99,13.52,5.33,18Z"/><path class="hat-2" d="M146.5,143.68c12.87,8.7,30.41,20.04,44.1,26.91,11.88,5.97,46.11,21.4,56.08,25.41,8.06,3.25,16.55,5.86,24.93,8.11,.82,.22,9.37,2.84,9.64,1.23,7.27-43.48,13.31-87.07-10.14-127.03-17.94-30.57-48.17-48.06-78.39-64.47-13.46-7.31-28.78-11.68-44.18-10.84-12.09,.66-23.17,10.69-30.37,19.88-20.14,25.72-23.45,56.92-6.5,85.43,8.7,14.63,20.98,26,34.83,35.37Z"/><g class="hat-4"><path d="M117.22,100.94c3.4,2.76,6.62,5.71,9.73,8.78,2.26,2.36,4.49,4.8,7.2,6.68,8.15,5.34,16.89,10.11,25.11,15.39,0,0-.08,.18-.08,.18-6.36-1.83-12.36-4.95-17.74-8.79-3.65-2.49-6.77-5.65-10.28-8.31-4.54-3.14-8.87-6.62-12.19-11.08-.67-.88-1.31-1.78-1.91-2.72,0,0,.15-.13,.15-.13h0Z"/></g><g class="hat-4"><path d="M123.82,96.26c12.06,4.26,23.58,9.88,34.4,16.67,18.97,10.46,36.67,22.56,46.49,42.61,0,0-.17,.1-.17,.1-7.22-10.52-16.09-19.54-25.85-27.62-6.57-5.29-13.34-10.49-20.79-14.52-7.52-3.93-15.36-7.18-22.88-11.11-3.79-1.9-7.57-3.85-11.29-5.94,0,0,.08-.18,.08-.18h0Z"/></g><g class="hat-4"><path d="M133.31,87.75c12.97-.46,25.86,4.02,36.73,10.93,10.79,7.1,20.09,16.16,29.4,25.04,18.13,18.11,36.88,36.55,48.66,59.61-14.05-21.04-32.25-39.92-49.44-58.85-12.77-14.27-28.61-26.03-46.69-32.57-5.99-2.15-12.26-3.47-18.66-3.97,0,0,0-.2,0-.2h0Z"/></g><g class="hat-4"><path d="M130.72,81.32c25.54,2.26,51.08,7.91,73.96,19.79,23.96,11.64,43.01,27.89,55.95,51.43,8.17,14.95,14.76,31.63,18.7,47.73-5.85-15.99-12.07-31.91-20.55-46.68-29.61-52.45-73.7-61.92-128.06-72.27h0Z"/></g><g class="hat-4"><path d="M140.96,75.63c20.7-1.41,41.59,1.74,61.27,8.22,25.73,7.54,43.69,16.89,59.06,39.68,5.85,8.56,10.82,17.69,15.47,26.94-7.57-10.95-14.41-23.67-23.37-33.89-17.37-21.73-44.6-32.43-71.48-36.47-6.76-1.18-13.55-2.15-20.37-2.87-6.83-.73-13.69-1.13-20.57-1.41,0,0,0-.2,0-.2h0Z"/></g><g class="hat-4"><path d="M154.18,68.67c14.12-4.12,29.28-3.58,43.58-.66,14.44,2.56,28.61,7.06,41.14,14.84,14.88,8.98,28.21,23.15,34.43,39.07-11.29-20.47-29.54-36.18-50.79-45.54-10.51-5.01-21.94-7.96-33.59-8.44-5.8-.29-11.59-.58-17.38-.47-5.79,.11-11.58,.48-17.35,1.39,0,0-.05-.19-.05-.19h0Z"/></g><g class="hat-4"><path d="M181.02,56.02c8.92-.72,17.94-.12,26.68,1.77,6.52,1.61,12.82,3.86,19.17,6.01,10.5,3.62,20.77,8.71,29.74,15.31,7.19,5.37,13.69,11.64,19.16,18.7,0,0-.15,.13-.15,.13-11.07-10.8-23.5-20.29-37.03-27.74-7.77-4.24-15.97-7.83-24.7-9.57-6.3-1.21-13.29-2.37-19.63-3.19-4.41-.48-8.82-.84-13.25-1.23,0,0,0-.2,0-.2h0Z"/></g><path class="hat-4" d="M145.35,91.15c7.58-4.5,15.06-9.19,22.4-14.07,18.88-12.56,39.05-25.43,50.66-45.52,.14-.24-11.92,.65-13.16,1-4.07,1.16-8.22,2.14-12.22,3.68-9.17,3.53-17.59,8.73-25.88,13.94-28.24,17.78-56.84,35.86-80.44,59.71-6.2,6.27-14.25,13-17.96,21.15,2.67,.29,6.02-2.25,8.5-3.19,3.62-1.37,7.2-2.83,10.73-4.4,6.75-3.01,13.33-6.39,19.79-9.96,12.75-7.06,25.04-14.9,37.57-22.34Z"/><g class="hat-4"><path d="M180.99,54.42c4.77-2.35,9.96-3.83,15.23-4.48,3.97-.33,7.95-.21,11.92-.49,11.87-.91,24.27,.82,34.75,6.72,0,0-.08,.18-.08,.18-7.6-2.13-15.21-3.8-22.95-5.03-5.18-.64-10.4-1.5-15.64-1.06-6.49,.87-12.85,2.38-19.28,3.56-1.28,.3-2.56,.57-3.88,.78,0,0-.07-.19-.07-.19h0Z"/></g><path class="hat-2" d="M40.73,153.86c17.22-15.62,38.35-25.71,58.15-37.53,28.21-16.84,55.73-34.91,83.18-52.95,5.93-3.9,46.76-28.94,34.59-39.04C180.13-5.94,120.65-7.45,80.61,16.94c-18.23,11.11-33.59,26.68-45.07,44.64C14.23,94.89,9.41,133.3,1.41,171.18c-.93,4.42-1.49,9.01-1.4,13.53,.08,3.9,2,7.41,2.99,11.06,.47-1.44,1.26-3.11,1.74-3.96,.95-1.68,2.06-3.26,3.25-4.78,2.52-3.21,5.49-5.99,8.26-8.98,7.79-8.43,15.98-16.48,24.48-24.19Z"/><g class="hat-4"><path d="M254.19,174.19c-7.93-8.75-15.92-18.21-23.37-27.36-7.5-9.36-14.55-19.07-22.34-28.2,0,0-.72-.86-.72-.86,11.81,2.8,20.81,11.73,28.23,20.85,12.21,14.67,21.89,31.5,28.42,49.42,0,0-.18,.08-.18,.08-1.63-3.44-3.33-6.83-5.07-10.21-5.26-10.07-11.25-19.76-17.87-28.98-8.7-11.58-18.21-25.6-32.62-30.17,0,0,.37-.57,.37-.57,11.2,14.08,23.51,27.23,34.42,41.55,0,0,5.5,7.12,5.5,7.12,1.8,2.4,3.62,4.78,5.38,7.21l-.15,.13h0Z"/></g><g class="hat-4"><path d="M.26,183.75c1.66-8.32,4.64-16.36,8.7-23.81,1.96-3.32,4.8-7.53,6.93-10.66,3.67-5.18,7.26-10.41,11.36-15.28,4.03-4.61,8.97-9.41,13.73-13.27,6.68-5.26,14.03-9.69,21.86-12.9l.09,.18c-9.1,5.36-17.48,11.55-25.42,18.41-7.73,6.96-15.35,14.49-21.1,23.21-4.32,7.05-7.87,14.95-11.31,22.45-1.61,3.88-3.14,7.78-4.67,11.71,0,0-.19-.05-.19-.05H.26Z"/></g><g class="hat-4"><path d="M10.87,170.52c1.21-3.59,2.99-7.08,5.09-10.23,2.03-3.25,4.9-5.88,7.55-8.58,3.58-3.6,6.91-7.47,10.96-10.57,5.96-4.73,12.84-8.42,20.06-10.78,0,0,.08,.18,.08,.18-6.42,4.07-12.78,7.86-19.02,12.11-4.04,2.94-8.29,5.71-11.6,9.5-3.18,3.87-5.78,8.14-8.69,12.22-1.43,2.05-2.76,4.18-4.25,6.24,0,0-.18-.09-.18-.09h0Z"/></g><g class="hat-4"><path d="M18.4,132.31c12.78-29.08,36.29-53.31,64.98-66.95,17.18-8.17,35.83-12.59,53.34-19.81,11.64-4.81,22.83-10.78,32.76-18.46,1.55-1.37,3.86-2.54,4.69-4.42,.53-2.11-1.6-1.96-3.47-1.19-13.18,5.35-26.45,10.72-40.18,14.57-18.34,4.89-37.17,8.56-56.18,9.04,18.38-1.96,37.59-5.52,55.64-10.89,13.61-3.98,26.78-9.42,39.97-14.62,3.02-1.38,7.15-.52,6.08,3.68-1,2.57-3.48,3.66-5.41,5.33-20.32,15.83-45.67,21.75-69.4,30.24-5.93,2.15-11.73,4.66-17.34,7.53-28.08,14.39-51.02,38.32-65.48,65.95h0Z"/></g></g></g></g></g></svg>
