<?xml version="1.0" encoding="UTF-8"?><svg id="Layer_2" xmlns="http://www.w3.org/2000/svg"><defs><style>.alienAntenna-1{fill:#85d9a5;}.alienAntenna-2{fill:none;stroke:#85d9a5;stroke-miterlimit:10;stroke-width:11px;}</style></defs><g id="Hats"><g id="Hat-AlienAntenna"><path class="alienAntenna-1" d="M177.17,155.75c18.7,18.77,31.03,46.06,40.92,71.68,1.82,4.73,8.97,2.61,7.89-2.34-.01-.05-.02-.1-.03-.16-3.81-17.06-11.02-34.46-19.13-49.98-17.02-32.58-49.14-55.61-84.74-63.4-33.03-7.22-66.74-4.01-94.31,16.15C16.77,135.74,3.44,149.64,.02,163.18c-.14,.54,.55,.89,.92,.48,17.05-19.34,42.87-45.94,85.51-45.94,15.44,0,31.01,3.41,40.66,6.4,20.87,6.47,34.62,16.12,50.07,31.63Z"/><path class="alienAntenna-2" d="M138.31,121.87c22.01-30.07,26.15-53.44,27.68-81.7"/><circle class="alienAntenna-1" cx="164.45" cy="23.29" r="23.29"/><path class="alienAntenna-2" d="M71.91,115.17c-15.55-22.17-23.29-58.78-21.51-77.92"/><circle class="alienAntenna-1" cx="48.62" cy="23.29" r="23.29"/></g></g></svg>
