<?xml version="1.0" encoding="UTF-8"?><svg xmlns="http://www.w3.org/2000/svg"><defs><style>.hat-1{fill:#14d1df;}.hat-2{isolation:isolate;}.hat-3{mix-blend-mode:multiply;opacity:.18;}</style></defs><g class="hat-2"><g id="Layer_2"><g id="Hats"><g id="Hat-Bow"><path class="hat-1" d="M73.4,84.38c.16,.39,.34,.79,.54,1.18,5.12,10.25,12.01,22.25,20.81,30.49,3.39,3.17,7.82,5.64,12.61,6.19,6.35,.73,12.51-1.98,16.87-5.9,14.56-13.07,23.21-39.27,26.17-57.35,1.25-7.64,1.38-16.79-5.45-21.97-5.82-4.41-14.27-3.97-21.46-2.53-8.02,1.61-15.77,4.12-22.99,7.47-3.99,1.85-14.95,5.27-17.03,8.89-5.74,9.98-14.89,21.9-10.06,33.53Z"/><path class="hat-3" d="M106.82,55.13c2.73-.5,5.5-.81,8.28-.92,1.73-.07,3.86,.17,4.55,1.76,.52,1.19-.1,2.63-1.1,3.46s-2.3,1.18-3.56,1.51c-6.84,1.8-16.01,1.79-21.91,6.03-9.42,6.76,11.92,20.49,16.84,24.99,3.93,3.59,1.26,5.67-3.1,4.05-10.14-3.75-18.87-13.69-25.42-22.01-5.5-6.98,5.01-11.63,10.75-14.25,4.67-2.14,9.61-3.7,14.66-4.61Z"/><path class="hat-1" d="M60.75,80.81c-.37,.22-.75,.42-1.14,.62-10.24,5.13-22.95,10.6-34.94,11.92-4.62,.51-9.64-.18-13.8-2.61-5.52-3.22-8.82-9.09-9.96-14.84C-2.9,56.71,5.9,30.55,14.37,14.31,17.95,7.45,23.34,.05,31.91,0c7.3-.04,13.8,5.39,18.69,10.85,5.46,6.1,10.14,12.76,13.92,19.77,2.08,3.87,8.8,13.19,8.29,17.33-1.4,11.42-1.22,26.46-12.06,32.87Z"/><path class="hat-3" d="M51.55,37.36c-1.89-2.04-3.92-3.94-6.07-5.7-1.34-1.1-3.19-2.18-4.7-1.33-1.13,.64-1.5,2.16-1.19,3.42s1.13,2.32,1.94,3.34c4.39,5.54,11.73,11.03,13.92,17.97,3.48,11.06-21.83,9.25-28.46,9.89-5.3,.51-4.41,3.78,.05,5.11,10.37,3.08,23.31,.37,33.54-2.36,8.58-2.29,2.97-12.31-.05-17.85-2.46-4.51-5.47-8.72-8.97-12.49Z"/><path class="hat-1" d="M55.08,72.57c-1.34,5.24-1.08,10.11,4.56,12.07,4.55,1.58,10.51,5.86,15.41,3.75,6.9-2.97,9.35-13.18,11.23-19.62,1.76-6.05,8.45-13.66,3.76-19.57-2.71-3.42-7.12-4.92-11.28-6.25-3.4-1.09-7.32-2.12-10.34-.22-1.94,1.22-3.02,3.39-4.01,5.46-3.85,8.02-7.13,15.77-9.33,24.39Z"/></g></g></g></g></svg>
