<?xml version="1.0" encoding="UTF-8"?><svg xmlns="http://www.w3.org/2000/svg" xmlns:xlink="http://www.w3.org/1999/xlink"><defs><style>.hhat-1{fill:url(#linear-gradient);}.hhat-2{fill:#494c67;}.hhat-3{opacity:.09;}.hhat-3,.hhat-4,.hhat-5{mix-blend-mode:multiply;}.hhat-6{fill:url(#linear-gradient-3);}.hhat-7{fill:url(#linear-gradient-4);}.hhat-8{fill:url(#linear-gradient-2);}.hhat-9{fill:url(#linear-gradient-6);}.hhat-10{fill:url(#linear-gradient-5);}.hhat-11{isolation:isolate;}.hhat-4{opacity:.18;}.hhat-5{opacity:.21;}</style><linearGradient id="linear-gradient" x1="138.84" y1="1956.3" x2="102.37" y2="1993.11" gradientTransform="translate(55.05 2037.72) scale(1 -1)" gradientUnits="userSpaceOnUse"><stop offset="0" stop-color="#0081ad"/><stop offset="1" stop-color="#14d1df"/></linearGradient><linearGradient id="linear-gradient-2" x1="141.63" y1="1947.69" x2="93.77" y2="1996.01" xlink:href="#linear-gradient"/><linearGradient id="linear-gradient-3" x1="132.64" y1="2021.17" x2="175.1" y2="1978.29" xlink:href="#linear-gradient"/><linearGradient id="linear-gradient-4" x1="131.84" y1="2017.94" x2="172.16" y2="1977.22" xlink:href="#linear-gradient"/><linearGradient id="linear-gradient-5" x1="112.85" y1="2007.69" x2="156.3" y2="1964.82" gradientTransform="translate(55.05 2037.72) scale(1 -1)" gradientUnits="userSpaceOnUse"><stop offset="0" stop-color="#14d1df"/><stop offset="1" stop-color="#85d9a5"/></linearGradient><linearGradient id="linear-gradient-6" x1="106.98" y1="2012.01" x2="158.66" y2="1961" xlink:href="#linear-gradient-5"/></defs><g class="hhat-11"><g id="Layer_2"><g id="Hats"><g id="Hat-CapLogo"><path class="hhat-2" d="M83.15,124.68c1.32-.36,2.73-.78,3.59-1.85,1.25-1.56,.8-3.99-.51-5.51s-3.23-2.33-5.11-3.03c-19.38-7.19-41.24-7.52-60.83-.91-7.64,2.58-16.56,7.54-19.35,15.75-3.3,9.73,12.4,5.9,18.32,5.61,21.57-1.08,43.03-4.45,63.89-10.06Z"/><path class="hhat-5" d="M83.15,124.68c1.32-.36,2.73-.78,3.59-1.85,1.25-1.56,.8-3.99-.51-5.51s-3.23-2.33-5.11-3.03c-19.38-7.19-41.24-7.52-60.83-.91-7.64,2.58-16.56,7.54-19.35,15.75-3.3,9.73,12.4,5.9,18.32,5.61,21.57-1.08,43.03-4.45,63.89-10.06Z"/><path class="hhat-4" d="M223.75,159.85c17.35-4.83,33.42-13.31,50.18-19.9,3.51-1.38,7.4-3.36,11.04-4.22,4.39-1.04,9.68-.52,14.19-.71l29.28-1.25c.7-.03-3.92-6.8-4.44-7.29-1.8-1.69-3.37-3.4-5.1-5.16-4.71-4.78-11.27-8.1-17.54-10.25-10.56-3.63-21.87-4.38-33.02-5.04-27.1-1.59-54.37-2.78-81.34,.35-9.48,1.1-18.91,2.75-28.17,5.08-4.74,1.19-9.43,2.56-14.05,4.13-3.59,1.22-7.38,3.42-11.04,4.05-6.21,1.16-12.99-.28-18.93,2.37s-11.71,4.02-17.89,5.62c-2.41,.62-4.79,1.05-6.17,3.12-.83,1.24-3.9,6.02-3.9,6.02,5.76,7.37,16.62,12.18,21.12,14.29,8.96,4.21,18.35,7.48,27.98,9.78,29,6.92,59.15,7.01,87.83-.99Z"/><path class="hhat-2" d="M89.49,108.3s126.52,27.03,237,18.93c0,0,18.4-108.91-107.36-121.1C116.27-3.85,89.49,108.3,89.49,108.3Z"/><path class="hhat-3" d="M89.49,108.3c2.93,.63,5.88,1.19,8.82,1.76,30.07,5.79,60.45,10.15,90.89,13.37,10.85,1.15,21.71,2.13,32.58,2.94,11.98,.88,23.84,2.91,35.83,3.6,3.27,.19,15.66,2.12,18.07-.24s-.34-13.8-.76-17.1c-3.46-27.21-12.83-53.1-27.16-76.39-6.01-9.77-14.13-18.52-24.07-24.36-10.66-6.26-18.38-7.01-30.33-5.68-20.33,2.27-39.46,10.39-55.27,23.35-16.61,13.61-29.2,31.68-38.31,51-.68,1.45-11.01,27.58-10.29,27.74Z"/><path class="hhat-2" d="M33.62,118.37c16.4-1.66,32.78,2.78,47.82,8.6,15.03,5.82,29.37,13.08,44.99,17.6,25.05,7.25,52.37,7.08,78.45,3.06,24.64-3.8,48.43-10.9,72.06-18.16,1.24-.38,1.22-2.13-.02-2.5-32.03-9.58-62.97-21.81-95.3-30.63-33.72-9.2-67.27-17.31-86.7-11.17-18.93,5.98-39.11,7.77-57.52,15.48-8.14,3.41-42.81,21.12-36.68,33.31,9.18-8.26,19.4-14.23,32.9-15.59Z"/><path class="hhat-2" d="M202.86,6.37c1.91-3.41,5.5-5.82,9.38-6.29s7.94,1.01,10.61,3.86c1.15,1.24,2.03,3.25,.93,4.52-.6,.69-1.58,.89-2.49,1.01-6.23,.79-12.72-.6-18.09-3.88"/><g id="OpenNMS_Logo-Mark_Full-color"><g id="Layer_2-2"><g id="Logos"><path class="hhat-1" d="M176.01,55.1c-3.68-5.28-6.67-10.34-8.68-14.7-.81-1.72-1.51-3.49-2.07-5.3-6.63,10.61-6.63,24.27,.07,34.89,.68-3.25,4.61-8.71,10.69-14.89Z"/><path class="hhat-8" d="M184.3,65.94c-7.41,4.73-13.55,7.38-16.72,7.21,8.33,10.27,22.31,14.72,35.36,10.5-2.38-1.53-4.96-3.59-7.78-6.19-3.93-3.68-7.56-7.53-10.86-11.52Z"/><path class="hhat-6" d="M196.35,38.15c8.09-5.54,15.27-9.07,19.18-9.29-10.09-9.7-24.92-11.71-37.01-5.75,2.08,1.08,4.41,2.66,7.01,4.77,3.77,3.1,7.39,6.53,10.82,10.27Z"/><path class="hhat-7" d="M218.47,32.08c-.82,3.7-5.69,10.06-12.89,17,4.41,5.74,8.16,11.48,10.79,16.55,1.08,2.04,2.01,4.16,2.79,6.34,8.87-12.02,8.55-28.25-.69-39.89Z"/><path class="hhat-10" d="M191.37,41.74h0c-9.77-10.67-18.48-16.65-21.02-14.33-2.91,2.66,3.14,15.51,14.09,29.53,1.56,1.99,3.13,3.91,4.71,5.73l2.22-20.92Z"/><path class="hhat-9" d="M200.94,53.34h0c-1.86,1.63-3.82,3.27-5.86,4.88s-4.01,3.09-5.94,4.45c10.27,11.89,20.45,19.73,23.58,17.51s-2.17-13.92-11.78-26.84Z"/></g></g></g></g></g></g></g></svg>
