<?xml version="1.0" encoding="UTF-8"?><svg xmlns="http://www.w3.org/2000/svg"><defs><style>.hat-1{fill:#a5325e;}.hat-2{fill:#131736;}.hat-3{isolation:isolate;}.hat-4{opacity:.24;}.hat-4,.hat-5{mix-blend-mode:multiply;}.hat-5{opacity:.18;}</style></defs><g class="hat-3"><g id="Layer_2"><g id="Hats"><g id="Hat-Hijab"><path class="hat-4" d="M89.15,392.52c23.33,11.08,49.45,14.89,75.25,16.29,22.91,1.24,46.49,.58,67.86-7.76,25.21-9.85,45.19-29.31,61.38-50.45,30.58-39.95,53.25-87.12,68.27-136.81-.69,4.01-9.71,10.83-12.62,13.63-4.25,4.1-8.06,7.05-13.3,9.57-11.88,5.7-22.26,16.34-32.55,24.54-23.54,18.75-47.08,37.49-70.62,56.24-14.97,11.92-30.37,24.08-48.58,29.94-17.55,5.65-36.41,5.04-54.83,4.38-23.58-.85-47.33-1.72-70.52-6.48-6.75-1.39-22.26-6.75-15.64,5.45,4.63,8.54,10.91,16.18,18.02,22.75,8.24,7.63,17.73,13.9,27.87,18.71Z"/><path class="hat-4" d="M78.95,89.26c24.46-6.63,50.88-3.54,74.59,5.41,27.4,10.34,52.85,29.81,63.12,57.24,2.73-13.03,5.28-27.39-1.23-39-3.27-5.83-8.52-10.28-13.97-14.13-18.21-12.86-39.76-20.38-61.67-24.53-21.9-4.15-44.28-5.06-66.56-5.69-7.4-.21-15-.35-21.96,2.17-11.61,4.21-19.6,15.37-23.16,27.2-1.64,5.46-2.49,11.13-2.9,16.81-.25,3.43-1.97,11.9,.77,14.44,3.63-4.13,6.17-9.41,9.92-13.63s7.97-8.06,12.51-11.44c9.12-6.81,19.56-11.86,30.54-14.83Z"/><path class="hat-2" d="M209.9,120.72c-24.19-20.68-54.6-33.97-86.21-37.67-31.61-3.7-64.27,2.2-92.58,16.73,17.14-18.15,34.86-37.73,56.22-50.64s47.53-19.9,71.61-13.3c30.33,8.31,51.62,36.5,61.96,66.21,1.02,2.92,1.96,5.99,1.57,9.06s-9.52,9.09-12.56,9.63Z"/><path class="hat-1" d="M349.37,186.14c-9.7-9.42-24.89-15.2-38.12-16.94,4.67-4.15,6.56-10.75,6.3-16.99s-2.4-12.23-4.69-18.04c-9.72-24.72-22.72-48.01-37.18-70.24-19.07-29.31-44.41-46.8-77.89-56.88C171.49-.87,143.24-2.11,116.32,3.28c-25.09,5.02-45.99,22.4-62.78,41.31-18.14,20.42-31.46,44.78-40.62,70.42C4.32,139.11-2.52,168.98,.9,194.45c.18,1.32,.42,3.15,.61,4.46l17.24-4.36c-1.71-21.05,1.45-42.81,7.6-64.08,7.95-27.46,30.53-48.46,55.02-61.73,12.53-6.79,26.21-12.08,40.23-14.79,14.75-2.85,29.99,7.56,40.65,17,22.15,19.6,45.15,37.35,50.55,68.16,5.18,29.57,2.53,60.51-7.84,88.69-4.37,11.88-10.25,23.52-19.38,32.29-8.52,8.18-21.25,13.16-31.73,18.4-11.78,5.88-24.84,9.2-38.01,9.55-16.94,.44-34.62-4.65-49.99-13.74-14.8-8.75-27.47-21.49-35.25-36.25-7.71,1.48-20.74,4.02-20.74,4.02,.52,2.26,1.31,5.68,1.84,7.93,1.93,8.11,5.59,17.05,6.42,25.29,.74,7.34-2.83,15.95-4.6,23.21-1.07,4.37,4.33,14.42,6,18.49,2.63,6.4,5.77,12.59,9.38,18.5,7.52,12.29,16.62,22.22,28.56,30.3,23.54,15.93,51.61,24.17,79.83,27.58,38.28,4.64,79.27,.1,111.02-21.78,20.87-14.39,36.33-35.17,51.39-55.56,27.94-37.83,56.29-76.42,71.64-120.88-6.41-4.8-14.05-7.93-21.98-9.02Z"/><path class="hat-5" d="M273.21,149.24c.71-2.84,2.58-6.47,5.39-5.65,2.1,.61,2.64,3.31,2.67,5.5,.27,15.08-4.75,29.87-12.04,43.07-7.29,13.2-16.82,25.01-26.29,36.74,20.34-11.19,39.29-24.88,56.3-40.67,.16,13.52-9.6,24.98-19.57,34.1-7.35,6.72-72,56.79-79.19,41.88-2.02-4.19,23.51-24.77,27.65-29.5,10-11.41,18.76-23.91,26.07-37.21,8.34-15.2,14.79-31.44,19.01-48.26Z"/><path class="hat-5" d="M63.09,343.72c15.83,12.07,34.5,21.45,50.55,26.2,31.17,9.23,66.05-1.73,90.59-23.05-3.13,2.72-17.5,1.15-21.72,1.22-7.25,.13-14.51-.01-21.75-.42-22.31-1.27-45.48-4.76-67.34-11.01-11.42-3.26-22.63-7.29-33.46-12.17-5.8-2.61-23-7.17-26.06-12.87,6.32,11.73,16.9,22.73,29.19,32.1Z"/><path class="hat-5" d="M263.34,280.53c4.21,6.44,3.45,15.23-.3,21.95s-10.03,11.65-16.62,15.63c-24.59,14.85-55.58,19.12-83.9,18.11,37.54-9.76,71.97-29.71,100.82-55.68Z"/><path class="hat-5" d="M247.7,336.22c17.4-16.17,31.74-35.31,45.97-54.33,14.85-19.84,29.7-39.68,44.55-59.53-1.37,24.39-17.41,45.15-32.75,64.17-16.09,19.96-32.22,39.94-50.04,58.37-9.7,10.03-20.09,19.73-32.58,25.94-9.06,4.51-31.71,11.74-39.96,2.97,6.45-7.28,22.82-9.04,31.61-13.65,12.12-6.36,23.17-14.64,33.18-23.94Z"/><path class="hat-5" d="M327.69,209.87c1.52-2.93,2.7-6.12,4.05-8.99,1.22-2.57,3.35-4.94,5.17-7.12,.91-1.09,5.79-5.06,5.82-6.24-.45,17.77-11.05,34.93-26.75,43.28-2.09-6.03,3.3-11.24,7.26-14.83,1.86-1.69,3.26-3.81,4.45-6.09Z"/><path class="hat-5" d="M22.07,253.22c9.84,16.6,26.27,28.7,44.33,35.51,18.06,6.81,37.68,8.65,56.97,7.85-23.76,4.63-48.29,5.23-72.25,1.8-10.67-1.53-13.05-3.44-17.66-13.25-2.48-5.29-4.71-10.69-6.65-16.2-1.66-4.69-2.25-11.52-4.74-15.72Z"/><path class="hat-5" d="M83.91,313.98c12.56,2.76,25.61,3.32,38.35,1.6-8.53,5.06-18.59,7.49-28.48,6.89,15.68,8.09,34.61,9.65,51.4,4.22,15.72-5.08,28.86-15.64,44.15-21.68,12.76-5.04,30.63-9,36.54-23.04-20.92,6.17-41.84,12.33-62.76,18.5,4.3-2.19,25.75-11.37,25.75-16.96,0-8.67-15.88,5.17-17.12,6.13-7.11,5.48-14.7,10.17-22.64,14.35-7.32,3.86-12.92,4.08-21.26,4.35l-57.28,1.81c4.36,1.56,8.82,2.84,13.35,3.83Z"/><path class="hat-5" d="M204.41,80.15c14.71,18.94,20.15,43.26,25.19,66.7-.49-11.79-.97-23.59-1.46-35.38-.34-8.13-.71-16.44-3.7-24-4.68-11.85-15.2-20.41-26.24-26.76-5.96-3.43-12.7-7.77-19.22-9.96s-8.47-.25-2.81,4.29c10.02,8.04,20.23,14.81,28.23,25.12Z"/><path class="hat-5" d="M34.22,95.6c8.06-17.76,21.4-33.92,39.48-41.22-9.64,17.24-22.14,33.44-33.89,49.32-7.2,9.74-11.32,18.25-16.84,36.54-3.38-12.5,6.14-33.37,11.24-44.63Z"/></g></g></g></g></svg>
