<?xml version="1.0" encoding="UTF-8"?><svg xmlns="http://www.w3.org/2000/svg" xmlns:xlink="http://www.w3.org/1999/xlink"><defs><style>.nurseblood-1{fill:none;}.nurseblood-2{clip-path:url(#clippath2);}.nurseblood-3{fill:#ed1c24;}.nurseblood-4{fill:#f1f2f2;}.nurseblood-5{isolation:isolate;}.nurseblood-6{mix-blend-mode:multiply;opacity:.18;}</style><clipPath id="clippath2"><path class="nurseblood-1" d="M149.25,110.77c-36.88-16.17-88.85-16.21-117.73,.7C21.51,94.59,11.05,70.94,.95,52.66c-1.96-3.55-.79-8.03,2.69-10.11,47.18-28.14,120.16-29.08,168.3-2.69,3.39,1.86,4.82,5.98,3.31,9.53l-26,61.37Z"/></clipPath></defs><g class="nurseblood-5"><g id="Layer_2"><g id="Hats"><g id="Hat-Nurse_blood_"><path class="nurseblood-4" d="M149.25,110.77c-36.88-16.17-88.85-16.21-117.73,.7C21.51,94.59,11.05,70.94,.95,52.66c-1.96-3.55-.79-8.03,2.69-10.11,47.18-28.14,120.16-29.08,168.3-2.69,3.39,1.86,4.82,5.98,3.31,9.53l-26,61.37Z"/><circle class="nurseblood-3" cx="90.89" cy="59.01" r="29.6"/><rect class="nurseblood-4" x="85.68" y="38.18" width="10.42" height="41.67"/><rect class="nurseblood-4" x="85.68" y="38.18" width="10.42" height="41.67" transform="translate(149.91 -31.88) rotate(90)"/><g class="nurseblood-2"><g><path d="M103.07,78.86c.46-.1,.94-.33,1.39-.28,1.27,.14,2.52,.44,3.78,.58,1.31,.14,2.64,.16,4.05,.23-.02-.15-.04-.39-.11-.62-.21-.78,.12-1.04,.87-.99,.49,.03,.99-.07,1.48-.04,.99,.07,1.33-.55,1.59-1.35,.5-1.54,.52-1.53,2.02-.78,.14-.26,.29-.51,.42-.77,.11-.21,.21-.43,.32-.66,.83,.54,1.12,1.79,.49,2.26-.78,.58-1.63,1.14-2.53,1.48-1.63,.62-1.85,.83-1.68,2.51-.12,.07-.25,.23-.37,.22-2.72-.26-4.84,1.23-7.09,2.37-1.1,.55-2.22,1.06-3.36,1.51-1.92,.77-3.83,1.62-5.82,2.19-2.03,.59-3.45,2.24-5.43,2.86-.28,.09-.54,.26-.83,.31-1.1,.17-1.1,.15-1.67,1.28-1.62-.27-2.78,.73-3.97,1.62-.44,.33-.72,.53-1.35,.34-.46-.14-1.39,.12-1.6,.5-.78,1.38-2.21,1.08-3.33,1.53-.52,.21-1.13,.23-1.6,.51-.87,.53-1.64,.41-2.61,.21-1.32-.27-1.75-1.15-2.22-2.11-.47-.96,.02-1.87,.49-2.63,.28-.45,.96-.78,1.51-.9,.74-.16,1.55-.14,2.31-.06,.31,.03,.58,.43,.87,.67-.26,.2-.5,.51-.79,.58-.54,.13-1.14,.07-1.68,.2-.37,.09-.95,.38-.96,.6-.02,.38,.25,.86,.55,1.15,1.03,1.01,2.25,.45,3.36,.18,.88-.21,1.69-.73,2.59-1.14,0-.08,.03-.22,.03-.36,0-.32-.03-.63-.04-.95,.29,0,.71-.12,.86,.03,.55,.55,1.05,.38,1.63,.11,.32-.15,.7-.22,1.06-.22,1.26,0,2.24-.56,3.12-1.4,.32-.31,.83-.72,1.16-.65,.79,.17,1.11-.34,1.6-.69,.44-.32,.94-.54,1.41-.92-2.96,.28-5.32-1.29-7.84-2.36-.95-.4-1.83-.93-2.78-1.35-.39-.17-.85-.2-1.33-.3,.16,2-.26,2.53-2.16,2.98-.74,.18-1.42,.55-2.22,.02-.23-.15-.83,.25-1.27,.4,.79,1.08,.82,2.16,.12,2.78-.64,.56-1.53,.33-2.6-.74-.37,.13-.79,.27-1.29,.44l-.8-1.43c-.24,.21-.48,.42-.89,.78,.56,.41,1.01,.79,1.51,1.09,1.41,.85,1.47,1.8,.17,2.83-.28,.22-.53,.48-.73,.77-1.06,1.53-1.21,1.61-3.11,1.43-.13,.47-1,.89,.03,1.48-.24,.5-.48,1-.72,1.51,.09,.05,.18,.1,.26,.15,.29-.43,.59-.85,.87-1.26,.18,.06,.31,.06,.36,.12,.93,1.18,1.96,1.66,3.57,1.24,.88-.23,1.96,.51,2.95,.51,1.55,0,3.09-.21,4.55-.92,.85-.41,1.84-.53,3.01-.84,1.13-2.28,3.18-1.02,5.12-.77,.24-1.18,.93-1.86,2.2-2.12,1.69-.35,3.33-.93,5.02-1.42q.84,.73,.92,2.51c-2.17,.39-4.3,.87-6.07,2.3h.03c-.3-.06-.61-.11-.9-.19-1.41-.41-2.03-.11-2.55,1.22-.38,.98-1.53,1.4-2.54,1.02-.37-.14-.89-.16-1.23,0-.92,.42-1.78,.96-2.73,1.49,.17,.73,.36,1.61-.62,2.05-.93,.41-1.25-.42-1.58-.85-.9-.01-1.71-.02-2.64-.03-.24,.34-.59,.83-1.05,1.46-.5-.78-1.04-1.3-1.9-.82-.65,.37-1.3,.73-1.85,1.03-.91-.6-1.86-1.26-2.85-1.86-.9-.55-.99-.86-.53-2.56-1.1,.13-1.98,1.6-3.19,.55,.14,.36,.36,.72,.41,1.09,.04,.31-.12,.64-.19,.96-.32-.16-.65-.3-.95-.49-.11-.07-.14-.26-.28-.56-.74,.53-1.44,1.02-2.23,1.58-.85-.53-1.91-1.05-1.66-2.34,.25-1.27,.19-2.89,2.1-3.15,.36-2.12,2.16-2.08,3.65-2.34,.02-.85-.25-1.93,.15-2.29,.46-.43,1.5-.23,2.3-.22,1.29-.54,1.42-1.64,1.15-3.16-.45,.52-.78,.9-1.21,1.39-.98-.06-2.15-.31-2.94,.79-2.09,.39-3.86,1.5-5.63,2.56-1.19,.71-2.21,.42-3.21-.29-.42-.29-.8-.64-1.12-.9,.42-.73,.82-1.44,1.24-2.15,.13-.22,.24-.52,.44-.62,.66-.33,1.36-.78,2.04-.78,.3,0,.6,.98,.89,1.51-.08,.07-.16,.14-.24,.2,.24,.05,.57,.22,.72,.12,1.08-.73,2.59-.44,3.52-1.5,.06-.07,.18-.12,.27-.14,.99-.14,2-.23,2.5-1.31,.04-.08,.18-.17,.26-.16,1.47,.22,2.33-.89,3.4-1.55,.17-.11,.38-.23,.57-.23,1.46,.03,2.07-1.06,2.84-2.02,.35-.43,.94-.72,1.47-.94,.87-.38,1.78-.85,2.7-.93,1.83-.15,1.97-1.61,2.33-2.5,.78-.53,1.26-.95,1.82-1.2,.31-.14,.9-.13,1.09,.07,.8,.85,1.39,.55,2.01-.18,.3-.35,.65-.65,.97-.97-.22-.18-.47-.39-.84-.7,.99-.54,2.14-.93,1.06-2.42,1.46,.16,2.61,.28,3.82,.41,.35-.43,.19-.72-.33-1.01-.18-.1-.3-.51-.26-.75,.03-.16,.47-.42,.58-.37,.91,.48,1.53-.36,2.38-.45,.45,.32,.98,.62,1.42,1.03,.32,.29,.76,.77,.7,1.07-.09,.42-.55,1.02-.93,1.08-1.9,.31-2.79,1.82-3.9,3.06-.18,.2-.25,.55-.27,.83-.11,1.53-.56,2.34-1.52,2.56-1.3,.29-2.21-.2-2.71-1.47-.65,.49-1.24,.94-1.99,1.5,.4,.29,.68,.56,1.01,.72,1.59,.74,3.23,1.4,4.79,2.19,2.87,1.46,5.85,1.43,8.89,.78,.9-.19,1.79-.4,2.53-.57,.44-.67,.72-1.57,1.26-1.78,.56-.21,1.37,.26,2.1,.43,.44-.42,.93-.96,1.5-1.4,.2-.15,.6-.05,.93-.06,.09-.13,.33-.89,.67-.93,.48-.07,1.04,.39,1.68,.68,.54-.43,.28-.73-.36-.93-1.03-.32-2.08-.57-3.09-.95-.38-.14-.67-.55-.99-.84,0,0-.02,.04-.02,.04Zm-30.49,8.71c.33,0,.52,.04,.65-.03,.09-.04,.18-.32,.15-.35-.13-.11-.33-.25-.46-.21-.12,.04-.18,.28-.35,.58Zm6.93-4.29c-.02-.07-.05-.14-.07-.21-.18,.05-.35,.1-.53,.16,.01,.04,.02,.07,.03,.11,.19-.02,.38-.03,.57-.05Zm-8.07,3.92c.11,.02,.21,.07,.28,.04,.07-.03,.11-.14,.16-.22-.12-.02-.24-.07-.36-.06-.03,0-.05,.15-.08,.24Z"/><path d="M61.75,106.16c.44,.8,.22,1.58-.37,2.11-.65,.59-.52,1.11-.06,1.76-1.44,.62-2.1,1.8-2.8,3.01-.76,1.3-1.75,2.45-2.65,3.67-.15,.21-.39,.37-.48,.6-.65,1.71-2.24,2.64-3.31,3.99-1.03,1.3-2.53,1.93-4.04,2.41-1.57,.5-3.02-.22-2.99-2.17,0-.25,.01-.5,.02-.9-1.26,.6-1.48,1.61-1.52,2.62,.76,.63,1.46,1.21,2.16,1.79,.04,.03,.07,.08,.11,.11,.62,.41,1.83,1.92,2.02,2.51,.02,.05,.04,.09,.06,.14h0c-.4,.91-1,.78-1.62,.3-.73-.57-1.25-1.54-2.49-.9-.39,.2-3.22-2.83-3.37-3.4-.46-1.66-.07-2.93,1.24-4.15,1.21-1.12,2.11-2.58,3.17-3.88,.39-.47,.85-.89,1.28-1.34,.76-.78,.86-1.15,.52-2.25,1.37,.12,1.77-1.27,2.81-1.8,.99-.5,1.61-1.73,2.47-2.73,.82,.8,1.98,1.15,2.13,2.37,.06,.45-.05,1.21-.33,1.36-1.46,.78-1.34,2.19-1.57,3.47-.04,.2-.02,.4-.04,.83-.39-.35-.66-.59-.77-.69-.69,.44-1.25,.87-1.87,1.17-1.26,.61-2.54,2.92-2.31,4.29,.17,1,.78,1.32,1.66,.72,1.39-.94,2.69-1.89,3.8-3.29,1.42-1.78,2.45-3.76,3.76-5.58,.42-.58,.85-1.17,1.37-1.65,.53-.49,.87-.99,.83-1.73-.01-.19,.07-.46,.21-.56,.99-.76,2-1.48,3-2.21l-.03-.02Z"/><path d="M106.17,45.1c.44,.53,.78,.94,1.12,1.36-.18,.8-.56,1.69-.53,2.56,.02,.59,.5,1.37,1.01,1.67,.59,.35,1,.63,.64,1.25-.34,.57-.92,.61-1.45,.13-.11-.1-.21-.2-.32-.31-.61,.77-.45,1.99-1.57,2.42-.12,.05-.2,.36-.18,.54,.06,.91-.52,1.26-1.24,1.21-.56-.03-1.25-.25-1.61-.63-.49-.54-.37-1.41,.2-1.81,1.02-.73,.78-1.84,1.06-2.79,.07-.25-.16-.69-.37-.92-.99-1.07-.8-2.19-.14-3.28,.65-1.08,1.58-1.75,2.95-1.4,.14,.04,.31,0,.42-.01Z"/><path d="M96.46,71.99c-.2,0-.61,.02-1.08,.03-.06-.22-.16-.41-.15-.59,.04-.88,.62-1.1,1.37-1.04,.03-.14,.05-.23,.06-.32,0-.09-.89-2.95-.95-3.06-.41-.78-.11-1.38,.48-1.91,.28-.26,.68-.53,.74-.85,.31-1.58,1.6-1.79,2.74-2.29,1.03,2.17,.73,3.02-1.31,4.04,.06,.5,.12,1,.18,1.57,.11,.01,.25,.03,.38,.04,.37,0,.75,0,1.12,.01-.13,.39-.15,.88-.41,1.16-.57,.63-1.26,1.17-2.05,1.88,.56,1.96,.97,4.22,2.98,5.73,.22,.16,.35,.81,.21,1.03-.29,.47-.79,.41-1.16-.03-.62-.74-1.33-1.43-1.81-2.26-.52-.89-.83-1.92-1.34-3.12Z"/><path d="M125.01,78.56c.17-.4,.22-.76,.42-.93,.19-.16,.61-.22,.82-.11,.18,.1,.38,.6,.28,.73-.43,.61-.08,.98,.19,1.5,.32,.61,.42,1.34,.63,2.07-.96,.37-2.12,1.08-3.05,.17-.45-.44-.24-1.57-.35-2.59,.03,.01-.32-.24-.41-.17-1.07,.88-2.47,.19-3.49,.68-.96,.46-1.9,.16-2.81,.48-.61,.21-1.21,.12-1.74-.65,.44-.24,.79-.58,1.19-.64,1.49-.22,3-.31,4.49-.53,.82-.12,1.64-.35,2.4-.66,.71-.29,1.07,0,1.39,.66Z"/><path d="M134.52,75.99q-1.04,1.36-2.73,1.05s-.07,.09-.08,.13c-.11,.81-.09,1.71-1.14,1.96-.57,.14-1.82-.64-2.26-1.39-.33-.57-.22-1.03,.47-1.14,1.26-.21,2.35-.72,3.37-1.52,.41-.32,1.21-.13,1.69-.16,.6-.41,1.18-.8,1.74-1.19,.18-.13,.46-.24,.51-.42,.37-1.25,1.28-1.06,2.29-.97-.1,1.11-.79,1.56-1.6,1.9,.59,1.61,.12,1.99-2.27,1.73Z"/><path d="M102.37,92.22c-.46-.89,.17-2.16,1.15-2.1,.88,.06,1.47-.37,2.13-.72,.98-.53,1.86-.41,2.78,.14,.49,.29,.61,.64,.47,1.16-.35,1.32-1.76,2.19-3.1,1.85-.61-.16-1.12-.29-1.74,.13-.65,.43-1.28,.12-1.68-.46Z"/><path d="M59.2,101.76c.17,3.26-.07,3.72-2.32,4.46-.04,1.13-.24,2.28-1.63,2.53-.49,.09-1.17,.02-1.51-.27-.22-.19-.14-.97,.05-1.38,.42-.89,.98-1.71,2.15-1.77-.11-.92-.25-1.61,.92-2,.63-.21,.96-1.35,1.91-1.53,.14-.02,.28-.03,.42-.05Z"/><path d="M117.2,85.24c.41-.88,.83-1.69,2.02-1.59,.21,.02,.42-.59,.71-.7,.32-.13,.89-.17,1.06,.02,.19,.21,.16,.77,.02,1.08-.24,.54-.53,1.15-.98,1.49-.61,.45-1.39,.68-2.32,1.1-.3,.93-1,1.8-2.4,1.84-.7,.02-1.39-.07-1.63-.86-.22-.72,.27-1.19,.83-1.49,.78-.41,1.61-.73,2.42-1.08,.09,.07,.18,.13,.27,.2Z"/><path d="M47.89,127.82c.98-1.55,1.27-1.51,2.71-.48,1.28,.92,2.58,1.88,4.09,2.44,.72,.27,1.22,.78,.82,1.53-.37,.69-1.02,.68-1.73,.27-.7-.4-1.65-.45-1.69-1.69-.93,.58-1.6,.44-2.17-.27-.14-.17-.45-.31-.67-.3-1.1,.06-1.24-.7-1.36-1.5h0Z"/><path d="M99.58,56.61c.29,.2,.58,.4,.86,.59,.59-.33,1.09-.73,1.66-.9,.94-.28,1.63,.2,1.84,1.13,.3,1.33-.92,2.75-2.28,2.65-.68-.05-1.31-.6-2.05-.21-.07,.04-.41-.2-.43-.34-.04-.22,0-.57,.15-.67,.26-.18,.61-.2,.95-.3-.46-.29-.99-.48-1.26-.86-.1-.15,.38-.71,.59-1.09,0,0-.03,0-.03,0Z"/><path d="M143.64,71.86c.67-.26,1.33-.52,2-.79-.08-.07-.17-.14-.25-.21,.3-.76,.45-1.64,.94-2.25,.8-1,2.05-.68,2.45,.57,.14,.43,.18,.59,.68,.5,.16-.03,.62,.49,.58,.69-.06,.32-.37,.72-.67,.82-.41,.14-.92,.11-1.36,.03-.37-.07-.71-.31-1.25-.56,.05,1.38-.94,1.52-1.74,1.92-.9,.44-1.23,.09-1.36-.76v.03Z"/><path d="M95.45,56.05c-.99,.58-2.17,.3-2.68-.62-.55-1-.25-2.33,.65-2.87,.97-.59,2.06-.23,2.72,.88,.6,1.01,.34,2.01-.68,2.61Z"/><path d="M121.64,72.81c-.38,.13-.69,.35-.95,.3-.45-.09-.97-.26-1.25-.58-.16-.18-.06-.9,.16-1.06,.36-.26,1.17-.5,1.33-.33,.79,.86,2.19-.08,2.83,1.06,.02,.04,.47-.24,.67-.19,.31,.07,.71,.24,.81,.48,.08,.2-.19,.58-.38,.82-.1,.13-.4,.08-.56,.19-1.32,.85-1.32,.85-2.33-.24-.1-.11-.19-.25-.34-.45Z"/><path d="M66.19,107.17c-.06,.47-.1,.88-.17,1.28-.18,1.05-.7,1.46-1.66,1.36-1.01-.11-2.1-1.1-1.91-1.88,.1-.42,.53-.9,.93-1.07,.89-.37,1.82-.29,2.81,.31Z"/><path d="M95.15,50.93c-.88,.52-1.84,.32-2.27-.47-.39-.71-.03-1.88,.71-2.28,.72-.39,1.94-.11,2.36,.54,.43,.67,.05,1.71-.79,2.21Z"/><path d="M80.21,124.74c-.47-.83-.28-1.71,.47-2.13,.73-.41,1.62-.14,2.11,.65,.5,.81,.32,1.85-.42,2.32-.72,.46-1.63,.11-2.17-.83Z"/><path d="M61.78,106.18c-.37-.93-.21-1.67,.69-2.26,.46-.3,.73-.88,1.18-1.2,.28-.2,.97-.33,1.08-.19,.23,.31,.42,.93,.25,1.21-.48,.83-1.08,1.62-1.78,2.27-.29,.27-.96,.12-1.45,.15l.03,.02Z"/><path d="M99.3,91.45c1.26,1.11,1.18,1.64-.38,2.26-.28,.11-.55,.28-.84,.36-.72,.2-1.37,.08-1.64-.69-.27-.79,.24-1.29,.91-1.53,.61-.22,1.28-.27,1.94-.4Z"/><path d="M153.17,68.14c.26-.14,.5-.39,.69-.36,.33,.06,.63,.3,.94,.46-.22,.23-.4,.58-.66,.66-.55,.18-1.15,.21-1.73,.31-.14,.02-.39,.01-.41,.07-.2,.64-.54,1.14-1.15,.51-.55-.57-.38-2.06,.13-2.5,.65-.54,1.16-.46,1.79,.31,.13,.15,.24,.32,.4,.53Z"/><path d="M114.66,50.5c.86-.52,2.79-.49,2.65-.16-.39,.87-.92,1.74-1.6,2.4-.42,.41-1.26,.62-1.7-.22-.31-.58,.08-1.67,.66-2.02Z"/><path d="M132.73,38.2c.72-.33,1.42-.72,2.18-.94,.28-.08,.68,.24,1.03,.37-.2,.36-.41,1.03-.59,1.02-1.05-.05-1.73,.31-2.23,1.26-.09,.18-1.01,.17-1.3-.06-.48-.38-.3-.93,.23-1.27,.21-.14,.47-.21,.7-.31,0-.02-.02-.04-.03-.06Z"/><path d="M68.91,110.16c.37,.04,.7,.09,1.03,.12,.41,.05,.83,.09,1.24,.13-.06,.43-.08,.87-.18,1.29-.06,.24-.24,.44-.4,.71,1.2,.56,.69,1.26,.2,2.04-.3-.26-.72-.43-.82-.72-.41-1.15-.72-2.34-1.08-3.58Z"/><path d="M86.25,104.82c.19-.92,.67-1.22,1.55-.83,.37,.16,.79,.24,1.16,.4,.7,.32,.94,.93,.62,1.49-.34,.59-1.14,.77-1.75,.39-.04-.03-.08-.06-.12-.09-.48-.45-.96-.9-1.46-1.36Z"/><path d="M37.57,126.48c.6-.28,1.16-.12,1.57,.45,.42,.59,.16,1.47-.52,1.86-.64,.36-1.2,.27-1.6-.37-.37-.6-.12-1.54,.55-1.94Z"/><path d="M143.66,71.82c-.31,.18-.61,.42-.94,.51-.78,.21-1.4-.15-1.56-.86-.16-.72,.15-1.24,.84-1.43,.72-.2,1.37,.02,1.67,.74,.12,.3,0,.71-.02,1.06v-.03Z"/><path d="M155.25,79.56c.61-.33,1.25-.13,1.54,.52,.29,.65,.18,1.21-.48,1.58-.62,.35-1.41,.09-1.7-.54-.25-.54,.03-1.23,.64-1.56Z"/><path d="M147.44,30.49c.53-.15,1.14-.39,1.52,.4,.31,.64-.01,1.46-.74,1.79-.67,.3-1.22,.12-1.57-.53-.33-.62-.02-1.28,.79-1.66Z"/><path d="M52.29,81.4c-.55-.86-.38-1.75,.19-2.05,.61-.31,1.2-.28,1.62,.35,.37,.56,.16,1.45-.5,1.69-.44,.16-.99,.01-1.31,0Z"/><path d="M161.18,65.32c1.21-1.58,2.79-2.01,3.78-1.14,.21,.19,.39,.68,.29,.9-.11,.24-.73,.54-.82,.46-.97-.85-2.04-.13-3.25-.21Z"/><path d="M130.61,68.44c.51-.39,1.08-.49,1.44,.13,.39,.66-.05,1.04-.62,1.31-.46,.22-.89,.55-1.38,.67-.26,.06-.74-.13-.86-.35-.12-.22-.03-.73,.16-.92,.34-.35,.83-.56,1.25-.83Z"/><path d="M153.64,34.95c.27-.4,.54-.8,.95-1.42,.55,.7,1.05,1.33,1.78,2.27-.92,.3-1.53,.7-2.06,.62-.7-.11-.81-.83-.66-1.51v.04Z"/><path d="M111.15,57.11c-1.2,.88-1.79,.91-2.26,.2-.4-.6-.18-1.34,.5-1.64,.76-.34,1.19,0,1.77,1.44Z"/><path d="M172.72,46.58c0,.82,.14,1.5-.05,2.07-.12,.35-.75,.53-1.15,.78-.18-.43-.54-.88-.5-1.29,.08-.74,.59-1.26,1.7-1.56Z"/><path d="M136.69,67.31c-.56,.24-.85,.48-1.11,.45-.3-.03-.73-.25-.83-.49-.1-.24,.06-.69,.26-.92,.17-.2,.55-.21,.84-.31,.54-.18,1.23-.8,1.54,.07,.12,.32-.53,.92-.71,1.2Z"/><path d="M82.78,65.88c.17-.31,.32-.85,.67-1.16,.5-.43,1.25-.15,1.52,.45,.29,.66-.09,1.08-.59,1.38-.58,.34-1.07,.14-1.6-.68Z"/><path d="M164.24,44.57c-.43-.92-.17-1.37,.39-1.68,.6-.33,1.13-.11,1.47,.41,.39,.62,.04,1.17-.52,1.36-.44,.15-.99-.05-1.34-.08Z"/><path d="M76.43,117.55c.36,.15,.96,.24,1.26,.58,.47,.53,.14,1.1-.41,1.4-.55,.3-1.13,.21-1.5-.34-.41-.62-.03-1.06,.65-1.63Z"/><path d="M106.2,60.82c-.29-.91-.09-1.45,.48-1.84,.53-.36,.97-.23,1.28,.33,.34,.63,.17,1.14-.46,1.38-.41,.15-.9,.09-1.31,.13Z"/><path d="M101.45,64.79c.4,.12,.88,.14,1.07,.38,.15,.18-.08,.66-.14,1.01,0,.04-.07,.07-.12,.09-.51,.26-1.01,.52-1.53,.74-.03,.01-.38-.47-.32-.59,.27-.53,.63-1.01,1.04-1.64Z"/><path d="M138.31,65.4c.41-1.37,.82-1.6,2.59-1.45-.7,1.66-1.19,1.93-2.59,1.45Z"/><path d="M152.93,47.1c.13-.61,.18-1.21,.38-1.75,.22-.59,.8-.72,1.23-.36,.24,.2,.38,.89,.22,1.12-.36,.53-.75,1.24-1.83,.99Z"/><path d="M134.78,36.36c.36-.74,.49-1.28,.83-1.63,.36-.37,1.27-.08,1.43,.4,.21,.61,0,1.2-.58,1.4-.39,.14-.9-.07-1.68-.17Z"/><path d="M123.29,44.31c.18,.07,.81,.24,.8,.33-.09,.71-.3,1.41-.48,2.11-.3-.08-.73-.07-.87-.26-.48-.64-.27-1.71,.55-2.18Z"/><path d="M159.13,56.3c.24,.76,.47,1.34-.19,1.68-.27,.14-.9-.04-1.13-.29-.47-.5-.37-1.66,.09-1.74,.38-.06,.82,.22,1.23,.36Z"/><path d="M100.11,114.54c.33-.65,.42-1.11,.71-1.35,.49-.4,1.24-.11,1.52,.48,.28,.58,.05,1.1-.49,1.21-.45,.09-.97-.18-1.74-.35Z"/><path d="M120.01,47.02c.14-.3,.24-.82,.55-1.1,.49-.44,1.18-.33,1.45,.23,.15,.32-.08,1.01-.37,1.3-.45,.44-1.05,.35-1.62-.43Z"/><path d="M129.03,66.27c.72,.26,1.23,.44,1.73,.61-.19,.31-.31,.76-.58,.89-.52,.25-1.23,.61-1.61-.16-.12-.25,.23-.72,.46-1.35Z"/><path d="M138.5,74.38c.16-.26,.22-.55,.4-.64,.65-.35,1.32-.68,2.01-.91,.24-.08,.78,.1,.85,.28,.09,.25-.06,.83-.24,.9-.78,.3-1.6,.47-2.42,.65-.14,.03-.33-.15-.6-.29Z"/><path d="M153.07,59.11c-.74,.79-1.53,1.14-2.42,1.24-.21,.02-.61-.24-.66-.44-.05-.21,.16-.65,.35-.72,.83-.31,1.69-.52,2.73-.08Z"/><path d="M105.5,63.38c-.69-.25-1.34-.34-1.37-.53-.08-.42,.04-1.01,.31-1.33,.35-.41,.95-.24,1.13,.25,.14,.38-.02,.87-.07,1.61Z"/><path d="M126.71,42.8c-.07,.84-.04,1.64-1.15,1.47-.57-.09-.94-.42-.8-1.07,.16-.75,.72-.87,1.95-.39Z"/><path d="M127.41,41.32c.89-.21,1.42-.43,1.96-.43,.29,0,.58,.39,.87,.6-.22,.3-.41,.81-.66,.84-.75,.11-1.42-.18-2.16-1.02Z"/><path d="M127.92,70.91c-.11,.9-.22,1.61-1.23,1.24-.62-.22-1.01-.77-.68-1.34,.59-1.01,1.21-.1,1.91,.09Z"/><path d="M155.92,38.98c.22,.02,.58,.06,.95,.09-.12,.39-.23,.78-.38,1.15-.05,.12-.22,.25-.35,.27-.39,.04-.79,.03-1.19,.03,.11-.34,.19-.7,.35-1.02,.08-.16,.3-.26,.63-.52Z"/><path d="M144.57,62.5c-.18,.33-.27,.72-.51,.86-.46,.27-.99,.42-1.51,.56-.15,.04-.39-.07-.53-.18-.08-.07-.12-.37-.07-.4,.65-.42,1.31-.84,2-1.2,.09-.05,.32,.18,.62,.36Z"/><path d="M120.88,73.5c.53,.28,1.1,.4,1.18,.66,.08,.29-.19,.91-.47,1.03-.38,.17-.9,0-1.37-.03,.19-.48,.38-.95,.66-1.66Z"/><path d="M143.07,54.67c-.93,.94-1.05-.4-1.61-.47-.16-.02-.35-.47-.36-.72,0-.17,.29-.47,.48-.49,.26-.03,.65,.07,.78,.26,.29,.39,.45,.88,.7,1.43Z"/><path d="M62.33,85.88c-.05-.48-.13-.69-.07-.76,.41-.45,.84-.87,1.29-1.27,.07-.06,.34-.02,.43,.07,.13,.13,.31,.44,.27,.49-.44,.48-.9,.94-1.4,1.36-.14,.12-.41,.09-.52,.11Z"/><path d="M180.44,38.88c.29-.58,.42-1.15,.61-1.17,.44-.04,.9,.18,1.36,.3-.17,.38-.24,.91-.52,1.08-.27,.15-.76-.09-1.44-.21Z"/><path d="M80.4,106.36c.26-.57,.36-1.12,.59-1.18,.35-.1,.79,.13,1.19,.22-.1,.4-.07,.98-.32,1.13-.27,.17-.78-.07-1.46-.17Z"/><path d="M167.54,62.14c.43-.27,.82-.66,1.29-.78,.57-.14,1.02,.26,.96,.85-.02,.19-.56,.44-.88,.47-.41,.04-.83-.13-1.25-.2-.04-.11-.07-.23-.11-.34Z"/><path d="M161.3,46.75c.62-.54,1.13-1.03,1.81-.43,.15,.13,.13,.76-.04,.9-.64,.53-1.21,.32-1.77-.47Z"/><path d="M161.17,42.57c-.18,.55-.3,.92-.42,1.28-.32-.18-.71-.3-.94-.56-.35-.39-.36-.92,.18-1.13,.25-.1,.65,.21,1.18,.4Z"/><path d="M96.61,110.89c-.69-.22-1.18-.25-1.44-.51-.15-.14,.01-.93,.14-.96,.36-.09,.87-.04,1.15,.17,.19,.14,.09,.66,.14,1.3Z"/><path d="M90.02,107.28c.32-.57,.43-1.07,.68-1.14,.29-.09,.87,.1,1,.34,.12,.22-.09,.82-.33,.98-.23,.15-.69-.07-1.34-.17Z"/><path d="M145.59,62.25c.36-.63,.46-1.08,.72-1.19,.3-.14,.73,.01,1.1,.04-.12,.38-.15,.86-.4,1.1-.19,.18-.67,.04-1.42,.05Z"/><path d="M47.18,73.93c-.61-.26-1.09-.32-1.22-.57-.14-.27,.04-.71,.08-1.08,.4,.08,.89,.06,1.16,.29,.17,.15,0,.68-.03,1.36Z"/><path d="M61.38,75.52c.62,.25,1.12,.3,1.25,.54,.13,.25-.09,.69-.16,1.05-.35-.08-.83-.05-1.02-.27-.18-.2-.05-.67-.07-1.32Z"/><path d="M111.93,37.11c.66,.27,1.32,.53,2.16,.87-1.6,.77-1.86,.69-2.35-.51,.07-.12,.13-.24,.2-.37Z"/><path d="M189.95,51.26c.15-.37,.25-.76,.33-.76,.67,.05,1.34,.17,2.01,.27-.06,.22-.12,.64-.18,.64-.67,0-1.33-.08-2.15-.15Z"/><path d="M159.25,64.81c.55,.34,.98,.46,1.02,.67,.08,.33-.1,.73-.17,1.09-.31-.07-.85-.07-.9-.23-.11-.37,0-.8,.05-1.53Z"/><path d="M103.09,78.83c-.68,.36-1.2,.01-1.65-.42-.14-.14-.23-.51-.14-.66,.1-.17,.45-.33,.64-.28,.7,.17,1.21,.57,1.13,1.4l.02-.04Z"/><path d="M153.65,34.92c-.17,.11-.32,.25-.5,.33-.47,.21-.96,.2-1.07-.39-.05-.25,.21-.67,.45-.83,.49-.31,.86-.05,1.02,.48,.04,.14,.06,.3,.09,.44v-.04Z"/><path d="M99.49,29.51c-.78,.39-1.43,.46-1.96-.36,.95-.88,1.08-.86,1.96,.36Z"/><path d="M166.03,52.25c.41-.6,.57-1.08,.83-1.15,.29-.07,.68,.24,1.02,.38-.13,.3-.19,.76-.42,.86-.29,.13-.71-.03-1.43-.09Z"/><path d="M197.73,24.4c.4-.53,.56-.93,.84-1.05,.22-.09,.59,.17,.89,.28-.15,.33-.22,.76-.48,.94-.18,.13-.6-.06-1.25-.17Z"/><path d="M94.63,18.92c-.11,.14-.15,.27-.23,.29-.58,.17-1.2,.39-1.64-.24-.09-.13,0-.56,.13-.63,.76-.38,1.31-.06,1.74,.58Z"/><path d="M115.57,99.99c.1-.23,.11-.3,.14-.32,.6-.37,1.15-.25,1.59,.25,.08,.09,.02,.46-.08,.52-.69,.4-1.2,.13-1.65-.45Z"/><path d="M89.86,97.25s.08,.06,.13,.09c.57,.32,.94,.73,.35,1.29-.15,.14-.75,.07-.9-.11-.5-.6-.18-1.01,.46-1.27h-.03Z"/><path d="M109.23,67.98c-.33,.91-.7,1.35-1.45,1.04-.14-.06-.28-.46-.22-.61,.33-.79,.94-.5,1.67-.43Z"/><path d="M107.89,76.59c.55,.29,.98,.39,1.14,.65,.1,.16-.12,.74-.32,.82-.24,.1-.72-.06-.89-.27-.14-.18,.02-.6,.07-1.21Z"/><path d="M199.56,22.64c.28-.47,.39-.87,.61-.96,.24-.1,.6,.09,.91,.16-.1,.3-.12,.72-.33,.85-.21,.14-.61-.01-1.19-.06Z"/><path d="M166.96,62.57c-.21,.8-.73,.9-1.32,.7-.13-.04-.27-.51-.19-.62,.47-.63,.99-.49,1.51-.08Z"/><path d="M154.39,100.25c-.58-.33-.79-.82-.42-1.45,.07-.12,.64-.12,.65-.1,.11,.48,.18,.97,.25,1.46-.16,.03-.32,.06-.47,.09Z"/><path d="M97.83,98.73c.17-.5,.19-.94,.4-1.06,.2-.12,.76-.01,.86,.17,.13,.22,.05,.73-.14,.91-.16,.15-.59,0-1.12-.01Z"/><path d="M188.06,32.66c.28-.45,.38-.85,.61-.94,.25-.1,.61,.1,.92,.16-.12,.33-.16,.76-.4,.95-.17,.13-.6-.08-1.13-.17Z"/><path d="M141.39,56.94c-.27,.46-.38,.87-.59,.95-.24,.08-.74-.08-.84-.28-.1-.19,.07-.72,.27-.83,.21-.12,.61,.07,1.16,.16Z"/><path d="M186.65,34.98c-.41-.18-.85-.24-.95-.45-.09-.2,.12-.76,.3-.81,.25-.08,.66,.11,.87,.32,.1,.1-.11,.51-.22,.95Z"/><path d="M80.39,75.78c.23-.53,.29-.97,.5-1.06,.23-.1,.6,.12,.91,.19-.07,.27-.06,.67-.23,.78-.22,.14-.59,.06-1.17,.08Z"/><path d="M125.18,101.3c-.39,.65-.83,.86-1.39,.45-.13-.09-.18-.53-.08-.65,.48-.54,.96-.4,1.47,.21Z"/><path d="M136.5,60.22c-.27,.49-.36,.9-.57,.98-.23,.09-.58-.14-.88-.24,.1-.29,.12-.71,.32-.84,.19-.13,.58,.03,1.13,.09Z"/><path d="M116.31,31.01c.16-.4,.26-.86,.36-.86,.34,0,.69,.17,1.03,.27-.12,.28-.16,.72-.37,.81-.22,.1-.59-.11-1.03-.22Z"/><path d="M145.57,50.89c.22-.51,.28-.88,.5-1.05,.15-.12,.72-.01,.76,.11,.09,.26,.08,.73-.1,.88-.18,.16-.6,.05-1.16,.06Z"/><path d="M150.6,72.72c.38,.15,.76,.18,.87,.36,.1,.18-.08,.52-.13,.79-.31-.07-.66-.09-.92-.25-.08-.05,.1-.5,.18-.9Z"/><path d="M211.15,41.08c-.27-.15-.63-.25-.78-.48-.08-.13,.17-.68,.31-.7,.29-.03,.68,.09,.87,.3,.17,.19,.11,.57,.16,.87-.19,0-.37,0-.56,.01Z"/><path d="M123.57,31.47c-.45-.1-.91-.21-1.36-.31-.02-.12-.04-.25-.07-.37,.3-.17,.64-.51,.91-.46,.3,.05,.54,.46,.8,.71-.09,.14-.18,.29-.27,.43Z"/><path d="M83.73,77.32c-.39,.28-.79,.56-1.29,.91q-.07-1.17,1.1-1.21c.06,.1,.13,.2,.19,.29Z"/><path d="M109.03,99.75c-.42-.23-.79-.33-.94-.56-.09-.13,.15-.69,.28-.7,.29-.03,.66,.09,.87,.29,.1,.09-.1,.5-.21,.97Z"/><path d="M175.11,59.25c-.46-.21-.91-.3-.92-.43-.03-.3,.16-.62,.26-.93,.26,.09,.68,.11,.75,.28,.11,.24-.03,.59-.09,1.07Z"/><path d="M190.76,29.31c.23-.45,.3-.84,.48-.89,.26-.07,.58,.1,.87,.17-.08,.26-.08,.66-.25,.74-.24,.12-.59,0-1.1-.03Z"/><path d="M99.13,31.22c-.8,.2-1.38,.42-1.76-.29-.05-.09,.03-.34,.12-.38,.66-.32,1.11,0,1.64,.68Z"/><path d="M153.88,59.45c-.24-.19-.6-.35-.68-.6-.09-.28,.02-.66,.16-.94,.04-.08,.66-.02,.76,.14,.14,.23,.06,.6,.07,.91-.11,.16-.21,.32-.32,.48Z"/><path d="M205.84,45.92c-.27-.15-.63-.24-.76-.47-.08-.14,.16-.68,.3-.7,.28-.04,.69,.07,.88,.28,.17,.18,.12,.57,.16,.86-.19,0-.38,.02-.58,.03Z"/><path d="M67.44,80.71c.23,.18,.54,.32,.65,.56,.1,.21-.02,.53-.04,.8-.3-.04-.66,0-.87-.15-.11-.08,.02-.51,.04-.78,.08-.15,.15-.29,.23-.44Z"/><path d="M155.18,57.87c.18-.37,.25-.73,.44-.82,.2-.09,.52,.09,.79,.15-.1,.3-.12,.66-.32,.86-.1,.1-.51-.1-.91-.2Z"/><path d="M87.99,64.17c-.36-.17-.72-.35-1.08-.52,.16-.22,.4-.65,.47-.63,.33,.12,.62,.37,.93,.57-.1,.19-.21,.39-.31,.58Z"/><path d="M81.4,102.92c-.39-.17-.84-.26-.85-.39-.03-.28,.17-.59,.28-.88,.25,.12,.61,.18,.73,.38,.1,.17-.08,.5-.16,.9Z"/><path d="M91.69,27.94c.53-.55,.98-.32,1.68,.52-.76-.02-1.23-.03-1.69-.04,0-.16,0-.32,.01-.48Z"/><path d="M145.76,109.23c-.41-.04-.82-.07-1.22-.14-.02,0,.01-.34,.02-.53l1.26,.13c-.02,.18-.04,.36-.06,.54Z"/><path d="M186.36,52.6c.16-.19,.29-.47,.49-.55,.24-.1,.55-.02,.83-.02-.03,.27,.02,.65-.13,.77-.16,.13-.52,.02-.79,.02-.13-.07-.26-.15-.39-.22Z"/><path d="M73.7,117.41c.17-.3,.25-.64,.39-.66,.24-.04,.5,.12,.76,.2-.08,.25-.16,.51-.25,.76-.26-.09-.53-.17-.9-.3Z"/><path d="M99.73,49.42c.13-.35,.23-.61,.32-.87,.24,.12,.61,.18,.68,.36,.07,.19-.09,.54-.26,.73-.06,.07-.42-.12-.74-.22Z"/><path d="M134.46,63.92c-.39,.22-.79,.44-1.18,.66-.07-.18-.2-.51-.18-.52,.4-.19,.82-.35,1.23-.51,.05,.12,.09,.24,.14,.36Z"/><path d="M39.81,120.15c-.45,.43-.9,.86-1.35,1.29-.09-.09-.18-.18-.28-.27,.43-.45,.86-.9,1.29-1.35,.11,.11,.22,.22,.34,.32Z"/><path d="M196.63,48.27c-.3-.12-.62-.15-.69-.29-.07-.15,.07-.58,.17-.6,.24-.04,.51,.09,.76,.14-.07,.22-.14,.43-.24,.74Z"/><path d="M172.81,46.31c.31-.24,.62-.48,.95-.69,.02,0,.34,.38,.32,.4-.26,.29-.56,.55-.85,.81l-.41-.52Z"/><path d="M102.21,98.89c-.33-.12-.65-.13-.73-.28-.09-.16,.03-.45,.05-.68,.26,.05,.56,.06,.77,.19,.08,.05-.05,.42-.1,.76Z"/><path d="M175.87,56.97c.23,.19,.57,.33,.66,.57,.08,.19-.08,.56-.26,.73-.11,.1-.58,.04-.64-.07-.1-.21-.02-.51-.02-.78,.08-.15,.17-.3,.25-.45Z"/><path d="M73.58,77.77c.36,.12,.75,.15,.78,.26,.05,.24-.03,.56-.18,.76-.07,.09-.58,0-.63-.11-.09-.22,0-.52,.03-.92Z"/><path d="M100.34,70.9c-.44-.33-.74-.46-.88-.69-.09-.15,0-.59,.11-.64,.23-.1,.54-.02,.82-.02-.01,.26-.02,.53-.05,1.34Z"/><path d="M109.96,29.27c.45,.14,.9,.29,1.35,.43-.04,.15-.08,.3-.11,.45-.47-.09-.94-.18-1.41-.26,.06-.21,.11-.42,.17-.62Z"/><path d="M173.27,59.88c.23,.13,.52,.21,.67,.4,.06,.08-.16,.55-.27,.56-.24,.01-.56-.09-.71-.27-.14-.15-.1-.46-.13-.7,.15,0,.3,0,.45,0Z"/><path d="M88.06,93c.07-.23,.09-.27,.1-.31,.38,.12,.76,.25,1.14,.37-.06,.13-.16,.37-.18,.37-.36-.13-.72-.28-1.06-.42Z"/><path d="M131.92,71.11c-.39,.14-.77,.28-1.35,.5q.41-.9,1.35-.5Z"/><path d="M133.54,40.67l-1.54,.86c-.04-.07-.08-.15-.13-.22l1.56-.87c.04,.08,.07,.15,.11,.23Z"/><path d="M74.6,146.64c.59,.36,.88,.43,.95,.6,.07,.18-.08,.44-.14,.66-.25-.09-.58-.12-.73-.3-.13-.15-.05-.48-.08-.96Z"/><path d="M99.07,53.93c.18-.22,.33-.51,.57-.64,.15-.08,.57,.01,.63,.14,.11,.22,.03,.53,.02,.8-.26-.01-.52-.03-.78-.04-.15-.08-.3-.17-.44-.25Z"/><path d="M47.75,140.03c.2-.31,.3-.62,.44-.64,.24-.03,.5,.12,.75,.2-.07,.21-.11,.56-.23,.59-.24,.05-.52-.06-.96-.14Z"/><path d="M195.82,51.39c-.36-.31-.63-.45-.72-.66-.07-.16,0-.53,.14-.61,.16-.1,.53-.07,.65,.06,.11,.11,0,.43-.06,1.21Z"/><path d="M60.07,86.33c.15-.33,.25-.71,.34-.71,.25,0,.5,.17,.75,.28-.1,.2-.15,.51-.32,.59-.16,.08-.43-.07-.77-.15Z"/><path d="M70.88,79.7c.25-.3,.43-.64,.54-.62,.24,.04,.45,.27,.67,.42-.16,.18-.29,.45-.47,.5-.17,.04-.41-.16-.74-.31Z"/><path d="M95.29,25.16c-.38-.07-.77-.15-1.28-.25,.75-.96,1-.29,1.28,.25Z"/><path d="M79.66,90.61c.34,.05,.68,.09,1.02,.18,.03,0-.03,.34-.05,.52-.34-.04-.69-.07-1.03-.11,.02-.2,.04-.4,.06-.6Z"/><path d="M137.6,105.55c-.32-.01-.65-.03-.97-.04,.02-.22,.04-.43,.06-.65,.32,.06,.64,.13,.96,.19-.02,.17-.04,.33-.05,.5Z"/><path d="M195.53,72.86l-1.2,.29c-.05-.16-.09-.32-.14-.48,.39-.12,.78-.24,1.18-.35,.05,.18,.11,.36,.16,.54Z"/><path d="M159.55,86.61c.3,.16,.54,.22,.66,.38,.06,.08-.1,.33-.17,.5-.21-.08-.45-.11-.61-.25-.07-.06,.05-.33,.11-.63Z"/><path d="M90.23,108.91c-.28-.07-.58-.08-.6-.15-.04-.2,.04-.42,.07-.64,.18,.04,.43,.03,.53,.14,.09,.11,0,.35,0,.65Z"/><path d="M149.99,48.49c.2-.31,.28-.61,.44-.66,.16-.05,.4,.14,.61,.22-.09,.2-.12,.5-.27,.57-.15,.08-.41-.06-.77-.14Z"/><path d="M161.47,80.21c.1-.31,.12-.62,.22-.64,.2-.05,.46,0,.65,.1,.06,.03,.01,.48-.07,.51-.19,.08-.45,.03-.8,.03Z"/><path d="M102.14,37.23c.36,.14,.72,.28,1.08,.43-.04,.14-.08,.27-.12,.41-.38-.09-.76-.19-1.14-.28,.06-.18,.12-.37,.18-.55Z"/><path d="M54.04,104.55c.36,.14,.68,.17,.74,.3,.07,.16-.04,.45-.16,.61-.04,.06-.43,0-.5-.11-.1-.17-.05-.42-.08-.81Z"/><path d="M149.84,64.09c.36-.07,.72-.13,1.09-.2,.04,.1,.07,.21,.11,.31-.13,.12-.24,.31-.39,.36-.22,.06-.46,.02-.7,.03-.03-.16-.07-.33-.1-.49Z"/><path d="M155.5,97.17c.12-.31,.16-.6,.26-.62,.2-.05,.43,.05,.65,.09-.04,.18-.03,.46-.14,.51-.18,.08-.42,.02-.78,.02Z"/><path d="M99.61,56.61c-.09-.04-.22-.05-.28-.12-.17-.21-.31-.45-.46-.68,.17-.08,.33-.15,.5-.23,.1,.25,.22,.49,.3,.74,.02,.08-.06,.19-.1,.29h.03Z"/><path d="M82.37,102.51c.2-.21,.32-.42,.45-.43,.15-.01,.31,.16,.47,.25-.12,.18-.21,.4-.37,.51-.06,.04-.29-.17-.55-.32Z"/><path d="M58.98,87.81c.03,.15,.12,.33,.07,.45-.09,.19-.27,.35-.43,.51-.02,.02-.24-.11-.23-.15,.04-.21,.09-.45,.2-.62,.07-.11,.27-.12,.42-.18h-.03Z"/><path d="M104.31,116.68c-.31-.15-.55-.2-.62-.33-.06-.12,.07-.34,.12-.52,.17,.06,.41,.07,.51,.19,.08,.11,0,.34,0,.66Z"/><path d="M56.01,103.06c.07-.31,.08-.61,.16-.64,.19-.05,.42,.03,.64,.06-.05,.18-.04,.42-.16,.52-.1,.09-.34,.04-.64,.06Z"/><path d="M89.21,28.52c-.29-.07-.59-.14-.88-.21,.02-.11,.03-.22,.05-.34,.31,.04,.61,.08,.92,.11-.03,.14-.06,.29-.09,.43Z"/><path d="M65.34,137.6c-.31-.1-.56-.11-.63-.23-.07-.12-.02-.43,.09-.5,.11-.07,.41-.02,.51,.08,.09,.1,.03,.34,.03,.65Z"/><path d="M135.66,104.74c-.27-.16-.47-.26-.63-.41-.03-.03,.12-.34,.14-.34,.21,.06,.42,.13,.6,.25,.04,.02-.05,.24-.11,.5Z"/><path d="M95.1,35.89c.31,.11,.63,.22,.94,.32-.03,.13-.07,.25-.1,.38-.32-.07-.65-.14-.97-.21,.04-.17,.09-.33,.13-.5Z"/><path d="M116.13,29.13c-.31-.05-.62-.11-.94-.16,.02-.13,.05-.27,.07-.4,.31,.06,.62,.12,.93,.18-.02,.13-.04,.25-.07,.38Z"/><path d="M113.56,123.83c-.3-.11-.55-.12-.62-.23-.07-.12-.02-.42,.09-.49,.1-.07,.4-.03,.49,.08,.09,.1,.03,.34,.04,.65Z"/><path d="M81.14,113.56c.16-.19,.32-.37,.49-.55,0,0,.21,.17,.2,.17-.15,.2-.31,.39-.47,.59-.07-.07-.15-.14-.22-.21Z"/><path d="M44.41,86.5c-.27-.18-.49-.25-.54-.38-.04-.13,.1-.32,.17-.48,.16,.07,.39,.1,.46,.23,.07,.11-.04,.33-.09,.64Z"/><path d="M88.52,98.23c-.27-.1-.58-.15-.58-.22-.02-.2,.09-.41,.15-.61,.17,.07,.41,.09,.49,.21,.07,.11-.02,.34-.06,.62Z"/><path d="M59.01,87.82c-.09-.13-.25-.25-.24-.38,0-.21,.11-.42,.2-.61,.01-.03,.26,0,.27,.02,.04,.21,.1,.44,.06,.65-.02,.12-.21,.21-.32,.31,0,0,.03,0,.03,0Z"/><path d="M182.44,37.1c-.25-.09-.48-.11-.57-.23-.06-.08,.06-.3,.09-.46,.17,.07,.36,.12,.49,.23,.06,.05,0,.24-.02,.46Z"/><path d="M94.46,73.63c.15-.2,.23-.37,.37-.46,.07-.05,.24,.06,.37,.1-.09,.19-.17,.39-.28,.57-.01,.02-.23-.1-.46-.2Z"/><path d="M142.48,94.12c.27-.21,.43-.41,.53-.39,.14,.04,.26,.24,.32,.39,.02,.05-.16,.26-.24,.25-.16-.01-.31-.12-.61-.26Z"/><path d="M159.86,84.51c.17-.32,.22-.51,.34-.6,.09-.06,.27,0,.42,.02-.02,.17,.03,.4-.07,.5-.09,.09-.32,.05-.69,.08Z"/><path d="M160.03,82.9c.23-.28,.32-.5,.44-.52,.14-.02,.3,.13,.46,.21-.07,.12-.11,.32-.21,.35-.15,.05-.33-.02-.69-.05Z"/><path d="M193.84,25.8c.13-.23,.18-.41,.3-.5,.07-.05,.26,.04,.39,.07-.06,.16-.08,.35-.18,.47-.05,.06-.25-.01-.51-.04Z"/><path d="M185.89,30.97c.05-.25,.04-.46,.11-.49,.14-.06,.32-.02,.49-.02,0,.13,.03,.33-.04,.37-.12,.09-.31,.08-.56,.14Z"/><path d="M119.58,120.9c.2-.18,.31-.33,.4-.33,.12,0,.29,.13,.32,.24,.03,.09-.09,.24-.14,.36-.16-.07-.32-.15-.57-.27Z"/><path d="M198.46,48.82c.16-.32,.21-.52,.33-.62,.08-.07,.38-.04,.39,0,.05,.16,.08,.41,0,.49-.11,.1-.34,.07-.71,.13Z"/><path d="M214.03,38.81c-.31-.1-.56-.11-.61-.21-.06-.12,.03-.35,.12-.47,.05-.06,.34-.04,.38,.04,.08,.13,.06,.32,.1,.64Z"/><path d="M183.17,53.76c.17-.3,.23-.54,.35-.57,.14-.03,.34,.09,.47,.2,.04,.03-.04,.32-.13,.36-.15,.06-.34,.01-.69,.01Z"/><path d="M99.6,51.51c.14-.13,.26-.32,.43-.37,.13-.04,.35,.04,.47,.13,.06,.05,.05,.34-.02,.38-.13,.08-.32,.05-.48,.07l-.4-.22Z"/><path d="M103.82,121.71c.07-.21,.11-.33,.15-.45,.16,.07,.35,.11,.48,.21,.04,.03-.05,.34-.07,.34-.17,0-.33-.05-.56-.1Z"/><path d="M137.58,74.99c.04-.27,.01-.48,.08-.52,.15-.08,.35-.07,.52-.1,0,.14,.05,.34-.02,.41-.11,.11-.31,.12-.58,.2Z"/><path d="M158.56,40.68c.15-.2,.22-.36,.34-.43,.11-.06,.28-.03,.42-.04-.03,.17-.02,.36-.09,.5-.03,.05-.26-.01-.67-.04Z"/><path d="M118.61,9.47c-.26-.19-.41-.25-.46-.35-.04-.08,.04-.23,.11-.32,.03-.04,.22-.01,.25,.03,.05,.1,.04,.23,.1,.64Z"/><path d="M123.76,9.76c.18,.04,.31,.07,.45,.11-.05,.16-.11,.32-.16,.48-.13-.05-.33-.06-.37-.14-.05-.1,.05-.26,.09-.44Z"/><path d="M164.37,53.42c-.19-.03-.35-.01-.43-.09-.08-.08-.08-.24-.12-.37,.17,0,.34-.03,.49,.03,.05,.02,.03,.24,.05,.43Z"/><path d="M174.91,73.87c.06-.17,.08-.34,.16-.4,.11-.07,.28-.03,.42-.04-.03,.17-.03,.35-.1,.5-.02,.04-.26-.03-.48-.06Z"/><path d="M109.13,24.67c.24,.13,.42,.19,.52,.31,.05,.06-.06,.25-.1,.38-.17-.05-.35-.08-.49-.17-.05-.04,.03-.25,.07-.51Z"/><path d="M140.76,11.15c.14-.16,.22-.33,.29-.33,.12,0,.23,.12,.35,.18-.05,.08-.1,.21-.16,.22-.12,.02-.25-.03-.48-.08Z"/><path d="M129.68,71.35c.19,.04,.32,.07,.45,.09-.04,.13-.04,.32-.12,.36-.1,.05-.26-.02-.4-.04,.02-.12,.04-.25,.06-.41Z"/><path d="M121.86,22.75c-.15,.26-.22,.43-.33,.55-.03,.03-.3-.08-.32-.16-.03-.12,.03-.31,.12-.4,.07-.06,.25,0,.53,0Z"/><path d="M101.74,75.42c.08-.19,.1-.38,.19-.42,.1-.04,.26,.05,.39,.08-.04,.12-.05,.3-.13,.36-.08,.06-.25,0-.45-.03Z"/><path d="M108.69,35.88c.05-.28,.08-.41,.1-.54,.15,.05,.32,.07,.43,.17,.05,.04-.02,.3-.1,.36-.09,.06-.27,.01-.43,.01Z"/><path d="M105.73,37.78c.07-.17,.09-.34,.18-.41,.07-.05,.24,.03,.36,.05-.04,.16-.09,.33-.13,.49-.12-.04-.25-.08-.42-.13Z"/><path d="M141.9,19.3c.06-.12,.12-.28,.13-.28,.16,.06,.31,.13,.46,.2-.06,.07-.12,.2-.18,.2-.14,0-.27-.07-.42-.12Z"/><path d="M160.15,45.66c.07-.19,.09-.4,.18-.43,.1-.04,.33,.03,.39,.12,.05,.08-.02,.31-.11,.38-.08,.06-.26-.03-.45-.06Z"/><path d="M68.83,103.64c-.2-.13-.34-.18-.4-.28-.03-.05,.09-.22,.18-.29,.04-.03,.23,.05,.25,.11,.04,.11,0,.24-.02,.46Z"/><path d="M91.53,49.07c.16,.12,.33,.19,.34,.28,.01,.11-.11,.23-.18,.35-.11-.06-.29-.11-.31-.2-.03-.1,.08-.24,.15-.43Z"/><path d="M52.54,75.35c.16-.29,.2-.46,.29-.48,.11-.03,.29,.04,.35,.13,.04,.07-.04,.28-.12,.33-.1,.06-.27,.02-.51,.02Z"/><path d="M150.03,72c-.17,.18-.25,.32-.37,.39-.11,.06-.27,.04-.4,.05,.02-.17,.03-.34,.05-.51,.14,.01,.27,.03,.72,.08Z"/><path d="M147.28,72.88c-.18-.03-.42-.05-.42-.09-.02-.16,.04-.33,.07-.49,.13,.04,.31,.05,.37,.14,.06,.09,0,.26-.01,.44Z"/><path d="M103.37,72.27c.02-.08,.04-.17,.06-.25,.11,.06,.22,.12,.33,.18-.06,.07-.11,.19-.18,.21-.06,.02-.14-.09-.22-.14Z"/><path d="M134.13,62.51c.14-.18,.23-.36,.31-.36,.11,0,.23,.14,.31,.24,.01,.02-.09,.2-.15,.21-.12,.02-.25-.04-.47-.09Z"/><path d="M103.53,114.45c-.15,0-.25,0-.34,0,.01-.13,0-.27,.04-.39,0-.03,.25-.03,.25,0,.04,.12,.03,.26,.04,.39Z"/><path d="M217.29,54.44c.09-.09,.17-.19,.28-.25,.03-.02,.2,.14,.19,.16-.05,.11-.14,.2-.22,.3-.07-.06-.14-.12-.25-.21Z"/><path d="M128.67,13.88c.02-.09,.04-.18,.05-.27,.12,.04,.23,.08,.35,.12-.05,.08-.08,.21-.15,.23-.07,.02-.17-.05-.26-.09Z"/><path d="M124.04,113.49c.1,0,.22-.05,.28,0,.05,.04,.03,.18,.05,.27-.09,0-.22,.05-.26,0-.06-.06-.05-.18-.07-.27Z"/><path d="M123.48,39.26c.05-.08,.09-.15,.14-.23,.09,.08,.18,.15,.27,.23-.07,.06-.13,.16-.2,.16-.07,0-.14-.1-.21-.16Z"/><path d="M158.02,19.6c.03-.08,.06-.16,.09-.23,.11,.05,.21,.11,.32,.16-.06,.07-.11,.18-.18,.19-.07,.01-.16-.08-.23-.12Z"/><path d="M133.03,68.27c-.07,.11-.12,.22-.2,.3-.02,.02-.21-.07-.21-.09,.02-.12,.07-.23,.12-.34,.08,.03,.16,.07,.29,.12Z"/><path d="M198.17,22.45c.04-.12,.05-.25,.12-.34,.03-.04,.17,0,.27,.02-.02,.13-.03,.26-.05,.39-.09-.02-.18-.04-.34-.07Z"/><path d="M151.31,107.16c.24-.38,.29-.56,.38-.58,.1-.03,.24,.09,.36,.14-.05,.12-.08,.28-.17,.34-.1,.07-.27,.05-.57,.1Z"/><path d="M134.9,42.28c.1-.2,.14-.39,.22-.41,.1-.02,.24,.08,.34,.16,.02,.02-.04,.21-.09,.23-.11,.04-.24,.02-.46,.02Z"/><path d="M171.15,60.16c.07,.05,.14,.11,.21,.16-.06,.08-.13,.17-.19,.25-.06-.07-.16-.13-.17-.2,0-.07,.09-.14,.15-.21Z"/><path d="M113.95,53.9c.11-.09,.2-.19,.31-.23,.05-.02,.14,.1,.21,.16-.09,.09-.17,.2-.28,.27-.02,.01-.13-.1-.24-.2Z"/><path d="M52.92,107.17c-.03,.08-.06,.17-.09,.25-.11-.05-.22-.11-.34-.16,.06-.07,.12-.18,.2-.2,.06-.02,.16,.07,.23,.11Z"/><path d="M119.47,124.77c.13-.17,.21-.27,.29-.37,.1,.08,.22,.16,.29,.26,.02,.02-.08,.2-.14,.21-.12,.01-.24-.05-.45-.09Z"/><path d="M143.57,12.03c-.2-.03-.39-.05-.59-.08,0-.08,0-.16,0-.23,.19-.01,.39-.02,.58-.04,0,.11,0,.23,0,.34Z"/><path d="M100.95,45.18c.05-.15,.08-.27,.14-.37,.02-.03,.24,.04,.24,.06,0,.13-.04,.26-.06,.39-.09-.02-.17-.04-.32-.07Z"/><path d="M100.06,101.86c.04-.08,.08-.17,.12-.25,.1,.07,.21,.13,.31,.2-.07,.07-.12,.19-.2,.2-.07,0-.15-.1-.23-.15Z"/><path d="M36.39,79.9c.02-.18,.03-.31,.04-.44,.16,.02,.32,.05,.47,.07-.03,.12-.02,.29-.1,.35-.08,.06-.24,.02-.42,.02Z"/><path d="M93.79,97.78c-.05,.2-.06,.34-.12,.45-.03,.05-.24,.05-.26,.01-.06-.11-.07-.25-.09-.38,.13-.02,.26-.04,.47-.07Z"/><path d="M105.61,39.14c.07,.05,.15,.1,.22,.15-.07,.09-.14,.18-.21,.27-.06-.07-.17-.13-.17-.2,0-.07,.1-.15,.16-.22Z"/><path d="M139.07,72.2c-.08-.03-.15-.07-.23-.1,.05-.1,.09-.2,.14-.3,.07,.06,.18,.1,.2,.18,.02,.06-.07,.15-.11,.22Z"/><path d="M179.3,39.56c-.08,0-.19,.04-.23,0-.04-.04-.02-.15-.03-.23,.09,0,.17-.02,.26-.02,0,.08,0,.17,0,.26Z"/><path d="M99.72,104.17c0-.08-.05-.2-.01-.25,.04-.05,.21-.07,.24-.03,.05,.06,.03,.17,.04,.27-.09,0-.18,0-.27,0Z"/><path d="M158.98,25.18c0-.08,.02-.15,.02-.23,.07,.03,.14,.05,.21,.09,.02,.01,0,.12,0,.12-.07,.02-.15,.01-.22,.02Z"/><path d="M151.18,105.37c.07,.06,.14,.12,.22,.18-.06,.07-.12,.19-.18,.19-.08,0-.16-.1-.23-.15,.07-.07,.13-.15,.2-.22Z"/><path d="M40.32,125.59s-.01,.09-.02,.14c-.08-.01-.16-.02-.23-.05,0,0,0-.09,.01-.13,.08,.01,.16,.03,.24,.04Z"/><path d="M185.03,.21c.03-.07,.06-.14,.09-.21,.07,.04,.14,.07,.21,.12,0,0-.03,.11-.05,.12-.08,0-.17-.01-.25-.02Z"/><path d="M160.76,14.01c.07-.06,.14-.11,.21-.17,.04,.08,.08,.15,.11,.24,0,.02-.08,.09-.1,.08-.08-.04-.15-.1-.22-.15Z"/><path d="M114.3,100.03c.02-.08,.03-.16,.05-.24,.08,.04,.16,.08,.23,.13,.02,.01-.01,.13-.02,.13-.08,0-.17-.01-.25-.02Z"/><path d="M132.8,31.23c.03-.06,.05-.13,.08-.19,0,0,.11,.01,.11,.04,.02,.07,.02,.15,.03,.22-.08-.02-.15-.05-.23-.07Z"/><path d="M164.42,32.02c.05-.07,.11-.15,.16-.22,.07,.07,.18,.12,.2,.2,.01,.05-.09,.14-.15,.21-.07-.06-.15-.13-.22-.19Z"/><path d="M99.45,51.85c.09,0,.22-.05,.26,0,.06,.06,.04,.18,.06,.27-.09,0-.22,.05-.27,0-.05-.05-.04-.18-.05-.28Z"/><path d="M68.22,107.44c-.01-.09-.03-.18-.04-.27,.08,.03,.17,.04,.24,.08,.03,.02,.03,.13,.02,.13-.07,.03-.14,.04-.22,.05Z"/><path d="M148.95,61c0-.09-.05-.21-.01-.25,.05-.05,.17-.03,.26-.04,0,.09,.02,.19,.03,.28-.09,0-.18,0-.27,.01Z"/><path d="M132.49,44.8c.06-.06,.12-.18,.17-.18,.08,0,.15,.1,.23,.15-.06,.07-.12,.19-.17,.18-.08-.01-.16-.1-.23-.16Z"/><path d="M126.58,102.22c-.08-.03-.17-.07-.25-.1,.05-.11,.11-.21,.16-.32,.07,.06,.18,.12,.2,.2,.02,.06-.07,.15-.11,.23Z"/><path d="M212.26,36.48c0,.09,.05,.2,0,.26-.03,.05-.2,.07-.24,.03-.05-.05-.03-.17-.04-.26,.09-.01,.18-.02,.28-.04Z"/><path d="M168.13,50.29c.09,.03,.18,.06,.27,.08-.04,.09-.05,.22-.11,.25-.06,.03-.18-.04-.27-.06,.04-.09,.07-.18,.11-.27Z"/></g></g><path class="nurseblood-6" d="M80.41,93.75c17.7-1.01,35.38,1.48,53.03,3.2,3.35,.33,6.92,.58,9.91-.96,2.7-1.4,4.48-4.04,6.13-6.59,9.97-15.41,24.83-42.46,25.76-40-8.55,20.07-15.28,36.13-26,61.37-2.5,3.4-27.05-4.37-41.19-5.97-18.16-2.05-31.76-1.01-49.82,1.72-2.8,.42-23.63,6.45-25.8,5.88-3.22-.84,1.3-3.86,3.24-5.7,3.27-3.11,9.77-4.92,13.9-6.55,4.67-1.85,9.51-3.24,14.42-4.27,5.4-1.13,10.9-1.81,16.41-2.12Z"/></g></g></g></g></svg>
