<?xml version="1.0" encoding="UTF-8"?><svg xmlns="http://www.w3.org/2000/svg"><defs><style>.hat-1{fill:#fbb040;}.hat-2{isolation:isolate;}.hat-3{mix-blend-mode:multiply;opacity:.18;}.hat-4{fill:#fff;mix-blend-mode:overlay;opacity:.45;}</style></defs><g class="hat-2"><g id="Layer_2"><g id="Hats"><g id="Hat-Crown"><path class="hat-3" d="M242.97,185.91c-1.21-1.75-3.16-2.83-5.04-3.83-42.93-22.96-88.99-40.06-136.51-50.68-15.89-3.55-32.11-6.39-48.37-5.51-8.12,.44-16.22,1.86-23.93,4.5-5.74,1.96-17.9,6.07-20.68,11.75,.99-2.02,8.36-1.12,10.05-1.08,4.97,.14,9.99-.18,15.02-.38,11.03-.45,22.07-.47,33.1-.08,21.46,.76,43.79,2.34,64.77,7.14,20.67,4.74,40.82,12,60.58,19.63,16.99,6.56,52.21,20.29,50.99,18.54Z"/><path class="hat-1" d="M243.74,188.93s-39.56-27.36-110.13-46.41c-64.97-17.54-124.73,1.04-124.73,1.04l.72-117.66,30.68,48.56L80.37,19.12l29.31,58.83,47.57-49.79,26.24,62.86,48.06-44.79,10.18,63.3,52-30.81-50,110.21Z"/><ellipse class="hat-1" cx="11.58" cy="23.12" rx="11.58" ry="15.48"/><ellipse class="hat-1" cx="293.74" cy="74.46" rx="15.48" ry="11.58" transform="translate(103.91 310.67) rotate(-65.44)"/><circle class="hat-1" cx="80.47" cy="15.48" r="15.48"/><circle class="hat-1" cx="158.22" cy="24.12" r="15.48"/><circle class="hat-1" cx="232.56" cy="41.6" r="15.48"/><path class="hat-4" d="M50.24,136.13c16.27-1.42,22.41-1.55,39.07-.7l6.64-85.04-10.16-20.39c5.92-2.17,10.16-7.84,10.16-14.52C95.95,6.93,89.02,0,80.47,0s-15.48,6.93-15.48,15.48c0,5.89,3.3,11.02,8.14,13.63l-16.93,23.38-5.96,83.65Z"/><path class="hat-3" d="M243.74,188.93l45.29-99.83c5.52,1.25,12.03-2.8,15.24-9.82,3.55-7.77,1.72-16.23-4.1-18.89s-13.41,1.49-16.97,9.26c-2.52,5.52-2.32,11.37,.09,15.26l-41.55,24.62-3.91-24.32-37.01,80.97c27.94,12.4,42.92,22.75,42.92,22.75Z"/></g></g></g></g></svg>
