<?xml version="1.0" encoding="UTF-8"?><svg xmlns="http://www.w3.org/2000/svg"><defs><style>.hat-1{fill:#be1e2d;}.hat-2{fill:#474747;}.hat-3{isolation:isolate;}.hat-4{mix-blend-mode:multiply;opacity:.25;}</style></defs><g class="hat-3"><g id="Layer_2"><g id="Hats"><g id="Hat-Top"><path class="hat-2" d="M331.85,271.36c-72.18-37.68-180.17-53.29-254.11-13.64,5.05-2.71,5.23-44.69,5.86-51.36,1.77-18.55,3.23-37.13,4.53-55.72,2.52-35.89,1.09-71.75,5.9-107.55,1.12-8.3,2.63-16.99,7.92-23.48,5.84-7.16,15.19-10.31,24.13-12.63C157.81-1.25,190.97-1.45,223.34,2.51c40.72,4.98,78.66,10.47,114.51,31.89,7.01,4.19,13.97,8.93,18.58,15.68,10.36,15.18,5.09,32.04,2.01,48.44-2.87,15.28-6.46,30.26-9.83,45.64-3.59,16.42-7.68,32.82-10.69,49.36s-5.11,33.3-6.58,49.97c-.65,7.34-3.67,21.02,.5,27.86Z"/><path class="hat-1" d="M331.85,271.36c-72.18-37.68-180.17-53.29-254.11-13.64,5.05-2.71,5.23-44.69,5.86-51.36,.7-7.37,1.27-14.75,1.92-22.13,.43-4.85-.55-14.92,2.34-19s14.06-5.7,18.68-6.79c13.25-3.13,27.47-4.02,41.02-5.21,14.2-1.25,28.47-1.73,42.73-1.45,27.57,.53,55.09,3.91,81.97,10.08,14.08,3.23,27.98,7.23,41.62,11.99,6.6,2.3,23.36,8.67,25.57,11.74,0,0-1.44,7.36-2.06,10.96-.8,4.59-1.55,9.31-2.23,13.95-1.59,10.96-2.83,21.96-3.81,32.99-.65,7.34-3.67,21.02,.5,27.86Z"/><path class="hat-2" d="M64.15,300.7c-.53,1.3-33.66-13.9-35.74-15.25-23.54-15.26-40.15-32.13-18.01-60.63,25.52-32.85,136.81-37.33,166.74-37.35,50.31-.05,101.63,7.35,150.76,18.16,30.08,6.61,82.4,34.06,84.33,56.16,2.92,33.49-19.7,44.36-46.04,46.99-9.16,.92-16.44,2.29-22.63-4.23-4.57-4.82-7.79-12.19-11.11-17.85-17.26-29.48-58.72-35.07-89.37-38.87-30.62-3.8-61.64-6.54-92.47-3.87-22.41,1.94-60.52,4.65-73.42,26.69-6.34,10.83-9.44,19.72-13.04,30.05Z"/><path class="hat-4" d="M63.56,299.36c-6.4,2.34-29.44-10.21-35.15-13.91-14.34-9.3-34.75-27.03-23.32-41.14,5.61-6.93,18.74-17.84,26.99-21.23,77.66-31.92,188.79-25.82,282-5.09,32.11,7.14,54.64,16.6,80.81,36.53,5.02,3.82,9.89,8.16,12.62,13.85,13.19,27.48-23.54,38.64-41.32,40.42-6.92,.69-14.13,1.98-20.26-2.13-6.47-4.34-6.73-12.06-11.51-17.23-10.91-11.82-38.83-16.43-53.91-20.49-39.58-10.68-80.9-14.89-121.82-12.24-17.87,1.16-35.82,3.64-52.61,9.89-8.55,3.18-16.77,7.37-24.21,12.68-4.1,2.93-8.28,6.17-11.65,9.94-1.49,1.66-4.86,9.22-6.19,9.96-.15,.08-.32,.16-.49,.22Z"/></g></g></g></g></svg>
