<?xml version="1.0" encoding="UTF-8"?><svg xmlns="http://www.w3.org/2000/svg"><defs><style>.tiara-1{stroke-width:6px;}.tiara-1,.tiara-2,.tiara-3{stroke-linejoin:round;}.tiara-1,.tiara-2,.tiara-3,.tiara-4{fill:none;stroke-linecap:round;}.tiara-1,.tiara-2,.tiara-4{stroke:#cacbd8;}.tiara-2{stroke-width:5px;}.tiara-5{mix-blend-mode:multiply;opacity:.12;}.tiara-3{stroke:#e9ebf9;stroke-width:2px;}.tiara-4{stroke-miterlimit:10;stroke-width:8px;}.tiara-6{isolation:isolate;}</style></defs><g class="tiara-6"><g id="Layer_2"><g id="Hats"><g id="Hat-Tiara"><path class="tiara-5" d="M22.42,67.44c31.43,4.84,63.42-.97,95.22-1.01,10.9-.01,24.34,.09,34.04-4.88,.3,3.83-2.23,5.55-5.61,7.4-6.49,3.53-21.89,5.21-29.16,5.77-17.64,1.37-27.43,1.88-45.13,1.74-20.39-.17-40.8-2.01-60.74-6.32-2.51-.54-5.09-1.16-7.13-2.71-1.09-.83-3.92-4.12-2.63-5.69,1.01-1.22,4.91,1.47,6.24,1.98,4.78,1.86,9.84,2.93,14.9,3.71Z"/><path class="tiara-4" d="M4.43,60.73c14.77,5.76,50.45,7.62,68.55,7.62,37.87,0,59.41-2.01,75.07-6.38"/><path class="tiara-1" d="M3.03,60c4.44-15.21,9.47-26.64,18.99-40.14,11.4,17.5,21.1,31.56,36.72,46.48,16.59-14.92,27.11-27.74,41.7-46.55,6.34,8.59,13.04,18.3,20.28,26.15s16.46,14.82,27.9,15.16"/><path class="tiara-1" d="M116.61,41.07c-4.28,8.97-10.48,16.98-17.37,24.14-10.94-9.28-22.57-44.78-38.83-62.18-15.47,15.37-24.57,40.46-39.45,59.37-3.91-7.62-8.97-13.37-10.85-21.72"/><path class="tiara-2" d="M56.28,63.45c-3.45-4.35-6.72-10.07-8.85-15.28s-3.03-11.16-1.63-16.64c.54-2.1,1.48-4.19,3.15-5.43,1.97-1.45,4.73-1.43,6.8-.14s3.3,3.41,3.72,5.09c.54,2.18-.3,4.67-1.89,6.15s-4.28,1.63-5.74,0"/><path class="tiara-2" d="M63.09,62.32c3.45-4.35,6.72-8.93,8.85-14.15s3.03-11.16,1.63-16.64c-.54-2.1-1.48-4.19-3.15-5.43-1.97-1.45-4.73-1.43-6.8-.14s-3.28,3.36-3.72,5.09c-.55,2.17,.3,4.67,1.89,6.15s4.28,1.63,5.74,0"/><path class="tiara-2" d="M59.85,26.83c-6.17-8.73-3.8-18.17,.56-23.8,5.16,5.88,5.87,16.08-.56,23.8Z"/><path class="tiara-2" d="M57.42,62.69c-1.85-2.67-2.69-5.89-2.35-9.02s2.2-6.15,4.58-8.46c2.53,2.21,4.61,6.07,4.65,9.24,.04,3.92-2.36,7.28-3.68,8.38"/><path class="tiara-2" d="M32.11,60.29c-.04-.07-.08-.13-.12-.2-2.94-5.18,1.25-11.76,7.31-9.59,2.41,.87,4.24,3.05,4.93,5.52,.59,2.12,.33,4.6-1.19,6.2-1.05,1.11-2.59,1.67-4.12,1.73-2.7,.11-5.41-1.35-6.82-3.65Z"/><path class="tiara-2" d="M77,51.86c3.43-1.48,8.24-.23,10.14,3.11,.93,1.64,1.14,4.12,.42,5.88-1.02,2.48-3.41,4.26-6.01,4.92-2.08,.52-4.42,.36-6.15-.9-1.52-1.1-2.41-2.92-2.63-4.78-.3-2.55,.63-5.22,2.46-7.03,.53-.53,1.13-.92,1.77-1.19Z"/><path class="tiara-2" d="M34.35,40.61c-.46-2.27-2.84-4.72-5.9-4.72-2.52,0-5.17,1.8-6.3,4.05-.98-2.15-3.71-3.42-6.05-3.15s-4.57,2.24-5,4.42"/><line class="tiara-2" x1="22.15" y1="39.95" x2="21.27" y2="60.01"/><path class="tiara-2" d="M85.2,41.5c.51-3.4,4.35-6.16,7.26-6.16,3.78,0,5.89,2.83,7.08,5.79,.93-3.22,4.16-5.4,7.52-5.55s6.7,2.32,7.92,5.44"/><line class="tiara-2" x1="99.55" y1="41.13" x2="99.24" y2="65.21"/><path class="tiara-2" d="M110.04,52.56c4,3.28,6.37,7.47,8.91,11.98,.55-4.79,3.88-9.53,7.41-12.82"/><path class="tiara-3" d="M1,60.47C3.03,48.56,14.71,22.8,21.71,17.71"/><path class="tiara-3" d="M22.54,25.29c1.35,2.94,3.01,5.74,4.92,8.34-1.85-.08-3.71,.92-4.67,2.5"/><path class="tiara-3" d="M19.67,40.75l-.46,12.35"/><path class="tiara-3" d="M24.36,52.9l7.53-11.72"/><path class="tiara-3" d="M35.54,34.28c4.88-7.99,9.18-14.74,14.42-22.5,2.66-3.95,5.82-8.1,9.76-10.78"/><path class="tiara-3" d="M43.29,33.59c-.76,3.68-.69,7.52,.2,11.17"/><path class="tiara-3" d="M53.71,16.05c-.38,2.3-.2,4.69,.5,6.92"/><path class="tiara-3" d="M60,22.12c2.44-4.33,2.71-9.82,.7-14.37"/><path class="tiara-3" d="M67.1,16.95c1.2,1.89,2.22,3.89,3.05,5.97"/><path class="tiara-3" d="M35.97,44.73c.36,.94,.91,1.82,1.59,2.56"/><path class="tiara-3" d="M38.48,51.92c.96,.01,4.29,1.82,4.29,5.09,0,3.84-2.27,4.83-3.7,5.31"/><path class="tiara-3" d="M53.35,27.79c1.21,.39,2.31,1.15,3.02,2.21s.98,2.41,.65,3.64-1.29,2.29-2.51,2.65"/><path class="tiara-3" d="M64.49,28.53c1.93-1.02,4.46,0,5.73,1.78s1.55,4.07,1.56,6.26c.01,5.5-1.49,11-4.3,15.73"/><path class="tiara-3" d="M59.66,49.91c1.29,1.52,2,3.51,1.97,5.5s-.8,3.96-2.14,5.44"/><path class="tiara-3" d="M76.48,33.5c1.4,2.14,2.67,4.38,3.79,6.68-1.58,1.7-3.16,3.4-4.74,5.1"/><path class="tiara-3" d="M53.52,53.8c.52-3.98,2.69-7.72,5.89-10.15"/><path class="tiara-3" d="M6.93,57.56c2.89,.95,5.86,1.67,8.87,2.17"/><path class="tiara-3" d="M24.63,61.64l5.39,.85"/><path class="tiara-3" d="M45.25,63.64l6.39,.5"/><path class="tiara-3" d="M65.2,64.7c1.93,.32,3.89,.41,5.84,.25"/><path class="tiara-3" d="M80,52.72c1.94-.22,3.97,.66,5.14,2.23s1.42,3.77,.65,5.56-2.54,3.12-4.48,3.36"/><path class="tiara-3" d="M82.87,46.03l2.09,2.94"/><path class="tiara-3" d="M90.41,59.11c1.05,1.64,2.24,3.19,3.57,4.61-.97-.01-1.82,.28-2.79,.27"/><path class="tiara-3" d="M71.31,64.92c-.36-1.43-.61-2.89-.74-4.35"/><path class="tiara-3" d="M90.2,38.81c1.72-.5,3.74-.96,5.15,.14,1.29,1,1.47,2.85,1.54,4.48,.2,4.48,.4,8.96,.61,13.43"/><path class="tiara-3" d="M102.25,57.72l6.52-7.99c1.03-1.26,2.07-2.54,2.71-4.03s.84-3.26,.15-4.73-2.4-2.51-3.97-2.09"/><path class="tiara-3" d="M99.64,36.64c2.15-1.75,4.76-2.94,7.49-3.43-2.28-2.83-4.29-5.89-5.98-9.11"/><path class="tiara-3" d="M84.55,35.22c4.55-5.97,9.36-11.75,14.4-17.32"/><path class="tiara-3" d="M110.95,56.28l4.97,6.95c-3.48,.09-6.96,.49-10.38,1.19"/><path class="tiara-3" d="M126.29,55.2c3.08,2.13,6.33,4.01,9.72,5.62-4.4,.66-8.79,1.31-13.19,1.97"/><path class="tiara-3" d="M116.92,46.73l5.74,4.94c-2.33,1.46-3.97,3.96-4.41,6.67"/></g></g></g></g></svg>
