<?xml version="1.0" encoding="UTF-8"?><svg xmlns="http://www.w3.org/2000/svg"><defs><style>.hat-1{fill:#b4b6c8;}.hat-2{fill:#9193a3;}.hat-3{fill:#494c67;}.hat-4{isolation:isolate;}.hat-5{mix-blend-mode:multiply;opacity:.18;}</style></defs><g class="hat-4"><g id="Layer_2"><g id="Hats"><g id="Hat-Headphones"><path class="hat-2" d="M48.77,84.07c-1.5,1.82-3.5,3.27-5.5,4.87-7,5.61-14.01,11.22-21.01,16.83-1.01,.81-2.19,1.67-3.48,1.47-4.82-.74,6.48-27.75,8.11-31,8.37-16.65,21.12-30.33,35.14-42.4,5.49-4.73,11.23-9.28,17.25-13.32,2.33-1.56,5.51-2.22,8.12-3.3,3.43-1.41,6.91-2.69,10.51-3.61,1.75-.45,3.52-.26,5.32-.46,2.57-.28,5.15-.52,7.72-.71s5.16-.34,7.74-.44c2.39-.09,5.09,.23,7.45-.17-9.14,1.56-21.67,6.95-29.77,11.39-8.67,4.76-14.85,10.2-21.86,17.43-7.44,7.68-13.69,16.53-18.38,26.15-2.13,4.37-3.95,8.89-5.34,13.54-.43,1.44-1.14,2.65-2.03,3.72Z"/><path class="hat-5" d="M48.47,83.48c-2.79,2.36-6.96,4.36-9.35,6.24-8.42,6.64-16,14.34-22.48,22.88,1.17-5.74,1.48-11.55,2.97-17.26,1.62-6.18,3.9-12.17,6.7-17.91,5.43-11.14,12.78-21.39,21.55-30.14,2.55-2.55,5.28-4.91,8.15-7.1s5.49-4.56,8.22-6.96c4.98-4.38,10.22-8.48,15.66-12.28,5.13-3.57,11.99-5.79,18.01-7.33,1.75-.45,3.52-.26,5.32-.46,2.57-.28,5.15-.52,7.72-.71s5.16-.34,7.74-.44c2.39-.09,5.09,.23,7.45-.17-9.14,1.56-21.58,6.8-29.77,11.39-8.63,4.84-14.85,10.2-21.86,17.43-7.44,7.68-13.69,16.53-18.38,26.15-1.19,2.45-2.29,4.95-3.27,7.49-.79,2.03-1.1,4.72-2.14,6.6-.5,.91-1.3,1.77-2.26,2.58Z"/><path class="hat-1" d="M4.4,112.53C.82,122.1-.18,132.47,.02,142.69c.18,9.34,1.46,19.01,6.43,26.91,1.84-6.76,3.38-13.6,4.59-20.5,2.74-15.58,3.87-31.45,7.57-46.86,.5-2.1,1.06-4.19,1.67-6.27,.51-1.74,1.97-4.43,1.79-6.13-1.86,.25-4.28,2.91-5.65,4.19-1.8,1.68-3.44,3.53-4.93,5.49-3,3.95-5.36,8.36-7.09,13Z"/><path class="hat-3" d="M264.62,77.26c-8.82-1.09-21.88-1.3-29.4,4.31-9.82,7.33-15.77,21.28-17.46,32.7-2.24,15.09-1.65,30.39-.02,45.56,1.2,11.17,5.45,23.84,14.58,31.68,2.67,2.29,6.21,3.31,9.7,3.79,9.83,1.33,22.65,3.8,30.88-2.62,7.33-5.73,6.94-12.08,9.55-19.93s8.07-15.63,10.59-24.24c5.45-18.57,6.59-40.76-4.62-57.53-5.35-8.01-14.09-12.47-23.5-13.68-.1-.01-.2-.02-.29-.04Z"/><path class="hat-2" d="M278.83,101.2C272.83,16.92,174.78-13.93,104.1,5.71,64.96,16.58,30.05,49.42,20.83,90.41c-3.16,14.03-9.87,28.49-10.41,42.86-.09,2.35,1.37,5.76,3.42,4.61,.75-.42,.06-1.33,.29-2.16,6.02-21.11,10.47-43.58,20.29-63.21,10.8-21.59,35.35-45.74,57.77-53.87,20.36-7.39,46.43-6.37,68.06-4.13,12.6,1.51,24.6,4.53,36.09,9.76,8.59,3.91,17.79,11.83,24.76,18.2,11.43,10.46,20.84,25.91,26.34,40.72,6.27,16.88,6.84,36.38,5.97,54.17,.62-1.18,1.17-2.38,1.69-3.59-.03,.3-.04,.59-.07,.89,9.69-5.2,20.3-11.51,23.15-22.14,.99-3.67,.92-7.54,.65-11.33Z"/><path class="hat-5" d="M147.41,13.48c17.35,.77,33.59,3.82,48.92,10.79,8.59,3.91,17.79,11.83,24.76,18.2,11.43,10.46,20.84,25.91,26.34,40.72,6.27,16.88,6.84,36.38,5.97,54.17,5.66-12.39,11.8-14.14,3.07-49.34-2.45-9.86-6.52-19.33-12.27-27.72-5.11-7.46-10.72-14.52-17.49-20.41-10.15-8.82-17.15-13.6-27.67-18.23-14.91-6.55-35.05-9.6-51.63-8.19Z"/><path class="hat-1" d="M242.2,168.16c1.95,7.49,5.01,15.29,11.44,19.6,7.46,4.99,17.88,3.79,25.38-1.14,7.5-4.93,12.45-12.95,15.86-21.25,5.87-14.28,7.8-30.16,5.52-45.43-1.82-12.23-6.79-24.69-16.78-31.97-7.05-5.13-17.1-6.86-25.3-3.64-9.26,3.64-11.87,9.8-14.64,18.87-6.42,20.97-7,43.73-1.48,64.96Z"/><path class="hat-2" d="M252.89,163.59c1.73,6.66,4.45,13.59,10.17,17.42,6.63,4.44,15.37,2.45,22.56-1.01s11.81-10.44,14.45-17.96c4.52-12.88,6.58-27.73,4.56-41.3-1.62-10.87-6.03-21.95-14.92-28.42-6.26-4.56-15.2-6.1-22.49-3.23-8.23,3.23-10.55,8.71-13.02,16.78-5.7,18.64-6.22,38.86-1.31,57.74Z"/><path class="hat-3" d="M9.6,156.95c-1.95-7.23-1.18-14.84-1.17-22.27,0-7.91,.51-15.87,2.33-23.59,4.04-17.14,15.09-32.11,33.33-34.91,0,0,5.6-.39,10.2-.21,4.19,.16,8.5,.62,11.94,2.11-13.83,10.08-25.26,20.63-34.76,34.02-4.29,6.05-8.59,13.09-12.01,19.66-2.25,4.32-4.11,9.05-5.95,13.59-1.13,2.77-3.45,10.44-3.92,11.6Z"/></g></g></g></g></svg>
