<?xml version="1.0" encoding="UTF-8"?><svg xmlns="http://www.w3.org/2000/svg"><defs><style>.hornhelmet-1{fill:#9e9682;}.hornhelmet-2{fill:#bcbec0;}.hornhelmet-3{isolation:isolate;}.hornhelmet-4{opacity:.18;}.hornhelmet-4,.hornhelmet-5{mix-blend-mode:multiply;}.hornhelmet-5{opacity:.35;}</style></defs><g class="hornhelmet-3"><g id="Layer_2"><g id="Hats"><g id="Hat-HornHelmet"><path class="hornhelmet-1" d="M114.92,203.24c2.96-7.28,8.42-21.17,4.64-28.92-13.64-4.74-46.13-14.13-56.29-21.41s-17.97-23.23-15.47-35.48c2.08-10.21,10.18-17.89,16.11-26.46,13.65-19.71,15.9-46.76,5.7-68.45-1.67-3.54-4.82-7.49-8.6-6.49-4.19,1.11-4.51,6.8-4.56,11.14-.23,20.33-13.91,37.77-27.56,52.83C15.23,95.04,4.74,110.04,.94,130.01c-5.23,27.42,12.01,55.14,35.97,69.46,18.48,11.05,58.31,26.19,62.55,25.06,6.7-1.79,13.26-15.86,15.46-21.28Z"/><path class="hornhelmet-4" d="M117.11,187.99c.98,.14,1.95,.27,2.93,.39-.03-2.39,2.6-12.98-.48-14.06-13.64-4.74-46.13-14.13-56.29-21.41s-18.26-23.3-15.47-35.48c.34-1.47,2.4-5.25,0-4.7-2.13,.49-4.69,4.34-5.91,6-3.45,4.71-5.62,10.38-6.06,16.22-.41,5.37,.64,10.82,2.91,15.7,2.04,4.39,5.23,9.29,8.92,12.43,8.94,7.6,19.73,12.58,30.47,17.09,6.05,2.54,12.5,5.06,19.17,4.83,1.49-.05,2.94-.44,4.39-.2,1.61,.27,3.26,.9,4.87,1.26,3.49,.78,7.01,1.43,10.55,1.94Z"/><path class="hornhelmet-4" d="M30.57,253.55c-1.11,2.5-2.42,5.01-3.28,7.59,3.73,.06,9.23-3.29,12.95-4.4,5.47-1.63,10.99-3.07,16.55-4.32,10.06-2.27,20.23-3.79,30.47-4.95,3.97-.45,8.33-.83,9.43,3.41s-2.46,9.17-1.8,13.45c1.36,8.78,3.39,17.46,6.07,25.94,.97,3.06,2.28,6.4,5.16,7.82,7.54,3.7,14.56-7.97,18.75-12.35,4.22-4.34,8.37-8.75,12.55-13.12,3.48-3.64,8.45-8.86,7.63-14.14s-2.78-8.45-5.27-12.6c5.38-.4,27.84,3.23,33.55,4.01,9.41,1.31,18.69,3.3,28.01,5.04,7.2,1.35,15.48,3.87,19.56,10.46,3.11,5.02,3.06,11.31,3.06,17.22-.01,16.34,5.88,65.28,7.58,73.4,1.04,4.97,2.09,15.15,6.86,18.15,5.28,3.32,10.95-2.45,14.89-5.37,5.44-4.03,10.75-8.17,15.81-12.66,7.76-6.89,15.32-14.27,21.05-22.98,2.87-4.36,5.27-9.08,6.67-14.12,.68-2.46,1.11-4.99,1.26-7.55,.17-2.95-2.08-3.92-4.23-5.56-.64-.49-1.26-.98-1.82-1.56-1.85-1.92-1.95-3.98-3.1-6.28-3.14-6.31-8.48-12.28-12.78-17.85-8.79-11.38-18.62-22.08-30.26-30.6-17.88-13.08-39.38-20.53-61.18-24.51-21.8-3.98-44.04-4.66-66.19-5.33-16.37-.5-33.03-.96-48.81,3.4-15.78,4.36-32.46,15.42-39.12,30.38Z"/><path class="hornhelmet-2" d="M287.66,272.26c-.21-.35-.05-1.42-.07-1.81-.08-1.72-.22-3.44-.38-5.16-.57-6.11-1.49-12.19-2.71-18.21-1.73-8.54-4.06-16.96-7.04-25.15-3.53-9.69-7.97-19.06-13.44-27.8-6.05-9.68-13.37-18.56-21.89-26.16-9.56-8.53-20.57-15.34-32.42-20.23-5.53-2.28-11.23-4.15-17.03-5.64-1.5-.38-3.28-.54-4.7-1.13-1.62-.68-3.05-1.8-4.75-2.43-3.86-1.43-7.97-2.01-12.03-2.58-5.44-.76-13.61-.81-19.1-.65-4.87,.14-9.48,1.56-11.51,2.46-3.73,1.64-8.31,1.94-12.29,2.93-7.98,1.98-15.73,4.83-23.12,8.41-13.49,6.55-25.79,15.51-36.38,26.11-8.36,8.36-15.95,17.84-21.4,28.37-1.68,3.25-3.19,6.64-4.14,10.18-.36,1.34-4.66,2.58-5.24,3.79-9.89,20.6-14.27,42.4-14.27,42.4,0,0,.6,1.8,3.2,2.28,.83-.93,3.71-5.43,3.71-5.43,10.28-4.2,33.39-11.75,65.78-14.32-3.7,4.49-7.96,10.68-10.49,14.63-.96,1.5-1.06,3.39-.23,4.97,5.93,11.2,10.55,22.67,17.82,33.53,1.73,2.58,5.39,2.93,7.58,.74,11.18-11.21,19.7-21.49,29.56-33.57,1.47-1.81,1.73-4.11,.64-6.17-2.8-5.33-4.5-10.78-7.15-14.36,23.02,1.02,49.52,4.47,79.36,11.82,6.37,1.57,11,7.08,11.45,13.63,1.63,23.49,5.89,78.49,11.21,97.87,.77,2.82,4,4.16,6.55,2.72,14.44-8.13,54.31-38.06,58.19-66.31,0,0-5.74-17.29-13.26-29.7Z"/><path class="hornhelmet-4" d="M229.22,271.02c-.53-5.09-.57-8.21-4.3-12.95-2.66-3.38-8.35-6.82-12.56-7.7-23-4.8-43.37-9.49-84.36-11.7,4.2,6.65,9.71,17.51,9.39,20.08-.5,4.06-18.51,24.28-23.17,28.7-1.73,1.64-7.06,6.87-10.68,8.14,1.73,2.58,5.39,2.93,7.58,.74,11.18-11.21,19.11-20.45,29.56-33.57,1.45-1.83,1.72-4.1,.65-6.17-3.1-6.01-4.5-10.78-7.15-14.36,23.02,1.02,49.52,4.47,79.36,11.82,6.37,1.57,11,7.07,11.46,13.62,1.63,23.49,5.89,78.49,11.21,97.87,.77,2.82,4,4.16,6.55,2.72,1.66-.94,3.65-2.28,5.27-3.22-1.1,.66-2.63,1-4.09,.97s-2.66-1.03-2.99-2.42c-6.71-28.08-11.24-88.01-11.72-92.57Z"/><path class="hornhelmet-4" d="M106.69,199.87c3.01-8.16,5.16-16.52,8.66-24.52s7.87-16.06,12.82-23.5c-2.57,1.82-4.46,4.41-6.26,6.99-6.5,9.32-11.3,20.37-18.81,29.22-7.34,8.65-17.57,13.46-28.41,16.14-5.27,1.31-10.63,2.11-15.99,2.92-1.89,.29-13.87,1.99-14.2,2.78-.39,.93-.71,3-1.55,4.25,7.75-1.59,15.55-3.29,23.38-4.48,11.25-1.7,22.42-2.39,33.73-3.18,1.57-.11,3.21-.54,4.28-1.69,.65-.7,1.04-1.6,1.4-2.48,.33-.81,.65-1.63,.95-2.45Z"/><path class="hornhelmet-4" d="M287.03,267.71c-6.18,13.83-18.63,36.76-23.88,39.55-3.27-15.73-6.61-33.14-8.3-49.12-1.9-17.91-.5-24.33-11.72-33.14-2.71-2.13-6.91-3.1-10.09-4.21-7.28-2.53-14.69-4.68-22.14-6.65-12.79-3.37-25.71-6.25-38.77-8.33-6.53-1.04-13.09-1.87-19.68-2.46-1.58-.14-3.15-.27-4.73-.38-1.06-.08-4.2,.29-5.01-.31-1.26-.93,.39-6.43,.69-8.06,1.95-10.74,5.13-21.42,10.89-30.77,7.2-11.69,18.99-21.16,32.62-22.86-.53-1.37-2.36-1.57-3.82-1.44-8.6,.73-16.67,5.02-22.88,11.01-6.21,6-10.67,13.62-13.93,21.61-3.83,9.41-7.48,20.41-8.44,30.58-.08,.83-.11,1.74,.4,2.4,1.47,1.91,6.2,1.6,8.28,1.79,3.66,.34,7.32,.75,10.97,1.22,7.36,.95,14.69,2.14,21.98,3.53,14.57,2.77,29,6.29,43.29,10.23,2.53,.7,5.06,1.41,7.58,2.13,3.78,1.08,7.64,2.39,10.91,4.46,2.82,1.79,5.21,4.15,6.73,7.43,3.67,7.92,3.11,16.98,4.5,25.41,1.69,10.31,6.04,44.33,8.54,53.74,13.37-10.83,22.3-26.84,26.66-42.81,0,0-.1-2.45-.63-4.54Z"/><path class="hornhelmet-4" d="M253.57,215.18c2.07,2.78,3.61,4.44,6.17,6.52s5.89,3.42,9.15,2.93,5.73-2.72,6.58-5.27c.79-2.35-1.41-6.72-3.18-8.46s-3.66-1.09-5.81-2.33c-9.88-5.7-18.94-12.78-26.88-20.97,3.93,9.46,7.85,19.36,13.98,27.58Z"/><path class="hornhelmet-4" d="M26.95,262.23c-.99,.05-2.95-1.17-3.2-2.28,0,0,.79-1.56,1.49-2.46,4.42-5.62,10.35-6.89,16.65-8.77,18.41-5.5,38.47-8.64,57.63-10.04-1.21,1.18-3.08,3.8-3.08,3.8,0,0-37.12,2.51-65.78,14.32l-3.71,5.43Z"/><path class="hornhelmet-2" d="M264.99,187.19c-3.84-6.45-8.48-13.34-14.59-17.87-1.93-1.43-3.52-2.27-5.84-1.95-2.72,.37-6.9,1.09-8.04,4.01-.76,1.94-.28,4.45,.11,6.41,1.48,7.45,5.13,14.6,8.99,21.07,3.97,6.66,8.7,13.6,14.87,18.43,1.56,1.22,3.65,2.79,5.76,2.72,3.36-.12,6.9-2.53,7.91-5.77,1.14-3.64-1.04-9.48-2.26-12.96-1.74-4.95-4.22-9.6-6.9-14.09Z"/><path class="hornhelmet-5" d="M264.99,187.19c7.81,13.11,11.16,25.53,7.47,27.73s-13.02-6.65-20.83-19.76c-7.81-13.11-11.38-25.96-7.47-27.73,3.71-1.67,13.02,6.65,20.83,19.76Z"/><path class="hornhelmet-1" d="M253.77,195.63c-4.11-6.81-11.76-19.82-9.21-28.17,12.88-6.89,43.86-21.42,52.86-30.31s14.27-26.06,9.84-37.9c-3.7-9.87-13-16.27-20.29-23.89-16.76-17.53-23.29-44.21-16.53-67.5,1.1-3.8,3.63-8.25,7.57-7.85,4.36,.45,5.58,6.08,6.31,10.41,3.44,20.27,19.88,35.54,35.9,48.42s28.88,26.21,35.84,45.56c9.56,26.57-3.27,56.99-24.94,75.1-16.72,13.96-54.12,35.4-58.54,34.94-6.98-.73-15.76-13.75-18.82-18.82Z"/><path class="hornhelmet-4" d="M304.57,126.86c5.21-10.57,4.27-19.38,4.08-21.16-.45-4.14-1.77-8.25-4.02-11.76-4.64-7.24-11.77-12.42-17.65-18.57-6.66-6.97-11.71-15.4-14.95-24.46-2.97-8.32-4.53-19.38-4.17-28.02,2.86,10.15,6.25,20.65,11.91,29.62,4.27,6.77,9.96,12.51,15.76,17.96,6.65,6.24,15.22,12.06,18.95,20.82,3.25,7.64,1.63,25.72-9.9,35.57Z"/><path class="hornhelmet-4" d="M255.37,198.17c19.51-6.3,37.93-15.29,55.62-25.81,28.85-17.15,37.87-32.6,41.69-37.33,1.76-2.18,3.28-4.58,4.71-6.98,.45-.75,1.84-2.39,1.87-3.3-.19,6.85-1.56,13.64-3.84,20.1-4.74,13.44-13.36,25.54-24.29,34.67-16.72,13.96-54.13,35.51-58.54,34.94-5.33-.7-11.01-6.39-17.22-16.28Z"/></g></g></g></g></svg>
