<?xml version="1.0" encoding="UTF-8"?><svg xmlns="http://www.w3.org/2000/svg"><defs><style>.sherlock-1{fill:#7e8198;}.sherlock-2{fill:#494c67;}.sherlock-3{stroke-linecap:round;}.sherlock-3,.sherlock-4{fill:none;stroke:#494c67;stroke-linejoin:round;stroke-width:5.26px;}.sherlock-5{isolation:isolate;}.sherlock-6{mix-blend-mode:multiply;opacity:.18;}</style></defs><g class="sherlock-5"><g id="Layer_2"><g id="Hats"><g id="Hat-Sherlock"><path class="sherlock-6" d="M154.73,184.77c13.23-2.97,26.24-6.83,39.13-11.01,4.18-1.35,8.38-3.82,12.75-4.47,4.09-.61,7.79,2.05,11.49,3.77,4.64,2.16,9.33,4.34,14.34,5.34,12.23,2.45,26.89-3.23,36.72-10.21,1.21-.86,7.17-5.44,8.24-6.79,0,0-3.29-5.18-4.59-6.96-1.54-2.1-4.95,.95-6.67-.99-4.69-5.28-11.4-9.12-17.88-11.72-10.91-4.39-22.75-5.79-34.44-7.07-28.4-3.13-57-5.85-85.51-4.01-10.03,.65-20.02,1.87-29.88,3.82-5.04,1-10.05,2.19-14.99,3.59-3.84,1.09-7.94,3.2-11.82,3.66-8.83,1.19-17.59,.91-26.37,2.42-8.73,1.5-15.33,8.4-18.09,16.61-1.14,3.39-4.46,4.32-2.43,7.26,1.44,2.08,7.05,6.47,9.31,7.62,20.67,10.58,44.36,11.63,67.12,12.24,18.41,.5,35.29,.99,53.55-3.1Z"/><path class="sherlock-1" d="M30.23,135.33s123.53,24.91,240.08,22.34c0,0,6.43-123.71-98.73-138.29C63.87,4.44,30.23,135.33,30.23,135.33Z"/><path class="sherlock-1" d="M58.16,176.76c69.12,9.61,93,5.11,157.93-21.9-51.52-1.68-67.86-3.8-107.05-10.62-20.1-3.5-56.34-16.1-70.43-30.86-5.76,1.5-35.88,7.77-38.52,30.41-2.25,19.22,38.96,30.32,58.07,32.98Z"/><path class="sherlock-1" d="M288.93,123.56c4.69,3.31,9.44,6.67,13.12,11.08s6.21,10.08,5.68,15.79c-.77,8.35-7.97,14.98-15.91,17.69-2.92,1-6.18,1.77-9.26,1.98-1.58-3.05-6.93-11.67-8.13-13.2-2.25-2.85-5.54-4.1-9.04-4.4-3.28-.28-7.21,.6-10.32-.57-.56-.21-5.44-2.04-5.42-2.39-.07-7.53-1.16-15.02-.91-22.61,.19-5.84,.64-13.34,4.98-17.79,9.82-10.05,27.24,8.83,35.2,14.41Z"/><path class="sherlock-6" d="M282.19,131.33c1.48,1.22,2.94,2.47,4.38,3.74,4.55,4.01,9.03,8.39,11.45,13.95,1.54,3.54,2.1,7.64,1.23,11.42-1.07,4.61-3.49,6.1-7.76,7.57-2.46,.85-6.35,1.75-8.93,2.09-1.78-3.44-6.55-11.17-10.02-15.87-.69-.94-6.01-.49-7.04-1.06-1.22-.68-2.66-.76-4.05-.82-1.98-.09-4.63,.24-6.48-.45-.56-.21-5.4-2.03-5.38-2.38-.06-7.53-1.13-15.01-.86-22.59,.13-3.79,.01-8.62,1.69-12.12,1.79-3.74,7.04-.95,9.68,.68,7.72,4.75,15.11,10.05,22.09,15.84Z"/><path class="sherlock-2" d="M120.32,22.56c4.8,0,10.65-1.13,15.56-1.9,5.3-.83,10.95-1.7,16.35-1.99,18.91-.91,38.2,5.52,52.63,17.84,0,0-4.79,5.98-4.79,5.98-5.51-3.89-11.57-7.09-17.9-9.65-9.5-3.78-19.53-6.24-29.76-6.28-10.86-.38-21.7,1.74-32.61-.37,0,0,.52-3.63,.52-3.63h0Z"/><path class="sherlock-1" d="M223.68,134.77c-2.65-15.27-19.16-67.85-44.12-93.31-.89-.91-1.81-2.13-1.44-3.35,.35-1.12,1.62-1.61,2.74-1.94,8.67-2.54,17.31-3.07,26.16-4.33,8.05-1.14,12.76,2.03,18.78,7.26,30.16,26.17,50.08,59.87,57.32,99.13,1.17,6.33,1.91,10.15-2.56,14.78-3.23,3.35-8.96,5.98-13.01,8.27-8.76,4.94-18.71,11.72-27.76,10.94-5.59-.49-11.24-1.32-16.32-3.69-5.37-2.5-9.28-6.22-11.37-11.8,4.1,.18,8.2,.36,12.3,.55,.03,0,1.07-12.13-.73-22.51Z"/><path class="sherlock-6" d="M206.65,104.59c6.07,18.84,8.26,19.7,10,39.42,.79,9.03-1.64,9.48,1.18,12.44,1.51,1.58,3.39,4.7,5.25,3.72,1.18-.62,1.41-3.86,1.45-4.46,.72-12.13-.11-20.84-3.79-32.4-3.68-11.56-6.75-23.64-12.08-34.54-3.06-6.26-7.75-18.61-11.5-24.5-1.87-2.93-3.78-5.73-5.28-7.91-1.14-1.67-3.92-5.42-6-7.86,6.96,13.84,15.97,41.18,20.78,56.09Z"/><path class="sherlock-6" d="M112.54,141.53c26.09,5.85,53.51,6.12,79.54,4.89-58.24,5.26-74.11,2.63-118.42-11.28-15.96-5.01-37.21-21.87-35.05-21.76,1.86,.1,8.98,4.56,10.31,5.51,7.08,5.06,14.62,8.33,21.77,11.12,14.16,5.53,27.01,8.19,41.85,11.52Z"/><path class="sherlock-1" d="M107.72,24.82c-13.59,3.87-25.43,10-36.35,18.87-14.53,11.81-25.96,26.15-30.69,44.51-1.43,5.54-.97,12.81,2.76,17.15-.86-1,15.28-19.76,16.74-21.44,5.52-6.36,11.71-19.6,17.81-25.4,12.18-11.56,25.46-21.73,39.54-30.86,2.67-1.74,5.24-3.49,7.81-5.41-3.2-.94-6.62-.25-9.86,.53-2.6,.62-5.18,1.3-7.75,2.03Z"/><path class="sherlock-6" d="M44.83,86.6c-.99,4.75-1.78,9.97-.85,14.63,1.96-3.73,4.96-6.67,6.75-10.43,7.52-15.79,17.41-32.52,29.18-43.46,11.16-10.37,26.03-16.2,39.81-22.08-8.02-1.38-29.72,9.34-33.43,11.56-10.88,6.51-22.62,18.18-30.76,27.9-4.68,5.59-9.19,14.62-10.71,21.87Z"/><path class="sherlock-4" d="M140.47,15.98c-3.23-1.36-6.89-3.57-6.26-7.42,.33-2.03,1.78-3.7,3.65-4.57,6.9-3.19,10.12-.34,15.12,3.8,6.07,5.03,10.29,10.68,13.37,12.81,18.5-7.46,23.67-11.69,28.45-11.74,2.81-.03,5.71,.64,7.89,2.4,7.04,5.7,.49,10.03-5.86,10.6-19.36,1.74-38.22,1.73-56.36-5.89Z"/><path class="sherlock-3" d="M119.99,40.64c11.17-13.1,29.04-20.17,46.15-18.26-1.07,4.58,2.12,9.42,5.4,12.78s7.57,5.53,11.78,7.63"/></g></g></g></g></svg>
