<?xml version="1.0" encoding="UTF-8"?><svg xmlns="http://www.w3.org/2000/svg"><defs><style>.hat-1{fill:#a5325e;}.hat-2{isolation:isolate;}.hat-3{mix-blend-mode:multiply;opacity:.25;}</style></defs><g class="hat-2"><g id="Layer_2"><g id="Hats"><g id="Hat-Beret"><path class="hat-1" d="M285.91,165.9c-6.8-8.27-14.09-10.64-25.09-16.58-.51-.27-1.01-.55-1.52-.82-35.26-18.85-73.34-34.62-112.64-42.48-20.03-4-41.16-6.04-61.36-2.02-9.84,1.96-19.61,6.03-27.96,11.92-4.28,3.02-7.82,6.94-11.38,10.77s-7.36,9.58-10.4,13.83c-2.11-3.89-1.57-11.68-3.26-16.06-2.08-5.38-5.12-10.35-8.26-15.17C14.22,94.22-3.82,64.19,.72,45.69,11.05,3.55,77.19-.64,111.31,4.85c34.56,5.56,64.29,31.07,100.11,30.24,16.42-.38,30.16,.4,46.23,5.81,32.38,10.91,61.29,32.38,80.36,60.81,15.25,22.73,5.99,49.18-18.28,56.31-11.78,3.46-20.96,4.81-30.27,12.83-1.18-1.87-2.36-3.5-3.55-4.95Z"/><path class="hat-3" d="M251.02,153.81c-27.74-14.73-56.67-27.81-87.42-34.82-27.37-6.24-56.42-7.21-83.82-.58-6.75,1.63-13.39,3.72-19.82,6.33-5.79,2.35-12.69,8.1-18.58,9.34-9.57,2.01-11.89-16.42-17.33-24.77C11.12,89.46-1.25,63.96,.7,40.83c17.93,12.51,44.26,32.21,65.19,38.52,18.38,5.54,35.75,2.76,54.51,4.88,18.86,2.13,37.22,7.32,55.34,12.78,20.71,6.24,41.3,13.21,62.64,17.05s42.14,2.07,63.31,3.05c10.73,.49,21.45,.4,32.17-.11,12.26-.58,11.66-1.85,11.38,11.43-.31,14.85-12.53,26.5-25.52,29.6-6.36,1.52-23.99,5.9-30.27,12.83-.41,.46-28.95-12-38.45-17.05Z"/><path class="hat-1" d="M191.15,19.28c.26-5.19-1.28-10.42-4.18-14.72-1.41-2.09,.36-4.88,2.86-4.53,5.1,.72,9.97,2.74,13.71,6.68,1.44,1.52,2.61,3.29,3.37,5.24,3.92,10.04-3.16,19.14-9.73,26.6-3.39,3.85-12.83,.16-13.26-3.27-.33-2.64,7-11.38,7.23-16Z"/></g></g></g></g></svg>
