<?xml version="1.0" encoding="UTF-8"?><svg xmlns="http://www.w3.org/2000/svg"><defs><style>.nurse-1{fill:#ed1c24;}.nurse-2{fill:#f1f2f2;}.nurse-3{isolation:isolate;}.nurse-4{mix-blend-mode:multiply;opacity:.18;}</style></defs><g class="nurse-3"><g id="Layer_2"><g id="Hats"><g id="Hat-Nurse"><path class="nurse-2" d="M149.25,90.03c-36.88-16.17-88.85-16.21-117.73,.7C21.51,73.86,11.05,50.21,.95,31.93c-1.96-3.55-.79-8.03,2.69-10.11C50.82-6.32,123.79-7.26,171.93,19.13c3.39,1.86,4.82,5.98,3.31,9.53l-26,61.37Z"/><path class="nurse-4" d="M80.41,73.02c17.7-1.01,35.38,1.48,53.03,3.2,3.35,.33,6.92,.58,9.91-.96,2.7-1.4,4.48-4.04,6.13-6.59,9.97-15.41,24.83-42.46,25.76-40-8.55,20.07-15.28,36.13-26,61.37-2.5,3.4-27.05-4.37-41.19-5.97-18.16-2.05-31.76-1.01-49.82,1.72-2.8,.42-23.63,6.45-25.8,5.88-3.22-.84,1.3-3.86,3.24-5.7,3.27-3.11,9.77-4.92,13.9-6.55,4.67-1.85,9.51-3.24,14.42-4.27,5.4-1.13,10.9-1.81,16.41-2.12Z"/><circle class="nurse-1" cx="90.89" cy="38.28" r="29.6"/><rect class="nurse-2" x="85.68" y="17.44" width="10.42" height="41.67"/><rect class="nurse-2" x="85.68" y="17.44" width="10.42" height="41.67" transform="translate(129.17 -52.61) rotate(90)"/></g></g></g></g></svg>
