<?xml version="1.0" encoding="UTF-8"?><svg xmlns="http://www.w3.org/2000/svg"><defs><style>.jester-1{fill:#f9c932;}.jester-2{fill:#f2b02a;}.jester-3{fill:#ffd400;}.jester-4{fill:#be1e2d;}.jester-5{fill:#231f20;}.jester-6{fill:#2e3192;}.jester-7{opacity:.12;}.jester-7,.jester-8{mix-blend-mode:multiply;}.jester-9{isolation:isolate;}.jester-8{opacity:.18;}</style></defs><g class="jester-9"><g id="Layer_2"><g id="Hats"><g id="Hat-Jester"><path class="jester-6" d="M242.7,153.78c8.39-42.42,19.32-94.56,19.32-94.56C293.22,18.13,345.72,3.07,394.45,9.74c120.12,16.43,129.6,125.42,129.6,125.42,0,0-29.66-45.4-88.35-27.58-45.49,13.81-60.22,69.72-66.48,82.72-29.31-.91-128.49-26.57-126.52-36.52Z"/><path class="jester-3" d="M524.05,135.16c-12.86-48.62-51.65-88.47-101.79-97.1-17.93-3.4-36.45-3.35-54.58-1.1-13.71,1.91-26.93,6.48-39.16,12.95-27.96,14.96-51.11,39.05-67.45,66.01-6.62,11.35-12.69,23.19-14.78,35.98-.21,1.51-.28,2.91-.21,3.94,0,0-27,0-27,0,.08-3.19,.49-5.98,1.03-8.61,3.57-16.19,11.98-30.84,21.04-44.19,25.44-36.13,61.66-66.55,105.18-77.21,6.53-1.54,13.18-2.57,19.87-3.07,19.53-1.13,39.32,.19,58.35,5.16,51.45,12.57,89.6,55.87,99.49,107.24h0Z"/><path class="jester-3" d="M524.05,135.16c-7.49-19.68-19.91-37.65-35.88-51.31-26.64-23.17-62.84-28.15-96.33-19.66-46.7,10.24-80.8,49.43-97.86,92.43-2.47,6.17-4.62,12.46-6.26,18.67l-25.79-7.99c10.31-28.53,26.64-54.58,48.18-75.92,21.29-21.14,49.35-36.51,79.12-40.71,28.97-4.73,60.7-.97,85.45,15.59,24.17,15.92,41.26,41.39,49.37,68.91h0Z"/><path class="jester-3" d="M524.05,135.16c-18.74-36.07-54.24-55.4-94.45-46.51-49.16,9.41-78.76,51.51-90.51,97.7,0,0-25.79-7.99-25.79-7.99,8.17-22.6,19.89-43.9,36.05-61.83,24.01-27.23,59.73-43.31,96.13-40.89,35.94,1.69,66.17,26.46,78.56,59.52h0Z"/><path class="jester-5" d="M262.02,59.22c-19.35-29.16-44.06-44.19-75.49-53.53-56.71-16.84-120.38,3.97-147.78,58.06-8.31,16.4-13.06,33.64-14.64,51.97,19.93-21.41,50.79-32.44,78.24-22.35,36.31,13.35,36.21,46.99,44.2,77.92,20.91-.84,95.64-7.17,102.63-13.34l12.84-98.73Z"/><g><path class="jester-4" d="M201.33,72.85c-13.8,12.21-29.96,44.41-32.7,57.86,13.63-3.01,61.47-2.5,80.55,8.83,.84-6.15,2.74-15.01,5.57-24.44l6.9-53.09c-22.41-2.53-46.49,4.03-60.32,10.84Z"/><path class="jester-4" d="M202.08,73.66c5.72-17.28,12.05-40.53,19.19-53.39-1.19-.69-2.39-1.36-3.6-2.02-34.83-.29-55.68,11.85-72.85,19.08-4.06,7.9-8.83,32.36-11.34,50.12,19.97-6.74,43.61-15.47,68.61-13.8Z"/><path class="jester-4" d="M157.06,.37c-3.43-.24-17.2-.37-23.58,.35-22.81,6.94-40.32,24.22-47.07,33.12-1.91,8.73,1.59,27.57,5.66,37.29,15.21-13.3,25.21-23.88,53.84-33.46-.21-9.76,5.49-26.19,11.16-37.3Z"/><path class="jester-4" d="M86.4,33.84c-4.94-6.61-7.35-14.49-7.35-14.49-13.8,8.7-26.34,20.45-36.22,37.01,0,0-1.56,8.54,16.32,17.67,5.76-17.07,11.22-27.69,27.26-40.19Z"/><path class="jester-4" d="M27.97,92.54c4.87,.06,10.78-.12,10.78-.12-3.77-10.44,0-28.67,0-28.67-4.72,9.31-8.28,18.89-10.78,28.79Z"/><path class="jester-4" d="M38.75,92.43s.43,4.6,1.51,9.76c2.29-1.48,4.65-2.85,7.06-4.1-3.54-1.76-6.95-3.78-8.58-5.67Z"/><path class="jester-4" d="M59.15,74.03s-2.35,9.83-1.91,19.76c3.75-1.33,7.58-2.36,11.45-3.07-3.55-4.81-7.48-10.92-9.55-16.69Z"/><path class="jester-4" d="M80.07,89.62c4.09-.05,8.18,.28,12.25,1.02-.75-5.99-1.06-12.77-.26-19.51,0,0-7,8.63-11.98,18.48Z"/><path class="jester-4" d="M112.17,97.89c4.61,2.6,8.57,5.6,12,8.95,2.31-6.32,5.33-12.97,9.31-19.39,0,0-10.63,2.77-21.3,10.44Z"/><path class="jester-4" d="M142.04,155.04c10.59-13.38,26.59-24.34,26.59-24.34-9.65-2.25-22.79-1.62-31.65,.39,2.89,7.26,3.08,16.14,5.05,23.95Z"/></g><path class="jester-8" d="M248.18,183.82c44.61,5.11,78.52,11.11,122.31,33.14-3.03-5.69-4.53-8.13-8.37-11.68s-6.69-5.82-11.42-8.08c-29.65-14.21-61.53-24.76-94.28-27.6-55.28-4.79-100.34,5.53-101.67,5.73-1.49,.22-8.13,6.47-10.33,8.94,6.02,5.02,64.44-4.96,103.76-.45Z"/><path class="jester-8" d="M363.05,199.99c-67.03-37.58-136.91-36.58-213.03-26.05l-13.64-44.66c9.06-.9,25.58-.24,38.44,9.16,0,0,4.27-6.78,1.98-29.24,21.47,3.94,42.29,27.05,42.29,27.05l25.05-29.31,19.83,34.25s27.51-23.15,39.8-22.94c.93,11.27,4.86,33.43,4.86,33.43,0,0,25.57-21.93,52.42-19.25-10.03,17.29-14.22,33.5-14.22,33.5,0,0,14.93-14.91,37.88-11.25l-21.67,45.32Z"/><path class="jester-3" d="M368.72,213.6c-67.03-37.58-148.18-39.85-224.3-29.33,0,0-1.35-33.08-20.86-42.35,0,0,24.37-16.01,52.4,4.46,0,0,6.53-6.78,4.25-29.24,21.47,3.94,38.89,28.18,38.89,28.18l23.92-29.31,19.83,34.25s28.61-23.83,38.67-24.07c-.58,12.66,6,35.7,6,35.7,0,0,19.33-22.91,45.62-21.52-10.03,17.29-9.69,33.5-9.69,33.5,0,0,26.56-22.05,54.44-8.48-25.21,15.45-29.16,48.23-29.16,48.23Z"/><circle class="jester-1" cx="19.85" cy="123.61" r="18.53"/><path class="jester-2" d="M36.2,132.49c1.05,.39,2.68-.32,3.17-1.32,.81-1.67-.1-3.38-1.23-4.62-5.18-5.7-13.89-8.72-21.04-10.95-2.88-.9-5.92-1.72-8.98-1.88-2.17-.12-6.9-.24-7.98,2.23-.57,1.3,.49,3.02,1.51,4.05,4.07-2.33,14.74,1.34,18.44,2.75,5.99,2.28,12.7,4.92,16.1,9.75Z"/><path class="jester-7" d="M36.2,132.49c1.21,.42,2.66-.49,2.94-1.05,.86-1.7-2.9-4.59-3.95-5.32-3.84-2.65-6.39-4.13-10.71-5.92-4.33-1.8-8.7-3.17-13.29-4.18-1.95-.43-4.67-.55-6.68-.5-1.33,.03-3.4,.07-4.28,1.26-.67,.91,.84,2.61,1.43,3.21,4.07-2.33,14.74,1.34,18.44,2.75,5.99,2.28,12.7,4.92,16.1,9.75Z"/><path class="jester-2" d="M26.43,130.11c-2.08-1.2-4.61-.71-5.64,1.09-.64,1.11-.56,2.46,.08,3.62-.04,.02-.08,.03-.12,.06-1.15,.8-2.13,1.7-3.39,2.35-2.52,1.3-5.05,1.76-7.86,1.76,1.12,.83,3.34,1.9,4.77,2.3,1.06,.18,2.09-.13,3.11-.49,2.33-.83,4.69-1.93,6.35-3.73,1.82,.55,3.73-.02,4.6-1.52,1.04-1.8,.2-4.23-1.88-5.43Z"/><path class="jester-7" d="M26.43,130.11c-2.08-1.2-4.61-.71-5.64,1.09-.64,1.11-.56,2.46,.08,3.62-.04,.02-.08,.03-.12,.06-1.15,.8-2.13,1.7-3.39,2.35-2.52,1.3-5.05,1.76-7.86,1.76,1.12,.83,3.34,1.9,4.77,2.3,1.06,.18,2.09-.13,3.11-.49,2.33-.83,4.69-1.93,6.35-3.73,1.82,.55,3.73-.02,4.6-1.52,1.04-1.8,.2-4.23-1.88-5.43Z"/><circle class="jester-1" cx="525.18" cy="135.01" r="18.53"/><path class="jester-2" d="M508.83,143.89c-1.05,.39-2.68-.32-3.17-1.32-.81-1.67,.1-3.38,1.23-4.62,5.18-5.7,13.89-8.72,21.04-10.95,2.88-.9,5.92-1.72,8.98-1.88,2.17-.12,6.9-.24,7.98,2.23,.57,1.3-.49,3.02-1.51,4.05-4.07-2.33-14.74,1.34-18.44,2.75-5.99,2.28-12.7,4.92-16.1,9.75Z"/><path class="jester-7" d="M508.83,143.89c-1.21,.42-2.66-.49-2.94-1.05-.86-1.7,2.9-4.59,3.95-5.32,3.84-2.65,6.39-4.13,10.71-5.92,4.33-1.8,8.7-3.17,13.29-4.18,1.95-.43,4.67-.55,6.68-.5,1.33,.03,3.4,.07,4.28,1.26,.67,.91-.84,2.61-1.43,3.21-4.07-2.33-14.74,1.34-18.44,2.75-5.99,2.28-12.7,4.92-16.1,9.75Z"/><path class="jester-2" d="M527.68,148.62c-1.26-.65-2.24-1.55-3.39-2.35-.04-.03-.08-.04-.12-.06,.64-1.15,.72-2.5,.08-3.62-1.04-1.8-3.57-2.29-5.64-1.09-2.08,1.2-2.92,3.63-1.88,5.43,.87,1.51,2.78,2.08,4.6,1.52,1.66,1.8,4.02,2.9,6.35,3.73,1.01,.36,2.05,.66,3.11,.49,1.43-.41,3.64-1.48,4.77-2.3-2.81,0-5.34-.46-7.86-1.76Z"/><path class="jester-7" d="M527.68,148.62c-1.26-.65-2.24-1.55-3.39-2.35-.04-.03-.08-.04-.12-.06,.64-1.15,.72-2.5,.08-3.62-1.04-1.8-3.57-2.29-5.64-1.09-2.08,1.2-2.92,3.63-1.88,5.43,.87,1.51,2.78,2.08,4.6,1.52,1.66,1.8,4.02,2.9,6.35,3.73,1.01,.36,2.05,.66,3.11,.49,1.43-.41,3.64-1.48,4.77-2.3-2.81,0-5.34-.46-7.86-1.76Z"/></g></g></g></g></svg>
