<?xml version="1.0" encoding="UTF-8"?><svg xmlns="http://www.w3.org/2000/svg"><defs><style>.pirate-1{fill:#f1f2f2;}.pirate-2{fill:#fec33e;}.pirate-3{fill:#414042;}.pirate-4{mix-blend-mode:multiply;opacity:.12;}.pirate-5{isolation:isolate;}</style></defs><g class="pirate-5"><g id="Layer_2"><g id="Hats"><g id="Hat-Pirate"><path class="pirate-4" d="M142.64,184.71c28.47-4.32,57.52-3.11,86.31-.02,19.5,2.1,38.52,6.4,57.58,10.78,9.71,2.23,19.3,5.02,28.65,8.46,2.34,.86,27.02,10.73,26.53,11.99,3.52-9.05-1.21-19.64-8.67-25.86s-17.09-9.06-26.42-11.75c-19.8-5.7-39.61-11.4-59.41-17.11-21.61-6.22-43.39-12.48-65.8-14.41s-45.75,.71-65.53,11.42c-7.33,3.97-14.28,9.42-20.11,15.35-3.09,3.14-6.29,6.72-7.93,10.87-2.02,5.07-1.17,11.93-1.53,17.39,.13-1.98,13.97-5.96,15.92-6.58,13.28-4.23,26.78-8.44,40.43-10.51Z"/><path class="pirate-3" d="M394.85,190.84c23.6-15.74,51.34-41.66,36.93-69.5-6.85-13.24-16.16-16.63-29.57-18.11-26.62-2.94-55.87-1.24-76.74-21.49-14.18-13.76-23.16-28.55-35.9-43.66C270.26,15.18,241.69-.67,211.25,.02c-19.93,.46-39.96,7.79-55.26,20.63-16,13.43-28.33,30.94-46.54,41.77-18.73,11.13-42.3,13.81-62.93,16.11C27.85,80.6-1.53,84.74,.06,109.62c.45,7.08,3.41,18.29,6.73,24.57,12.29,23.21,37.05,42.26,58.69,57.15,2.08,1.43,20.13,14.32,21.26,12.06,2.13-4.28,9.96-14.71,9.96-14.71,52.71-25.7,101.25-20.49,158.9-9.74,26.76,4.99,53.68,11.9,77.8,24.2,0,0,5.15,10.14,8.79,16.56,7.91-2.13,36.69-18.2,52.67-28.85Z"/><path class="pirate-2" d="M433.6,125.34c-18.15-11.16-34.92-9.97-57.94-13.02-3.73-.49-7.47-.89-11.08-1.28-14.48-1.54-28.15-4.14-40.67-11.36-11.16-6.44-19.63-18.5-27.81-30.16-2.03-2.89-4.1-5.5-5.91-8.28-16.18-24.79-38.54-43.45-67.7-46.38-26.87-2.7-46.63,3.97-72.99,29.59-3.54,3.44-6.73,7.37-10.23,11.41-9.1,10.5-18.5,21.36-29.64,26.75-13.48,6.52-29.36,7.08-44.72,7.62-2.85,.1-5.69,.2-8.5,.33-26.15,1.26-45.06,7.79-56.31,19.68,.24,5.1,2.48,12.8,2.48,12.8,8.45-13.27,27.09-21.18,54.31-22.5,2.76-.13,5.56-.23,8.37-.33,16.39-.57,33.34-1.17,48.72-8.61,12.99-6.29,23.09-17.94,32.85-29.21,3.41-3.93,6.63-7.65,9.87-11.02,21.26-22.08,40.91-28.97,64.79-26.57,12.94,1.3,25.15,7.05,35.49,14.75s17.59,17.36,25.16,27.62c1.9,2.57,3.78,5.25,5.77,8.09,8.4,11.97,17.92,25.53,31,33.08,14.35,8.28,29.73,11.05,44.61,12.64,3.55,.38,7.23,.77,10.83,1.25,23.3,3.08,43.38,3.76,61.39,15.55,.38-4.68-1.38-10.75-2.15-12.44Z"/><path class="pirate-1" d="M244.63,76.11c.23-1.64,.56-3.29,.61-5,.43-16.01-13.31-29.36-30.7-29.84-17.39-.47-31.84,12.12-32.27,28.13-.05,1.71,.28,3.37,.34,5.02,.11,3.38,.14,4.69-.09,8.07-.04,.65-.21,1.3-.23,1.98-.17,6.09,4.39,11.3,10.6,12.65,1.61,.35,2.71,1.86,2.67,3.51l-.05,2.02c-.11,4.05,3.08,7.42,7.13,7.53l20.06,.54c4.05,.11,7.42-3.08,7.53-7.13l.05-2.02c.04-1.65,1.22-3.1,2.85-3.36,6.27-1.01,11.11-5.96,11.27-12.06,.02-.67-.07-1.33-.12-1.99-.24-3.33-.13-4.63,.35-8.07Z"/><path d="M221.61,75.58c-2.09,.86-3.92,2.65-4.17,4.89-.21,1.82,.64,3.61,1.76,5.07,1.83,2.4,4.51,4.22,7.48,4.74s6.24-.38,8.32-2.57,2.8-5.67,1.49-8.39c-2.42-5.01-9.98-5.54-14.58-3.85-.1,.04-.2,.08-.3,.12Z"/><path d="M205.61,75.14c2.04,.98,3.77,2.86,3.9,5.11,.11,1.83-.84,3.57-2.03,4.97-1.96,2.3-4.73,3.97-7.73,4.33s-6.21-.72-8.17-3.02-2.49-5.81-1.03-8.46c2.69-4.87,10.27-4.99,14.76-3.06,.1,.04,.2,.09,.3,.13Z"/><path d="M210.75,89.47l-2.47,4.58c-1.04,1.93,.88,4.11,2.92,3.32l1.02-.39c.52-.2,1.09-.18,1.6,.04l1,.45c2,.9,4.03-1.18,3.1-3.16l-2.22-4.71c-.97-2.05-3.86-2.13-4.95-.13Z"/><path class="pirate-1" d="M235.44,146.27l-50.29-23.57c-1.42-.67-3.09-.39-4.27,.65-1.93,1.71-4.84,2.1-7.25,.63s-3.45-4.38-2.6-7.01c.61-1.9,2.03-3.26,3.71-3.88-.6-1.69-.46-3.64,.61-5.33,1.48-2.33,4.44-3.37,7.05-2.49,2.67,.9,4.24,3.4,4.15,5.97-.05,1.57,.8,3.03,2.23,3.7l50.29,23.57c1.42,.67,3.09,.39,4.27-.65,1.93-1.71,4.84-2.1,7.25-.63s3.45,4.38,2.6,7.01c-.61,1.9-2.03,3.26-3.71,3.88,.6,1.69,.46,3.64-.61,5.33-1.48,2.33-4.44,3.37-7.05,2.49-2.67-.9-4.24-3.4-4.15-5.97,.05-1.57-.8-3.03-2.23-3.7Z"/><path class="pirate-1" d="M187.97,144.98l51.5-20.81c1.46-.59,3.11-.22,4.23,.88,1.83,1.81,4.72,2.36,7.2,1.02s3.68-4.19,2.98-6.86c-.51-1.93-1.85-3.36-3.49-4.07,.69-1.65,.66-3.61-.32-5.36-1.35-2.41-4.25-3.61-6.91-2.86s-4.41,3.16-4.47,5.74c-.03,1.57-.97,2.98-2.43,3.57l-51.5,20.81c-1.46,.59-3.11,.22-4.23-.88-1.83-1.81-4.72-2.36-7.2-1.02s-3.68,4.19-2.98,6.86c.51,1.94,1.85,3.36,3.49,4.07-.69,1.65-.66,3.61,.32,5.36,1.35,2.41,4.25,3.61,6.91,2.86,2.72-.76,4.41-3.16,4.47-5.74,.03-1.57,.97-2.98,2.43-3.57Z"/></g></g></g></g></svg>
