<?xml version="1.0" encoding="UTF-8"?><svg xmlns="http://www.w3.org/2000/svg"><defs><style>.knight-1{fill:#b4b6c8;}.knight-2{fill:#9194a8;}.knight-3{fill:#be1e2d;}.knight-4{fill:#494c67;}.knight-5{isolation:isolate;}.knight-6{mix-blend-mode:multiply;opacity:.18;}</style></defs><g class="knight-5"><g id="Layer_2"><g id="Hats"><g id="Hat-Knight"><path class="knight-6" d="M73.54,222.96c24.01-9.97,28.42-10.86,55.7-2.42,19.79,6.12,43.37,21.16,61.88,30.47,13.45,6.76,31.98,17.66,40.01,30.39,7.58,12.02,5.4,11.26,12.56,23.53,7.2,12.35,20.47,20.96,34.68,22.52s29.02-3.99,38.72-14.5c-30.62-24.73-52.26-58.92-81.53-85.24-26.23-23.59-58.44-40.47-92.76-48.61-25.34-6.01-52.65-7.16-76.89,2.37-19.94,7.84-36.64,22.46-50.05,39.19C1.11,239.08,.39,258.46,1.26,281.14c17.02-29.23,39.53-44.58,72.29-58.18Z"/><path class="knight-3" d="M131.19,38.05C147.68,12.62,182.45-5.62,215.02,1.59c42.78,9.47,65.47,47.54,110.43,60.05-8.35,4.43-32.66,3.36-51.67-5.73,7.8,14.95,8.01,31.26,17.83,46.25,10.32,15.75,24.42,29.06,40.91,38.18-21.19,2.69-46.02-.09-60.71-17.15,1.12,1.3-.06,6.6-.05,8.16,.02,4.1,.52,8.19,1.26,12.22,2.27,12.37,5.99,25.18,12.79,36.1,7.56,12.13,19.1,20.95,30.75,28.9,1.62,1.1,9.8,7.8,11.59,7.17-35.58,12.55-79.77,4.13-112.02-13.73-16.87-9.35-30.13-22.19-47.2-31.1-17.52-9.15-34.95-20.58-46.08-37.31-17.51-26.31-8.09-70.2,8.36-95.56Z"/><path class="knight-6" d="M164.9,60.61c9.12-13.7,23.52-23.96,39.68-27.3-10.02,5.23-17.1,15.15-20.48,25.93-3.33,10.61-7.11,33.95,4.26,41.45,3.43,2.26,7.56,3.1,11.51,4.21,24.17,6.78,43.53,24.45,61.91,41.54-2.85-15.66-2.57-31.89,.82-47.44-.25,1.15,14,11.37,15.63,12.69,7.5,6.05,13.66,12.75,22.19,17.73s18.09,9.19,27.7,11.38c-8.62,1.03-22.26,.33-31.02-2.27-9.62-2.86-18.71-7.69-25.32-15.35,1.12,1.3-.06,6.6-.05,8.16,.02,4.1,.52,8.19,1.26,12.22,2.27,12.37,5.99,25.18,12.79,36.1,7.56,12.13,19.1,20.95,30.75,28.9,1.62,1.1,9.8,7.8,11.59,7.17-35.58,12.55-79.77,4.13-112.02-13.73-16.87-9.35-30.13-22.19-47.2-31.1-14.72-7.69-28.91-17.34-39.86-29.95-5.76-6.63-12.75-14.54-14.2-23.23-2.08-12.48-1.24-25.08-1.24-25.08,7.59-1.58,14.46-2.26,22.21-2.39,5.43-.09,14.35,2.64,18.06-2.55,1.22-1.71,1.58-3.86,2.02-5.92,1.59-7.58,4.72-14.76,9-21.19Z"/><path class="knight-1" d="M230.39,221.01c1.46,20.1,2.97,40.48,9.59,59.51s12.25,27.84,30.4,36.6,42.36,6.31,55.5-8.97c3.62-4.2,6.39-9.94,4.65-15.2-1.59-4.81-6.34-7.68-10.49-10.6-37.29-26.22-35.35-54.99-52.46-92.76s-37.87-63.11-77.22-77.07c-47.21-16.75-103.09-12.02-138.44,23.12-18.32,18.22-33.48,40.21-42.62,64.43-4.84,12.83-7.07,25.39-8.46,39.04-.73,7.18-1.02,14.64-.73,21.85,.17,4.16,1.09,14.04,.87,17.48,7.16-20.72,17.69-38.66,27.49-58.27,6.1-10.75,13.12-21.76,23.4-28.97,4.8-3.37,8.44-3.26,13.8-4.49,6.65-1.53,13.07-4.17,19.75-5.73,26.86-6.28,55.14-6.6,82.12-.85,10.23,2.18,20.28,5.24,29.97,9.17,14.5,5.89,31.74,16.08,32.87,31.69Z"/><path class="knight-2" d="M.99,278.46c3.33-7.88,7.58-17.67,12.49-24.37,2.51-3.42,5.31-6.08,7.05-8.08,8.15-9.39,16.96-15.75,27.85-20.89,22.33-10.54,33.39-16.76,58.01-18.78,28.01,4.49,60.51,19.71,83.71,34.75,27.41,17.76,29.97,15.07,54.61,40.75,1.73,1.8,6.65-7.44,7.18-8.41,4.59-8.36,5.9-18.67,7.45-27.98,4.79-28.68-29.45-65.23-58.82-82.22-28.14-16.28-59.55-23.46-84.12-45.91,0,0-12.38,7.21-16.18,9.52-4.47,2.73-9.04,5.27-13.63,7.79-8.68,4.77-17.53,10.48-25.91,15.76-16.22,10.22-30.02,25.18-41.86,40.09C-3.45,218.55,.99,278.46,.99,278.46Z"/><path class="knight-6" d="M.99,278.46c3.33-7.88,7.58-17.67,12.49-24.36,2.51-3.42,5.31-6.08,7.05-8.08,8.15-9.39,16.96-15.75,27.85-20.89,22.33-10.54,33.39-16.76,58.01-18.78,28.01,4.49,60.51,19.71,83.71,34.75,27.41,17.76,29.97,15.07,54.61,40.75,7.53-5.3,2.8-10-1.92-16.3-4.4-5.88-10.65-9.98-16.31-14.59-45.68-37.28-107.43-57.9-116.14-58.32-14.14-.69-54.93,14.9-73.81,28.84-12.16,8.98-30.53,24.86-35.58,39.51-.34,4.57,.32,13.92,.02,17.5Z"/><path class="knight-6" d="M266.54,304.95c13.17,8.93,29.32,11.02,43.56,5.62,3.85-1.46,6.1-4.47,8.98-7.51-29.73,10.88-49.74-.15-68.59-14.05,4.54,6.32,10.02,11.85,16.06,15.94Z"/><path class="knight-4" d="M115.33,126.46c1.16,.02,2.33,.35,3.54,1.13,3.1,2,6.04,4.29,8.86,6.67,1.6,1.35,3.25,2.91,3.61,4.97,.24,1.34-.11,2.7-.46,4.02-2.24,8.49-9.01,37.71-10.62,44.95-6.23-2.86-13.63-3.07-20.01-.56,.46-6.71-2.59-47.76-1.61-50.73,.78-2.35,3.89-4.18,5.95-5.31,3.47-1.9,6.98-5.18,10.74-5.13Z"/><path class="knight-4" d="M143.86,145.5c.24-.18,.49-.31,.75-.39,1.59-.47,3.31-.02,4.87,.54,6.01,2.15,11.31,5.86,16.52,9.53,.72,.51-16.12,35.46-18.83,43.3-4.06-1.88-12.79-3.99-15.71-7.3-2.73-3.09,9.02-43.17,12.4-45.69Z"/><path class="knight-4" d="M177.16,159.72c5.83,.96,19.23,8.49,19.88,10.07,1.02,2.45-.11,5.22-1.26,7.62-5.63,11.85-11.84,23.43-18.59,34.68-5.17-2.7-11.41-4.97-16.12-8.4s-1.33-6.84,.83-11.44c5.08-10.84,10.17-21.69,15.25-32.53Z"/><path class="knight-4" d="M209.96,179.82c8,3.1,14.86,9.04,19.08,16.51-6.94,7.95-24.19,27.99-26.03,28.17-1.22,.12-2.4-.41-3.49-.97-4.2-2.16-8.11-4.9-11.57-8.12,6.43-12.07,14.87-23.76,22.01-35.6Z"/><path class="knight-4" d="M229.54,209.06c5.4-4.89,8.36-2.05,11.6,3s6.2,10.44,8.75,15.94c.32,.69,.64,1.42,.65,2.18,.03,2.77-4.64,4.92-6.51,6.55-3.08,2.7-6.2,5.39-9.71,7.52-1.15,.7-2.4,1.42-3.73,1.28-1.22-.12-2.24-.94-3.18-1.71-4.2-3.47-16.88-10.25-14.13-16.1,1.48-3.14,12.92-15.63,16.27-18.66Z"/><path class="knight-4" d="M90.65,188.45l-21.24,8.91c-.49,.21-6.69-26.57-7.43-29.09-.66-2.26-1.34-4.62-.89-6.93,.66-3.41,3.58-5.88,6.52-7.73,6.67-4.18,12.75-9.85,20.69-11.52-2.1,.44,2.03,42.52,2.36,46.35Z"/><path class="knight-4" d="M49.04,169.57c.87-.7,1.75-1.42,2.62-2.14,.65,5.61,7.81,27.41,7.6,31.78-.04-.11-19.58,10.19-25.09,13.12-.67-4.9-4-21.95-1.83-25.68,4.19-7.18,10.36-11.96,16.7-17.08Z"/><path class="knight-4" d="M25.34,211.65c.13,1.46,.13,2.88-.19,4.02-1.68,5.99-10.45,14.31-15.68,17.51-.99-12.11,6.53-26.63,13.58-36.04-.63,.84,1.35,7.56,1.51,8.89,.19,1.58,.61,3.64,.78,5.61Z"/></g></g></g></g></svg>
