<?xml version="1.0" encoding="UTF-8"?><svg id="Layer_2" xmlns="http://www.w3.org/2000/svg"><defs><style>.doctor-1{fill:#e9ebf9;}.doctor-2{fill:#7e8198;}.doctor-3,.doctor-4{fill:#b4b6c8;}.doctor-5{fill:#494c67;}.doctor-4{opacity:.4;}</style></defs><g id="Hats"><g id="Hat-Doctor"><path class="doctor-5" d="M119.27,68.87c19.78,.83,39.55,3.08,58.81,7.68,24.18,5.77,53.76,18.94,63.13,27.06,.81-4.98-2.86-12.35-5.57-16.25-3.76-5.42-8.28-10.31-13.37-14.5-9.99-8.22-22.02-14.75-34.22-18.86-40.78-13.76-85.27-16.35-127.37-7.41-12.79,2.72-25.49,6.53-36.75,13.19-8.35,4.94-19.55,17.33-23.93,28.66,18.03-6.92,44.76-14.58,54.15-16.01,18.34-2.8,36.92-4.07,55.48-3.81,3.22,.04,6.44,.13,9.65,.27Z"/><ellipse class="doctor-3" cx="89.67" cy="52.22" rx="51.27" ry="43.37" transform="translate(28.37 135.94) rotate(-84)"/><ellipse class="doctor-1" cx="86.58" cy="51.19" rx="51.27" ry="43.37" transform="translate(26.63 131.95) rotate(-84)"/><path class="doctor-4" d="M125.02,55.23c-1.03,9.79-4.73,19.36-10.99,27.01-2.81,3.43-6.12,6.46-9.86,8.86-2.94,1.89-6.36,4.9-9.89,5.34,5.93-4.77,9.96-11.7,12.23-18.88,2.3-7.27,2.93-14.98,2.78-22.6-.13-6.81-.9-13.69-3.27-20.08s-6.47-12.29-12.22-15.94c-9.9-6.28-23.12-4.92-33.65,.24,6.17-9.53,20.22-14.57,31.19-13.42,21.23,2.23,36.3,24.38,33.67,49.48Z"/><ellipse class="doctor-2" cx="86.58" cy="51.19" rx="3.49" ry="2.95" transform="translate(26.63 131.95) rotate(-84)"/></g></g></svg>
