<?xml version="1.0" encoding="UTF-8"?><svg xmlns="http://www.w3.org/2000/svg"><defs><style>.waldohat-1{fill:#f1f2f2;}.waldohat-2{fill:#d82323;}.waldohat-3{opacity:.07;}.waldohat-3,.waldohat-4,.waldohat-5{mix-blend-mode:multiply;}.waldohat-6{isolation:isolate;}.waldohat-4{opacity:.13;}.waldohat-5{opacity:.21;}</style></defs><g class="waldohat-6"><g id="Layer_2"><g id="Hats"><g id="Hat-Waldo"><path class="waldohat-5" d="M267.18,220.03c-7.59-14.45-23.39-22.33-38.4-28.74-19.05-8.14-38.46-15.44-58-22.33-18.7-6.6-37.75-12.87-57.51-14.55-23.68-2.02-47.48,2.82-69.36,11.81-11.17,4.59-21.89,10.25-32.08,16.73-2.87,1.82-12.79,7.65-3.87,7.21,6.48-.32,12.95-.85,19.43-1.13,25.93-1.15,51.93-.85,77.83,.88,26.02,1.74,51.95,4.92,77.62,9.53,25.55,4.59,50.84,10.59,75.72,17.99,1.45,.43,7.97,1.42,8.6,2.62Z"/><path class="waldohat-1" d="M47.48,94.3c29.58-33.91,69.57-44.03,113.21-39.03,18.14,2.08,36.21,6.29,52.58,14.37,17.5,8.64,35.48,24.58,41.19,44.14,4.88,16.72,6.05,48.14,5.81,62.39-.21,12.11-9.91,7.84-23.32,8.99-20.54,1.77-41.3,.96-61.65-2.38-9.06-1.49-17.89-4.13-26.92-4.4-9.64-.29-19.22-.88-28.83-2.08-7.86-.98-14.65-3.52-22.57-3.61-9.72-.12-19.39-.72-29.01-2.13s-19.11-3.5-28.42-6.27c-5.66-1.69-15.08-2.59-19.78-6.26-4.83-3.77-2.66-7.1-.87-12.82,5.87-18.82,15.73-36.17,28.59-50.91Z"/><path class="waldohat-3" d="M259.94,155.51c-.37-5.32-.8-12.02-1.25-16.48-.28-2.77-2.05-15.57-2.54-18.17-1.08,5.44-3.68,12.28-8.83,14.96-6.53,3.41-17.26,3-24.42,2.93-16.84-.18-33.38-3.86-49.99-6.21-35.55-5.03-73.65-7.81-109.37-6.9-8.4,.21-16.79,.68-25.16,1.4-6.22,.53-12.01,.32-15.32,6.59-3.29,6.25-10.83,18.53-3.32,24.39,4.7,3.67,14.12,4.58,19.78,6.26,9.31,2.77,18.81,4.87,28.42,6.27,9.63,1.41,19.29,2.01,29.01,2.13,7.92,.09,14.71,2.63,22.57,3.61,9.61,1.2,19.19,1.79,28.83,2.08,9.04,.28,17.86,2.92,26.92,4.4,20.35,3.34,41.11,4.15,61.65,2.38,13.4-1.15,23.11,3.12,23.32-8.99,.12-7.19,.19-13.4-.32-20.65Z"/><path class="waldohat-2" d="M9.53,154.34c1.17-3.41,5.44-10.26,8.33-12.81,4.41-3.88,14.44-4.37,20.78-4.67,36.93-1.76,70.97-2.86,107.81,.33,33.03,2.86,65.46,10.29,97.46,17.53,7.27,1.64,14.77,4.58,18.42,10.21,2.17,3.34,2.71,7.25,3.21,11.04-.31,13.62,1.18,28.03,1.95,41.74C182.36,189.05,90.28,176.52,0,195.57c.36-15.7,7.38-34.97,9.53-41.23Z"/><path class="waldohat-4" d="M24.63,189.14c-1.59-2.45,.46-11.05,.82-12.57,1.48-6.23,3.85-12.28,6.21-18.29,1.36-3.47,.42-7.33,.97-10.91,.4-2.58,.14-6.35,2.48-8.26,2.39-1.95,6.05-1.3,9.03-1.61-5.16,7.31-7,15.84-8.64,24.16-.81,4.12-1.51,8.28-2.63,12.35s-1.32,8.55-3.24,12.51c-.46,.95-1.05,1.9-1.99,2.54-1.53,1.04-2.47,.9-3,.08Z"/><path class="waldohat-4" d="M62.37,184.71c-.97,1.07-3.15,.56-3.96-.61s-.76-1.75-.6-3.11c1.58-13.14,3.16-26.33,6.94-39.16,.76-2.57,2.17-6.78,6.48-4.79,3.11,1.43,.87,4.81,.13,6.96-2.17,6.25-3.98,12.59-5.44,18.99-1.7,7.47-2.83,14.14-3.55,21.72Z"/><path class="waldohat-4" d="M98.59,136.28c1.1-.3,2.41-.38,4.13-.45-.22,0-2.4,4.68-2.53,5-1.72,4-1.39,9.48-1.31,13.73,.13,6.85-1.76,13.64-3.46,20.42-.36,1.45-.92,8.4-3.12,8.55-2.89,.19-2.49-4.62-2.34-5.94,1.17-10.07,5.42-19.16,3.04-29.51-.66-2.87,.02-5.97,1.65-8.52,1.26-1.97,2.39-2.86,3.94-3.28Z"/><path class="waldohat-4" d="M125.2,158.8c-2.05,8.94-5.22,18.63-1.21,26.94,1.2,1.27,3.68,.25,4.3-1.34s.05-3.34-.42-4.98c-2.83-9.87,1.42-24.35,6.51-33.45,1.26-2.26,5.92-14.12-2.73-8.12-5.67,3.93-5.05,14.9-6.44,20.95Z"/><path class="waldohat-4" d="M155.53,173.92c-.99,2.74-2.12,5.54-1.92,8.4s2.13,5.87,5.34,6.62c1.29-11.56,3.17-24.78,7.51-35.78,1.32-3.34,2.8-6.89,1.87-10.33-.56-2.07-3.15-4.61-5.9-2.68-2.01,1.41-1.16,7.77-1.36,9.72-.85,8.16-2.71,16.24-5.54,24.05Z"/><path class="waldohat-4" d="M192.76,156.89c-.65,6.31-1.55,12.21-4.11,18.07-2.48,5.65-2.73,12.04-.61,17.8,1.41,.25,1.79,.48,3.19,.73-.32-11.85,6.02-23.44,7.15-35.28,.36-3.75,1.27-14.66-3.6-13.37-5.2,1.38-1.65,8.37-2.03,12.04Z"/><path class="waldohat-4" d="M223.15,172.12c-1.54,7.66-4.89,14.95-7.55,22.37-.53,1.48-.8,3.48,.79,4.19,1.02,.46,2.34,.03,3.09-.72s1.09-1.74,1.41-2.7c2.45-7.45,4.9-14.89,7.34-22.34,1.44-4.38,2.89-8.93,2.04-13.42-.57-3-8.67-12.56-8.75-6.79-.04,2.85,2.12,6.34,2.34,9.38,.24,3.34-.06,6.71-.72,10.01Z"/><path class="waldohat-4" d="M251.79,203.26c-.35,1.57-.74,3.23-.16,4.74s2.54,2.7,4.1,1.96c.76-13.94,1.09-27.9,1.01-41.85-.01-2.26-.06-4.62-1.17-6.64-.46-.84-2.92-3.7-4.29-3.02s-.09,3.33,.15,4.37c1.04,4.51,1.81,9.05,2.19,13.65,.74,8.94,.13,17.99-1.83,26.78Z"/><path class="waldohat-2" d="M211.69,34.61l-.08,1.5c-.03,.58,.33,1.11,.86,1.26l5.95,1.69c.42,.12,.74,.48,.84,.93l.37,1.8c.1,.5-.1,1.01-.52,1.26l-3.35,2.02c-.56,.34-.71,1.12-.34,1.69l.69,1.06c.41,.63,.18,1.49-.48,1.76l-1.84,.76c-.82,.34-.92,1.52-.18,2.08l3.12,2.33c.79,.59,.6,1.87-.31,2.12l-2.15,.59c-.53,.14-.87,.69-.8,1.27l.3,2.38c.01,.11,.04,.22,.09,.33l-2.63,.46c.19,.47,.09,1.01-.26,1.35l-1.58,1.5c-.21,.2-.49,.3-.78,.29l-.7,3.09c-.15,0-.29-.05-.43-.12l-6.13-3.09c-.95-.48-1.91,.54-1.46,1.55l.14,.32c.45,1.01-.51,2.03-1.46,1.55-2.13-1.07-.82,2.92-2.19,3.45-.78,.3-1.66,.03-2.42-.31s-1.53-.77-2.37-.78c-1.12,0-2.11,.74-2.86,1.57s-1.37,1.8-2.26,2.48-2.18,1.01-3.13,.41c-.57-.36-.9-.99-1.32-1.52-1.2-1.52-3.26-2.3-5.17-1.96,.66,.37,.92,1.31,.56,1.97-.46,1.09-2.15,1.01-3,.2s-1.17-2.02-1.67-3.09-1.46-2.12-2.63-2.02c-1.17,.1-1.91,1.26-2.56,2.24s-1.68,2.02-2.81,1.7c-1.17-.32-1.48-1.78-2.14-2.8-.87-1.34-2.66-2-4.2-1.56,.65,1.29,.56,2.93-.25,4.14s-2.28,1.92-3.72,1.82c.5-.74,1.02-1.52,1.12-2.41s-.33-1.91-1.19-2.16c-.27-.08-.56-.07-.85-.07-1.1,.02-2.2,.05-3.3,.07-.57-.74-.59-1.77-.45-2.7s.4-1.85,.29-2.78-.75-1.89-1.68-1.98c-.43-.04-.85,.1-1.27,.17s-.91,.03-1.2-.28c-.51-.55,.28-1.1,.51-1.57,.39-.81-.21-1.8-1.08-1.76l-1.82,.08c-1.1,.05-1.64-1.46-.77-2.15l1.6-1.28c.88-.7,.32-2.21-.79-2.15l-4.68,.28c-1.18,.07-1.69-1.61-.68-2.23l1.98-1.2c.82-.5,.68-1.82-.24-2.16l-2.45-.91c-.67-.25-.98-1.08-.64-1.73l.85-1.62c.14-.26,.36-.45,.63-.54l4.53-1.4c1.02-.32,1.03-1.85,.02-2.25l-5.16-2.07c-.74-.3-1-1.29-.49-1.91l.66-.8c.33-.4,.35-1,.06-1.45l-.82-1.26c-.54-.82,.03-1.91,.95-1.84l7.64,.59c.57,.04,1.07-.38,1.15-.97l.12-.89c.06-.4-.08-.81-.37-1.08l-5.43-5.21c-.75-.72-.34-2.02,.66-2.06l1.31-.05c.72-.03,1.21-.76,.99-1.5l-.79-2.73c-.13-.44-.01-.9,.29-1.2l1.33-1.31c.27-.27,.65-.36,1.02-.26l4.36,1.2c.44,.12,.9-.05,1.16-.44l.54-.81c.35-.52,1.03-.63,1.54-.25l3.19,2.38c.89,.66,2.03-.22,1.68-1.31l-1.8-5.68c-.08-.24-.08-.49-.01-.73l.71-2.49c.19-.65,.86-.98,1.46-.72l2.65,1.16c.14,.06,.26,.15,.37,.25l2.63,2.69c.67,.69,1.78,.29,1.87-.68l.24-2.37c.1-.95,1.16-1.36,1.84-.71l1.84,1.75s.04,.04,.06,.06l2.33,2.53c.35,.38,.87,.48,1.3,.25l1.35-.7c.13-.07,.25-.17,.35-.29l1.7-2.16c.37-.47,1.04-.55,1.52-.16l1.6,1.27,1.23,.93c.55,.42,1.31,.24,1.62-.37l3.79-7.54c.34-.69,1.22-.81,1.76-.25l1.15,1.21c.21,.22,.34,.52,.35,.83l.25,7.07s0,.09,0,.13l-.27,4.02c-.07,1.04,1.08,1.7,1.83,1.06l3.17-2.71c.07-.06,.16-.12,.24-.16l3.2-1.47c.75-.34,1.6,.28,1.59,1.15l-.05,2.99c0,.06,0,.13-.02,.19l-.47,2.73c-.16,.92,.72,1.7,1.53,1.36l3.5-1.45c.78-.32,1.62,.37,1.55,1.25l-.15,1.85c-.02,.24,.03,.47,.14,.69l.8,1.56c.22,.43,.18,.95-.11,1.32l-1.8,2.29c-.68,.86,.1,2.19,1.14,1.94l8.46-1.99c.72-.17,1.42,.45,1.39,1.24l-.06,1.63c-.01,.3-.13,.59-.33,.79l-3.92,3.96c-.2,.2-.32,.47-.33,.77Z"/><path class="waldohat-4" d="M211.69,34.61l-.08,1.5c-.03,.58,.33,1.11,.86,1.26l5.95,1.69c.42,.12,.74,.48,.84,.93l.37,1.8c.1,.5-.1,1.01-.52,1.26l-3.35,2.02c-.56,.34-.71,1.12-.34,1.69l.69,1.06c.41,.63,.18,1.49-.48,1.76l-1.84,.76c-.82,.34-.92,1.52-.18,2.08l3.12,2.33c.79,.59,.6,1.87-.31,2.12l-2.15,.59c-.53,.14-.87,.69-.8,1.27l.3,2.38c.01,.11,.04,.22,.09,.33l-2.63,.46c.19,.47,.09,1.01-.26,1.35l-1.58,1.5c-.21,.2-.49,.3-.78,.29l-.7,3.09c-.15,0-.29-.05-.43-.12l-6.13-3.09c-.95-.48-1.91,.54-1.46,1.55l.14,.32c.45,1.01-.51,2.03-1.46,1.55-2.1-1.05-.78,2.77-2.07,3.32-.82,.35-1.76,.08-2.58-.25s-1.67-.75-2.55-.68c-1.66,.14-2.66,1.82-3.62,3.18s-2.72,2.67-4.14,1.81c-.7-.43-1.03-1.26-1.49-1.94-1.02-1.5-2.9-2.38-4.7-2.21,.79,.69,.59,2.1-.26,2.71s-2.08,.47-2.92-.15-1.34-1.61-1.58-2.62c-.17-.7-.27-1.48-.82-1.94-1.01-.84-2.53,.11-3.31,1.17s-1.58,2.4-2.89,2.47c-1.04,.05-1.93-.77-2.48-1.66s-.9-1.91-1.61-2.68-1.94-1.22-2.79-.63c.8,1.34,.79,3.12,0,4.46s-2.37,2.18-3.94,2.11c.01-1.93,.03-3.86,.04-5.79-.68,1.01-2.01,1.52-3.19,1.23s-2.12-1.37-2.25-2.57c-.09-.81,.16-1.62,.32-2.42,.35-1.75-.11-3.03-1.91-3.03-.6,0-2.62,.85-1.64-1.18l.24-.5c.39-.81-.21-1.8-1.08-1.76l-1.82,.08c-1.1,.05-1.64-1.46-.77-2.15l1.6-1.28c.88-.7,.32-2.21-.79-2.15l-4.68,.28c-1.18,.07-1.69-1.61-.68-2.23,1.03-.62,2.37-.89,3-2.04,.28-.52,.4-1.11,.72-1.61,1.71-2.64,3.62,4.5,4.09,5.53,1.09,2.41,4.55,4.37,6.15,2.28,1.49-1.94-.51-5.27,1.21-7.02-.12,.12,1.76,3.21,1.89,3.5,.84,1.86,2.05,3.43,3.4,5,.52,.6,1.24,1.25,2,1.01,.77-.24,.98-1.21,1.06-2.01,.09-.93,.19-1.86,.28-2.79,.07-.69,.23-1.5,.87-1.77,.58-.24,1.25,.14,1.61,.65,.62,.9,.66,2.34,1.59,3.03,.69,.51,1.61,.52,2.36,.94,.96,.53,1.65,1.47,2.41,2.24,.96,.98,2.35,1.85,3.64,1.38,.48-.18,.88-.52,1.28-.84,1.65-1.3,4.14-.43,3.41-3.18-.23-.88-.64-1.75-.54-2.65,.12-1.12,.49-1.29,1.41-.98,.48,.16,.64,.79,1.2,.81,.52,.02,1.46-.94,2.04-1.1,1.79-.5,2.2,.53,3.18,1.65,.93,1.06,2.88,1.21,4.21,1.59,.3,.09,.62,.17,.93,.14s.63-.21,.74-.51c.11-.33-.07-.7-.3-.96s-.53-.48-.7-.78-.19-.75,.1-.96c.48-.35,1.3,.27,1.71-.16,.18-.19,.17-.48,.11-.73-.23-1.01-1.07-1.5-1.68-2.26-.68-.86-.88-1.83-.76-2.92,.38-3.41,5.13-5.55,7.7-3.27-2.2,.19-4.17-2.29-3.49-4.39,.7-2.14,3.01-1.16,4.74-.97,.32,.04,.66,.07,.96-.06,.49-.21,.71-.84,.61-1.36s-.46-.97-.85-1.34c-1.16-1.11-2.75-1.82-3.54-3.22-.22-.38-.36-.86-.17-1.26,.24-.5,.88-.65,1.43-.62,1.55,.08,2.34,.16,2.59-1.65,.17-1.24-.28-2.57-1.22-3.41-1.4-1.25-3.61-1.37-4.84-2.78-1.07-1.22-1.02-3.26,.11-4.42,1.14-1.18,2.96-1.16,4.32-.41-.64-2-.6-4.55,.87-6.09,.9,2,.25,4.66-.13,6.84-.16,.92,.72,1.7,1.53,1.36l3.5-1.45c.78-.32,1.62,.37,1.55,1.25l-.15,1.85c-.02,.24,.03,.47,.14,.69l.8,1.56c.22,.43,.18,.95-.11,1.32l-1.8,2.29c-.68,.86,.1,2.19,1.14,1.94l8.46-1.99c.72-.17,1.42,.45,1.39,1.24l-.06,1.63c-.01,.3-.13,.59-.33,.79l-3.92,3.96c-.2,.2-.32,.47-.33,.77Z"/></g></g></g></g></svg>
