<?xml version="1.0" encoding="UTF-8"?><svg xmlns="http://www.w3.org/2000/svg"><defs><style>.chef-1{fill:#e6e7e8;}.chef-2{fill:#f1f2f2;}.chef-3{opacity:.08;}.chef-3,.chef-4{mix-blend-mode:multiply;}.chef-5{isolation:isolate;}.chef-4{opacity:.17;}</style></defs><g class="chef-5"><g id="Layer_2"><g id="Hats"><g id="Hat-Chef"><path class="chef-2" d="M41.06,155.76C24.07,134.85,11.25,110.56,3.58,84.73c-2.9-9.77-5.07-20.26-2.28-30.06,3.32-11.69,13.04-20.3,22.54-27.88C39.51,14.27,56.95,2.21,76.92,.29c16.57-1.6,32.96,3.98,49.57,5.03,23.69,1.49,47.41-6.27,70.98-3.42,23.52,2.84,44.41,15.91,64.19,28.95,15.56,10.26,31.33,21.03,42.19,36.18,13.47,18.79,18.02,42.34,22.23,65.07,2.59,13.95,5.17,27.91,7.76,41.86,2.3,12.41,5.81,22.71-4.81,31.97-5.17,4.51-10.88,11.55-16.91,14.76-5.51,2.93-11.74,2.39-18.16,2.07-3.72-.19-41.7-5.11-41.05-8.85,2.25-12.91,4.51-25.83,6.76-38.74-59.67-7.38-119.84-8.87-179.93-6.64-6.81,.25-13.71,.56-20.35-.97s-14.05-6.5-18.34-11.79Z"/><path class="chef-4" d="M148.42,204.28c44.15,3.09,93.89,18.37,116.26,27.84-3.51-5.93-4.58-9.72-8.95-12.69s-9.51-4.55-14.57-6.09c-18.1-5.51-36.21-11.02-54.31-16.53-14.11-4.29-28.33-8.61-43.01-10-15.29-1.44-30.73,.33-45.81,3.28-13.76,2.69-36.27,4.75-49.52,9.35-6.53,2.27-10.29,7.24-15.8,13.48,60.2-12.98,97.78-9.9,115.7-8.65Z"/><path class="chef-4" d="M306.2,165.63c2.67-1.63,6.04-3.61,8.65-1.88,1.89,1.24,2.26,4,1.41,6.09s-2.62,3.65-4.4,5.05c-5.01,3.93-10.34,6.5-15.94,9.27-4.51,2.23-7.19,7.87-6.2,12.76,.39,1.94,1.27,3.75,2.16,5.51,1.44,2.85,3.01,5.74,5.48,7.76,4.84,3.96,12.83,1.43,18.28-.08,6.6-1.83,13.06-4.92,18.11-9.61-1.12,2.67-11.35,12.9-18.68,18.33-5.66,4.2-11.86,5.14-26.38,3.45-8.6-1-17.06-2.44-25.36-4.11-2.28-.46-5.36,.94-6.95-.76-1.39-1.49-1.51-3.74-1.49-5.79,.12-12.73,1.63-23.36,7.14-35.04,1.97-4.16,4.39-2.22,8.58-3.21,4.94-1.16,10.04-1.59,15.49-1.9,7.04-.4,14.06-2.17,20.08-5.85Z"/><path class="chef-1" d="M261.94,227.22c-122.28-54.26-225.71-18.29-225.71-18.29l.13-59.94s117.2-56.94,233.95,20.25l-8.37,57.99Z"/><path class="chef-3" d="M212.24,209.48c11.62-.77,22.44-9.4,27.72-19.78,5.66-11.12,2.96-24.16-6.43-32.6-5.3-4.77-11.98-7.68-18.81-9.46-7.35-1.91-14.51-4.43-21.88-6.31-10.06-2.57-20.36-4.17-30.72-4.77-10.89-.64-21.53-1.86-32.58-1.56s-22.03,1.26-32.94,2.89c-20.57,3.06-38.57,6.87-58.99,10.7,3.45-3.17,7.15-5.9,11.46-7.78,5.52-2.41,5.43-7.65,2.37-12.65-2.07-3.4-5.26-5.95-8.43-8.36-3.68-2.8-7.55-5.63-9.76-9.69-2.51-4.63-2.5-10.29-1.1-15.37,1.27-4.6,4.29-14.99,9.18-8.75,3.67,4.68,5.75,12.01,8.57,17.32,3.16,5.97,6.5,11.84,10,17.62,4.58,7.55,16.43,18.16,21.22,3.37,1.02-3.14,.8-6.58-.03-9.77-2.44-9.31-8.58-16.64-13.02-25.03-4.87-9.19-7.88-19.39-7.46-29.86,.19-4.67,1.46-9.16,1.65-13.78,.18-4.3,1.02-8.58,3.3-12.34,2.25-3.71,6.37-6.62,10.68-6.14,18.59,2.06,7.78,33.12,8.64,44.48,1.09,14.38,5.68,28.52,13.52,40.64,1.89,2.92,4.03,5.8,7.03,7.57,3.42,2.01,7.53,2.34,11.48,2.62,10.46,.74,24.32,2.99,34.73,.62,11.17-2.54,17.44-15.13,21.05-25.01,3.84-10.49,5.48-21.63,7.75-32.57,.85-4.08,2.29-8.75,6.19-10.22,3.21,21.42,2.17,43.47-3.04,64.5-.64,2.57-1.32,5.37-.23,7.79,3.24,7.24,18.1,7.49,24.51,6.17,10.69-2.21,21-8.29,28.72-15.89,9.75-9.6,16.13-22.56,17.78-36.14,.2-1.61,.35-3.29,1.17-4.68s2.56-2.42,4.08-1.85c1.51,.56,2.15,2.32,2.48,3.9,3.08,14.38-3.2,28.93-9.45,42.24-1.46,3.11-2.95,6.31-3.26,9.73s.8,7.19,3.63,9.15c4.49,3.11,14.67-3.18,18.45-5.92,10.25-7.4,16.58-20.36,21.57-31.63,6.86-15.49,6.57-32.86-.27-48.45,.01,.67,2.79,2.82,3.32,3.38,1.28,1.36,2.52,2.76,3.72,4.19,2.31,2.75,4.48,5.61,6.5,8.59,3.58,5.27,6.99,13.56,9.45,19.86,2.79,7.14,3.92,12.73,5.64,19.82,1.87,7.71,3.51,15.48,5.02,23.27,3.12,16.04,5.75,32.18,8.97,48.2,1.82,9.07,.89,17.46-4.96,23.11-6.5,6.28-16.07,18.8-29.42,18.18-15.19-.7-22.82-1.7-37.7-4.85-.38,3.01-1.01,6.04-1.39,9.05-16.31-7.32-31.95-12.64-49.7-17.74Z"/></g></g></g></g></svg>
