<?xml version="1.0" encoding="UTF-8"?><svg xmlns="http://www.w3.org/2000/svg"><defs><style>.hat-1{fill:#e8d3af;}.hat-2{isolation:isolate;}.hat-3{opacity:.13;}.hat-3,.hat-4{mix-blend-mode:multiply;}.hat-4{opacity:.21;}</style></defs><g class="hat-2"><g id="Layer_2"><g id="Hats"><g id="Hat-Knit"><path class="hat-4" d="M267.12,240.98c-7.59-14.45-23.39-22.33-38.4-28.74-19.05-8.14-38.46-15.44-58-22.33-18.7-6.6-37.75-12.87-57.51-14.55-23.68-2.02-47.48,2.82-69.36,11.81-11.17,4.59-21.89,10.25-32.08,16.73-2.87,1.82-12.79,7.65-3.87,7.21,6.48-.32,12.95-.85,19.43-1.13,25.93-1.15,51.93-.85,77.83,.88,26.02,1.74,51.95,4.92,77.62,9.53,25.55,4.59,50.84,10.59,75.72,17.99,1.45,.43,7.97,1.42,8.6,2.62Z"/><path class="hat-1" d="M49.68,105.04c29.58-33.91,69.57-44.03,113.21-39.03,18.14,2.08,36.21,6.29,52.58,14.37,17.5,8.64,35.48,24.58,41.19,44.14,4.88,16.72,6.05,48.14,5.81,62.39-.21,12.11-9.91,7.84-23.32,8.99-20.54,1.77-41.3,.96-61.65-2.38-9.06-1.49-17.89-4.13-26.92-4.4-9.64-.29-19.22-.88-28.83-2.08-7.86-.98-14.65-3.52-22.57-3.61-9.72-.12-19.39-.72-29.01-2.13s-19.11-3.5-28.42-6.27c-5.66-1.69-15.08-2.59-19.78-6.26-4.83-3.77-2.66-7.1-.87-12.82,5.87-18.82,15.73-36.17,28.59-50.91Z"/><path class="hat-3" d="M262.15,166.26c-.37-5.32-.8-12.02-1.25-16.48-.28-2.77-2.05-15.57-2.54-18.17-1.78,8.92-5.85,13.81-11.17,16.36,1.02-1.4,1.48-3.2,.95-4.86-.62-1.93-2.28-3.49-2.53-5.5-.27-2.13,1.09-4.11,1.42-6.23,.36-2.33-.59-4.72-2.04-6.58s-3.37-3.29-5.27-4.7c.89-2.92,.14-6.29-1.91-8.56-2.05-2.27-5.32-3.36-8.32-2.77,.25-2.84-.82-5.77-2.84-7.78s-4.95-3.08-7.79-2.82c1.4-2.73,1.02-6.26-.91-8.64-1.32-1.62-4.11-3.33-6.23-2.75,.45,1.63,2.73,2.74,3.61,4.33,.96,1.75,1.36,3.83,.94,5.79-.38,1.77-1.29,1.71-.37,3.27,1.39,2.37,5.31,1.28,7.4,3.06,2.03,1.72,1.48,5.36,3.59,6.98,1.2,.92,2.85,1.86,4.32,2.23,2.14,.55,3.98,3.17,4.8,5.22,.82,2.05,.6,4.49-.58,6.37,2.4,.09,4.73,1.43,6.01,3.47s1.49,4.71,.54,6.92c-.62,1.44-1.73,2.82-1.52,4.38,.24,1.79,2.07,2.85,3.09,4.33,1.27,1.83,1.1,4.46-.21,6.24-7.71,2.08-17.18,.79-26,.05,.6-.49,1.1-1.02,1.34-1.37,1.31-1.91,1.61-4.67,1.16-6.89-.7-3.42-3.41-6.35-6.77-7.31,1.22-1.92,1.75-4.27,1.53-6.53-.05-.55-1.52-5.61-3.13-3.85,3.15-3.46,2.07-9.8-2.05-12.02-.82-.44-1.76-.77-2.31-1.52-1.66-2.28,1.47-4.9,1.27-7.35-.21-2.58-1.97-4.8-4.02-6.24-1.86-1.31-5.4-3.31-7.68-3.05,1.21,3.39,5.28,5.03,6.98,8.24,1.77,3.35-.23,7.49-2.98,9.91,.81,.35,1.62,.7,2.4,1.1,.96,.48,1.88,1.03,2.71,1.7,1.43,1.16,2.94,3.08,2.81,5.02-.03,.5-2.33,5.72-2.39,5.71,1.68,.32,3.54,.95,4.25,2.51,1.34,2.98-2.64,6.43-1.3,9.42,.68,1.51,2.43,2.15,3.96,2.79,1.53,.64,3.2,1.74,3.25,3.4,.03,1.1-.68,2.07-1.36,2.95-.68,.87-1.38,1.86-1.32,2.96,0,.05,.01,.09,.02,.14-8.46-.69-17.89-2.23-27.55-3.93-.26-1.19-1-2.5-1.01-3.75,0-1.42,.98-2.62,1.66-3.88,2.07-3.84,1.04-9.08-2.32-11.85,2.77-1.81,4.39-5.25,4-8.54-.39-3.29-2.76-6.26-5.88-7.37,3.27-1.3,4.64-5.42,3.97-8.87-.44-2.26-1.72-5.63-3.6-6.95-1.48,1.31-.48,6.04-1,8.08-.38,1.48-.96,2.91-1.75,4.21-.23,.38-2.61,3.03-2.56,3.2,.83,3.29,5.95,4.06,6.64,7.38,.65,3.1-3.09,5.52-3.33,8.68-.18,2.34,1.61,4.45,1.66,6.8,.03,1.26-.44,2.47-.91,3.64-1.04,2.63-2.09,5.26-3.13,7.89-7.45-1.32-14.91-2.6-22.06-3.54,1.36-1.46,2.34-3.41,2.62-4.92,.39-2.13,.15-4.27-.37-6.39-.4-1.65-.97-3.28-1.54-4.88,.41,1.16,3.58-3.42,3.77-3.94,1.07-2.92,1.37-6.08,.35-9.06-.24-.7-.54-1.44-.32-2.15,.6-1.94,2.77-2.95,3.6-4.96,1.02-2.48,2.18-6.82,1.71-9.51-.49-2.82-3.48-3.26-4.46-5.71,1.78,4.42,1.5,9.91-1.24,13.88-1.03,1.5-2.41,2.83-2.92,4.57-.77,2.62,.58,5.08,.86,7.64,.32,2.91-.71,5.2-2.61,7.42-1.47,1.74-3.72,4.1-3.46,6.55,.1,.92,.55,1.75,.88,2.61,.72,1.88,.8,3.97,.31,5.92-.22,.88-.69,1.67-1.16,2.43-8.73-1.08-17.5-1.98-26.29-2.7,1.23-1.41,1.88-3.36,1.68-5.21-.17-1.56-1.03-3.26-.65-4.85,.38-1.56,1.7-2.3,2.7-3.48,1.41-1.67,2.51-3.6,3.23-5.66,.69-1.99-.35-4.73,.7-6.36,.54-.84,1.5-1.28,2.34-1.81,3.1-1.94,5.07-5.58,4.98-9.24-.04-1.74-.48-3.62,.38-5.13,.54-.94,1.5-1.57,2.03-2.51,.79-1.41,.42-3.23-.49-4.56-.91-1.33-2.27-2.27-3.6-3.18,1.06,2.71,.23,6.05-1.97,7.95,.94,3.67,.34,7.71-1.63,10.95-1.74,2.86-5.78,4.72-6.52,8.05-.4,1.82-.17,3.74-.52,5.57-.56,2.96-3.51,3.79-4.13,6.73-.03,.16-.06,.33-.09,.5-.3,2.25,.43,4.64-.41,6.8-.69,1.79-2.82,3.1-3.08,5.06-8.96-.66-17.93-1.14-26.89-1.41,.26-.46,.49-.93,.68-1.41,.13-.33,.78-3.69,.72-3.67,2.85-.93,6.99-3.44,8.05-6.44,1.23-3.49,.53-9.04-.4-12.53,5.42-3.09,10.58-8.77,7.74-15.32,3.63,.04,7.22-1.99,9.24-5.22,2.01-3.23,2.39-7.57,.96-11.14,2.86,.05,5.69-1.49,7.35-3.98,1.37-2.07,2.44-5.87,1.05-8.12-2.51,4.32-5.92,7.87-10.99,8.2,1.67,3.98,1.21,8.9-1.18,12.45-2.38,3.55-6.59,5.58-10.65,5.15,2.16,1.93,1.95,5.73,.4,8.25-1.33,2.15-3.44,3.37-5.05,5.13-1.35,1.48-3.3,2.98-3.3,5.17,0,2.05,1.52,3.51,1.35,5.59-.15,1.96-1.28,4.03-2.55,5.49-1.82,2.08-5.42,2.91-6.81,5.24-.44,.74-.75,6.75-.78,6.75-4.41,.75-9.24,.13-13.72,.12-2.57,0-5.14,.01-7.71,.04-.88,.01-6.31-.48-6.73,.12,2.53-3.61,2.49-9.07-.16-12.6,5.74-2.25,10.78-6.49,14.18-11.92,1.23-1.97,2.25-4.62,1.04-6.61,4.79-2.94,9.88-6.21,12.17-11.59,.72-1.68,1.15-3.55,2.23-4.99,1.42-1.91,3.71-2.76,5.63-4.07,3.86-2.64,6.32-7.5,6.27-12.41-2.35,3.9-5.66,7.13-9.51,9.27-1.9,1.06-4,1.91-5.41,3.64-2.84,3.49-2.14,9.62-5.72,12.2-1.35,.97-3.02,1.19-4.59,1.62-1.57,.43-3.23,1.24-3.9,2.82-.52,1.23-.33,2.65-.36,4-.11,4.08-2.41,7.81-5.37,10.39-2.95,2.58-6.52,4.2-10.04,5.79,.74,3.24,1.46,6.76,.19,9.81-.86,2.06-2.5,3.51-4.29,4.61-.17,.1-.38,.21-.62,.31-12.68,.59-25.01,2.26-28.5,8.89-3.29,6.25-10.83,18.53-3.32,24.39,4.7,3.67,14.12,4.58,19.78,6.26,9.31,2.77,18.81,4.87,28.42,6.27,9.63,1.41,19.29,2.01,29.01,2.13,7.92,.09,14.71,2.63,22.57,3.61,9.61,1.2,19.19,1.79,28.83,2.08,9.04,.28,17.86,2.92,26.92,4.4,20.35,3.34,41.11,4.15,61.65,2.38,13.4-1.15,23.11,3.12,23.32-8.99,.12-7.19,.19-13.4-.32-20.65Z"/><path class="hat-1" d="M9.68,165.56c1.18-3.99,5.48-12.02,8.38-15,4.43-4.56,14.46-5.17,20.8-5.54,36.94-2.2,70.99-3.61,107.82-.03,33.02,3.21,65.43,11.78,97.4,20.12,7.26,1.89,14.76,5.3,18.38,11.87,2.15,3.9,2.68,8.46,3.17,12.89-.36,15.93,1.07,32.76,1.79,48.79C182.4,205.48,90.36,191.18,0,213.8c.42-18.35,7.51-40.91,9.68-48.24Z"/><path class="hat-3" d="M24.57,206.77c-1.59-2.84,.46-12.79,.82-14.55,1.48-7.22,3.85-14.21,6.21-21.18,1.36-4.01,.42-8.49,.97-12.64,.4-2.98,.14-7.35,2.48-9.57,2.39-2.26,6.05-1.51,9.03-1.86-5.16,8.47-7,18.34-8.64,27.97-.81,4.77-1.51,9.59-2.63,14.3s-1.32,9.9-3.24,14.48c-.46,1.11-1.05,2.21-1.99,2.94-1.53,1.2-2.47,1.04-3,.1Z"/><path class="hat-3" d="M62.31,201.64c-.97,1.24-3.15,.65-3.96-.7s-.76-2.03-.6-3.6c1.58-15.21,3.16-30.49,6.94-45.34,.76-2.97,2.17-7.85,6.48-5.55,3.11,1.66,.87,5.56,.13,8.05-2.17,7.23-3.98,14.58-5.44,21.99-1.7,8.65-2.83,16.37-3.55,25.15Z"/><path class="hat-3" d="M98.53,145.56c1.1-.35,2.41-.44,4.13-.52-.22,.01-2.4,5.42-2.53,5.79-1.72,4.64-1.39,10.98-1.31,15.89,.13,7.93-1.76,15.79-3.46,23.64-.36,1.67-.92,9.73-3.12,9.9-2.89,.22-2.49-5.35-2.34-6.88,1.17-11.66,5.42-22.18,3.04-34.17-.66-3.32,.02-6.91,1.65-9.86,1.26-2.28,2.39-3.31,3.94-3.8Z"/><path class="hat-3" d="M125.14,171.64c-2.05,10.35-5.22,21.57-1.21,31.19,1.2,1.47,3.68,.3,4.3-1.55s.05-3.87-.42-5.76c-2.83-11.43,1.42-28.19,6.51-38.74,1.26-2.61,5.92-16.35-2.73-9.4-5.67,4.55-5.05,17.25-6.44,24.26Z"/><path class="hat-3" d="M155.47,189.15c-.99,3.17-2.12,6.41-1.92,9.73s2.13,6.79,5.34,7.66c1.29-13.39,3.17-28.69,7.51-41.42,1.32-3.87,2.8-7.97,1.87-11.96-.56-2.39-3.15-5.34-5.9-3.1-2.01,1.63-1.16,9-1.36,11.25-.85,9.44-2.71,18.8-5.54,27.85Z"/><path class="hat-3" d="M192.7,169.43c-.65,7.3-1.55,14.14-4.11,20.92s-2.73,13.94-.61,20.61c1.41,.29,1.79,.56,3.19,.85-.32-13.72,6.02-27.14,7.15-40.85,.36-4.34,1.27-16.97-3.6-15.47-5.2,1.6-1.65,9.69-2.03,13.95Z"/><path class="hat-3" d="M223.09,187.06c-1.54,8.87-4.89,17.31-7.55,25.91-.53,1.71-.8,4.03,.79,4.85,1.02,.53,2.34,.03,3.09-.83s1.09-2.01,1.41-3.12c2.45-8.62,4.9-17.24,7.34-25.87,1.44-5.07,2.89-10.34,2.04-15.54-.57-3.47-8.67-14.54-8.75-7.86-.04,3.29,2.12,7.34,2.34,10.86,.24,3.87-.06,7.77-.72,11.59Z"/><path class="hat-3" d="M251.73,223.11c-.35,1.82-.74,3.74-.16,5.49s2.54,3.12,4.1,2.27c.76-16.14,1.09-32.3,1.01-48.46-.01-2.62-.06-5.35-1.17-7.69-.46-.98-2.92-4.29-4.29-3.5s-.09,3.85,.15,5.06c1.04,5.22,1.81,10.48,2.19,15.8,.74,10.36,.13,20.83-1.83,31.01Z"/><path class="hat-1" d="M220.59,42.11l-.1,1.83c-.04,.7,.4,1.34,1.05,1.53l7.25,2.06c.51,.14,.9,.58,1.02,1.13l.45,2.19c.13,.61-.13,1.23-.63,1.53l-4.08,2.46c-.68,.41-.87,1.36-.41,2.06l.84,1.29c.5,.77,.22,1.81-.58,2.15l-2.24,.93c-1,.41-1.12,1.86-.22,2.53l3.8,2.83c.96,.72,.73,2.28-.38,2.58l-2.62,.71c-.65,.18-1.06,.83-.97,1.55l.37,2.89c.02,.14,.05,.27,.1,.4l-3.21,.56c.24,.57,.11,1.23-.32,1.64l-1.92,1.82c-.26,.24-.6,.37-.95,.35l-.85,3.76c-.18-.01-.36-.06-.52-.14l-7.46-3.76c-1.16-.58-2.32,.66-1.77,1.89l.17,.38c.55,1.23-.62,2.47-1.77,1.89h0c-1.15-.58-2.32,.66-1.77,1.88l4,9.05c.18,.42,.18,.89-.02,1.29l-.92,1.85c-.37,.75-1.29,.97-1.97,.46l-5.02-3.76c-.25-.19-.55-.28-.85-.27l-1.96,.06c-.6,.02-1.1,.46-1.24,1.08l-.61,2.78c-.22,1.02-1.38,1.42-2.16,.74l-2.7-2.34c-.14-.12-.31-.22-.48-.27l-2.85-.92c-.17-.06-.33-.15-.48-.27l-1.25-1.07c-.83-.71-2.05-.22-2.18,.88l-.77,6.32c-.2,1.61-2.36,1.62-2.68,.02l-1.39-7.06c-.2-.99-1.25-1.51-2.05-1l-1.29,.81s-.05,.03-.07,.05l-2.05,1.5c-.69,.51-1.68,.2-2.03-.64l-.52-1.23c-.4-.95-1.56-1.19-2.23-.47l-1.81,1.97c-.71,.77-1.97,.43-2.28-.63l-.84-2.77-.68-2.02c-.34-1-1.52-1.33-2.22-.63l-5.36,5.32c-.69,.68-1.83,.39-2.2-.56l-.57-1.45c-.19-.49-.61-.84-1.09-.91l-1.73-.28c-.84-.14-1.38-1.04-1.14-1.89l1.05-3.68c.31-1.07-.63-2.13-1.66-1.87l-1.05,.27c-1.21,.3-2.18-1.15-1.49-2.24l1.9-3.01c.67-1.06-.24-2.5-1.44-2.25l-2.11,.43c-1.12,.23-2.03-1.04-1.51-2.12l.29-.6c.48-.99-.26-2.19-1.31-2.14l-2.22,.09c-1.34,.06-2-1.77-.94-2.61l1.95-1.55c1.07-.85,.39-2.69-.96-2.61l-5.69,.34c-1.44,.08-2.06-1.96-.82-2.71l2.41-1.46c1-.61,.82-2.21-.29-2.63l-2.98-1.1c-.82-.3-1.2-1.32-.78-2.1l1.04-1.97c.17-.32,.44-.55,.77-.65l5.52-1.71c1.24-.39,1.26-2.25,.02-2.74l-6.28-2.51c-.91-.36-1.22-1.57-.6-2.32l.8-.97c.4-.49,.43-1.22,.07-1.77l-1-1.53c-.66-1,.03-2.33,1.16-2.24l9.29,.72c.69,.05,1.3-.46,1.4-1.18l.15-1.08c.07-.49-.1-.98-.45-1.32l-6.61-6.34c-.92-.88-.41-2.46,.8-2.51l1.6-.06c.88-.03,1.47-.93,1.21-1.83l-.96-3.32c-.15-.53-.01-1.1,.36-1.46l1.62-1.59c.33-.32,.79-.44,1.24-.32l5.31,1.46c.54,.15,1.1-.06,1.42-.53l.66-.98c.42-.63,1.26-.77,1.87-.31l3.88,2.9c1.08,.81,2.46-.27,2.04-1.6l-2.19-6.91c-.09-.29-.1-.6-.02-.88l.86-3.03c.23-.79,1.05-1.2,1.78-.87l3.23,1.41c.17,.07,.32,.18,.45,.31l3.2,3.28c.82,.84,2.16,.35,2.28-.83l.29-2.89c.12-1.15,1.41-1.65,2.24-.86l2.24,2.13s.05,.05,.07,.07l2.83,3.07c.42,.46,1.06,.58,1.59,.31l1.64-.85c.16-.09,.31-.21,.43-.35l2.06-2.62c.45-.58,1.26-.66,1.85-.2l1.95,1.55,1.5,1.13c.67,.51,1.59,.29,1.97-.46l4.61-9.17c.42-.83,1.49-.98,2.14-.3l1.4,1.47c.26,.27,.41,.63,.42,1.01l.31,8.61c0,.05,0,.1,0,.16l-.32,4.89c-.08,1.27,1.31,2.07,2.23,1.29l3.86-3.3c.09-.08,.19-.14,.3-.19l3.9-1.79c.91-.42,1.95,.34,1.94,1.4l-.06,3.64c0,.08,0,.16-.02,.23l-.57,3.33c-.19,1.12,.87,2.07,1.87,1.66l4.26-1.76c.94-.39,1.97,.44,1.88,1.53l-.19,2.25c-.02,.29,.03,.58,.17,.83l.97,1.9c.27,.53,.22,1.16-.13,1.61l-2.19,2.79c-.83,1.05,.12,2.66,1.39,2.36l10.3-2.42c.88-.21,1.73,.55,1.7,1.51l-.07,1.98c-.01,.37-.16,.71-.41,.96l-4.77,4.82c-.24,.24-.38,.58-.4,.93Z"/><path class="hat-3" d="M220.59,42.11l-.1,1.83c-.04,.7,.4,1.34,1.05,1.53l7.25,2.06c.51,.14,.9,.58,1.02,1.13l.45,2.19c.13,.61-.13,1.23-.63,1.53l-4.08,2.46c-.68,.41-.87,1.36-.41,2.06l.84,1.29c.5,.77,.22,1.81-.58,2.15l-2.24,.93c-1,.41-1.12,1.86-.22,2.53l3.8,2.83c.96,.72,.73,2.28-.38,2.58l-2.62,.71c-.65,.18-1.06,.83-.97,1.55l.37,2.89c.02,.14,.05,.27,.1,.4l-3.21,.56c.24,.57,.11,1.23-.32,1.64l-1.92,1.82c-.26,.24-.6,.37-.95,.35l-.85,3.76c-.18-.01-.36-.06-.52-.14l-7.46-3.76c-1.16-.58-2.32,.66-1.77,1.89l.17,.38c.55,1.23-.62,2.47-1.77,1.89-2.55-1.28-.95,3.37-2.52,4.04-.99,.43-2.14,.1-3.15-.31s-2.03-.92-3.11-.83c-2.02,.17-3.24,2.21-4.4,3.87s-3.31,3.26-5.04,2.2c-.86-.52-1.26-1.53-1.82-2.36-1.24-1.83-3.52-2.9-5.73-2.68,.96,.83,.71,2.56-.32,3.3s-2.53,.57-3.56-.18-1.63-1.96-1.92-3.19c-.2-.85-.33-1.8-1-2.36-1.23-1.03-3.08,.13-4.03,1.42s-1.92,2.92-3.52,3c-1.27,.07-2.35-.94-3.01-2.02s-1.1-2.32-1.95-3.26-2.36-1.49-3.4-.76c.97,1.63,.97,3.8-.01,5.43s-2.89,2.65-4.79,2.56c.02-2.35,.04-4.69,.05-7.04-.82,1.23-2.45,1.85-3.88,1.5s-2.58-1.66-2.74-3.13c-.11-.99,.19-1.97,.39-2.94,.42-2.13-.14-3.69-2.32-3.68-.73,0-3.19,1.03-2-1.43l.29-.6c.48-.99-.26-2.19-1.31-2.14l-2.22,.09c-1.34,.06-2-1.77-.94-2.61l1.95-1.55c1.07-.85,.39-2.69-.96-2.61l-5.69,.34c-1.44,.08-2.06-1.96-.82-2.71,1.25-.76,2.89-1.08,3.66-2.48,.34-.63,.49-1.35,.88-1.96,2.08-3.21,4.41,5.48,4.98,6.73,1.32,2.93,5.53,5.32,7.49,2.77,1.81-2.36-.62-6.42,1.47-8.54-.14,.14,2.14,3.91,2.3,4.26,1.02,2.26,2.5,4.17,4.14,6.08,.63,.73,1.51,1.52,2.43,1.22,.93-.3,1.19-1.47,1.29-2.45,.11-1.13,.23-2.26,.34-3.39,.08-.84,.28-1.83,1.05-2.15,.7-.29,1.52,.16,1.96,.79,.76,1.09,.8,2.85,1.94,3.69,.84,.62,1.96,.64,2.87,1.14,1.17,.65,2.01,1.79,2.93,2.72,1.17,1.19,2.86,2.25,4.42,1.68,.59-.22,1.07-.64,1.56-1.02,2-1.58,5.04-.53,4.15-3.87-.28-1.07-.78-2.12-.66-3.22,.15-1.36,.6-1.57,1.72-1.2,.58,.19,.78,.96,1.47,.99,.63,.03,1.77-1.14,2.49-1.34,2.18-.61,2.68,.65,3.88,2.01,1.13,1.28,3.51,1.48,5.12,1.93,.37,.11,.75,.21,1.13,.17s.77-.26,.9-.62c.14-.41-.08-.85-.37-1.17s-.64-.58-.86-.95-.23-.91,.12-1.17c.59-.43,1.58,.33,2.08-.2,.22-.23,.2-.58,.13-.89-.28-1.23-1.31-1.82-2.04-2.75-.83-1.05-1.07-2.23-.93-3.55,.46-4.15,6.24-6.75,9.36-3.98-2.68,.24-5.08-2.78-4.24-5.34,.85-2.6,3.66-1.41,5.76-1.18,.39,.04,.81,.08,1.17-.08,.6-.26,.87-1.02,.74-1.66s-.56-1.18-1.03-1.64c-1.41-1.35-3.35-2.21-4.31-3.91-.26-.47-.44-1.05-.21-1.53,.29-.61,1.07-.79,1.75-.76,1.89,.1,2.85,.19,3.15-2.01,.2-1.51-.34-3.13-1.48-4.15-1.71-1.52-4.39-1.67-5.89-3.38-1.3-1.48-1.24-3.97,.13-5.38,1.39-1.43,3.6-1.41,5.25-.5-.78-2.43-.72-5.54,1.06-7.41,1.1,2.43,.3,5.67-.16,8.32-.19,1.12,.87,2.07,1.87,1.66l4.26-1.76c.94-.39,1.97,.44,1.88,1.53l-.19,2.25c-.02,.29,.03,.58,.17,.83l.97,1.9c.27,.53,.22,1.16-.13,1.61l-2.19,2.79c-.83,1.05,.12,2.66,1.39,2.36l10.3-2.42c.88-.21,1.73,.55,1.7,1.51l-.07,1.98c-.01,.37-.16,.71-.41,.96l-4.77,4.82c-.24,.24-.38,.58-.4,.93Z"/></g></g></g></g></svg>
