<?xml version="1.0" encoding="UTF-8"?><svg xmlns="http://www.w3.org/2000/svg" xmlns:xlink="http://www.w3.org/1999/xlink"><defs><style>.pharoah-1{fill:none;}.pharoah-2{clip-path:url(#clippath3);}.pharoah-3{fill:#edc05d;}.pharoah-4{fill:#d1a652;}.pharoah-5{fill:#222e59;}.pharoah-6{fill:#405c4d;}.pharoah-7{clip-path:url(#clippath-phar);}.pharoah-8{isolation:isolate;}.pharoah-9{mix-blend-mode:multiply;opacity:.18;}</style><clipPath id="clippath3"><path class="pharoah-1" d="M58.53,128.53c49.53-23.66,141.45-24.6,191.94-3.07,2.51,65.63,5.52,128.82,8.03,194.44,.07,1.84,.25,3.91,1.66,5.09,1.32,1.11,3.25,1.02,4.96,.78,18.29-2.59,33.32-15.98,44.17-30.93s18.68-31.94,29.77-46.72c11.09-14.77,26.66-27.72,45.06-29.4-21.94-32.3-43.74-69.95-61.09-104.93-11.57-23.32-21.51-48.4-40.44-66.26C251.89,18.61,210.19,4.42,168.01,5.3c-26.55,.55-52.9,7.43-76.49,19.59-21.17,10.91-47.05,27.19-56.8,49.97-4.3,10.05-5,21.22-5.64,32.14-1.44,24.43-4.35,48.73-7.24,73.02-.33,2.78-4.25,43.65-5.2,47.35,4.92-1.06,14.61-3.84,14.61-3.84-.87-17.55,.81-34.99,5.45-50.87s13.3-32.38,21.82-44.12Z"/></clipPath><clipPath id="clippath-phar"><path class="pharoah-1" d="M11.21,337.65c.16,.1,.32,.2,.48,.3,14.92,8.72,32.89,14.66,49.95,17.42-2.01-15.38-4.69-28.09-8.25-41.07-4.93-17.98-9.75-33.57-13.74-47.52l-24.38,4.87c-.43,5.16-6.07,38.89-7.28,48.11-.91,6.96-3.69,13.45,3.22,17.9Z"/></clipPath></defs><g class="pharoah-8"><g id="Layer_2"><g id="Hats"><g id="Hat-Pharaoh"><path class="pharoah-9" d="M95.12,121.71c22.5-4.89,46.35-5.7,68.87-5.65,4.61,0,9.22,.1,13.82,.41,26.06,1.72,52.55,6.57,77.02,15.69,.7-5.79-4.3-9.37-8.94-12.9s-10.36-5.29-15.99-6.83c-51.34-14-112.19-16.06-162.16,4.78-8.52,3.55-14.97,10.59-17.12,19.77,.26-1.09,33.19-12.81,44.5-15.27Z"/><path class="pharoah-9" d="M250.97,317.9c.76,5.32,.8,11.68,4.01,16.2,10.87,15.29,38.72-6.72,47.7-14.68,10.74-9.52,16.17-16.55,23.54-29.48,13.72-24.05,23.74-53.39,45.02-71.1-28.26-21.54-53.09-47.59-73.26-76.85-4.5-6.52-10.25-2.21-16.5-.29-7.34,2.25-14.09,6.5-19.23,12.21-3.64,4.05-7.77,8.48-8.45,13.89-3.17,25.29-6.47,124.52-2.84,150.1Z"/><path class="pharoah-3" d="M58.53,128.53c49.53-23.66,141.45-24.6,191.94-3.07,2.51,65.63,5.52,128.82,8.03,194.44,.07,1.84,.25,3.91,1.66,5.09,1.32,1.11,3.25,1.02,4.96,.78,18.29-2.59,33.32-15.98,44.17-30.93s18.68-31.94,29.77-46.72c11.09-14.77,26.66-27.72,45.06-29.4-21.94-32.3-43.74-69.95-61.09-104.93-11.57-23.32-21.51-48.4-40.44-66.26C251.89,18.61,210.19,4.42,168.01,5.3c-26.55,.55-52.9,7.43-76.49,19.59-21.17,10.91-47.05,27.19-56.8,49.97-4.3,10.05-5,21.22-5.64,32.14-1.44,24.43-4.35,48.73-7.24,73.02-.33,2.78-4.25,43.65-5.2,47.35,4.92-1.06,14.61-3.84,14.61-3.84-.87-17.55,.81-34.99,5.45-50.87s13.3-32.38,21.82-44.12Z"/><path class="pharoah-9" d="M57.93,128.39c.06-.24,.1-.49,.14-.74,.41-2.79-.04-5.63-.48-8.42-1.95-12.18-3.9-24.37-5.85-36.55-.25-1.57-.54-3.22-1.56-4.44-1.62-1.93-4.73-2.08-6.89-.79-9.75,5.86-6.19,23.02-6.24,32.45-.08,17.64-2,34.78-5.13,52.02-1.88,10.38-3.21,20.9-5.31,31.28-.71,3.55-4.01,30.16-5.02,33.03,1.12-.23,9.67-2.7,9.67-2.7-.87-17.55,.81-34.99,5.45-50.87,2.71-9.3,6.59-18.28,11.13-26.83,1.81-3.41,3.58-7.28,5.79-10.45,1.68-2.41,3.62-4.03,4.3-6.99Z"/><g class="pharoah-2"><path class="pharoah-5" d="M74.71,77.45c.08-16.15,3.2-32.62,11.49-46.48,8.3-13.86,24.52-24.82,40.51-27.09-3.9,12.45-14.95,24.19-19.81,35.7-5.21,12.34-8.55,25.08-7.77,38.28,.74,12.57,3.19,24.98,4.65,37.48,1.19,10.16-11.43,12.94-19.92,10.74-5.37-1.4-4.55-5.49-5.48-11.12-2.04-12.4-3.74-24.91-3.67-37.51Z"/><path class="pharoah-5" d="M129.34,57.3c1.93-10.03,6.3-19.43,11.08-28.46,5.66-10.69,12.7-21.72,23.89-26.29,8.33-3.4,17.68-2.68,26.65-1.91,1.14,.1,2.35,.23,3.23,.95,1.42,1.16,1.38,3.44,.43,5s-2.57,2.57-4.12,3.54c-18.36,11.43-33.05,26.54-37.21,48.56-3.66,19.36,.69,39.86,5.66,58.6-.21-.81-20.96,2.9-22.99,2.7-2.79-.27-5.63-1.77-6.7-4.36-.55-1.33-.58-2.81-.61-4.26-.33-17.68-2.68-36.62,.68-54.07Z"/><path class="pharoah-5" d="M234.53,12.12c-7.31-.88-14.68,1.92-20.68,6.19-13.78,9.81-25.25,24.44-30.47,40.89-6.32,19.9,1.35,39.6-1.22,59.79,9.34,.31,19.67,.71,29.01,1.02,1.77,.05-1.14-32.23-1.33-35.32-1.74-27.91,16.82-60.09,47.65-59.98-7.41-4.67-14.27-11.55-22.96-12.6Z"/><path class="pharoah-5" d="M288.11,46.6c-7.72-.38-15.56-.66-23.08,1.12s-17.26,7.45-21.2,14.1c-3.29,5.54-3.97,12.2-4.56,18.62-1.34,14.43-.24,27.32-1.58,41.75,4.28,1.36,8.53,2.7,12.81,4.07,.55-11.89,4.14-22.84,7.58-34.27,1.58-5.25,5.04-14.31,5.48-15.57,5.06-14.45,9.03-10.99,37.29-10.51-2.41-6.53-7.76-14.43-12.74-19.3Z"/><path class="pharoah-5" d="M247.15,149.74c4.82-7.54,13.84-11.34,22.64-12.98,9.99-1.86,20.46-1.46,30.27-4.05,10.01-2.65,19.52-7.19,27.86-13.35,3.36,7.24,7.85,15.62,11.21,22.86-12.53,5.48-26.16,12.13-39.67,14.25-9.26,1.45-18.69,2.1-27.67,4.77-8.98,2.67-17.71,7.72-22.42,15.82,1.13-7.59-.21-19.91-2.21-27.32Z"/><path class="pharoah-5" d="M297.74,182.89c18.57-4.48,38.56-9.17,51.28-23.42,4.72,7.91,9.44,15.82,14.16,23.73-5.06,6.38-12.43,10.58-20.08,13.36s-15.7,4.3-23.59,6.3c-24.65,6.24-48.09,17.33-68.37,32.67,2.13-1.62-3.06-20.66-2.8-23.97,.47-5.97,6.5-10.39,11.17-13.71,11.25-8,25-11.77,38.24-14.96Z"/><path class="pharoah-5" d="M297.19,240.16c14.71-6.83,30.32-10.59,45.18-16.72,6.66-2.75,13.74-4.31,20.43-6.97,4.96-1.97,14.21-11.18,18.67-8.9,3.84,1.96,6.79,5.78,7.23,10.07,.69,6.64-4.49,12.56-10.3,15.86-5.81,3.29-12.47,4.88-18.22,8.27-4.97,2.93-8.71,6.95-13.11,10.52s-9.43,4.2-14.64,5.84c-12.51,3.94-24.79,8.6-36.76,13.95-7.63,3.41-41.76,20.49-42.14,23.98,.54-5.03,1.33-10.07,1.12-15.08-.14-3.26-1.59-7.83-.55-11.01,2.06-6.29,10.1-11.86,15.45-15.09,8.22-4.97,26.87-14.36,27.62-14.71Z"/><path class="pharoah-5" d="M314.78,293.98c-7.47,14.7-20.25,26.62-35.43,33.04-4.53,1.92-9.41,3.38-14.32,2.98-3.73-.3-12.95-3.26-10.7-8.38,1.82-4.14,15.18-8.22,19.21-10.14,13.48-6.43,27.25-12.27,41.24-17.5Z"/><path class="pharoah-5" d="M56.22,110.7c-1.3-8.67-2.01-17.37-3.65-26-.81-4.26-1.71-8.5-2.69-12.73-.82-3.56-3.01-8.42-2.14-12.05,.41-1.69,1.27-3.23,2.12-4.75s1.69-3.08,2.04-4.78c-1.85,1.69-3.7,3.37-5.55,5.06-1.79,1.63-2.6-.23-4.66,.05s-3.98,1.94-5.33,3.47c-7.61,8.59-11.82,20.12-11.53,31.59,.05,1.78,.23,3.66,1.25,5.12,2.15,3.06,6.65,2.52,10.36,2.91,14.67,1.56,19.37,9.47,19.77,12.1Z"/><path class="pharoah-5" d="M39.11,126.57c5.69,2.65,10.58,6.79,14.9,11.35,.98,1.03,1.99,2.21,2.06,3.63,.07,1.25-.61,2.41-1.26,3.48-3.21,5.28-6.43,10.55-9.64,15.83-7.31-2.65-14.63-5.29-21.94-7.94-1.01-.37-2.1-.79-2.68-1.7-.55-.87-.49-1.97-.42-3,.3-4.26,.6-8.53,.9-12.79,.18-2.59-.47-7.19,.8-9.53,2.71-5.02,13.33-1.17,17.28,.68Z"/><path class="pharoah-5" d="M14.86,179.5c-1.31,6.65-2.22,13.4-2.72,20.17-.13,1.73-.21,3.57,.45,5.07,1.34,3.03,4.81,3.16,7.69,3.09,6.28-.14,12.54,.61,18.62,2.23,1.49-6.09,5.43-22.67,.4-27.15-1.84-1.63-24.55-2.79-24.43-3.42Z"/><path class="pharoah-5" d="M274.31,87.95c11.64-4.11,23.97-6.28,36.31-6.39,2.46,5.38,4.92,10.76,7.38,16.14,.44,.97,.9,2.02,.7,3.07-.33,1.76-2.28,2.65-3.99,3.18-7.97,2.42-16.38,2.85-24.68,3.45s-16.73,1.44-24.44,4.59c-7.77,3.18-14.19,8.81-17.36,16.66-.5-7.77-.61-19.01,4.18-25.72,5.03-7.06,13.95-12.17,21.9-14.98Z"/></g><path class="pharoah-9" d="M293.33,114.1c-.1,0-.2,0-.3,.02-1.1,.14-1.9,1.21-2.1,2.3s.08,2.21,.35,3.29c3.11,12.32,4.99,24.93,8.23,37.21,3.23,12.38,6.71,24.7,9.57,37.18,4.85,21.12,9.54,42.29,14.71,63.34,3.14,12.79,12.6-5.76,15.26-9.29,6.91-8.98,15.22-17.76,24.51-24.16-13.05-28.93-33.55-54.47-49.54-81.82-5.03-8.6-9.84-22.3-18.96-27.47-.54-.3-1.13-.57-1.74-.59Z"/><path class="pharoah-9" d="M250.64,128.02c0,4.12,.25,8.35,.44,13.14,.64,16.12,1.31,32.24,1.99,48.35,.29,6.93-.75,15.59,.93,22.3,1.46,5.83,5.17,28.73,7.82,33.97s8.38,9.45,14.14,8.29c4.43-.89,7.81-4.74,9.32-9s1.44-8.9,1.18-13.41c-2.34-39.93-18.79-77.95-21.78-117.84-.91-12.13-.13-25.52,8.01-34.56,2.79-3.1,6.66-6.94,4.8-10.68-1.5-3-6.04-3.2-8.75-1.23s-4.03,5.3-5.17,8.45c-4.06,11.24-7.64,22.65-10.72,34.19-1.76,6.6-2.22,12.2-2.21,18.03Z"/><path class="pharoah-3" d="M11.21,337.65c.16,.1,.32,.2,.48,.3,14.92,8.72,32.89,14.66,49.95,17.42-2.01-15.38-4.69-28.09-8.25-41.07-4.93-17.98-9.75-33.57-13.74-47.52l-24.38,4.87c-.43,5.16-6.07,38.89-7.28,48.11-.91,6.96-3.69,13.45,3.22,17.9Z"/><g class="pharoah-7"><path class="pharoah-5" d="M57.75,287.65c.28,11.34,1.59,22.66,3.91,33.76-20.9-1.87-41.61-5.93-61.66-12.11-.14-.04,3.91-16.68,4.59-18.66,1.36-3.96,3.28-6.68,7.67-7.18,6.8-.78,14.77,1.21,21.57,1.87,7.97,.77,15.94,1.54,23.91,2.32Z"/></g><path class="pharoah-9" d="M131.01,26.76c2.89,2.29,4.97,5.36,7.01,8.37,4.45,6.59,9.02,13.52,9.8,21.32,.56,5.62-.08,12.17-2.72,17.28-3.04,5.88-7.48,10.61-8.13,17.4s1.63,13.67,5.32,19.33c-.76,.15-4.17-.12-4.84-.14-1.77-.06-3.42-.19-4.87-1.19-1.84-1.26-2.94-3.26-3.98-5.18-2.24-4.15-4.52-8.38-5.41-12.97-1.14-5.83,.03-11.81,.43-17.73,.5-7.37-.17-14.75-.85-22.11-.64-6.94-1.28-13.87-1.92-20.81-.24-2.58-1.94-6.62,1.78-6.71,3.04-.08,6.09,1.33,8.38,3.14Z"/><path class="pharoah-9" d="M16.6,333.83c.12,.74,.27,1.48,.46,2.21,2.61,9.93,33.2,17.48,44.58,19.32-2.01-15.38-4.69-28.09-8.25-41.07-4.93-17.98-9.75-33.57-13.74-47.52-3.84,.77-13.73,2.63-17.55,3.5,0,0-5.35,40.29-5.79,54.53-.09,3.01-.18,6.07,.28,9.03Z"/><path class="pharoah-4" d="M104.78,25.57c-2.17,1.15-4.53,3.45-4.06,6.05,.43,2.41,2.65,3.79,4.11,4.89-.09-.19-4.88,3.55-6.37,5.34-8.72,10.44-9.68,26.33-2.28,37.72,2.93,4.51,7.37,7.96,8.89,13.14,1.64,5.59,1.42,14.22,6.7,17.9,4.26,2.96,9.8,3.86,14.88,3.19,2.24-.3,4.33-1.1,6.54-1.46,.56-.09,6.14-1.67,6.11-1.7-5.63-4.89-8.72-11.61-8.22-18.84,.56-7.99,7.82-13.92,11.01-21.04,5.64-12.62-.66-25.59-10.23-34.51-1.65-1.54-1.06-4.06-1.98-6.1-1.29-2.89-4.18-6.04-7.42-6.89-5.36-1.4-10.79-.12-15.83,1.52-.63,.21-1.26,.47-1.85,.78Z"/><path class="pharoah-6" d="M127.61,102.58c-1.05-2.92-1.53-6.08-1.77-9.57-.4-5.82-.67-11.71-.7-17.55-.04-6.36,.31-12.72,.84-19.06,.27-3.24,.59-6.48,.94-9.72,.17-1.55,.34-3.1,.51-4.66,.08-.67,1.29-5.24,1.29-5.24,4.6,3.47,10.9,11.71,12.25,18.47,1.02,5.08,.52,9.21-1.18,14.12-1.56,4.53-5.79,9.01-8.29,13.09-2.28,3.71-2.92,9.47-2.55,13.69,.51,5.73,3.77,11.43,8.03,15.44-.58,.08-1.57,.48-2.36,.48-.53,0-1.08-.68-1.45-1.04-2.74-2.63-4.47-5.42-5.57-8.47Z"/><path class="pharoah-6" d="M109.01,37.11c-.13,2.19-5.43,29.63,5.35,71.26,.46,1.76,2.78,5.09,5.05,5.22-3.2-.18-6.03-2.28-7.73-4.87s-3.02-7.3-3.61-10.3c-.71-3.64-1.15-7.91-3.21-11.13-3.43-5.35-8.46-9.69-10.29-16.01s-1.63-14.63,1.09-20.83c1.48-3.38,3.45-5.67,5.96-8.4,3.07-3.34,7.41-5.12,7.4-4.94Z"/><path class="pharoah-9" d="M120.49,30.84c-.64-.56-1.28-1.22-1.45-2.03s.31-1.81,1.18-1.93c-.28,.66-.17,1.47,.29,2.04,1.44,1.79,3.61-.08,5.41-.06,1.61,.02,3.19,.95,3.88,2.34,1.07,2.18-.69,3.61-1.07,5.61-.56,2.86-1.31,5.21-1.56,8.11-.51,5.88-1.4,12.91-1.7,18.8-.6,11.78,.42,23.16,.69,34.96-.03-1.16-.75-2.59-1.03-3.74-.32-1.3-.62-2.6-.88-3.91-.52-2.61-.91-5.24-1.2-7.88-.57-5.27-.7-10.57-.57-15.86,.15-6.08,.3-12.22,1.37-18.22,.37-2.09,.81-4.2,.66-6.32-.19-2.61-.5-5.14-3.47-4.86-3.32,.31-6.55,.41-9.87-.05-2.7-.38-5.5-.55-7.56-2.28-1.36-1.15-3.63-4.47-.16-4.55,1.2-.03,2.94,1.01,4.17,1.26,1.42,.29,2.87,.43,4.31,.43,1.61,0,3.22-.19,4.78-.56,.35-.08,3.62-1.4,3.78-1.26Z"/><path class="pharoah-9" d="M121.65,105.44c3.27-.15,6.62-1,9.76-.12,3.05,.86,5.74,3.07,7.88,5.31-3.63,1.31-12.07,3.87-17.12,3.34-3.61-.38-7.3-1.36-10.34-3.26-1.87-1.16-4.6-5.52-4.96-8.56,4.62,2.14,9.43,3.53,14.78,3.28Z"/></g></g></g></g></svg>
