<?xml version="1.0" encoding="UTF-8"?><svg xmlns="http://www.w3.org/2000/svg"><defs><style>.hat-1{fill:#f9bdf5;}.hat-2{fill:#fff200;}.hat-3{isolation:isolate;}.hat-4{mix-blend-mode:multiply;opacity:.17;}</style></defs><g class="hat-3"><g id="Layer_2"><g id="Hats"><g id="Har-Flower"><path class="hat-1" d="M54.79,3.83c.08-.06,.15-.11,.23-.17,11.76-8.54,26.26-1.12,32.04,11.6,3.43,7.56,1.62,16.77-3.01,23.66-4.9,7.27-15.65,21.27-25.08,21.52-10.92,.3-13.47-20.93-14.44-29.64-1.12-10.01,2.2-20.96,10.26-26.97Z"/><path class="hat-1" d="M107.78,42.09c.08,.06,.16,.11,.23,.17,11.76,8.54,9.2,24.63-1.12,34.06-6.13,5.61-15.44,6.73-23.43,4.45-8.43-2.41-25.06-8.3-28.23-17.19-3.66-10.3,15.74-19.28,23.72-22.91,9.17-4.16,20.61-4.39,28.82,1.42Z"/><path class="hat-1" d="M84.31,106.66c-.04,.09-.07,.18-.11,.27-5.52,13.45-21.75,14.76-33.36,6.98-6.9-4.63-10.2-13.41-9.87-21.71,.34-8.76,2.13-26.32,10.02-31.49,9.14-5.99,22.46,10.72,27.87,17.62,6.22,7.92,9.14,18.99,5.45,28.34Z"/><path class="hat-1" d="M17.49,100.55c-.1,0-.19-.02-.29-.03-14.44-1.65-20.12-16.91-15.79-30.2,2.58-7.9,10.13-13.46,18.2-15.41,8.52-2.05,25.9-5.11,33.03,1.07,8.25,7.16-4.21,24.53-9.37,31.61-5.93,8.14-15.78,13.96-25.79,12.95Z"/><path class="hat-1" d="M3.55,38.22c-.02-.09-.05-.19-.07-.28C.12,23.8,12.53,13.26,26.5,12.81c8.3-.27,16.1,4.94,20.68,11.87,4.83,7.32,13.62,22.62,10.24,31.42-3.92,10.2-24.5,4.39-32.92,1.95-9.67-2.81-18.5-10.09-20.96-19.84Z"/><path class="hat-4" d="M25.71,35.13c11.25-2.22,22.64,2.9,29.34,11.96-1.09-8.36,4.46-17.18,7.51-24.87,.1,8.61-.09,19.19,1.29,27.11,1.38,7.91,9.96,5.45,15.73,4.88,6.44-.63,12.51-.13,18.84,1.43-7.18,1.42-17.92,2.63-24.34,5.95-10.71,5.54-7.91,11.05-9.52,21.73-.95,6.28-2.26,12.5-3.93,18.62-.75-7.39-2.67-16.09-4.38-22.23-2.27-8.14-7.91-12.45-16.39-11.68-5.97,.54-19.31,5.66-25.27,8.38,5.62-7.08,13.45-12.9,22.3-15.14,3.85-.97,14.14-.64,10.33-7.33-2.31-4.06-16.26-19.87-21.52-18.82Z"/><circle class="hat-2" cx="56.32" cy="58.84" r="16.86"/></g></g></g></g></svg>
