<?xml version="1.0" encoding="UTF-8"?>
<svg xmlns="http://www.w3.org/2000/svg"><defs><style>.hat-1{fill:#e89e4d;}.hat-2{fill:#283c75;}.hat-3{isolation:isolate;}.hat-4{mix-blend-mode:multiply;opacity:.25;}</style></defs><g class="hat-3"><g id="Layer_2"><g id="Layer_1-2"><g id="Hat-Witch"><path class="hat-2" d="M415.89,365.9c-72.18-37.68-180.17-53.29-254.11-13.64,10.93-80.66,57.3-152.84,112.78-210.49,7.12-5.55,15.41-9.38,23.68-13,47.52-20.81,98.07-42.43,148-56.43,7.67-1.71,14.67-5.22,19.89-11.18,20.55-20.39,41.1-40.77,61.65-61.16-9.97,46.22-15.46,93.84-27.98,139.33-14.69,21.28-33.93,38.95-50.51,58.89-5.46,6.2-11.01,12.55-14.19,20.17-7.31,30.32-25.95,136.45-19.21,147.51Z"/>
  <path class="hat-1" d="M201.61,238.15c-14.44,25.62-25.94,52.75-33.28,81.1,24.35,7.84,51.04,7.73,76.84,9.31,3.27,.2,6.53,.43,9.8,.68,26.25-.91,53.18,1.87,79.05,7.49,22.33,1.6,44.62,1.98,66.83-.82,5-.63,9.99-1.42,14.97-2.24,1.88-18.61,5.47-42.37,9.22-64.07-70.79-27.25-147.87-38.14-223.43-31.46Z"/>
  <path class="hat-2" d="M148.2,395.24s-8.98-2.82-12.43-3.85c-28.03-8.32-56.48-16.37-82.58-29.83-19.02-9.81-56.32-30.13-52.97-55.58,6.45-49.12,144.5-41.83,179.89-40.97s68.31,2.13,102.36,6.07c53.46,6.18,108.46,14.85,160.57,30.9,48.96,15.08,145.6,42.21,136.74,79.61-8.4,35.43-76.89,41.33-103.29,39.1-6.86-.58-27.04,.59-32.25-3.74,0,0-12.05-10.02-15.27-16.01,0,0-3.28-4.03-12.46-19.7-17.26-29.48-58.72-35.07-89.37-38.87-30.62-3.8-61.64-6.54-92.47-3.87-22.41,1.94-60.52,4.65-73.42,26.69-6.34,10.83-9.45,19.73-13.04,30.06Z"/>
  <path class="hat-4" d="M442.14,319.24c-52.21-14.63-107.24-22.74-160.72-28.62-34.06-3.75-68.25-5.17-102.36-6.16-34.15-.99-163.9-8.02-178.37,30.61,5.01,21.17,35.79,37.89,52.48,46.5,26.1,13.46,54.56,21.51,82.59,29.83,8.01,2.38,10.33,5.14,14.85-2.37,3.64-6.04,7.83-11.78,13.41-16.1,27.89-21.58,64.35-25.4,98.48-23.91,34.51,1.5,71.3,5.36,105.02,12.99,8.87,2.01,17.6,4.68,25.9,8.41,11.21,5.02,21.47,12.07,29.57,21.35,7.47,8.56,11.68,18.26,21.21,25.2,5.21,4.33,25.39,3.16,32.25,3.74,26.09,2.2,93.3-3.54,102.97-37.89-7.21-29.07-92.33-50.97-137.3-63.57Z"/>
  <path class="hat-4" d="M410.95,195.31c-7.85-3.97-16.1-7.27-24.05-10.83-7.09-3.18-13.99-6.74-21.01-10.06-2.35-1.11-9-5.04-15.26-8.12-3.44-1.7-2.59-6.83,1.22-7.31,30.11-3.73,62.56,13.07,77.56,38.88-4.01-13.45-7.13-27.12-10.43-40.75-.7-2.88-1.35-6,.25-8.68,.93-1.56,2.66-2.57,4.44-2.23,2.19,.41,3.07,2.5,3.71,4.41,5.91,17.67,9.84,37.62,8.12,56.3-.11,1.18-.33,2.54-1.82,2.8-.86,.15-1.73-.19-2.37-.79-6.05-5.63-13.03-9.92-20.35-13.62Z"/>
</g></g></g></g></svg>
