<?xml version="1.0" encoding="UTF-8"?><svg xmlns="http://www.w3.org/2000/svg"><defs><style>.princess-1{fill:#f4c3dc;}.princess-2,.princess-3{fill:#f995c2;}.princess-4{mix-blend-mode:multiply;opacity:.12;}.princess-5{isolation:isolate;}.princess-3{opacity:.5;}</style></defs><g class="princess-5"><g id="Layer_2"><g id="Hats"><g id="Hat-Princess"><path class="princess-4" d="M0,321.26c31.01,19.57,66.91,27.81,103.44,30.94,18.76,1.61,38.86,2.6,57.66,2.33,19.67-.28,39.64-.46,59.06-3.58-3.72-7.81-11.74-14.84-19.58-17.78s-16.29-3.67-24.59-4.66c-29.71-3.52-58.93-10.47-88.63-14.12-29.7-3.65-54.57-6.9-82.9,2.71l-4.48,4.15Z"/><path class="princess-2" d="M.56,319.13s76.78,38.99,218.91,28.4L158.66,.49,.56,319.13Z"/><path class="princess-3" d="M175.3,58.24c8.66,15.94,18.96,31.37,26.26,49.07,17.44,42.29,9.39,90.52,17.69,135.51,6.17,33.45,21.27,64.48,36.21,95.04,7.19,14.7,14.57,29.69,26.1,41.31,11.52,11.62,28.13,19.48,44.2,16.38,.76-9.24,1.52-18.47,2.29-27.71,7.35,6.33,18.47,7.89,27.28,3.83s14.85-13.52,14.82-23.22c-22.84-6.42-43.88-19.12-60.18-36.35-23.05-24.35-35.95-56.44-46.49-88.28-10.01-30.22-17.18-62.45-27.5-93.02-5.33-15.78-11.5-31.33-19.44-46-8.41-15.54-20.28-28.34-30.21-42.85-5.85-8.55-11.57-17.18-17.14-25.91-1.64-2.56-10.43-12.99-10.34-16.05-.63,22.5,6.93,40.68,16.48,58.24Z"/><path class="princess-3" d="M283.64,316.01c-12.21-18.16-21.54-38.65-24.31-60.36,7.03,14.82,15.36,29.02,24.83,42.42s20.97,27.02,33.15,39.02c3.04,3,37.38,33.65,38.83,31.67-2.68,3.65-7.41,5.4-11.94,5.35-12.1-.13-18.29-8.4-25.77-16.32-12.47-13.19-24.63-26.68-34.79-41.78Z"/><path class="princess-3" d="M207.26,99.5c2.76-8.68-1.76-17.85-6.41-25.68-10.97-18.47-24.65-34.55-36.83-52.02,4.62,4.41,7.53,12.76,10.64,18.41,3.62,6.59,7.24,13.18,10.87,19.76,7.24,13.18,14.49,26.35,21.73,39.53Z"/><path class="princess-3" d="M222.88,191.6c.74,16.66,1.37,33.54,5.03,49.62,3.66,16.08,10.81,31.55,21.47,39.55-5.48-22.18-10.78-44.43-15.91-66.75-2.51-10.91-4.97-21.84-7.39-32.79-1.97-8.91-3.1-21.33-6.83-29.11,2.1,13.1,3.04,26.18,3.63,39.47Z"/><path class="princess-1" d="M5.94,308.29c8.59,3.6,25.6,9.91,50.8,15.66,26.24,5.98,65.57,12.15,116.1,12.15,13.94,0,28.75-.48,44.35-1.55l-1.74-9.9c-113.27,7.62-184.19-16.82-205.05-25.36l-4.47,9.01Z"/><path class="princess-4" d="M3.14,318.9c.06,.51,.02,.7,.47,1.36,.62,.9,4.93,2.39,6.11,2.86,16.37,6.54,33.5,11.25,50.7,15.01,52.06,11.37,106.01,13.33,159.04,9.4-.89,.07-9.68-55.28-10.24-58.51-7.41-42.31-14.83-84.63-22.24-126.94l-21.09-120.38c-2.41-13.74-4.9-27.47-7.21-41.22-6.1,12.12-2.6,29.26-2.33,42.77,.35,17.93,.7,35.86,1.06,53.8,.51,25.89,5.43,143.89,5.93,159.06,.5,15.35-4.82,30.95-15.09,42.43-9.98,11.16-24.36,18.1-39.21,19.58-7.51,.75-14.94-.48-22.37-.18-8.98,.37-17.87,.25-26.82-.5-9.55-.81-19.35-3.33-28.81-1.99-3.78,.53-28.53-2.38-27.88,3.46Z"/></g></g></g></g></svg>
