<?xml version="1.0" encoding="UTF-8"?><svg xmlns="http://www.w3.org/2000/svg"><defs><style>.kitsune-1{fill:#e6e7e8;}.kitsune-2{fill:#ed1c24;}.kitsune-3{fill:#f1f2f2;}.kitsune-4{stroke:#000;stroke-width:1.71px;}.kitsune-4,.kitsune-5{fill:none;stroke-miterlimit:10;}.kitsune-5{stroke:#be1e2d;stroke-linecap:round;stroke-width:7px;}.kitsune-6{mix-blend-mode:multiply;opacity:.12;}.kitsune-7{isolation:isolate;}</style></defs><g class="kitsune-7"><g id="Layer_2"><g id="Hats"><g id="Hat-Kitsune"><path class="kitsune-6" d="M92.23,110.18c16.24-4.74,31.47-8.98,46.5-1.22,12.31,6.35,18.96,19.1,26.58,30.66,16.26,24.68,35.64,47.29,56.84,64.58s54.41,17.7,78.03,2.11c-35.86-17.54-67.53-42.66-95.7-71.31-28.17-28.65-54.09-59.54-83.59-86.83-.46,7.4,3.58,14.22,6.56,21.01s4.78,15.25,.37,21.21c-3.07,4.15-8.33,5.92-13.27,7.41-24.85,7.45-50.16,13.33-75.75,17.6-6.4,1.07-12.81,2.03-19.24,2.89-1.96,.26-19.78-.18-16.06,3.36,2.09,1.99,23.02,.34,26.04,.09,6.43-.52,12.84-1.24,19.23-2.16,14.69-2.11,29.22-5.25,43.46-9.4Z"/><path class="kitsune-1" d="M205.6,8.74c-3.59-4.23-7.97-8.24-13.34-7.9-6.88,.43-9.97,10.59-11.92,16.2-2.55,7.34-3.69,15.17-3.24,22.93,6.54,4.4,13.56,4.63,20.78,6.83,8.08,2.46,16.39,4.09,24.84,4.57,1.88,.11,4.04,.05,5.25-1.4,3.01-3.6-4.6-16.32-6.52-19.59-4.14-7.05-9.27-13.47-14.37-19.85-.48-.6-.97-1.2-1.48-1.8Z"/><path class="kitsune-2" d="M196.58,8.78c-1.49,7.25-.59,14.75,.32,22.1,.25,2.03,.55,4.18,1.82,5.78,1.02,1.29,2.54,2.07,4.05,2.72,3.56,1.55,9.92,4.49,13.84,3.28,5.65-1.74,2.35-6.58,.2-9.77-5.89-8.7-12.67-16.8-20.22-24.11Z"/><path class="kitsune-3" d="M299.07,94.66c10.34,11.75,15.56,26.69,16.71,42.14,1.23,16.61-5.87,32.52-12.57,47.29-2.45,5.41-5.18,10.49-8.33,15.51-2.79,4.44-6.66,6.08-11.63,7.83-43.9,15.44-83.25-32.12-106.05-63.29-3.33-4.56-6.58-9.17-9.78-13.82-16.37-23.76-31.75-48.23-45.03-73.84-5.17-9.98-10.13-20.63-9.78-31.86,.36-11.23,7.76-23.03,18.88-24.59,4.86-.68,10.15,9.29,12.66,12.28,4.58,5.44,9.49,10.59,14.71,15.41,10.18,9.41,19.16,6.43,31.81,5.64,15.9-.99,33.21,7.39,46.35,15.54,11.51,7.14,21.83,16.45,29.72,27.49,2.61,3.65,4.43,8.28,7.76,11.33,2.75,2.52,5.82,1.83,9.27,1.71,5.56-.19,11.32,.72,15.06,4.94,.08,.09,.17,.19,.25,.28Z"/><path class="kitsune-2" d="M157.73,64.22c.27,1.82,.62,3.71,1.09,5.4-2.62-3.39-5.32-9.31-7.31-13.49-2.25-4.76-13.65-33.85-15.67-44.06,2.28,3.94,8.6,9.88,11.47,12.55,4.26,3.96,8.86,7.43,13.65,10.7,3.51,2.4,3.62,4.32,1.68,7.62-2.49,4.23-4.65,7.51-5.18,12.61-.3,2.88-.15,5.79,.27,8.66Z"/><path class="kitsune-2" d="M192.04,34.27c-.38,.09-1.17,.21-1.21,.66s.69,.84,1,1c2.01,1.04,3.72,1.71,5.89,2.37,6.81,2.08,13.5,4.59,20,7.5-2.57-3.55-6.19-6.27-10.16-8.11s-6.1-2.78-10.46-3.3c-1.69-.2-3.97-.38-5.06-.13Z"/><path class="kitsune-2" d="M198.63,44.2c-.75,.03-1.68,.22-1.86,.95-.1,.38,.06,.77,.25,1.11,1.08,1.95,3.3,3.03,5.5,3.39s4.45,.13,6.68,.09c1.74-.03,3.32,.2,5,.62,.85,.21,1.14-.07,.5-.75-.53-.56-1.27-1.02-1.9-1.44-2.63-1.77-5.64-2.96-8.75-3.56-1.78-.34-3.6-.48-5.41-.42Z"/><path class="kitsune-2" d="M224.58,43.82c-.73-1.14-1.88-1.95-3.12-2.49s-2.82-1.35-3.36-.87c-.36,.32,.25,1.21,.94,1.72,1.15,.84,2.27,1.73,3.35,2.66,.91,.79,1.84,1.89,3.16,2.86-.06-1.92-.49-3.13-.97-3.88Z"/><path class="kitsune-2" d="M232.86,74.61c-9.53-5.13-20.77-7.91-31.3-5.4-5.57,1.33-10.66,4.53-16.08,6.38-6.65,2.26-13.71,3.66-20.71,3.17,.57,.04,1.73,1.21,2.22,1.55,.87,.59,1.75,1.16,2.64,1.73,1.69,1.07,3.41,2.1,5.14,3.1,3.33,1.93,6.66,3.88,10.03,5.72,6.83,3.73,14.1,6.65,21.62,8.66,6.65,1.78,15.11,3.49,22.01,1.98,5.52-1.21,9.19-3.64,14.5-5.55,2.26-.81,4.58-1.5,6.95-1.92s4.73-.12,7.02-.4c-1.38-1.6-3.41-3.81-4.63-4.88-2.01-1.77-4.06-3.5-6.15-5.18-4.17-3.33-8.55-6.42-13.26-8.95Z"/><path d="M226.99,73.86c-6.33-1.5-13.01-1.1-19.31,.52-6.3,1.62-12.24,4.42-17.87,7.68,6.61,5.86,13.82,11.25,22.11,14.3s17.8,3.56,25.8-.19c2.77-1.3,5.52-2.84,8.35-4.05,3.22-1.38,7.79-.99,8.15-.63-1.72-1.72-3.43-3.44-5.15-5.16-1.49-1.5-3.29-3.09-4.98-4.35-2.43-1.8-5.03-3.52-7.69-4.95-3-1.62-6.09-2.37-9.41-3.16Z"/><path class="kitsune-2" d="M239.75,103.93c-2.41,2.11-4.47,5.06-6.98,7.05-6.7,5.31-16.08,7.28-24.31,4.96-7.8-2.2-14.85-7.68-21.85-13.83,10.92,4.73,19.25,6.75,30.33,7.03,3.63,.09,8.85-.39,11.87-1.36,3.3-1.06,6.66-3.56,9.6-5.41,2.72-1.71,5.88-3.18,9.38-3.26-3.62,1.29-6.25,3.26-8.03,4.82Z"/><path class="kitsune-2" d="M183.84,104.33c-.5-1.14-.83-2.35-1.28-3.51s-1.06-2.3-2.01-3.11-2.29-1.24-3.48-.84c-1.27,.42-2.11,1.71-2.33,3.03-.3,1.79,.35,3.64,1.44,5.09s2.57,2.55,4.11,3.52c1.73,1.09,3.57,2.05,5.54,2.6,1.37,.38,3.02,.66,4.44,.38,2.07-.41-.52-1.14-1.23-1.53-2.27-1.26-4.14-3.24-5.19-5.62Z"/><path class="kitsune-2" d="M200.96,173.5c17.4-9.85,32.68-24.87,41.97-42.57-.55,7.24-1.22,14.51-3.1,21.52-1.89,7.01-5.07,13.8-10.11,19.03-5,5.18-10.96,10.46-16.53,14.18-4.03-3.6-8.48-8.01-12.23-12.16Z"/><path class="kitsune-2" d="M182.89,151.78c16.79-10.43,36.76-19.54,55.83-24.76-5.17,4.52-24.21,20.16-27.5,22.91-6.2,5.18-12.18,9.15-18.35,14.37-3.32-3.81-6.73-8.44-9.98-12.52Z"/><path class="kitsune-2" d="M266.88,76.57c1.28,4.3,.38,8.83,1.29,13.15-6.35-8.82-12.17-15.4-20.69-27.37-2.08-2.92-4.17-5.83-4.46-9.41,0,0,14.18,9.72,23.86,23.63Z"/><path d="M266.24,75.75c1.57,2.38-1.79,5.51-1.15,8.29-3.56-4.26-7.11-8.53-10.67-12.79-1.87-2.25-3.76-4.51-5.18-7.07s-2.37-5.08-2.18-8c0,0,12.1,8.82,19.17,19.57Z"/><path d="M297.58,94.18c-1.55-1.91-5.19-2.95-7.58-2.48-2.74,.54,0,4.39,1.19,5.46,1.56,1.41,3.56,2.22,5.55,2.89s4.04,1.22,5.89,2.22c-1.63-2.76-3.01-5.58-5.05-8.09Z"/><path class="kitsune-2" d="M262.73,154.66c-1.13-.76-2.44-1.3-3.81-1.32-1.11-.02-2.22,.32-3.13,.95-1.61,1.12-2.5,3.14-2.4,5.09s1.15,3.81,2.67,5.05,3.5,1.85,5.46,1.89c4.75,.08,9-3.1,13.73-3.52-.97,.08-2.58-.86-3.43-1.27-1.14-.54-2.23-1.19-3.25-1.93-2.07-1.51-3.73-3.51-5.85-4.94Z"/><path d="M300.53,99.4c6.71,7.8,10.93,17.63,12.2,27.86,.51,6.47-3.24,12.43-7.08,17.18-3.77,4.83-8.55,9.13-13.91,12.24-5.39,3.25-11.01,6.2-17.55,6.78-3.31,.29-6.82-.2-9.94-1.52-1.09-.45-2.13-1.02-3.16-1.63-1.29-.77-1.72-2.44-.96-3.73,.88-1.54,3.09-1.79,4.3-.51,2.41,2.49,5.92,3.92,9.65,4,5.9,.21,11.26-2.78,16.16-5.81,5.14-2.98,9.71-6.75,13.51-11.39,2.58-3.01,4.86-6.26,6.12-9.9,1.46-3.75,.72-7.58-.09-11.39-1.65-7.79-5.17-15.16-10.23-21.36-.52-.61,.43-1.47,.98-.82h0Z"/><path class="kitsune-4" d="M311.08,123.2c.96,1.74,2.32,5.67,3.7,5.42"/><path class="kitsune-5" d="M148.9,83.42C102.02,105.16,56.07,113.19,3.5,118.35"/></g></g></g></g></svg>
