<?xml version="1.0" encoding="UTF-8"?><svg xmlns="http://www.w3.org/2000/svg"><defs><style>.hat-2{opacity:.3;}.hat-2,.hat-3,.hat-4{mix-blend-mode:multiply;}.hat-5{isolation:isolate;}.hat-3{opacity:.18;}.hat-4{opacity:.21;}</style></defs><g class="hat-5"><g id="Layer_2"><g id="Hats"><g id="Hat-Cap"><path class="hat-1" d="M83.15,124.68c1.32-.36,2.73-.78,3.59-1.85,1.25-1.56,.8-3.99-.51-5.51s-3.23-2.33-5.11-3.03c-19.38-7.19-41.24-7.52-60.83-.91-7.64,2.58-16.56,7.54-19.35,15.75-3.3,9.73,12.4,5.9,18.32,5.61,21.57-1.08,43.03-4.45,63.89-10.06Z"/><path class="hat-4" d="M83.15,124.68c1.32-.36,2.73-.78,3.59-1.85,1.25-1.56,.8-3.99-.51-5.51s-3.23-2.33-5.11-3.03c-19.38-7.19-41.24-7.52-60.83-.91-7.64,2.58-16.56,7.54-19.35,15.75-3.3,9.73,12.4,5.9,18.32,5.61,21.57-1.08,43.03-4.45,63.89-10.06Z"/><path class="hat-3" style="fill: #000; opacity: 0.2;" d="M223.75,159.85c17.35-4.83,33.42-13.31,50.18-19.9,3.51-1.38,7.4-3.36,11.04-4.22,4.39-1.04,9.68-.52,14.19-.71l29.28-1.25c.7-.03-3.92-6.8-4.44-7.29-1.8-1.69-3.37-3.4-5.1-5.16-4.71-4.78-11.27-8.1-17.54-10.25-10.56-3.63-21.87-4.38-33.02-5.04-27.1-1.59-54.37-2.78-81.34,.35-9.48,1.1-18.91,2.75-28.17,5.08-4.74,1.19-9.43,2.56-14.05,4.13-3.59,1.22-7.38,3.42-11.04,4.05-6.21,1.16-12.99-.28-18.93,2.37s-11.71,4.02-17.89,5.62c-2.41,.62-4.79,1.05-6.17,3.12-.83,1.24-3.9,6.02-3.9,6.02,5.76,7.37,16.62,12.18,21.12,14.29,8.96,4.21,18.35,7.48,27.98,9.78,29,6.92,59.15,7.01,87.83-.99Z"/><path class="hat-1" d="M89.49,108.3s126.52,27.03,237,18.93c0,0,18.4-108.91-107.36-121.1C116.27-3.85,89.49,108.3,89.49,108.3Z"/><path class="hat-2" d="M89.49,108.3c2.93,.63,5.88,1.19,8.82,1.76,30.07,5.79,60.45,10.15,90.89,13.37,10.85,1.15,21.71,2.13,32.58,2.94,11.98,.88,23.84,2.91,35.83,3.6,3.27,.19,15.66,2.12,18.07-.24s-.34-13.8-.76-17.1c-3.46-27.21-12.83-53.1-27.16-76.39-6.01-9.77-14.13-18.52-24.07-24.36-10.66-6.26-18.38-7.01-30.33-5.68-20.33,2.27-39.46,10.39-55.27,23.35-16.61,13.61-29.2,31.68-38.31,51-.68,1.45-11.01,27.58-10.29,27.74Z"/><path class="hat-1" d="M33.62,118.37c16.4-1.66,32.78,2.78,47.82,8.6,15.03,5.82,29.37,13.08,44.99,17.6,25.05,7.25,52.37,7.08,78.45,3.06,24.64-3.8,48.43-10.9,72.06-18.16,1.24-.38,1.22-2.13-.02-2.5-32.03-9.58-62.97-21.81-95.3-30.63-33.72-9.2-67.27-17.31-86.7-11.17-18.93,5.98-39.11,7.77-57.52,15.48-8.14,3.41-42.81,21.12-36.68,33.31,9.18-8.26,19.4-14.23,32.9-15.59Z"/><path class="hat-1" d="M202.86,6.37c1.91-3.41,5.5-5.82,9.38-6.29s7.94,1.01,10.61,3.86c1.15,1.24,2.03,3.25,.93,4.52-.6,.69-1.58,.89-2.49,1.01-6.23,.79-12.72-.6-18.09-3.88"/></g></g></g></g></svg>
