<?xml version="1.0" encoding="UTF-8"?><svg xmlns="http://www.w3.org/2000/svg"><defs><style>.hat-1{fill:#99592e;}.hat-2{fill:#3c2415;}.hat-3{isolation:isolate;}.hat-4{opacity:.15;}.hat-4,.hat-5{mix-blend-mode:multiply;}.hat-5{opacity:.18;}</style></defs><g class="hat-3"><g id="Layer_2"><g id="Hats"><g id="Hat-Cowboy"><path class="hat-4" d="M109.25,181.56c6.44-1.26,62.6-1.57,85.12-1.24,51.86,.75,97.52,12.61,119.72,16.56,14.01,2.5,45.38,7.57,45.57,8.3-3.01-11.91-15.57-18.39-26.93-23.05-59.44-24.37-124.99-39.76-187.99-27.17-8.17,1.63-16.5,3.94-22.71,9.91-6.18,5.95-8.2,9.52-12.78,16.67Z"/><path class="hat-1" d="M277.16,178.66c-46.3-11.44-87.33-7.9-134.3-7.48-38.08,.33-76.13-2.69-106.72-28.65C10.94,121.15-22.24,58.77,20.76,37.52c13.21-6.53,29.27-.33,42.34,5.5,26.36,11.76,53.73,26.5,76.39,44.01,44.68,34.5,93.59,56.08,137.66,91.64Z"/><path class="hat-5" d="M89.61,56.14c-8.93-4.76-33.02-18.58-42.77-18.03-14.91,.84-19.15,11.95-21.31,23.07-3.17,16.29,1.65,31.6,10.32,45.19,8.68,13.59,18.82,24.84,32.52,33.75,15.04,9.78,32.99,11.24,50.64,13.92,28.68,4.36,57.89,5.86,86.88,6.45,11.38,.23,22.72,.61,34.01,1.7,13.61,1.31,27.35,.25,40.89,.4-15.83-1.81-32.89-10.46-47.3-14.87-18.23-5.58-33.89-10.09-50.87-16.68-12.58-4.88-20.38-13.03-28.07-24.36-6.94-10.21-11.76-16.94-22.22-24.99-12.99-10-26.71-17.01-42.73-25.55Z"/><path class="hat-1" d="M357.02,157.58c5.13-4.01,6.91-9.82,6.73-17.75-.9-38.58-7.06-75.73-27.98-109.51-3.25-5.26-7.13-11.27-13.46-13.77-9.21-3.62-17.41-.28-26.06,4.72-17.92,10.35-27.24,15.83-45.97,2.31C238.2,14.87,230.28-.34,213.35,0c-10.15,.21-18.26,7.35-25.68,14.13-17.57,16.06-31.02,34.22-43.35,55.37-3.17,5.43-19.37,46.09-14.82,48.81,38.75,23.14,74.37,27.8,116.39,37.75,21.65,5.12,40.6,7.35,63.1,8.55,15.16,.81,34.44,3.6,48.03-7.03Z"/><path class="hat-2" d="M359.76,155.72c1.95-7.42,3.44-14.96,4.44-22.57-17.69,3.28-35.74,4.57-53.72,3.85-21.1-.85-42.32-4.87-63-9.06-20.8-4.22-41.3-9.73-61.5-16.22-10.7-3.44-43.19-13.5-50.27-21.54-2.33,6.44-9.3,24.42-6.21,28.14,8.02,9.68,38.19,17.95,49.62,21.6,19.69,6.3,40.54,11.86,61.01,14.91,22.3,3.32,95.22,11.37,109.52,11.92,1.9,.07,6.58,.8,7.39-1.72,.99-3.08,1.89-6.18,2.72-9.31Z"/><path class="hat-1" d="M220.5,170.18c59.05,3.95,119.04,27.2,179.55,33.56,46.39,4.88,90.22-18.21,91.21-69.27,.17-8.56-1.97-16.44-8.03-22.91-7.49-7.99-18.29-11.27-29.5-11.59-15.65-.45-34.91,2.27-49.42,6.63-45.2,13.6-88.69,28.73-134.59,38.18-45.89,9.45-91.02,22.19-138.06,24.17,29.65,2.78,59.21,.36,88.84,1.24Z"/><path class="hat-5" d="M326.74,144.61c31.34-7.39,63.67-17.41,95.53-23.3,11.86-2.19,25.39-5.13,36.71-1.69,22.34,6.77,32.26,26.61,20.41,47.29-13.62,23.76-25.09,33.27-56.39,36.49-23.27,2.39-40.74-1.3-77.01-8.9-57.51-12.06-92.1-24.47-138.44-24.07,38.33-13.04,78.73-16.27,119.18-25.81Z"/></g></g></g></g></svg>
