<?xml version="1.0" encoding="UTF-8"?><svg xmlns="http://www.w3.org/2000/svg"><defs><style>.firefighter-1{stroke-width:1.71px;}.firefighter-1,.firefighter-2,.firefighter-3{fill:none;stroke:#d82323;stroke-linejoin:round;}.firefighter-4{fill:#f5c559;}.firefighter-5{fill:#d82323;}.firefighter-6{isolation:isolate;}.firefighter-2{stroke-width:2px;}.firefighter-7{mix-blend-mode:multiply;opacity:.18;}.firefighter-3{stroke-width:1.87px;}</style></defs><g class="firefighter-6"><g id="Layer_2"><g id="Hats"><g id="Hat-Firefighter"><path class="firefighter-5" d="M377.36,101.43c-4.45-.64-9.03-.4-13.53,0-20.98,1.85-36.14,4.46-56.36,10.2-17.45,4.95-29.21,8.31-46.79,13.42-20.21,5.88-78.35,7.56-99.41,9.55-13.73,1.3-29.66-1.7-36.8-13.5-3.28-5.42-4.68-12.57-10.19-15.68-3.43-1.93-7.61-1.75-11.53-1.39-13.52,1.23-43.04,10.21-56.14,13.87-12.04,3.37-28.79,9.87-38.03,18.44-7.35,6.81-11.31,18.37-6.4,27.1,3.72,6.61,11.34,9.93,18.64,11.99,39.03,11.01,99.46,1.75,137.95-7.43,29.29-6.99,92.11-23.09,121.65-29.07,8.87-1.8,12.93-5.04,22.14-2.77,5.82,1.43,15.4,12.41,17.02,14.59,1.03,1.38,50.54-9.45,64.68-19.08,7.05-4.8,13.84-10.09,9.94-19.09-2.3-5.3-7.57-8.86-13.14-10.38-1.21-.33-2.44-.58-3.68-.76Z"/><path class="firefighter-7" d="M368.78,114.25c6.43-1.45,13.33-2.4,19.34,.31,2.69,1.21,5.11,3.52,5.53,6.44,.72,4.93-5.92,9.08-10.37,11.3-21.12,10.56-55.28,18.44-63.72,18.44,.34-.16-6.71-7.19-8.14-8.78s-7.71-7.67-17.97-6.62c4.53-1.61,27.73-9.41,30.08-10.07,18.76-5.28,25.39-6.57,45.24-11.03Z"/><path class="firefighter-5" d="M81.24,135.59c-.01-32.81,1.42-73.39,25.93-99.52C129.26,12.51,166.21,1.49,199.13,.25c16.61-.63,34.78,1.79,50.9,5.32,24.2,5.3,43.49,22.11,56.22,41.15,6.54,9.77,11.6,20.42,14.87,31.5,1.07,3.63,8.51,32.11,4.73,33.54-63.69,24.06-134.05,41.03-202.97,43.91-9.04,.38-18.44,.46-26.72-2.89-8.29-3.35-14.93-8.86-14.93-17.19Z"/><path class="firefighter-7" d="M108.73,134.71c31.22-3.7,25.09-54.05,26.16-76.01,.58-11.88,0-46.81,15.96-50.23,4.47-.96,8.72,2.09,12.18,5.07,8.61,7.41,37.24,34.04,37.8,44.19,.36,6.58-1.74,13.01-3.65,19.31-1.9,6.28-18.81,67-12.13,68.73,3.25,.84,5.4,1.39,8.67,.87,4.85-.76,9.68-1.64,14.54-2.33-2.76,.4-5.86,2.23-8.51,3.17-3,1.08-6.01,2.11-9.04,3.11-6.05,1.99-12.16,3.82-18.3,5.49-12.3,3.34-24.77,6.04-37.35,8.08-21.13,3.43-43,5.88-64.43,6.19-8.18,.12-16.37-.22-24.48-1.22-7.15-.88-15.97-1.66-22.33-5.17-5.12-2.83-9.4-7.66-10.3-13.44-.77-4.94,1.03-10.04,4.02-14.05s7.09-7.06,11.35-9.68c15.95-9.83,34.52-14.36,52.74-18.74-.25,8.39-.85,13.49,5.72,19.65,4.81,4.51,11.31,7.28,17.94,7.22,1.19-.01,2.33-.08,3.43-.21Z"/><path class="firefighter-5" d="M157.26,49.42c6.62-22.29,23.44-40.11,44.75-49.42-24.74,.97-46.18-.1-70.92,.87l26.17,48.56Z"/><path class="firefighter-7" d="M157.26,49.42c6.62-22.29,23.44-40.11,44.75-49.42-24.74,.97-46.18-.1-70.92,.87l26.17,48.56Z"/><path class="firefighter-5" d="M77.88,46.11c2.63-2.98,36.92-35.49,43.18-40.38,8.65-6.76,11.92-6.14,21.11-.25,18.34,11.76,49.79,41.96,51.88,54.5,.81,4.87-14.27,35.34-17.72,85.38-7.89,3.89-44.07,5.05-54.89,4.9-12.05-.16-30.23-2.48-39.45-12.37,.7-38.63-11.02-83.95-4.11-91.78Z"/><path class="firefighter-7" d="M232.67,53.43c3.73,22.16,4.04,59.44,4.09,81.92l5.37-1.6c.25-21.67-.67-70.32-5.81-90.73-4.62-18.3-14.51-32.95-30.5-41.97,14.32,19.13,22.87,28.66,26.86,52.37Z"/><path class="firefighter-7" d="M254.71,13.51c34.45,21.24,46.23,65.59,48.6,102.12,2.1-.83,2.97-1.65,5.06-2.48-2.38-15.42-3.86-28.61-8.95-44.95-4.21-13.53-11.52-24.97-19.92-36.73-7.96-11.15-20.35-22.18-33.43-26.25-9.03-2.81-17.61-4.36-33.33-4.7,7.9,1.31,16.7,3.54,20.52,4.43,7.53,1.74,14.86,4.49,21.46,8.56Z"/><path class="firefighter-4" d="M120.13,32.97c-7.29,6.75-20.4,17.33-33.99,20.29-3.38,.74-5.79,3.72-5.68,7.19,.49,16.33,5.22,59.25,40.7,74.79,2.03,.89,4.36,.79,6.32-.23,9.03-4.71,34.39-22.12,43.22-72.22,.62-3.54-1.35-7.04-4.73-8.29-8.05-2.98-23.13-9.66-35.76-21.52-2.82-2.65-7.24-2.63-10.08,0Z"/><path class="firefighter-7" d="M119.95,32.65c25.43,21.36,42.09,25.02,44.1,27.97,2.69,3.93-.77,11.7-2.1,15.85-3.79,11.89-6.38,18.66-12.21,28.54-3,5.09-8.36,12.27-12.61,16.38-1.16,1.12-15.96,14.21-16.93,13.38,6.97,5.94,22.1-10.69,25.92-15.12,13.7-15.9,20.98-36.46,24.58-56.87,.63-3.55-1.35-7.06-4.74-8.31-8.05-2.98-23.21-9.56-35.74-21.51-4.19-4-10.4-.43-10.27-.32Z"/><path class="firefighter-2" d="M104.36,75.61c-2.19,6.66-2.1,14.79,.34,20.9,2.11,5.28,7.25,9.79,12.91,9.26,3.41-.32,6.45-2.38,8.72-4.95,6.65-7.51,6.78-19.66,2.8-28.51-1.08-2.39-2.57-4.67-4.69-6.22-6.46-4.71-14.46-1.41-18.13,5.09-.77,1.36-1.41,2.85-1.93,4.42Z"/><path class="firefighter-2" d="M106.85,70.28c-2.58-3.57-3.66-6.29-6.24-9.86,4.06,.74,6.4-3.37,9.42-6.19s6.89-4.64,10.87-3.52c2.92,.82,4.78,2.46,7.1,4.42,2.73,2.31,5.2,3.57,8.78,3.47-2.36,3.9-5.86,7.79-8.22,11.69"/><path class="firefighter-3" d="M106.08,98.69c-1.65,2.82-4.74,7.65-7.68,10.49,1.88-1.64,3.98-1.39,6.26-.19s3.91,3.11,5.79,4.76,4.27,3.12,6.93,3.01c2.67-.11,4.92-1.8,6.58-3.64s2.99-3.93,5.02-5.45,5.12-2.32,7.4-1.11c-2.71-3.05-5.42-6.1-8.13-9.15"/><path class="firefighter-2" d="M129.97,93.74c2.94,3.3,5.62,6.78,8.94,9.8,.97-5.17,1.09-7.09,3.69-11.72,4.08-7.28,4.08-14.92-.15-22-1.16-1.94-3.85-5.58-2.6-8.06-3.03,4.24-6.14,8.52-9.91,12.62"/><path class="firefighter-1" d="M103.96,95.14c-2.54,3.92-5.09,7.85-7.63,11.77,1.11-5.37-.46-7.88-1.42-11.1-1.78-5.93-2.44-13.57-.32-19.51,1.59-4.44,3.82-8.62,3.37-13.84,2.12,5.74,4.03,7.77,6.67,11.97"/><path class="firefighter-2" d="M107.43,91.88l18.33-14.82"/><path class="firefighter-2" d="M106.73,78.14c6.53,4.14,13.06,8.28,19.58,12.41"/><path class="firefighter-2" d="M109.98,74.13c1.02-2.67,3.53-4.71,6.35-5.16s5.84,.7,7.64,2.92"/><path class="firefighter-2" d="M111.57,97.97c3.28,2.81,8.84,2.35,11.62-.97"/><path class="firefighter-2" d="M109.17,61.65c2.05-2.94,5.53-4.84,9.11-4.97s7.19,1.51,9.45,4.29"/><path class="firefighter-2" d="M108.12,106.55c2.16,2.54,5.48,4.05,8.82,4.02s6.62-1.61,8.74-4.18"/><path class="firefighter-2" d="M137.77,72.63c1.73,7.25,.59,15.15-3.12,21.62"/><path class="firefighter-2" d="M99.33,74.84c-2.19,5.61-2.52,11.93-.93,17.74"/></g></g></g></g></svg>
