<?xml version="1.0" encoding="UTF-8"?><svg id="Layer_2" xmlns="http://www.w3.org/2000/svg"><defs><style>.catears-1{fill:#e6e7e8;}</style></defs><g id="Hats"><g id="Hat-CatEars"><path d="M201.34,83.08c18.7,18.77,31.03,46.06,40.92,71.68,1.82,4.73,8.97,2.61,7.89-2.34-.01-.05-.02-.1-.03-.16-3.81-17.06-11.02-34.46-19.13-49.98-17.02-32.58-49.14-55.61-84.74-63.4-33.03-7.22-66.74-4.01-94.31,16.15-10.99,8.04-24.32,21.94-27.75,35.48-.14,.54,.55,.89,.92,.48,17.05-19.34,42.87-45.94,85.51-45.94,15.44,0,31.01,4.54,40.66,7.53,20.87,6.47,34.62,14.99,50.07,30.49Z"/><path d="M216.98,4.64c5.53-2.6,11.82-4.8,17.72-3.15,10.3,2.89,13.61,15.23,14.58,25.55,1.78,18.96,1.54,37.55-4.04,55.9-2.45,8.08-5.44,16.87-12.82,21.35-1.48,.9-3.39,1.58-4.93,.79-1.02-.53-1.6-1.57-2.15-2.55-6.67-11.91-15.69-24.39-28.59-29.85-9.19-3.89-27.79-9.12-29.36-20.94-1.11-8.36,14.2-21.72,19.89-27.01,8.74-8.13,18.79-14.97,29.7-20.09Z"/><path d="M60.38,58.34c2.59-1.16,5.2-3.39,7.51-4.55,2.3-1.16,4.81-2.54,5.48-4.83,.55-1.86-.3-1.53-1.17-3.29C63.64,28.46,50.3,17.19,33.91,5.4,29.59,2.29,24.38-.73,18.93,.16,7.17,2.06,4.97,15.73,4.16,24.23c-1.18,12.38-1.62,20.74-1.6,33.17,.03,14.69,.33,34.97,13.92,45.32,3.24-5.05,19.02-26.41,26.19-31.08,3.3-2.15,4.68-4.14,7.8-6.63,2.74-2.19,6.32-5.05,9.91-6.66Z"/><path class="catears-1" d="M227.45,22.97c.66-.18,1.36-.33,2.04-.21,.87,.16,1.6,.76,2.16,1.42,3.07,3.59,2.37,8.9,4.04,13.27,1.46,3.83,4.9,6.9,8.97,8-2.17,2.54-5.68,3.74-9.09,3.89s-3.46,.15-6.78-.6c1.86,4.43,5.28,8.48,11.03,11.84-4.42,.8-11.74,2.91-15.83,1.12,1.43,4.81,4.38,8.16,7.62,12.07-7.31,2.17-16.43-.49-22.81-4.57-8.8-5.63-14.67-13.36-8.36-22.38s15.63-20.78,27.02-23.85Z"/><path class="catears-1" d="M35.6,29.57c-2.75-3.28-5.83-6.34-9.19-9.13-1.29-1.07-2.76-2.16-4.52-2.26-2.1-.11-3.97,1.25-5.21,2.78-2.36,2.9-3.81,6.09-6.67,8.65-1.24,1.11-8.1,6.76-10.02,5.88,6.29,2.9,13.22,4.67,20.27,5.17-5.51,4.13-11.55,7.68-17.96,10.57,5.2,.55,11.29,.19,16.46,.14,.99,0-3.32,3.74-5.64,5.97-3,2.88-5.79,5.14-9.53,7.28,2.68,.62,8.27,.1,10.34-.09,4.61-.43,8.9-2.26,11.87-5.5,.05,1.63-1.13,10.14-3.65,10.14,1.92,0,10.52-4.1,12.56-5.42,6.23-4.03,12.64-9.31,11.24-17.58-.63-3.73-3.39-6.87-5.46-10.04-1.48-2.26-3.11-4.45-4.87-6.55Z"/></g></g></svg>
