<?xml version="1.0" encoding="UTF-8"?>
<svg xmlns="http://www.w3.org/2000/svg" xmlns:xlink="http://www.w3.org/1999/xlink" width="48px" height="px" viewBox="0 0 48 69" version="1.1">
<defs>
<filter id="alpha" filterUnits="objectBoundingBox" x="0%" y="0%" width="100%" height="100%">
  <feColorMatrix type="matrix" in="SourceGraphic" values="0 0 0 0 1 0 0 0 0 1 0 0 0 0 1 0 0 0 1 0"/>
</filter>
<mask id="mask0">
  <g filter="url(#alpha)">
<rect x="0" y="0" width="48" height="69" style="fill:rgb(0%,0%,0%);fill-opacity:0.811765;stroke:none;"/>
  </g>
</mask>
<clipPath id="clip1">
  <rect x="0" y="0" width="48" height="69"/>
</clipPath>
<g id="surface5" clip-path="url(#clip1)">
<path style=" stroke:none;fill-rule:nonzero;fill:rgb(15.294118%,66.666667%,88.235294%);fill-opacity:1;" d="M 20.21875 57.578125 L 22.914062 56.773438 C 23.546875 56.585938 24.214844 56.941406 24.40625 57.566406 L 25.214844 60.242188 C 25.40625 60.867188 25.050781 61.527344 24.417969 61.71875 L 21.71875 62.523438 C 21.085938 62.710938 20.421875 62.355469 20.230469 61.730469 L 19.417969 59.054688 C 19.226562 58.429688 19.585938 57.769531 20.21875 57.578125 Z M 20.21875 57.578125 "/>
</g>
<mask id="mask1">
  <g filter="url(#alpha)">
<rect x="0" y="0" width="48" height="69" style="fill:rgb(0%,0%,0%);fill-opacity:0.811765;stroke:none;"/>
  </g>
</mask>
<clipPath id="clip2">
  <rect x="0" y="0" width="48" height="69"/>
</clipPath>
<g id="surface8" clip-path="url(#clip2)">
<path style=" stroke:none;fill-rule:nonzero;fill:rgb(55.294118%,77.647059%,24.705882%);fill-opacity:1;" d="M 26.511719 55.550781 L 29.207031 54.746094 C 29.839844 54.554688 30.507812 54.910156 30.699219 55.539062 L 31.511719 58.210938 C 31.699219 58.839844 31.34375 59.5 30.710938 59.6875 L 28.011719 60.492188 C 27.382812 60.679688 26.714844 60.328125 26.523438 59.699219 L 25.710938 57.027344 C 25.523438 56.398438 25.878906 55.738281 26.511719 55.550781 Z M 26.511719 55.550781 "/>
</g>
<mask id="mask2">
  <g filter="url(#alpha)">
<rect x="0" y="0" width="48" height="69" style="fill:rgb(0%,0%,0%);fill-opacity:0.811765;stroke:none;"/>
  </g>
</mask>
<clipPath id="clip3">
  <rect x="0" y="0" width="48" height="69"/>
</clipPath>
<g id="surface11" clip-path="url(#clip3)">
<path style=" stroke:none;fill-rule:nonzero;fill:rgb(94.509804%,35.294118%,16.078431%);fill-opacity:1;" d="M 32.871094 53.734375 L 35.566406 52.929688 C 36.199219 52.742188 36.867188 53.097656 37.054688 53.722656 L 37.867188 56.398438 C 38.058594 57.023438 37.699219 57.683594 37.070312 57.871094 L 34.371094 58.679688 C 33.738281 58.867188 33.074219 58.511719 32.882812 57.886719 L 32.070312 55.210938 C 31.878906 54.585938 32.238281 53.925781 32.871094 53.734375 Z M 32.871094 53.734375 "/>
</g>
<mask id="mask3">
  <g filter="url(#alpha)">
<rect x="0" y="0" width="48" height="69" style="fill:rgb(0%,0%,0%);fill-opacity:0.811765;stroke:none;"/>
  </g>
</mask>
<clipPath id="clip4">
  <rect x="0" y="0" width="48" height="69"/>
</clipPath>
<g id="surface14" clip-path="url(#clip4)">
<path style=" stroke:none;fill-rule:nonzero;fill:rgb(0%,50.588235%,67.843137%);fill-opacity:1;" d="M 39.179688 51.769531 L 41.878906 50.964844 C 42.511719 50.777344 43.175781 51.128906 43.367188 51.757812 L 44.179688 54.429688 C 44.371094 55.058594 44.011719 55.71875 43.378906 55.90625 L 40.683594 56.710938 C 40.050781 56.902344 39.382812 56.546875 39.195312 55.917969 L 38.382812 53.246094 C 38.191406 52.621094 38.550781 51.957031 39.179688 51.769531 Z M 39.179688 51.769531 "/>
</g>
</defs>
<g id="surface1">
<path style=" stroke:none;fill-rule:nonzero;fill:rgb(49.411765%,50.588235%,59.607843%);fill-opacity:1;" d="M 46.214844 59.941406 L 19.398438 68.660156 C 17.976562 69.125 16.4375 68.246094 16.015625 66.734375 L 0.109375 9.878906 C -0.316406 8.363281 0.550781 6.828125 2.003906 6.5 L 29.523438 0.28125 C 30.890625 -0.0273438 32.285156 0.84375 32.679688 2.265625 L 47.890625 56.621094 C 48.289062 58.042969 47.550781 59.503906 46.214844 59.941406 Z M 46.214844 59.941406 "/>
<path style=" stroke:none;fill-rule:nonzero;fill:rgb(13.72549%,12.156863%,12.54902%);fill-opacity:1;" d="M 44.683594 57.917969 L 21.46875 65.554688 C 20.238281 65.960938 18.882812 65.121094 18.488281 63.707031 L 3.632812 10.621094 C 3.238281 9.210938 3.964844 7.796875 5.226562 7.515625 L 29.097656 2.207031 C 30.285156 1.941406 31.519531 2.78125 31.886719 4.105469 L 46.089844 54.863281 C 46.460938 56.191406 45.84375 57.539062 44.6875 57.917969 Z M 44.683594 57.917969 "/>
<path style=" stroke:none;fill-rule:nonzero;fill:rgb(25.490196%,25.098039%,25.882353%);fill-opacity:1;" d="M 16.128906 55.257812 L 37.671875 24.785156 L 31.902344 4.144531 C 31.871094 4.042969 31.835938 3.949219 31.800781 3.855469 L 10.261719 34.308594 L 16.125 55.257812 Z M 16.128906 55.257812 "/>
<use xlink:href="#surface5" mask="url(#mask0)"/>
<use xlink:href="#surface8" mask="url(#mask1)"/>
<use xlink:href="#surface11" mask="url(#mask2)"/>
<use xlink:href="#surface14" mask="url(#mask3)"/>
</g>
</svg>
