<?xml version="1.0" encoding="UTF-8"?>
<svg xmlns="http://www.w3.org/2000/svg" xmlns:xlink="http://www.w3.org/1999/xlink" width="48px" height="px" viewBox="0 0 48 189" version="1.1">
<defs>
<filter id="alpha" filterUnits="objectBoundingBox" x="0%" y="0%" width="100%" height="100%">
  <feColorMatrix type="matrix" in="SourceGraphic" values="0 0 0 0 1 0 0 0 0 1 0 0 0 0 1 0 0 0 1 0"/>
</filter>
<mask id="mask0">
  <g filter="url(#alpha)">
<rect x="0" y="0" width="48" height="189" style="fill:rgb(0%,0%,0%);fill-opacity:0.121569;stroke:none;"/>
  </g>
</mask>
<clipPath id="clip1">
  <rect x="0" y="0" width="48" height="190"/>
</clipPath>
<g id="surface5" clip-path="url(#clip1)">
<path style=" stroke:none;fill-rule:nonzero;fill:rgb(0%,0%,0%);fill-opacity:1;" d="M 26.585938 167.238281 C 27.515625 158.394531 28.445312 149.539062 28.707031 140.652344 C 29.769531 143.574219 29.777344 146.757812 29.726562 149.867188 C 29.542969 160.40625 28.789062 170.933594 27.476562 181.386719 C 27.144531 184.027344 26.476562 187.957031 23.621094 188.996094 C 22.925781 181.671875 25.808594 174.65625 26.585938 167.234375 Z M 26.585938 167.238281 "/>
</g>
<mask id="mask1">
  <g filter="url(#alpha)">
<rect x="0" y="0" width="48" height="189" style="fill:rgb(0%,0%,0%);fill-opacity:0.121569;stroke:none;"/>
  </g>
</mask>
<clipPath id="clip2">
  <rect x="0" y="0" width="48" height="190"/>
</clipPath>
<g id="surface8" clip-path="url(#clip2)">
<path style=" stroke:none;fill-rule:nonzero;fill:rgb(0%,0%,0%);fill-opacity:1;" d="M 18.214844 162.558594 C 18.128906 170.78125 16.664062 179.011719 16.582031 187.234375 C 14.371094 187.367188 12.277344 188.652344 11.726562 186.273438 C 11.292969 184.386719 13.21875 180.308594 13.660156 178.355469 C 14.773438 173.421875 17.242188 167.859375 18.214844 162.554688 Z M 18.214844 162.558594 "/>
</g>
</defs>
<g id="surface1">
<path style=" stroke:none;fill-rule:nonzero;fill:rgb(40%,24.705882%,14.509804%);fill-opacity:1;" d="M 21.734375 38.636719 C 22.542969 42.769531 23.628906 46.714844 24.917969 50.25 C 25.269531 51.21875 25.625 52.199219 25.722656 53.222656 C 25.828125 54.304688 25.640625 55.390625 25.488281 56.464844 C 23.492188 70.488281 27.699219 86.230469 28.921875 100.402344 C 30.410156 117.648438 31.695312 134.90625 33.054688 152.160156 C 33.222656 154.300781 33.34375 156.582031 32.304688 158.460938 C 31.261719 160.339844 28.605469 161.484375 26.878906 160.203125 C 22.507812 126.050781 20.65625 91.839844 16.832031 57.625 C 15.78125 48.21875 15.09375 38.773438 13.816406 29.390625 C 12.882812 22.507812 7.742188 11.003906 12.835938 5.042969 C 14.847656 2.6875 17.6875 1.199219 20.542969 0 C 23.714844 5.097656 20.851562 12.070312 20.402344 17.628906 C 19.835938 24.640625 20.386719 31.738281 21.730469 38.636719 Z M 21.734375 38.636719 "/>
<path style=" stroke:none;fill-rule:nonzero;fill:rgb(96.862745%,78.823529%,43.529412%);fill-opacity:1;" d="M 11.230469 152.105469 C 9.820312 164.34375 6.570312 176.570312 0.0117188 187.015625 C 7.792969 188.769531 16.113281 188.050781 23.476562 184.992188 L 23.292969 188.675781 C 27.121094 189.144531 30.851562 186.792969 33.101562 183.675781 C 35.355469 180.558594 36.417969 176.765625 37.4375 173.0625 C 37.992188 177.945312 38.550781 182.835938 39.105469 187.722656 C 44.269531 186.871094 46.21875 180.582031 46.886719 175.40625 C 48.070312 166.257812 48.582031 156.917969 46.960938 147.835938 C 45.339844 138.753906 41.441406 129.878906 34.800781 123.453125 C 37.363281 118.738281 39.269531 113.671875 40.453125 108.445312 C 35.46875 106.796875 29.972656 106.707031 24.933594 108.183594 C 25.230469 111.113281 25.527344 114.039062 25.824219 116.964844 C 25.109375 114.175781 24.183594 111.09375 21.679688 109.664062 C 18.464844 107.835938 14.472656 109.640625 11.242188 111.433594 C 13.101562 113.996094 18.726562 119.230469 19.140625 122.363281 C 19.496094 125.042969 16.488281 127.179688 15.316406 129.902344 C 12.320312 136.871094 12.085938 144.683594 11.230469 152.105469 Z M 11.230469 152.105469 "/>
<use xlink:href="#surface5" mask="url(#mask0)"/>
<path style="fill:none;stroke-width:11;stroke-linecap:butt;stroke-linejoin:miter;stroke:rgb(66.27451%,48.627451%,31.372549%);stroke-opacity:1;stroke-miterlimit:10;" d="M 64.188699 419.681772 C 81.41 423.007407 100.885051 421.983111 122.255904 419.655167 " transform="matrix(0.294648,0,0,0.293647,0.0127216,0)"/>
<use xlink:href="#surface8" mask="url(#mask1)"/>
</g>
</svg>
