<?xml version="1.0" encoding="UTF-8"?>
<svg xmlns="http://www.w3.org/2000/svg" xmlns:xlink="http://www.w3.org/1999/xlink" width="48px" height="px" viewBox="0 0 48 67" version="1.1">
<g id="surface1">
<path style="fill:none;stroke-width:3;stroke-linecap:butt;stroke-linejoin:miter;stroke:rgb(73.72549%,74.509804%,75.294118%);stroke-opacity:1;stroke-miterlimit:10;" d="M 94.670369 137.106122 C 65.787749 98.746906 6.675937 82.014137 1.495753 34.033926 C 1.262163 10.023026 23.247031 -3.992575 45.28686 3.535092 C 93.076466 22.763221 83.81534 88.876375 103.656683 130.964766 " transform="matrix(0.284286,0,0,0.281773,0.031809,0)"/>
<path style="fill:none;stroke-width:3;stroke-linecap:butt;stroke-linejoin:miter;stroke:rgb(73.72549%,74.509804%,75.294118%);stroke-opacity:1;stroke-miterlimit:10;" d="M 96.346715 136.066389 C 68.08242 108.298587 45.01205 98.802359 21.914198 66.653815 C 7.624034 46.774121 13.065289 13.641297 37.866968 8.955567 C 98.75131 -2.550812 80.229059 92.106479 104.261267 130.507283 " transform="matrix(0.284286,0,0,0.281773,0.031809,0)"/>
<path style="fill:none;stroke-width:3;stroke-linecap:butt;stroke-linejoin:miter;stroke:rgb(73.72549%,74.509804%,75.294118%);stroke-opacity:1;stroke-miterlimit:10;" d="M 95.687169 135.7614 C 68.714485 103.696035 8.737018 61.441287 10.427105 19.463801 C 12.309559 4.255974 32.920372 3.562818 41.645617 12.324302 C 76.931329 47.772264 80.064172 86.658278 103.986456 130.853861 " transform="matrix(0.284286,0,0,0.281773,0.031809,0)"/>
<path style="fill:none;stroke-width:3;stroke-linecap:butt;stroke-linejoin:miter;stroke:rgb(73.72549%,74.509804%,75.294118%);stroke-opacity:1;stroke-miterlimit:10;" d="M 97.789472 135.789127 C 71.737404 98.830085 26.544761 79.310831 19.056165 34.546861 C 15.195073 7.985149 41.384546 -1.150638 57.859456 18.063628 C 86.164973 55.923771 79.99547 91.108335 101.210867 132.905601 " transform="matrix(0.284286,0,0,0.281773,0.031809,0)"/>
<path style="fill:none;stroke-width:3;stroke-linecap:butt;stroke-linejoin:miter;stroke:rgb(73.72549%,74.509804%,75.294118%);stroke-opacity:1;stroke-miterlimit:10;" d="M 97.830693 135.747537 C 92.403179 128.067376 -15.144044 -3.88167 25.843993 11.395473 C 60.140386 52.665941 69.593879 90.165644 99.726888 134.569173 " transform="matrix(0.284286,0,0,0.281773,0.031809,0)"/>
<path style="fill:none;stroke-width:3;stroke-linecap:butt;stroke-linejoin:miter;stroke:rgb(73.72549%,74.509804%,75.294118%);stroke-opacity:1;stroke-miterlimit:10;" d="M 102.365072 132.586749 C 14.054608 -42.850862 -22.316607 -22.98503 100.798651 133.279904 " transform="matrix(0.284286,0,0,0.281773,0.031809,0)"/>
<path style=" stroke:none;fill-rule:nonzero;fill:rgb(81.960784%,82.745098%,83.137255%);fill-opacity:1;" d="M 26.304688 38.886719 L 30.109375 36.527344 L 33.761719 42.316406 L 29.953125 44.675781 Z M 26.304688 38.886719 "/>
<path style=" stroke:none;fill-rule:nonzero;fill:rgb(74.901961%,56.862745%,34.509804%);fill-opacity:1;" d="M 45.695312 58.257812 C 40.535156 50.910156 38.980469 49.289062 33.820312 41.941406 L 29.679688 44.507812 C 34.082031 52.324219 34.871094 54.421875 39.273438 62.242188 C 39.890625 63.335938 40.515625 64.445312 41.394531 65.351562 C 42.269531 66.257812 43.441406 66.949219 44.707031 66.996094 C 45.296875 67.019531 45.902344 66.871094 46.417969 66.589844 L 46.417969 66.59375 C 46.4375 66.585938 46.449219 66.574219 46.464844 66.5625 C 46.480469 66.554688 46.496094 66.546875 46.511719 66.539062 L 46.511719 66.53125 C 46.992188 66.195312 47.390625 65.722656 47.628906 65.183594 C 48.140625 64.039062 48.027344 62.691406 47.589844 61.511719 C 47.152344 60.332031 46.421875 59.289062 45.695312 58.257812 Z M 45.695312 58.257812 "/>
</g>
</svg>
