<?xml version="1.0" encoding="UTF-8"?>
<svg xmlns="http://www.w3.org/2000/svg" xmlns:xlink="http://www.w3.org/1999/xlink" width="48px" height="px" viewBox="0 0 48 74" version="1.1">
<g id="surface1">
<path style=" stroke:none;fill-rule:nonzero;fill:rgb(62.352941%,34.117647%,6.666667%);fill-opacity:1;" d="M 42.425781 35.144531 C 42.648438 35.445312 42.582031 35.867188 42.28125 36.085938 L 9.042969 60.1875 C 8.738281 60.410156 8.308594 60.34375 8.085938 60.042969 C 7.863281 59.742188 7.929688 59.320312 8.234375 59.101562 L 41.472656 35 C 41.773438 34.78125 42.203125 34.84375 42.425781 35.144531 Z M 42.425781 35.144531 "/>
<path style=" stroke:none;fill-rule:nonzero;fill:rgb(74.509804%,11.764706%,17.647059%);fill-opacity:1;" d="M 25.402344 48.484375 L 8.0625 61.210938 L 7.289062 57.824219 L 25.054688 46.992188 Z M 25.402344 48.484375 "/>
<path style=" stroke:none;fill-rule:nonzero;fill:rgb(92.941176%,10.980392%,14.117647%);fill-opacity:1;" d="M 7.289062 57.824219 L 4.609375 55.972656 L 23.824219 46.21875 L 25.054688 46.992188 Z M 7.289062 57.824219 "/>
<path style=" stroke:none;fill-rule:nonzero;fill:rgb(63.529412%,35.686275%,8.235294%);fill-opacity:1;" d="M 42.832031 35.808594 C 43.003906 36.140625 42.867188 36.546875 42.53125 36.71875 L 5.746094 55.121094 C 5.410156 55.289062 5 55.15625 4.828125 54.824219 C 4.660156 54.492188 4.792969 54.085938 5.128906 53.917969 L 41.914062 35.511719 C 42.25 35.34375 42.660156 35.476562 42.832031 35.808594 Z M 42.832031 35.808594 "/>
<path style=" stroke:none;fill-rule:nonzero;fill:rgb(74.509804%,11.764706%,17.647059%);fill-opacity:1;" d="M 23.828125 46.21875 L 4.613281 55.972656 L 4.410156 52.503906 L 23.734375 44.6875 Z M 23.828125 46.21875 "/>
<path style=" stroke:none;fill-rule:nonzero;fill:rgb(92.941176%,10.980392%,14.117647%);fill-opacity:1;" d="M 4.410156 52.503906 L 2.074219 50.242188 L 22.648438 43.726562 L 23.734375 44.6875 Z M 4.410156 52.503906 "/>
<path style=" stroke:none;fill-rule:nonzero;fill:rgb(64.705882%,36.470588%,10.196078%);fill-opacity:1;" d="M 43.121094 36.53125 C 43.234375 36.886719 43.035156 37.265625 42.675781 37.378906 L 3.328125 49.566406 C 2.96875 49.679688 2.585938 49.480469 2.472656 49.125 C 2.359375 48.769531 2.5625 48.390625 2.921875 48.28125 L 42.265625 36.089844 C 42.625 35.976562 43.007812 36.175781 43.121094 36.53125 Z M 43.121094 36.53125 "/>
<path style=" stroke:none;fill-rule:nonzero;fill:rgb(74.509804%,11.764706%,17.647059%);fill-opacity:1;" d="M 22.648438 43.722656 L 2.070312 50.226562 L 2.449219 46.773438 L 22.808594 42.195312 Z M 22.648438 43.722656 "/>
<path style=" stroke:none;fill-rule:nonzero;fill:rgb(92.941176%,10.980392%,14.117647%);fill-opacity:1;" d="M 2.449219 46.773438 L 0.523438 44.164062 L 21.898438 41.070312 L 22.808594 42.195312 Z M 2.449219 46.773438 "/>
<path style=" stroke:none;fill-rule:nonzero;fill:rgb(65.882353%,37.647059%,11.764706%);fill-opacity:1;" d="M 43.292969 37.289062 C 43.347656 37.65625 43.085938 38 42.710938 38.050781 L 1.882812 43.746094 C 1.507812 43.796875 1.160156 43.542969 1.109375 43.171875 C 1.054688 42.804688 1.316406 42.460938 1.691406 42.410156 L 42.519531 36.714844 C 42.894531 36.664062 43.242188 36.917969 43.292969 37.289062 Z M 43.292969 37.289062 "/>
<path style=" stroke:none;fill-rule:nonzero;fill:rgb(74.509804%,11.764706%,17.647059%);fill-opacity:1;" d="M 21.902344 41.082031 L 0.527344 44.1875 L 1.472656 40.84375 L 22.3125 39.605469 Z M 21.902344 41.082031 "/>
<path style=" stroke:none;fill-rule:nonzero;fill:rgb(92.941176%,10.980392%,14.117647%);fill-opacity:1;" d="M 1.472656 40.84375 L 0 37.957031 L 21.601562 38.347656 L 22.3125 39.605469 Z M 1.472656 40.84375 "/>
<path style=" stroke:none;fill-rule:nonzero;fill:rgb(67.058824%,39.215686%,13.333333%);fill-opacity:1;" d="M 43.335938 38.0625 C 43.324219 38.4375 43.011719 38.730469 42.636719 38.722656 L 1.410156 37.753906 C 1.035156 37.746094 0.734375 37.4375 0.746094 37.066406 C 0.753906 36.691406 1.066406 36.398438 1.445312 36.40625 L 42.667969 37.371094 C 43.046875 37.382812 43.34375 37.691406 43.335938 38.0625 Z M 43.335938 38.0625 "/>
<path style=" stroke:none;fill-rule:nonzero;fill:rgb(74.509804%,11.764706%,17.647059%);fill-opacity:1;" d="M 21.601562 38.355469 L 0 37.96875 L 1.484375 34.824219 L 22.253906 36.960938 Z M 21.601562 38.355469 "/>
<path style=" stroke:none;fill-rule:nonzero;fill:rgb(92.941176%,10.980392%,14.117647%);fill-opacity:1;" d="M 1.484375 34.824219 L 0.511719 31.738281 L 21.757812 35.605469 L 22.253906 36.960938 Z M 1.484375 34.824219 "/>
<path style=" stroke:none;fill-rule:nonzero;fill:rgb(68.235294%,40%,14.901961%);fill-opacity:1;" d="M 43.246094 38.832031 C 43.175781 39.199219 42.820312 39.4375 42.449219 39.367188 L 1.9375 31.773438 C 1.566406 31.703125 1.324219 31.351562 1.394531 30.984375 C 1.464844 30.617188 1.820312 30.378906 2.191406 30.449219 L 42.703125 38.042969 C 43.074219 38.113281 43.316406 38.464844 43.246094 38.832031 Z M 43.246094 38.832031 "/>
<path style=" stroke:none;fill-rule:nonzero;fill:rgb(74.509804%,11.764706%,17.647059%);fill-opacity:1;" d="M 21.757812 35.617188 L 0.507812 31.757812 L 2.492188 28.890625 L 22.628906 34.347656 Z M 21.757812 35.617188 "/>
<path style=" stroke:none;fill-rule:nonzero;fill:rgb(92.941176%,10.980392%,14.117647%);fill-opacity:1;" d="M 2.492188 28.890625 L 2.042969 25.691406 L 22.363281 32.933594 L 22.628906 34.347656 Z M 2.492188 28.890625 "/>
<path style=" stroke:none;fill-rule:nonzero;fill:rgb(69.411765%,41.176471%,16.470588%);fill-opacity:1;" d="M 43.035156 39.574219 C 42.902344 39.921875 42.511719 40.101562 42.15625 39.972656 L 3.433594 25.972656 C 3.082031 25.847656 2.898438 25.457031 3.027344 25.109375 C 3.15625 24.757812 3.550781 24.578125 3.90625 24.707031 L 42.628906 38.707031 C 42.980469 38.835938 43.164062 39.222656 43.035156 39.574219 Z M 43.035156 39.574219 "/>
<path style=" stroke:none;fill-rule:nonzero;fill:rgb(74.509804%,11.764706%,17.647059%);fill-opacity:1;" d="M 22.359375 32.953125 L 2.03125 25.730469 L 4.460938 23.222656 L 23.429688 31.839844 Z M 22.359375 32.953125 "/>
<path style=" stroke:none;fill-rule:nonzero;fill:rgb(92.941176%,10.980392%,14.117647%);fill-opacity:1;" d="M 4.460938 23.222656 L 4.542969 19.992188 L 23.402344 30.398438 L 23.429688 31.839844 Z M 4.460938 23.222656 "/>
<path style=" stroke:none;fill-rule:nonzero;fill:rgb(70.980392%,42.352941%,17.647059%);fill-opacity:1;" d="M 42.703125 40.273438 C 42.515625 40.597656 42.097656 40.710938 41.769531 40.527344 L 5.882812 20.472656 C 5.554688 20.289062 5.441406 19.878906 5.625 19.550781 C 5.8125 19.226562 6.226562 19.113281 6.554688 19.296875 L 42.445312 39.355469 C 42.773438 39.539062 42.886719 39.949219 42.703125 40.273438 Z M 42.703125 40.273438 "/>
<path style=" stroke:none;fill-rule:nonzero;fill:rgb(74.509804%,11.764706%,17.647059%);fill-opacity:1;" d="M 23.398438 30.40625 L 4.539062 20.003906 L 7.351562 17.921875 L 24.636719 29.484375 Z M 23.398438 30.40625 "/>
<path style=" stroke:none;fill-rule:nonzero;fill:rgb(92.941176%,10.980392%,14.117647%);fill-opacity:1;" d="M 7.351562 17.921875 L 7.964844 14.746094 L 24.847656 28.058594 L 24.636719 29.484375 Z M 7.351562 17.921875 "/>
<path style="fill:none;stroke-width:4.68;stroke-linecap:butt;stroke-linejoin:miter;stroke:rgb(74.509804%,11.764706%,17.647059%);stroke-opacity:1;stroke-miterlimit:10;" d="M 194.863958 361.023732 C 187.124563 344.180843 187.659734 325.336818 191.220679 307.555897 C 194.781624 289.79582 201.183091 272.577718 204.908704 254.817642 C 208.613733 237.07841 209.47824 218.276076 202.129932 201.287271 C 213.533188 209.229277 220.757996 223.258069 223.001597 235.806856 C 225.265781 248.355642 224.236606 261.11288 224.113105 273.807582 C 223.886687 298.988536 227.694634 325.253437 243.441008 346.515501 " transform="matrix(0.189776,0,0,0.187394,0,0.0300496)"/>
<path style=" stroke:none;fill-rule:nonzero;fill:rgb(72.156863%,43.137255%,18.431373%);fill-opacity:1;" d="M 42.253906 40.910156 C 42.015625 41.203125 41.585938 41.246094 41.292969 41.011719 L 9.210938 15.433594 C 8.917969 15.199219 8.871094 14.773438 9.105469 14.484375 C 9.34375 14.195312 9.773438 14.148438 10.066406 14.382812 L 42.152344 39.964844 C 42.445312 40.199219 42.492188 40.621094 42.253906 40.910156 Z M 42.253906 40.910156 "/>
<path style=" stroke:none;fill-rule:nonzero;fill:rgb(74.509804%,11.764706%,17.647059%);fill-opacity:1;" d="M 24.84375 28.0625 L 7.960938 14.757812 L 11.078125 13.15625 L 26.222656 27.351562 Z M 24.84375 28.0625 "/>
<path style=" stroke:none;fill-rule:nonzero;fill:rgb(92.941176%,10.980392%,14.117647%);fill-opacity:1;" d="M 11.078125 13.15625 L 12.210938 10.125 L 26.664062 25.980469 L 26.222656 27.351562 Z M 11.078125 13.15625 "/>
<path style=" stroke:none;fill-rule:nonzero;fill:rgb(73.333333%,44.313725%,20%);fill-opacity:1;" d="M 41.710938 41.46875 C 41.429688 41.714844 41 41.691406 40.75 41.414062 L 13.316406 11.011719 C 13.066406 10.734375 13.089844 10.308594 13.371094 10.058594 C 13.652344 9.8125 14.085938 9.835938 14.335938 10.113281 L 41.769531 40.515625 C 42.019531 40.792969 41.996094 41.21875 41.710938 41.46875 Z M 41.710938 41.46875 "/>
<path style=" stroke:none;fill-rule:nonzero;fill:rgb(74.509804%,11.764706%,17.647059%);fill-opacity:1;" d="M 26.65625 25.988281 L 12.191406 10.144531 L 15.53125 9.066406 L 28.128906 25.511719 Z M 26.65625 25.988281 "/>
<path style=" stroke:none;fill-rule:nonzero;fill:rgb(92.941176%,10.980392%,14.117647%);fill-opacity:1;" d="M 15.53125 9.066406 L 17.148438 6.257812 L 28.792969 24.226562 L 28.128906 25.511719 Z M 15.53125 9.066406 "/>
<path style=" stroke:none;fill-rule:nonzero;fill:rgb(74.509804%,45.098039%,21.568627%);fill-opacity:1;" d="M 41.082031 41.929688 C 40.761719 42.128906 40.339844 42.035156 40.136719 41.71875 L 18.117188 7.292969 C 17.914062 6.976562 18.007812 6.5625 18.328125 6.363281 C 18.648438 6.164062 19.070312 6.257812 19.269531 6.570312 L 41.292969 40.996094 C 41.496094 41.3125 41.398438 41.730469 41.082031 41.929688 Z M 41.082031 41.929688 "/>
<path style=" stroke:none;fill-rule:nonzero;fill:rgb(74.509804%,11.764706%,17.647059%);fill-opacity:1;" d="M 28.792969 24.226562 L 17.148438 6.257812 L 20.625 5.734375 L 30.328125 23.992188 Z M 28.792969 24.226562 "/>
<path style=" stroke:none;fill-rule:nonzero;fill:rgb(92.941176%,10.980392%,14.117647%);fill-opacity:1;" d="M 20.625 5.734375 L 22.6875 3.226562 L 31.195312 22.835938 L 30.328125 23.992188 Z M 20.625 5.734375 "/>
<path style=" stroke:none;fill-rule:nonzero;fill:rgb(75.686275%,46.27451%,22.745098%);fill-opacity:1;" d="M 40.382812 42.285156 C 40.035156 42.433594 39.632812 42.269531 39.488281 41.925781 L 23.460938 4.410156 C 23.316406 4.066406 23.476562 3.671875 23.824219 3.527344 C 24.171875 3.382812 24.574219 3.542969 24.71875 3.886719 L 40.746094 41.402344 C 40.894531 41.746094 40.730469 42.140625 40.382812 42.285156 Z M 40.382812 42.285156 "/>
<path style=" stroke:none;fill-rule:nonzero;fill:rgb(74.509804%,11.764706%,17.647059%);fill-opacity:1;" d="M 31.195312 22.835938 L 22.683594 3.230469 L 26.199219 3.273438 L 32.746094 22.851562 Z M 31.195312 22.835938 "/>
<path style=" stroke:none;fill-rule:nonzero;fill:rgb(92.941176%,10.980392%,14.117647%);fill-opacity:1;" d="M 26.199219 3.273438 L 28.648438 1.128906 L 33.792969 21.851562 L 32.746094 22.851562 Z M 26.199219 3.273438 "/>
<path style=" stroke:none;fill-rule:nonzero;fill:rgb(76.862745%,47.45098%,24.313725%);fill-opacity:1;" d="M 39.636719 42.519531 C 39.269531 42.605469 38.902344 42.382812 38.8125 42.019531 L 29.1875 2.425781 C 29.097656 2.066406 29.324219 1.699219 29.691406 1.613281 C 30.058594 1.527344 30.429688 1.75 30.515625 2.113281 L 40.140625 41.707031 C 40.230469 42.066406 40.003906 42.433594 39.636719 42.519531 Z M 39.636719 42.519531 "/>
<path style=" stroke:none;fill-rule:nonzero;fill:rgb(74.509804%,11.764706%,17.647059%);fill-opacity:1;" d="M 33.777344 21.855469 L 28.609375 1.140625 L 32.070312 1.75 L 35.304688 22.121094 Z M 33.777344 21.855469 "/>
<path style=" stroke:none;fill-rule:nonzero;fill:rgb(92.941176%,10.980392%,14.117647%);fill-opacity:1;" d="M 32.070312 1.75 L 34.839844 0.03125 L 36.503906 21.300781 L 35.304688 22.121094 Z M 32.070312 1.75 "/>
<path style=" stroke:none;fill-rule:nonzero;fill:rgb(78.039216%,48.627451%,25.882353%);fill-opacity:1;" d="M 38.867188 42.636719 C 38.492188 42.664062 38.164062 42.386719 38.136719 42.011719 L 35.136719 1.402344 C 35.109375 1.03125 35.394531 0.707031 35.769531 0.679688 C 36.148438 0.652344 36.472656 0.933594 36.5 1.304688 L 39.5 41.914062 C 39.527344 42.285156 39.246094 42.609375 38.867188 42.636719 Z M 38.867188 42.636719 "/>
<path style=" stroke:none;fill-rule:nonzero;fill:rgb(74.509804%,11.764706%,17.647059%);fill-opacity:1;" d="M 36.480469 21.304688 L 34.785156 0.0390625 L 38.097656 1.191406 L 37.945312 21.8125 Z M 36.480469 21.304688 "/>
<path style=" stroke:none;fill-rule:nonzero;fill:rgb(92.941176%,10.980392%,14.117647%);fill-opacity:1;" d="M 38.097656 1.191406 L 41.011719 0.964844 L 40.039062 20.828125 L 37.945312 21.8125 Z M 38.097656 1.191406 "/>
<path style=" stroke:none;fill-rule:nonzero;fill:rgb(79.215686%,49.411765%,27.058824%);fill-opacity:1;" d="M 38.285156 42.644531 C 37.910156 42.625 37.617188 42.308594 37.636719 41.9375 L 39.648438 0.894531 C 39.667969 0.523438 39.988281 0.238281 40.363281 0.253906 C 40.738281 0.273438 41.03125 0.589844 41.011719 0.960938 L 39 42.003906 C 38.984375 42.375 38.664062 42.664062 38.285156 42.644531 Z M 38.285156 42.644531 "/>
<path style=" stroke:none;fill-rule:nonzero;fill:rgb(42.745098%,43.137255%,44.313725%);fill-opacity:1;" d="M 38.925781 37.980469 C 38.925781 38.207031 38.742188 38.386719 38.515625 38.386719 C 38.289062 38.386719 38.101562 38.207031 38.101562 37.980469 C 38.101562 37.757812 38.289062 37.574219 38.515625 37.574219 C 38.742188 37.574219 38.925781 37.757812 38.925781 37.980469 Z M 38.925781 37.980469 "/>
<path style=" stroke:none;fill-rule:nonzero;fill:rgb(74.509804%,11.764706%,17.647059%);fill-opacity:1;" d="M 37.683594 67.136719 C 37.683594 67.675781 37.238281 68.109375 36.695312 68.109375 C 36.148438 68.109375 35.707031 67.675781 35.707031 67.136719 C 35.707031 66.597656 36.148438 66.160156 36.695312 66.160156 C 37.238281 66.160156 37.683594 66.597656 37.683594 67.136719 Z M 37.683594 67.136719 "/>
<path style=" stroke:none;fill-rule:nonzero;fill:rgb(74.509804%,11.764706%,17.647059%);fill-opacity:1;" d="M 46.902344 64.703125 C 46.902344 65.238281 46.460938 65.675781 45.917969 65.675781 C 45.371094 65.675781 44.929688 65.238281 44.929688 64.703125 C 44.929688 64.164062 45.371094 63.726562 45.917969 63.726562 C 46.460938 63.726562 46.902344 64.164062 46.902344 64.703125 Z M 46.902344 64.703125 "/>
<path style="fill:none;stroke-width:2;stroke-linecap:round;stroke-linejoin:miter;stroke:rgb(74.509804%,11.764706%,17.647059%);stroke-opacity:1;stroke-miterlimit:10;" d="M 191.117761 356.958926 C 186.712893 371.321241 186.651143 381.973118 187.495066 393.396265 " transform="matrix(0.189776,0,0,0.187394,0,0.0300496)"/>
<path style="fill:none;stroke-width:2;stroke-linecap:round;stroke-linejoin:miter;stroke:rgb(74.509804%,11.764706%,17.647059%);stroke-opacity:1;stroke-miterlimit:10;" d="M 193.670115 358.814145 C 191.941101 370.320673 192.105769 382.119034 194.164119 393.563027 " transform="matrix(0.189776,0,0,0.187394,0,0.0300496)"/>
<path style="fill:none;stroke-width:2;stroke-linecap:round;stroke-linejoin:miter;stroke:rgb(74.509804%,11.764706%,17.647059%);stroke-opacity:1;stroke-miterlimit:10;" d="M 190.664924 361.107113 C 189.573999 375.594499 190.397339 378.804653 190.829592 393.33373 " transform="matrix(0.189776,0,0,0.187394,0,0.0300496)"/>
<path style="fill:none;stroke-width:2;stroke-linecap:round;stroke-linejoin:miter;stroke:rgb(74.509804%,11.764706%,17.647059%);stroke-opacity:1;stroke-miterlimit:10;" d="M 195.954883 361.836693 C 198.219067 371.23786 199.371743 383.140447 199.433494 392.812601 " transform="matrix(0.189776,0,0,0.187394,0,0.0300496)"/>
<path style="fill:none;stroke-width:2;stroke-linecap:round;stroke-linejoin:miter;stroke:rgb(74.509804%,11.764706%,17.647059%);stroke-opacity:1;stroke-miterlimit:10;" d="M 195.872549 358.814145 C 200.483252 368.56968 202.932688 381.597905 202.973855 392.395698 " transform="matrix(0.189776,0,0,0.187394,0,0.0300496)"/>
<path style="fill:none;stroke-width:2;stroke-linecap:round;stroke-linejoin:miter;stroke:rgb(74.509804%,11.764706%,17.647059%);stroke-opacity:1;stroke-miterlimit:10;" d="M 193.217278 358.814145 C 195.152126 371.091944 195.954883 381.285228 196.839973 393.041898 " transform="matrix(0.189776,0,0,0.187394,0,0.0300496)"/>
<path style="fill:none;stroke-width:2;stroke-linecap:round;stroke-linejoin:miter;stroke:rgb(74.509804%,11.764706%,17.647059%);stroke-opacity:1;stroke-miterlimit:10;" d="M 239.591895 344.347604 C 236.44262 355.749906 234.446021 367.777564 235.907449 379.513389 " transform="matrix(0.189776,0,0,0.187394,0,0.0300496)"/>
<path style="fill:none;stroke-width:2;stroke-linecap:round;stroke-linejoin:miter;stroke:rgb(74.509804%,11.764706%,17.647059%);stroke-opacity:1;stroke-miterlimit:10;" d="M 243.049922 345.514933 L 243.379258 379.951137 " transform="matrix(0.189776,0,0,0.187394,0,0.0300496)"/>
<path style="fill:none;stroke-width:2;stroke-linecap:round;stroke-linejoin:miter;stroke:rgb(74.509804%,11.764706%,17.647059%);stroke-opacity:1;stroke-miterlimit:10;" d="M 239.900647 347.432688 C 237.657046 359.189358 237.904048 367.798409 238.439219 379.742686 " transform="matrix(0.189776,0,0,0.187394,0,0.0300496)"/>
<path style="fill:none;stroke-width:2;stroke-linecap:round;stroke-linejoin:miter;stroke:rgb(74.509804%,11.764706%,17.647059%);stroke-opacity:1;stroke-miterlimit:10;" d="M 243.441008 346.828178 C 248.051711 356.25019 250.110061 366.922912 249.389639 377.408028 " transform="matrix(0.189776,0,0,0.187394,0,0.0300496)"/>
<path style="fill:none;stroke-width:2;stroke-linecap:round;stroke-linejoin:miter;stroke:rgb(74.509804%,11.764706%,17.647059%);stroke-opacity:1;stroke-miterlimit:10;" d="M 241.629661 346.348739 C 240.229983 358.355551 239.44781 368.298693 241.526743 380.201279 " transform="matrix(0.189776,0,0,0.187394,0,0.0300496)"/>
<path style="fill:none;stroke-width:2;stroke-linecap:round;stroke-linejoin:miter;stroke:rgb(74.509804%,11.764706%,17.647059%);stroke-opacity:1;stroke-miterlimit:10;" d="M 244.676018 345.890146 C 249.183804 355.60399 251.674407 366.255867 251.921409 376.970279 " transform="matrix(0.189776,0,0,0.187394,0,0.0300496)"/>
<path style="fill:none;stroke-width:2;stroke-linecap:round;stroke-linejoin:miter;stroke:rgb(74.509804%,11.764706%,17.647059%);stroke-opacity:1;stroke-miterlimit:10;" d="M 243.543926 346.828178 C 245.293523 357.125687 247.084287 368.736441 246.652034 379.179866 " transform="matrix(0.189776,0,0,0.187394,0,0.0300496)"/>
<path style="fill:none;stroke-width:2;stroke-linecap:round;stroke-linejoin:miter;stroke:rgb(74.509804%,11.764706%,17.647059%);stroke-opacity:1;stroke-miterlimit:10;" d="M 192.291021 359.627106 C 189.388748 368.236157 190.747258 377.616479 192.146936 386.579898 " transform="matrix(0.189776,0,0,0.187394,0,0.0300496)"/>
<path style="fill:none;stroke-width:2;stroke-linecap:round;stroke-linejoin:miter;stroke:rgb(74.509804%,11.764706%,17.647059%);stroke-opacity:1;stroke-miterlimit:10;" d="M 194.102368 357.229913 C 196.551804 366.985448 197.498645 377.09535 196.922307 387.142717 " transform="matrix(0.189776,0,0,0.187394,0,0.0300496)"/>
</g>
</svg>
