<?xml version="1.0" encoding="UTF-8"?>
<svg xmlns="http://www.w3.org/2000/svg" xmlns:xlink="http://www.w3.org/1999/xlink" width="48px" height="px" viewBox="0 0 47 34" version="1.1">
<defs>
<filter id="alpha" filterUnits="objectBoundingBox" x="0%" y="0%" width="100%" height="100%">
  <feColorMatrix type="matrix" in="SourceGraphic" values="0 0 0 0 1 0 0 0 0 1 0 0 0 0 1 0 0 0 1 0"/>
</filter>
<mask id="mask0">
  <g filter="url(#alpha)">
<rect x="0" y="0" width="47" height="34" style="fill:rgb(0%,0%,0%);fill-opacity:0.121569;stroke:none;"/>
  </g>
</mask>
<clipPath id="clip1">
  <rect x="0" y="0" width="47" height="34"/>
</clipPath>
<g id="surface5" clip-path="url(#clip1)">
<path style=" stroke:none;fill-rule:nonzero;fill:rgb(0%,0%,0%);fill-opacity:1;" d="M 16.625 16.855469 C 20.214844 18.558594 23.789062 19.371094 28.019531 19.371094 C 34.394531 19.371094 40.269531 17.207031 44.957031 13.5625 C 46.210938 12.59375 46.210938 10.703125 44.957031 9.734375 C 44.921875 9.703125 44.425781 9.269531 44.382812 9.324219 C 41.902344 12.40625 38.085938 14.105469 34.253906 15.015625 C 29.773438 16.074219 25.078125 16.191406 20.546875 15.363281 C 19.144531 15.105469 17.6875 14.722656 16.644531 13.738281 C 16.597656 13.992188 16.429688 16.761719 16.625 16.855469 Z M 16.625 16.855469 "/>
</g>
<mask id="mask1">
  <g filter="url(#alpha)">
<rect x="0" y="0" width="47" height="34" style="fill:rgb(0%,0%,0%);fill-opacity:0.121569;stroke:none;"/>
  </g>
</mask>
<clipPath id="clip2">
  <rect x="0" y="0" width="47" height="34"/>
</clipPath>
<g id="surface8" clip-path="url(#clip2)">
<path style=" stroke:none;fill-rule:nonzero;fill:rgb(0%,0%,0%);fill-opacity:1;" d="M 4.53125 11.632812 L 4.53125 12.914062 L 16.417969 12.914062 C 16.417969 12.914062 16.421875 12.914062 16.425781 12.914062 C 16.582031 12.914062 16.703125 12.347656 16.703125 11.648438 L 4.527344 11.632812 Z M 4.53125 11.632812 "/>
</g>
<mask id="mask2">
  <g filter="url(#alpha)">
<rect x="0" y="0" width="47" height="34" style="fill:rgb(0%,0%,0%);fill-opacity:0.121569;stroke:none;"/>
  </g>
</mask>
<clipPath id="clip3">
  <rect x="0" y="0" width="47" height="34"/>
</clipPath>
<g id="surface11" clip-path="url(#clip3)">
<path style=" stroke:none;fill-rule:nonzero;fill:rgb(0%,0%,0%);fill-opacity:1;" d="M 5.289062 11.648438 C 5.289062 13.121094 4.105469 14.3125 2.648438 14.3125 C 1.191406 14.3125 0.0078125 13.121094 0.0078125 11.648438 C 0.0078125 11.40625 0.046875 11.199219 0.113281 10.964844 C 0.117188 11.820312 0.742188 12.617188 1.554688 12.867188 C 2.363281 13.117188 3.292969 12.832031 3.867188 12.203125 C 4.441406 11.574219 4.652344 10.648438 4.460938 9.816406 C 5.039062 10.199219 5.289062 10.964844 5.289062 11.648438 Z M 5.289062 11.648438 "/>
</g>
</defs>
<g id="surface1">
<path style=" stroke:none;fill-rule:nonzero;fill:rgb(70.588235%,71.372549%,78.431373%);fill-opacity:1;" d="M 30.292969 21.507812 C 30.125 21.738281 29.945312 21.957031 29.753906 22.171875 C 29.941406 22.496094 30.292969 22.714844 30.667969 22.742188 C 30.949219 22.757812 31.308594 22.660156 31.507812 22.441406 C 31.703125 22.222656 31.742188 21.996094 32.011719 21.828125 C 32.332031 21.625 32.652344 21.625 33 21.535156 C 33.667969 21.355469 34.210938 20.84375 34.597656 20.285156 C 34.757812 20.054688 35.007812 19.71875 35.019531 19.425781 C 35.035156 19.109375 34.847656 18.6875 34.710938 18.40625 C 34.664062 18.3125 34.410156 17.515625 34.3125 17.523438 C 33.738281 17.546875 33.167969 17.636719 32.613281 17.792969 C 32.0625 17.945312 31.894531 18.132812 31.738281 18.683594 C 31.4375 19.707031 30.929688 20.660156 30.292969 21.511719 Z M 30.292969 21.507812 "/>
<path style=" stroke:none;fill-rule:nonzero;fill:rgb(49.411765%,50.588235%,59.607843%);fill-opacity:1;" d="M 36.429688 23.367188 C 36.515625 23.601562 36.597656 23.835938 36.679688 24.070312 C 37.207031 25.628906 37.246094 25.835938 37.617188 27.4375 C 37.988281 29.042969 38.109375 30.652344 38.183594 32.347656 C 38.199219 32.707031 38.222656 33.082031 38.414062 33.382812 C 38.882812 34.113281 39.839844 34.007812 40.574219 33.976562 C 41.539062 33.941406 42.476562 33.605469 43.296875 33.101562 C 44.394531 32.429688 45.296875 31.476562 46.128906 30.488281 C 46.488281 30.058594 46.847656 29.601562 46.957031 29.050781 C 47.132812 28.179688 46.644531 27.320312 46.121094 26.601562 C 45.011719 25.066406 42.519531 18.902344 42.210938 16.820312 C 42.117188 16.183594 42.058594 15.542969 41.894531 14.925781 C 41.859375 14.792969 41.816406 14.65625 41.710938 14.570312 C 41.609375 14.488281 41.472656 14.472656 41.34375 14.464844 C 40.519531 14.429688 39.707031 14.671875 38.9375 14.972656 C 37.988281 15.339844 37.074219 15.789062 36.207031 16.320312 C 35.6875 16.640625 35.097656 16.910156 34.683594 17.371094 C 34.085938 18.039062 34.207031 18.507812 34.597656 19.234375 C 35.316406 20.5625 35.917969 21.949219 36.433594 23.367188 Z M 36.429688 23.367188 "/>
<path style=" stroke:none;fill-rule:nonzero;fill:rgb(49.411765%,50.588235%,59.607843%);fill-opacity:1;" d="M 41.40625 0.1875 C 41.917969 0.515625 41.921875 1.273438 41.59375 2.148438 C 40.769531 4.324219 41.273438 5.988281 41.761719 7.964844 C 40.550781 8.039062 39.320312 8.113281 38.136719 7.859375 C 36.953125 7.601562 35.875 7.03125 34.820312 6.460938 C 34.285156 6.171875 33.757812 5.875 33.207031 5.613281 C 32.703125 5.371094 30.910156 5.492188 31.261719 4.890625 C 32 3.625 33.996094 2.523438 34.863281 2.035156 C 36.496094 1.109375 38.273438 0.445312 40.109375 0.0664062 C 40.6875 -0.0546875 41.117188 0 41.40625 0.1875 Z M 41.40625 0.1875 "/>
<path style="fill:none;stroke-width:11;stroke-linecap:butt;stroke-linejoin:miter;stroke:rgb(49.411765%,50.588235%,59.607843%);stroke-opacity:1;stroke-miterlimit:10;" d="M 160.587432 108.416519 C 159.480344 113.566415 158.373256 118.805875 158.712161 124.045335 C 159.051065 129.307186 161.039305 135.643798 165.128752 138.980036 C 168.653358 141.846065 172.200558 142.876044 176.719284 143.458207 C 190.478805 145.249475 201.233373 141.801283 214.269898 137.166376 " transform="matrix(0.172892,0,0,0.174457,0.00921202,0)"/>
<path style=" stroke:none;fill-rule:nonzero;fill:rgb(70.588235%,71.372549%,78.431373%);fill-opacity:1;" d="M 16.625 16.855469 C 20.214844 18.558594 23.789062 19.371094 28.019531 19.371094 C 34.394531 19.371094 40.269531 17.207031 44.957031 13.5625 C 46.210938 12.59375 46.210938 10.703125 44.957031 9.734375 C 40.269531 6.09375 34.394531 3.925781 28.019531 3.925781 C 23.835938 3.925781 20.1875 4.738281 16.625 6.410156 Z M 16.625 16.855469 "/>
<use xlink:href="#surface5" mask="url(#mask0)"/>
<path style=" stroke:none;fill-rule:nonzero;fill:rgb(49.411765%,50.588235%,59.607843%);fill-opacity:1;" d="M 17.785156 11.632812 C 17.785156 8.75 17.265625 6.410156 16.625 6.410156 C 15.984375 6.410156 15.464844 8.75 15.464844 11.632812 C 15.464844 14.515625 15.984375 16.855469 16.625 16.855469 C 17.265625 16.855469 17.785156 14.515625 17.785156 11.632812 Z M 17.785156 11.632812 "/>
<path style="fill:none;stroke-width:9;stroke-linecap:butt;stroke-linejoin:miter;stroke:rgb(52.156863%,85.098039%,64.705882%);stroke-opacity:1;stroke-miterlimit:10;" d="M 77.826963 112.760345 C 72.336711 112.760345 67.908359 92.183149 67.908359 66.769529 C 67.908359 41.3783 72.336711 20.801104 77.826963 20.801104 " transform="matrix(0.172892,0,0,0.174457,0.00921202,0)"/>
<path style="fill:none;stroke-width:9;stroke-linecap:butt;stroke-linejoin:miter;stroke:rgb(52.156863%,85.098039%,64.705882%);stroke-opacity:1;stroke-miterlimit:10;" d="M 52.951375 99.572131 C 48.274494 99.572131 44.478764 84.88373 44.478764 66.769529 C 44.478764 48.655327 48.274494 33.966927 52.951375 33.966927 " transform="matrix(0.172892,0,0,0.174457,0.00921202,0)"/>
<path style=" stroke:none;fill-rule:nonzero;fill:rgb(70.588235%,71.372549%,78.431373%);fill-opacity:1;" d="M 16.425781 10.386719 C 16.425781 10.386719 16.421875 10.386719 16.417969 10.386719 L 16.417969 10.382812 L 4.53125 10.382812 L 4.53125 12.914062 L 16.417969 12.914062 C 16.417969 12.914062 16.421875 12.914062 16.425781 12.914062 C 16.582031 12.914062 16.703125 12.347656 16.703125 11.648438 C 16.703125 10.949219 16.578125 10.382812 16.425781 10.382812 Z M 16.425781 10.386719 "/>
<use xlink:href="#surface8" mask="url(#mask1)"/>
<path style=" stroke:none;fill-rule:nonzero;fill:rgb(70.588235%,71.372549%,78.431373%);fill-opacity:1;" d="M 5.289062 11.648438 C 5.289062 13.121094 4.105469 14.3125 2.648438 14.3125 C 1.191406 14.3125 0.0078125 13.121094 0.0078125 11.648438 C 0.0078125 10.179688 1.191406 8.984375 2.648438 8.984375 C 4.105469 8.984375 5.289062 10.179688 5.289062 11.648438 Z M 5.289062 11.648438 "/>
<use xlink:href="#surface11" mask="url(#mask2)"/>
<path style=" stroke:none;fill-rule:nonzero;fill:rgb(0%,50.588235%,67.843137%);fill-opacity:1;" d="M 33.441406 11.648438 C 33.441406 12.867188 32.464844 13.851562 31.261719 13.851562 C 30.054688 13.851562 29.078125 12.867188 29.078125 11.648438 C 29.078125 10.433594 30.054688 9.449219 31.261719 9.449219 C 32.464844 9.449219 33.441406 10.433594 33.441406 11.648438 Z M 33.441406 11.648438 "/>
<path style=" stroke:none;fill-rule:nonzero;fill:rgb(0%,50.588235%,67.843137%);fill-opacity:1;" d="M 38.109375 11.648438 C 38.109375 12.527344 37.402344 13.238281 36.535156 13.238281 C 35.664062 13.238281 34.960938 12.527344 34.960938 11.648438 C 34.960938 10.773438 35.664062 10.0625 36.535156 10.0625 C 37.402344 10.0625 38.109375 10.773438 38.109375 11.648438 Z M 38.109375 11.648438 "/>
<path style=" stroke:none;fill-rule:nonzero;fill:rgb(0%,50.588235%,67.843137%);fill-opacity:1;" d="M 41.632812 11.648438 C 41.632812 12.210938 41.183594 12.664062 40.628906 12.664062 C 40.074219 12.664062 39.625 12.210938 39.625 11.648438 C 39.625 11.089844 40.074219 10.636719 40.628906 10.636719 C 41.183594 10.636719 41.632812 11.089844 41.632812 11.648438 Z M 41.632812 11.648438 "/>
<path style=" stroke:none;fill-rule:nonzero;fill:rgb(52.156863%,85.098039%,64.705882%);fill-opacity:1;" d="M 36.210938 19.574219 C 36.296875 19.09375 36.707031 18.886719 37.125 18.734375 C 37.925781 18.429688 38.535156 18.136719 39.34375 17.851562 C 39.957031 17.632812 40.789062 17.125 41.339844 17.714844 C 41.570312 17.964844 41.699219 18.296875 41.785156 18.625 C 42.550781 21.621094 43.492188 24.074219 44.871094 26.707031 C 45.15625 27.253906 45.378906 27.863281 45.351562 28.480469 C 45.328125 29.007812 45.097656 29.507812 44.8125 29.949219 C 43.902344 31.375 42.390625 32.398438 40.734375 32.699219 C 40.351562 32.769531 39.929688 32.792969 39.605469 32.574219 C 39.09375 32.226562 39.097656 31.484375 39.09375 30.863281 C 39.089844 29.308594 38.722656 27.777344 38.324219 26.277344 C 37.976562 24.957031 37.722656 23.796875 37.214844 22.40625 C 36.90625 21.566406 36.046875 20.53125 36.207031 19.585938 C 36.207031 19.582031 36.207031 19.578125 36.210938 19.574219 Z M 36.210938 19.574219 "/>
<path style=" stroke:none;fill-rule:nonzero;fill:rgb(49.411765%,50.588235%,59.607843%);fill-opacity:1;" d="M 39.820312 19.980469 C 39.820312 20.320312 39.550781 20.59375 39.214844 20.59375 C 38.882812 20.59375 38.609375 20.320312 38.609375 19.980469 C 38.609375 19.644531 38.882812 19.371094 39.214844 19.371094 C 39.550781 19.371094 39.820312 19.644531 39.820312 19.980469 Z M 39.820312 19.980469 "/>
<path style=" stroke:none;fill-rule:nonzero;fill:rgb(49.411765%,50.588235%,59.607843%);fill-opacity:1;" d="M 42.84375 29.882812 C 42.84375 30.21875 42.570312 30.492188 42.238281 30.492188 C 41.902344 30.492188 41.632812 30.21875 41.632812 29.882812 C 41.632812 29.542969 41.902344 29.269531 42.238281 29.269531 C 42.570312 29.269531 42.84375 29.542969 42.84375 29.882812 Z M 42.84375 29.882812 "/>
<path style="fill:none;stroke-width:9;stroke-linecap:butt;stroke-linejoin:miter;stroke:rgb(52.156863%,85.098039%,64.705882%);stroke-opacity:1;stroke-miterlimit:10;" d="M 52.951375 33.989318 C 57.628257 33.989318 61.401393 48.655327 61.401393 66.769529 C 61.401393 84.906121 57.628257 99.572131 52.951375 99.572131 " transform="matrix(0.172892,0,0,0.174457,0.00921202,0)"/>
<path style="fill:none;stroke-width:9;stroke-linecap:butt;stroke-linejoin:miter;stroke:rgb(52.156863%,85.098039%,64.705882%);stroke-opacity:1;stroke-miterlimit:10;" d="M 77.826963 20.778713 C 83.294621 20.778713 87.745567 41.3783 87.745567 66.769529 C 87.745567 92.160758 83.294621 112.760345 77.826963 112.760345 " transform="matrix(0.172892,0,0,0.174457,0.00921202,0)"/>
</g>
</svg>
