<?xml version="1.0" encoding="UTF-8"?>
<svg xmlns="http://www.w3.org/2000/svg" xmlns:xlink="http://www.w3.org/1999/xlink" width="48px" height="px" viewBox="0 0 48 88" version="1.1">
<g id="surface1">
<path style=" stroke:none;fill-rule:nonzero;fill:rgb(81.960784%,65.098039%,32.156863%);fill-opacity:1;" d="M 26.882812 38.542969 L 39.65625 85.511719 L 27.84375 88 L 20.390625 39.910156 Z M 26.882812 38.542969 "/>
<path style=" stroke:none;fill-rule:nonzero;fill:rgb(81.960784%,65.098039%,32.156863%);fill-opacity:1;" d="M 24.496094 43.253906 L 1.851562 50.015625 L 0.0546875 41.566406 L 23.503906 38.613281 Z M 24.496094 43.253906 "/>
<path style=" stroke:none;fill-rule:nonzero;fill:rgb(81.960784%,65.098039%,32.156863%);fill-opacity:1;" d="M 23.503906 38.613281 L 46.144531 31.855469 L 47.945312 40.304688 L 24.496094 43.253906 Z M 23.503906 38.613281 "/>
<path style=" stroke:none;fill-rule:nonzero;fill:rgb(81.960784%,65.098039%,32.156863%);fill-opacity:1;" d="M 34.886719 14.324219 C 36.308594 22.292969 31.902344 32.261719 28.394531 39.261719 C 27.460938 41.109375 25.996094 43.617188 25.050781 45.5 C 21.695312 43.066406 18.230469 40.445312 15.207031 37.644531 C 10.375 33.152344 4.230469 26.925781 3.066406 20.136719 C 0.664062 7.171875 12.863281 -4.476562 25.539062 1.707031 C 30.429688 4.144531 33.832031 9.054688 34.886719 14.328125 Z M 27.886719 15.800781 C 26.78125 10.746094 21.71875 6.367188 16.457031 7.8125 C 11.472656 9.054688 9.09375 15.023438 10.253906 19.765625 C 11.800781 25.75 19.613281 33.050781 24.300781 37.1875 C 24.820312 37.636719 25.375 38.101562 25.863281 38.503906 L 21.316406 39.445312 C 24.332031 33.339844 29.175781 22.484375 27.886719 15.792969 Z M 27.886719 15.800781 "/>
<path style=" stroke:none;fill-rule:nonzero;fill:rgb(92.941176%,75.294118%,36.470588%);fill-opacity:1;" d="M 25.359375 38.863281 L 36.886719 86.09375 L 30.613281 87.414062 L 21.914062 39.589844 Z M 25.359375 38.863281 "/>
<path style=" stroke:none;fill-rule:nonzero;fill:rgb(92.941176%,75.294118%,36.470588%);fill-opacity:1;" d="M 24.234375 42.042969 L 1.382812 47.808594 L 0.523438 43.769531 L 23.761719 39.824219 Z M 24.234375 42.042969 "/>
<path style=" stroke:none;fill-rule:nonzero;fill:rgb(92.941176%,75.294118%,36.470588%);fill-opacity:1;" d="M 23.761719 39.824219 L 46.613281 34.058594 L 47.472656 38.097656 L 24.234375 42.042969 Z M 23.761719 39.824219 "/>
<path style=" stroke:none;fill-rule:nonzero;fill:rgb(92.941176%,75.294118%,36.470588%);fill-opacity:1;" d="M 33.136719 14.695312 C 34.636719 22.894531 29.203125 34.488281 25.339844 41.671875 C 25.339844 41.671875 24.5 43.226562 24.5 43.226562 C 21.652344 41.109375 18.917969 38.867188 16.332031 36.464844 C 11.976562 32.339844 6.730469 26.964844 5.09375 21.035156 C 2.082031 9.214844 12.800781 -2.292969 24.695312 3.390625 C 29.101562 5.558594 32.15625 9.957031 33.136719 14.699219 Z M 29.632812 15.429688 C 28.375 9.355469 22.273438 4.199219 15.945312 6.003906 C 10.347656 7.4375 7.332031 13.820312 8.332031 19.269531 C 9.34375 26.195312 19.53125 35.328125 24.929688 39.71875 C 24.929688 39.71875 22.65625 40.191406 22.65625 40.191406 C 23.6875 38.253906 24.65625 36.199219 25.542969 34.152344 C 27.816406 28.691406 30.707031 21.28125 29.632812 15.429688 Z M 29.632812 15.429688 "/>
</g>
</svg>
