<?xml version="1.0" encoding="UTF-8"?>
<svg xmlns="http://www.w3.org/2000/svg" xmlns:xlink="http://www.w3.org/1999/xlink" width="48px" height="px" viewBox="0 0 48 63" version="1.1">
<defs>
<filter id="alpha" filterUnits="objectBoundingBox" x="0%" y="0%" width="100%" height="100%">
  <feColorMatrix type="matrix" in="SourceGraphic" values="0 0 0 0 1 0 0 0 0 1 0 0 0 0 1 0 0 0 1 0"/>
</filter>
<mask id="mask0">
  <g filter="url(#alpha)">
<rect x="0" y="0" width="48" height="63" style="fill:rgb(0%,0%,0%);fill-opacity:0.501961;stroke:none;"/>
  </g>
</mask>
<clipPath id="clip1">
  <rect x="0" y="0" width="48" height="63"/>
</clipPath>
<g id="surface5" clip-path="url(#clip1)">
<path style=" stroke:none;fill-rule:nonzero;fill:rgb(91.764706%,70.196078%,38.823529%);fill-opacity:1;" d="M 15.652344 24.515625 L 37.433594 58.101562 L 41.679688 55.300781 L 19.894531 21.710938 Z M 15.652344 24.515625 "/>
</g>
<mask id="mask1">
  <g filter="url(#alpha)">
<rect x="0" y="0" width="48" height="63" style="fill:rgb(0%,0%,0%);fill-opacity:0.501961;stroke:none;"/>
  </g>
</mask>
<clipPath id="clip2">
  <rect x="0" y="0" width="48" height="63"/>
</clipPath>
<g id="surface8" clip-path="url(#clip2)">
<path style=" stroke:none;fill-rule:nonzero;fill:rgb(91.764706%,70.196078%,38.823529%);fill-opacity:1;" d="M 5.398438 8.707031 L 15.980469 25.042969 L 20.128906 22.140625 L 9.550781 5.804688 Z M 5.398438 8.707031 "/>
</g>
<mask id="mask2">
  <g filter="url(#alpha)">
<rect x="0" y="0" width="48" height="63" style="fill:rgb(0%,0%,0%);fill-opacity:0.501961;stroke:none;"/>
  </g>
</mask>
<clipPath id="clip3">
  <rect x="0" y="0" width="48" height="63"/>
</clipPath>
<g id="surface11" clip-path="url(#clip3)">
<path style=" stroke:none;fill-rule:nonzero;fill:rgb(92.941176%,81.568627%,53.72549%);fill-opacity:1;" d="M 3.4375 7.429688 L 6.710938 5.347656 L 9.503906 9.664062 L 6.234375 11.742188 Z M 3.4375 7.429688 "/>
</g>
<mask id="mask3">
  <g filter="url(#alpha)">
<rect x="0" y="0" width="48" height="63" style="fill:rgb(0%,0%,0%);fill-opacity:0.501961;stroke:none;"/>
  </g>
</mask>
<clipPath id="clip4">
  <rect x="0" y="0" width="48" height="63"/>
</clipPath>
<g id="surface14" clip-path="url(#clip4)">
<path style=" stroke:none;fill-rule:nonzero;fill:rgb(92.941176%,81.568627%,53.72549%);fill-opacity:1;" d="M 39.464844 62.078125 L 42.464844 60.167969 L 39.648438 55.867188 L 36.648438 57.78125 Z M 39.464844 62.078125 "/>
</g>
<mask id="mask4">
  <g filter="url(#alpha)">
<rect x="0" y="0" width="48" height="63" style="fill:rgb(0%,0%,0%);fill-opacity:0.501961;stroke:none;"/>
  </g>
</mask>
<clipPath id="clip5">
  <rect x="0" y="0" width="48" height="63"/>
</clipPath>
<g id="surface17" clip-path="url(#clip5)">
<path style=" stroke:none;fill-rule:nonzero;fill:rgb(92.941176%,81.568627%,53.72549%);fill-opacity:1;" d="M 26.367188 42.066406 L 29.300781 40.207031 L 28.210938 38.542969 L 25.28125 40.40625 Z M 26.367188 42.066406 "/>
</g>
<mask id="mask5">
  <g filter="url(#alpha)">
<rect x="0" y="0" width="48" height="63" style="fill:rgb(0%,0%,0%);fill-opacity:0.501961;stroke:none;"/>
  </g>
</mask>
<clipPath id="clip6">
  <rect x="0" y="0" width="48" height="63"/>
</clipPath>
<g id="surface20" clip-path="url(#clip6)">
<path style=" stroke:none;fill-rule:nonzero;fill:rgb(92.941176%,81.568627%,53.72549%);fill-opacity:1;" d="M 15.964844 26.128906 L 18.804688 24.324219 L 17.714844 22.664062 L 14.875 24.46875 Z M 15.964844 26.128906 "/>
</g>
</defs>
<g id="surface1">
<path style=" stroke:none;fill-rule:nonzero;fill:rgb(75.294118%,51.372549%,16.078431%);fill-opacity:1;" d="M 37.921875 60.015625 L 2.457031 10.480469 L 14.765625 2.65625 L 45.429688 55.242188 Z M 37.921875 60.015625 "/>
<path style=" stroke:none;fill-rule:nonzero;fill:rgb(66.666667%,44.313725%,14.901961%);fill-opacity:1;" d="M 44.167969 55.679688 L 12.863281 3.792969 L 14.765625 2.65625 L 45.429688 55.242188 Z M 44.167969 55.679688 "/>
<path style=" stroke:none;fill-rule:nonzero;fill:rgb(91.764706%,70.196078%,38.823529%);fill-opacity:1;" d="M 6.546875 7.796875 L 8.382812 6.632812 L 41.445312 57.695312 L 39.613281 58.859375 Z M 6.546875 7.796875 "/>
<path style=" stroke:none;fill-rule:nonzero;fill:rgb(75.294118%,51.372549%,16.078431%);fill-opacity:1;" d="M 24.339844 42.179688 L 3.976562 12.832031 L 16.289062 5.007812 L 34.730469 35.578125 Z M 24.339844 42.179688 "/>
<path style=" stroke:none;fill-rule:nonzero;fill:rgb(66.666667%,44.313725%,14.901961%);fill-opacity:1;" d="M 14.351562 6.238281 L 16.289062 5.007812 L 34.730469 35.578125 L 33.238281 36.816406 Z M 14.351562 6.238281 "/>
<use xlink:href="#surface5" mask="url(#mask0)"/>
<path style=" stroke:none;fill-rule:nonzero;fill:rgb(91.764706%,70.196078%,38.823529%);fill-opacity:1;" d="M 8.070312 10.148438 L 9.90625 8.984375 L 29.304688 38.945312 L 27.472656 40.109375 Z M 8.070312 10.148438 "/>
<use xlink:href="#surface8" mask="url(#mask1)"/>
<path style=" stroke:none;fill-rule:nonzero;fill:rgb(79.215686%,59.215686%,30.196078%);fill-opacity:1;" d="M 14.996094 0.0859375 L 17.789062 4.402344 L 2.792969 13.933594 L 0 9.617188 Z M 14.996094 0.0859375 "/>
<path style=" stroke:none;fill-rule:nonzero;fill:rgb(67.843137%,49.411765%,24.313725%);fill-opacity:1;" d="M 14.996094 0.0859375 L 17.789062 4.402344 L 15.703125 5.726562 L 12.90625 1.410156 Z M 14.996094 0.0859375 "/>
<path style=" stroke:none;fill-rule:nonzero;fill:rgb(79.215686%,59.215686%,30.196078%);fill-opacity:1;" d="M 38.148438 62.914062 C 37.710938 61.378906 35.835938 58.296875 35.835938 58.296875 L 44.722656 52.644531 C 44.722656 52.644531 46.769531 56.089844 47.996094 56.652344 Z M 38.148438 62.914062 "/>
<path style=" stroke:none;fill-rule:nonzero;fill:rgb(67.843137%,49.411765%,24.313725%);fill-opacity:1;" d="M 43.414062 53.480469 L 44.722656 52.648438 C 44.722656 52.648438 46.769531 56.089844 47.996094 56.65625 L 46.417969 57.660156 Z M 43.414062 53.480469 "/>
<path style=" stroke:none;fill-rule:nonzero;fill:rgb(79.215686%,59.215686%,30.196078%);fill-opacity:1;" d="M 25.292969 17.847656 L 26.371094 19.515625 L 13.085938 27.960938 L 12.003906 26.292969 Z M 25.292969 17.847656 "/>
<path style=" stroke:none;fill-rule:nonzero;fill:rgb(67.843137%,49.411765%,24.313725%);fill-opacity:1;" d="M 25.292969 17.847656 L 26.371094 19.515625 L 24.6875 20.585938 L 23.609375 18.917969 Z M 25.292969 17.847656 "/>
<path style=" stroke:none;fill-rule:nonzero;fill:rgb(79.215686%,59.215686%,30.196078%);fill-opacity:1;" d="M 34.574219 34.5 L 35.652344 36.167969 L 24.496094 43.257812 L 23.417969 41.589844 Z M 34.574219 34.5 "/>
<path style=" stroke:none;fill-rule:nonzero;fill:rgb(67.843137%,49.411765%,24.313725%);fill-opacity:1;" d="M 34.574219 34.5 L 35.652344 36.167969 L 34.304688 37.023438 L 33.226562 35.355469 Z M 34.574219 34.5 "/>
<use xlink:href="#surface11" mask="url(#mask2)"/>
<path style=" stroke:none;fill-rule:nonzero;fill:rgb(92.941176%,81.568627%,53.72549%);fill-opacity:1;" d="M 4.417969 6.808594 L 5.761719 5.953125 L 8.554688 10.269531 L 7.210938 11.125 Z M 4.417969 6.808594 "/>
<use xlink:href="#surface14" mask="url(#mask3)"/>
<path style=" stroke:none;fill-rule:nonzero;fill:rgb(92.941176%,81.568627%,53.72549%);fill-opacity:1;" d="M 40.292969 61.554688 L 41.640625 60.699219 L 38.820312 56.398438 L 37.472656 57.253906 Z M 40.292969 61.554688 "/>
<use xlink:href="#surface17" mask="url(#mask4)"/>
<path style=" stroke:none;fill-rule:nonzero;fill:rgb(92.941176%,81.568627%,53.72549%);fill-opacity:1;" d="M 27.179688 41.554688 L 28.523438 40.699219 L 27.433594 39.039062 L 26.089844 39.894531 Z M 27.179688 41.554688 "/>
<use xlink:href="#surface20" mask="url(#mask5)"/>
<path style=" stroke:none;fill-rule:nonzero;fill:rgb(92.941176%,81.568627%,53.72549%);fill-opacity:1;" d="M 16.742188 25.636719 L 18.085938 24.78125 L 16.996094 23.121094 L 15.652344 23.976562 Z M 16.742188 25.636719 "/>
</g>
</svg>
