<?xml version="1.0" encoding="UTF-8"?>
<svg xmlns="http://www.w3.org/2000/svg" xmlns:xlink="http://www.w3.org/1999/xlink" width="48px" height="px" viewBox="0 0 48 44" version="1.1">
<g id="surface1">
<path style=" stroke:none;fill-rule:nonzero;fill:rgb(50.196078%,50.980392%,52.156863%);fill-opacity:1;" d="M 6.371094 8.332031 C 3.953125 9.316406 1.800781 10.960938 0.203125 13.042969 C -0.0273438 13.347656 -0.0195312 13.765625 0.222656 14.058594 C 0.523438 14.417969 0.808594 14.796875 1.132812 15.117188 C 3.460938 13.898438 6.460938 11.859375 8.398438 10.070312 L 7.296875 8.59375 C 7.082031 8.304688 6.703125 8.199219 6.375 8.332031 Z M 6.371094 8.332031 "/>
<path style=" stroke:none;fill-rule:nonzero;fill:rgb(50.196078%,50.980392%,52.156863%);fill-opacity:1;" d="M 24.15625 1.085938 C 26.574219 0.0976562 29.257812 -0.226562 31.835938 0.15625 C 32.210938 0.210938 32.492188 0.519531 32.519531 0.898438 C 32.550781 1.367188 32.609375 1.839844 32.59375 2.300781 C 30.078125 3.054688 26.519531 3.683594 23.898438 3.757812 L 23.675781 1.921875 C 23.632812 1.566406 23.828125 1.21875 24.15625 1.085938 Z M 24.15625 1.085938 "/>
<path style=" stroke:none;fill-rule:nonzero;fill:rgb(65.490196%,66.27451%,67.45098%);fill-opacity:1;" d="M 32.636719 2.207031 C 30.523438 1.402344 28.097656 1.367188 25.136719 2.464844 C 22.25 3.535156 19.402344 4.710938 16.511719 5.761719 C 11.273438 7.675781 5.941406 9.609375 2.019531 13.652344 C -0.917969 16.679688 0.238281 21.785156 0.6875 25.53125 C 1.246094 30.238281 2.496094 34.863281 4.40625 39.195312 C 5.296875 41.207031 6.5625 43.355469 8.679688 43.886719 C 10.210938 44.269531 11.863281 43.664062 13.058594 42.625 C 14.253906 41.582031 15.054688 40.15625 15.703125 38.707031 C 16.945312 35.929688 17.714844 32.945312 17.976562 29.914062 C 18.074219 28.789062 18.109375 27.632812 18.539062 26.589844 C 19.277344 24.816406 20.984375 23.746094 22.738281 22.894531 C 24.585938 22.277344 26.550781 21.851562 28.300781 22.613281 C 29.328125 23.0625 30.148438 23.871094 30.992188 24.613281 C 33.265625 26.609375 35.875 28.21875 38.675781 29.347656 C 40.140625 29.9375 41.699219 30.402344 43.273438 30.3125 C 44.847656 30.222656 46.457031 29.5 47.296875 28.152344 C 48.457031 26.285156 47.890625 23.851562 47.144531 21.78125 C 45.640625 17.597656 43.539062 13.632812 40.941406 10.039062 C 38.378906 6.488281 35.875 3.445312 32.636719 2.207031 Z M 32.636719 2.207031 "/>
<path style=" stroke:none;fill-rule:nonzero;fill:rgb(34.509804%,34.901961%,35.686275%);fill-opacity:1;" d="M 36.777344 9.679688 C 36.777344 13.261719 33.902344 16.160156 30.355469 16.160156 C 26.808594 16.160156 23.933594 13.261719 23.933594 9.679688 C 23.933594 6.101562 26.808594 3.199219 30.355469 3.199219 C 33.902344 3.199219 36.777344 6.101562 36.777344 9.679688 Z M 36.777344 9.679688 "/>
<path style=" stroke:none;fill-rule:nonzero;fill:rgb(34.509804%,34.901961%,35.686275%);fill-opacity:1;" d="M 14.257812 18.859375 C 14.257812 22.4375 11.378906 25.339844 7.832031 25.339844 C 4.285156 25.339844 1.410156 22.4375 1.410156 18.859375 C 1.410156 15.277344 4.285156 12.375 7.832031 12.375 C 11.378906 12.375 14.257812 15.277344 14.257812 18.859375 Z M 14.257812 18.859375 "/>
<path style=" stroke:none;fill-rule:nonzero;fill:rgb(97.647059%,73.72549%,20.784314%);fill-opacity:1;" d="M 30.9375 6.4375 C 30.9375 7.421875 30.144531 8.21875 29.167969 8.21875 C 28.195312 8.21875 27.402344 7.421875 27.402344 6.4375 C 27.402344 5.453125 28.195312 4.652344 29.167969 4.652344 C 30.144531 4.652344 30.9375 5.453125 30.9375 6.4375 Z M 30.9375 6.4375 "/>
<path style=" stroke:none;fill-rule:nonzero;fill:rgb(0%,58.039216%,26.666667%);fill-opacity:1;" d="M 33.523438 12.898438 C 33.523438 13.882812 32.730469 14.679688 31.753906 14.679688 C 30.78125 14.679688 29.988281 13.882812 29.988281 12.898438 C 29.988281 11.914062 30.78125 11.117188 31.753906 11.117188 C 32.730469 11.117188 33.523438 11.914062 33.523438 12.898438 Z M 33.523438 12.898438 "/>
<path style=" stroke:none;fill-rule:nonzero;fill:rgb(19.607843%,55.686275%,80%);fill-opacity:1;" d="M 28.921875 10.925781 C 28.921875 11.910156 28.128906 12.710938 27.15625 12.710938 C 26.179688 12.710938 25.386719 11.910156 25.386719 10.925781 C 25.386719 9.941406 26.179688 9.144531 27.15625 9.144531 C 28.128906 9.144531 28.921875 9.941406 28.921875 10.925781 Z M 28.921875 10.925781 "/>
<path style=" stroke:none;fill-rule:nonzero;fill:rgb(92.941176%,10.980392%,14.117647%);fill-opacity:1;" d="M 35.476562 8.257812 C 35.476562 9.242188 34.683594 10.039062 33.707031 10.039062 C 32.734375 10.039062 31.941406 9.242188 31.941406 8.257812 C 31.941406 7.273438 32.734375 6.472656 33.707031 6.472656 C 34.683594 6.472656 35.476562 7.273438 35.476562 8.257812 Z M 35.476562 8.257812 "/>
<path style=" stroke:none;fill-rule:nonzero;fill:rgb(50.196078%,50.980392%,52.156863%);fill-opacity:1;" d="M 8.328125 16.679688 L 7.769531 17.976562 C 7.683594 18.171875 7.464844 18.261719 7.273438 18.179688 L 5.976562 17.636719 C 5.882812 17.597656 5.808594 17.519531 5.773438 17.425781 L 4.726562 14.816406 C 4.648438 14.617188 4.742188 14.394531 4.9375 14.316406 L 6.792969 13.5625 C 6.988281 13.480469 7.207031 13.578125 7.289062 13.773438 L 8.332031 16.382812 C 8.367188 16.480469 8.367188 16.585938 8.328125 16.679688 Z M 8.328125 16.679688 "/>
<path style=" stroke:none;fill-rule:nonzero;fill:rgb(50.196078%,50.980392%,52.156863%);fill-opacity:1;" d="M 7.339844 21.039062 L 7.894531 19.742188 C 7.980469 19.546875 8.199219 19.457031 8.394531 19.539062 L 9.6875 20.082031 C 9.78125 20.121094 9.855469 20.199219 9.894531 20.292969 L 10.9375 22.902344 C 11.015625 23.101562 10.921875 23.324219 10.726562 23.402344 L 8.875 24.15625 C 8.679688 24.238281 8.457031 24.140625 8.378906 23.945312 L 7.332031 21.335938 C 7.296875 21.238281 7.296875 21.132812 7.339844 21.039062 Z M 7.339844 21.039062 "/>
<path style=" stroke:none;fill-rule:nonzero;fill:rgb(50.196078%,50.980392%,52.156863%);fill-opacity:1;" d="M 9.988281 19.355469 L 8.703125 18.792969 C 8.515625 18.710938 8.421875 18.488281 8.503906 18.292969 L 9.042969 16.988281 C 9.082031 16.890625 9.15625 16.816406 9.25 16.777344 L 11.835938 15.726562 C 12.03125 15.644531 12.253906 15.742188 12.335938 15.9375 L 13.082031 17.808594 C 13.160156 18.003906 13.066406 18.226562 12.871094 18.308594 L 10.285156 19.363281 C 10.191406 19.398438 10.085938 19.398438 9.988281 19.355469 Z M 9.988281 19.355469 "/>
<path style=" stroke:none;fill-rule:nonzero;fill:rgb(50.196078%,50.980392%,52.156863%);fill-opacity:1;" d="M 5.675781 18.359375 L 6.960938 18.921875 C 7.152344 19.007812 7.242188 19.226562 7.160156 19.421875 L 6.621094 20.730469 C 6.582031 20.824219 6.507812 20.898438 6.414062 20.9375 L 3.828125 21.992188 C 3.632812 22.070312 3.410156 21.976562 3.332031 21.777344 L 2.585938 19.910156 C 2.503906 19.710938 2.597656 19.488281 2.796875 19.40625 L 5.378906 18.355469 C 5.476562 18.316406 5.582031 18.316406 5.675781 18.359375 Z M 5.675781 18.359375 "/>
<path style=" stroke:none;fill-rule:nonzero;fill:rgb(50.196078%,50.980392%,52.156863%);fill-opacity:1;" d="M 15.152344 14.058594 L 18.152344 12.835938 L 18.585938 13.914062 L 15.582031 15.136719 Z M 15.152344 14.058594 "/>
<path style=" stroke:none;fill-rule:nonzero;fill:rgb(50.196078%,50.980392%,52.156863%);fill-opacity:1;" d="M 19.117188 12.441406 L 22.121094 11.21875 L 22.550781 12.296875 L 19.550781 13.519531 Z M 19.117188 12.441406 "/>
<path style=" stroke:none;fill-rule:nonzero;fill:rgb(50.196078%,50.980392%,52.156863%);fill-opacity:1;" d="M 18.691406 22.695312 C 18.691406 24.496094 17.242188 25.953125 15.460938 25.953125 C 13.675781 25.953125 12.230469 24.496094 12.230469 22.695312 C 12.230469 20.894531 13.675781 19.433594 15.460938 19.433594 C 17.242188 19.433594 18.691406 20.894531 18.691406 22.695312 Z M 18.691406 22.695312 "/>
<path style=" stroke:none;fill-rule:nonzero;fill:rgb(50.196078%,50.980392%,52.156863%);fill-opacity:1;" d="M 31.0625 17.652344 C 31.0625 19.453125 29.613281 20.914062 27.832031 20.914062 C 26.046875 20.914062 24.601562 19.453125 24.601562 17.652344 C 24.601562 15.855469 26.046875 14.394531 27.832031 14.394531 C 29.613281 14.394531 31.0625 15.855469 31.0625 17.652344 Z M 31.0625 17.652344 "/>
</g>
</svg>
