<?xml version="1.0" encoding="UTF-8"?>
<svg xmlns="http://www.w3.org/2000/svg" xmlns:xlink="http://www.w3.org/1999/xlink" width="48px" height="px" viewBox="0 0 48 61" version="1.1">
<g id="surface1">
<path style=" stroke:none;fill-rule:nonzero;fill:rgb(90.196078%,90.588235%,90.980392%);fill-opacity:1;" d="M 47.953125 42.367188 L 17.589844 55.605469 L 0.480469 12.550781 L 30.164062 3.273438 Z M 47.953125 42.367188 "/>
<path style=" stroke:none;fill-rule:nonzero;fill:rgb(81.960784%,82.745098%,83.137255%);fill-opacity:1;" d="M 0.480469 12.550781 L 0.046875 15.890625 L 16.226562 61 L 47.003906 47.199219 L 47.953125 42.367188 L 17.589844 55.605469 Z M 0.480469 12.550781 "/>
<path style=" stroke:none;fill-rule:nonzero;fill:rgb(65.490196%,66.27451%,67.45098%);fill-opacity:1;" d="M 8.222656 34.394531 C 10.808594 40.914062 14.523438 50.375 17.09375 57.015625 C 17.09375 57.015625 16.941406 56.953125 16.941406 56.953125 C 20.269531 55.523438 26.976562 52.675781 30.308594 51.269531 C 33.640625 49.863281 40.375 47.054688 43.71875 45.675781 C 40.398438 47.132812 33.726562 50.035156 30.394531 51.464844 C 27.011719 52.917969 20.3125 55.773438 16.921875 57.207031 C 14.351562 50.480469 10.707031 41.046875 8.222656 34.394531 Z M 8.222656 34.394531 "/>
<path style=" stroke:none;fill-rule:nonzero;fill:rgb(65.490196%,66.27451%,67.45098%);fill-opacity:1;" d="M 9.574219 40.398438 C 12.03125 46.398438 14.46875 52.414062 16.867188 58.4375 C 16.867188 58.4375 16.714844 58.375 16.714844 58.375 L 24.054688 55.210938 C 30.59375 52.394531 39.5625 48.582031 46.132812 45.835938 C 39.621094 48.722656 30.695312 52.613281 24.152344 55.429688 C 24.152344 55.429688 16.808594 58.585938 16.808594 58.585938 L 16.695312 58.632812 C 16.695312 58.632812 16.652344 58.523438 16.652344 58.523438 C 14.261719 52.492188 11.90625 46.449219 9.574219 40.398438 Z M 9.574219 40.398438 "/>
<path style=" stroke:none;fill-rule:nonzero;fill:rgb(65.490196%,66.27451%,67.45098%);fill-opacity:1;" d="M 11.207031 46.535156 C 13.046875 50.976562 14.859375 55.429688 16.640625 59.898438 C 16.640625 59.898438 16.488281 59.835938 16.488281 59.835938 L 23.542969 56.71875 C 29.832031 53.949219 38.457031 50.199219 44.777344 47.496094 C 38.515625 50.335938 29.933594 54.167969 23.644531 56.941406 C 23.644531 56.941406 16.582031 60.046875 16.582031 60.046875 L 16.46875 60.097656 C 16.46875 60.097656 16.425781 59.984375 16.425781 59.984375 C 14.652344 55.511719 12.917969 51.03125 11.207031 46.535156 Z M 11.207031 46.535156 "/>
<path style="fill:none;stroke-width:2;stroke-linecap:round;stroke-linejoin:miter;stroke:rgb(34.509804%,34.901961%,35.686275%);stroke-opacity:1;stroke-miterlimit:10;" d="M 26.74776 68.731875 L 111.612794 40.797814 " transform="matrix(0.252239,0,0,0.249611,0.0461473,0)"/>
<path style="fill:none;stroke-width:2;stroke-linecap:round;stroke-linejoin:miter;stroke:rgb(34.509804%,34.901961%,35.686275%);stroke-opacity:1;stroke-miterlimit:10;" d="M 33.778549 86.9477 L 119.851516 57.5739 " transform="matrix(0.252239,0,0,0.249611,0.0461473,0)"/>
<path style="fill:none;stroke-width:2;stroke-linecap:round;stroke-linejoin:miter;stroke:rgb(34.509804%,34.901961%,35.686275%);stroke-opacity:1;stroke-miterlimit:10;" d="M 40.809339 105.163525 L 128.090239 74.365635 " transform="matrix(0.252239,0,0,0.249611,0.0461473,0)"/>
<path style="fill:none;stroke-width:2;stroke-linecap:round;stroke-linejoin:miter;stroke:rgb(34.509804%,34.901961%,35.686275%);stroke-opacity:1;stroke-miterlimit:10;" d="M 47.824642 123.379349 L 136.328961 91.141721 " transform="matrix(0.252239,0,0,0.249611,0.0461473,0)"/>
<path style="fill:none;stroke-width:2;stroke-linecap:round;stroke-linejoin:miter;stroke:rgb(34.509804%,34.901961%,35.686275%);stroke-opacity:1;stroke-miterlimit:10;" d="M 54.855431 141.595174 L 144.58317 107.917807 " transform="matrix(0.252239,0,0,0.249611,0.0461473,0)"/>
<path style="fill:none;stroke-width:2;stroke-linecap:round;stroke-linejoin:miter;stroke:rgb(34.509804%,34.901961%,35.686275%);stroke-opacity:1;stroke-miterlimit:10;" d="M 61.88622 159.826648 L 152.821892 124.693893 " transform="matrix(0.252239,0,0,0.249611,0.0461473,0)"/>
<path style="fill:none;stroke-width:2;stroke-linecap:round;stroke-linejoin:miter;stroke:rgb(34.509804%,34.901961%,35.686275%);stroke-opacity:1;stroke-miterlimit:10;" d="M 68.91701 178.042473 L 161.060614 141.485629 " transform="matrix(0.252239,0,0,0.249611,0.0461473,0)"/>
<path style="fill:none;stroke-width:2;stroke-linecap:round;stroke-linejoin:miter;stroke:rgb(34.509804%,34.901961%,35.686275%);stroke-opacity:1;stroke-miterlimit:10;" d="M 75.932313 196.242649 L 169.299337 158.261715 " transform="matrix(0.252239,0,0,0.249611,0.0461473,0)"/>
<path style="fill:none;stroke-width:4;stroke-linecap:butt;stroke-linejoin:miter;stroke:rgb(74.509804%,11.764706%,17.647059%);stroke-opacity:1;stroke-miterlimit:10;" d="M 5.717337 48.982415 C 4.896562 46.384626 1.814784 40.281386 4.710726 35.915222 C 8.27258 30.563149 16.01574 30.406656 20.444828 41.674176 C 22.519994 46.948002 22.086378 52.706957 15.922822 55.273448 " transform="matrix(0.252239,0,0,0.249611,0.0461473,0)"/>
<path style="fill:none;stroke-width:4;stroke-linecap:butt;stroke-linejoin:miter;stroke:rgb(74.509804%,11.764706%,17.647059%);stroke-opacity:1;stroke-miterlimit:10;" d="M 29.643702 41.705475 C 28.822927 39.107686 25.741149 33.004445 28.637091 28.638281 C 32.214431 23.286209 39.942105 23.114066 44.386678 34.397236 C 46.446359 39.671062 46.012742 45.430017 39.864673 47.996507 " transform="matrix(0.252239,0,0,0.249611,0.0461473,0)"/>
<path style="fill:none;stroke-width:4;stroke-linecap:butt;stroke-linejoin:miter;stroke:rgb(74.509804%,11.764706%,17.647059%);stroke-opacity:1;stroke-miterlimit:10;" d="M 53.740416 33.927756 C 52.904155 31.329967 49.822377 25.226726 52.733805 20.876212 C 56.295659 15.50849 64.023332 15.351997 68.467906 26.635166 C 70.543073 31.893343 70.109456 37.652298 63.945901 40.218788 " transform="matrix(0.252239,0,0,0.249611,0.0461473,0)"/>
<path style="fill:none;stroke-width:4;stroke-linecap:butt;stroke-linejoin:miter;stroke:rgb(74.509804%,11.764706%,17.647059%);stroke-opacity:1;stroke-miterlimit:10;" d="M 77.899075 26.196985 C 77.062814 23.599196 73.996523 17.495955 76.892464 13.145441 C 80.454318 7.777719 88.197478 7.621226 92.626566 18.904395 C 94.701733 24.162572 94.268116 29.937176 88.10456 32.488017 " transform="matrix(0.252239,0,0,0.249611,0.0461473,0)"/>
<path style="fill:none;stroke-width:4;stroke-linecap:butt;stroke-linejoin:miter;stroke:rgb(74.509804%,11.764706%,17.647059%);stroke-opacity:1;stroke-miterlimit:10;" d="M 101.918358 18.607058 C 101.097583 15.993619 98.015805 9.906028 100.911747 5.539864 C 104.473601 0.187792 112.216761 0.0156493 116.645848 11.298819 C 118.721015 16.572645 118.287398 22.3316 112.123843 24.882441 " transform="matrix(0.252239,0,0,0.249611,0.0461473,0)"/>
<path style=" stroke:none;fill-rule:nonzero;fill:rgb(74.509804%,11.764706%,17.647059%);fill-opacity:1;" d="M 0.78125 17.945312 L 5.597656 57.101562 C 5.691406 57.851562 6.441406 58.339844 7.171875 58.128906 L 14.441406 56.019531 Z M 0.78125 17.945312 "/>
</g>
</svg>
