<?xml version="1.0" encoding="UTF-8"?>
<svg xmlns="http://www.w3.org/2000/svg" xmlns:xlink="http://www.w3.org/1999/xlink" width="48px" height="px" viewBox="0 0 48 75" version="1.1">
<defs>
<filter id="alpha" filterUnits="objectBoundingBox" x="0%" y="0%" width="100%" height="100%">
  <feColorMatrix type="matrix" in="SourceGraphic" values="0 0 0 0 1 0 0 0 0 1 0 0 0 0 1 0 0 0 1 0"/>
</filter>
<mask id="mask0">
  <g filter="url(#alpha)">
<rect x="0" y="0" width="48" height="75" style="fill:rgb(0%,0%,0%);fill-opacity:0.180392;stroke:none;"/>
  </g>
</mask>
<clipPath id="clip1">
  <rect x="0" y="0" width="48" height="75"/>
</clipPath>
<g id="surface5" clip-path="url(#clip1)">
<path style=" stroke:none;fill-rule:nonzero;fill:rgb(0%,0%,0%);fill-opacity:1;" d="M 33.171875 64.285156 L 39.824219 60.601562 L 40.964844 62.628906 L 34.3125 66.316406 Z M 33.171875 64.285156 "/>
</g>
</defs>
<g id="surface1">
<path style=" stroke:none;fill-rule:nonzero;fill:rgb(61.960784%,63.137255%,70.980392%);fill-opacity:1;" d="M 6.546875 13 L 9.8125 11.1875 C 10.746094 10.667969 11.929688 11.003906 12.453125 11.933594 L 16.371094 18.894531 L 9.714844 22.585938 L 5.792969 15.617188 C 5.273438 14.6875 5.605469 13.515625 6.542969 12.996094 Z M 6.546875 13 "/>
<path style=" stroke:none;fill-rule:nonzero;fill:rgb(91.372549%,92.156863%,97.647059%);fill-opacity:1;" d="M 41.550781 54.707031 L 27.214844 62.652344 L 5.945312 24.847656 C 9.046875 19.945312 14.449219 16.953125 20.28125 16.902344 C 20.28125 16.902344 41.550781 54.710938 41.550781 54.710938 Z M 41.550781 54.707031 "/>
<path style=" stroke:none;fill-rule:nonzero;fill:rgb(70.588235%,71.372549%,78.431373%);fill-opacity:1;" d="M 39.960938 55.585938 L 28.804688 61.769531 L 8.253906 25.238281 C 10.667969 21.425781 14.871094 19.097656 19.410156 19.054688 C 19.410156 19.054688 39.960938 55.582031 39.960938 55.582031 Z M 39.960938 55.585938 "/>
<path style=" stroke:none;fill-rule:nonzero;fill:rgb(74.509804%,11.764706%,17.647059%);fill-opacity:1;" d="M 29.621094 37.199219 L 18.464844 43.386719 L 8.253906 25.238281 C 10.667969 21.425781 14.871094 19.097656 19.410156 19.054688 C 19.410156 19.054688 29.617188 37.195312 29.617188 37.195312 Z M 29.621094 37.199219 "/>
<path style=" stroke:none;fill-rule:nonzero;fill:rgb(61.960784%,63.137255%,70.980392%);fill-opacity:1;" d="M 25.828125 63.417969 L 42.933594 53.9375 C 43.289062 53.738281 43.746094 53.867188 43.945312 54.222656 L 45.335938 56.695312 C 45.535156 57.050781 45.40625 57.5 45.046875 57.699219 L 27.945312 67.179688 C 27.585938 67.378906 27.132812 67.25 26.929688 66.894531 L 25.542969 64.425781 C 25.339844 64.070312 25.46875 63.617188 25.828125 63.417969 Z M 25.828125 63.417969 "/>
<path style=" stroke:none;fill-rule:nonzero;fill:rgb(61.960784%,63.137255%,70.980392%);fill-opacity:1;" d="M 34.699219 71.128906 L 44.890625 65.480469 C 45.894531 64.925781 47.164062 65.28125 47.726562 66.277344 L 47.726562 66.28125 C 48.289062 67.277344 47.929688 68.539062 46.925781 69.09375 L 36.734375 74.746094 C 35.730469 75.300781 34.460938 74.945312 33.898438 73.949219 L 33.898438 73.945312 C 33.335938 72.945312 33.695312 71.6875 34.699219 71.128906 Z M 34.699219 71.128906 "/>
<path style=" stroke:none;fill-rule:nonzero;fill:rgb(61.960784%,63.137255%,70.980392%);fill-opacity:1;" d="M 33.171875 64.285156 L 39.824219 60.597656 L 43.121094 66.457031 L 36.46875 70.144531 Z M 33.171875 64.285156 "/>
<use xlink:href="#surface5" mask="url(#mask0)"/>
<path style=" stroke:none;fill-rule:nonzero;fill:rgb(61.960784%,63.137255%,70.980392%);fill-opacity:1;" d="M 9.761719 12.484375 L 7.675781 13.636719 L 0.00390625 0 L 4.277344 2.738281 Z M 9.761719 12.484375 "/>
<path style="fill:none;stroke-width:2.44;stroke-linecap:butt;stroke-linejoin:miter;stroke:rgb(91.372549%,92.156863%,97.647059%);stroke-opacity:1;stroke-miterlimit:10;" d="M 37.851952 56.737875 L 48.886928 50.575733 " transform="matrix(0.443193,0,0,0.439934,0.00552688,0)"/>
<path style="fill:none;stroke-width:2.44;stroke-linecap:butt;stroke-linejoin:miter;stroke:rgb(91.372549%,92.156863%,97.647059%);stroke-opacity:1;stroke-miterlimit:10;" d="M 45.387818 70.243087 L 56.431608 64.072067 " transform="matrix(0.443193,0,0,0.439934,0.00552688,0)"/>
<path style="fill:none;stroke-width:2.44;stroke-linecap:butt;stroke-linejoin:miter;stroke:rgb(91.372549%,92.156863%,97.647059%);stroke-opacity:1;stroke-miterlimit:10;" d="M 52.932499 83.739421 L 63.967475 77.5684 " transform="matrix(0.443193,0,0,0.439934,0.00552688,0)"/>
<path style="fill:none;stroke-width:2.44;stroke-linecap:butt;stroke-linejoin:miter;stroke:rgb(91.372549%,92.156863%,97.647059%);stroke-opacity:1;stroke-miterlimit:10;" d="M 60.459551 97.226875 L 71.503341 91.073612 " transform="matrix(0.443193,0,0,0.439934,0.00552688,0)"/>
<path style="fill:none;stroke-width:2.44;stroke-linecap:butt;stroke-linejoin:miter;stroke:rgb(91.372549%,92.156863%,97.647059%);stroke-opacity:1;stroke-miterlimit:10;" d="M 68.004231 110.732087 L 79.039207 104.561067 " transform="matrix(0.443193,0,0,0.439934,0.00552688,0)"/>
<path style="fill:none;stroke-width:2.44;stroke-linecap:butt;stroke-linejoin:miter;stroke:rgb(91.372549%,92.156863%,97.647059%);stroke-opacity:1;stroke-miterlimit:10;" d="M 75.540097 124.219542 L 86.583887 118.0574 " transform="matrix(0.443193,0,0,0.439934,0.00552688,0)"/>
</g>
</svg>
