<?xml version="1.0" encoding="UTF-8"?>
<svg xmlns="http://www.w3.org/2000/svg" xmlns:xlink="http://www.w3.org/1999/xlink" width="48px" height="px" viewBox="0 0 48 30" version="1.1">
<g id="surface1">
<path style=" stroke:none;fill-rule:nonzero;fill:rgb(70.588235%,71.372549%,78.431373%);fill-opacity:1;" d="M 35.671875 18.785156 C 31.125 19.175781 25.210938 18.9375 21.363281 21.449219 C 20.585938 21.984375 20.070312 22.59375 19.648438 23.347656 C 19.058594 24.316406 18.378906 25.226562 17.589844 26.046875 C 14.316406 29.597656 8.9375 31.363281 4.570312 28.746094 C 2.132812 27.332031 0.304688 24.765625 0.0429688 21.894531 C -0.390625 17.609375 2.546875 13.140625 6.679688 12.445312 C 6.679688 12.445312 6.703125 12.507812 6.703125 12.507812 C 5.796875 13.144531 5.046875 13.902344 4.464844 14.75 C 3.097656 16.71875 2.605469 19.234375 3.308594 21.507812 C 3.921875 23.425781 5.761719 24.945312 7.625 25.324219 C 9.140625 25.660156 10.710938 25.171875 12.023438 24.304688 C 13.277344 23.460938 14.316406 22.285156 15.105469 20.980469 C 15.195312 20.824219 15.378906 20.503906 15.46875 20.34375 C 16.199219 19.03125 17.265625 17.949219 18.390625 17.136719 C 21.539062 14.929688 25.28125 14.324219 28.949219 14.109375 C 31.140625 13.992188 33.417969 14.09375 35.546875 14.195312 C 35.546875 14.195312 35.667969 18.789062 35.667969 18.789062 Z M 35.671875 18.785156 "/>
<path style=" stroke:none;fill-rule:nonzero;fill:rgb(0%,0%,0%);fill-opacity:1;" d="M 48 28.691406 C 46.359375 28.78125 42.957031 29.242188 38.96875 29.027344 C 35.300781 28.832031 31.667969 27.554688 29.03125 24.929688 C 25.535156 21.449219 24.121094 16.269531 25.175781 11.449219 C 25.960938 7.863281 28.378906 5.03125 31.566406 3.421875 C 34.753906 1.8125 42.453125 0 42.453125 0 C 43.933594 5.160156 46.824219 24.28125 48 28.691406 Z M 48 28.691406 "/>
</g>
</svg>
