<?xml version="1.0" encoding="UTF-8"?>
<svg xmlns="http://www.w3.org/2000/svg" xmlns:xlink="http://www.w3.org/1999/xlink" width="48px" height="px" viewBox="0 0 48 84" version="1.1">
<defs>
<filter id="alpha" filterUnits="objectBoundingBox" x="0%" y="0%" width="100%" height="100%">
  <feColorMatrix type="matrix" in="SourceGraphic" values="0 0 0 0 1 0 0 0 0 1 0 0 0 0 1 0 0 0 1 0"/>
</filter>
<mask id="mask0">
  <g filter="url(#alpha)">
<rect x="0" y="0" width="48" height="84" style="fill:rgb(0%,0%,0%);fill-opacity:0.121569;stroke:none;"/>
  </g>
</mask>
<clipPath id="clip1">
  <rect x="0" y="0" width="48" height="84"/>
</clipPath>
<g id="surface5" clip-path="url(#clip1)">
<path style=" stroke:none;fill-rule:nonzero;fill:rgb(0%,0%,0%);fill-opacity:1;" d="M 47.667969 39.871094 C 45.5625 16.761719 33.808594 -1.066406 21.40625 0.046875 C 9.007812 1.164062 0.660156 20.800781 2.761719 43.910156 C 4.867188 67.015625 16.621094 84.84375 29.023438 83.730469 C 41.421875 82.613281 49.769531 62.976562 47.667969 39.871094 Z M 47.667969 39.871094 "/>
</g>
<mask id="mask1">
  <g filter="url(#alpha)">
<rect x="0" y="0" width="48" height="84" style="fill:rgb(0%,0%,0%);fill-opacity:0.180392;stroke:none;"/>
  </g>
</mask>
<clipPath id="clip2">
  <rect x="0" y="0" width="48" height="84"/>
</clipPath>
<g id="surface8" clip-path="url(#clip2)">
<path style=" stroke:none;fill-rule:nonzero;fill:rgb(0%,0%,0%);fill-opacity:1;" d="M 37.753906 14.046875 C 37.527344 13.636719 37.292969 13.230469 37.058594 12.832031 C 35.523438 12.65625 33.996094 12.523438 32.464844 12.425781 C 26.527344 12.050781 20.621094 12.230469 14.746094 12.660156 C 11.804688 12.878906 8.867188 13.15625 5.933594 13.464844 C 5.410156 13.519531 4.882812 13.578125 4.359375 13.632812 C 4.234375 13.921875 4.109375 14.214844 3.988281 14.511719 C 4.035156 14.507812 4.078125 14.503906 4.125 14.5 C 6.316406 14.351562 8.507812 14.183594 10.695312 13.996094 C 15.652344 13.574219 20.59375 12.761719 25.574219 12.882812 C 29.621094 12.980469 33.710938 13.945312 37.753906 14.042969 Z M 37.753906 14.046875 "/>
</g>
<mask id="mask2">
  <g filter="url(#alpha)">
<rect x="0" y="0" width="48" height="84" style="fill:rgb(0%,0%,0%);fill-opacity:0.180392;stroke:none;"/>
  </g>
</mask>
<clipPath id="clip3">
  <rect x="0" y="0" width="48" height="84"/>
</clipPath>
<g id="surface11" clip-path="url(#clip3)">
<path style=" stroke:none;fill-rule:nonzero;fill:rgb(0%,0%,0%);fill-opacity:1;" d="M 42.351562 25.09375 C 33.53125 26.46875 24.691406 27.71875 15.746094 27.503906 C 12.671875 27.433594 9.589844 27.1875 6.527344 27.21875 C 4.960938 27.234375 3.398438 27.316406 1.847656 27.535156 C 1.550781 27.578125 1.109375 27.578125 0.632812 27.605469 C 0.570312 28.078125 0.511719 28.550781 0.457031 29.035156 C 3.113281 29.226562 5.835938 28.859375 8.425781 28.832031 C 14.542969 28.765625 20.644531 28.480469 26.714844 27.839844 C 31.976562 27.28125 37.214844 26.457031 42.40625 25.285156 C 42.386719 25.222656 42.367188 25.160156 42.351562 25.097656 Z M 42.351562 25.09375 "/>
</g>
<mask id="mask3">
  <g filter="url(#alpha)">
<rect x="0" y="0" width="48" height="84" style="fill:rgb(0%,0%,0%);fill-opacity:0.180392;stroke:none;"/>
  </g>
</mask>
<clipPath id="clip4">
  <rect x="0" y="0" width="48" height="84"/>
</clipPath>
<g id="surface14" clip-path="url(#clip4)">
<path style=" stroke:none;fill-rule:nonzero;fill:rgb(0%,0%,0%);fill-opacity:1;" d="M 45.183594 39.53125 C 45.167969 39.355469 45.152344 39.175781 45.132812 38.996094 C 42.925781 39.871094 40.652344 40.339844 38.34375 40.402344 C 35.53125 40.472656 32.683594 39.59375 29.886719 39.832031 C 27.914062 40.003906 26.03125 40.863281 24.054688 41.082031 C 21.9375 41.320312 19.8125 41.414062 17.683594 41.460938 C 15.347656 41.515625 13.003906 41.507812 10.667969 41.570312 C 8.800781 41.617188 6.941406 41.707031 5.089844 41.898438 C 3.953125 42.015625 2.824219 42.265625 1.730469 42.71875 C 1.234375 42.925781 0.773438 43.363281 0.308594 43.765625 C 0.316406 43.882812 0.328125 44.007812 0.339844 44.125 C 0.34375 44.160156 0.34375 44.191406 0.347656 44.222656 C 5.113281 43.082031 9.929688 42.347656 14.785156 42.042969 C 17.378906 41.878906 19.984375 41.835938 22.59375 41.914062 C 23.761719 41.945312 24.996094 42.210938 26.117188 41.859375 C 27.234375 41.507812 28.367188 41.273438 29.523438 41.183594 C 34.671875 40.789062 40.355469 42.457031 45.183594 39.53125 Z M 45.183594 39.53125 "/>
</g>
<mask id="mask4">
  <g filter="url(#alpha)">
<rect x="0" y="0" width="48" height="84" style="fill:rgb(0%,0%,0%);fill-opacity:0.180392;stroke:none;"/>
  </g>
</mask>
<clipPath id="clip5">
  <rect x="0" y="0" width="48" height="84"/>
</clipPath>
<g id="surface17" clip-path="url(#clip5)">
<path style=" stroke:none;fill-rule:nonzero;fill:rgb(0%,0%,0%);fill-opacity:1;" d="M 37.4375 55.378906 C 31.859375 55.578125 26.421875 56.882812 20.8125 56.890625 C 18.9375 56.890625 17.054688 56.699219 15.175781 56.644531 C 13.597656 56.597656 11.964844 57.082031 10.378906 57.226562 C 8.886719 57.359375 7.394531 57.496094 5.902344 57.636719 C 5.445312 57.675781 3.800781 57.488281 2.847656 57.839844 C 2.953125 58.210938 3.058594 58.578125 3.167969 58.941406 C 4.421875 59.097656 5.875 58.664062 6.988281 58.632812 C 8.671875 58.582031 10.351562 58.523438 12.03125 58.453125 C 16.515625 58.265625 20.996094 58.394531 25.457031 57.617188 C 29.144531 56.976562 32.835938 56.226562 36.589844 56.273438 C 39.441406 56.308594 42.253906 55.945312 45.078125 55.535156 C 45.082031 55.488281 45.085938 55.441406 45.09375 55.390625 C 42.550781 55.492188 39.957031 55.285156 37.433594 55.378906 Z M 37.4375 55.378906 "/>
</g>
<mask id="mask5">
  <g filter="url(#alpha)">
<rect x="0" y="0" width="48" height="84" style="fill:rgb(0%,0%,0%);fill-opacity:0.180392;stroke:none;"/>
  </g>
</mask>
<clipPath id="clip6">
  <rect x="0" y="0" width="48" height="84"/>
</clipPath>
<g id="surface20" clip-path="url(#clip6)">
<path style=" stroke:none;fill-rule:nonzero;fill:rgb(0%,0%,0%);fill-opacity:1;" d="M 42.25 67.980469 C 39.410156 69.171875 36.542969 70.175781 33.59375 70.578125 C 32.519531 70.726562 31.402344 70.488281 30.359375 70.738281 C 29.238281 71.011719 28.136719 71.296875 26.992188 71.394531 C 24.65625 71.59375 22.289062 71.347656 19.929688 71.101562 C 17.574219 70.859375 15.210938 70.601562 12.882812 70.789062 C 11.460938 70.90625 10.140625 71.375 8.828125 71.90625 C 8.894531 72.007812 8.953125 72.109375 9.015625 72.210938 C 12.238281 71.769531 15.585938 72.570312 18.863281 72.640625 C 21.359375 72.695312 23.851562 72.625 26.332031 72.433594 C 27.574219 72.339844 28.8125 72.214844 30.046875 72.054688 C 31.109375 71.921875 32.289062 72.25 33.324219 71.976562 C 36.1875 71.222656 39.082031 70.453125 41.832031 69.085938 C 41.976562 68.722656 42.113281 68.355469 42.25 67.984375 Z M 42.25 67.980469 "/>
</g>
<mask id="mask6">
  <g filter="url(#alpha)">
<rect x="0" y="0" width="48" height="84" style="fill:rgb(0%,0%,0%);fill-opacity:0.121569;stroke:none;"/>
  </g>
</mask>
<clipPath id="clip7">
  <rect x="0" y="0" width="48" height="84"/>
</clipPath>
<g id="surface23" clip-path="url(#clip7)">
<path style=" stroke:none;fill-rule:nonzero;fill:rgb(0%,0%,0%);fill-opacity:1;" d="M 24.867188 41.921875 C 24.703125 40.128906 24.289062 38.332031 23.539062 36.6875 C 23.226562 35.996094 22.851562 35.328125 22.394531 34.722656 C 22.21875 34.488281 22.027344 34.210938 21.8125 34.007812 C 21.636719 33.835938 21.257812 33.523438 20.957031 33.390625 C 22.738281 35.671875 22.878906 39.5625 22.402344 42.574219 C 22.09375 44.527344 20.9375 47.324219 19.324219 48.480469 C 17.625 49.703125 14.886719 48.757812 13.261719 47.441406 C 14.785156 50.289062 17.035156 51.886719 20.027344 52.136719 C 20.191406 52.152344 20.355469 52.152344 20.523438 52.136719 C 20.558594 52.132812 20.589844 52.128906 20.625 52.125 C 20.675781 52.121094 20.726562 52.121094 20.777344 52.113281 L 20.777344 52.101562 C 23.523438 51.609375 25.34375 47.148438 24.867188 41.921875 Z M 24.867188 41.921875 "/>
</g>
</defs>
<g id="surface1">
<path style=" stroke:none;fill-rule:nonzero;fill:rgb(65.882353%,65.882353%,65.882353%);fill-opacity:1;" d="M 47.667969 39.871094 C 45.5625 16.761719 33.808594 -1.066406 21.40625 0.046875 C 9.007812 1.164062 0.660156 20.800781 2.761719 43.910156 C 4.867188 67.015625 16.621094 84.84375 29.023438 83.730469 C 41.421875 82.613281 49.769531 62.976562 47.667969 39.871094 Z M 47.667969 39.871094 "/>
<use xlink:href="#surface5" mask="url(#mask0)"/>
<path style=" stroke:none;fill-rule:nonzero;fill:rgb(33.72549%,21.568627%,9.019608%);fill-opacity:1;" d="M 45.242188 40.085938 C 43.140625 16.980469 31.382812 -0.847656 18.984375 0.265625 C 6.582031 1.382812 -1.765625 21.019531 0.339844 44.128906 C 2.441406 67.234375 14.199219 85.0625 26.597656 83.949219 C 38.996094 82.832031 47.34375 63.195312 45.242188 40.085938 Z M 45.242188 40.085938 "/>
<use xlink:href="#surface8" mask="url(#mask1)"/>
<use xlink:href="#surface11" mask="url(#mask2)"/>
<use xlink:href="#surface14" mask="url(#mask3)"/>
<use xlink:href="#surface17" mask="url(#mask4)"/>
<use xlink:href="#surface20" mask="url(#mask5)"/>
<path style=" stroke:none;fill-rule:nonzero;fill:rgb(65.882353%,65.882353%,65.882353%);fill-opacity:1;" d="M 18.984375 0.265625 C 6.585938 1.382812 -1.765625 21.019531 0.339844 44.125 C 2.4375 67.234375 14.191406 85.066406 26.59375 83.949219 C 38.992188 82.835938 47.339844 63.199219 45.238281 40.089844 C 43.140625 16.984375 31.382812 -0.847656 18.984375 0.265625 Z M 26.597656 79.804688 C 26.523438 79.683594 26.441406 79.535156 26.335938 79.359375 C 25.503906 77.980469 24.6875 76.589844 23.859375 75.203125 C 23.355469 76.453125 22.925781 77.726562 22.558594 79.023438 C 22.402344 79.578125 22.445312 80.042969 21.875 80.164062 C 21.453125 80.257812 20.515625 79.683594 20.125 79.511719 C 18.324219 78.730469 16.703125 77.570312 15.265625 76.246094 C 10.75 72.082031 7.730469 66.5625 5.714844 60.832031 C 4.6875 57.90625 3.910156 54.894531 3.324219 51.851562 C 3.042969 50.390625 2.800781 48.921875 2.609375 47.449219 C 2.496094 46.582031 2.53125 46.253906 2.878906 45.453125 C 2.976562 45.226562 4.03125 43.238281 3.933594 43.148438 C 3.421875 42.660156 2.3125 41.726562 2.03125 41.082031 C 1.792969 40.539062 1.941406 39.851562 1.925781 39.261719 C 1.875 37.828125 1.867188 36.390625 1.898438 34.957031 C 1.96875 31.980469 2.222656 29 2.726562 26.0625 C 3.710938 20.316406 5.667969 14.625 9.195312 9.914062 C 10.4375 8.257812 11.910156 6.746094 13.664062 5.628906 C 14.234375 5.265625 14.835938 4.941406 15.457031 4.675781 C 16.082031 4.40625 16.613281 4 16.867188 4.65625 C 17.359375 5.9375 18.265625 7.414062 18.605469 8.289062 C 19.015625 6.992188 19.488281 5.714844 20.011719 4.460938 C 20.246094 3.890625 20.332031 3.664062 20.949219 3.730469 C 21.464844 3.789062 21.976562 3.929688 22.472656 4.074219 C 23.234375 4.296875 23.996094 4.558594 24.71875 4.886719 C 26.632812 5.753906 28.335938 7.046875 29.835938 8.507812 C 33.628906 12.207031 36.25 17.027344 38.171875 21.90625 C 39.511719 25.308594 40.527344 28.835938 41.253906 32.414062 C 41.558594 33.902344 42.398438 36.3125 42.136719 37.816406 C 41.992188 38.625 39.738281 40.042969 38.695312 40.792969 C 39.113281 41.007812 42.371094 42.800781 42.605469 43.386719 C 43.261719 45.035156 42.738281 48.011719 42.667969 49.769531 C 42.496094 54.109375 41.90625 58.441406 40.78125 62.640625 C 39.507812 67.398438 37.523438 72.234375 34.164062 75.925781 C 32.835938 77.386719 31.269531 78.664062 29.464844 79.496094 C 28.925781 79.746094 28.101562 80.261719 27.496094 80.273438 C 26.960938 80.28125 26.800781 80.140625 26.59375 79.804688 Z M 26.597656 79.804688 "/>
<path style=" stroke:none;fill-rule:nonzero;fill:rgb(65.882353%,65.882353%,65.882353%);fill-opacity:1;" d="M 26.261719 41.792969 C 25.710938 35.726562 22.625 31.046875 19.371094 31.339844 C 16.113281 31.632812 13.925781 36.789062 14.476562 42.855469 C 15.027344 48.917969 18.113281 53.597656 21.367188 53.304688 C 24.621094 53.011719 26.8125 47.859375 26.261719 41.792969 Z M 26.261719 41.792969 "/>
<path style=" stroke:none;fill-rule:nonzero;fill:rgb(65.882353%,65.882353%,65.882353%);fill-opacity:1;" d="M 24.867188 41.921875 C 24.394531 36.699219 21.796875 32.632812 19.003906 32.636719 L 19.003906 32.625 C 18.953125 32.628906 18.902344 32.636719 18.851562 32.644531 C 18.820312 32.644531 18.785156 32.644531 18.753906 32.648438 C 18.585938 32.660156 18.425781 32.691406 18.261719 32.734375 C 14.292969 33.558594 11.53125 38.003906 11.992188 43.078125 C 12.453125 48.148438 15.972656 52.03125 20.027344 52.136719 C 20.191406 52.148438 20.355469 52.152344 20.523438 52.136719 C 20.558594 52.132812 20.589844 52.125 20.625 52.121094 C 20.675781 52.117188 20.726562 52.117188 20.777344 52.113281 L 20.777344 52.101562 C 23.523438 51.605469 25.34375 47.144531 24.867188 41.921875 Z M 24.867188 41.921875 "/>
<use xlink:href="#surface23" mask="url(#mask6)"/>
</g>
</svg>
