<?xml version="1.0" encoding="UTF-8"?>
<svg xmlns="http://www.w3.org/2000/svg" xmlns:xlink="http://www.w3.org/1999/xlink" width="48px" height="px" viewBox="0 0 48 71" version="1.1">
<g id="surface1">
<path style=" stroke:none;fill-rule:nonzero;fill:rgb(70.588235%,71.372549%,78.431373%);fill-opacity:1;" d="M 43.753906 64.648438 C 41.902344 68.222656 40.226562 68.664062 37.570312 69.367188 C 31.929688 70.859375 26.28125 70.964844 20.484375 70.992188 C 12.222656 71.03125 5.347656 68.773438 3.671875 67.484375 C 1.996094 66.195312 0.265625 63.964844 0 62.703125 C 3.292969 61.023438 17.992188 60.195312 22.160156 60.195312 C 29.53125 60.195312 36.625 59.597656 43.476562 62.191406 C 43.757812 62.296875 44.332031 62.425781 44.316406 62.699219 C 44.285156 63.289062 44.027344 64.121094 43.753906 64.644531 Z M 43.753906 64.648438 "/>
<path style=" stroke:none;fill-rule:nonzero;fill:rgb(81.960784%,83.137255%,87.843137%);fill-opacity:1;" d="M 44.316406 62.46875 C 44.316406 59.894531 34.398438 57.808594 22.160156 57.808594 C 9.921875 57.808594 0 59.894531 0 62.46875 C 0 65.042969 9.921875 67.132812 22.160156 67.132812 C 34.398438 67.132812 44.316406 65.042969 44.316406 62.46875 Z M 44.316406 62.46875 "/>
<path style=" stroke:none;fill-rule:nonzero;fill:rgb(91.372549%,92.156863%,97.647059%);fill-opacity:1;" d="M 35.800781 64.78125 C 37.1875 65.679688 35.9375 65.984375 34.71875 66.222656 C 32.566406 66.644531 30.402344 66.726562 28.207031 66.851562 C 24.601562 67.058594 20.578125 67.277344 16.976562 67 C 15.167969 66.859375 13.6875 66.785156 11.882812 66.597656 C 11.019531 66.503906 10.015625 66.253906 9.335938 66.054688 C 8.847656 65.910156 8.15625 65.789062 8.410156 65.105469 C 8.558594 64.71875 8.972656 64.503906 9.363281 64.355469 C 10.527344 63.910156 11.792969 63.617188 13.019531 63.421875 C 20 62.316406 27.199219 63.132812 34.003906 64.21875 C 34.625 64.320312 35.273438 64.429688 35.800781 64.777344 Z M 35.800781 64.78125 "/>
<path style=" stroke:none;fill-rule:nonzero;fill:rgb(70.588235%,71.372549%,78.431373%);fill-opacity:1;" d="M 22.894531 61.484375 C 27.675781 62.003906 31.988281 63.386719 36.761719 61.964844 C 37.238281 61.824219 37.796875 61.527344 37.71875 61.089844 C 37.644531 60.699219 37.109375 60.539062 36.660156 60.46875 C 32.8125 59.859375 27.675781 59.410156 23.769531 59.285156 C 17.6875 59.089844 12.941406 59.398438 7.019531 60.957031 C 6.421875 61.117188 5.800781 61.300781 5.359375 61.691406 C 4.921875 62.082031 4.734375 62.746094 5.105469 63.183594 C 5.609375 63.773438 6.648438 63.601562 7.445312 63.367188 C 12.175781 61.980469 17.824219 60.953125 22.824219 61.476562 C 22.847656 61.476562 22.871094 61.484375 22.894531 61.484375 Z M 22.894531 61.484375 "/>
<path style=" stroke:none;fill-rule:nonzero;fill:rgb(81.960784%,83.137255%,87.843137%);fill-opacity:1;" d="M 31.859375 66.636719 C 29.230469 65.4375 27.082031 62.789062 26.683594 59.957031 C 26.695312 60.054688 25.246094 60.335938 25.15625 60.351562 C 23.527344 60.644531 21.761719 60.664062 20.117188 60.476562 C 19.324219 60.390625 18.480469 60.257812 17.734375 59.957031 C 17.335938 62.789062 15.183594 65.4375 12.558594 66.636719 C 15.523438 66.933594 19.390625 67.035156 22.253906 67.03125 C 25.121094 67.027344 28.910156 66.945312 31.863281 66.636719 Z M 31.859375 66.636719 "/>
<path style=" stroke:none;fill-rule:nonzero;fill:rgb(70.588235%,71.372549%,78.431373%);fill-opacity:1;" d="M 31.859375 66.636719 C 29.230469 65.4375 27.082031 62.789062 26.683594 59.957031 C 26.695312 60.054688 25.246094 60.335938 25.15625 60.351562 C 25.15625 60.351562 24.460938 60.542969 24.566406 60.601562 C 24.816406 60.742188 24.859375 61.085938 24.804688 61.367188 C 24.75 61.648438 24.621094 61.917969 24.648438 62.203125 C 24.679688 62.605469 25.003906 62.929688 25.359375 63.125 C 25.714844 63.316406 26.117188 63.417969 26.480469 63.601562 C 26.851562 63.785156 27.21875 64.140625 27.132812 64.542969 C 27.066406 64.863281 26.738281 65.058594 26.433594 65.203125 C 24.683594 66.042969 22.769531 66.535156 20.828125 66.652344 C 21.1875 67.15625 21.714844 67.027344 22.257812 67.027344 C 25.191406 67.023438 28.914062 66.941406 31.867188 66.632812 Z M 31.859375 66.636719 "/>
<path style="fill:none;stroke-width:7.65;stroke-linecap:round;stroke-linejoin:miter;stroke:rgb(70.588235%,71.372549%,78.431373%);stroke-opacity:1;stroke-miterlimit:10;" d="M 83.409609 193.486083 C 90.675254 190.54523 96.260324 186.734907 102.439281 181.837747 C 112.307923 173.999733 126.207419 162.428115 139.045498 165.816489 C 146.184784 167.696078 151.605588 175.687527 151.441321 184.100925 C 151.340234 189.368888 149.166858 194.764715 145.287635 197.833431 C 143.000536 199.649089 137.870359 201.771618 133.637331 200.109396 C 130.794252 198.9842 126.131603 194.905364 127.635276 190.916033 " transform="matrix(0.309139,0,0,0.305502,0,0.00674076)"/>
<path style=" stroke:none;fill-rule:nonzero;fill:rgb(91.372549%,92.156863%,97.647059%);fill-opacity:1;" d="M 32.890625 53.554688 C 34.089844 52.609375 35.558594 51.597656 36.859375 50.832031 C 38.15625 50.070312 39.621094 49.570312 41.082031 49.738281 C 38.925781 50.433594 36.558594 51.488281 34.683594 52.859375 C 32.089844 54.753906 29.742188 57.300781 26.726562 58.09375 C 26.535156 58.148438 26.902344 57.585938 26.925781 57.558594 C 27.148438 57.335938 27.542969 57.207031 27.808594 57.046875 C 28.398438 56.699219 28.976562 56.339844 29.546875 55.964844 C 30.691406 55.21875 31.808594 54.414062 32.890625 53.554688 Z M 32.890625 53.554688 "/>
<path style=" stroke:none;fill-rule:nonzero;fill:rgb(70.588235%,71.372549%,78.431373%);fill-opacity:1;" d="M 26.875 57.027344 C 26.875 57.828125 26.101562 59.105469 22.121094 59.105469 C 18.144531 59.105469 17.390625 57.765625 17.390625 56.960938 C 17.8125 55.949219 19.519531 55.695312 22.160156 55.722656 C 24.414062 55.742188 26.367188 56.023438 26.875 57.027344 Z M 26.875 57.027344 "/>
<path style=" stroke:none;fill-rule:nonzero;fill:rgb(81.960784%,83.137255%,87.843137%);fill-opacity:1;" d="M 17.332031 59.867188 C 17.851562 60.492188 18.648438 60.820312 19.449219 60.921875 C 21.054688 61.121094 22.636719 61.316406 24.257812 61.136719 C 25.257812 61.03125 26.300781 60.765625 27.007812 60.054688 C 27.71875 59.347656 27.574219 57.738281 26.875 57.027344 C 26.875 57.027344 26.636719 57.714844 25.4375 58.121094 C 23.71875 58.695312 22.101562 58.710938 20.285156 58.476562 C 18.871094 58.296875 17.628906 57.78125 17.390625 56.957031 C 17.066406 57.753906 16.765625 59.1875 17.332031 59.863281 Z M 17.332031 59.867188 "/>
<path style=" stroke:none;fill-rule:nonzero;fill:rgb(70.588235%,71.372549%,78.431373%);fill-opacity:1;" d="M 17.332031 59.867188 C 17.851562 60.492188 18.648438 60.820312 19.449219 60.921875 C 21.054688 61.121094 22.636719 61.316406 24.257812 61.136719 C 25.257812 61.03125 26.300781 60.765625 27.007812 60.054688 C 27.25 59.816406 27.394531 59.492188 27.4375 59.15625 C 27.4375 59.132812 27.402344 58.429688 27.316406 58.492188 C 26.003906 59.507812 24.363281 60.101562 22.699219 59.941406 C 22.625 59.933594 22.546875 59.917969 22.496094 59.867188 C 22.402344 59.773438 22.460938 59.601562 22.570312 59.523438 C 22.679688 59.441406 22.8125 59.414062 22.933594 59.355469 C 23.054688 59.292969 23.164062 59.171875 23.132812 59.039062 C 22.375 59.074219 21.613281 59.109375 20.859375 59.144531 C 21.121094 59.453125 21.480469 59.675781 21.867188 59.785156 C 21.015625 60.167969 20.277344 60.027344 19.390625 59.855469 C 18.9375 59.761719 18.503906 59.605469 18.085938 59.410156 C 17.917969 59.335938 17.007812 59.003906 16.972656 58.839844 C 17.054688 59.195312 17.078125 59.566406 17.328125 59.859375 Z M 17.332031 59.867188 "/>
<path style=" stroke:none;fill-rule:nonzero;fill:rgb(81.960784%,83.137255%,87.843137%);fill-opacity:1;" d="M 22.160156 41.660156 C 18.328125 41.660156 14.40625 40.300781 14.40625 40.300781 C 15.714844 41.246094 16.453125 42.808594 16.734375 44.382812 C 16.917969 45.421875 16.921875 46.480469 16.871094 47.527344 C 16.832031 48.410156 16.703125 49.679688 17.300781 50.410156 C 17.695312 50.890625 17.878906 50.886719 18.355469 51.292969 C 19.464844 52.25 19.722656 53.96875 19.070312 55.277344 C 18.820312 55.777344 18.488281 56.242188 18.28125 56.761719 C 18.234375 56.878906 18.15625 57.027344 18.230469 57.128906 C 18.753906 57.863281 21.414062 58.15625 22.152344 58.113281 C 22.894531 58.15625 25.554688 57.859375 26.074219 57.128906 C 26.148438 57.027344 26.074219 56.875 26.023438 56.761719 C 25.816406 56.242188 25.484375 55.777344 25.234375 55.277344 C 24.582031 53.96875 24.839844 52.25 25.953125 51.292969 C 26.425781 50.886719 26.609375 50.894531 27.003906 50.410156 C 27.601562 49.679688 27.476562 48.40625 27.433594 47.527344 C 27.382812 46.476562 27.386719 45.421875 27.570312 44.382812 C 27.851562 42.808594 28.59375 41.246094 29.898438 40.300781 C 29.898438 40.300781 25.976562 41.660156 22.148438 41.660156 Z M 22.160156 41.660156 "/>
<path style=" stroke:none;fill-rule:nonzero;fill:rgb(70.588235%,71.372549%,78.431373%);fill-opacity:1;" d="M 29.339844 38.992188 C 28.085938 38.210938 25.34375 37.671875 22.160156 37.671875 C 18.976562 37.671875 16.234375 38.210938 14.976562 38.992188 L 14.246094 38.992188 L 14.246094 39.949219 C 14.246094 41.207031 17.789062 42.222656 22.15625 42.222656 C 26.523438 42.222656 30.066406 41.203125 30.066406 39.949219 L 30.066406 38.992188 L 29.335938 38.992188 Z M 29.339844 38.992188 "/>
<path style=" stroke:none;fill-rule:nonzero;fill:rgb(81.960784%,83.137255%,87.843137%);fill-opacity:1;" d="M 30.070312 38.992188 C 30.070312 37.734375 26.527344 36.714844 22.160156 36.714844 C 17.789062 36.714844 14.25 37.734375 14.25 38.992188 C 14.25 40.25 17.789062 41.269531 22.160156 41.269531 C 26.527344 41.269531 30.070312 40.25 30.070312 38.992188 Z M 30.070312 38.992188 "/>
<path style=" stroke:none;fill-rule:nonzero;fill:rgb(98.823529%,92.54902%,79.215686%);fill-opacity:1;" d="M 20.566406 7.765625 C 20.429688 6.851562 20.472656 5.835938 20.480469 5.355469 C 20.503906 3.164062 20.976562 2.011719 21.878906 0.0078125 C 21.722656 0.351562 22.585938 1.957031 22.695312 2.394531 C 23.007812 3.660156 23.40625 4.992188 23.5625 6.289062 C 23.691406 7.371094 23.644531 9.023438 22.382812 9.488281 C 21.199219 9.921875 20.738281 8.921875 20.570312 7.761719 Z M 20.566406 7.765625 "/>
<path style=" stroke:none;fill-rule:nonzero;fill:rgb(100%,82.352941%,54.117647%);fill-opacity:1;" d="M 21.105469 7.777344 C 21.105469 6.859375 21.339844 5.867188 21.777344 5.054688 C 21.804688 5.011719 21.835938 4.960938 21.886719 4.964844 C 21.925781 4.96875 21.949219 5 21.96875 5.035156 C 22.191406 5.398438 22.261719 5.914062 22.324219 6.332031 C 22.410156 6.890625 22.496094 7.449219 22.578125 8.003906 C 22.65625 8.519531 22.800781 9.597656 21.96875 9.515625 C 21.140625 9.429688 21.109375 8.378906 21.109375 7.777344 Z M 21.105469 7.777344 "/>
<path style=" stroke:none;fill-rule:nonzero;fill:rgb(70.588235%,71.372549%,78.431373%);fill-opacity:1;" d="M 20.425781 38.71875 C 20.371094 38.71875 20.316406 38.71875 20.265625 38.714844 C 19.789062 38.6875 19.316406 38.675781 18.84375 38.726562 C 18.570312 38.753906 18.265625 38.816406 18.105469 39.03125 C 17.957031 39.230469 17.96875 39.507812 17.824219 39.710938 C 17.699219 39.890625 17.472656 39.984375 17.253906 40 C 16.710938 40.042969 16.191406 39.761719 15.746094 39.488281 C 15.277344 39.203125 15.242188 38.828125 15.730469 38.535156 C 16.492188 38.085938 17.3125 37.90625 18.167969 37.742188 C 20.769531 37.238281 23.578125 37.179688 26.175781 37.761719 C 26.4375 37.820312 27.085938 37.925781 27.226562 38.199219 C 27.535156 38.800781 24.636719 38.4375 24.363281 38.4375 C 23.421875 38.4375 22.488281 38.5 21.554688 38.601562 C 21.171875 38.644531 20.804688 38.714844 20.429688 38.71875 Z M 20.425781 38.71875 "/>
<path style=" stroke:none;fill-rule:nonzero;fill:rgb(70.588235%,71.372549%,78.431373%);fill-opacity:1;" d="M 19 48.699219 C 19.109375 48.921875 19.28125 49.097656 19.472656 49.28125 C 20.234375 50.015625 21.40625 50.28125 22.496094 50.078125 C 23.171875 49.953125 23.742188 49.835938 24.28125 49.414062 C 24.507812 49.238281 24.742188 49.050781 24.859375 48.785156 C 24.949219 48.574219 24.949219 48.335938 24.949219 48.101562 C 24.941406 47.308594 25.34375 45.207031 24.222656 44.96875 C 23.925781 44.902344 23.609375 44.972656 23.3125 45.054688 C 23.015625 45.136719 22.710938 45.234375 22.40625 45.210938 C 21.851562 45.171875 21.390625 44.765625 21.066406 44.324219 C 20.738281 43.878906 20.488281 43.375 20.09375 42.984375 C 19.851562 42.742188 19.523438 42.542969 19.183594 42.578125 C 18.121094 42.683594 18.683594 46.378906 18.738281 47.15625 C 18.769531 47.589844 18.828125 48.015625 18.917969 48.445312 C 18.933594 48.535156 18.964844 48.621094 19.003906 48.699219 Z M 19 48.699219 "/>
<path style=" stroke:none;fill-rule:nonzero;fill:rgb(70.588235%,71.372549%,78.431373%);fill-opacity:1;" d="M 19.714844 49.964844 C 19.613281 49.90625 19.507812 49.851562 19.402344 49.804688 C 19.261719 49.738281 19.109375 49.679688 18.953125 49.707031 C 18.796875 49.734375 18.65625 49.871094 18.679688 50.019531 C 18.695312 50.125 18.785156 50.203125 18.871094 50.265625 C 20.074219 51.152344 21.554688 51.625 23.066406 51.492188 C 23.480469 51.457031 23.894531 51.378906 24.265625 51.1875 C 24.632812 51 24.949219 50.6875 25.074219 50.296875 C 25.121094 50.15625 25.125 49.976562 24.996094 49.90625 C 24.894531 49.847656 24.769531 49.898438 24.664062 49.945312 C 23.863281 50.300781 22.992188 50.492188 22.113281 50.515625 C 21.464844 50.535156 20.800781 50.507812 20.203125 50.21875 C 20.039062 50.140625 19.878906 50.046875 19.71875 49.960938 Z M 19.714844 49.964844 "/>
<path style=" stroke:none;fill-rule:nonzero;fill:rgb(0%,0%,0%);fill-opacity:1;" d="M 21.734375 6.894531 C 22.140625 7.105469 22.207031 7.636719 22.222656 8.089844 C 22.261719 9.046875 22.300781 9.65625 22.339844 10.613281 C 22.347656 10.839844 22.324219 11.550781 21.984375 11.167969 C 21.765625 10.929688 21.890625 10.003906 21.875 9.6875 C 21.828125 8.640625 21.78125 7.941406 21.734375 6.894531 Z M 21.734375 6.894531 "/>
<path style=" stroke:none;fill-rule:nonzero;fill:rgb(91.372549%,92.156863%,97.647059%);fill-opacity:1;" d="M 28.9375 38.386719 C 29.230469 38.578125 29.539062 38.859375 29.5 39.207031 C 29.46875 39.488281 29.214844 39.695312 28.96875 39.839844 C 28.292969 40.253906 27.511719 40.5 26.722656 40.5625 C 26.765625 40.226562 27.113281 40.019531 27.421875 39.878906 C 27.734375 39.738281 28.089844 39.570312 28.1875 39.242188 C 28.265625 38.984375 28.144531 38.703125 27.945312 38.519531 C 27.75 38.335938 27.488281 38.230469 27.230469 38.15625 C 26.195312 37.84375 25.097656 37.847656 24.015625 37.863281 C 24 37.863281 24.265625 37.46875 24.308594 37.433594 C 24.46875 37.300781 24.65625 37.234375 24.863281 37.210938 C 25.273438 37.164062 25.800781 37.265625 26.207031 37.332031 C 27.179688 37.484375 28.121094 37.847656 28.9375 38.390625 Z M 28.9375 38.386719 "/>
<path style=" stroke:none;fill-rule:nonzero;fill:rgb(70.588235%,71.372549%,78.431373%);fill-opacity:1;" d="M 22.570312 52.542969 C 22.640625 52.761719 22.570312 52.996094 22.515625 53.214844 C 22.199219 54.417969 22.242188 55.707031 22.636719 56.882812 C 22.722656 57.132812 22.8125 57.433594 22.648438 57.644531 C 22.480469 57.847656 22.164062 57.828125 21.898438 57.78125 C 21.640625 57.730469 21.339844 57.640625 21.257812 57.394531 C 21.207031 57.253906 21.246094 57.097656 21.285156 56.957031 C 21.503906 56.070312 21.570312 55.1875 21.574219 54.277344 C 21.578125 53.628906 21.660156 53.058594 20.953125 52.691406 C 20.785156 52.601562 20.589844 52.550781 20.433594 52.441406 C 20.277344 52.335938 20.148438 52.144531 20.207031 51.960938 C 20.664062 52.128906 21.230469 52.296875 21.726562 52.277344 C 22.082031 52.261719 22.414062 52.09375 22.566406 52.550781 Z M 22.570312 52.542969 "/>
<path style=" stroke:none;fill-rule:nonzero;fill:rgb(28.627451%,29.803922%,40.392157%);fill-opacity:1;" d="M 26.246094 40.121094 C 26.253906 40.371094 26.089844 40.589844 25.847656 40.660156 C 25.230469 40.835938 23.929688 41.125 22.089844 41.125 C 20.25 41.125 18.957031 40.832031 18.328125 40.65625 C 18.085938 40.589844 17.925781 40.371094 17.9375 40.121094 L 19.03125 10.929688 C 19.042969 10.457031 19.496094 10.117188 19.960938 10.230469 L 20.351562 10.328125 C 21.496094 10.609375 22.691406 10.609375 23.835938 10.328125 L 24.222656 10.230469 C 24.683594 10.117188 25.140625 10.457031 25.152344 10.929688 L 26.246094 40.125 Z M 26.246094 40.121094 "/>
<path style=" stroke:none;fill-rule:nonzero;fill:rgb(49.411765%,50.588235%,59.607843%);fill-opacity:1;" d="M 25.507812 13.226562 C 25.457031 12.921875 25.554688 12.550781 25.574219 12.242188 C 25.617188 11.667969 25.601562 11.054688 25.28125 10.570312 C 24.753906 9.78125 23.972656 10.15625 23.230469 10.203125 C 22.097656 10.28125 20.921875 10.191406 19.785156 10.183594 C 18.894531 10.175781 18.449219 10.761719 18.398438 11.621094 C 18.363281 12.265625 18.519531 12.957031 18.582031 13.59375 C 18.65625 14.347656 18.753906 15.09375 18.785156 15.851562 C 18.855469 17.550781 18.730469 19.257812 18.414062 20.933594 C 18.367188 21.171875 18.320312 21.425781 18.414062 21.648438 C 18.503906 21.871094 18.796875 22.03125 19.003906 21.894531 C 19.078125 21.84375 19.125 21.765625 19.167969 21.683594 C 19.652344 20.785156 19.65625 19.707031 19.507812 18.699219 C 19.363281 17.691406 19.214844 16.515625 19.15625 15.5 C 19.113281 14.703125 19.089844 14.050781 19.496094 13.351562 C 19.832031 12.769531 20.605469 12.527344 21.148438 12.984375 C 21.691406 13.441406 21.902344 14.328125 21.921875 15.011719 C 21.9375 15.589844 21.90625 16.203125 22.164062 16.722656 C 22.238281 16.863281 22.398438 17.015625 22.53125 16.929688 C 22.59375 16.890625 22.613281 16.8125 22.628906 16.742188 C 22.769531 16.105469 22.625 15.441406 22.527344 14.792969 C 22.480469 14.484375 22.371094 12.25 23.230469 12.664062 C 23.582031 12.835938 23.414062 13.6875 23.445312 13.996094 C 23.515625 14.640625 23.71875 15.25 23.824219 15.878906 C 23.929688 16.511719 23.761719 17.335938 23.761719 17.953125 C 23.761719 18.769531 23.613281 19.3125 23.609375 20.128906 C 23.609375 20.535156 23.613281 20.941406 23.601562 21.347656 C 23.59375 21.726562 23.4375 21.988281 23.3125 22.34375 C 23.097656 22.980469 23.222656 23.796875 23.511719 24.402344 C 23.597656 24.574219 23.753906 24.753906 23.941406 24.714844 C 24.144531 24.671875 24.203125 24.417969 24.222656 24.21875 C 24.304688 23.320312 24.171875 22.425781 24.089844 21.53125 C 23.996094 20.542969 24.164062 19.648438 24.148438 18.65625 C 24.121094 17.414062 24.25 16.1875 24.039062 14.964844 C 23.957031 14.492188 23.828125 14.03125 23.808594 13.550781 C 23.792969 13.253906 23.925781 12.152344 24.429688 12.699219 C 24.703125 13 24.816406 13.414062 24.859375 13.816406 C 24.886719 14.03125 24.914062 14.28125 25.101562 14.386719 C 25.335938 14.519531 25.640625 14.296875 25.691406 14.03125 C 25.75 13.722656 25.546875 13.507812 25.5 13.222656 Z M 25.507812 13.226562 "/>
<path style=" stroke:none;fill-rule:nonzero;fill:rgb(81.960784%,83.137255%,87.843137%);fill-opacity:1;" d="M 14.609375 67.527344 C 15.855469 67.511719 17.25 67.984375 18.503906 68.101562 C 19.101562 68.160156 19.660156 68.226562 20.261719 68.21875 C 20.765625 68.214844 21.40625 68.164062 21.851562 68.449219 C 22.933594 69.140625 20.28125 69.585938 19.941406 69.679688 C 19.851562 69.703125 19.746094 69.746094 19.730469 69.835938 C 19.707031 69.964844 19.886719 70.03125 20.023438 70.042969 C 22.183594 70.230469 24.164062 70.242188 26.335938 69.839844 C 26.394531 69.828125 26.457031 69.8125 26.503906 69.777344 C 26.605469 69.691406 26.5625 69.515625 26.460938 69.429688 C 26.359375 69.34375 26.214844 69.328125 26.082031 69.316406 C 25.328125 69.242188 24.574219 69.167969 23.820312 69.097656 C 23.433594 67.988281 25.730469 68.128906 26.273438 68.074219 C 27.589844 67.9375 29.246094 67.890625 30.484375 67.402344 C 30.019531 67.585938 28.996094 67.359375 28.496094 67.34375 C 26.195312 67.277344 23.941406 67.574219 21.636719 67.597656 C 19.332031 67.617188 16.953125 67.5 14.609375 67.53125 Z M 14.609375 67.527344 "/>
<path style=" stroke:none;fill-rule:nonzero;fill:rgb(81.960784%,83.137255%,87.843137%);fill-opacity:1;" d="M 42.269531 50.667969 C 42.160156 50.601562 42.042969 50.523438 41.996094 50.394531 C 41.894531 50.101562 42.226562 49.847656 42.503906 49.796875 C 44.542969 49.425781 46.765625 52.125 47.355469 54.007812 C 47.417969 54.207031 47.46875 54.414062 47.511719 54.621094 C 47.703125 55.574219 47.683594 56.855469 47.328125 57.78125 C 47.089844 58.40625 46.910156 58.914062 46.316406 59.144531 C 45.785156 59.347656 46.007812 58.71875 46.066406 58.332031 C 46.246094 57.167969 46.421875 55.976562 46.175781 54.800781 C 45.6875 52.46875 43.976562 51.71875 42.269531 50.671875 Z M 42.269531 50.667969 "/>
<path style=" stroke:none;fill-rule:nonzero;fill:rgb(81.960784%,83.137255%,87.843137%);fill-opacity:1;" d="M 39.382812 57.347656 C 39.828125 57.257812 40.347656 57.617188 40.382812 58.144531 C 40.390625 58.304688 40.359375 58.46875 40.332031 58.625 C 40.277344 58.902344 40.222656 59.15625 40.21875 59.433594 C 40.21875 59.5625 40.183594 59.726562 40.066406 59.734375 C 39.953125 59.742188 39.902344 59.578125 39.886719 59.453125 C 39.855469 59.199219 39.816406 58.945312 39.710938 58.714844 C 39.605469 58.484375 39.425781 58.289062 39.203125 58.234375 C 39.117188 58.210938 39.03125 58.210938 38.945312 58.195312 C 38.542969 58.109375 38.808594 57.707031 39.003906 57.539062 C 39.113281 57.445312 39.246094 57.378906 39.382812 57.351562 Z M 39.382812 57.347656 "/>
<path style=" stroke:none;fill-rule:nonzero;fill:rgb(81.960784%,83.137255%,87.843137%);fill-opacity:1;" d="M 32.679688 55.261719 C 33.191406 55.191406 33.441406 54.9375 33.855469 54.667969 C 34.34375 54.347656 34.847656 54.054688 35.335938 53.753906 C 36.324219 53.144531 37.3125 52.535156 38.300781 51.925781 C 38.4375 51.839844 38.601562 51.675781 38.527344 51.519531 C 38.464844 51.390625 38.300781 51.398438 38.167969 51.425781 C 37.679688 51.53125 37.238281 51.609375 36.792969 51.867188 C 36.375 52.105469 35.980469 52.390625 35.574219 52.652344 C 34.75 53.179688 33.984375 53.816406 33.203125 54.421875 C 33.070312 54.523438 32.9375 54.628906 32.832031 54.769531 C 32.726562 54.910156 32.65625 55.085938 32.679688 55.261719 Z M 32.679688 55.261719 "/>
<path style=" stroke:none;fill-rule:nonzero;fill:rgb(91.372549%,92.156863%,97.647059%);fill-opacity:1;" d="M 17.355469 44.503906 C 17.402344 45.453125 17.203125 46.398438 17.175781 47.347656 C 17.148438 48.296875 17.328125 49.316406 17.992188 50.003906 C 17.496094 49.179688 17.445312 48.167969 17.515625 47.214844 C 17.585938 46.257812 17.773438 45.304688 17.703125 44.347656 C 17.6875 44.089844 17.359375 42.25 16.921875 42.574219 C 16.8125 42.65625 17.339844 44.199219 17.355469 44.503906 Z M 17.355469 44.503906 "/>
<path style=" stroke:none;fill-rule:nonzero;fill:rgb(91.372549%,92.156863%,97.647059%);fill-opacity:1;" d="M 27.324219 42.066406 C 27.398438 42.066406 27.480469 42.082031 27.5625 42.109375 C 27.167969 43.117188 26.636719 44.058594 26.613281 45.152344 C 26.589844 46.242188 26.808594 47.40625 26.738281 48.535156 C 26.710938 48.972656 26.664062 49.429688 26.445312 49.808594 C 26.234375 50.164062 25.851562 50.523438 25.414062 50.539062 C 26.03125 49.765625 26.222656 48.738281 26.226562 47.753906 C 26.234375 46.769531 26.078125 45.785156 26.101562 44.800781 C 26.121094 44.113281 26.335938 42.039062 27.324219 42.066406 Z M 27.324219 42.066406 "/>
<path style=" stroke:none;fill-rule:nonzero;fill:rgb(91.372549%,92.156863%,97.647059%);fill-opacity:1;" d="M 20.683594 56.851562 C 20.621094 57.027344 20.554688 57.210938 20.425781 57.347656 C 20.296875 57.484375 20.09375 57.570312 19.914062 57.515625 C 19.71875 57.457031 19.601562 57.25 19.582031 57.054688 C 19.566406 56.855469 19.628906 56.660156 19.695312 56.46875 C 19.816406 56.117188 20.25 54.390625 20.847656 54.496094 C 21.449219 54.601562 20.800781 56.523438 20.683594 56.855469 Z M 20.683594 56.851562 "/>
<path style=" stroke:none;fill-rule:nonzero;fill:rgb(91.372549%,92.156863%,97.647059%);fill-opacity:1;" d="M 18.242188 58.464844 C 18.101562 58.429688 17.960938 58.398438 17.820312 58.417969 C 17.675781 58.441406 17.535156 58.519531 17.488281 58.652344 C 17.433594 58.808594 17.523438 58.980469 17.652344 59.082031 C 17.78125 59.183594 17.949219 59.21875 18.105469 59.257812 C 18.960938 59.460938 19.816406 59.664062 20.667969 59.863281 C 20.726562 59.875 20.507812 59.222656 20.480469 59.175781 C 20.363281 58.988281 20.191406 58.8125 19.976562 58.757812 C 19.746094 58.695312 19.449219 58.734375 19.199219 58.6875 C 18.878906 58.625 18.5625 58.542969 18.242188 58.46875 Z M 18.242188 58.464844 "/>
<path style=" stroke:none;fill-rule:nonzero;fill:rgb(91.372549%,92.156863%,97.647059%);fill-opacity:1;" d="M 19.386719 61.3125 C 19.5625 61.390625 19.703125 61.582031 19.65625 61.765625 C 19.628906 61.898438 19.519531 61.996094 19.445312 62.105469 C 19.289062 62.339844 19.289062 62.640625 19.34375 62.914062 C 19.398438 63.183594 19.5 63.449219 19.546875 63.71875 C 19.671875 64.488281 19.316406 65.242188 18.964844 65.941406 C 18.875 66.121094 18.785156 66.308594 18.613281 66.414062 C 18.441406 66.527344 18.21875 66.535156 18.007812 66.53125 C 17.320312 66.519531 16.636719 66.425781 15.976562 66.25 C 16.734375 66.140625 17.441406 65.71875 17.898438 65.113281 C 18.355469 64.503906 18.550781 63.714844 18.4375 62.960938 C 18.386719 62.632812 18.28125 62.3125 18.300781 61.984375 C 18.339844 61.429688 18.851562 61.0625 19.386719 61.308594 Z M 19.386719 61.3125 "/>
</g>
</svg>
