<?xml version="1.0" encoding="UTF-8"?>
<svg xmlns="http://www.w3.org/2000/svg" xmlns:xlink="http://www.w3.org/1999/xlink" width="48px" height="px" viewBox="0 0 47 46" version="1.1">
<defs>
<filter id="alpha" filterUnits="objectBoundingBox" x="0%" y="0%" width="100%" height="100%">
  <feColorMatrix type="matrix" in="SourceGraphic" values="0 0 0 0 1 0 0 0 0 1 0 0 0 0 1 0 0 0 1 0"/>
</filter>
<mask id="mask0">
  <g filter="url(#alpha)">
<rect x="0" y="0" width="47" height="46" style="fill:rgb(0%,0%,0%);fill-opacity:0.121569;stroke:none;"/>
  </g>
</mask>
<clipPath id="clip1">
  <rect x="0" y="0" width="47" height="46"/>
</clipPath>
<g id="surface5" clip-path="url(#clip1)">
<path style=" stroke:none;fill-rule:nonzero;fill:rgb(0%,0%,0%);fill-opacity:1;" d="M 38.9375 13.570312 C 40.523438 13.3125 42.15625 13.585938 43.339844 14.585938 C 44.75 15.78125 45.425781 17.730469 45.441406 19.550781 C 45.480469 23.625 43.34375 27.703125 40.683594 30.652344 C 39.054688 32.453125 37.132812 33.964844 35.203125 35.433594 C 34.222656 36.175781 34.308594 35.265625 34.289062 34.546875 C 34.261719 33.59375 34.121094 32.628906 34.554688 31.730469 C 34.796875 31.226562 35.28125 31.042969 35.714844 30.71875 C 36.328125 30.261719 36.847656 29.695312 37.410156 29.179688 C 37.84375 28.789062 39.878906 26 40.457031 24.992188 C 41.425781 23.304688 42.570312 20.085938 41.640625 18.222656 C 40.78125 16.507812 38.664062 14.320312 36.683594 15.761719 C 36.207031 16.109375 34.433594 17.441406 34.46875 18.109375 C 34.445312 17.683594 34.09375 17.210938 34.152344 16.828125 C 34.179688 16.636719 34.28125 16.464844 34.386719 16.304688 C 35.3125 14.878906 37.089844 13.863281 38.9375 13.566406 Z M 38.9375 13.570312 "/>
</g>
<mask id="mask1">
  <g filter="url(#alpha)">
<rect x="0" y="0" width="47" height="46" style="fill:rgb(0%,0%,0%);fill-opacity:0.0784314;stroke:none;"/>
  </g>
</mask>
<clipPath id="clip2">
  <rect x="0" y="0" width="47" height="46"/>
</clipPath>
<g id="surface8" clip-path="url(#clip2)">
<path style=" stroke:none;fill-rule:nonzero;fill:rgb(0%,0%,0%);fill-opacity:1;" d="M 30.25 7.050781 C 30.160156 7.355469 31.582031 7.796875 31.601562 8.429688 C 31.792969 14.425781 31.667969 20.433594 31.222656 26.414062 C 30.691406 33.59375 30.03125 40.613281 22.078125 43.804688 C 19.085938 45.007812 16.121094 45.074219 12.96875 45.707031 C 12.96875 45.707031 16.554688 46 17.636719 46 C 27 46 34.589844 43.261719 34.589844 39.882812 L 35.273438 6.363281 L 32.402344 6.363281 C 31.105469 6.363281 30.480469 6.285156 30.253906 7.050781 Z M 30.25 7.050781 "/>
</g>
<mask id="mask2">
  <g filter="url(#alpha)">
<rect x="0" y="0" width="47" height="46" style="fill:rgb(0%,0%,0%);fill-opacity:0.121569;stroke:none;"/>
  </g>
</mask>
<clipPath id="clip3">
  <rect x="0" y="0" width="47" height="46"/>
</clipPath>
<g id="surface11" clip-path="url(#clip3)">
<path style=" stroke:none;fill-rule:nonzero;fill:rgb(0%,0%,0%);fill-opacity:1;" d="M 33.242188 6.367188 C 33.242188 3.617188 26.257812 1.390625 17.636719 1.390625 C 9.019531 1.390625 2.035156 3.617188 2.035156 6.367188 C 2.035156 9.113281 9.019531 11.34375 17.636719 11.34375 C 26.257812 11.34375 33.242188 9.113281 33.242188 6.367188 Z M 33.242188 6.367188 "/>
</g>
<linearGradient id="linear0" gradientUnits="userSpaceOnUse" x1="21.86" y1="1075.59" x2="-36.77" y2="1134.8" gradientTransform="matrix(0.262373,0,0,-0.265696,14.448143,326.30428)">
<stop offset="0" style="stop-color:rgb(0%,50.588235%,67.843137%);stop-opacity:1;"/>
<stop offset="1" style="stop-color:rgb(7.843137%,81.960784%,87.45098%);stop-opacity:1;"/>
</linearGradient>
<linearGradient id="linear1" gradientUnits="userSpaceOnUse" x1="22.02" y1="1075.76" x2="-36.62" y2="1134.96" gradientTransform="matrix(0.262373,0,0,-0.265696,14.448143,326.30428)">
<stop offset="0" style="stop-color:rgb(0%,50.588235%,67.843137%);stop-opacity:1;"/>
<stop offset="1" style="stop-color:rgb(7.843137%,81.960784%,87.45098%);stop-opacity:1;"/>
</linearGradient>
<linearGradient id="linear2" gradientUnits="userSpaceOnUse" x1="4.08" y1="1174.93" x2="59.92" y2="1118.54" gradientTransform="matrix(0.262373,0,0,-0.265696,14.448143,326.30428)">
<stop offset="0" style="stop-color:rgb(0%,50.588235%,67.843137%);stop-opacity:1;"/>
<stop offset="1" style="stop-color:rgb(7.843137%,81.960784%,87.45098%);stop-opacity:1;"/>
</linearGradient>
<linearGradient id="linear3" gradientUnits="userSpaceOnUse" x1="4.25" y1="1175.1" x2="60.08" y2="1118.7" gradientTransform="matrix(0.262373,0,0,-0.265696,14.448143,326.30428)">
<stop offset="0" style="stop-color:rgb(0%,50.588235%,67.843137%);stop-opacity:1;"/>
<stop offset="1" style="stop-color:rgb(7.843137%,81.960784%,87.45098%);stop-opacity:1;"/>
</linearGradient>
<linearGradient id="linear4" gradientUnits="userSpaceOnUse" x1="-20.6" y1="1158.44" x2="43.37" y2="1095.31" gradientTransform="matrix(0.262373,0,0,-0.265696,14.448143,326.30428)">
<stop offset="0" style="stop-color:rgb(7.843137%,81.960784%,87.45098%);stop-opacity:1;"/>
<stop offset="1" style="stop-color:rgb(52.156863%,85.098039%,64.705882%);stop-opacity:1;"/>
</linearGradient>
<linearGradient id="linear5" gradientUnits="userSpaceOnUse" x1="-20.58" y1="1158.46" x2="43.39" y2="1095.33" gradientTransform="matrix(0.262373,0,0,-0.265696,14.448143,326.30428)">
<stop offset="0" style="stop-color:rgb(7.843137%,81.960784%,87.45098%);stop-opacity:1;"/>
<stop offset="1" style="stop-color:rgb(52.156863%,85.098039%,64.705882%);stop-opacity:1;"/>
</linearGradient>
</defs>
<g id="surface1">
<path style="fill:none;stroke-width:20;stroke-linecap:butt;stroke-linejoin:miter;stroke:rgb(94.509804%,94.901961%,94.901961%);stroke-opacity:1;stroke-miterlimit:10;" d="M 123.122832 63.55647 C 130.790242 50.898103 144.651132 42.856144 158.422693 53.132797 C 177.137127 67.084935 167.876683 92.019418 156.234131 107.853404 C 144.204486 124.216658 126.085579 135.375428 106.864946 138.286411 " transform="matrix(0.262373,0,0,0.265696,0.00452707,0)"/>
<use xlink:href="#surface5" mask="url(#mask0)"/>
<path style=" stroke:none;fill-rule:nonzero;fill:rgb(94.509804%,94.901961%,94.901961%);fill-opacity:1;" d="M 34.589844 39.882812 L 0.6875 39.882812 L 0.00390625 6.367188 L 35.273438 6.367188 Z M 34.589844 39.882812 "/>
<path style=" stroke:none;fill-rule:nonzero;fill:rgb(94.509804%,94.901961%,94.901961%);fill-opacity:1;" d="M 34.589844 39.882812 C 34.589844 36.5 27 33.761719 17.636719 33.761719 C 8.277344 33.761719 0.6875 36.5 0.6875 39.882812 C 0.6875 43.261719 8.277344 46 17.636719 46 C 27 46 34.589844 43.261719 34.589844 39.882812 Z M 34.589844 39.882812 "/>
<use xlink:href="#surface8" mask="url(#mask1)"/>
<path style=" stroke:none;fill-rule:nonzero;fill:rgb(94.509804%,94.901961%,94.901961%);fill-opacity:1;" d="M 35.273438 6.367188 C 35.273438 2.851562 27.378906 0 17.636719 0 C 7.898438 0 0.00390625 2.851562 0.00390625 6.367188 C 0.00390625 9.882812 7.898438 12.730469 17.636719 12.730469 C 27.378906 12.730469 35.273438 9.882812 35.273438 6.367188 Z M 35.273438 6.367188 "/>
<use xlink:href="#surface11" mask="url(#mask2)"/>
<path style=" stroke:none;fill-rule:nonzero;fill:rgb(37.647059%,22.352941%,7.45098%);fill-opacity:1;" d="M 4.128906 8.851562 C 6.828125 10.339844 11.863281 11.339844 17.636719 11.339844 C 23.414062 11.339844 28.449219 10.339844 31.148438 8.851562 C 28.449219 7.363281 23.414062 6.367188 17.636719 6.367188 C 11.863281 6.367188 6.828125 7.367188 4.128906 8.851562 Z M 4.128906 8.851562 "/>
<path style=" stroke:none;fill-rule:nonzero;fill:url(#linear0);" d="M 12.472656 28.714844 C 10.828125 26.886719 9.421875 25.078125 8.425781 23.476562 C 8.023438 22.839844 7.660156 22.175781 7.347656 21.488281 C 5.050781 25.839844 5.660156 31.175781 8.882812 34.878906 C 9.015625 33.601562 10.359375 31.316406 12.46875 28.710938 Z M 12.472656 28.714844 "/>
<path style=" stroke:none;fill-rule:nonzero;fill:url(#linear1);" d="M 16.011719 32.300781 C 13.4375 34.441406 11.179688 35.796875 9.925781 35.933594 C 13.582031 39.195312 18.851562 39.816406 23.148438 37.488281 C 22.304688 37.105469 21.359375 36.550781 20.300781 35.808594 C 18.796875 34.738281 17.363281 33.566406 16.011719 32.300781 Z M 16.011719 32.300781 "/>
<path style=" stroke:none;fill-rule:nonzero;fill:url(#linear2);" d="M 19.269531 21.832031 C 21.84375 19.691406 24.097656 18.335938 25.355469 18.199219 C 21.699219 14.9375 16.425781 14.320312 12.132812 16.644531 C 12.976562 17.027344 13.921875 17.582031 14.976562 18.324219 C 16.484375 19.394531 17.917969 20.566406 19.269531 21.832031 Z M 19.269531 21.832031 "/>
<path style=" stroke:none;fill-rule:nonzero;fill:url(#linear3);" d="M 26.394531 19.253906 C 26.261719 20.527344 24.917969 22.8125 22.808594 25.417969 C 24.453125 27.246094 25.855469 29.054688 26.851562 30.65625 C 27.257812 31.292969 27.617188 31.957031 27.929688 32.644531 C 30.226562 28.296875 29.617188 22.957031 26.394531 19.253906 Z M 26.394531 19.253906 "/>
<path style=" stroke:none;fill-rule:nonzero;fill:url(#linear4);" d="M 17.636719 23.257812 C 13.625 19.582031 10.007812 17.476562 9.085938 18.40625 C 8.019531 19.484375 10.984375 24.234375 15.710938 29.019531 C 16.355469 29.675781 17 30.292969 17.636719 30.875 Z M 17.636719 23.257812 "/>
<path style=" stroke:none;fill-rule:nonzero;fill:url(#linear5);" d="M 21.402344 27.066406 C 20.828125 27.710938 20.21875 28.367188 19.570312 29.019531 C 18.921875 29.671875 18.277344 30.296875 17.640625 30.875 C 21.652344 34.546875 25.273438 36.65625 26.195312 35.726562 C 27.117188 34.796875 25.03125 31.128906 21.402344 27.066406 Z M 21.402344 27.066406 "/>
</g>
</svg>
