<?xml version="1.0" encoding="UTF-8"?>
<svg xmlns="http://www.w3.org/2000/svg" xmlns:xlink="http://www.w3.org/1999/xlink" width="48px" height="px" viewBox="0 0 48 49" version="1.1">
<defs>
<filter id="alpha" filterUnits="objectBoundingBox" x="0%" y="0%" width="100%" height="100%">
  <feColorMatrix type="matrix" in="SourceGraphic" values="0 0 0 0 1 0 0 0 0 1 0 0 0 0 1 0 0 0 1 0"/>
</filter>
<mask id="mask0">
  <g filter="url(#alpha)">
<rect x="0" y="0" width="48" height="49" style="fill:rgb(0%,0%,0%);fill-opacity:0.121569;stroke:none;"/>
  </g>
</mask>
<clipPath id="clip1">
  <rect x="0" y="0" width="48" height="49"/>
</clipPath>
<g id="surface5" clip-path="url(#clip1)">
<path style=" stroke:none;fill-rule:nonzero;fill:rgb(0%,0%,0%);fill-opacity:1;" d="M 39.351562 36.792969 C 37.738281 37.496094 35.871094 38.394531 34.222656 39.015625 C 31.878906 39.898438 30.042969 41.019531 27.875 42.269531 C 25.070312 43.886719 23.027344 45.355469 21.417969 48.117188 C 21.90625 47.277344 20.410156 44.898438 19.949219 44.296875 C 19.75 44.027344 19.519531 43.753906 19.46875 43.425781 C 19.414062 43.070312 19.570312 42.722656 19.730469 42.402344 C 22.398438 37.160156 27.835938 33.898438 33.21875 31.414062 C 34.886719 30.640625 36.585938 29.890625 38.375 29.441406 C 39.730469 29.105469 41.839844 29.011719 43.183594 29.496094 C 43.183594 29.496094 43.316406 32.6875 43.238281 33.613281 C 42.582031 34.675781 40.546875 36.273438 39.351562 36.796875 Z M 39.351562 36.792969 "/>
</g>
<mask id="mask1">
  <g filter="url(#alpha)">
<rect x="0" y="0" width="48" height="49" style="fill:rgb(0%,0%,0%);fill-opacity:0.121569;stroke:none;"/>
  </g>
</mask>
<clipPath id="clip2">
  <rect x="0" y="0" width="48" height="49"/>
</clipPath>
<g id="surface8" clip-path="url(#clip2)">
<path style=" stroke:none;fill-rule:nonzero;fill:rgb(0%,0%,0%);fill-opacity:1;" d="M 21.820312 47.882812 C 22.058594 47.382812 22.070312 46.902344 22.425781 46.480469 L 2.933594 17.140625 C 2.675781 17.625 1.960938 17.691406 1.441406 17.882812 C 0.921875 18.078125 21.582031 48.378906 21.820312 47.882812 Z M 21.820312 47.882812 "/>
</g>
</defs>
<g id="surface1">
<path style=" stroke:none;fill-rule:nonzero;fill:rgb(64.705882%,19.607843%,36.862745%);fill-opacity:1;" d="M 21.820312 47.882812 L 47.527344 34.128906 C 47.988281 33.882812 48.140625 33.292969 47.851562 32.855469 L 26.417969 0.464844 C 26.128906 0.0273438 25.523438 -0.0703125 25.105469 0.246094 L 2.933594 17.140625 L 21.816406 47.882812 Z M 21.820312 47.882812 "/>
<path style=" stroke:none;fill-rule:nonzero;fill:rgb(100%,94.901961%,89.019608%);fill-opacity:1;" d="M 39.351562 36.792969 C 37.738281 37.496094 35.871094 38.394531 34.222656 39.015625 C 31.878906 39.898438 30.042969 41.019531 27.875 42.269531 C 25.070312 43.886719 23.027344 45.355469 21.417969 48.117188 C 21.90625 47.277344 20.410156 44.898438 19.949219 44.296875 C 19.75 44.027344 19.519531 43.753906 19.46875 43.425781 C 19.414062 43.070312 19.570312 42.722656 19.730469 42.402344 C 22.398438 37.160156 27.835938 33.898438 33.21875 31.414062 C 34.886719 30.640625 36.585938 29.890625 38.375 29.441406 C 39.730469 29.105469 41.839844 29.011719 43.183594 29.496094 C 43.183594 29.496094 43.316406 32.6875 43.238281 33.613281 C 42.582031 34.675781 40.546875 36.273438 39.351562 36.796875 Z M 39.351562 36.792969 "/>
<use xlink:href="#surface5" mask="url(#mask0)"/>
<path style=" stroke:none;fill-rule:nonzero;fill:rgb(100%,94.901961%,89.019608%);fill-opacity:1;" d="M 12.128906 9.894531 C 13.289062 9.121094 14.527344 8.460938 15.816406 7.921875 C 18.871094 6.644531 23.777344 4.550781 25.285156 1.546875 L 43.183594 29.496094 C 41.175781 35.246094 33.242188 36.300781 28.117188 39.59375 C 26.0625 40.917969 21.367188 44.707031 21.328125 47.363281 C 20.28125 46.839844 21.363281 44.074219 20.6875 43.148438 C 19.515625 41.535156 18.359375 39.914062 17.199219 38.292969 C 15.417969 35.785156 13.679688 33.234375 11.84375 30.769531 C 9.945312 28.210938 8.027344 25.667969 6.097656 23.136719 C 5.585938 22.464844 4.472656 21.617188 4.3125 20.738281 C 4.148438 19.859375 4.910156 18.507812 5.277344 17.726562 C 6.816406 14.472656 9.230469 11.828125 12.128906 9.894531 Z M 12.128906 9.894531 "/>
<path style="fill:none;stroke-width:2;stroke-linecap:round;stroke-linejoin:miter;stroke:rgb(49.411765%,50.588235%,59.607843%);stroke-opacity:1;stroke-miterlimit:10;" d="M 40.910251 117.373187 C 44.77282 103.098979 53.652017 90.233096 65.616558 81.520578 C 79.159099 71.638434 90.652595 64.811639 106.526809 59.417038 C 122.401023 53.998568 141.172163 45.691838 150.828584 31.990508 " transform="matrix(0.165855,0,0,0.163647,0,0.0617104)"/>
<path style="fill:none;stroke-width:2;stroke-linecap:round;stroke-linejoin:miter;stroke:rgb(49.411765%,50.588235%,59.607843%);stroke-opacity:1;stroke-miterlimit:10;" d="M 49.624583 131.122256 C 53.510703 117.015138 62.648975 104.555043 74.637068 96.176704 C 88.038296 86.771958 99.72021 80.159993 115.24114 74.789262 C 131.303772 69.227572 150.26333 60.610534 160.108169 46.742115 " transform="matrix(0.165855,0,0,0.163647,0,0.0617104)"/>
<path style="fill:none;stroke-width:2;stroke-linecap:round;stroke-linejoin:miter;stroke:rgb(49.411765%,50.588235%,59.607843%);stroke-opacity:1;stroke-miterlimit:10;" d="M 58.338914 144.895196 C 62.248586 130.931297 71.645933 118.853121 83.657578 110.832831 C 96.941045 101.881613 108.811377 95.460607 123.979023 90.161486 C 140.230073 84.408837 159.378049 75.50536 169.387754 61.469851 " transform="matrix(0.165855,0,0,0.163647,0,0.0617104)"/>
<path style="fill:none;stroke-width:2;stroke-linecap:round;stroke-linejoin:miter;stroke:rgb(49.411765%,50.588235%,59.607843%);stroke-opacity:1;stroke-miterlimit:10;" d="M 67.053245 158.644266 C 70.962917 144.871326 80.666443 133.198939 92.654536 125.488957 C 105.820242 117.015138 117.878992 110.808961 132.693354 105.53371 C 149.132822 99.637841 168.445664 90.400185 178.643787 76.221457 " transform="matrix(0.165855,0,0,0.163647,0,0.0617104)"/>
<path style="fill:none;stroke-width:2;stroke-linecap:round;stroke-linejoin:miter;stroke:rgb(49.411765%,50.588235%,59.607843%);stroke-opacity:1;stroke-miterlimit:10;" d="M 75.767576 172.417206 C 79.700801 158.787485 89.663401 147.544757 101.675046 140.145084 C 114.699438 132.148663 126.970159 126.181185 141.431238 120.929804 C 158.059124 114.890716 177.536831 105.318881 187.923372 90.973063 " transform="matrix(0.165855,0,0,0.163647,0,0.0617104)"/>
<path style="fill:none;stroke-width:2;stroke-linecap:round;stroke-linejoin:miter;stroke:rgb(49.411765%,50.588235%,59.607843%);stroke-opacity:1;stroke-miterlimit:10;" d="M 84.481907 186.190145 C 88.415132 172.703645 98.660359 161.866704 110.695557 154.80121 C 123.578635 147.258318 136.061326 141.505669 150.145569 136.302028 C 166.985425 130.09585 186.627998 120.213706 197.179404 105.700799 " transform="matrix(0.165855,0,0,0.163647,0,0.0617104)"/>
<path style="fill:none;stroke-width:2;stroke-linecap:round;stroke-linejoin:miter;stroke:rgb(49.411765%,50.588235%,59.607843%);stroke-opacity:1;stroke-miterlimit:10;" d="M 93.196238 199.939215 C 97.129463 186.619804 107.657317 176.188652 119.716067 169.457337 C 132.481384 162.367972 145.12894 156.830153 158.883452 151.674251 C 175.911726 145.300985 195.719165 135.108532 206.458989 120.452405 " transform="matrix(0.165855,0,0,0.163647,0,0.0617104)"/>
<path style="fill:none;stroke-width:2;stroke-linecap:round;stroke-linejoin:miter;stroke:rgb(49.411765%,50.588235%,59.607843%);stroke-opacity:1;stroke-miterlimit:10;" d="M 101.910569 213.688285 C 105.843794 200.559833 116.630723 190.48673 128.736577 184.113463 C 140.818879 177.740196 154.220107 172.154637 167.597783 167.046475 C 184.814475 160.482249 204.810332 150.027227 215.738574 135.204012 " transform="matrix(0.165855,0,0,0.163647,0,0.0617104)"/>
<path style="fill:none;stroke-width:2;stroke-linecap:round;stroke-linejoin:miter;stroke:rgb(49.411765%,50.588235%,59.607843%);stroke-opacity:1;stroke-miterlimit:10;" d="M 110.6249 227.461225 C 114.581677 214.475992 125.651233 204.808677 137.757087 198.76959 C 150.216226 192.587282 163.287722 187.455251 176.335667 182.418699 C 193.717224 175.663514 213.901499 164.922053 225.018159 149.931748 " transform="matrix(0.165855,0,0,0.163647,0,0.0617104)"/>
<path style="fill:none;stroke-width:2;stroke-linecap:round;stroke-linejoin:miter;stroke:rgb(49.411765%,50.588235%,59.607843%);stroke-opacity:1;stroke-miterlimit:10;" d="M 119.339231 241.234164 C 123.296008 228.392151 134.601086 219.106755 146.754045 213.449586 C 159.07187 207.649197 172.355337 202.779735 185.049998 197.814793 C 202.619973 190.868648 222.969114 179.840749 234.274192 164.683354 " transform="matrix(0.165855,0,0,0.163647,0,0.0617104)"/>
<path style="fill:none;stroke-width:2;stroke-linecap:round;stroke-linejoin:miter;stroke:rgb(49.411765%,50.588235%,59.607843%);stroke-opacity:1;stroke-miterlimit:10;" d="M 128.053562 254.983234 C 132.033892 242.308311 143.621597 233.428703 155.774556 228.081843 C 167.951067 222.758852 181.446504 218.104219 193.787881 213.187017 C 211.546274 206.073783 232.060281 194.735574 243.553777 179.43496 " transform="matrix(0.165855,0,0,0.163647,0,0.0617104)"/>
<path style=" stroke:none;fill-rule:nonzero;fill:rgb(64.705882%,19.607843%,36.862745%);fill-opacity:1;" d="M 2.933594 17.140625 L 22.425781 46.480469 L 28.300781 38.453125 C 28.570312 38.085938 28.578125 37.59375 28.328125 37.214844 L 5.285156 3.457031 C 4.882812 2.875 3.960938 3.117188 3.910156 3.820312 Z M 2.933594 17.140625 "/>
<path style=" stroke:none;fill-rule:nonzero;fill:rgb(64.705882%,19.607843%,36.862745%);fill-opacity:1;" d="M 19.496094 48.25 C 19.695312 48.664062 20.445312 49.058594 20.980469 48.902344 C 21.519531 48.75 21.582031 48.382812 21.820312 47.882812 C 22.058594 47.382812 22.070312 46.902344 22.425781 46.480469 L 2.933594 17.140625 C 2.675781 17.625 1.960938 17.691406 1.441406 17.882812 C 0.921875 18.078125 0.492188 18.125 0.183594 18.578125 C -0.121094 19.035156 -0.0507812 19.597656 0.441406 20.074219 Z M 19.496094 48.25 "/>
<use xlink:href="#surface8" mask="url(#mask1)"/>
</g>
</svg>
