<?xml version="1.0" encoding="UTF-8"?>
<svg xmlns="http://www.w3.org/2000/svg" xmlns:xlink="http://www.w3.org/1999/xlink" width="48px" height="px" viewBox="0 0 48 103" version="1.1">
<defs>
<filter id="alpha" filterUnits="objectBoundingBox" x="0%" y="0%" width="100%" height="100%">
  <feColorMatrix type="matrix" in="SourceGraphic" values="0 0 0 0 1 0 0 0 0 1 0 0 0 0 1 0 0 0 1 0"/>
</filter>
<mask id="mask0">
  <g filter="url(#alpha)">
<rect x="0" y="0" width="48" height="103" style="fill:rgb(0%,0%,0%);fill-opacity:0.180392;stroke:none;"/>
  </g>
</mask>
<clipPath id="clip1">
  <rect x="0" y="0" width="48" height="103"/>
</clipPath>
<g id="surface5" clip-path="url(#clip1)">
<path style=" stroke:none;fill-rule:nonzero;fill:rgb(0%,0%,0%);fill-opacity:1;" d="M 6.671875 101.957031 C 12.109375 103.414062 16.324219 102.597656 19.949219 97.484375 C 21.03125 95.960938 22.058594 94.476562 22.882812 92.804688 C 27.0625 84.324219 30.425781 73.921875 31.671875 64.515625 C 32.1875 60.636719 32.917969 56.886719 33.496094 53.027344 C 35.816406 37.546875 42.726562 17.878906 30.640625 4.628906 C 29.660156 3.550781 28.410156 2.488281 26.945312 2.542969 C 29.054688 13.46875 28.886719 24.507812 27.03125 35.480469 C 26.171875 40.578125 24.886719 45.605469 24.257812 50.734375 C 23.527344 56.703125 23.6875 62.785156 22.410156 68.660156 C 21.445312 73.082031 19.6875 77.289062 17.941406 81.46875 C 14.984375 88.535156 11.683594 96.152344 6.675781 101.957031 Z M 6.671875 101.957031 "/>
</g>
<mask id="mask1">
  <g filter="url(#alpha)">
<rect x="0" y="0" width="48" height="103" style="fill:rgb(0%,0%,0%);fill-opacity:0.180392;stroke:none;"/>
  </g>
</mask>
<clipPath id="clip2">
  <rect x="0" y="0" width="48" height="103"/>
</clipPath>
<g id="surface8" clip-path="url(#clip2)">
<path style=" stroke:none;fill-rule:nonzero;fill:rgb(0%,0%,0%);fill-opacity:1;" d="M 20.277344 27.1875 C 19.871094 27.066406 19.386719 27.472656 19.195312 28.097656 C 19.007812 28.722656 19.183594 29.328125 19.585938 29.449219 C 19.992188 29.574219 20.476562 29.164062 20.667969 28.539062 C 20.855469 27.914062 20.683594 27.308594 20.277344 27.1875 Z M 20.277344 27.1875 "/>
</g>
<mask id="mask2">
  <g filter="url(#alpha)">
<rect x="0" y="0" width="48" height="103" style="fill:rgb(0%,0%,0%);fill-opacity:0.180392;stroke:none;"/>
  </g>
</mask>
<clipPath id="clip3">
  <rect x="0" y="0" width="48" height="103"/>
</clipPath>
<g id="surface11" clip-path="url(#clip3)">
<path style=" stroke:none;fill-rule:nonzero;fill:rgb(0%,0%,0%);fill-opacity:1;" d="M 26.628906 29.167969 C 26.222656 29.046875 25.738281 29.453125 25.550781 30.078125 C 25.359375 30.703125 25.535156 31.308594 25.941406 31.429688 C 26.347656 31.554688 26.832031 31.144531 27.019531 30.519531 C 27.210938 29.894531 27.035156 29.289062 26.628906 29.167969 Z M 26.628906 29.167969 "/>
</g>
<mask id="mask3">
  <g filter="url(#alpha)">
<rect x="0" y="0" width="48" height="103" style="fill:rgb(0%,0%,0%);fill-opacity:0.180392;stroke:none;"/>
  </g>
</mask>
<clipPath id="clip4">
  <rect x="0" y="0" width="48" height="103"/>
</clipPath>
<g id="surface14" clip-path="url(#clip4)">
<path style=" stroke:none;fill-rule:nonzero;fill:rgb(0%,0%,0%);fill-opacity:1;" d="M 21.097656 20.980469 C 20.691406 20.855469 20.207031 21.265625 20.015625 21.890625 C 19.828125 22.515625 20 23.121094 20.40625 23.242188 C 20.8125 23.363281 21.296875 22.957031 21.488281 22.332031 C 21.675781 21.707031 21.5 21.101562 21.097656 20.980469 Z M 21.097656 20.980469 "/>
</g>
<mask id="mask4">
  <g filter="url(#alpha)">
<rect x="0" y="0" width="48" height="103" style="fill:rgb(0%,0%,0%);fill-opacity:0.180392;stroke:none;"/>
  </g>
</mask>
<clipPath id="clip5">
  <rect x="0" y="0" width="48" height="103"/>
</clipPath>
<g id="surface17" clip-path="url(#clip5)">
<path style=" stroke:none;fill-rule:nonzero;fill:rgb(0%,0%,0%);fill-opacity:1;" d="M 27.621094 23.441406 C 27.214844 23.320312 26.730469 23.726562 26.539062 24.351562 C 26.351562 24.976562 26.527344 25.582031 26.933594 25.707031 C 27.335938 25.828125 27.820312 25.421875 28.011719 24.796875 C 28.199219 24.171875 28.027344 23.566406 27.621094 23.441406 Z M 27.621094 23.441406 "/>
</g>
<mask id="mask5">
  <g filter="url(#alpha)">
<rect x="0" y="0" width="48" height="103" style="fill:rgb(0%,0%,0%);fill-opacity:0.180392;stroke:none;"/>
  </g>
</mask>
<clipPath id="clip6">
  <rect x="0" y="0" width="48" height="103"/>
</clipPath>
<g id="surface20" clip-path="url(#clip6)">
<path style=" stroke:none;fill-rule:nonzero;fill:rgb(0%,0%,0%);fill-opacity:1;" d="M 9.121094 80.578125 C 8.738281 80.464844 8.285156 80.847656 8.105469 81.4375 C 7.925781 82.027344 8.089844 82.601562 8.472656 82.714844 C 8.855469 82.832031 9.308594 82.445312 9.488281 81.855469 C 9.667969 81.265625 9.503906 80.695312 9.121094 80.578125 Z M 9.121094 80.578125 "/>
</g>
<mask id="mask6">
  <g filter="url(#alpha)">
<rect x="0" y="0" width="48" height="103" style="fill:rgb(0%,0%,0%);fill-opacity:0.180392;stroke:none;"/>
  </g>
</mask>
<clipPath id="clip7">
  <rect x="0" y="0" width="48" height="103"/>
</clipPath>
<g id="surface23" clip-path="url(#clip7)">
<path style=" stroke:none;fill-rule:nonzero;fill:rgb(0%,0%,0%);fill-opacity:1;" d="M 15.414062 82.34375 C 15.03125 82.230469 14.578125 82.613281 14.398438 83.203125 C 14.21875 83.792969 14.382812 84.367188 14.765625 84.480469 C 15.148438 84.597656 15.601562 84.210938 15.78125 83.621094 C 15.960938 83.03125 15.796875 82.460938 15.414062 82.34375 Z M 15.414062 82.34375 "/>
</g>
<mask id="mask7">
  <g filter="url(#alpha)">
<rect x="0" y="0" width="48" height="103" style="fill:rgb(0%,0%,0%);fill-opacity:0.180392;stroke:none;"/>
  </g>
</mask>
<clipPath id="clip8">
  <rect x="0" y="0" width="48" height="103"/>
</clipPath>
<g id="surface26" clip-path="url(#clip8)">
<path style=" stroke:none;fill-rule:nonzero;fill:rgb(0%,0%,0%);fill-opacity:1;" d="M 11.632812 74.164062 C 11.25 74.046875 10.796875 74.433594 10.617188 75.023438 C 10.4375 75.613281 10.601562 76.183594 10.984375 76.300781 C 11.367188 76.414062 11.820312 76.03125 12 75.441406 C 12.179688 74.851562 12.015625 74.277344 11.632812 74.164062 Z M 11.632812 74.164062 "/>
</g>
<mask id="mask8">
  <g filter="url(#alpha)">
<rect x="0" y="0" width="48" height="103" style="fill:rgb(0%,0%,0%);fill-opacity:0.180392;stroke:none;"/>
  </g>
</mask>
<clipPath id="clip9">
  <rect x="0" y="0" width="48" height="103"/>
</clipPath>
<g id="surface29" clip-path="url(#clip9)">
<path style=" stroke:none;fill-rule:nonzero;fill:rgb(0%,0%,0%);fill-opacity:1;" d="M 17.652344 76.074219 C 17.269531 75.960938 16.8125 76.34375 16.632812 76.933594 C 16.453125 77.523438 16.621094 78.09375 17 78.210938 C 17.382812 78.324219 17.839844 77.941406 18.019531 77.351562 C 18.199219 76.761719 18.03125 76.1875 17.652344 76.074219 Z M 17.652344 76.074219 "/>
</g>
</defs>
<g id="surface1">
<path style=" stroke:none;fill-rule:nonzero;fill:rgb(7.843137%,81.960784%,87.45098%);fill-opacity:1;" d="M 6.671875 101.957031 C 12.109375 103.414062 16.324219 102.597656 19.949219 97.484375 C 21.03125 95.960938 22.058594 94.476562 22.882812 92.804688 C 27.0625 84.324219 30.425781 73.921875 31.671875 64.515625 C 32.1875 60.636719 32.917969 56.886719 33.496094 53.027344 C 35.816406 37.546875 42.726562 17.878906 30.640625 4.628906 C 29.660156 3.550781 28.410156 2.488281 26.945312 2.542969 C 29.054688 13.46875 28.886719 24.507812 27.03125 35.480469 C 26.171875 40.578125 24.886719 45.605469 24.257812 50.734375 C 23.527344 56.703125 23.6875 62.785156 22.410156 68.660156 C 21.445312 73.082031 19.6875 77.289062 17.941406 81.46875 C 14.984375 88.535156 11.683594 96.152344 6.675781 101.957031 Z M 6.671875 101.957031 "/>
<use xlink:href="#surface5" mask="url(#mask0)"/>
<path style=" stroke:none;fill-rule:nonzero;fill:rgb(7.843137%,81.960784%,87.45098%);fill-opacity:1;" d="M 9.128906 53.925781 C 11.375 44.773438 13.367188 35.574219 14.699219 26.292969 C 15.265625 22.347656 15.742188 18.335938 15.214844 14.386719 C 14.796875 11.230469 13.75 7.964844 14.773438 4.949219 C 15.542969 2.671875 17.515625 0.839844 19.851562 0.234375 C 22.390625 -0.421875 25.15625 0.355469 27.289062 1.875 C 29.421875 3.394531 30.984375 5.589844 32.191406 7.90625 C 36.449219 16.089844 36.441406 25.089844 35.117188 33.882812 C 33.648438 43.601562 31.882812 54.976562 29.742188 66.082031 C 27.734375 76.503906 25.277344 82.933594 21.796875 91.101562 C 20.234375 94.769531 18.949219 97.703125 16.625 100.15625 C 12.347656 104.667969 5.964844 103.433594 2.691406 99.0625 C -0.414062 94.921875 -0.488281 91.042969 0.75 86.152344 C 3.464844 75.445312 6.476562 64.71875 9.128906 53.925781 Z M 9.128906 53.925781 "/>
<use xlink:href="#surface8" mask="url(#mask1)"/>
<use xlink:href="#surface11" mask="url(#mask2)"/>
<use xlink:href="#surface14" mask="url(#mask3)"/>
<use xlink:href="#surface17" mask="url(#mask4)"/>
<use xlink:href="#surface20" mask="url(#mask5)"/>
<use xlink:href="#surface23" mask="url(#mask6)"/>
<use xlink:href="#surface26" mask="url(#mask7)"/>
<use xlink:href="#surface29" mask="url(#mask8)"/>
<path style=" stroke:none;fill-rule:nonzero;fill:rgb(13.72549%,12.156863%,12.54902%);fill-opacity:1;" d="M 33.398438 89.6875 C 33.808594 87.554688 32.664062 85.152344 32.839844 82.992188 C 30.582031 82.574219 29.226562 81.53125 27.03125 82.710938 C 25.15625 83.71875 24.019531 85.785156 23.625 87.8125 C 23.234375 89.832031 23.519531 92.15625 24.867188 93.789062 C 26.367188 95.601562 28.269531 95.695312 30.441406 96 C 30.757812 95.390625 31.753906 94.777344 31.941406 94.113281 C 32.363281 92.613281 33.101562 91.214844 33.394531 89.6875 Z M 33.398438 89.6875 "/>
<path style=" stroke:none;fill-rule:nonzero;fill:rgb(25.490196%,25.098039%,25.882353%);fill-opacity:1;" d="M 32.570312 82.933594 C 29.875 82.414062 27.125 84.90625 26.425781 88.5 C 25.730469 92.097656 27.355469 95.429688 30.050781 95.945312 C 32.75 96.464844 35.5 93.972656 36.199219 90.375 C 36.894531 86.78125 35.269531 83.449219 32.570312 82.933594 Z M 32.570312 82.933594 "/>
<path style=" stroke:none;fill-rule:nonzero;fill:rgb(0%,0%,0%);fill-opacity:1;" d="M 32.230469 86.683594 C 31.261719 86.496094 30.234375 87.613281 29.933594 89.175781 C 29.628906 90.734375 30.167969 92.152344 31.136719 92.335938 C 32.101562 92.523438 33.132812 91.40625 33.433594 89.847656 C 33.734375 88.285156 33.195312 86.867188 32.230469 86.683594 Z M 32.230469 86.683594 "/>
<path style=" stroke:none;fill-rule:nonzero;fill:rgb(13.72549%,12.156863%,12.54902%);fill-opacity:1;" d="M 45.082031 31.03125 C 45.386719 28.878906 44.007812 26.476562 44.078125 24.308594 C 41.800781 24.003906 40.519531 23.082031 38.382812 24.367188 C 36.558594 25.464844 35.523438 27.585938 35.230469 29.628906 C 34.9375 31.664062 35.332031 33.976562 36.757812 35.539062 C 38.347656 37.277344 40.105469 37.289062 42.289062 37.488281 C 42.578125 36.863281 43.6875 36.191406 43.84375 35.519531 C 44.191406 34 44.859375 32.570312 45.082031 31.03125 Z M 45.082031 31.03125 "/>
<path style=" stroke:none;fill-rule:nonzero;fill:rgb(25.490196%,25.098039%,25.882353%);fill-opacity:1;" d="M 43.925781 24.28125 C 41.207031 23.894531 38.582031 26.519531 38.0625 30.144531 C 37.539062 33.765625 39.324219 37.015625 42.042969 37.402344 C 44.765625 37.789062 47.390625 35.167969 47.910156 31.542969 C 48.429688 27.921875 46.648438 24.667969 43.925781 24.28125 Z M 43.925781 24.28125 "/>
<path style=" stroke:none;fill-rule:nonzero;fill:rgb(0%,0%,0%);fill-opacity:1;" d="M 43.769531 28.046875 C 42.792969 27.90625 41.820312 29.070312 41.59375 30.644531 C 41.367188 32.21875 41.976562 33.609375 42.949219 33.746094 C 43.925781 33.886719 44.898438 32.722656 45.125 31.148438 C 45.351562 29.574219 44.742188 28.183594 43.769531 28.046875 Z M 43.769531 28.046875 "/>
</g>
</svg>
