<?xml version="1.0" encoding="UTF-8"?>
<svg xmlns="http://www.w3.org/2000/svg" xmlns:xlink="http://www.w3.org/1999/xlink" width="48px" height="px" viewBox="0 0 48 78" version="1.1">
<g id="surface1">
<path style=" stroke:none;fill-rule:nonzero;fill:rgb(13.72549%,12.156863%,12.54902%);fill-opacity:1;" d="M 9.621094 21.40625 C 4.308594 14.878906 6.1875 7.285156 2.382812 0.15625 C 5.425781 0.28125 8.496094 0.714844 11.285156 1.910156 C 16.773438 4.261719 21.3125 11.472656 20.738281 17.476562 C 20.273438 22.371094 15.464844 26.960938 10.964844 22.828125 C 10.464844 22.371094 10.019531 21.894531 9.617188 21.402344 Z M 9.621094 21.40625 "/>
<path style=" stroke:none;fill-rule:nonzero;fill:rgb(7.843137%,81.960784%,87.45098%);fill-opacity:1;" d="M 7.03125 13.558594 C 6.699219 13.652344 6.363281 13.652344 6.046875 13.492188 C 5.378906 13.160156 5.1875 12.3125 5.105469 11.574219 C 4.617188 7.390625 4.441406 4.015625 2.382812 0.15625 C 5.425781 0.28125 8.496094 0.714844 11.285156 1.910156 C 14.070312 3.101562 15.828125 4.75 14.882812 7.972656 C 14.5 9.273438 13.453125 10.441406 12.105469 10.660156 C 11.488281 10.761719 10.832031 10.667969 10.246094 10.878906 C 9.414062 11.179688 8.921875 11.996094 8.34375 12.65625 C 8 13.054688 7.519531 13.417969 7.027344 13.558594 Z M 7.03125 13.558594 "/>
<path style=" stroke:none;fill-rule:nonzero;fill:rgb(76.862745%,60.392157%,42.352941%);fill-opacity:1;" d="M 45.007812 77.386719 C 45.984375 77.933594 47.0625 78.101562 47.675781 77.261719 C 48.046875 76.757812 48.027344 76.078125 47.96875 75.453125 C 47.550781 71.179688 26.128906 19.613281 22.117188 18.398438 C 19.199219 17.515625 15.589844 18.8125 13.953125 21.355469 C 12.234375 24.023438 11.925781 24.332031 13.132812 27.699219 C 14.152344 30.539062 31.054688 62.949219 43.589844 76.277344 C 43.976562 76.691406 44.480469 77.09375 45.011719 77.386719 Z M 45.007812 77.386719 "/>
<path style=" stroke:none;fill-rule:nonzero;fill:rgb(7.843137%,81.960784%,87.45098%);fill-opacity:1;" d="M 2.597656 20.25 C 2.425781 20.851562 2.242188 21.496094 2.417969 22.101562 C 2.855469 23.582031 5.214844 23.613281 6.230469 22.441406 C 7.25 21.269531 7.261719 19.5625 7.136719 18.019531 C 6.882812 14.929688 6.425781 11.445312 5.117188 8.617188 C 3.929688 12.246094 3.6875 16.460938 2.597656 20.25 Z M 2.597656 20.25 "/>
<path style=" stroke:none;fill-rule:nonzero;fill:rgb(7.843137%,81.960784%,87.45098%);fill-opacity:1;" d="M 2.121094 26.316406 C 3.441406 26.351562 4.835938 27.332031 4.546875 28.90625 C 4.292969 30.292969 2.574219 31.183594 1.292969 30.59375 C 0.246094 30.113281 -0.164062 28.867188 0.0664062 27.796875 C 0.296875 26.746094 1.191406 26.292969 2.125 26.316406 Z M 2.121094 26.316406 "/>
</g>
</svg>
