<?xml version="1.0" encoding="UTF-8"?><svg xmlns="http://www.w3.org/2000/svg"><defs><style>.neck-1{fill:#85d9a5;}.neck-2{isolation:isolate;}.neck-3{mix-blend-mode:multiply;opacity:.17;}</style></defs><g class="neck-2"><g id="Layer_2"><g id="Neck"><g id="Neck-Scarf3"><path class="neck-3" d="M60.76,225.25c47.72,12.65,97.77,1.22,131.45-34.87,40.98-43.9,63.93-105.95,80.12-166.24,10.28,40.98,5.5,85.06-10.31,124.24s-42.29,73.58-73.98,101.52c-25.23,22.24-57.34,41.45-90.6,36.43-22.77-3.44-42.68-18.09-56.9-36.2-4.57-5.83-29.15-37.47-22.18-45.31,3.14-3.53,11.85,6.63,15.93,9.18,8.15,5.09,17.19,8.78,26.46,11.24Z"/><path class="neck-1" d="M235.01,309.73c-1.88,12.22-3.96,24.41-6.26,36.56-6.93,36.6-12.28,77.56,4.26,112.46,2.01,4.23,4.62,8.66,9,10.32,2.64,1,5.69,.87,8.12,2.33,6.17,3.72,4.15,14.61,10.31,18.33,4.22,2.55,10.04-.2,12.5-4.48s2.47-9.48,2.36-14.42c-1.38-62.79-13.16-123.16-6.63-186.17,5.9-56.9,17.66-113.64,14.39-170.75-.02-.33-17.03,10.35-18.53,11.8-21.88,21.16-16.66,64.83-18.96,92.84-2.51,30.51-5.92,60.93-10.56,91.17Z"/><path class="neck-1" d="M17.77,411.18c-8.3,50.89-25,80.48-14.29,130.92,1.24,5.85,4.43,12.91,10.41,12.79,3.47-.07,6.31-2.69,9.59-3.82,5.4-1.87,11.31,.44,16.31,3.19s10.04,6.06,15.75,6.3,12.08-4.24,11.28-9.89c-20.93-34.19-12.46-56.06-10.42-96.1,2.05-40.03,2.79-81.39,2.39-121.47-.23-23.14-8.97-43.09-16.85-64.94-4.49-12.45-28.1-51.91-25.68-17.12,3.81,54.77,10.49,105.04,1.5,160.13Z"/><path class="neck-3" d="M242.11,252.67c3.7-4.6,7.39-9.21,11.09-13.81-2.12,23.97-4.23,47.95-6.35,71.92,4.71-1.05,6.61-6.64,7.45-11.39,4.48-25.38,2.17-52.06,10.68-76.39,3.96-11.32,11.34-21.24,14.48-32.87,3.45-12.76,4.06-28.86,4.01-41.95,0,1.85-9.48,10.4-10.81,12.08-2.89,3.65-5.6,7.45-8.12,11.37-5.14,8-9.48,16.52-12.94,25.38-7.2,18.45-8.16,36.2-9.49,55.66Z"/><path class="neck-3" d="M31.5,316.38c8.99,43.66-9.87,89.05-3.29,133.14,5.23,4.66,3.05-14.47,4.06-19.98,1.31-7.13,2.47-14.29,3.48-21.47,2.09-14.81,3.55-29.7,4.37-44.63s1.02-29.89,.58-44.84c-.15-5.07-3.17-17.37-1.11-21.77,2.48-5.28,9.79,1.67,14.49,4.35-6.81-15.82-8.23-32.43-17.33-47.63-2.34-3.9-5.03-7.77-8.89-10.16-10.36-6.43-11.96-6.52-11.28,2.13,.63,7.92-.14,24.85,2.18,31.06,1.53,4.1,4.57,7.46,6.49,11.39,4.04,8.28,4.38,19.39,6.23,28.41Z"/><path class="neck-1" d="M38.48,223.17c16.69,22,41.44,26.51,69.02,27.88,20.88,1.04,41.24-7.16,59.03-18.12,38.21-23.54,53.37-57.09,72.66-97.61,9.51-19.98,16.75-40.98,22.24-62.41,5.14-20.09,10.3-40.23,7.44-60.77-.44-3.18-.21-6.65,1.71-9.22,5.19-6.94,11.47,.19,15.51,3.64,1.92,1.64,4.88,.9,7.24,1.64,2.37,.74,4.44,2.29,5.91,4.28s1.6,4.6,3.38,6.1c1.91,1.61,4.57,1.64,6.39,3.68s2.78,4.98,2.92,7.73c.24,4.77-1.38,9.42-1.49,14.18-.12,5.38-1.02,10.88-1.73,16.21-1.42,10.67-3.38,21.27-5.82,31.76-4.86,20.92-11.59,41.37-19.48,61.33-9.75,24.64-21.27,48.54-33.41,72.08-20.82,40.35-33.62,52.91-72.45,76.44-17.41,10.55-37.24,17.6-57.58,18.26s-41.2-5.4-56.78-18.51c-17.49-14.72-34.5-20.59-42.74-41.91-8.1-20.95-7.5-21.23-13.14-42.99-5.42-20.91-9.49-40.79-2.04-61.93,.87,4.86,2.54,12.14,3.94,15.65,3.65,9.17,8.73,17.92,13.32,26.64,4.74,9.01,9.82,17.87,15.98,25.99Z"/><path class="neck-3" d="M203.75,219.98c44.23-53.69,73.11-119.88,82.39-188.81,.96-7.13,.68-18.2-7.32-20.77-4.85,16.09-3.19,36.14-6.92,53.2-4.02,18.42-9.89,36.39-16.83,53.9-14.1,35.57-32.68,69.15-51.33,102.49Z"/><path class="neck-3" d="M295.03,51.92c-3.64,82.42-43.35,153.22-94.62,220.72,3.35-20.06,11.41-40.68,21.43-55.66,11.66-17.43,22.52-35.41,32.17-54.03,9.42-18.17,17.71-36.95,24.44-56.28,5.92-17.02,5.29-40.61,16.58-54.75Z"/><path class="neck-3" d="M69.66,288.75c14.54,8.99,32.59,15.27,51.62,14.6,35.14-1.24,74.42-33.25,73.07-70.55,.31,8.57-28.12,27.59-34.92,31.57-10.58,6.19-21.16,5.51-32.9,4.81-19.25-1.16-37.14-7.72-52.02-16.87,11.92,16.45,34.09,27.7,58.42,29.65-10.64,6.26-34.21,4.32-45.38,1.95-9.24-1.96-35.68-11.96-41.32-17.68,6.76,6.86,14.77,17.16,23.44,22.52Z"/><path class="neck-3" d="M57.4,262.6c-17.26-2.69-31.22-16.32-38.96-31.98-6.82-13.81-12.43-26.69-12.43-42.98,5.03,14.22,10.12,29.83,18.81,42.46,6.01,8.73,22.93,25.97,32.58,32.51Z"/><path class="neck-3" d="M251.44,351.86c6.1,12.25,4.74,22.58,6.45,33.39,1.84,11.65,3.27,23.36,4.28,35.11,1.94,22.53,4.62,48.06,.93,70.47-9.77-.58-6.75-18.77-7.01-25.15-.26-6.3,2.11-19.77-3.61-23.9-2.03-1.47-4.49-2.56-5.78-4.72-1.29-2.15-1.09-4.85-.85-7.34,2.49-25.82,6.64-51.93,5.58-77.86Z"/><path class="neck-3" d="M32.24,474.21c-2.24,22.79-4.47,23.59-6.71,46.38-1.15,11.74-7.56,33.56-2.06,30.48,4.98-2.79,14.02,1.67,21.25,5.72-6.38-20.14-4.06-35.25-6.21-52.91-1.89-15.6,4.06-24.3-6.27-29.68Z"/></g></g></g></g></svg>
