<?xml version="1.0" encoding="UTF-8"?><svg id="Layer_2" xmlns="http://www.w3.org/2000/svg"><defs><style>.spiderweb-1{stroke-width:3px;}.spiderweb-1,.spiderweb-2,.spiderweb-3{fill:none;stroke:#000;stroke-linecap:round;stroke-miterlimit:10;}.spiderweb-2{stroke-width:4px;}.spiderweb-3{stroke-width:5px;}</style></defs><g id="Neck"><g id="Neck-SpiderWeb"><path class="spiderweb-3" d="M3.13,163.27c52.55,.22,105.92-17.33,150.72-42.62,51.83-29.27,88.71-68.03,120.83-118.15"/><path class="spiderweb-2" d="M53.52,254.08c59.5-43.87,100-100.23,109.39-138.64"/><path class="spiderweb-2" d="M163.51,115.77c25.55,45.51,38.58,97.97,37.29,150.15"/><path class="spiderweb-2" d="M163.59,114.74c49.27,25.82,106.74,51.95,155.72,63.05"/><path class="spiderweb-2" d="M165.41,114.96c81.88-10,143.16-34.3,166.21-51.75"/><path class="spiderweb-2" d="M138.38,128.86c7.83-4.03,15.45,3.92,17.17,9.55,4.31-4.6,11.5-6.24,17.37-3.95,2.91-4.9,8.3-8.25,13.98-8.69-1.21-5.93,1.98-12.48,7.38-15.19-2.39-5.59-1.98-12.31,1.07-17.57"/><path class="spiderweb-2" d="M110.93,141.31c14.75-2.23,27.71,8.55,28.53,22.94,11.73-9.42,28.57-12.01,42.59-6.54,5.31-11.02,16.32-19.09,28.43-20.84-4.96-9.89-2.84-22.86,5.01-30.65-6.12-7.8-7.16-19.24-2.55-28.02"/><path class="spiderweb-2" d="M85.61,150c19.97,2.81,31.37,14.25,33.53,42.53,14.08-6.18,23.03-7.84,38.41-7.77s27.87,5.89,37.8,17.64c4.01-16.04,5.41-24.76,15.73-37.68,5.96-7.46,20.53-14.73,29.97-13.35-5.28-9.07-6.75-20.28-4-30.41,2.75-10.13,9.69-19.05,18.83-24.21-11.86-11.38-17.98-28.47-16.04-44.8"/><path class="spiderweb-2" d="M39.94,160.72c16.17-.49,28.67,6.25,38.14,19.37,9.46,13.12,15.61,31,10.05,46.18,17.94-11.41,36.12-16.5,57.25-14.2,21.13,2.3,38.93,8.29,54,23.29,6.27-16.5,16.8-38.61,29.27-51.19,14.5-14.62,35.98-19.92,50.55-17.34-10.71-13.46-13.9-32.47-14.09-40.15-.34-13.83,3.38-30.33,15.7-37.48-15.98-13.77-24.94-41.03-23.65-61.2"/><path class="spiderweb-2" d="M2,163.27c18.25,5.55,34.15,18.44,43.36,35.14,9.21,16.71,12.83,38.26,7.77,56.65,25.73-9.58,53.26-21.11,96.29-12.64,26.72,5.26,51.43,23.47,51.43,23.47,0,0,27.43-47.35,55.03-65.97,14.8-9.98,42.49-22.14,63.43-22.14-32.77-46.11-13.78-84.36,12.31-114.58-38.57-8.41-51.18-37.17-56.94-60.71"/><path class="spiderweb-2" d="M45.66,199.36c-13.95-7.23-26.92-14.61-40.15-21.63"/><path class="spiderweb-2" d="M8.04,195.61c5.59,.26,14.32-2.97,19.47-5.94"/><path class="spiderweb-2" d="M293.37,39.74c-.14-7.84,.63-15.69,2.27-23.36"/><line class="spiderweb-1" x1="120.3" y1="212.98" x2="120.3" y2="290.75"/><ellipse cx="120.26" cy="294.37" rx="9.4" ry="11.14"/><circle cx="120.26" cy="308.17" r="5.52"/><path d="M114.55,291.09c-3.36-4.16-7.49-7.84-11.9-10.94,5.95-1.28,11.28-5.01,13.75-11.04-1.36,5.36-5.31,10.19-10.69,12.63l.22-2.13c4.24,2.32,8.17,5.19,11.76,8.51l-3.14,2.96h0Z"/><path d="M115.73,302.49c-3.3,2.94-7.16,5.37-11.07,7.35,0,0,.04-1.86,.04-1.86,3.6,2.81,7.03,6.02,9.78,9.68-1.67-1.55-3.41-3.02-5.26-4.3-2.26-1.58-4.75-2.95-7.16-4.33,3.89-2.82,7.59-5.82,10.6-9.56,0,0,3.08,3.03,3.08,3.03h0Z"/><path d="M112.98,299.15c-3.44-.26-6.91-.6-10.36-.59-.03,0-.15,.01-.07,0,.08-.05,.16-.11,.23-.18,.05-.08-.02,.01-.04,.03-.17,.2-.32,.43-.48,.67-2.15,3.42-3.98,7.21-6.21,10.62,1.63-3.83,2.72-7.74,4.3-11.63,.31-.71,.66-1.63,1.53-1.85,.38-.12,.62-.15,.97-.22,1.3-.22,2.64-.39,3.92-.54,2.07-.24,4.12-.44,6.19-.63v4.32h.01Z"/><path d="M111.95,294.69c-2.43-1.54-6.51-4.45-9.01-5.59,.1-.02,.29-.08,.38-.16-3.9,1.8-7.9,3.33-12.13,3.88,1.93-.52,3.69-1.49,5.44-2.43,1.86-1.05,3.74-2.11,5.37-3.38,.22-.16,.56-.27,.82-.28,2.11,.08,3.76,1.07,5.63,1.77,0,0,5.52,2.39,5.52,2.39l-2.02,3.81h0Z"/><path d="M122.53,288.54c3.59-3.32,7.51-6.19,11.76-8.51l.22,2.13c-5.38-2.44-9.32-7.27-10.69-12.63,2.48,6.03,7.8,9.76,13.75,11.04-4.41,3.1-8.54,6.78-11.9,10.94,0,0-3.14-2.96-3.14-2.96h0Z"/><path d="M127.57,299.87c3.01,3.74,6.71,6.74,10.6,9.56,0,0-1.39,.79-1.39,.79-4.11,2.3-7.59,5.61-11.03,8.82,2.97-3.8,5.94-7.64,9.78-10.66,0,0,.04,1.86,.04,1.86-3.91-1.98-7.77-4.41-11.07-7.35,0,0,3.08-3.03,3.08-3.03h0Z"/><path d="M127.25,295.25c3.53,.35,7.04,.63,10.54,1.25,.31,.06,.71,.16,1.02,.34,.2,.15,.49,.46,.57,.65,1.12,2.21,1.78,4.58,2.62,6.85,.69,1.94,1.34,3.89,2.16,5.77-2.23-3.41-4.06-7.2-6.21-10.62-.16-.24-.31-.47-.48-.67-.02-.02-.09-.11-.04-.03,.06,.07,.15,.13,.23,.18,.09,.02-.04,0-.07,0h-.15c-3.39,0-6.82,.33-10.21,.59,0,0,.01-4.32,.01-4.32h0Z"/><path d="M126.26,291.29l5.52-2.39c1.47-.6,2.88-1.24,4.47-1.64,.32-.07,.9-.21,1.44-.08,.2,.05,.42,.14,.58,.26,3.27,2.3,6.92,4.55,10.78,5.78-4.22-.54-8.2-2.07-12.09-3.85,0,0-.05-.03-.05-.03,.09,.08,.28,.15,.38,.16-2.49,1.13-6.6,4.07-9.01,5.59,0,0-2.02-3.81-2.02-3.81h0Z"/></g></g></svg>
