<?xml version="1.0" encoding="UTF-8"?><svg xmlns="http://www.w3.org/2000/svg"><defs><style>.stethoscope-1{stroke-width:17px;}.stethoscope-1,.stethoscope-2{stroke:#494c67;}.stethoscope-1,.stethoscope-2,.stethoscope-3{stroke-miterlimit:10;}.stethoscope-1,.stethoscope-3{fill:none;stroke-linecap:round;}.stethoscope-4,.stethoscope-2{fill:#b4b6c8;}.stethoscope-5{fill:#494c67;}.stethoscope-2{stroke-width:2px;}.stethoscope-3{stroke:#b4b6c8;stroke-width:11px;}.stethoscope-6{isolation:isolate;}.stethoscope-7{mix-blend-mode:multiply;opacity:.17;}</style></defs><g class="stethoscope-6"><g id="Layer_2"><g id="Neck"><g id="Neck-Stethoscope"><path class="stethoscope-7" d="M33.04,200.83c2.55,3.21,12.51,17.31,16.07,20.53,3.38,3.06,7.99,4.98,12.59,4.35,5.14-.7,10.02,1.07,14.57,3.73,7.37,4.3,13.09,11.33,15.81,19.42,2.79,8.31,2.23,18.03-2.88,25.15s-15.18,10.77-23.19,7.23c-5.05-2.23-8.71-6.85-11.11-11.82s-3.75-10.37-5.49-15.61c-4.54-13.66-11.82-26.21-18.29-39.07-3.01-5.98-5.85-12.06-8.17-18.34-1.54-4.18-5.79-12.84-3.85-17.22,2.56,2.5,4.24,7.4,6.2,10.57,2.37,3.84,4.93,7.56,7.74,11.09Z"/><ellipse class="stethoscope-4" cx="67.9" cy="253.36" rx="19.06" ry="25.94" transform="translate(-96.91 49.31) rotate(-23.93)"/><ellipse class="stethoscope-7" cx="67.9" cy="253.36" rx="19.06" ry="25.94" transform="translate(-96.91 49.31) rotate(-23.93)"/><ellipse class="stethoscope-4" cx="63.7" cy="255.22" rx="19.06" ry="25.94" transform="translate(-98.03 47.76) rotate(-23.93)"/><path class="stethoscope-7" d="M191.3,286.53c10.77-4.03,19.43-12.3,26.62-21.27,21.46-26.76,32.05-60.37,42.2-93.13,15.06-48.6,27.95-97.73,31.51-148.49,8.63,11.63,13,27.02,11.47,41.42-1.54,14.4-6.36,28.2-10.44,42.1-6.22,21.19-10.76,42.82-16.9,64.03-2.65,9.15-15.25,46.55-20.38,55.65-7.17,12.74-14.76,25.78-23.29,37.66-9.1,12.69-20.09,22.79-33.15,31.29-7.72,5.02-17.44,7.71-26.29,5.14-4.56-1.32-8.67-4.25-11.47-8.08-1.75-2.39-6.05-9.39-.35-8.82,2.24,.23,4.44,2.1,6.54,2.89,2.52,.95,5.17,1.52,7.84,1.78,5.42,.53,10.98-.25,16.07-2.16Z"/><path class="stethoscope-5" d="M52.44,252.57c-2.3,0-4.58-.98-6.16-2.89-12.43-14.97-22.95-31.53-31.27-49.12-2.36-4.99-4.54-10.07-6.54-15.22s-4.32-10.34-5.4-15.62S.23,159.53,.03,154.08c-.11-2.82,.06-5.66,.51-8.44,.23-1.45,.54-2.89,.91-4.31,.14-.54,1.34-3.16,1.12-3.55,.85,0,8.64,18.59,10.39,22.79,5.74,13.78,13,26.63,19.81,39.84,7.16,13.9,15.82,27.02,25.81,39.05,2.82,3.4,2.36,8.44-1.04,11.27-1.49,1.24-3.31,1.85-5.11,1.85Z"/><path class="stethoscope-5" d="M273.02,118.8c-1.33,0-2.68-.31-3.94-.97-4.16-2.18-5.76-7.32-3.58-11.48,12.34-23.54,15.31-50.03,12.17-76.93-1.14-9.81-4.11-18.12-9.34-29.42,4.96,.02,9.9,1.77,13.77,4.87,4.5,3.6,6.94,8.97,9.03,14.17,2.33,5.82,3.64,12.31,4.57,18.48,1.94,12.83,1.39,25.95-1.22,38.65s-7.64,26.07-13.93,38.06c-1.52,2.9-4.48,4.56-7.54,4.56Z"/><path class="stethoscope-7" d="M133.81,242.74c-2.53-7.91,4.53-16.68,8.94-22.63,5.06-6.83,10.76-13.19,16.97-18.99,18.28-17.08,41.14-27.91,63.34-38.7,14.94-7.26,29.72-16.07,39.62-29.41,.96-1.3,1.9-2.69,2.16-4.28s-.32-3.44-1.76-4.17c-1.71-.87-3.75,.1-5.43,1.05-19.69,11.23-39.39,22.46-59.08,33.68-10.93,6.23-21.89,12.48-31.97,20.03-13.18,9.87-24.66,21.82-35.4,34.29-5.28,6.12-10.6,12.84-11.63,20.86-.8,6.22,1.25,12.76,5.47,17.41,2.88,3.17,11.36,9.47,15.72,5.21,3.45-3.36-5.76-10.59-6.96-14.34Z"/><path class="stethoscope-3" d="M189.13,163.83c-22.13,14.81-44.86,30.21-59.5,52.45-4.01,6.1-7.42,12.85-8.06,20.12s1.96,15.16,7.95,19.34c4.07,2.85,6.06,3.69,10.82,5.14"/><path class="stethoscope-3" d="M245.64,211.67c-11.25,24.13-23,48.95-42.74,66.82-5.41,4.9-11.56,9.3-18.65,11.04s-15.28,.38-20.33-4.9c-3.44-3.59-4.57-5.43-6.74-9.9"/><path class="stethoscope-1" d="M184.55,166.28c23.35-16.48,55.29-28.65,90.12-59.37-7.63,40.02-14.07,68.83-29.39,106.58"/><path class="stethoscope-1" d="M193.75,160.19c16.94-9.35,33.15-7.4,42.48-.55,11.28,8.29,14.83,25.76,12.54,44.4"/><ellipse class="stethoscope-7" cx="63.7" cy="255.22" rx="11.9" ry="16.19" transform="translate(-98.03 47.76) rotate(-23.93)"/><ellipse class="stethoscope-2" cx="59.16" cy="256.35" rx="11.9" ry="16.19" transform="translate(-98.88 46.02) rotate(-23.93)"/><path class="stethoscope-5" d="M145.91,268.09c-.4,.47-.87,.91-1.38,1.33-2.88,2.34-7.06,1.32-9.89-.48-3.65-2.33-6.63-5.02-5.84-9.74,.66-3.9,2.45-6.84,6.94-6.93,2.94-.06,5.73,1.27,8.19,2.88,4.74,3.11,5.55,8.81,1.98,12.93Z"/><path class="stethoscope-5" d="M148.06,271.45c-.34,.52-.64,1.08-.91,1.69-1.46,3.41,.66,7.15,3.16,9.38,3.24,2.88,6.64,5.01,10.96,2.96,3.57-1.7,5.91-4.23,4.77-8.57-.74-2.84-2.79-5.16-5.01-7.09-4.28-3.72-9.99-2.93-12.98,1.63Z"/></g></g></g></g></svg>
