<?xml version="1.0" encoding="UTF-8"?><svg xmlns="http://www.w3.org/2000/svg" xmlns:xlink="http://www.w3.org/1999/xlink"><defs><style>.collarblood-1{fill:none;}.collarblood-2{clip-path:url(#clippath5);}.collarblood-3{fill:#f1f2f2;}.collarblood-4{isolation:isolate;}.collarblood-5{mix-blend-mode:multiply;opacity:.18;}</style><clipPath id="clippath5"><path class="collarblood-1" d="M288.14,4.52c-.71-2.47-6.24-6.01-7.64-3.85-43.38,67.16-119.01,113.24-198.47,122.18-4.72,.32-22.51,1.15-28.33,1.15-11.96,0-25.09-.55-35.48-2.36-5.98-1.04-11.55-3.62-17.44-5.09-.99,1.49-.93,6.46-.44,8.88,1.9,9.34,4.32,18.57,7.27,27.64,2.69,8.27,6.17,16.9,13.27,21.93,8.65,6.13,20.94,5.19,30.06-.21,9.12-5.4,17.44-14.2,21.98-23.78,3.61-7.61,7.36-20.02,8.88-25.48,13.56,21.52,35.24,35.84,60.44,40.2,11.04,1.91,22.65,2.03,33.16-1.84,9.59-3.53,17.72-10.16,25.14-17.18,38.95-36.86,62.92-86.42,86.05-134.81,1.11-2.32,2.25-4.91,1.54-7.38Z"/></clipPath></defs><g class="collarblood-4"><g id="Layer_2"><g id="Neck"><g id="Neck-Collar_blood_"><path class="collarblood-5" d="M284.43,5.42c-42.87,68.18-118.37,115.11-198.47,123.56,13.43,22.9,34.67,41.3,60.82,45.82,11.04,1.91,22.65,2.03,33.16-1.84,9.59-3.53,17.72-10.16,25.14-17.18,38.95-36.86,62.31-90.74,85.44-139.13,1.11-2.32,3.17-6.85,2.47-9.32,0,0-7.58-3.48-8.56-1.91Z"/><path class="collarblood-3" d="M280.5,.67c-43.7,67.65-120.11,113.93-200.21,122.39,13.43,22.9,35.8,38.15,61.96,42.68,11.04,1.91,22.65,2.03,33.16-1.84,9.59-3.53,17.72-10.16,25.14-17.18,38.95-36.86,62.92-86.42,86.05-134.81,1.11-2.32,2.25-4.91,1.54-7.38s-6.24-6.01-7.64-3.85Z"/><path class="collarblood-5" d="M72.92,161.22c-4.98,9.36-12.86,18.37-21.98,23.78s-21.41,6.34-30.06,.21c-7.1-5.03-11.09-12.3-12.46-20.89-1.56-9.78-3.48-20.01-5.52-27.61-.64-2.38-2.12-9.95-2.12-9.95,5.89,1.47,11.56,3.58,17.44,5.09,11.58,2.96,23.52,4.62,35.48,4.62,6.04,0,23.55-11.1,27.72-13.41,0,0,0,22.17-8.5,38.16Z"/><path class="collarblood-3" d="M72.92,151.02c-4.54,9.58-12.86,18.37-21.98,23.78s-21.41,6.34-30.06,.21c-7.1-5.03-10.58-13.66-13.27-21.93-2.94-9.06-5.37-18.3-7.27-27.64-.49-2.42-.55-7.39,.44-8.88,5.89,1.47,11.46,4.05,17.44,5.09,10.39,1.8,23.52,2.35,35.48,2.36,6.04,0,24.95-.89,28.81-1.18,0,.48-4.92,18.36-9.59,28.2Z"/><g class="collarblood-2"><g><path d="M200.13,112.22c1.69,.56,1.72,.54,2.18-.93,.42-1.33,1.14-1.86,2.5-1.81,.05,0,.11,.03,.15,.02,1.45-.38,2.94-.54,4.42-.75,.41-.06,.75-.64,1.1-.99,.25-.25,.44-.68,.72-.75,.84-.21,1.36-.6,1.54-1.5,.05-.23,.6-.58,.8-.51,.78,.27,1.24-.17,1.81-.54,1.82-1.18,4.2-.09,4.63,2.04,.1,.5,.41,.96,.62,1.44,.11-.02,.23-.04,.34-.06,.05-.27,.14-.54,.15-.82,.01-1,.5-1.73,1.4-2.04,1.18-.42,1.63-1.14,1.4-2.36-.06-.33,.05-.7,.11-1.24,.81,.03,1.55,.08,2.3,.07,.23,0,.46-.15,.69-.2,.89-.22,1.78-.63,2.66-.62,2.73,.03,3.76,1.68,3.7,3.87-.04,1.35-.58,2.48-1.3,3.59-.82,1.25-2.07,1.28-3.12,.82-1.97-.86-3.84-.43-5.86-.05-.08,.29-.21,.62-.24,.96-.2,1.86-1.78,3.59-3.65,3.87-1.67,.25-3.36,.43-5.04,.6-.54,.05-1.07,.15-1.47-.52-.36-.61-1-.45-1.63-.2-.74,.3-1.53,.46-2.31,.65-.3,.08-.7-.02-.9,.14-1.95,1.59-4.64,.93-6.68,2.22-.69,.44-1.16-.04-1.57-.55-.45-.55-1.06-1.07-.57-1.9,.36-.62,.73-1.24,1.14-1.94Z"/><path d="M202.8,92.82c1.31,1.56,2.08,3.46,1.98,5.68-.08,1.83-1.18,3.13-2.9,3.79-.96,.37-1.82,1.05-2.68,1.66-.8,.56-1.46,1.38-2.32,1.77-1.58,.72-2.33,1.92-2.67,3.53-.26,1.24-1.1,1.89-2.37,1.98-1.11,.08-1.82-.43-2.37-1.6-.31-.67-.71-1.3-1.1-2.01,2.22-2.7,3.7-3.03,6.22-1.1-.66-1.03-.79-1.98-.07-3.07,.46-.7-.19-1.28-1.11-1.14-.31,.04-.62,0-.99,0,.86-3.08,.87-3.1,2.45-3.46-.06-1.96,1.67-1.08,2.75-1.68-.27-1.43,.91-2.29,1.65-3.4,.88-1.32,2.12-1.27,3.54-.95Z"/><path d="M108.66,133.35c-2.54-1.56-2.87-2.16-2.13-3.89,.99,.32,1.52-.34,2.07-1.05,1.18-1.52,2.31-1.49,3.68-.06,.61,.63,1.32,1.16,1.99,1.74,.1-.07,.21-.13,.31-.2,.34,2.48,.45,5.01,1.07,7.41,.69,2.68,1.8,5.26,2.81,7.86,.5,1.3,1.19,2.52,1.76,3.79,.2,.45,.27,.96,.4,1.43-.15,.12-.31,.24-.46,.36-.15-.3-.28-.62-.45-.91-2.03-3.37-3.93-6.8-5.06-10.61-.46-1.53-.84-1.79-2.42-1.89-.21-.01-.41-.01-.62-.02-2.43-.11-3.25-1.05-2.97-3.43,.02-.15,.02-.3,.04-.53Z"/><path d="M172.25,169.34c.57,.07,.98,.12,1.38,.2,.03,0,.04,.4,.01,.41-.4,.11-.81,.17-1.38,.28-.12,.4-.24,1-.46,1.56-.7,1.74-2.25,2.6-3.8,2.14-1.45-.42-2.41-2.17-2.13-3.88,.26-1.61,1.8-3.64,3.33-4.4-.61-2.29,0-3.35,2.24-4.42,.51-.97,.81-1.69,1.27-2.27,.09-.11,.95,.2,1.26,.5,.44,.44,.3,.76-.51,1.89,.4,.66,.94,.99,1.77,1.02,1.05,.04,1.7,.69,1.79,1.56,.09,.89-.56,1.64-1.58,2-.81,.29-1.56,.73-2.33,1.12-1.01,.51-1.25,1.29-.85,2.27Z"/><path d="M182,130.71c-.51,.06-1.03,.2-1.54,.15-2.02-.17-3.05-2.56-1.9-4.31,.33-.5,.56-1.06,.88-1.69-.94-.51-2.02-.86-1.75-2.11,.07-.32,.49-.7,.82-.8,.96-.27,1.55,.33,2.04,1.34,.39-.44,.72-.73,.94-1.09,.18-.3,.22-.69,.35-1.03,.77-2.11,.85-2.15,2.97-1.64l-.03-.02c.76,.84,1.52,1.64,2.81,1.65,.7,0,1.35,.38,1.26,1.26-.09,.86-.73,1.01-1.47,1.02-.78,.02-2.61,1.49-2.82,2.21-.25,.86-.5,1.72-.76,2.59,1.23,.48,1.64,.99,1.28,1.68-.32,.61-.98,.62-2.57-.16-.13,.23-.33,.59-.53,.95,0,0,.02-.02,.02-.02Z"/><path d="M246.43,57.73c0-.07-.06-.26,.01-.38,.12-.21,.3-.47,.5-.54,.14-.05,.52,.17,.55,.32,.11,.55,.5,.73,.94,.96,.73,.38,.93,1.25,.61,2.26-.4,1.27-1.46,1.75-2.7,1.25-.33-.13-.73-.22-1.07-.17-1.38,.23-2.18-.4-2.17-1.76,0-1.03,.98-2.33,2-2.44,.42-.05,.89,.32,1.33,.49Z"/><path d="M192.48,153.49c-1.11-1.95,1.45-2.17,1.62-3.69-.13-.21-.34-.53-.55-.86,.24-.34,.45-.62,.64-.92,1.16-1.77,2.62-2.02,4.06-.48,.95,1.02,2.04,1.68,3.25,2.29,.84,.42,1.53,1.12,2.18,1.87-1.74,.17-2.74-1.17-4.02-2.01-1.28,2.35-3.27,3.63-5.71,4.35-.29,.09-.49,.45-.77,.64-.29,.21-.69,.58-.92,.5-.39-.12-.87-.49-.97-.85-.27-.95,.67-.59,1.17-.84Z"/><path d="M176.71,156.15c-1-.94-1.76-1.66-2.52-2.38,.07-.11,.14-.22,.21-.33,.37,.09,.76,.13,1.11,.27,1.14,.46,2.27,.95,3.4,1.44,1.23,.54,1.67,1.91,.98,3.29-.51,1.01-1.1,1.98-1.71,2.93-.51,.79-1.51,1.12-2.14,.8-.69-.35-.83-1.12-.62-2.18,.15-.72-.1-1.54,.12-2.22,.19-.61,.78-1.1,1.18-1.63Z"/><path d="M180.74,132.29c.51,.89,.84,1.79,.23,2.77-.73,1.16-2.23,1.41-3.57,.6-1.12-.68-1.48-2.11-.81-3.24,.6-1.01,2.19-1.42,3.3-.82,.31,.17,.56,.45,.84,.68v.02Z"/><path d="M188,116.11c-.49,.46-.88,.94-1.39,1.24-.14,.08-.9-.47-.86-.6,.14-.53,.47-1.02,.69-1.44,.15-.78,.15-1.58,.48-2.21,.25-.48,.88-.85,1.42-1.08,.77-.33,3.19,1.19,3.23,2.03,.02,.37-.25,.97-.55,1.1-1.02,.43-2.11,.69-3.03,.98Z"/><path d="M240.72,92.49c-.1,1-.42,1.79-1.28,2.26-.79,.43-1.59,.44-2.35-.04-.92-.57-1.02-1.48-.33-2.3,.23-.27,.48-.56,.56-.88,.2-.76,.46-1.36,1.42-1.3,.96,.06,1.52,.56,1.79,1.43,.09,.29,.13,.6,.18,.83Z"/><path d="M195.06,115.14c2.18-.46,3.57,.48,4.73,2.19-.19,.23-.35,.65-.62,.73-1.13,.33-2.28,.67-3.44,.8-.96,.11-1.54-.66-1.34-1.61,.16-.74,.46-1.45,.67-2.11Z"/><path d="M117.56,119.94c1.26,.02,2.06,.9,2.03,2.21-.03,1.18-1,2.06-2.24,2.03-1.14-.03-1.99-1.04-1.95-2.32,.03-1.14,.93-1.93,2.16-1.91Z"/><path d="M127.74,156.95c.07-1.05,.11-1.85,.16-2.52,.6-.46,1.04-1,1.6-1.19,.62-.21,1.4-.27,2.01-.08,.73,.23,.8,.97,.6,1.69-.29,1.03-.88,1.75-1.97,1.92-.7,.11-1.42,.11-2.4,.18Z"/><path d="M162.26,136.4c-1.57,0-2.68-.53-2.51-1.05,.21-.67,.69-1.4,1.27-1.77,1.11-.72,2.4-.49,3.59-.11,.8,.26,.97,1.26,.26,1.69-.95,.58-2.02,.96-2.6,1.23Z"/><path d="M209.24,120.17c-.02-1.17,.56-2.09,1.54-2.44,.96-.34,1.83,.04,2.13,.94,.33,.97-.91,3.17-1.91,3.37-.92,.18-1.75-.7-1.77-1.86Z"/><path d="M16.66,126.09c1.33-.12,2.36,.19,3.3,.72,1.06,.59,1.47,1.75,.97,2.45-.53,.74-1.69,.78-2.65,.05-.99-.76-1.45-1.81-1.63-3.21Z"/><path d="M206.49,129.05c-.74,.45-1.42,.15-2.01-.26-.63-.44-1.2-.97-1.73-1.52-.96-.99-1.86-2.04-2.79-3.13,1.89,1.16,4.28,1.36,5.88,3.14,.43,.48,.96,.97,.65,1.77Z"/><path d="M210.95,136.07c.03,1.08-.73,1.95-1.72,1.98-1.09,.03-1.81-.62-1.81-1.64,0-1.1,.75-1.89,1.8-1.9,1.04,0,1.71,.59,1.73,1.55Z"/><path d="M172.57,148.82c-1.07-.02-1.86-.81-1.85-1.86,0-.67,1.18-1.79,1.86-1.77,1,.04,1.69,.79,1.67,1.83-.02,1.12-.67,1.81-1.68,1.79Z"/><path d="M194.56,119.25c-.84,.74-1.45,1.35-2.14,1.85-.3,.22-.76,.32-1.15,.34-.81,.03-1.51-.43-1.58-1.17-.04-.44,.51-1.09,.96-1.39,.42-.27,1.08-.3,1.62-.24,.65,.06,1.27,.33,2.29,.61Z"/><path d="M215.26,138.27c.88,.03,1.58,.78,1.52,1.61-.06,.9-.88,1.65-1.76,1.6-.81-.04-1.48-.64-1.46-1.3,.02-.76,1.06-1.93,1.7-1.91Z"/><path d="M133.41,163.27c-.2-.14-.78-.34-1.06-.75-.4-.59,.04-1.02,.58-1.37,.49-.32,.73-1.06,1.53-.78,.76,.26,1.04,.8,.94,1.56-.1,.81-.74,1.32-1.99,1.34Z"/><path d="M159.84,152.13c.85-.03,1.89,.74,1.96,1.46,.07,.71-.55,1.35-1.36,1.38-.87,.04-1.8-.74-1.85-1.54-.04-.69,.51-1.27,1.25-1.3Z"/><path d="M164.81,170.8c.02,1.28-.52,1.93-1.31,1.98-.8,.05-1.33-.46-1.37-1.3-.02-.5,1.25-1.95,1.6-1.75,.5,.3,.86,.84,1.08,1.07Z"/><path d="M211.85,131.66c-.04,.77-.79,1.45-1.56,1.41-.71-.03-1.27-.63-1.23-1.32,.04-.75,.91-1.53,1.7-1.54,.57,0,1.13,.73,1.09,1.45Z"/><path d="M228.81,128.74c.03,.89-.65,1.66-1.5,1.62-.64-.04-1.25-.24-1.27-1.05-.02-.65,.9-1.73,1.47-1.77,.73-.06,1.28,.46,1.3,1.2Z"/><path d="M184.8,119.55c-1.01-.76-2.18-1.39-2.54-3.05,1.53,.17,2.67,.74,3.52,1.81,.54,.67,.27,.97-1.01,1.22l.03,.02Z"/><path d="M157.16,138.37c-.03,.99-1.99,2.15-2.67,1.77-.57-.32-.52-.85-.17-1.3,.3-.39,.65-.8,1.06-1.05,.3-.18,.79-.24,1.11-.12,.32,.12,.52,.54,.67,.7Z"/><path d="M208.33,142.61c-.38,.92-.83,1.64-1.84,1.38-.42-.11-1.1-.67-1.05-.9,.13-.58,.47-1.38,.94-1.57,.93-.38,1.4,.52,1.95,1.09Z"/><path d="M219.42,132.15c0,.98-.66,1.69-1.5,1.67-.66-.02-1.21-.58-1.17-1.19,.03-.52,1.3-1.67,1.81-1.65,.81,.03,.82,.63,.86,1.18Z"/><path d="M166.38,129.25c.6-1.03,2.73-1.96,3.56-1.64,.56,.21,.64,.81,.17,1.21-.55,.47-2.76,.76-3.73,.43Z"/><path d="M145.45,138.83c.43-.75,.87-1.47,1.28-2.21,.46-.84,1-.68,1.62-.24-.2,.62-.42,1.18-.56,1.75-.34,1.37-1.26,1.62-2.34,.7Z"/><path d="M143.85,144.89c.39-.44,.66-.97,1.07-1.14,.45-.19,1.06-.13,1.56,0,.23,.06,.59,.61,.52,.76-.22,.46-.55,1.03-.97,1.2-.79,.32-1.61,.2-2.17-.81Z"/><path d="M137.82,162.15c.62-.5,1.12-.9,1.64-1.32,.86,.59,1.08,1.36,.68,2.15-.18,.35-.8,.68-1.22,.67-.84-.02-.93-.78-1.11-1.5Z"/><path d="M126.97,163.35c-.22,.13-.42,.3-.66,.38-.93,.32-1.72,.02-1.89-.69-.13-.53,.66-1.56,1.36-1.55,.4,0,.92,.34,1.16,.69,.19,.27,.02,.78,0,1.19l.02-.02Z"/><path d="M168.28,131.63c.71-.54,1.16-1.17,1.67-1.21,1-.08,1.36,.86,1.89,1.67-1.19,.63-2.19,.49-3.56-.46Z"/><path d="M203.69,131.7c-.05,.61-.33,1.12-1.08,1.21-.66,.07-1.51-.63-1.31-1.19,.18-.49,.7-.97,1.19-1.21,.49-.24,1.16,.46,1.2,1.2Z"/><path d="M206.96,152.56c.64-.02,1.3,.57,1.35,1.21,.05,.62-.45,1.2-1.09,1.23-.63,.04-1.27-.54-1.34-1.22-.06-.63,.44-1.21,1.07-1.23Z"/><path d="M175.76,129.24c-.12,.69-.59,.99-1.3,.96-.73-.03-1.53-.72-1.27-1.19,.25-.46,.8-.91,1.31-1.04,.63-.16,1.31,.62,1.26,1.27Z"/><path d="M123.67,134.08c.96,.1,1.17,.59,1.2,1.21,.03,.69-.22,1.22-.98,1.33-.7,.1-1.56-.52-1.36-1.09,.21-.59,.8-1.04,1.15-1.45Z"/><path d="M163.33,152.35c.42,.39,.76,.62,.98,.94,.39,.57,.66,1.25-.02,1.76-.59,.44-1.18,.07-1.63-.37-.53-.52-.53-1.05,.1-1.54,.19-.15,.3-.4,.58-.79Z"/><path d="M137.72,130.51c.69-.69,1.34-1.19,2.24-1.07,.31,.04,.68,.26,.84,.51,.1,.15-.1,.59-.28,.8-.74,.86-1.87,.79-2.8-.24Z"/><path d="M200.69,108.58c-.05,.6-.41,1.06-1.15,1.02-.62-.03-1.07-.37-1.1-1.05-.03-.61,.7-1.41,1.19-1.37,.6,.06,1.08,.64,1.07,1.4Z"/><path d="M124.74,158.11c-1.29-.17-1.71-1.04-1.98-1.9-.11-.34,.27-.84,.47-1.39,1.31,.86,1.76,1.82,1.51,3.29Z"/><path d="M159.93,136.81c-.16,.99-.59,1.35-1.28,1.4-.7,.05-1.49-.55-1.24-.97,.3-.5,.86-.99,1.4-1.15,.3-.09,.8,.5,1.12,.72Z"/><path d="M134.8,173.55c-.4,.51-.61,1.05-.96,1.17-.56,.19-1.33-.84-1.16-1.67,.09-.42,.66-.75,1.01-1.11,.34,.5,.68,.99,1.11,1.62Z"/><path d="M129.48,150.8c-.02,.86-.65,1.35-1.34,1.27-.66-.08-1.35-.41-1.16-1.11,.11-.4,.87-.83,1.37-.86,.4-.03,.84,.51,1.13,.7Z"/><path d="M232,109.99q2.23,1.05,2.42,2.44c-1.33,.24-2.69-1.14-2.42-2.44Z"/><path d="M122.55,123.44c1.34,.68,3,.9,3.74,2.47-1.75-.03-2.7-1.32-3.74-2.47Z"/><path d="M192.72,97.09c-.61,.43-1.01,.91-1.24,.84-.47-.14-.84-.58-1.25-.9,.36-.28,.71-.75,1.08-.78,.36-.02,.75,.42,1.41,.84Z"/><path d="M179.78,141.2c-1.46-.04-2.02-.93-2.58-1.96,1.69,.16,2.3,.6,2.58,1.96Z"/><path d="M254.98,58.63c-.46-.56-.98-.94-.92-1.18,.09-.39,.57-.7,.88-1.04,.3,.28,.85,.57,.85,.85,0,.38-.42,.76-.81,1.37Z"/><path d="M180.73,132.27c.42-.52,.85-1.04,1.27-1.56l-.02,.02c1.35,.54,1.38,.85,.14,2.13-.44-.19-.91-.38-1.37-.58v-.02Z"/><path d="M224.55,131.89c-.57,.42-.92,.86-1.31,.9-.26,.03-.59-.51-.89-.8,.4-.33,.76-.74,1.21-.94,.14-.06,.53,.43,1,.84Z"/><path d="M184.15,134.07c1.34,.27,2.17,.81,2.78,1.81-1.37,.19-1.92-.16-2.78-1.81Z"/><path d="M234.14,132.78c-.55,.39-.92,.81-1.11,.74-.41-.15-.72-.55-1.07-.85,.24-.25,.52-.75,.7-.71,.42,.08,.79,.41,1.48,.82Z"/><path d="M220.65,95.33c-.59,.37-.98,.78-1.18,.7-.35-.14-.63-.55-.81-.91-.04-.09,.47-.64,.65-.61,.38,.07,.7,.4,1.34,.81Z"/><path d="M126.94,163.38c.62-.05,1.41-.41,1.57,.59,.04,.28-.35,.9-.53,.89-.92-.04-1.13-.69-1.02-1.5l-.02,.02Z"/><path d="M199.4,123.47c-1.56,.1-1.66,.04-2.19-1.3,1.08-.26,1.54,.45,2.19,1.3Z"/><path d="M134.25,152.6c-.49,.4-.76,.8-1.05,.81-.3,.01-.62-.34-.93-.54,.3-.27,.57-.64,.93-.79,.18-.07,.52,.24,1.05,.51Z"/><path d="M213.14,102.3c-.36-.39-.74-.66-.7-.78,.14-.39,.44-.73,.68-1.09,.25,.21,.73,.46,.7,.62-.07,.39-.37,.74-.68,1.26Z"/><path d="M177.81,128.7c-.56,.28-.88,.58-1.18,.56-.22-.01-.42-.44-.62-.69,.28-.23,.54-.57,.86-.63,.2-.04,.48,.36,.95,.75Z"/><path d="M150.95,136.63c.47-.68,.97-.95,1.59-.58,.12,.07,.15,.63,.02,.76-.5,.5-1.04,.46-1.61-.18Z"/><path d="M173.42,126.89c.63-.64,1.09-1.01,1.74-.48,.11,.09,.15,.43,.07,.54-.51,.69-1.05,.37-1.8-.06Z"/><path d="M214.76,120.43c.31,.48,.68,.81,.61,.99-.11,.31-.46,.61-.77,.75-.1,.05-.64-.45-.61-.64,.06-.33,.4-.61,.77-1.11Z"/><path d="M129.74,144.23c.56-.81,.98-1.23,1.68-.9,.11,.05,.17,.5,.08,.67-.41,.72-.95,.51-1.75,.23Z"/><path d="M207.47,151.82c-.57-.24-1.13-.49-1.78-.76,.91-.75,1.15-.67,1.78,.76Z"/><path d="M183.57,156.6c.36,.42,.66,.63,.73,.9,.04,.16-.32,.61-.45,.59-.29-.04-.69-.25-.77-.48-.07-.2,.24-.53,.49-1Z"/><path d="M139.64,155.84c-.26-.39-.58-.72-.52-.82,.16-.26,.46-.48,.75-.6,.08-.03,.5,.42,.46,.56-.08,.28-.38,.49-.69,.85Z"/><path d="M130.57,164.18c.25,.39,.55,.65,.51,.83-.06,.27-.37,.48-.57,.72-.2-.2-.59-.42-.57-.6,.03-.28,.33-.54,.63-.95Z"/><path d="M15.59,140.06c.24,.38,.57,.67,.53,.88-.05,.23-.45,.38-.7,.56-.18-.26-.46-.5-.51-.78-.03-.14,.36-.35,.69-.66Z"/><path d="M19.42,133.21c.32-.44,.64-.89,1.12-1.56,.39,1.25-.04,1.64-.76,1.86-.12-.1-.24-.2-.36-.3Z"/><path d="M215.26,133.95c.26,.4,.54,.64,.52,.85-.02,.22-.33,.56-.53,.57-.21,.01-.64-.34-.61-.47,.06-.29,.33-.54,.62-.95Z"/><path d="M179.78,114.59c.95-.18,1.27,.34,1.56,1.1-.88,.11-1.35-.2-1.56-1.1Z"/><path d="M141.59,157.34c.39-.1,.79-.2,1.18-.29,0,.27-.02,.55-.03,.82-.37-.01-.73-.03-1.1-.04l-.06-.49Z"/><path d="M133.1,157.23c-.37,.28-.59,.59-.8,.58-.23-.01-.45-.31-.67-.48,.2-.2,.38-.5,.62-.55,.2-.04,.45,.23,.85,.45Z"/><path d="M122.37,153.1c.23,.38,.5,.63,.49,.86,0,.18-.36,.35-.56,.52-.15-.23-.38-.46-.41-.71-.02-.17,.25-.37,.49-.68Z"/><path d="M219.9,127.99c-.61,.48-.79,.73-1.02,.77-.14,.02-.34-.27-.51-.43,.22-.22,.4-.52,.66-.63,.17-.07,.45,.14,.86,.29Z"/><path d="M2.7,124.9c.29,.16,.58,.32,.88,.47-.06,.14-.12,.27-.18,.41-.32-.13-.64-.26-.95-.39,.09-.16,.17-.33,.26-.49Z"/><path d="M221.47,138.85c-.31,.16-.5,.33-.7,.34-.1,0-.33-.34-.3-.4,.11-.17,.31-.34,.5-.38,.1-.02,.26,.22,.5,.45Z"/><path d="M132.5,170.98c-.29,.21-.48,.47-.64,.45-.18-.02-.34-.29-.5-.45,.17-.16,.32-.43,.5-.45,.16-.02,.35,.24,.64,.45Z"/><path d="M181.2,136.75c.23,.29,.44,.45,.47,.63,.03,.12-.22,.43-.28,.42-.21-.05-.48-.18-.55-.35-.05-.13,.18-.37,.36-.7Z"/><path d="M225.37,119.11c-.28,.18-.45,.35-.64,.38-.1,.01-.35-.33-.32-.37,.12-.18,.3-.35,.5-.43,.07-.03,.25,.21,.47,.42Z"/><path d="M222.46,121.52c.36,.59,.54,.75,.52,.89-.02,.14-.23,.26-.35,.39-.14-.16-.35-.29-.4-.47-.04-.16,.1-.37,.23-.8Z"/><path d="M212.39,115.18c-.21,.23-.38,.49-.45,.46-.19-.06-.34-.25-.5-.38,.13-.13,.25-.33,.41-.37,.12-.03,.3,.15,.55,.29Z"/><path d="M222.73,137.01c.23,.21,.49,.36,.47,.45-.04,.2-.23,.37-.36,.55-.14-.13-.35-.25-.39-.41-.03-.14,.14-.32,.27-.6Z"/><path d="M218.83,102.09c-.14-.2-.28-.39-.42-.59,.11-.06,.23-.13,.34-.19,.11,.21,.21,.42,.32,.64l-.25,.15Z"/><path d="M198.03,141.16c-.24,.18-.39,.38-.52,.36-.14-.02-.36-.23-.36-.35,0-.14,.21-.35,.36-.37,.12-.02,.28,.19,.52,.36Z"/><path d="M131.06,169.4c-.23-.25-.45-.38-.46-.52,0-.14,.19-.36,.33-.39,.11-.02,.35,.18,.38,.31,.03,.13-.12,.31-.25,.6Z"/><path d="M171.3,133.62c-.55,.24-.75,.37-.79,.33-.16-.15-.27-.35-.4-.53,.13-.04,.27-.13,.4-.11,.2,.04,.38,.14,.8,.31Z"/><path d="M184.29,139.72c-.26,.05-.43,.14-.58,.11-.09-.02-.16-.2-.23-.31,.17-.09,.33-.2,.51-.24,.05-.01,.15,.21,.31,.44Z"/><path d="M219.72,115.23c-.29,.11-.48,.24-.66,.22-.14-.02-.26-.22-.39-.34,.14-.13,.27-.29,.43-.36,.06-.03,.21,.15,.63,.48Z"/><path d="M165.24,129.04c-.16,.22-.24,.43-.32,.43-.17,0-.34-.11-.51-.17,.07-.12,.13-.33,.22-.35,.15-.04,.34,.05,.61,.1Z"/><path d="M228.53,126.95c.2,.09,.4,.17,.6,.26-.06,.12-.17,.35-.19,.35-.21-.07-.4-.18-.59-.28,.06-.11,.12-.22,.18-.33Z"/><path d="M186.32,166.95l-.12,.64c-.12-.05-.24-.09-.36-.14l.26-.57c.07,.02,.15,.05,.22,.07Z"/><path d="M145.1,137.12c-.18,.2-.29,.4-.35,.38-.16-.04-.3-.17-.45-.26,.08-.11,.15-.31,.23-.31,.16,0,.32,.09,.57,.18Z"/><path d="M152.32,152.36c-.06,.13-.09,.21-.13,.3-.11-.05-.23-.08-.32-.15-.02-.02,.05-.23,.09-.23,.12,0,.23,.05,.36,.08Z"/><path d="M28.15,132.28c.06,.07,.11,.14,.17,.2-.11,.06-.21,.12-.32,.17-.03-.08-.11-.19-.08-.25,.02-.06,.15-.09,.23-.13Z"/><path d="M202.04,145.37c.15,.14,.24,.23,.34,.31-.09,.08-.16,.2-.26,.24-.05,.02-.22-.08-.22-.12,.01-.12,.08-.24,.15-.43Z"/><path d="M208.85,105.26c-.05-.1-.13-.19-.16-.3,0-.02,.18-.14,.22-.12,.1,.07,.17,.18,.25,.28-.08,.04-.17,.08-.31,.15Z"/><path d="M208.83,141.43c-.04,.08-.07,.19-.13,.22-.05,.02-.15-.05-.23-.08,.04-.08,.06-.21,.11-.22,.07-.02,.17,.05,.25,.08Z"/><path d="M201.75,103.33c.06,.06,.13,.11,.19,.17-.07,.04-.13,.1-.21,.13-.02,0-.11-.06-.1-.07,.03-.08,.08-.15,.12-.22Z"/><path d="M178.44,113.73s-.06,.07-.09,.1c-.03-.06-.07-.12-.1-.19,.04-.01,.1-.05,.13-.03,.03,.01,.04,.08,.06,.12Z"/><path d="M10.68,134.81c.08-.02,.18-.08,.24-.06,.06,.03,.09,.14,.13,.21-.08,.02-.18,.08-.25,.05-.06-.02-.08-.13-.12-.21Z"/><path d="M200.42,89.43s-.08,0-.12,0c.01-.06,.03-.13,.04-.19,.04,.02,.09,.04,.11,.07,.01,.03-.02,.08-.03,.12Z"/><path d="M223.48,116.91c-.08,.03-.18,.08-.25,.07-.05-.01-.08-.13-.12-.2,.08-.03,.17-.1,.23-.07,.06,.02,.09,.14,.13,.21Z"/></g><path d="M46.37,148.62c.63,.29,1.26,.6,1.91,.85,.89,.35,1.7,.54,2.49-.4,.37-.44,1.16-.67,1.78-.72,1.5-.13,2.74,1.1,2.74,2.52,0,1.42-1.28,2.55-2.79,2.5-.86-.03-1.72-.01-2.58,0-.61,.02-1.16-.24-1-.84,.26-.94-.32-1.31-.85-1.78-.67-.59-1.34-1.17-2.02-1.76,.1-.13,.21-.26,.31-.4Z"/><path d="M47.58,158.57c1.36,0,2.3,.91,2.25,2.19-.05,1.53-.92,2.3-2.58,2.27-1.28-.02-2.26-.92-2.23-2.07,.03-1.26,1.25-2.4,2.56-2.4Z"/><path d="M35.47,163.26c-.55-.13-1.16-.15-1.65-.42-.9-.49-1.74-1.11-2.59-1.68-2.08-1.41-4.16-2.81-6.23-4.23-.18-.13-.28-.37-.28-.83,.34,.11,.75,.14,1.02,.35,2.29,1.76,4.84,3.04,7.46,4.21,.65,.29,1.24,.74,1.79,1.2,.31,.26,.48,.69,.71,1.05-.08,.12-.16,.24-.24,.36Z"/><path d="M56.26,166.95c-2.38-.57-3.91-1.85-5.46-3.35,1.95-.16,4.65,1.4,5.46,3.35Z"/><path d="M47.87,178c-1.29,.18-5.47-2.27-7.66-4.38,.93,.39,2.08,.56,2.73,1.22,.81,.82,1.8,1.15,2.71,1.7,.76,.45,1.48,.98,2.22,1.47Z"/><path d="M57.78,170.86c-.45,.08-.81,.26-.98,.15-1.5-1-2.97-2.06-4.68-3.26,1.48-.06,4.86,1.85,5.66,3.12Z"/><path d="M46.97,167.26c1.52,.17,2.71,.33,3.59,1.61-1.47,.04-2.51-.45-3.59-1.61Z"/><path d="M40.45,161.39c-.3-.36-.6-.58-.67-.86-.04-.15,.43-.6,.49-.57,.31,.16,.57,.43,.84,.67-.18,.21-.36,.42-.67,.77Z"/><path d="M49.81,165.16c.5,.29,1,.57,1.75,1-1.26,.53-1.67,.03-2-.65,.08-.12,.17-.23,.25-.35Z"/><path d="M43.5,152.26c-1.19-.51-1.2-.58-.16-1.65,.06,.6,.1,1.1,.16,1.65Z"/><path d="M53.87,171.99c-.58-.49-.92-.78-1.42-1.2q1.42-.06,1.42,1.2Z"/><path d="M42.02,151.43c-.27-.2-.54-.4-.81-.6,.07-.09,.13-.18,.2-.27,.27,.2,.54,.39,.81,.59l-.2,.28Z"/><path d="M35.39,180.02c-.14-.19-.28-.31-.31-.46-.02-.08,.16-.2,.25-.29,.12,.12,.28,.22,.36,.36,.03,.04-.15,.2-.3,.4Z"/><path d="M38.45,157.02c-.07,.05-.13,.11-.2,.16-.07-.09-.14-.19-.21-.28,.09-.03,.18-.09,.26-.07,.06,.02,.1,.12,.15,.19Z"/></g></g></g></g></g></svg>
