<?xml version="1.0" encoding="UTF-8"?><svg xmlns="http://www.w3.org/2000/svg"><defs><style>.cowl-1{fill:#7e8198;}.cowl-2{isolation:isolate;}.cowl-3{mix-blend-mode:multiply;opacity:.18;}</style></defs><g class="cowl-2"><g id="Layer_2"><g id="Neck"><g id="Neck-Cowl"><path class="cowl-3" d="M119.93,258.67c1.56,4.31,3.47,8.45,5.98,12.3,10.53,16.14,27.4,20.48,43.73,9.32,7.25-4.95,11.5-13.74,19.27-19.09,8.73-6.01,18.81-9.91,28.74-13.42,15.63-5.54,36.5-11.96,45.38-26.94,9.39-15.86,18.85-27.6,34-38.09,14.22-9.85,27.3-21.51,37.83-35.39,21.84-28.76,38.5-71.17,35.9-107.38,.32,4.45-15.42,21.3-18.21,24.8-5.26,6.58-10.89,12.87-16.85,18.82-12.27,12.26-25.96,23.1-40.71,32.23-33.49,20.71-68.53,38.8-103.83,56.65-4.5,2.27-9.2,4.59-14.24,4.63-5.72,.04-11-2.84-15.98-5.65-12.07-6.8-24.14-13.6-36.22-20.4-2.92,0-7.71-5.27-10.38-6.54-2.47-1.17-5.17-1.51-7.61-2.74-7.99-4.04-15.35-11.15-22.56-16.47,7.75,14.96,6.66,20.31,9.3,30.35,2.38,9.06,16.92,66.03,21.42,84.9,1.44,6.08,2.92,12.24,5.04,18.11Z"/><path class="cowl-1" d="M171.16,267.24c3.05-2.32,5.9-4.93,8.62-7.6,6.63-6.53,12.8-13.65,20.5-18.88,14.06-9.54,32.09-8.58,45.89-18.5,8.35-6,14.64-17.78,21.93-25.03,11.67-11.61,25.89-20.3,38.26-31.16,36.61-32.15,54.32-80.64,64.85-128.21-13.69-5.99-28.65-9.65-42-16.33-3.58-1.41-42.32-17.29-42.57-16.77-8.41,16.96-18.34,33.16-29.61,48.37-5.69,7.68-11.72,15.11-18.07,22.26-2.45,2.76-4.08,5.7-7.67,6.72-4.84,1.39-9.81,2.31-14.65,3.73-19.21,5.64-37.58,13.72-56.13,21.17-12.06,4.85-24.26,9.43-36.8,12.91s-25.85,4.34-39,6.34c1.04,3.84,3.59,6.22,5.36,9.59,2.57,4.88,3.55,11.15,5.13,16.42l10.38,34.62,20.76,69.24c1.22,4.07,2.49,8.23,5.03,11.63,5.58,7.45,16.35,9.49,25.32,7.02,5.3-1.46,10.07-4.2,14.46-7.55Z"/><path class="cowl-3" d="M82.94,256.14c.14,6.63,.26,13.43-1.99,19.66s-7.42,11.87-14,12.68c-12.62,1.55-20.13-13.96-32.82-14.82-.25-1.47-1.61-6.01-1.75-8.27-.28-4.63,1.88-8.47,3.38-12.77,11.05-31.58,22.11-63.17,33.16-94.75,1.27-3.62,2.53-7.24,3.8-10.86,1.01-2.9,2.83-19.16,5.3-21.11,5.48-4.34,3.68,20.63,3.76,24.05,.36,16.82-.41,33.64-.05,50.46,.4,18.56,1.2,37.16,1.2,55.72Z"/><path class="cowl-1" d="M74.78,265.58c-.27,4.91-.8,10.38-4.49,13.62-6.04,5.31-15.47,.98-21.79-4-2.74-2.16-5.5-4.34-8.55-6.06-1.42-.8-2.89-1.51-4.44-2.01-1.28-.41-2.9-.26-4.07-.69-4.83-1.79-6.55-11.15-7.4-15.49-1.45-7.44-3.9-23.98-5.27-31.43-5.01-27.24-10.02-54.47-15.03-81.71,.83,4.53,32.5,1.21,36.18,.56,6.42-1.13,12.73-2.92,18.79-5.31,7.79-3.08,14.83-7.43,22.92-10,0,10.2-2.01,25.34-2.68,37.35l-2.5,45.27c-.93,16.94-.74,42.96-1.67,59.9Z"/><path class="cowl-3" d="M284.63,5.42c-42.87,68.18-118.37,115.11-198.47,123.56,13.43,22.9,34.67,41.3,60.82,45.82,11.04,1.91,22.65,2.03,33.16-1.84,9.59-3.53,17.72-10.16,25.14-17.18,38.95-36.86,62.31-90.74,85.44-139.13,1.11-2.32,3.17-6.85,2.47-9.32,0,0-7.58-3.48-8.56-1.91Z"/><path class="cowl-1" d="M280.7,.67c-43.7,67.65-118.98,113.93-199.08,122.39,13.43,22.9,34.67,38.15,60.82,42.68,11.04,1.91,22.65,2.03,33.16-1.84,9.59-3.53,17.72-10.16,25.14-17.18,38.95-36.86,62.92-86.42,86.05-134.81,1.11-2.32,2.25-4.91,1.54-7.38s-6.24-6.01-7.64-3.85Z"/><path class="cowl-3" d="M73.12,161.22c-4.98,9.36-12.86,18.37-21.98,23.78s-21.41,6.34-30.06,.21c-7.1-5.03-11.09-12.3-12.46-20.89-1.56-9.78-3.48-20.01-5.52-27.61-.64-2.38-2.12-9.95-2.12-9.95,5.89,1.47,11.56,3.58,17.44,5.09,11.58,2.96,23.52,4.62,35.48,4.62,6.04,0,23.55-11.1,27.72-13.41,0,0,0,22.17-8.5,38.16Z"/><path class="cowl-1" d="M73.12,151.02c-4.54,9.58-12.86,18.37-21.98,23.78s-21.41,6.34-30.06,.21c-7.1-5.03-10.58-13.66-13.27-21.93-2.94-9.06-5.37-18.3-7.27-27.64-.49-2.42-1.11-6.96,.44-8.88,5.89,1.47,11.56,3.58,17.44,5.09,11.58,2.96,23.52,4.62,35.48,4.62,6.04,0,23.55-.89,27.72-3.21,0,0-3.84,18.11-8.5,27.96Z"/></g></g></g></g></svg>
