<?xml version="1.0" encoding="UTF-8"?><svg xmlns="http://www.w3.org/2000/svg"><defs><style>.bellcollar-1{fill:#f2b02a;}.bellcollar-2{fill:#fec33e;}.bellcollar-3{mix-blend-mode:multiply;opacity:.12;}.bellcollar-4{isolation:isolate;}</style></defs><g class="bellcollar-4"><g id="Layer_2"><g id="Neck"><g id="Neck-BellCollar"><path d="M312.66,23.51s-10.98-15.5-35.93-23.51c-51.68,97.32-143.43,137.59-188.44,153.95C58.91,147.29,18.75,137.48,.11,114.63c0,0-1.75,20.05,8.49,39.02,10.06,18.63,76.38,20.07,126.29,6.58C266.25,124.73,312.66,23.51,312.66,23.51Z"/><circle class="bellcollar-2" cx="77.38" cy="183.94" r="26.3"/><path class="bellcollar-2" d="M80.32,159.6c.6-3.29,1.47-6.99,4.2-8.93,2.76-1.96,4.93-2.62,8.29-3.04,3.63-.45,5.12,1.31,5.89,2.41-2.59,1.03-4.92,1.81-7.48,2.84-.88,.35-1.71,.67-2.22,1.47-.46,.73-.62,2.19-.66,3.05-.15,3.18-.44,4.63-.33,7.19,.01,.32,0,.65-.16,.92-.19,.31-.54,.47-.86,.61-1.9,.83-3.99,3.34-6.11,1.66-1.87-1.47-.97-6.24-.56-8.19Z"/><path class="bellcollar-1" d="M100.59,196.55c1.49,.55,3.81-.45,4.5-1.88,1.15-2.36-.14-4.8-1.74-6.56-7.35-8.08-19.71-12.37-29.85-15.54-4.08-1.28-8.4-2.44-12.74-2.67-3.07-.17-9.79-.34-11.32,3.16-.8,1.84,.69,4.29,2.14,5.75,5.78-3.3,20.91,1.9,26.16,3.9,8.5,3.24,18.02,6.98,22.84,13.83Z"/><path class="bellcollar-3" d="M100.59,196.55c1.71,.6,3.77-.69,4.17-1.49,1.22-2.41-4.11-6.51-5.61-7.54-5.44-3.76-9.07-5.86-15.19-8.4-6.14-2.55-12.34-4.5-18.85-5.93-2.77-.61-6.63-.78-9.48-.71-1.89,.04-4.82,.09-6.08,1.79-.95,1.29,1.19,3.7,2.03,4.55,5.78-3.3,20.91,1.9,26.16,3.9,8.5,3.24,18.02,6.98,22.84,13.83Z"/><ellipse cx="84.05" cy="197.79" rx="5.34" ry="6.17" transform="translate(-129.27 171.69) rotate(-60)"/><path d="M62.69,205.75c1.59,1.17,4.74,2.69,6.77,3.27,1.5,.25,2.97-.18,4.41-.69,3.79-1.35,7.62-3.2,9.97-6.47-1.52-1.07-3.34-3.22-5.18-1.94-1.63,1.13-3.02,2.41-4.81,3.34-3.57,1.84-7.17,2.49-11.15,2.49Z"/></g></g></g></g></svg>
