<?xml version="1.0" encoding="UTF-8"?><svg xmlns="http://www.w3.org/2000/svg"><defs><style>.neck-1{fill:#0081ad;}.neck-2{fill:#f1f2f2;}.neck-3{fill:#d1d3d4;}.neck-4{isolation:isolate;}.neck-5{mix-blend-mode:multiply;opacity:.18;}</style></defs><g class="neck-4"><g id="Layer_2"><g id="Neck"><g id="Neck-Tie"><path class="neck-3" d="M120.5,148.22c-3.31,3.55-8.37,6.28-12.91,8.1-7.39,2.96-15.37,4.06-23.25,5.14-3.67,.5-7.42,1-11.07,.33-8.37-1.55-9.2-6.71-4.58-12.93,4.79-6.43,14.31-8.75,21.76-9.99,10.61-1.77,21.53-2.76,32.13-4.38,2.95,5.4,1.39,10.01-2.08,13.73Z"/><path class="neck-5" d="M143.79,217.64c61.55-46.43,131.86-120.13,154.48-185.66-30.42,26.51-64.6,48.47-100.32,67.11-16.68,8.71-34.8,14.89-51.37,23.33-7.9,4.02-14.29,11.32-22.23,15.69-8,4.4-16.59,7.72-25.49,9.79-28.61,6.66-65.99-1.02-90.28,18.45-3.8,3.09,44.4,37.58,60.13,50.37,2.56,2.08,6.39,1.21,7.8-1.78,2.88-6.13,3.25-13.47,7.14-18.93,4.2-5.89,11.64-9.92,18.67-11.09,7.16-1.19,14.71,.4,20.87,4.22-2.8,1.01-3.5,4.98-3.53,8.12-.35,40.25,3.33,80.54,10.98,120.05,2.72,14.03,5.94,28.04,6.69,42.31,.75,14.27-1.13,29.04-8.06,41.54-5.37,9.69-14.81,18.87-16.42,30.23-1.41,9.91,9.4,18.58,16.48,23.54,1.64,1.15,19.02-28.11,20.27-30.19,10.04-16.79,19.61-29.69,15.74-50.02-3.76-19.74-6.26-39.97-10.3-59.47-6.85-33.09-13.71-66.18-20.56-99.27,2.02,3.51,4.91,4.98,9.3,1.66Z"/><path class="neck-1" d="M65.92,390.95s31.21,43.64,49.17,56.18c14.08-16.44,40.1-59.42,40.1-59.42,0,0-29.18-186.74-36.06-198.6-10.78-18.59-30.78-3.53-30.78-3.53-7.6,35.04-22.43,205.37-22.43,205.37Z"/><path class="neck-5" d="M65.92,390.95s17.3,22.81,22.23,28.75c8.05,9.69,16.52,20.16,26.94,27.43,14.08-16.44,40.1-59.42,40.1-59.42-.49-3.58-3.05-24.94-3.65-26.64-2.16,22.38-5.4,33.09-18.2,49.56-3.99,5.13-10.58,11.98-16.89,14.39-13.95,5.33-50.48-35.13-50.53-34.07Z"/><path class="neck-5" d="M85.44,197.88c-.2,2.77,1.29,3.03,3.86,4.23,4,1.88,8.29,3.25,12.72,3.6s8.42-.3,12.34-1.86c3.32-1.32,5.67-3.43,8.6-5.3-.78-2.41-1.14-4.8-1.81-7.24-.84-3.07-2.62-5.44-6.1-5.06-6.51,.69-13.04,1.24-19.55,2.01-1.62,.19-3.3,.58-4.92,.61-.87,.02-2.45-.51-3.23-.03-1.59,.97-1.66,6.86-1.87,8.71-.01,.11-.02,.22-.03,.33Z"/><path class="neck-1" d="M121.13,142.36c4.9,.21,10.46,1.08,13.18,5.16,4.25,6.37-3.39,17.03-5.26,23.74-1.92,6.9-4,16.09-8.74,21.37-19.83,7.43-33.28,.78-33.28,.78,0,0-16.73-26.48-14.35-38.71,2.12-10.87,7.91-8.61,16.78-10.44,10.37-2.14,21.11-2.35,31.66-1.9Z"/><path class="neck-5" d="M102.97,150.65c8.11-.39,15.3,4.94,21.32,10.39-1.21-7.46-3.76-14.69-7.48-21.26-9.82,4.88-22.78,.15-31.93,6.2-5.35,3.53-8.02,9.96-9.31,16.24-1.12,5.44-3.38,13.21-2.77,18.57,4.99-2.25,7.57-9.72,10.01-14.29,4.14-7.75,10.71-15.38,20.17-15.83Z"/><path class="neck-2" d="M280.03,0c9.37,6.34,14,9.48,23.38,15.82,13.11,8.88-55.5,88.08-62.16,95.72-28.8,33.02-58.96,57.9-93.52,85.05-1.72,1.35-3.45,2.71-5.19,4.03-1.88,1.43-4.61,.63-5.42-1.6-5.17-14.24-14.87-35.8-20.75-45.8-5.25-8.92-10.98-12.89-14.9-15.21-1.16-.69-1.1-2.39,.11-3.01,15.23-7.76,33.53-11.67,49.35-18.18,29.77-12.25,57.83-29.38,81.14-51.71,5.79-5.55,55.16-60.26,47.97-65.13Z"/><path class="neck-2" d="M13.28,169.62c-3.41-2.63-5.74-4.68-6.35-5.74-5.04-8.66-4.93-24.96-6.93-34.82,1.3,6.44,42.69,9.55,48.6,9.92,14.15,.88,26.92-.11,41.39-1.71,1.48-.16,2.47,1.5,1.59,2.7-8.43,11.49-15.35,47.62-17.1,63.18-.28,2.49-3.01,3.89-5.2,2.68-9.37-5.2-20.71-12.44-24.9-14.9-10.75-6.32-21.24-13.7-31.11-21.32Z"/></g></g></g></g></svg>
