<?xml version="1.0" encoding="UTF-8"?><svg xmlns="http://www.w3.org/2000/svg" xmlns:xlink="http://www.w3.org/1999/xlink"><defs><style>.ecollar-1,.ecollar-2,.ecollar-3{fill:none;}.ecollar-4{clip-path:url(#clippath6);}.ecollar-5{fill:#d1a652;}.ecollar-2{stroke:#405c4d;stroke-width:10px;}.ecollar-2,.ecollar-3{stroke-miterlimit:10;}.ecollar-3{stroke:#000;stroke-width:2px;}.ecollar-3,.ecollar-6{mix-blend-mode:multiply;opacity:.18;}.ecollar-7{isolation:isolate;}</style><clipPath id="clippath6"><path class="ecollar-1" d="M349.16,30.98C333,23.97,275.73,0,275.73,0c-29.01,50.63-66.83,100.87-125.49,125.41C97.8,147.35,42.87,157.56,.05,143.78c4.65,33.21,7.79,65.16,12.44,98.37,4.4,31.44,45.07,32.26,69.29,30.39,45.37-3.5,91.23-21.35,130.67-43.51,71.92-40.42,118.91-118.74,136.7-198.05Z"/></clipPath></defs><g class="ecollar-7"><g id="Layer_2"><g id="Neck"><g id="Neck-EgyptianCollar"><path class="ecollar-6" d="M105.07,278.77c51.17-9.63,107.68-33.2,147.37-67.06,51.89-44.28,83.83-107.46,97.59-173.61,.07-.33,.77-4.01,.81-4.01-11.65-1.37-20.62,9.56-27.36,19.17-20.17,28.76-42.16,56.24-65.78,82.24-19.33,21.27-40.01,41.75-64.51,56.78-22.6,13.87-47.85,22.74-72.88,31.5-6.08,0-15,5.25-20.8,7.28-6.93,2.43-13.87,4.86-20.8,7.28-14.21,4.98-28.47,9.84-42.65,14.93-3.58,1.29-8.51,2.35-10.23,6.18-2.08,4.63,.63,12.32,3.91,15.02,13.12,10.8,66.89,5.87,75.32,4.28Z"/><path class="ecollar-5" d="M349.16,30.98C333,23.97,275.73,0,275.73,0c-29.01,50.63-66.83,100.87-125.49,125.41C97.8,147.35,42.87,157.56,.05,143.78c4.65,33.21,7.79,65.16,12.44,98.37,4.4,31.44,45.07,32.26,69.29,30.39,45.37-3.5,91.23-21.35,130.67-43.51,71.92-40.42,118.91-118.74,136.7-198.05Z"/><g class="ecollar-4"><line class="ecollar-3" x1="13.96" y1="141.67" x2="32.74" y2="278.41"/><line class="ecollar-3" x1="260.45" y1="5.95" x2="365.83" y2="57.1"/><line class="ecollar-3" x1="41.74" y1="139.4" x2="64.81" y2="285.28"/><line class="ecollar-3" x1="99.83" y1="130.54" x2="138.37" y2="280.68"/><line class="ecollar-3" x1="70.48" y1="134.97" x2="101.08" y2="285.11"/><line class="ecollar-3" x1="125.59" y1="118.34" x2="178" y2="266.75"/><line class="ecollar-3" x1="171.02" y1="90.32" x2="256.56" y2="227.05"/><line class="ecollar-3" x1="194.65" y1="71.04" x2="287.18" y2="195.29"/><line class="ecollar-3" x1="148.03" y1="105.38" x2="221.24" y2="257.13"/><line class="ecollar-3" x1="210.35" y1="49.95" x2="316.62" y2="165.62"/><line class="ecollar-3" x1="227.99" y1="36.68" x2="338.86" y2="127.42"/><line class="ecollar-3" x1="240.58" y1="17.29" x2="358.52" y2="91.71"/><path class="ecollar-2" d="M4.04,225.01c31.76,43.58,110.28,25.34,153.31,8.32,38.87-15.37,72.76-37.31,101.25-67.88,20.15-21.62,36.88-46.4,49.53-73.1,10.73-22.65,18.88-46.53,25.35-70.72l.29-1.09"/></g></g></g></g></g></svg>
