<?xml version="1.0" encoding="UTF-8"?><svg xmlns="http://www.w3.org/2000/svg"><defs><style>.hkerch-1{fill:#be1e2d;}.hkerch-2{isolation:isolate;}.hkerch-3{mix-blend-mode:multiply;opacity:.17;}</style></defs><g class="hkerch-2"><g id="Layer_2"><g id="Neck"><g id="Neck-Handkerchief"><path class="hkerch-1" d="M125.05,198.11c12.51,8.82,29.13,13.65,43.28,7.82-5.89-4.99-9.37-12.16-13.78-18.49-13.19-18.97-40.41-34.52-64.16-30.32-.21,8.91,7.15,14.04,12.71,20.25,6.72,7.51,13.68,14.92,21.95,20.75Z"/><path class="hkerch-3" d="M123.61,178.38c1.36-3.44-6.67-11.6-11.62-16.01-3.83-3.41-9-4.46-13.97-4.86-3.25-.26-9.41-.87-5.79,4.02,2.89,3.9,10.36,6.05,14.6,8.23,5.15,2.65,12.54,5.46,16.78,8.62Z"/><path class="hkerch-1" d="M284.78,6.5c2.31-2.69,4.84-5.56,8.31-6.31,4.94-1.06,9.52,2.53,14.26,4.29,6.11,2.26,12.9,5.99,19.34,7s13.43,5.06,13.93,11.56c.34,4.39-2.41,8.36-5.08,11.87-8.4,11.05-16.19,18.31-25.68,28.44-9.01,9.63-18.67,18.65-28.93,26.94-39.41,31.84-76.26,55.55-126.62,66.02-16.96,3.53-34.38,5.07-51.68,3.97-7.4-.47-21.74,1.38-35.83-5.68,35.75-8.68,61.06-22.89,92.59-41.82,15.94-9.57,31.16-20.35,45.47-32.24,13.87-11.53,28.42-22.33,41.69-34.52,13.5-12.41,26.28-25.61,38.23-39.53Z"/><path class="hkerch-1" d="M45.46,164.88c-6.18,7.77-8.99,17.22-11.96,26.4-2.97,9.18-6.37,18.55-13.43,25.72,8.95,2.43,18.72,.59,26.32-3.63s13.25-10.61,17.64-17.45c3.87-6.03,6.85-12.51,8.91-19.23,1.59-5.2,5.03-14.23,2.62-19.65-5.62-12.63-25.81,2.46-30.09,7.85Z"/><path class="hkerch-1" d="M6.56,148.35c.05,.19,.09,.37,.13,.57,.4,2.05,.02,4.15-.09,6.24-.23,4.49,2.31,6.9,5.76,9.41,7.3,5.3,16.42,2.71,24.67,2.29,16.89-.86,41.56-7.49,48.87-13.44-19.53-8.45-48.38-16.74-66.32-28.27-4.18-2.69-8.73-7.34-14.26-5.36-7.08,2.54-5.94,15.67-3.18,20.65,1.47,2.65,3.65,5.01,4.42,7.91Z"/><path class="hkerch-3" d="M320.88,9.24c1.51,.56,2.99,1.18,4.45,1.86,1.01,3.2,.17,6.75-1.49,9.67-2.44,4.26-6.39,7.74-9.98,11-3.96,3.6-7.95,7.17-11.98,10.7-8.05,7.06-16.23,13.98-24.54,20.74s-15.89,12.71-24,18.85c-5.47,4.14-10.92,8.85-16.81,12.36-1.99,1.19-10.66,6.7-12.11,3.06-.45-1.12-.04-2.43,.72-3.36,2.82-3.47,7.57-6.32,10.98-9.26,4.16-3.59,8.31-7.2,12.42-10.85,7.79-6.94,15.43-14.07,22.72-21.53,14.29-14.63,28.85-28.61,40.03-45.97,3.27,.65,6.48,1.57,9.6,2.73Z"/><path class="hkerch-3" d="M22.61,145.25c-.31,3.45,3.31,5.85,6.56,7.05,15.46,5.76,32.55,3.28,49.05,3.19,24.42-.14,49.16,3.35,73.24-2.56,4.61-1.13,9.12-2.72,13.33-4.92,1.61-.85,11.3-5.66,6.27-7.45-1.11-.39-2.33-.14-3.47,.13-9.92,2.26-19.84,4.53-29.76,6.79-4.38,1-8.59,2.02-13.03,2.31-2.46,.16-4.89,.75-7.37,.86-1.65,.07-5.01-.76-6.45-.19,7.94-3.15,15.62-6.93,22.95-11.31-7.15,.6-14.13,2.47-20.87,4.89-3.4,1.22-6.74,2.58-10.06,4-2.76,1.18-5.77,3.13-8.75,3.52-15.04,1.96-28.58-2.85-43.41-4.69-9.36-1.17-18.8-1.71-28.23-1.62Z"/><path class="hkerch-3" d="M52.51,175.25c-2.17,3.45-4.37,6.94-5.59,10.83,3.9-.4,6.29-4.29,8.53-7.49,3.47-4.96,7.98-9.2,13.15-12.36,1.73-1.06,5.6-3.33,4.02-5.9-1.19-1.95-4.63-1.3-6.31-.57-6.16,2.7-10.38,10.07-13.8,15.49Z"/><path class="hkerch-1" d="M67.13,150.13c.39-1.72,1-3.44,2.14-4.76s2.88-2.19,4.57-1.9c2.72,.46,4.54,2.49,7.29,2.64,3.04,.16,5.54-2.35,8.52-1.71,2.58,.55,3.49,3.81,3.9,6.5,.49,3.2,.98,6.4,1.47,9.6,.34,2.23,.67,4.56-.03,6.69-2.04,6.23-13.41,8.43-18.78,5.96-7.62-3.5-10.81-15.34-9.08-23.02Z"/><path class="hkerch-3" d="M85.06,145.55c-.72,4.55-3.95,8.57-3.87,13.18-.5,.15-1.06-.11-1.41-.5s-.54-.89-.71-1.39c-.76-2.15-1.39-4.34-1.89-6.56-.27-1.21-.51-2.43-.74-3.64-.1-.53-.19-1.14,.15-1.56,.45-.57,2.72,.58,3.38,.68,1.69,.25,3.43,.18,5.1-.2Z"/></g></g></g></g></svg>
