<?xml version="1.0" encoding="UTF-8"?><svg xmlns="http://www.w3.org/2000/svg"><defs><style>.neck-1{fill:#f1f2f2;}.neck-2{fill:#d1d3d4;}.neck-3{fill:#14d1df;}.neck-4{isolation:isolate;}.neck-5{mix-blend-mode:multiply;opacity:.18;}</style></defs><g class="neck-4"><g id="Layer_2"><g id="Neck"><g id="Neck-BowTie"><path class="neck-5" d="M298.27,31.97c-22.63,65.53-92.93,139.23-154.48,185.66-12.97,9.78-12.76-22-16.18-25.16-6.69-6.18-16.3-9.05-25.28-7.56-7.03,1.17-14.47,5.2-18.67,11.09-3.89,5.46-4.26,12.8-7.14,18.93-1.4,2.99-5.24,3.86-7.8,1.78-15.72-12.79-63.93-47.29-60.13-50.37,24.29-19.47,61.67-11.79,90.28-18.45,8.89-2.07,17.49-5.39,25.49-9.79s14.33-11.66,22.23-15.69c16.56-8.44,34.68-14.62,51.37-23.33,35.72-18.64,69.9-40.6,100.32-67.11Z"/><path class="neck-2" d="M120.5,148.22c-3.31,3.55-8.37,6.28-12.91,8.1-7.39,2.96-15.37,4.06-23.25,5.14-3.67,.5-7.42,1-11.07,.33-8.37-1.55-9.2-6.71-4.58-12.93,4.79-6.43,14.31-8.75,21.76-9.99,10.61-1.77,21.53-2.76,32.13-4.38,2.95,5.4,1.39,10.01-2.08,13.73Z"/><path class="neck-1" d="M280.03,0c9.37,6.34,14,9.48,23.38,15.82,13.11,8.88-55.5,88.08-62.16,95.72-28.8,33.02-58.96,57.9-93.52,85.05-1.72,1.35-3.45,2.71-5.19,4.03-1.88,1.43-4.61,.63-5.42-1.6-5.17-14.24-14.87-35.8-20.75-45.8-5.25-8.92-10.98-12.89-14.9-15.21-1.16-.69-1.1-2.39,.11-3.01,15.23-7.76,33.53-11.67,49.35-18.18,29.77-12.25,57.83-29.38,81.14-51.71,5.79-5.55,55.16-60.26,47.97-65.13Z"/><path class="neck-1" d="M13.28,169.62c-3.41-2.63-5.74-4.68-6.35-5.74-5.04-8.66-4.93-24.96-6.93-34.82,1.3,6.44,42.69,9.55,48.6,9.92,14.15,.88,26.92-.11,41.39-1.71,1.48-.16,2.47,1.5,1.59,2.7-8.43,11.49-15.35,47.62-17.1,63.18-.28,2.49-3.01,3.89-5.2,2.68-9.37-5.2-20.71-12.44-24.9-14.9-10.75-6.32-21.24-13.7-31.11-21.32Z"/><path class="neck-5" d="M58.43,199.5l8.23,4.85s7.29-3.05,8.37-5.45l1.25-8.03-17.85,8.64Z"/><path class="neck-5" d="M153.9,191c.72-.23,1.5-.42,2.12-.93,3.53-2.83,10.83-8.69,14.61-11.76-.72-8.32-1.43-16.24-2.99-25.01-1.29-7.24-2.45-10.35-4.44-16.56-1.09-3.4-2.52-6.68-4.27-9.79-.53-.94-5.93-7.89-5.75-8.29-3.01,6.72-7.34,11.63-11.77,17.55-5.23,6.99-8.93,15.14-10.69,23.69-1.52,7.38-1.67,14.31-.64,21.74,.28,2,.9,4.09,2.45,5.38,1.98,1.66,4.82,1.75,7.2,2.42,4.59,1.28,9.53,3.02,14.17,1.54Z"/><g id="Hat-Bow"><path class="neck-3" d="M109.74,173.55c.31,.21,.63,.42,.97,.61,11.61,6.75,26.32,10.68,39.56,12.72,3.39,.52,7.24,.79,9.88-1.41,8.21-6.81,1.97-32.48,.62-41.38-1.04-6.85-3.15-30.71-13.52-30.93-4.96-.11-9.39,2.87-13.45,5.73-8.36,5.89-16.72,11.77-25.07,17.66-10.13,7.14-9.93,29.54,1.01,37Z"/><path class="neck-5" d="M124.52,138.97c2.03-1.23,4.14-2.31,6.31-3.24,1.36-.58,3.12-1.04,4.16,.02,.78,.79,.72,2.12,.17,3.08s-1.47,1.64-2.37,2.28c-4.9,3.51-12.2,6.28-15.62,11.45-5.45,8.25,15.71,12.7,21,14.78,4.22,1.66,2.72,4.13-1.24,4.17-9.22,.09-19.18-5.17-26.92-9.81-6.49-3.89,.46-10.78,4.23-14.61,3.07-3.12,6.53-5.86,10.28-8.12Z"/><path class="neck-3" d="M95.12,176.09c-.23,.3-.47,.59-.73,.89-8.87,10.08-21.57,18.47-33.48,24.6-3.05,1.57-6.62,3.04-9.82,1.8-9.94-3.86-12.16-30.18-13.71-39.04-1.19-6.83-6.75-30.13,3.02-33.63,4.67-1.67,9.82-.25,14.57,1.17,9.79,2.93,19.59,5.87,29.38,8.8,11.87,3.56,18.79,24.86,10.77,35.41Z"/><path class="neck-5" d="M70.14,147.98c-2.31-.52-4.66-.88-7.02-1.08-1.47-.12-3.29,0-3.94,1.33-.49,.99-.01,2.24,.81,2.98s1.92,1.08,2.97,1.41c5.76,1.77,13.56,2.09,18.44,5.91,7.78,6.09-10.87,17.02-15.23,20.68-3.47,2.91-1.27,4.78,2.5,3.56,8.77-2.83,16.55-10.98,22.43-17.84,4.93-5.75-3.85-10.08-8.65-12.52-3.9-1.99-8.05-3.49-12.32-4.45Z"/><path class="neck-3" d="M90.83,172.62c1.21,4.45,3.46,7.95,8.46,7.02,4.04-.75,10.25-.08,13-3.71,3.86-5.1,1.39-13.7,.06-19.26-1.24-5.22,.51-13.68-5.45-16.09-3.45-1.39-7.34-.65-10.98,.11-2.97,.62-6.32,1.51-7.75,4.19-.92,1.72-.81,3.79-.68,5.73,.52,7.56,1.35,14.69,3.34,22Z"/><path class="neck-5" d="M90.25,172.82c1.4,3.92,5.28,7.51,9.04,6.82,4.04-.75,10.25-.08,13-3.71,3.86-5.1,1.39-13.7,.06-19.26-.86-3.44-.78-7.1-1.54-10.59-.73,3.44-.86,6.97-1.27,10.46s-1.12,7.03-2.9,10.06-4.78,5.51-8.27,5.92-7.19-1.6-8.18-5.03c-.71,1.58-.6,3.5,.06,5.34Z"/></g></g></g></g></g></svg>
