<?xml version="1.0" encoding="UTF-8"?><svg id="Layer_2" xmlns="http://www.w3.org/2000/svg"><defs><style>.piratemel-1,.piratemel-2{stroke-width:1.5px;}.piratemel-1,.piratemel-2,.piratemel-3,.piratemel-4,.piratemel-5,.piratemel-6{fill:none;stroke:#ebc17d;stroke-miterlimit:10;}.piratemel-1,.piratemel-3,.piratemel-4,.piratemel-5,.piratemel-6{stroke-linecap:round;}.piratemel-7{fill:#ebc17d;}.piratemel-8{fill:#c58d3a;}.piratemel-3{stroke-width:.5px;}.piratemel-4{stroke-width:4px;}.piratemel-5{stroke-width:.64px;}.piratemel-6{stroke-width:1.28px;}</style></defs><g id="Neck"><g id="Neck-PirateMedalion"><g><g><path class="piratemel-2" d="M2.92,150.75l.41-.28c.75-.51,1.77-.33,2.28,.4,.49,.71,1.01,1.4,1.52,2.09,.54,.72,.39,1.75-.33,2.3l-.4,.3c-.72,.55-1.75,.39-2.31-.35-.53-.71-1.07-1.42-1.57-2.16-.53-.76-.36-1.8,.39-2.31Z"/><polyline class="piratemel-1" points="3.93 151.75 2.3 149.41 .75 147.02"/></g><g><path class="piratemel-2" d="M8.18,157.82l.39-.31c.71-.56,1.74-.45,2.3,.26l1.67,1.99c.58,.69,.5,1.73-.18,2.32l-.38,.33c-.69,.6-1.73,.51-2.32-.2l-1.71-2.04c-.58-.73-.47-1.77,.24-2.34Z"/><path class="piratemel-1" d="M9.25,158.76c-1.18-1.49-2.38-2.96-3.5-4.5"/></g><g><path class="piratemel-2" d="M13.88,164.54l.37-.34c.68-.61,1.7-.54,2.32,.11l1.78,1.9c.61,.66,.61,1.68-.04,2.32l-.36,.35c-.64,.63-1.71,.62-2.34-.06l-1.82-1.94c-.64-.67-.58-1.74,.09-2.34Z"/><path class="piratemel-1" d="M15,165.41c-1.27-1.41-2.55-2.81-3.77-4.27"/></g><g><path class="piratemel-2" d="M19.95,170.92l.35-.36c.64-.64,1.68-.65,2.33-.02l1.87,1.81c.66,.62,.7,1.65,.08,2.32l-.34,.37c-.62,.66-1.67,.69-2.34,.06l-1.91-1.85c-.66-.65-.68-1.69-.04-2.33Z"/><path class="piratemel-1" d="M21.13,171.72c-1.37-1.31-2.68-2.69-4.01-4.05"/></g><g><path class="piratemel-2" d="M26.35,176.98l.34-.37c.61-.67,1.65-.73,2.32-.13,.64,.58,1.3,1.15,1.96,1.71,.69,.59,.77,1.63,.19,2.32l-.32,.38c-.58,.69-1.63,.77-2.33,.16-.68-.57-1.34-1.16-2-1.75-.69-.62-.76-1.66-.15-2.33Z"/><path class="piratemel-1" d="M27.56,177.72c-1.43-1.25-2.82-2.55-4.2-3.85"/></g><g><path class="piratemel-2" d="M33.02,182.72l.32-.39c.58-.7,1.61-.8,2.31-.23l2.04,1.62c.71,.56,.84,1.6,.29,2.31l-.31,.4c-.56,.72-1.59,.84-2.32,.27l-2.08-1.65c-.71-.59-.83-1.63-.25-2.33Z"/><path class="piratemel-1" d="M34.26,183.42c-1.47-1.2-2.94-2.41-4.37-3.66"/></g><g><path class="piratemel-2" d="M39.95,188.16l.3-.4c.54-.72,1.57-.86,2.3-.34l2.11,1.54c.74,.52,.92,1.54,.4,2.29l-.29,.41c-.52,.74-1.56,.92-2.31,.38l-2.15-1.57c-.75-.54-.9-1.59-.36-2.31Z"/><path class="piratemel-1" d="M41.22,188.8c-1.52-1.14-3.05-2.27-4.53-3.45"/></g><g><path class="piratemel-2" d="M47.11,193.29l.28-.41c.51-.75,1.53-.95,2.28-.44,.72,.49,1.45,.96,2.18,1.43,.76,.49,.98,1.51,.5,2.27l-.27,.42c-.48,.77-1.51,.98-2.28,.48-.75-.48-1.49-.96-2.22-1.46-.77-.52-.98-1.54-.46-2.29Z"/><path class="piratemel-1" d="M48.42,193.86c-1.58-1.05-3.14-2.15-4.69-3.24"/></g><g><path class="piratemel-2" d="M54.51,198.06l.26-.43c.47-.77,1.48-1.01,2.26-.55l2.24,1.32c.79,.44,1.06,1.44,.62,2.23l-.24,.44c-.44,.79-1.45,1.06-2.26,.61l-2.3-1.35c-.8-.47-1.05-1.49-.58-2.27Z"/><path class="piratemel-1" d="M55.84,198.58c-1.63-.98-3.25-1.97-4.84-3.01"/></g><g><path class="piratemel-2" d="M62.16,202.44l.24-.44c.43-.8,1.42-1.1,2.21-.68l2.31,1.17c.81,.38,1.15,1.36,.77,2.18l-.21,.45c-.38,.82-1.38,1.16-2.22,.76l-2.39-1.21c-.83-.43-1.14-1.44-.71-2.23Z"/><path class="piratemel-1" d="M63.51,202.88c-1.68-.89-3.35-1.79-5-2.74"/></g><g><path class="piratemel-2" d="M70.08,206.3l.2-.46c.37-.83,1.32-1.2,2.14-.87,.79,.32,1.58,.65,2.38,.93,.83,.31,1.27,1.24,.98,2.09l-.16,.47c-.29,.87-1.25,1.31-2.13,.98-.85-.3-1.68-.65-2.52-.98-.88-.35-1.27-1.34-.9-2.17Z"/><path class="piratemel-1" d="M71.47,206.63c-1.76-.73-3.48-1.53-5.19-2.35"/></g><g><path class="piratemel-2" d="M78.38,209.31l.13-.48c.24-.88,1.11-1.37,1.94-1.22,.4,.08,.81,.19,1.2,.23l.53,.08c.07,0,.13,.03,.18,.02,.06-.02,.11,0,.25,.04,.21,0,.42,.05,.61,.14,.38,.17,.7,.48,.87,.9l.18,.47c.16,.42,.14,.87-.04,1.26-.09,.19-.21,.37-.37,.52-.23,.18-.58,.37-.95,.51-.17,.09-.37-.02-.56-.02l-.55-.08-.77-.11c-.48-.05-.92-.18-1.39-.27-.97-.19-1.51-1.13-1.28-2Z"/><path class="piratemel-1" d="M79.81,209.41c-1.85-.43-3.67-.99-5.45-1.65"/></g><g><path class="piratemel-2" d="M86.93,208.43l-.19-.47c-.33-.84,.08-1.8,.92-2.13l2.43-.96c.83-.36,1.79,.02,2.15,.85l.2,.46c.35,.83-.04,1.81-.89,2.18l-2.46,.98c-.86,.34-1.82-.07-2.16-.91Z"/><line class="piratemel-1" x1="88.14" y1="207.68" x2="82.84" y2="209.78"/></g><g><path class="piratemel-2" d="M95.06,205.04l-.2-.46c-.36-.83,.02-1.8,.85-2.16l2.4-1.04c.82-.39,1.79-.04,2.17,.79l.21,.45c.38,.82,.02,1.81-.82,2.2l-2.43,1.06c-.85,.37-1.82,0-2.18-.84Z"/><line class="piratemel-1" x1="96.24" y1="204.25" x2="91.01" y2="206.53"/></g><g><path class="piratemel-2" d="M103.07,201.39l-.21-.45c-.39-.82-.04-1.8,.78-2.19l2.36-1.12c.81-.41,1.79-.09,2.2,.72l.22,.45c.41,.81,.07,1.81-.75,2.22l-2.39,1.14c-.83,.4-1.82,.05-2.21-.77Z"/><line class="piratemel-1" x1="104.23" y1="200.57" x2="99.08" y2="203.01"/></g><g><path class="piratemel-2" d="M110.96,197.5l-.23-.45c-.41-.81-.09-1.8,.71-2.21l2.33-1.19c.8-.42,1.79-.14,2.22,.66l.24,.44c.43,.79,.13,1.81-.68,2.24l-2.36,1.21c-.82,.42-1.82,.11-2.23-.7Z"/><line class="piratemel-1" x1="112.09" y1="196.63" x2="107.02" y2="199.24"/></g><g><path class="piratemel-2" d="M118.73,193.36l-.24-.44c-.44-.79-.15-1.79,.65-2.23l2.29-1.27c.8-.44,1.79-.2,2.24,.59l.25,.43c.45,.78,.19,1.81-.62,2.26l-2.32,1.28c-.81,.45-1.81,.16-2.25-.63Z"/><line class="piratemel-1" x1="119.84" y1="192.46" x2="114.85" y2="195.22"/></g><g><path class="piratemel-2" d="M126.38,188.99l-.25-.43c-.46-.78-.2-1.79,.58-2.25l2.25-1.33c.79-.45,1.78-.24,2.26,.53l.26,.43c.47,.76,.24,1.81-.56,2.27l-2.28,1.35c-.79,.47-1.81,.22-2.27-.56Z"/><line class="piratemel-1" x1="127.45" y1="188.06" x2="122.55" y2="190.96"/></g><g><path class="piratemel-2" d="M133.89,184.4l-.27-.42c-.48-.77-.25-1.78,.51-2.27l2.21-1.4c.77-.48,1.78-.28,2.28,.47l.28,.42c.5,.76,.29,1.79-.49,2.28l-2.24,1.42c-.78,.49-1.8,.27-2.28-.49Z"/><path class="piratemel-1" d="M134.94,183.44c-1.61,1.01-3.2,2.05-4.82,3.04"/></g><g><path class="piratemel-2" d="M141.27,179.6l-.28-.42c-.5-.75-.3-1.78,.45-2.28l2.17-1.46c.76-.5,1.78-.32,2.3,.41l.29,.41c.52,.75,.33,1.78-.43,2.29l-2.19,1.48c-.76,.52-1.79,.32-2.29-.43Z"/><path class="piratemel-1" d="M142.29,178.61c-1.58,1.06-3.14,2.15-4.73,3.17"/></g><g><path class="piratemel-2" d="M148.51,174.59l-.29-.41c-.53-.74-.35-1.77,.38-2.3l2.12-1.53c.74-.53,1.78-.37,2.31,.35l.3,.4c.54,.73,.37,1.75-.37,2.29l-2.15,1.55c-.75,.54-1.78,.37-2.3-.36Z"/><path class="piratemel-1" d="M149.5,173.57c-1.55,1.1-3.07,2.24-4.64,3.3"/></g><g><path class="piratemel-2" d="M155.61,169.38l-.3-.4c-.55-.72-.4-1.76,.32-2.31l2.08-1.59c.72-.55,1.76-.42,2.32,.29l.31,.39c.56,.71,.42,1.74-.31,2.3l-2.1,1.61c-.73,.56-1.77,.42-2.31-.3Z"/><path class="piratemel-1" d="M156.57,168.33c-1.52,1.14-3,2.34-4.55,3.43"/></g><g><path class="piratemel-2" d="M162.56,163.98l-.31-.39c-.56-.71-.45-1.75,.26-2.32l2.03-1.64c.71-.57,1.75-.47,2.33,.23l.32,.39c.58,.7,.47,1.73-.25,2.31l-2.06,1.66c-.72,.58-1.75,.47-2.32-.23Z"/><path class="piratemel-1" d="M163.49,162.91c-1.48,1.19-2.94,2.41-4.46,3.55"/></g><g><path class="piratemel-2" d="M169.36,158.4l-.32-.38c-.58-.69-.5-1.73,.19-2.32l1.99-1.7c.69-.59,1.73-.52,2.33,.16l.33,.38c.6,.68,.51,1.72-.19,2.32l-2.01,1.72c-.7,.6-1.74,.52-2.32-.17Z"/><path class="piratemel-1" d="M170.27,157.3c-1.45,1.23-2.87,2.49-4.37,3.66"/></g><g><path class="piratemel-2" d="M176.02,152.64l-.33-.37c-.6-.68-.54-1.72,.13-2.33l1.94-1.76c.67-.61,1.72-.56,2.33,.1l.34,.37c.62,.67,.56,1.71-.12,2.32l-1.96,1.78c-.68,.62-1.72,.57-2.33-.11Z"/><path class="piratemel-1" d="M176.89,151.51c-1.4,1.28-2.81,2.55-4.27,3.77"/></g><g><path class="piratemel-2" d="M182.52,146.7l-.34-.37c-.62-.66-.59-1.71,.07-2.33l1.89-1.81c.66-.63,1.7-.61,2.33,.04l.35,.36c.63,.65,.61,1.69-.06,2.33l-1.91,1.83c-.67,.64-1.71,.62-2.33-.05Z"/><polyline class="piratemel-1" points="183.36 145.55 181.3 147.52 179.19 149.43"/></g><g><path class="piratemel-2" d="M188.86,140.59l-.35-.36c-.64-.64-.63-1.69,0-2.34l1.84-1.86c.64-.65,1.68-.66,2.33-.02l.36,.35c.65,.63,.65,1.68,0,2.33l-1.86,1.88c-.65,.65-1.69,.66-2.33,.02Z"/><path class="piratemel-1" d="M189.67,139.42c-1.32,1.36-2.69,2.68-4.07,3.99"/></g><g><path class="piratemel-2" d="M195.04,134.32l-.36-.35c-.65-.63-.68-1.67-.06-2.34l1.79-1.91c.62-.66,1.66-.7,2.33-.09l.37,.34c.67,.62,.69,1.66,.06,2.33l-1.81,1.93c-.63,.67-1.67,.71-2.32,.08Z"/><path class="piratemel-1" d="M195.82,133.13c-1.28,1.4-2.63,2.74-3.97,4.09"/></g><g><path class="piratemel-2" d="M201.06,127.89l-.37-.34c-.67-.61-.72-1.66-.12-2.34l1.74-1.96c.6-.68,1.64-.75,2.33-.15l.38,.33c.68,.6,.74,1.64,.13,2.33l-1.76,1.98c-.61,.69-1.65,.75-2.32,.14Z"/><path class="piratemel-1" d="M201.8,126.68c-1.24,1.44-2.57,2.8-3.86,4.19"/></g><g><path class="piratemel-2" d="M206.9,121.31l-.38-.33c-.68-.59-.77-1.64-.18-2.33l1.68-2c.58-.7,1.62-.79,2.32-.21l.38,.32c.7,.58,.78,1.62,.19,2.33l-1.7,2.03c-.59,.7-1.63,.8-2.31,.2Z"/><path class="piratemel-1" d="M207.61,120.08c-1.2,1.47-2.51,2.86-3.76,4.29"/></g><g><path class="piratemel-2" d="M212.57,114.57l-.39-.32c-.7-.57-.8-1.61-.24-2.32l1.63-2.05c.57-.71,1.6-.83,2.31-.27l.39,.31c.71,.56,.82,1.6,.25,2.32l-1.65,2.07c-.57,.72-1.61,.84-2.31,.26Z"/><path class="piratemel-1" d="M213.25,113.32c-1.18,1.49-2.43,2.92-3.65,4.38"/></g><g><path class="piratemel-2" d="M218.05,107.69l-.4-.31c-.72-.56-.83-1.58-.29-2.31l1.57-2.09c.55-.73,1.58-.88,2.3-.33l.4,.3c.73,.54,.87,1.58,.31,2.31l-1.59,2.12c-.55,.74-1.6,.87-2.31,.31Z"/><path class="piratemel-1" d="M218.71,106.43c-1.16,1.51-2.36,2.98-3.53,4.47"/></g><g><path class="piratemel-2" d="M223.35,100.66l-.4-.3c-.73-.54-.87-1.55-.34-2.3l1.51-2.14c.52-.74,1.55-.92,2.29-.4l.41,.29c.74,.52,.91,1.56,.38,2.31l-1.53,2.16c-.53,.75-1.59,.9-2.31,.37Z"/><line class="piratemel-1" x1="223.99" y1="99.39" x2="220.57" y2="103.95"/></g><g><path class="piratemel-2" d="M228.47,93.49l-.41-.29c-.75-.52-.92-1.54-.4-2.28l1.45-2.18c.5-.76,1.52-.96,2.28-.46l.42,.28c.75,.5,.95,1.53,.44,2.3l-1.47,2.2c-.53,.76-1.56,.94-2.31,.43Z"/><line class="piratemel-1" x1="229.07" y1="92.21" x2="225.78" y2="96.86"/></g><g><path class="piratemel-2" d="M233.39,86.19l-.42-.27c-.76-.5-.96-1.51-.46-2.27l1.39-2.21c.48-.77,1.5-1,2.26-.52l.42,.27c.77,.48,.99,1.5,.5,2.28l-1.41,2.24c-.51,.77-1.54,.98-2.3,.49Z"/><line class="piratemel-1" x1="233.96" y1="84.89" x2="230.79" y2="89.63"/></g><g><path class="piratemel-2" d="M238.11,78.76l-.43-.26c-.77-.48-1-1.49-.52-2.26,.47-.74,.89-1.5,1.34-2.25,.46-.78,1.47-1.04,2.25-.58l.43,.25c.78,.46,1.04,1.48,.57,2.27-.45,.76-.88,1.53-1.35,2.27-.49,.78-1.51,1.03-2.28,.55Z"/><line class="piratemel-1" x1="238.64" y1="77.44" x2="235.61" y2="82.27"/></g><g><path class="piratemel-2" d="M242.62,71.2l-.43-.25c-.78-.45-1.05-1.46-.59-2.24,.45-.75,.86-1.52,1.28-2.28,.44-.8,1.43-1.09,2.23-.65l.44,.24c.79,.44,1.08,1.45,.63,2.26-.43,.77-.84,1.55-1.3,2.31-.47,.79-1.48,1.07-2.26,.61Z"/><line class="piratemel-1" x1="243.11" y1="69.87" x2="240.23" y2="74.78"/></g><g><path class="piratemel-2" d="M246.92,63.52l-.44-.24c-.8-.43-1.09-1.43-.65-2.22,.43-.76,.83-1.54,1.22-2.31,.41-.81,1.4-1.13,2.21-.71l.45,.23c.81,.42,1.12,1.42,.7,2.24-.4,.79-.8,1.57-1.23,2.34-.44,.81-1.45,1.11-2.24,.68Z"/><line class="piratemel-1" x1="247.38" y1="62.17" x2="244.63" y2="67.17"/></g><g><path class="piratemel-2" d="M251,55.72l-.45-.23c-.81-.41-1.13-1.4-.72-2.2,.4-.77,.79-1.55,1.16-2.34,.39-.82,1.37-1.17,2.18-.78l.45,.22c.82,.39,1.16,1.38,.77,2.22-.37,.8-.76,1.59-1.17,2.37-.42,.82-1.41,1.15-2.22,.74Z"/><line class="piratemel-1" x1="251.42" y1="54.36" x2="248.82" y2="59.43"/></g><g><path class="piratemel-2" d="M254.85,47.8l-.45-.21c-.82-.39-1.17-1.36-.78-2.18,.38-.79,.75-1.57,1.09-2.38,.36-.83,1.33-1.21,2.16-.84l.46,.2c.83,.37,1.2,1.35,.83,2.19-.34,.81-.72,1.61-1.1,2.41-.39,.83-1.38,1.2-2.2,.81Z"/><line class="piratemel-1" x1="255.23" y1="46.43" x2="252.79" y2="51.58"/></g><g><path class="piratemel-2" d="M258.47,39.78l-.46-.2c-.83-.36-1.21-1.33-.85-2.16,.35-.8,.71-1.59,1.02-2.41,.34-.84,1.29-1.25,2.13-.91l.46,.19c.84,.34,1.24,1.31,.9,2.17-.32,.82-.68,1.63-1.03,2.44-.37,.84-1.34,1.24-2.17,.88Z"/><line class="piratemel-1" x1="258.8" y1="38.39" x2="256.52" y2="43.62"/></g><g><path class="piratemel-2" d="M261.84,31.64l-.47-.18c-.84-.33-1.25-1.29-.91-2.13,.32-.81,.66-1.61,.95-2.43,.31-.85,1.25-1.29,2.1-.97l.47,.17c.85,.32,1.28,1.27,.97,2.14-.29,.83-.64,1.65-.96,2.47-.34,.86-1.3,1.28-2.14,.94Z"/><line class="piratemel-1" x1="262.13" y1="30.25" x2="260.01" y2="35.54"/></g><g><path class="piratemel-2" d="M264.96,23.41l-.47-.17c-.85-.31-1.29-1.25-.98-2.1,.29-.82,.61-1.63,.87-2.46,.28-.86,1.21-1.33,2.07-1.04l.47,.16c.86,.29,1.32,1.23,1.04,2.11-.26,.84-.59,1.66-.89,2.5-.32,.87-1.26,1.32-2.11,1.01Z"/><line class="piratemel-1" x1="265.2" y1="22.01" x2="263.25" y2="27.36"/></g><g><path class="piratemel-2" d="M267.81,15.08l-.48-.15c-.86-.28-1.33-1.21-1.05-2.07,.26-.83,.56-1.65,.8-2.49,.25-.87,1.16-1.37,2.03-1.11l.48,.14c.87,.26,1.36,1.19,1.11,2.07-.24,.85-.54,1.68-.81,2.52-.29,.88-1.22,1.36-2.08,1.08Z"/><line class="piratemel-1" x1="268" y1="13.67" x2="266.23" y2="19.09"/></g><g><path class="piratemel-2" d="M270.38,6.66l-.48-.14c-.87-.25-1.37-1.16-1.12-2.03l.72-2.51c.24-.88,1.14-1.4,2.02-1.17l.48,.13c.87,.24,1.39,1.15,1.15,2.03l-.73,2.54c-.26,.89-1.17,1.4-2.04,1.15Z"/><line class="piratemel-1" x1="270.53" y1="5.25" x2="268.94" y2="10.72"/></g></g><g><circle class="piratemel-8" cx="81.36" cy="240.82" r="25.96"/><path class="piratemel-5" d="M75.65,219.05c.2,.43,.86,.5,1.21,.18s.37-.9,.13-1.31c-.28-.48-.97-.68-1.52-.44-.46,.21-.77,.68-.87,1.17-.17,.84,.3,1.55,1.12,1.81,.8,.26,1.66-.16,2.28-.73,1.33-1.24,1.89-3.67,2.77-5.23,.13-.24,.2-.4,.48-.4,.21,0,.34,.2,.39,.33,.45,1.08,.89,2.64,1.34,3.72,.51,1.22,.84,2.37,2.29,2.66,.6,.12,1.26-.08,1.66-.55s.48-1.18,.16-1.71-1.01-.79-1.58-.58c-.42,.16-.74,.59-.69,1.03s.54,.8,.96,.65"/><circle class="piratemel-5" cx="81.36" cy="240.82" r="25.96"/><circle class="piratemel-5" cx="81.36" cy="240.82" r="18.81"/><path class="piratemel-3" d="M72.35,257.33c.56-.61,1.62-1.72,1.9-2.5,0,0-.12-1.32-.39-2.74-3.64-2.43-6.04-6.57-6.04-11.27,0-7.48,6.06-13.54,13.54-13.54s13.54,6.06,13.54,13.54c0,4.61-2.3,8.68-5.82,11.13-.3,.82-.65,1.69-.95,2.51-.07,.19-.14,.39-.12,.59,.03,.25,.21,.46,.38,.64,.5,.55,1,1.09,1.5,1.64"/><circle class="piratemel-3" cx="81.36" cy="240.82" r="24.57"/><path class="piratemel-5" d="M93.09,224.61c1.67-.86,4.33-2.36,6.14-2.88,.19-.06,.42-.14,.55,.02,.11,.13,0,.37-.07,.5-.91,1.75-2.29,3.92-3.45,5.7"/><path class="piratemel-5" d="M103.14,235.11c-.43,.2-.5,.86-.18,1.21s.9,.37,1.31,.13c.48-.28,.68-.97,.44-1.52-.21-.46-.68-.77-1.17-.87-.84-.17-1.55,.3-1.81,1.12-.26,.8,.16,1.66,.73,2.28,1.24,1.33,3.67,1.89,5.23,2.77,.24,.13,.4,.2,.4,.48,0,.21-.2,.34-.33,.39-1.08,.45-2.64,.89-3.72,1.34-1.22,.51-2.37,.84-2.66,2.29-.12,.6,.08,1.26,.55,1.66s1.18,.48,1.71,.16,.79-1.01,.58-1.58c-.16-.42-.59-.74-1.03-.69s-.8,.54-.65,.96"/><path class="piratemel-5" d="M97.58,252.55c.86,1.67,2.36,4.33,2.88,6.14,.06,.19,.14,.42-.02,.55-.13,.11-.37,0-.5-.07-1.75-.91-3.92-2.29-5.7-3.45"/><path class="piratemel-5" d="M87.08,262.6c-.2-.43-.86-.5-1.21-.18s-.37,.9-.13,1.31c.28,.48,.97,.68,1.52,.44,.46-.21,.77-.68,.87-1.17,.17-.84-.3-1.55-1.12-1.81-.8-.26-1.66,.16-2.28,.73-1.33,1.24-1.89,3.67-2.77,5.23-.13,.24-.2,.4-.48,.4-.21,0-.34-.2-.39-.33-.45-1.08-.89-2.64-1.34-3.72-.51-1.22-.84-2.37-2.29-2.66-.6-.12-1.26,.08-1.66,.55s-.48,1.18-.16,1.71,1.01,.79,1.58,.58c.42-.16,.74-.59,.69-1.03s-.54-.8-.96-.65"/><path class="piratemel-5" d="M69.64,257.03c-1.67,.86-4.33,2.36-6.14,2.88-.19,.06-.42,.14-.55-.02-.11-.13,0-.37,.07-.5,.91-1.75,2.29-3.92,3.45-5.7"/><path class="piratemel-5" d="M59.59,246.54c.43-.2,.5-.86,.18-1.21s-.9-.37-1.31-.13c-.48,.28-.68,.97-.44,1.52,.21,.46,.68,.77,1.17,.87,.84,.17,1.55-.3,1.81-1.12,.26-.8-.16-1.66-.73-2.28-1.24-1.33-3.67-1.89-5.23-2.77-.24-.13-.4-.2-.4-.48,0-.21,.2-.34,.33-.39,1.08-.45,2.64-.89,3.72-1.34,1.22-.51,2.37-.84,2.66-2.29,.12-.6-.08-1.26-.55-1.66s-1.18-.48-1.71-.16-.79,1.01-.58,1.58c.16,.42,.59,.74,1.03,.69s.8-.54,.65-.96"/><path class="piratemel-5" d="M65.15,229.1c-.86-1.67-2.36-4.33-2.88-6.14-.06-.19-.14-.42,.02-.55,.13-.11,.37,0,.5,.07,1.75,.91,3.92,2.29,5.7,3.45"/><circle class="piratemel-7" cx="88.6" cy="221.23" r=".85"/><circle class="piratemel-7" cx="90.1" cy="222.25" r=".97"/><circle class="piratemel-7" cx="92.88" cy="217.43" r="1.17"/><circle class="piratemel-7" cx="91.81" cy="222.79" r=".85"/><line class="piratemel-5" x1="89.68" y1="221.51" x2="90.67" y2="219.57"/><line class="piratemel-5" x1="91.21" y1="222.25" x2="92.2" y2="220.32"/><path class="piratemel-7" d="M90.05,218.96c-.1-.32,.05-.74,.31-.96s.63-.3,.97-.28,.68,.2,1,.33c.38,.16,.75,.36,1.02,.65s.45,.69,.39,1.08-.4,.74-.81,.76c-.59,.03-1-.51-1.48-.74-.26-.12-.51-.08-.76-.21-.27-.14-.54-.34-.64-.63Z"/><circle class="piratemel-7" cx="100.96" cy="248.06" r=".85"/><circle class="piratemel-7" cx="99.94" cy="249.55" r=".97"/><circle class="piratemel-7" cx="104.76" cy="252.34" r="1.17"/><circle class="piratemel-7" cx="99.39" cy="251.27" r=".85"/><line class="piratemel-5" x1="100.68" y1="249.14" x2="102.62" y2="250.13"/><line class="piratemel-5" x1="99.94" y1="250.67" x2="101.87" y2="251.66"/><path class="piratemel-7" d="M103.22,249.51c.32-.1,.74,.05,.96,.31s.3,.63,.28,.97-.2,.68-.33,1c-.16,.38-.36,.75-.65,1.02s-.69,.45-1.08,.39-.74-.4-.76-.81c-.03-.59,.51-1,.74-1.48,.12-.26,.08-.51,.21-.76,.14-.27,.34-.54,.63-.64Z"/><circle class="piratemel-7" cx="74.13" cy="260.41" r=".85"/><circle class="piratemel-7" cx="72.63" cy="259.39" r=".97"/><circle class="piratemel-7" cx="69.85" cy="264.21" r="1.17"/><circle class="piratemel-7" cx="70.92" cy="258.85" r=".85"/><line class="piratemel-5" x1="73.05" y1="260.14" x2="72.06" y2="262.08"/><line class="piratemel-5" x1="71.52" y1="259.39" x2="70.53" y2="261.33"/><path class="piratemel-7" d="M72.68,262.68c.1,.32-.05,.74-.31,.96s-.63,.3-.97,.28-.68-.2-1-.33c-.38-.16-.75-.36-1.02-.65s-.45-.69-.39-1.08,.4-.74,.81-.76c.59-.03,1,.51,1.48,.74,.26,.12,.51,.08,.76,.21,.27,.14,.54,.34,.64,.63Z"/><circle class="piratemel-7" cx="61.77" cy="233.59" r=".85"/><circle class="piratemel-7" cx="62.79" cy="232.09" r=".97"/><circle class="piratemel-7" cx="57.97" cy="229.31" r="1.17"/><circle class="piratemel-7" cx="63.33" cy="230.38" r=".85"/><line class="piratemel-5" x1="62.05" y1="232.5" x2="60.11" y2="231.52"/><line class="piratemel-5" x1="62.79" y1="230.98" x2="60.86" y2="229.99"/><path class="piratemel-7" d="M59.5,232.14c-.32,.1-.74-.05-.96-.31s-.3-.63-.28-.97,.2-.68,.33-1c.16-.38,.36-.75,.65-1.02s.69-.45,1.08-.39,.74,.4,.76,.81c.03,.59-.51,1-.74,1.48-.12,.26-.08,.51-.21,.76-.14,.27-.34,.54-.63,.64Z"/><circle class="piratemel-7" cx="98.72" cy="229.21" r=".85"/><circle class="piratemel-7" cx="99.34" cy="230.91" r=".97"/><circle class="piratemel-7" cx="104.42" cy="228.65" r="1.17"/><circle class="piratemel-7" cx="100.41" cy="232.36" r=".85"/><line class="piratemel-5" x1="99.44" y1="230.07" x2="101.38" y2="229.08"/><line class="piratemel-5" x1="100.24" y1="231.57" x2="102.17" y2="230.58"/><path class="piratemel-7" d="M101.23,228.22c.1-.32,.47-.57,.81-.59s.68,.13,.95,.35,.43,.56,.61,.85c.21,.35,.39,.73,.45,1.13s-.04,.82-.32,1.1-.75,.36-1.1,.14c-.5-.32-.51-1-.76-1.47-.13-.25-.37-.37-.49-.62-.14-.27-.24-.59-.15-.88Z"/><circle class="piratemel-7" cx="92.98" cy="258.18" r=".85"/><circle class="piratemel-7" cx="91.27" cy="258.79" r=".97"/><circle class="piratemel-7" cx="93.54" cy="263.88" r="1.17"/><circle class="piratemel-7" cx="89.83" cy="259.86" r=".85"/><line class="piratemel-5" x1="92.12" y1="258.9" x2="93.11" y2="260.83"/><line class="piratemel-5" x1="90.62" y1="259.7" x2="91.6" y2="261.63"/><path class="piratemel-7" d="M93.96,260.68c.32,.1,.57,.47,.59,.81s-.13,.68-.35,.95-.56,.43-.85,.61c-.35,.21-.73,.39-1.13,.45s-.82-.04-1.1-.32-.36-.75-.14-1.1c.32-.5,1-.51,1.47-.76,.25-.13,.37-.37,.62-.49,.27-.14,.59-.24,.88-.15Z"/><circle class="piratemel-7" cx="64.01" cy="252.44" r=".85"/><circle class="piratemel-7" cx="63.39" cy="250.73" r=".97"/><circle class="piratemel-7" cx="58.31" cy="253" r="1.17"/><circle class="piratemel-7" cx="62.32" cy="249.29" r=".85"/><line class="piratemel-5" x1="63.29" y1="251.58" x2="61.35" y2="252.56"/><line class="piratemel-5" x1="62.49" y1="250.08" x2="60.55" y2="251.06"/><path class="piratemel-7" d="M61.5,253.42c-.1,.32-.47,.57-.81,.59s-.68-.13-.95-.35-.43-.56-.61-.85c-.21-.35-.39-.73-.45-1.13s.04-.82,.32-1.1,.75-.36,1.1-.14c.5,.32,.51,1,.76,1.47,.13,.25,.37,.37,.49,.62,.14,.27,.24,.59,.15,.88Z"/><circle class="piratemel-7" cx="69.75" cy="223.47" r=".85"/><circle class="piratemel-7" cx="71.46" cy="222.85" r=".97"/><circle class="piratemel-7" cx="69.19" cy="217.77" r="1.17"/><circle class="piratemel-7" cx="72.9" cy="221.78" r=".85"/><line class="piratemel-5" x1="70.61" y1="222.75" x2="69.62" y2="220.81"/><line class="piratemel-5" x1="72.11" y1="221.95" x2="71.12" y2="220.01"/><path class="piratemel-7" d="M68.76,220.96c-.32-.1-.57-.47-.59-.81s.13-.68,.35-.95,.56-.43,.85-.61c.35-.21,.73-.39,1.13-.45s.82,.04,1.1,.32,.36,.75,.14,1.1c-.32,.5-1,.51-1.47,.76-.25,.13-.37,.37-.62,.49-.27,.14-.59,.24-.88,.15Z"/><line class="piratemel-3" x1="64.85" y1="231.8" x2="69.42" y2="234.44"/><line class="piratemel-3" x1="73.27" y1="223.84" x2="75.43" y2="228.65"/><line class="piratemel-3" x1="89.15" y1="223.7" x2="86.86" y2="228.44"/><line class="piratemel-3" x1="98.1" y1="232.22" x2="93.35" y2="234.53"/><line class="piratemel-3" x1="98.58" y1="248.42" x2="93.8" y2="246.18"/><line class="piratemel-3" x1="63.98" y1="248.01" x2="68.89" y2="246.11"/><path class="piratemel-6" d="M75.55,225.15c.61-.12,1.19,.26,1.71,.58s1.17,.63,1.73,.38c.56-.25,.78-.91,1-1.49s.64-1.21,1.26-1.18c.53,.03,.89,.55,1.08,1.05s.31,1.06,.71,1.41c1.27,1.12,2.44-.79,3.76-.64"/><path class="piratemel-7" d="M91.47,238.46c-.68-1.2-.88-2.66-.54-4,.17-.67,.47-1.37,.26-2.04-.16-.49-.58-.85-.99-1.17-2.13-1.72-4.46-3.12-8.8-3.39-4.34,.27-6.67,1.67-8.8,3.39-.4,.33-.83,.68-.99,1.17-.21,.66,.09,1.36,.26,2.04,.34,1.34,.14,2.8-.54,4-.25,.44-.57,.95-.38,1.41,.13,.32,.47,.5,.77,.69,1.6,1,2.53,2.85,2.84,4.71,.31,1.86,.1,3.77-.12,5.65,1.65,.37,3.18,1.25,4.33,2.49,.36,.39,.69,.81,1.15,1.07,.46,.26,1.47,.19,1.47,.19,0,0,1.01,.07,1.47-.19,.46-.26,.79-.69,1.15-1.07,1.15-1.24,2.68-2.12,4.33-2.49-.22-1.88-.43-3.79-.12-5.65,.31-1.86,1.24-3.71,2.84-4.71,.3-.18,.63-.36,.77-.69,.19-.47-.13-.97-.38-1.41Z"/><circle class="piratemel-8" cx="76.47" cy="237.85" r="3.18"/><circle class="piratemel-8" cx="86.02" cy="237.85" r="3.18"/><path class="piratemel-8" d="M83.66,242.71c-.4-1.17-1.03-2.26-1.83-3.21-.23-.27-.65-.27-.88,0-.8,.94-1.43,2.04-1.83,3.21-.08,.24-.15,.5-.04,.73,.14,.28,.5,.36,.81,.41,.25,.04,.54,.06,.71-.12,.09-.1,.12-.24,.15-.37,.09-.42,.27-1.11,.41-1.67,.06-.23,.38-.23,.44,0,.14,.56,.3,1.14,.42,1.66,.03,.13,.06,.27,.15,.37,.17,.19,.46,.16,.71,.12,.31-.05,.67-.13,.81-.41,.11-.22,.04-.49-.04-.73Z"/><path class="piratemel-7" d="M68.26,228.4c.3-.13,.65-.07,.97-.15,.83-.19,1.25-1.2,2.06-1.48,.56-.19,1.25,.06,1.55,.58s.18,1.24-.27,1.63c-.33,.29-.8,.4-1.15,.67-.51,.38-.73,1.03-1.06,1.57s-.94,1.05-1.55,.86c-1.04-.33-1.73-3.16-.54-3.68Z"/><path class="piratemel-7" d="M63.61,239.59c-.07,1.56,.56,3.13,1.69,4.2,.03,.02,.82-1.98,.88-2.19,.2-.82,.28-1.66,.24-2.5-.04-.8-.15-1.68-.47-2.41-.45-1.06-1.01-.49-1.47,.22-.52,.8-.83,1.73-.87,2.68Z"/><path class="piratemel-7" d="M67.6,252.46c-.35-.37-.61-.88-.5-1.37s.75-.85,1.16-.56c.01-.26,.07-.52,.21-.73s.39-.37,.64-.35c.27,.02,.49,.21,.65,.43s.25,.47,.39,.7c.25,.4,.63,.7,1.01,.98s.77,.57,1.05,.95,.45,.88,.31,1.33-.63,.81-1.09,.67c-.63-.19-.83-.94-1.49-1.08-.92-.2-1.65-.22-2.35-.96Z"/><path class="piratemel-7" d="M91.59,253.94c-.38-.01-.78-.19-.96-.54-.2-.39-.04-.87,.22-1.23s.61-.62,.89-.96c.38-.47,.61-1.06,1.09-1.43,.49-.37,1.21-.42,1.75-.1s.85,.96,.77,1.57-.56,1.15-1.16,1.31c-.71,.19-1.09,.11-1.49,.78-.28,.46-.48,.61-1.1,.59Z"/><path class="piratemel-7" d="M95.63,240.39c0-1.43,.48-2.86,1.34-4.02,.88,.74,1.4,1.88,1.37,3.03-.89-.19-1.87,.3-2.25,1.12,.57,.47,1.3,.74,2.03,.76,.4,.01,.22,2.59-.87,3.71-1.28-1.16-1.62-2.95-1.62-4.6Z"/><path class="piratemel-7" d="M90.66,229.5c-.49-.32-.91-.83-.88-1.41,.03-.54,.48-1.01,1-1.16s1.09-.04,1.58,.21c.25,.12,.52,.36,.44,.63-.06,.22-.33,.33-.42,.54-.12,.3,.19,.62,.51,.67s.64-.08,.95-.14,.7-.02,.88,.25c.15,.22,.09,.55-.1,.74s-.46,.28-.73,.28c.12,.42,.08,.93-.22,1.24s-.93,.3-1.12-.1c-.2-.43-.07-.73-.48-1.02s-.97-.44-1.41-.73Z"/><path class="piratemel-8" d="M86.72,246.23c.02-.78,.06-1.6,.41-2.29,.03-.06-.04-.11-.09-.08-.71,.5-1.45,.97-2.3,1.1-.71,.1-1.39-.08-2.08-.1-.95-.03-1.96-.08-2.9,.02-.59,.07-1.2,.16-1.79,.08-.85-.12-1.59-.6-2.3-1.1-.05-.04-.12,.02-.09,.08,.35,.68,.39,1.51,.41,2.29,.02,.73,.05,1.46,.03,2.18-.02,.52-.2,1.21,.2,1.63,.23,.24,.55,.38,.85,.54,.87,.48,1.4,1.41,2.4,1.66,.32,.08,.69,.04,1.08-.02,.53-.08,1.08-.08,1.61,0,.39,.06,.77,.1,1.08,.02,.99-.25,1.52-1.18,2.4-1.66,.3-.16,.61-.3,.85-.54,.41-.43,.22-1.11,.2-1.63-.02-.73,0-1.46,.03-2.18Z"/><path class="piratemel-7" d="M80.98,246.37c-.17-.18-.43-.28-.67-.23-.26,.06-.46,.3-.53,.56-.13,.48,.03,1.1,.21,1.55,.06,.14,.13,.28,.24,.38,.28,.24,.62,.08,.77-.21,.32-.62,.53-1.49-.02-2.05Z"/><path class="piratemel-7" d="M78.94,246.55c-.28-.03-.55,.16-.68,.41s-.15,.54-.13,.82c.01,.27,.05,.56,.22,.78s.49,.34,.73,.2c.36-.21,.54-.69,.54-1.1s-.26-1.07-.67-1.12Z"/><path class="piratemel-7" d="M77.91,247.08c-.09-.21-.29-.39-.52-.38-.21,.02-.37,.19-.48,.37-.21,.35-.29,.77-.23,1.17,.04,.25,.15,.52,.39,.6,.24,.09,.52-.06,.67-.27,.26-.38,.35-1.07,.17-1.5Z"/><path class="piratemel-7" d="M81.66,246.37c.17-.18,.43-.28,.67-.23,.26,.06,.46,.3,.53,.56,.13,.48-.02,1.1-.21,1.55-.06,.14-.13,.28-.24,.38-.28,.24-.62,.08-.77-.21-.32-.62-.53-1.49,.02-2.05Z"/><path class="piratemel-7" d="M83.7,246.55c.28-.03,.55,.16,.68,.41s.15,.54,.13,.82c-.01,.27-.05,.56-.22,.78s-.49,.34-.73,.2c-.36-.21-.54-.69-.54-1.1s.26-1.07,.67-1.12Z"/><path class="piratemel-7" d="M84.73,247.08c.09-.21,.29-.39,.52-.38,.21,.02,.37,.19,.48,.37,.21,.35,.29,.77,.23,1.17-.04,.25-.15,.52-.39,.6-.24,.09-.52-.06-.67-.27-.26-.38-.35-1.07-.17-1.5Z"/><path class="piratemel-7" d="M77.59,249.55c-.05,.16-.04,.33,0,.49,.04,.15,.11,.3,.23,.39,.13,.1,.31,.14,.48,.13,.46-.03,.71-.63,.47-1.01-.26-.42-1.01-.55-1.18,0Z"/><path class="piratemel-7" d="M79.12,249.49c-.06,.2-.06,.42-.04,.63,.02,.22,.06,.44,.17,.62s.33,.32,.54,.29c.27-.03,.45-.3,.52-.57,.11-.38,.13-1.08-.17-1.4-.36-.38-.91,.02-1.02,.42Z"/><path class="piratemel-7" d="M85.3,249.55c.05,.16,.04,.33,0,.49-.04,.15-.11,.3-.23,.39-.13,.1-.31,.14-.48,.13-.46-.03-.71-.63-.47-1.01,.26-.42,1.01-.55,1.18,0Z"/><path class="piratemel-7" d="M83.78,249.49c.06,.2,.06,.42,.04,.63-.02,.22-.06,.44-.17,.62s-.33,.32-.54,.29c-.27-.03-.45-.3-.52-.57-.11-.38-.13-1.08,.17-1.4,.36-.38,.91,.02,1.02,.42Z"/><path class="piratemel-7" d="M81.45,251.08c-.26,0-.49-.17-.64-.38-.04-.05-.07-.11-.1-.18-.16-.36-.15-.85,.05-1.19,.07-.11,.15-.21,.26-.3,.17-.14,.4-.22,.62-.16s.4,.26,.51,.45c.2,.34,.21,.83,.05,1.19-.11,.25-.34,.48-.61,.54-.04,0-.08,.01-.13,.01Z"/><path class="piratemel-7" d="M69.26,244.98c-.48-.59-.42-1.52,.05-2.12s1.25-.9,2.02-.9c.45,0,.9,.1,1.27,.35,.64,.43,.91,1.23,1.14,1.96,.18,.59,.37,1.18,.42,1.8s-.05,1.26-.4,1.77c-.36,.53-1.1,.88-1.66,.57-.84-.46-.41-1.47-.92-2.08s-1.4-.72-1.91-1.34Z"/><circle class="piratemel-8" cx="71.19" cy="243.97" r="1.38"/><path class="piratemel-7" d="M93.49,244.98c.48-.59,.42-1.52-.05-2.12s-1.25-.9-2.02-.9c-.45,0-.9,.1-1.27,.35-.64,.43-.91,1.23-1.14,1.96-.18,.59-.37,1.18-.42,1.8s.05,1.26,.4,1.77c.36,.53,1.1,.88,1.66,.57,.84-.46,.41-1.47,.92-2.08s1.4-.72,1.91-1.34Z"/><circle class="piratemel-8" cx="91.56" cy="243.97" r="1.38"/><path class="piratemel-7" d="M80.31,257.59c.22,.33,.67,.47,1.05,.34,.79-.27,.92-1.61,.09-1.91s-1.58,.89-1.13,1.57Z"/><path class="piratemel-7" d="M74.65,255.26c-.19,.25-.19,.6-.13,.91,.05,.27,.14,.55,.34,.74,.28,.29,.75,.35,1.11,.17s.59-.58,.6-.98c.02-.96-1.22-1.76-1.92-.84Z"/><path class="piratemel-7" d="M77.78,255.95c-.24-.13-.57-.04-.71,.19s-.06,.57,.17,.71,.57,.07,.71-.16,.08-.56-.14-.72"/><path class="piratemel-7" d="M79.02,257.62c.89,.14,1.05-1.39,.19-1.5s-1.04,1.37-.19,1.5Z"/><path class="piratemel-7" d="M87.42,255.26c.19,.25,.19,.6,.13,.91-.05,.27-.14,.55-.34,.74-.28,.29-.75,.35-1.11,.17s-.59-.58-.6-.98c-.02-.96,1.22-1.76,1.92-.84Z"/><path class="piratemel-7" d="M84.29,255.95c.24-.13,.57-.04,.71,.19s.06,.57-.17,.71-.57,.07-.71-.16-.08-.56,.14-.72"/><path class="piratemel-7" d="M83.05,257.62c-.89,.14-1.05-1.39-.19-1.5s1.04,1.37,.19,1.5Z"/></g><line class="piratemel-4" x1="80.92" y1="208.11" x2="80.92" y2="216.26"/></g></g></svg>
