<?xml version="1.0" encoding="UTF-8"?><svg xmlns="http://www.w3.org/2000/svg"><defs><style>.neck-1{fill:#e8e6e3;}.neck-2{mix-blend-mode:multiply;opacity:.12;}.neck-3{isolation:isolate;}</style></defs><g class="neck-3"><g id="Layer_2"><g id="Neck"><g id="Neck-Pearls"><g class="neck-2"><path d="M21.87,186.89c-.49-.73-.89-1.78-1.17-3.23-1.64-8.53-3.28-17.06-4.92-25.59,4.77,1.8,8.83,.55,13.07,4.34,3.32,2.98,5.22,7.32,5.16,11.79-.09,5.63-8.52,18.01-12.13,12.69Z"/><path d="M41.08,217.98c-6.43-.1-12.28-2.73-14.49-8.82-2.07-5.71-4.77-13.73-2.48-19.71,2.54-6.61,10.93-10.55,17.57-10.44,10.76,.17,19.35,9.03,19.19,19.79-.17,10.76-9.03,19.35-19.79,19.19Z"/><circle cx="76.66" cy="220.92" r="22.25" transform="translate(-145.42 294.16) rotate(-89.12)"/><circle cx="122.83" cy="220.01" r="24.17" transform="translate(-115.32 302.35) rotate(-79.9)"/><circle cx="171.04" cy="208.66" r="25.17" transform="translate(-64.84 77.68) rotate(-21.62)"/><circle cx="213.22" cy="185.73" r="22.91"/><circle cx="244.71" cy="155.96" r="21.04"/><circle cx="268.83" cy="123.75" r="19.61"/><circle cx="283.63" cy="90.17" r="18.19"/><circle cx="293.71" cy="57.72" r="16.78"/><circle cx="298.13" cy="25.5" r="15.5"/></g><g><circle class="neck-1" cx="15.5" cy="163.97" r="15.5"/><circle class="neck-1" cx="38.38" cy="188.5" r="19.49"/><circle class="neck-1" cx="73.66" cy="210.92" r="22.25" transform="translate(-138.37 281.31) rotate(-89.12)"/><circle class="neck-1" cx="119.83" cy="210.01" r="24.17" transform="translate(-107.94 291.15) rotate(-79.9)"/><circle class="neck-1" cx="168.04" cy="198.66" r="25.17" transform="translate(-61.36 75.87) rotate(-21.62)"/><circle class="neck-1" cx="210.22" cy="175.73" r="22.91"/><circle class="neck-1" cx="241.71" cy="145.96" r="21.04"/><circle class="neck-1" cx="265.83" cy="113.75" r="19.61"/><circle class="neck-1" cx="280.63" cy="80.17" r="18.19"/><circle class="neck-1" cx="290.71" cy="47.72" r="16.78"/><circle class="neck-1" cx="295.13" cy="15.5" r="15.5"/></g><g class="neck-2"><path d="M30.7,161c-.5-1.61-.92-3.25-1.75-4.72-.41-.72-.88-1.41-1.4-2.05-.36-.45-1.32-1.1-1.51-1.61,.64,1.74,.99,3.62,.96,5.58-.13,8.56-7.18,15.39-15.74,15.26-3.99-.06-7.59-1.64-10.3-4.15,2.15,5.84,7.7,10.05,14.3,10.15,1.19,.02,2.37-.17,3.55-.21s2.29-.62,3.17-1.37c1.22-1.04,2.15-2.37,3.25-3.53,1.2-1.25,2.59-2.32,4.1-3.16,.72-1.73,1.33-3.55,1.57-5.42,.2-1.59,.07-3.92-.2-4.77Z"/><path d="M57.79,186.37c-.18-1.36-.49-2.72-.94-4.06-.12,2.86-1.09,5.63-2.4,8.17-1.03,2.01-3.27,4.67-5.14,6.42-3.22,3-7.82,4.15-12.23,4.08-8.49-.13-15.6-5.68-18.16-13.29,0,.17-.02,.34-.03,.51-.17,10.76,8.42,19.62,19.19,19.79,7.6,.12,14.42-3.99,18.01-11.29,1.62-3.3,2.15-6.81,1.7-10.32Z"/><path d="M118.46,225.18c-10.75-.17-19.73-7.33-22.72-17.08,0,.01,0,.02,0,.03,0-.04-.01-.07-.02-.11-.12-.4-.25-.79-.35-1.2-2.27,10.06-11.33,17.51-22.05,17.34-10.63-.16-19.39-7.75-21.45-17.75-.28,1.34-.44,2.73-.46,4.16-.19,12.29,9.62,22.41,21.91,22.59,11.77,.18,21.54-8.81,22.51-20.36,1.37,11.87,11.36,21.18,23.63,21.37,13.35,.21,24.34-10.45,24.54-23.8,.04-2.62-.34-5.14-1.07-7.51-.97,12.64-11.62,22.5-24.47,22.31Z"/><path d="M165.65,214.82c-10.19-.16-18.86-6.35-22.69-15.12,.03,.47,.03,.95,.03,1.43,1.23,12.57,11.72,22.49,24.65,22.69,13.9,.21,25.34-10.88,25.55-24.78,.06-3.64-.67-7.1-2.02-10.25,.01,.41,.02,.83,.02,1.25-.21,13.9-11.66,24.99-25.55,24.78Z"/><path d="M295.81,31.73c3.8,2.99,6.3,7.58,6.41,12.79,.21,9.27-7.14,16.94-16.4,17.15-.11,0-.22,0-.33,0,4.52,3.37,7.42,8.78,7.32,14.85-.15,9.94-8.26,17.89-18.17,17.89,3.62,3.62,5.83,8.64,5.75,14.16-.17,10.83-9.08,19.48-19.91,19.31-2.53-.04-4.93-.57-7.14-1.48,2.92,3.67,4.63,8.34,4.55,13.4-.18,11.62-9.74,20.89-21.36,20.71-3.46-.05-6.71-.96-9.56-2.48,1.43,3.05,2.21,6.47,2.15,10.06-.2,12.65-10.61,22.75-23.26,22.55-5.87-.09-11.18-2.38-15.18-6.07,.26,1.26,.42,2.55,.49,3.87,4.04,6.05,10.87,10.08,18.69,10.2,12.65,.2,23.06-9.9,23.26-22.55,.08-4.94-1.42-9.53-4.02-13.31,3.43,2.58,7.66,4.15,12.28,4.22,11.62,.18,21.18-9.09,21.36-20.71,.09-6-2.35-11.44-6.32-15.33,2.71,1.48,5.8,2.35,9.1,2.4,10.83,.17,19.75-8.48,19.91-19.31,.1-6.52-3-12.32-7.84-15.97,.89,.15,1.8,.26,2.74,.27,10.04,.16,18.31-7.86,18.47-17.9,.11-6.81-3.55-12.8-9.05-16,.23,.01,.45,.04,.68,.05,9.27,.14,16.9-7.25,17.04-16.52,.12-7.58-4.81-14.05-11.67-16.24Z"/><path d="M305.63,13.86c-.13,8.19-6.58,14.77-14.63,15.22,1.35,.48,2.62,1.13,3.8,1.92,.03,0,.06,0,.1,0,8.56,.13,15.61-6.7,15.74-15.26,.12-7.65-5.34-14.08-12.61-15.45,4.63,2.74,7.7,7.81,7.61,13.57Z"/><path d="M191.19,188.8c0-.12-.01-.24-.02-.36-.15-.22-.31-.45-.45-.68,.16,.34,.31,.69,.46,1.04Z"/></g></g></g></g></g></svg>
