<?xml version="1.0" encoding="UTF-8"?><svg xmlns="http://www.w3.org/2000/svg"><defs><style>.neck-1{fill:#fff;}.neck-2{fill:#bcbec0;}.neck-3{fill:#a7a9ac;}.neck-4{fill:#14d1df;}.neck-5,.neck-6{fill:#414042;}.neck-7{fill:#808285;}.neck-8,.neck-9{fill:#58595b;}.neck-10{fill:#939598;stroke:#bcbec0;stroke-width:4px;}.neck-10,.neck-11{stroke-miterlimit:10;}.neck-9{stroke:#a7a9ac;}.neck-9,.neck-6{stroke-linejoin:round;stroke-width:8px;}.neck-6{stroke:#939598;}.neck-11{fill:#b9dcea;stroke:#6d6e71;stroke-width:3px;}.neck-12{isolation:isolate;}.neck-13{mix-blend-mode:multiply;opacity:.25;}</style></defs><g class="neck-12"><g id="Layer_2"><g id="Neck"><g id="Neck-Camera"><path class="neck-2" d="M184.07,213.13c.78,1.74,.23,4.05-.31,6.71-.08,.39-.18,.81-.49,1.06-.28,.23-.67,.26-1.04,.28-9.45,.59-18.9,1.18-28.36,1.63-.39,.02-.85,0-1.09-.3-.13-.17-.16-.4-.19-.62-.45-3.87-2.15-9.22,2.03-11.01s9.18-1.77,13.49-1.77c4.22,0,8.85,.16,12.88,1.56,1.68,.58,2.6,1.41,3.07,2.45Z"/><path class="neck-4" d="M22.03,276.83c5.44-15.18,3.67-34.13,1.48-49.22-5.31-36.68-10.15-74.31-22.05-109.57-2.19,9.41-1.25,21.19-1.32,31.04-.07,10.52,.19,21.04,.86,31.53,1.33,20.89,4.27,41.71,9.39,62.01,1.97,7.84,5.31,18.12-1.15,24.8-4.22,4.37-11.38,10.94-6.39,17.55s13.59,3.55,16.87-2.83c.88-1.71,1.64-3.48,2.3-5.32Z"/><polygon class="neck-9" points="179.81 342.09 14.33 336.42 14.33 228.45 179.81 221.85 179.81 342.09"/><polygon class="neck-6" points="179.81 221.85 202.88 228.54 202.13 329.96 179.81 342.09 179.81 221.85"/><path class="neck-13" d="M16.77,230.59l3.1,2.27c.21,.15,.33,.39,.33,.65v98.15c0,.32-.19,.6-.48,.73l-3.1,1.39c-.53,.24-1.13-.15-1.13-.73v-101.81c0-.66,.75-1.04,1.28-.65Z"/><path class="neck-13" d="M195.88,239.32c.57,2.44,.53,5.08,.32,7.6-.46,5.41,.19,10.33,.17,15.58-.02,6.57-.75,13.18-.86,19.77-.16,9.09,.98,18.17,.57,27.26-.18,4.05-.34,9.01-1.85,12.82s-4.67,6.88-7.06,10.02c-.48,.64-.99,1.46-.64,2.18,.43,.87,1.68,.78,2.62,.54,3.74-.94,7.64-2.19,10.17-5.1,4.26-4.91,1.83-14.33,1.88-20.36,.07-8.55,.61-17.08,.91-25.62,.54-15.32,1.29-30.73,.16-46-.16-2.2,.42-5.98-.55-7.94-1.89-3.81-8.32-3.75-11.88-4.15-2.21-.25-8.53-.56-4.94,3.06,2.64,2.66,6.92,2.94,9.19,6.2,.88,1.26,1.44,2.66,1.79,4.15Z"/><path class="neck-7" d="M91.43,195.28l36.8,3.52,8.5,9.16,.48,11.6-24.87,.94s18.13,25.03,17.43,60.93c-.48,24.51-10.41,45-16.66,55.53-2.81,4.73-7.89,7.64-13.39,7.64l-7.65-.14-.64-149.19Z"/><path class="neck-3" d="M37.44,222.78s-46.13,50.56-2.76,115.75c1.86,2.8,4.95,4.54,8.31,4.63l49.08,1.32c3.39,.09,6.6-1.5,8.59-4.25,10.09-13.92,36.63-59.75,1.84-119.77l-.35-12.5-10.72-12.68-44.41,2.71-9.15,9.97-.42,14.81Z"/><ellipse class="neck-5" cx="67.8" cy="282.14" rx="43.43" ry="56.56"/><ellipse class="neck-8" cx="57.4" cy="281.97" rx="43.43" ry="56.56"/><ellipse class="neck-10" cx="57.4" cy="281.97" rx="33.7" ry="43.89"/><ellipse class="neck-11" cx="57.4" cy="281.97" rx="19.18" ry="24.98"/><ellipse class="neck-1" cx="52.47" cy="276.74" rx="12.29" ry="8.31" transform="translate(-228.76 260.92) rotate(-76.04)"/><path class="neck-13" d="M134.81,230.27c-3.64-.14-7.29-.26-10.96-.65,1.52-1.69,3.75-2.52,5.92-3.18,4.26-1.3,8.87-2.46,13.34-2.57l32.24-.82c.7-.02,1.44-.02,2.05,.33,2.81,1.68,1.39,12.98,1.47,15.93,.2,7.33,.28,14.66,.23,21.99,0,12.16-.99,51.17-.84,58.62,.13,6.17,1.85,14.6-1.1,20.33-6.88-.5-13.8-.51-20.68-.04-1.45,.1-3.42-.19-3.55-1.64-.13-1.46,1.77-2.07,3.19-2.45,10.07-2.72,14.5-13.03,15.87-22.43,2.8-19.28,.69-38.85-2.1-58.06-.62-4.29-1.38-8.67-3.51-12.44-3.43-6.08-10.05-9.82-16.86-11.36-4.89-1.1-9.79-1.36-14.72-1.56Z"/><path class="neck-4" d="M295.7,20.39c1.68-5.61,2.23-9.33,1-9.89-4.84-2.23-10.03-6.56-14.36-10.1-.96-.78-2.39-.35-2.77,.82-11.36,35.34-24.78,71.98-43.64,104-17.54,29.77-39.35,60.83-48.06,94.66-5.03,19.57-8.99,44.44,2.4,69.24,4.3,9.36,16.3,15.36,25.71,11.17,1.07-.48,2.12-1.1,2.83-2.03,1.9-2.5,.65-6.25-1.57-8.47s-5.19-3.5-7.63-5.48c-4.76-3.86-7.07-10.11-7.49-16.22-2.96-43.37,17.65-76.27,38.48-111.54,21.79-36.89,42.76-74.92,55.1-116.16Z"/><ellipse class="neck-7" cx="194.84" cy="247.03" rx="4.5" ry="8.28"/></g></g></g></g></svg>
