<?xml version="1.0" encoding="UTF-8"?><svg id="Layer_2" xmlns="http://www.w3.org/2000/svg"><defs><style>.chains-1,.chains-2{stroke-linecap:round;}.chains-1,.chains-2,.chains-3,.chains-4{fill:none;stroke:#e2c675;stroke-miterlimit:10;}.chains-1,.chains-3{stroke-width:2.25px;}.chains-2,.chains-4{stroke-width:4.5px;}</style></defs><g id="Neck"><g id="Neck-Chains"><g><g><path class="chains-4" d="M6.02,181.75l1.46-.35c2.65-.63,5.29,.99,5.93,3.59,.61,2.51,1.24,4.99,1.89,7.47,.68,2.57-.87,5.24-3.48,5.98l-1.45,.41c-2.62,.74-5.34-.82-6.05-3.49-.67-2.55-1.32-5.11-1.94-7.65-.66-2.66,.99-5.32,3.63-5.95Z"/><line class="chains-2" x1="7.73" y1="185.61" x2="3.82" y2="169.17"/></g><g><path class="chains-4" d="M12.81,206.98l1.43-.46c2.61-.82,5.33,.56,6.19,3.03,.81,2.38,1.71,4.73,2.62,7.06,.99,2.39-.21,5.22-2.67,6.33l-1.37,.61c-2.5,1.12-5.4-.09-6.49-2.71-.98-2.51-1.94-5.03-2.81-7.56-.93-2.65,.51-5.48,3.09-6.29Z"/><path class="chains-2" d="M14.82,210.69c-1.82-5.33-3.39-10.74-4.84-16.18"/></g><g><path class="chains-4" d="M22.71,231.21l1.33-.7c2.43-1.25,5.34-.43,6.62,1.78l1.91,3.17,2.03,3.09c1.46,2.08,.93,5.09-1.23,6.74l-1.2,.9c-2.15,1.65-5.29,1.11-6.94-1.25l-2.25-3.43-2.12-3.51c-1.44-2.48-.55-5.56,1.85-6.8Z"/><path class="chains-2" d="M25.37,234.5c-2.8-4.89-5.22-9.99-7.34-15.2"/></g><g><path class="chains-4" d="M37.57,252.78l1.12-1c2.02-1.77,5.1-1.74,6.83,.11l2.63,2.55c.87,.85,1.82,1.61,2.73,2.43,.94,.86,1.51,1.96,1.62,3.19,.11,1.22-.21,2.53-1.03,3.62l-.91,1.2c-.82,1.08-2.01,1.72-3.29,1.84-1.28,.12-2.69-.24-3.75-1.21-1.03-.92-2.11-1.8-3.1-2.76l-2.97-2.88c-1.99-2.11-1.94-5.26,.13-7.07Z"/><path class="chains-2" d="M40.96,255.31c-3.92-4.04-7.5-8.42-10.69-13.06"/></g><g><path class="chains-4" d="M57.61,269.66l.78-1.29c.71-1.17,1.79-1.92,2.96-2.27,1.18-.37,2.44-.32,3.54,.28,2.14,1.07,4.3,2.1,6.53,2.91,.58,.22,1.08,.58,1.5,.99,.43,.39,.79,.88,1.05,1.43,.52,1.09,.68,2.43,.29,3.74l-.43,1.44c-.38,1.3-1.27,2.32-2.45,2.88-.59,.28-1.25,.46-1.93,.5-.68,.02-1.38-.11-2.06-.37-2.65-.97-5.2-2.17-7.71-3.43-1.29-.7-2.19-1.81-2.57-3.03-.36-1.25-.2-2.61,.5-3.77Z"/><path class="chains-2" d="M61.61,271.05c-4.98-2.63-9.64-5.85-13.95-9.47"/></g><g><path class="chains-4" d="M82.17,278.76l.23-1.49c.21-1.36,.92-2.44,1.86-3.24,.94-.8,2.1-1.2,3.33-1.1,2.37,.16,4.75,.22,7.14,.12,2.46-.08,4.71,1.85,5.03,4.56l.16,1.49c.32,2.69-1.79,5.19-4.75,5.28-2.81,.12-5.63,.05-8.45-.14-1.47-.11-2.75-.84-3.57-1.82-.83-.98-1.19-2.33-.99-3.66Z"/><path class="chains-2" d="M86.41,278.53c-5.61-.51-11.14-1.78-16.43-3.72"/></g><g><path class="chains-4" d="M108.36,277.74l-.32-1.47c-.29-1.33-.04-2.66,.57-3.72,.61-1.07,1.58-1.84,2.79-2.22,1.17-.34,2.33-.67,3.48-1.08l1.73-.58,1.71-.65c1.19-.44,2.46-.37,3.58,.1,1.13,.48,2.12,1.4,2.68,2.64l.61,1.37c.56,1.24,.54,2.59,.04,3.77-.5,1.2-1.49,2.21-2.85,2.71l-1.94,.74-1.97,.66c-1.3,.46-2.64,.84-3.97,1.23-1.38,.43-2.81,.17-3.92-.46-1.12-.64-1.93-1.71-2.22-3.04Z"/><path class="chains-2" d="M112.22,276c-5.42,1.51-11.02,2.41-16.64,2.69"/></g><g><path class="chains-4" d="M132.8,268.31l-.73-1.31c-.66-1.19-.79-2.53-.51-3.72,.3-1.18,1-2.25,2.09-2.94,1.05-.64,2.08-1.32,3.1-2.01,1.03-.67,2.03-1.41,3.04-2.13,2.07-1.51,5.08-1.08,6.78,1.04l.93,1.18c1.7,2.12,1.27,5.27-1.05,6.96-1.11,.79-2.21,1.6-3.35,2.35-1.13,.77-2.27,1.52-3.44,2.23-1.2,.77-2.6,.96-3.86,.64-1.25-.31-2.34-1.1-3-2.29Z"/><path class="chains-2" d="M136.02,265.55c-4.79,2.96-9.84,5.51-15.09,7.55"/></g><g><path class="chains-4" d="M154,252.93l-1-1.12c-1.8-2.04-1.7-5.07,.17-6.87,1.81-1.73,3.57-3.52,5.31-5.34,1.79-1.9,4.87-2.01,6.89-.2l1.12,1.01c2.03,1.82,2.15,4.97,.23,7.01-1.85,1.94-3.74,3.85-5.69,5.72-2.04,1.96-5.22,1.84-7.02-.2Z"/><path class="chains-2" d="M156.55,249.55c-4.09,3.87-8.37,7.55-12.92,10.87"/></g><g><path class="chains-4" d="M172.04,233.98l-1.15-.96c-2.08-1.74-2.4-4.81-.74-6.86l2.37-3,2.32-3.07c1.61-2.13,4.68-2.54,6.86-.92l1.2,.9c2.18,1.63,2.6,4.72,.94,6.92l-2.38,3.15-2.46,3.12c-1.74,2.16-4.87,2.48-6.96,.73Z"/><path class="chains-2" d="M174.09,230.29c-3.54,4.38-7.21,8.66-11.07,12.76"/></g><g><path class="chains-4" d="M187.94,213.25l-1.22-.88c-2.2-1.59-2.74-4.66-1.2-6.84l4.43-6.3c1.47-2.23,4.5-2.83,6.76-1.33l1.25,.83c2.27,1.5,2.88,4.58,1.37,6.88l-4.54,6.46c-1.59,2.25-4.66,2.78-6.86,1.18Z"/><path class="chains-2" d="M189.72,209.42c-1.64,2.29-3.2,4.64-4.92,6.87l-5.09,6.74"/></g><g><path class="chains-4" d="M202.62,191.65l-1.27-.81c-2.27-1.45-2.98-4.48-1.6-6.77l4.02-6.57c1.42-2.26,4.37-3.05,6.72-1.69l1.3,.76c2.35,1.36,3.18,4.43,1.72,6.76l-4.12,6.73c-1.43,2.35-4.46,3.05-6.77,1.58Z"/><path class="chains-2" d="M204.18,187.72c-1.44,2.42-3,4.76-4.55,7.11l-4.64,7.06"/></g><g><path class="chains-4" d="M215.99,169.22l-1.31-.73c-2.38-1.34-3.19-4.28-1.92-6.63l3.59-6.81c1.25-2.36,4.22-3.28,6.65-2.05l1.34,.68c2.42,1.23,3.35,4.2,2.07,6.63l-3.69,6.98c-1.31,2.42-4.37,3.26-6.73,1.93Z"/><polyline class="chains-2" points="217.38 165.24 213.21 172.59 211.12 176.26 210.07 178.09 208.97 179.89"/></g><g><path class="chains-4" d="M228.08,146.07l-1.35-.66c-2.44-1.2-3.47-4.11-2.3-6.51,1.16-2.29,2.14-4.67,3.22-7,1.1-2.44,4.01-3.53,6.5-2.43l1.37,.61c2.49,1.1,3.59,4.01,2.46,6.52-1.1,2.39-2.11,4.82-3.3,7.17-1.21,2.47-4.16,3.5-6.6,2.31Z"/><path class="chains-2" d="M229.22,142.01c-2.5,5.05-4.86,10.17-7.56,15.11"/></g><g><path class="chains-4" d="M238.88,122.3l-1.38-.58c-2.5-1.06-3.7-3.92-2.67-6.39,.98-2.38,2-4.74,2.89-7.15,.95-2.5,3.79-3.75,6.33-2.78l1.4,.54c2.54,.96,3.81,3.82,2.83,6.39-.91,2.47-1.95,4.88-2.95,7.31-1.05,2.54-3.94,3.73-6.44,2.67Z"/><polyline class="chains-2" points="239.78 118.17 236.54 125.97 233.07 133.68"/></g><g><path class="chains-4" d="M248.42,97.99l-1.41-.51c-2.55-.93-3.91-3.73-3.02-6.26l2.55-7.28c.85-2.54,3.58-3.94,6.18-3.1l1.43,.47c2.58,.84,4.02,3.64,3.15,6.24l-2.6,7.44c-.91,2.59-3.71,3.94-6.27,3.01Z"/><path class="chains-2" d="M249.09,93.82c-1.79,5.34-3.89,10.57-5.88,15.84"/></g><g><path class="chains-4" d="M256.72,73.23l-1.44-.44c-2.6-.81-4.01-3.52-3.29-6.11l2.16-7.42c.75-2.58,3.49-4.07,6.09-3.36l1.45,.4c2.64,.73,4.13,3.44,3.37,6.07l-2.2,7.56c-.74,2.64-3.55,4.09-6.14,3.29Z"/><path class="chains-2" d="M257.21,69.04c-1.62,5.39-3.4,10.74-5.1,16.11"/></g><g><path class="chains-4" d="M263.86,48.13l-1.45-.38c-2.63-.69-4.2-3.36-3.52-5.95,.67-2.49,1.22-5.01,1.83-7.51,.62-2.61,3.28-4.23,5.93-3.61l1.46,.34c2.65,.62,4.28,3.27,3.64,5.93-.63,2.55-1.19,5.11-1.86,7.64-.7,2.65-3.4,4.23-6.03,3.54Z"/><polyline class="chains-2" points="264.19 43.92 262.04 52.09 260.96 56.17 259.78 60.23"/></g><g><path class="chains-4" d="M269.99,22.75l-1.47-.32c-2.65-.59-4.35-3.2-3.78-5.82,.54-2.53,1.1-5.03,1.62-7.58,.54-2.66,3.14-4.37,5.81-3.82l1.47,.3c2.66,.54,4.38,3.14,3.84,5.79l-1.64,7.68c-.58,2.67-3.2,4.36-5.85,3.78Z"/><polyline class="chains-2" points="270.13 18.53 268.35 26.79 266.38 35.01"/></g></g><g><g><path class="chains-3" d="M4.06,168.74l.71-.26c1.28-.46,2.69,.14,3.15,1.35l1.5,3.45c.57,1.17,.04,2.62-1.17,3.23l-.67,.33c-1.21,.61-2.7,.08-3.31-1.18l-1.6-3.69c-.51-1.32,.12-2.76,1.4-3.23Z"/><path class="chains-1" d="M5.15,170.54c-.49-1.32-1.04-2.61-1.45-3.96l-.66-2-.56-2.03"/></g><g><path class="chains-3" d="M9.53,180.6l.66-.36c1.18-.65,2.68-.25,3.34,.88,.62,1.1,1.29,2.17,1.97,3.24,.69,1.12,.37,2.61-.76,3.37l-.63,.42c-1.13,.76-2.68,.44-3.41-.75-.71-1.12-1.42-2.25-2.07-3.41-.7-1.21-.3-2.72,.9-3.37Z"/><path class="chains-1" d="M10.89,182.21c-1.43-2.42-2.7-4.93-3.91-7.47"/></g><g><path class="chains-3" d="M16.52,191.62l.61-.44c1.11-.79,2.63-.56,3.4,.51l2.32,3.01c.83,1.02,.67,2.55-.38,3.42l-.58,.48c-1.04,.87-2.61,.71-3.48-.37l-2.43-3.15c-.82-1.13-.58-2.68,.53-3.46Z"/><path class="chains-1" d="M18.04,193.08c-1.66-2.27-3.28-4.57-4.78-6.95"/></g><g><path class="chains-3" d="M24.66,201.82l.56-.5c1.03-.9,2.53-.8,3.45,.15,.87,.92,1.71,1.88,2.62,2.77,.93,.94,.91,2.48-.04,3.45l-.53,.53c-.95,.97-2.52,.96-3.49-.03-.95-.93-1.82-1.93-2.73-2.89-.96-1-.84-2.6,.17-3.49Z"/><path class="chains-1" d="M26.32,203.11c-.96-1.03-1.86-2.11-2.79-3.16-.91-1.07-1.79-2.16-2.69-3.25"/></g><g><path class="chains-3" d="M33.77,211.15l.51-.55c.92-.99,2.47-1.08,3.45-.2,.94,.86,1.9,1.68,2.88,2.49,1.01,.85,1.14,2.39,.3,3.44l-.47,.59c-.85,1.07-2.41,1.22-3.47,.32-1.03-.84-2.03-1.71-3.01-2.6-1.04-.92-1.12-2.48-.19-3.48Z"/><path class="chains-1" d="M35.57,212.26c-2.1-1.87-4.13-3.82-6.09-5.83"/></g><g><path class="chains-3" d="M43.8,219.5l.45-.6c.82-1.09,2.34-1.34,3.4-.56,1.02,.75,2.09,1.43,3.13,2.15,1.09,.73,1.42,2.2,.7,3.37l-.4,.64c-.71,1.15-2.27,1.51-3.43,.73-1.1-.76-2.22-1.48-3.29-2.26-1.12-.82-1.37-2.37-.56-3.45Z"/><path class="chains-1" d="M45.7,220.42c-2.28-1.64-4.51-3.36-6.66-5.16"/></g><g><path class="chains-3" d="M54.71,226.67l.37-.65c.68-1.19,2.13-1.57,3.29-.99,1.12,.57,2.21,1.2,3.36,1.7,1.18,.55,1.69,2.01,1.15,3.25l-.3,.69c-.54,1.25-2.02,1.77-3.29,1.18-1.23-.55-2.39-1.21-3.58-1.82-1.25-.63-1.66-2.2-.99-3.36Z"/><path class="chains-1" d="M56.7,227.35c-1.24-.66-2.44-1.39-3.67-2.08-1.19-.75-2.39-1.48-3.57-2.25"/></g><g><path class="chains-3" d="M66.5,232.27l.27-.7c.49-1.27,1.87-1.95,3.08-1.51,1.17,.42,2.37,.73,3.56,1.1,1.24,.32,2.01,1.62,1.72,2.95l-.17,.73c-.29,1.32-1.66,2.14-3.04,1.79-1.29-.4-2.61-.75-3.88-1.2-1.33-.48-2.02-1.89-1.53-3.16Z"/><path class="chains-1" d="M68.59,232.62c-1.32-.47-2.65-.93-3.94-1.5l-1.94-.81-1.91-.89"/></g><g><path class="chains-3" d="M79.13,235.65l.11-.74c.21-1.32,1.4-2.31,2.66-2.16,1.22,.18,2.43,.15,3.65,.22,1.27,.02,2.37,1.04,2.4,2.41l.02,.75c.03,1.34-1.06,2.53-2.5,2.51-1.37-.08-2.76-.06-4.12-.25-1.43-.16-2.43-1.37-2.21-2.74Z"/><path class="chains-1" d="M81.24,235.52c-2.8-.25-5.55-.87-8.28-1.54"/></g><g><path class="chains-3" d="M92.2,235.97l-.06-.75c-.09-1.36,.88-2.57,2.16-2.72,1.24-.15,2.49-.25,3.73-.45,1.28-.24,2.52,.65,2.77,1.98l.14,.74c.25,1.34-.66,2.63-2.04,2.88-1.32,.21-2.67,.32-4,.48-1.4,.16-2.61-.82-2.7-2.17Z"/><polyline class="chains-1" points="94.23 235.37 92.13 235.6 90.03 235.68 85.81 235.81"/></g><g><path class="chains-3" d="M105.1,233.92l-.17-.73c-.31-1.32,.47-2.66,1.73-2.99l1.82-.47c.61-.16,1.2-.38,1.8-.57,1.24-.41,2.61,.3,3.06,1.59l.24,.71c.45,1.28-.27,2.68-1.6,3.12-.64,.2-1.26,.44-1.91,.61l-1.94,.51c-1.36,.35-2.71-.44-3.02-1.76Z"/><path class="chains-1" d="M107.02,233.04l-2.04,.53c-.68,.19-1.36,.35-2.06,.46l-4.14,.77"/></g><g><path class="chains-3" d="M117.54,229.99l-.27-.7c-.49-1.27,.1-2.69,1.32-3.17,1.18-.45,2.3-1.04,3.46-1.55,1.19-.55,2.65,0,3.25,1.21l.33,.67c.6,1.22,.07,2.68-1.2,3.26-1.22,.54-2.4,1.16-3.65,1.63-1.3,.52-2.75-.09-3.24-1.36Z"/><path class="chains-1" d="M119.33,228.87l-3.92,1.55c-1.32,.48-2.67,.89-4,1.34"/></g><g><path class="chains-3" d="M129.38,224.5l-.35-.66c-.64-1.21-.19-2.64,.95-3.31l3.29-1.92c1.15-.65,2.62-.33,3.35,.83l.4,.64c.72,1.14,.38,2.71-.83,3.39l-3.44,2c-1.2,.7-2.74,.21-3.37-.98Z"/><path class="chains-1" d="M131.03,223.2c-1.23,.68-2.49,1.31-3.73,1.97-.63,.32-1.24,.66-1.87,.97l-1.91,.88"/></g><g><path class="chains-3" d="M140.58,217.81l-.42-.63c-.75-1.13-.47-2.66,.62-3.42,1.04-.73,2.11-1.43,3.14-2.19,1.07-.79,2.59-.54,3.41,.55l.45,.6c.81,1.09,.57,2.64-.54,3.45-1.06,.78-2.17,1.51-3.25,2.27-1.14,.78-2.66,.5-3.41-.64Z"/><path class="chains-1" d="M142.08,216.32l-1.74,1.19-1.78,1.13c-1.19,.74-2.35,1.54-3.57,2.24"/></g><g><path class="chains-3" d="M151.15,210.18l-.46-.59c-.83-1.08-.65-2.61,.4-3.43,1.02-.78,1.99-1.61,2.99-2.42,1.03-.85,2.58-.69,3.45,.35l.48,.58c.87,1.04,.72,2.59-.34,3.46-1.02,.83-2.02,1.68-3.06,2.48-1.08,.85-2.63,.66-3.46-.42Z"/><polyline class="chains-1" points="152.56 208.6 149.23 211.19 145.83 213.7"/></g><g><path class="chains-3" d="M161.23,201.91l-.49-.57c-.89-1.03-.78-2.56,.23-3.46l2.89-2.56c.97-.9,2.51-.83,3.44,.17l.51,.55c.92,1,.85,2.57-.16,3.5l-2.94,2.6c-1.02,.91-2.59,.79-3.47-.24Z"/><path class="chains-1" d="M162.55,200.27c-2.13,1.84-4.25,3.69-6.43,5.45"/></g><g><path class="chains-3" d="M170.9,193.17l-.52-.54c-.94-.98-.94-2.54,0-3.47l2.72-2.7c.91-.97,2.45-1,3.44-.07l.55,.52c.99,.93,1.03,2.5,.08,3.5l-2.8,2.79c-.98,.97-2.53,.96-3.47-.02Z"/><path class="chains-1" d="M172.11,191.44c-1.96,2.02-4.08,3.86-6.13,5.79"/></g><g><path class="chains-3" d="M179.99,183.82l-.56-.51c-1-.92-1.1-2.47-.22-3.47l2.54-2.88c.87-1.01,2.39-1.15,3.44-.28l.58,.48c1.04,.87,1.19,2.44,.3,3.48l-2.61,2.96c-.91,1.03-2.46,1.12-3.46,.21Z"/><polyline class="chains-1" points="181.08 182.02 179.68 183.6 178.24 185.13 175.35 188.2"/></g><g><path class="chains-3" d="M188.45,173.91l-.59-.47c-1.05-.85-1.24-2.39-.42-3.45l2.36-3.03c.83-1.05,2.33-1.28,3.42-.46l.6,.45c1.08,.81,1.33,2.38,.49,3.45l-2.42,3.11c-.84,1.08-2.39,1.27-3.45,.4Z"/><path class="chains-1" d="M189.44,172.05c-1.72,2.23-3.56,4.35-5.34,6.53"/></g><g><path class="chains-3" d="M196.35,163.54l-.61-.44c-1.1-.8-1.35-2.31-.59-3.41l2.2-3.16c.77-1.09,2.28-1.39,3.41-.63l.62,.42c1.13,.76,1.44,2.3,.65,3.42l-2.25,3.23c-.77,1.13-2.33,1.38-3.43,.58Z"/><path class="chains-1" d="M197.24,161.63c-1.62,2.3-3.31,4.55-4.98,6.8"/></g><g><path class="chains-3" d="M203.7,152.78l-.63-.41c-1.15-.75-1.45-2.24-.74-3.38l2.05-3.27c.71-1.13,2.23-1.48,3.38-.78l.64,.39c1.17,.71,1.52,2.22,.8,3.38l-2.09,3.33c-.72,1.16-2.28,1.47-3.41,.73Z"/><path class="chains-1" d="M204.52,150.84c-1.54,2.35-3.07,4.71-4.66,7.03"/></g><g><path class="chains-3" d="M210.56,141.71l-.65-.38c-1.17-.69-1.56-2.19-.88-3.34l1.91-3.36c.66-1.17,2.16-1.57,3.35-.91l.66,.37c1.19,.66,1.6,2.16,.93,3.35l-1.94,3.41c-.7,1.18-2.21,1.56-3.38,.87Z"/><path class="chains-1" d="M211.3,139.74c-1.45,2.41-2.84,4.85-4.35,7.22"/></g><g><path class="chains-3" d="M216.98,130.37l-.66-.36c-1.19-.65-1.64-2.13-1-3.31,.62-1.13,1.19-2.28,1.79-3.42,.62-1.19,2.1-1.65,3.31-1.04l.67,.34c1.21,.62,1.68,2.1,1.05,3.31-.61,1.16-1.19,2.33-1.82,3.47-.65,1.2-2.15,1.65-3.34,1Z"/><path class="chains-1" d="M217.64,128.37c-1.35,2.47-2.66,4.95-4.07,7.39"/></g><g><path class="chains-3" d="M223,118.81l-.67-.34c-1.21-.61-1.71-2.08-1.12-3.28,.58-1.15,1.14-2.31,1.7-3.48,.58-1.21,2.05-1.72,3.27-1.14l.68,.32c1.23,.58,1.75,2.05,1.16,3.28-.56,1.18-1.13,2.35-1.72,3.52-.61,1.22-2.09,1.72-3.3,1.11Z"/><path class="chains-1" d="M223.58,116.79c-1.25,2.52-2.5,5.03-3.81,7.52"/></g><g><path class="chains-3" d="M228.66,107.08l-.68-.32c-1.23-.57-1.78-2.03-1.21-3.25,.53-1.17,1.09-2.34,1.61-3.52,.55-1.23,2-1.78,3.24-1.23l.69,.31c1.24,.55,1.8,2.01,1.25,3.25-.52,1.2-1.08,2.37-1.62,3.56-.57,1.24-2.03,1.77-3.26,1.2Z"/><path class="chains-1" d="M229.18,105.04c-1.16,2.56-2.37,5.1-3.59,7.63"/></g><g><path class="chains-3" d="M234,95.21l-.69-.3c-1.25-.54-1.83-1.99-1.3-3.22l1.53-3.56c.52-1.24,1.95-1.83,3.21-1.3l.69,.29c1.25,.52,1.85,1.97,1.33,3.22l-1.54,3.6c-.54,1.25-1.98,1.82-3.23,1.28Z"/><path class="chains-1" d="M234.47,93.15c-1.09,2.59-2.26,5.15-3.39,7.72"/></g><g><path class="chains-3" d="M239.06,83.21l-.7-.29c-1.25-.52-1.86-1.94-1.36-3.19l1.45-3.6c.51-1.25,1.93-1.86,3.19-1.36l.7,.28c1.26,.5,1.89,1.93,1.38,3.19l-1.46,3.63c-.51,1.26-1.94,1.86-3.2,1.35Z"/><line class="chains-1" x1="239.5" y1="81.15" x2="236.28" y2="88.94"/></g><g><path class="chains-3" d="M243.89,71.11l-.7-.27c-1.27-.49-1.89-1.91-1.41-3.17l1.38-3.62c.48-1.26,1.9-1.89,3.17-1.41l.7,.27c1.27,.48,1.91,1.9,1.43,3.16l-1.39,3.65c-.48,1.27-1.92,1.89-3.18,1.4Z"/><line class="chains-1" x1="244.29" y1="69.05" x2="241.21" y2="76.9"/></g><g><path class="chains-3" d="M248.52,58.94l-.7-.26c-1.27-.47-1.92-1.88-1.45-3.15l1.33-3.65c.46-1.27,1.87-1.92,3.15-1.46l.71,.26c1.28,.46,1.94,1.87,1.47,3.15l-1.34,3.67c-.47,1.27-1.89,1.92-3.17,1.44Z"/><line class="chains-1" x1="248.89" y1="56.87" x2="245.93" y2="64.77"/></g><g><path class="chains-3" d="M252.98,46.71l-.71-.25c-1.28-.46-1.95-1.86-1.49-3.13l1.3-3.66c.45-1.27,1.85-1.94,3.14-1.49l.71,.25c1.28,.45,1.96,1.85,1.5,3.13l-1.3,3.68c-.46,1.28-1.87,1.94-3.15,1.48Z"/><line class="chains-1" x1="253.33" y1="44.64" x2="250.46" y2="52.57"/></g><g><path class="chains-3" d="M257.32,34.44l-.71-.25c-1.28-.45-1.96-1.85-1.52-3.12l1.27-3.67c.44-1.28,1.84-1.95,3.12-1.51l.71,.24c1.29,.44,1.97,1.84,1.53,3.12l-1.28,3.68c-.45,1.28-1.85,1.95-3.13,1.51Z"/><line class="chains-1" x1="257.65" y1="32.36" x2="254.86" y2="40.32"/></g><g><path class="chains-3" d="M261.58,22.14l-.71-.24c-1.29-.44-1.97-1.84-1.53-3.11l1.26-3.68c.44-1.28,1.83-1.96,3.12-1.52l.71,.24c1.29,.44,1.98,1.83,1.54,3.11l-1.26,3.69c-.44,1.28-1.84,1.96-3.12,1.52Z"/><line class="chains-1" x1="261.89" y1="20.06" x2="259.15" y2="28.03"/></g><g><path class="chains-3" d="M265.79,9.82l-.71-.24c-1.29-.44-1.98-1.83-1.54-3.11l1.26-3.68c.44-1.28,1.83-1.96,3.12-1.52l.71,.24c1.29,.44,1.98,1.83,1.54,3.11l-1.26,3.68c-.44,1.28-1.83,1.96-3.12,1.52Z"/><line class="chains-1" x1="266.1" y1="7.74" x2="263.38" y2="15.72"/></g></g></g></g></svg>
