<?xml version="1.0" encoding="UTF-8"?><svg xmlns="http://www.w3.org/2000/svg"><defs><style>.neck-1{fill:#ff555e;}.neck-2{isolation:isolate;}.neck-3{mix-blend-mode:multiply;opacity:.18;}</style></defs><g class="neck-2"><g id="Layer_2"><g id="Neck"><g id="Neck-Bandana"><path class="neck-3" d="M103.34,367.35c10.32,7.82,21.57,14.88,34.23,21.31-2-1.02,45.02-46.52,49.4-51.61,21.26-24.74,39.83-51.78,55.39-80.44,15.57-28.67,28.13-58.97,37.39-90.25,4.63-15.64,8.43-31.52,11.37-47.56,1.65-9,.5-40.15,6.01-46.19-31.57,34.58-53.49,76.67-80.21,115.12s-60.59,74.86-105.12,89.35c-14.5,4.72-29.8,6.9-45.04,6.54-6.45-.15-17.63-4.18-23.25,.45-10.14,8.37,.94,21.19,6.38,28.25,16.74,21.72,33.33,39.8,53.45,55.03Z"/><path class="neck-1" d="M279.46,55.88c-3.71-7.5-.62-16.14,2.49-23.86,4.3-10.68,8.6-21.35,12.9-32.03,13.8,15.3,15.36,38.39,3.73,55.05,13.98-2.89,27.34-8.11,39.17-15.32,4.27,8.18,2.35,18.59-4.62,25.15-6.97,6.55-21.91,10.72-30.85,6.43-9.65-4.63-18.79-7.27-22.82-15.42Z"/><path class="neck-3" d="M285.06,61.57c9.52,3.73,20.56,4.32,30.52,1.62,1.33-.36,2.71-.81,3.6-1.76s1.09-2.52,.06-3.35c-.82-.66-2.06-.63-3.17-.56-6.62,.42-13.23,1.03-19.8,1.81-2.63,.32-7.33,1.85-9.86,1.32-2.09-.43-1.79-2.27-2.12-4.21-.63-3.67-.49-7.45,.38-11.08,1-4.15,2.96-8.13,5.81-11.54,.25-.29,.52-.6,.92-.71,1.04-.28,1.75,.92,1.95,1.87,1.6,7.53,.16,15.53-3.88,22.3-.47,.78-2.28,4.43-3.55,4.14-.23-.05-.43-.28-.61-.61"/><path class="neck-1" d="M34.27,204.68c49.8,13.73,104.03-5.88,144.06-38.53s68.54-76.96,96.36-120.48c9.61,3.37,17.03,11.11,25.37,16.89,0,21.05-5.76,36.19-11.84,54.14-16.01,48.02-37.88,94.92-63.79,138.37-13.15,22.05-27.62,43.32-43.53,63.48-14.79,18.73-32.7,33.42-49.64,50.28-38.63-28.11-80.45-54.95-108-94.98-14.71-21.36-32.3-67.26-17.93-93.1,7.55,11.95,15.21,20.15,28.93,23.93Z"/><path class="neck-3" d="M102.58,258c33.85,5.99,67.41-21.67,93.32-40.12-.29,8.03-4.27,15.4-8.16,22.43-9.54,17.25-19.08,34.5-28.62,51.75-6.64,12-14.32,33.35-31.28,33.1-14.05-.21-30.83-13.86-48.48-26.84-15.73-11.57-30.17-25.01-39.96-42.09-4.16-7.27-6.21-14.75-9.1-22.58-.57-1.54-2.34-6.53-3.07-11.06-.43-2.69,3.2-4.74,4.8-2.53,21.73,29.94,43.38,48.33,73.1,65.91,.81,.48,1.48,1.18,2.38,1.47,4.06,1.34,5.65-2.48,4.8-5.22-.61-1.94-2.1-3.45-3.55-4.87l-20.99-20.7c-.76-.75-.01-2.01,1.01-1.7,4.61,1.4,10.52,2.47,13.81,3.06Z"/><path class="neck-3" d="M100.55,223.31c-2.24,.56-4.62,1.15-6.26,2.77s-2.15,4.65-.39,6.15c1.13,.96,2.76,1,4.25,.96,59.87-1.41,116.86-42.54,137.04-98.92-3.47,9.69-21.98,22.42-29.7,29.76s-16.35,14.37-24.98,20.9c-23.74,17.96-51.07,31.15-79.95,38.37Z"/><path class="neck-3" d="M211.31,196.77c12.72-13.33,25.43-26.66,38.15-39.99-16.52,33.55-33.04,67.11-49.56,100.66,3.47-7.04,11.99-13.84,16.85-20.18,5.33-6.96,10.37-14.14,15.1-21.52,9.47-14.76,17.72-30.29,24.67-46.39,12.58-29.16,28.22-70.15,24.87-102.39-7.3,4.64-12.87,21.87-17.18,30.01l-17.63,33.27c-11.76,22.18-23.51,44.36-35.27,66.54Z"/></g></g></g></g></svg>
