<?xml version="1.0" encoding="UTF-8"?><svg xmlns="http://www.w3.org/2000/svg" xmlns:xlink="http://www.w3.org/1999/xlink"><defs><style>.neck-1{fill:url(#linear-gradient);}.neck-2{fill:#494c67;}.neck-3{fill:url(#linear-gradient-3);}.neck-4{fill:url(#linear-gradient-4);}.neck-5{fill:url(#linear-gradient-2);}.neck-6{fill:url(#linear-gradient-6);}.neck-7{fill:url(#linear-gradient-5);}.neck-8{isolation:isolate;}.neck-9{opacity:.13;}.neck-9,.neck-10{mix-blend-mode:multiply;}.neck-10{opacity:.26;}</style><linearGradient id="linear-gradient" x1="113.4" y1="1300.43" x2="73.42" y2="1340.8" gradientTransform="translate(197.15 1669.42) rotate(-5.98) scale(1 -1)" gradientUnits="userSpaceOnUse"><stop offset="0" stop-color="#0081ad"/><stop offset="1" stop-color="#14d1df"/></linearGradient><linearGradient id="linear-gradient-2" x1="113.51" y1="1300.54" x2="73.53" y2="1340.91" xlink:href="#linear-gradient"/><linearGradient id="linear-gradient-3" x1="101.28" y1="1368.17" x2="139.34" y2="1329.71" xlink:href="#linear-gradient"/><linearGradient id="linear-gradient-4" x1="101.39" y1="1368.28" x2="139.46" y2="1329.82" xlink:href="#linear-gradient"/><linearGradient id="linear-gradient-5" x1="84.45" y1="1356.92" x2="128.06" y2="1313.88" gradientTransform="translate(197.15 1669.42) rotate(-5.98) scale(1 -1)" gradientUnits="userSpaceOnUse"><stop offset="0" stop-color="#14d1df"/><stop offset="1" stop-color="#85d9a5"/></linearGradient><linearGradient id="linear-gradient-6" x1="84.46" y1="1356.93" x2="128.08" y2="1313.89" xlink:href="#linear-gradient-5"/></defs><g class="neck-8"><g id="Layer_2"><g id="Neck"><g id="Neck-Scarf2"><path class="neck-9" d="M75.44,286.95c11.53,33.32,31.39,59.26,62.48,79.81,8.55,5.65,19.36,11.1,29.94,10.1,30.9-2.9,41.06-50,42.19-74.38,1.21-26.09-3.78-52.02-6.22-78.03-.96-10.29-1.52-20.78,.68-30.88,4.38-20.12,21.2-29.6,37-40.58,38.45-26.71,88.38-69.2,92.08-119.57-.27,4.26-35.72,21.49-40.61,24.69-13.98,9.14-29.19,16.78-43.89,24.77-30.9,16.79-62.08,33.07-93.54,48.81-28.23,14.13-56.68,27.83-85.32,41.09-13.63,6.31-28.99,11.35-41.87,19.02-9.88,5.88-4.91,12.96,2.74,18.5,10.63,7.69,19.98,10.73,26.96,23.08,6.38,11.3,9.27,24.17,12.41,36.77,1.45,5.8,3.1,11.41,4.97,16.81Z"/><path class="neck-2" d="M142.74,173.27c1.88,4.14,30.76,183.39,34.04,266.49-12.28,14.03-29.59,23.56-48.01,26.44s-35.76-3.11-51.73-12.73c10.32-87.17,5.86-175.17-10.97-251.69,0,0-1.21-9.65,.25-12.51s-.66-2.72,2.1-4.36c18.44-10.98,55.55-22.04,74.32-11.63Z"/><path class="neck-10" d="M142.61,168.42c2.92,2.4,2.47,5.44,2.47,9.5,0,5.62,.3,11.28,1.67,16.76,.36,1.43,.79,2.92,.46,4.36-.55,2.42-4.65,3.57-6.7,4.34-9.66,3.64-19.27,6.35-29.36,7.99-10.65,1.73-20.43,4.97-31.4,5.31-2.54,.08-6.17,.67-8.61-.05s-2.3-1.29-2.78-3.98c-.93-5.2-1.94-10.39-3.86-15.33-1.01-2.61-4.55-7.96-3.04-10.93,1.46-2.87,4.2-4.84,6.96-6.49,1.29-.77,2.6-1.49,3.93-2.19,14.4-7.57,31.08-12.72,47.37-13.52,6.82-.33,15.52-.23,21.63,3.36,.48,.28,.9,.57,1.26,.87Z"/><path class="neck-2" d="M335.71,28.15c1.31,.4,1.94,1.89,1.31,3.1-29.44,56.55-66.45,98.27-124.32,130.06-56.01,30.77-130.61,40.21-194.4,41.9-1.16,.03-2.21-.74-2.53-1.86C7.45,172.42,2.36,157.29,.01,130.43c-.21-2.45,1.92-4.47,4.36-4.13,51.22,7.23,105.9-2.82,153.31-23.54,48.66-21.27,80.01-58.68,116.34-96.32,11.69-12.11,11.38-5.14,27.83,4.33,10.87,6.26,21.86,13.73,33.86,17.37Z"/><path class="neck-10" d="M201.77,377.34c.45-3.99,.02-8.14-.43-12.17-9.43-84.38-18.98-169.32-43.7-250.54,1.94-2.36,5.86-3.11,8.61-4.96-9.64-7.77-30.15,2.69-43.47,7.75-1.93,.73-3.87,1.46-5.82,2.17-8.26,2.98-16.43-6.65-22.27,.01-11.84,13.52-6.42,43.3-1.92,58.09,12.07,39.65,16,81.34,16.14,122.64,.13,39.58,.19,81.67-12.54,119.47-.62,1.83,.37,3.82,2.2,4.43,.37,.12,.75,.18,1.12,.18,1.46,0,2.82-.92,3.32-2.38,2.5-7.42,5-15.51,6.82-23.9,1.58,2.51,3.72,4.5,6.54,5.83-1.12,8.35-2.78,16.63-5,24.81-.51,1.87,.6,3.79,2.46,4.29,.31,.08,.62,.12,.92,.12,1.54,0,2.95-1.03,3.38-2.58,2.23-8.2,3.92-16.51,5.07-24.88,1.53,.14,3.17,.17,4.94,.06,1.58-.1,3.17-.19,4.77-.28-.31,8.34-1.23,17.04-2.83,27.76-.29,1.91,1.03,3.69,2.94,3.98,.17,.03,.35,.04,.52,.04,1.7,0,3.2-1.25,3.46-2.98,1.69-11.29,2.64-20.41,2.93-29.19,3.64-.21,7.3-.45,10.96-.76,.19,9.46-.35,19.65-2.32,29.51-.38,1.9,.85,3.74,2.75,4.12,.23,.05,.46,.07,.69,.07,1.63,0,3.1-1.15,3.43-2.81,2.12-10.61,2.68-21.53,2.44-31.6,3.03-.36,6.05-.81,9.03-1.37,1.02,10.01,1.3,20.09,.81,30.14-.09,1.93,1.4,3.57,3.33,3.66,.06,0,.11,0,.17,0,1.86,0,3.4-1.46,3.49-3.33,.51-10.67,.2-21.36-.93-31.98,.2-.05,.41-.1,.61-.15,2.99-.79,6.06-1.75,9.01-2.95,1.98,10.9,3.07,22.23,2.71,30.62-.08,1.93,1.42,3.56,3.35,3.65,.05,0,.1,0,.15,0,1.86,0,3.41-1.47,3.49-3.35,.41-9.49-.87-22.16-3.17-34.14,2.97-1.79,5.59-3.95,7.63-6.57,2.56,9.87,4,19.97,4.3,30.21,.05,1.9,1.61,3.4,3.5,3.4,.03,0,.07,0,.1,0,1.93-.06,3.45-1.67,3.4-3.6-.4-13.83-2.78-27.41-7.09-40.55Z"/><path class="neck-10" d="M186.9,171.75c-.06,1.26-.27,1.41-2.53,2.46-3.49,1.62-9.24,1.04-11.93-1.8-3.38-3.56-4.87-8.59-6.26-13.17-3.25-10.77-6.53-21.68-7-32.92-.47-11.09,.53-26.42,12.46-31.49-4.37,1.86,4.39,33.68,5.34,37.79,2.12,9.18,4.58,18.28,7.36,27.28,1.01,3.26,2.84,6.88,2.63,10.37-.04,.62-.04,1.1-.06,1.47Z"/><path class="neck-2" d="M128.78,103.42c-1.93,.73-3.87,1.46-5.82,2.17-8.26,2.98-20.58,4.92-26.42,11.59-11.84,13.52-4.6,36.65-.1,51.43,19.43,63.8,28.18,130.83,25.8,197.47-.32,8.83,.04,19.41,7.56,24.04,3.93,2.42,8.84,2.45,13.46,2.22,12.53-.61,25-2.54,37.13-5.72,10.76-2.82,22.52-7.84,26.27-18.31,1.95-5.43,1.33-11.4,.69-17.13-9.43-84.38-18.98-169.32-43.7-250.54,1.94-2.36,5.86-3.11,8.61-4.96-9.64-7.77-30.15,2.69-43.47,7.75Z"/><path class="neck-2" d="M71.21,498.64c-.31,0-.63-.05-.94-.15-1.57-.52-2.43-2.21-1.91-3.79,4.73-14.33,9.52-31.19,9.27-47.61-.03-1.66,1.3-3.02,2.95-3.05h.05c1.64,0,2.97,1.31,3,2.95,.27,17.31-4.69,34.78-9.57,49.58-.42,1.26-1.59,2.06-2.85,2.06Z"/><path class="neck-2" d="M85.05,507.66c-.26,0-.52-.03-.78-.1-1.6-.43-2.55-2.08-2.12-3.68,4.78-17.79,7.15-36.14,7.03-54.56,0-1.66,1.33-3.01,2.98-3.02h.02c1.65,0,2.99,1.33,3,2.98,.11,18.96-2.32,37.85-7.24,56.15-.36,1.34-1.57,2.22-2.9,2.22Z"/><path class="neck-2" d="M102.42,512.07c-.15,0-.31-.01-.46-.04-1.64-.25-2.76-1.79-2.51-3.42,3.28-21.23,3.97-34.57,2.73-52.87-.11-1.65,1.14-3.08,2.79-3.2,1.65-.11,3.08,1.14,3.2,2.79,1.27,18.8,.57,32.47-2.79,54.19-.23,1.48-1.51,2.54-2.96,2.54Z"/><path class="neck-2" d="M119.53,513.14c-.2,0-.4-.02-.6-.06-1.62-.33-2.67-1.91-2.35-3.53,3.87-19.19,2.77-39.75,1.17-53.61-.19-1.65,.99-3.13,2.63-3.33,1.64-.19,3.13,.99,3.33,2.64,1.66,14.3,2.78,35.53-1.24,55.49-.29,1.42-1.54,2.41-2.94,2.41Z"/><path class="neck-2" d="M137.39,511.5c-.06,0-.12,0-.18,0-1.65-.1-2.91-1.52-2.81-3.17,1.09-18.06-.09-36.24-3.49-54.01-.31-1.63,.76-3.2,2.38-3.51,1.63-.32,3.2,.75,3.51,2.38,3.49,18.26,4.7,36.94,3.58,55.5-.1,1.59-1.42,2.82-2.99,2.82Z"/><path class="neck-2" d="M154.53,507.66c-.06,0-.11,0-.17,0-1.65-.09-2.92-1.51-2.83-3.16,.85-15.4-2.65-40.73-7.66-55.32-.54-1.57,.3-3.27,1.86-3.81,1.57-.54,3.27,.3,3.81,1.87,5.3,15.45,8.87,41.29,7.97,57.6-.09,1.6-1.41,2.83-2.99,2.83Z"/><path class="neck-2" d="M169.31,497.48c-1.64,0-2.98-1.32-3-2.97-.2-17.49-3.47-34.64-9.73-50.98-.59-1.55,.18-3.28,1.73-3.88,1.55-.6,3.28,.18,3.88,1.73,6.52,17,9.93,34.85,10.13,53.06,.02,1.66-1.31,3.02-2.97,3.03h-.03Z"/><path class="neck-2" d="M183.5,490.14c-1.65,0-2.99-1.33-3-2.98-.13-16.89-6.53-38.15-11.33-52.67-.52-1.57,.33-3.27,1.91-3.79,1.57-.52,3.27,.33,3.79,1.91,4.93,14.9,11.49,36.77,11.63,54.5,.01,1.66-1.32,3.01-2.98,3.02h-.02Z"/><path class="neck-2" d="M116.89,420.05c-.31,0-.63-.05-.94-.15-1.57-.52-2.43-2.21-1.91-3.79,4.73-14.33,9.52-31.19,9.27-47.61-.03-1.66,1.3-3.02,2.95-3.05h.05c1.64,0,2.97,1.31,3,2.95,.27,17.31-4.69,34.78-9.57,49.58-.42,1.26-1.59,2.06-2.85,2.06Z"/><path class="neck-2" d="M130.73,429.08c-.26,0-.52-.03-.78-.1-1.6-.43-2.55-2.08-2.12-3.68,4.78-17.79,7.15-36.14,7.03-54.56,0-1.66,1.33-3.01,2.98-3.02h.02c1.65,0,2.99,1.33,3,2.98,.11,18.96-2.32,37.85-7.24,56.15-.36,1.34-1.57,2.22-2.9,2.22Z"/><path class="neck-2" d="M148.1,433.48c-.15,0-.31-.01-.46-.04-1.64-.25-2.76-1.79-2.51-3.42,3.28-21.23,3.97-34.57,2.73-52.87-.11-1.65,1.14-3.08,2.79-3.2,1.66-.11,3.08,1.14,3.2,2.79,1.27,18.8,.57,32.47-2.79,54.19-.23,1.48-1.51,2.54-2.96,2.54Z"/><path class="neck-2" d="M165.22,434.56c-.2,0-.4-.02-.6-.06-1.62-.33-2.67-1.91-2.35-3.53,3.87-19.19,2.77-39.75,1.17-53.61-.19-1.65,.99-3.13,2.63-3.33,1.65-.19,3.13,.99,3.33,2.64,1.66,14.3,2.78,35.53-1.24,55.49-.29,1.42-1.54,2.41-2.94,2.41Z"/><path class="neck-2" d="M183.07,432.91c-.06,0-.12,0-.18,0-1.65-.1-2.91-1.52-2.81-3.17,1.09-18.07-.09-36.24-3.49-54.01-.31-1.63,.76-3.2,2.38-3.51,1.63-.31,3.2,.75,3.51,2.38,3.5,18.26,4.7,36.93,3.58,55.5-.1,1.59-1.42,2.82-2.99,2.82Z"/><path class="neck-2" d="M200.22,429.08c-.06,0-.11,0-.17,0-1.65-.09-2.92-1.51-2.83-3.16,.85-15.4-2.65-40.73-7.66-55.32-.54-1.57,.3-3.27,1.86-3.81,1.57-.54,3.27,.3,3.81,1.87,5.3,15.45,8.87,41.29,7.97,57.6-.09,1.6-1.41,2.83-2.99,2.83Z"/><path class="neck-2" d="M215,418.89c-1.64,0-2.98-1.32-3-2.97-.2-17.49-3.47-34.64-9.73-50.98-.59-1.55,.18-3.28,1.73-3.88,1.55-.6,3.28,.18,3.88,1.73,6.52,17,9.93,34.85,10.13,53.06,.02,1.66-1.31,3.02-2.97,3.03h-.03Z"/><g id="OpenNMS_Logo-Mark_Full-color"><g id="Layer_2-2"><g id="Logos"><path class="neck-1" d="M151.43,336.2c-4.74-4.22-8.85-8.46-11.85-12.27-1.22-1.52-2.32-3.11-3.32-4.79-4.78,11.73-1.77,25.19,7.55,33.76,0-3.29,2.86-9.48,7.62-16.71Z"/><path class="neck-5" d="M161.54,344.39c-6.08,6.16-11.55,10.23-14.76,10.92,10.32,7.34,24.11,7.49,34.6,.39-2.28-.74-4.87-1.91-7.81-3.51-4.18-2.33-8.2-4.93-12.03-7.79Z"/><path class="neck-3" d="M167.16,316.8c6.08-6.16,11.55-10.23,14.76-10.92-10.32-7.34-24.11-7.49-34.6-.39,2.28,.74,4.87,1.91,7.81,3.51,4.18,2.33,8.2,4.93,12.03,7.79Z"/><path class="neck-4" d="M184.89,308.29c0,3.29-2.86,9.48-7.62,16.7,4.74,4.22,8.85,8.46,11.85,12.27,1.21,1.52,2.32,3.11,3.31,4.79,4.78-11.72,1.77-25.18-7.54-33.76Z"/><path class="neck-7" d="M163.33,320.87h0c-11.35-8.29-21.27-12.69-23.4-10.06-2.46,3.04,6.47,14.36,19.96,25.3,1.85,1.5,3.68,2.91,5.48,4.22l-2.04-19.45Z"/><path class="neck-6" d="M174.07,329.58h0c-1.31,1.8-2.72,3.63-4.22,5.48s-3,3.61-4.49,5.26c11.35,8.28,21.27,12.69,23.4,10.06,2.13-2.62-4.23-11.42-14.69-20.81Z"/></g></g></g></g></g></g></g></svg>
