<?xml version="1.0" encoding="UTF-8"?><svg xmlns="http://www.w3.org/2000/svg" xmlns:xlink="http://www.w3.org/1999/xlink"><defs><style>.nscarfn-1{fill:none;}.nscarfn-2{fill:url(#_6_dpi_40_);}.nscarfn-2,.nscarfn-3,.nscarfn-4,.nscarfn-5{opacity:.3;}.nscarfn-6{fill:#fff;}.nscarfn-7{fill:#a3e3e5;}.nscarfn-8{mix-blend-mode:multiply;opacity:.12;}.nscarfn-3{fill:url(#_6_dpi_40_-4);}.nscarfn-4{fill:url(#_6_dpi_40_-2);}.nscarfn-5{fill:url(#_6_dpi_40_-3);}.nscarfn-9{isolation:isolate;}</style><pattern id="_6_dpi_40_" x="0" y="0" width="48" height="48" patternTransform="translate(-76.11 -202.42) scale(1.05)" patternUnits="userSpaceOnUse" viewBox="0 0 48 48"><g><rect class="nscarfn-1" width="48" height="48"/><g><path class="nscarfn-6" d="M24,52.8c2.65,0,4.8-2.15,4.8-4.8s-2.15-4.8-4.8-4.8-4.8,2.15-4.8,4.8,2.15,4.8,4.8,4.8Z"/><path class="nscarfn-6" d="M48,52.8c2.65,0,4.8-2.15,4.8-4.8s-2.15-4.8-4.8-4.8-4.8,2.15-4.8,4.8,2.15,4.8,4.8,4.8Z"/><path class="nscarfn-6" d="M24,28.8c2.65,0,4.8-2.15,4.8-4.8s-2.15-4.8-4.8-4.8-4.8,2.15-4.8,4.8,2.15,4.8,4.8,4.8Z"/><path class="nscarfn-6" d="M48,28.8c2.65,0,4.8-2.15,4.8-4.8s-2.15-4.8-4.8-4.8-4.8,2.15-4.8,4.8,2.15,4.8,4.8,4.8Z"/><path class="nscarfn-6" d="M36,40.8c2.65,0,4.8-2.15,4.8-4.8s-2.15-4.8-4.8-4.8-4.8,2.15-4.8,4.8,2.15,4.8,4.8,4.8Z"/><path class="nscarfn-6" d="M12,40.8c2.65,0,4.8-2.15,4.8-4.8s-2.15-4.8-4.8-4.8-4.8,2.15-4.8,4.8,2.15,4.8,4.8,4.8Z"/><path class="nscarfn-6" d="M36,16.8c2.65,0,4.8-2.15,4.8-4.8s-2.15-4.8-4.8-4.8-4.8,2.15-4.8,4.8,2.15,4.8,4.8,4.8Z"/><path class="nscarfn-6" d="M12,16.8c2.65,0,4.8-2.15,4.8-4.8s-2.15-4.8-4.8-4.8-4.8,2.15-4.8,4.8,2.15,4.8,4.8,4.8Z"/></g><g><path class="nscarfn-6" d="M0,52.8c2.65,0,4.8-2.15,4.8-4.8s-2.15-4.8-4.8-4.8-4.8,2.15-4.8,4.8,2.15,4.8,4.8,4.8Z"/><path class="nscarfn-6" d="M0,28.8c2.65,0,4.8-2.15,4.8-4.8s-2.15-4.8-4.8-4.8-4.8,2.15-4.8,4.8,2.15,4.8,4.8,4.8Z"/></g><g><path class="nscarfn-6" d="M24,4.8c2.65,0,4.8-2.15,4.8-4.8s-2.15-4.8-4.8-4.8-4.8,2.15-4.8,4.8,2.15,4.8,4.8,4.8Z"/><path class="nscarfn-6" d="M48,4.8c2.65,0,4.8-2.15,4.8-4.8s-2.15-4.8-4.8-4.8-4.8,2.15-4.8,4.8,2.15,4.8,4.8,4.8Z"/></g><path class="nscarfn-6" d="M0,4.8C2.65,4.8,4.8,2.65,4.8,0S2.65-4.8,0-4.8-4.8-2.65-4.8,0-2.65,4.8,0,4.8Z"/></g></pattern><pattern id="_6_dpi_40_-2" patternTransform="translate(-70.78 -207.26) scale(1.05)" xlink:href="#_6_dpi_40_"/><pattern id="_6_dpi_40_-3" patternTransform="translate(-70.78 -200.05) scale(1.05)" xlink:href="#_6_dpi_40_"/><pattern id="_6_dpi_40_-4" patternTransform="translate(-83.27 -203.64) scale(1.05)" xlink:href="#_6_dpi_40_"/></defs><g class="nscarfn-9"><g id="Layer_2"><g id="Neck"><g id="Neck-NeckScarf"><path class="nscarfn-7" d="M186.95,147.62c-3.98,2.7-8.08,5.22-12.25,7.56-41.74,23.42-89.73,33.42-136.8,39.14-14.62,1.78-28.28-1.85-29.89-19.23-.79-8.54,.56-17.92-4.24-25.03-1.42-2.11-3.4-4.04-3.73-6.56-.43-3.28,2.25-6.32,5.36-7.46s6.53-.86,9.82-.6c28.32,2.25,61.69,4.75,89.86,1.09,61.51-7.97,94.88-14.65,120.36-29.37-9.09,16.46-22.86,29.85-38.49,40.45Z"/><path class="nscarfn-7" d="M278.93,1.89c2.21-1.98,5.03-2.72,8.86-.68,3.17,1.7,5.4,4.7,8.03,7.15,3.43,3.18,7.67,5.48,12.2,6.62,2.31,.58,4.71,.87,6.95,1.68s4.4,2.27,5.34,4.45c.8,1.86,.04,3.39-.62,5.11-4.95,13-15.56,26.85-24.04,37.88-9.35,12.17-20.01,23.33-31.7,33.26-11.7,9.93-24.44,18.63-37.97,25.88-6.76,3.62-13.71,6.88-20.82,9.75-5.44,2.19-16.62,3.49-20.89,7.15,21.85-18.71,40.99-40.55,56.8-64.57,7.9-12.01,14.97-24.58,21.13-37.57,3.01-6.35,5.8-12.8,8.36-19.34,2.19-5.6,3.69-12.6,8.37-16.78Z"/><path class="nscarfn-2" d="M320.32,21.13c-.95-2.19-3.1-3.64-5.34-4.45-2.24-.81-4.64-1.1-6.95-1.68-4.54-1.14-8.77-3.44-12.2-6.62-2.64-2.45-4.86-5.45-8.03-7.15-3.83-2.05-6.65-1.3-8.86,.68-4.68,4.18-6.17,11.18-8.37,16.78-2.56,6.54-5.35,12.99-8.36,19.34-6.16,13-13.23,25.56-21.13,37.57-9,13.68-19.09,26.65-30.15,38.75-23.78,9.98-55.32,15.66-105.85,22.21-28.17,3.65-61.54,1.16-89.86-1.09-3.3-.26-6.72-.55-9.82,.6S-.38,140.22,.05,143.5c.33,2.52,2.3,4.45,3.73,6.56,4.8,7.11,3.46,16.49,4.24,25.03,1.6,17.38,15.27,21.01,29.89,19.23,47.07-5.72,95.06-15.72,136.8-39.14,4.17-2.34,8.27-4.86,12.25-7.56,6.47-4.39,12.61-9.26,18.24-14.62,7.1-2.86,14.05-6.12,20.8-9.74,13.52-7.25,26.27-15.95,37.97-25.88,11.7-9.93,22.36-21.09,31.7-33.26,8.48-11.03,19.09-24.89,24.04-37.88,.66-1.72,1.42-3.26,.62-5.11Z"/><path class="nscarfn-8" d="M235.38,99.68c10.65-8.45,17.75-21.66,30.28-26.94,.89,1.4,.88,3.22,.34,4.79s-1.53,2.93-2.53,4.25c-4.78,6.27-10.13,12.12-15.96,17.44-3.26,2.98-6.73,5.85-9.1,9.58s-3.48,8.59-1.63,12.6c-1.44,1.27-3.69,1.24-5.44,.44s-3.11-2.25-4.41-3.67c-3.26-3.55-7.78-8.35-7.38-13.59,.04-.48,.15-1.01,.54-1.3,.29-.21,.66-.24,1.02-.27,5.32-.36,9.96,.08,14.27-3.35Z"/><path class="nscarfn-7" d="M272.15,136.71c7.21,7.18,12.94,15.64,16.15,25.74,3.69,11.61,4.27,23.94,5.12,36.1s2.04,24.52,6.81,35.73c-15.48-5.49-27.45-18.2-35.95-32.25-8.5-14.05-14.07-29.64-20.8-44.62-3.27-7.27-7.96-17.53-15.83-20.89-5.56-2.38-14.88-4.09-10.21-13.21,7.98-15.56,27.14-6.69,38.02,.24,6.04,3.85,11.72,8.19,16.7,13.15Z"/><path class="nscarfn-4" d="M272.15,136.71c7.21,7.18,12.94,15.64,16.15,25.74,3.69,11.61,4.27,23.94,5.12,36.1s2.04,24.52,6.81,35.73c-15.48-5.49-27.45-18.2-35.95-32.25-8.5-14.05-14.07-29.64-20.8-44.62-3.27-7.27-7.96-17.53-15.83-20.89-5.56-2.38-14.88-4.09-10.21-13.21,7.98-15.56,27.14-6.69,38.02,.24,6.04,3.85,11.72,8.19,16.7,13.15Z"/><path class="nscarfn-8" d="M168.4,135.19c-3.73,1.09-7.47,2.13-11.23,3.13-10.71,2.85-21.52,5.32-32.41,7.42-3.22,.62-6.66,1.32-8.95,3.67,.3-.31,4.74,.71,5.42,.76,2.18,.17,4.38,.18,6.56,.02,4-.28,18.88-1.49,22.51-2.04,4.7-.72,9.4-1.43,14.1-2.15,.63-.1,1.46-.1,1.71,.49,.28,.66-.46,1.28-1.09,1.62-5.86,3.15-11.7,6.33-17.53,9.54-.64,.35-1.36,.83-1.39,1.56-.02,.61,.49,1.14,1.08,1.32s1.21,.1,1.81-.01c4.43-.82,7.93-3.43,12-4.96,5.19-1.95,10.17-4.72,15.01-7.4,4.17-2.32,8.4-5.65,12.89-7.21s9.14-2.85,13.48-5.18c1.52-.81,3.07-1.81,3.76-3.39,.97-2.25-.24-4.97-2.16-6.49-2.31-1.83-5.29-2.9-7.87-1.84-3.01,1.23-5.86,3.71-8.8,5.21-4.21,2.16-9.57,3.14-14.13,4.52-1.59,.48-3.17,.95-4.76,1.42Z"/><path class="nscarfn-7" d="M181.68,162.02c-2.62,13.61-2.63,27.57-2.63,41.42,0,35.5-.01,48.32-.02,83.81,9.63-12.8,19.31-25.67,26.8-39.82s11.84-29.78,11.84-45.8c0-22.13-5.26-26.51-9.68-47.55-1.06-5.07,.35-10.41-.53-15.52-.58-3.36-2.39-9.91-5.87-11.52-4.73-2.2-7.12,3.43-9.56,7.34-5.24,8.4-8.49,17.96-10.35,27.65Z"/><path class="nscarfn-5" d="M181.68,162.02c-2.62,13.61-2.63,27.57-2.63,41.42,0,35.5-.01,48.32-.02,83.81,9.63-12.8,19.31-25.67,26.8-39.82s11.84-29.78,11.84-45.8c0-22.13-5.26-26.51-9.68-47.55-1.06-5.07,.35-10.41-.53-15.52-.58-3.36-2.39-9.91-5.87-11.52-4.73-2.2-7.12,3.43-9.56,7.34-5.24,8.4-8.49,17.96-10.35,27.65Z"/><path class="nscarfn-8" d="M201.08,160.86c-.02-3.42-.2-7.86,1.02-11.11s3.91-5.17,4.11-8.77c.16-2.79-1.25-5.48-3.18-7.5s-4.38-3.45-6.79-4.86c3.28,7.33,1.85,14.07,1.11,21.66-1.16,11.81-1.39,23.72-.68,35.57,.41,6.8-.12,13.61-.94,20.37-.48,3.96-4.29,14.51,2.35,15.27,13.88,1.58,5.52-38.46,4.53-44.61-.84-5.25-1.5-10.67-1.54-16.02Z"/><path class="nscarfn-8" d="M253.48,137.95c3.93,3.62,7.49,7.64,10.61,11.98,9.62,13.33,15.26,29.64,15.34,46.12,0-1.52-5.69-6.49-6.78-7.91-6.85-8.92-12.32-19.1-17.29-29.18s-10.01-20.27-19.19-26.85c-2.64-1.89-9.91-4.7-10.64-8.17-.75-3.58,8.28,1.04,9.98,1.84,3.8,1.79,7.42,3.94,10.84,6.38,2.49,1.78,4.87,3.72,7.13,5.79Z"/><path class="nscarfn-7" d="M208.94,104.33c3.6-2.43,7.8-4.98,12.01-3.92,4.79,1.21,7.23,6.48,8.51,11.26,1.78,6.67,2.58,13.77,.94,20.47s-5.99,12.98-12.32,15.74c-2.96,1.29-6.51,1.74-9.36,.24-2.47-1.3-4.02-3.81-5.45-6.2-3.39-5.66-12.13-16.93-10.81-23.94,1.14-6.09,11.83-10.51,16.48-13.66Z"/><path class="nscarfn-3" d="M208.94,104.33c3.6-2.43,7.8-4.98,12.01-3.92,4.79,1.21,7.23,6.48,8.51,11.26,1.78,6.67,2.58,13.77,.94,20.47s-5.99,12.98-12.32,15.74c-2.96,1.29-6.51,1.74-9.36,.24-2.47-1.3-4.02-3.81-5.45-6.2-3.39-5.66-12.13-16.93-10.81-23.94,1.14-6.09,11.83-10.51,16.48-13.66Z"/><path class="nscarfn-8" d="M39.94,159.35c7.02,1.02,26.88,2.44,38.48,.4,2.01-.35,4.78-.27,5.24,1.72,.46,1.99-2.02,3.27-3.99,3.79-10.98,2.87-48.99,9.24-64.93,9.52-2.58,.05-4.84,.3-7.2-.7,.74-7.31-.16-14.79-2.61-21.72,2.93-.16,5.43,.85,8.16,1.7,8.55,2.67,17.9,4,26.85,5.3Z"/><path class="nscarfn-8" d="M211.76,102.62c5.19,5.39,8.32,12.72,8.6,20.2,.03,.89-.17,2.04-1.05,2.2-.79,.14-1.38-.68-1.79-1.38-2.58-4.42-6.35-8.13-10.76-10.71-1.13-.66-2.3-1.24-3.5-1.75-.56-.24-3.26-.78-3.51-1.26-.5-.96,2.42-1.52,3.23-1.89,3.07-1.43,5.91-3.6,8.76-5.41Z"/></g></g></g></g></svg>
