<?xml version="1.0" encoding="UTF-8"?><svg xmlns="http://www.w3.org/2000/svg"><defs><style>.collaro-1{fill:#f1f2f2;}.collaro-2{isolation:isolate;}.collaro-3{mix-blend-mode:multiply;opacity:.18;}</style></defs><g class="collaro-2"><g id="Layer_2"><g id="Neck"><g id="Neck-Collar"><path class="collaro-3" d="M284.43,5.42c-42.87,68.18-118.37,115.11-198.47,123.56,13.43,22.9,34.67,41.3,60.82,45.82,11.04,1.91,22.65,2.03,33.16-1.84,9.59-3.53,17.72-10.16,25.14-17.18,38.95-36.86,62.31-90.74,85.44-139.13,1.11-2.32,3.17-6.85,2.47-9.32,0,0-7.58-3.48-8.56-1.91Z"/><path class="collaro-1" d="M280.5,.67c-43.7,67.65-120.11,113.93-200.21,122.39,13.43,22.9,35.8,38.15,61.96,42.68,11.04,1.91,22.65,2.03,33.16-1.84,9.59-3.53,17.72-10.16,25.14-17.18,38.95-36.86,62.92-86.42,86.05-134.81,1.11-2.32,2.25-4.91,1.54-7.38s-6.24-6.01-7.64-3.85Z"/><path class="collaro-3" d="M72.92,161.22c-4.98,9.36-12.86,18.37-21.98,23.78s-21.41,6.34-30.06,.21c-7.1-5.03-11.09-12.3-12.46-20.89-1.56-9.78-3.48-20.01-5.52-27.61-.64-2.38-2.12-9.95-2.12-9.95,5.89,1.47,11.56,3.58,17.44,5.09,11.58,2.96,23.52,4.62,35.48,4.62,6.04,0,23.55-11.1,27.72-13.41,0,0,0,22.17-8.5,38.16Z"/><path class="collaro-1" d="M72.92,151.02c-4.54,9.58-12.86,18.37-21.98,23.78s-21.41,6.34-30.06,.21c-7.1-5.03-10.58-13.66-13.27-21.93-2.94-9.06-5.37-18.3-7.27-27.64-.49-2.42-.55-7.39,.44-8.88,5.89,1.47,11.46,4.05,17.44,5.09,10.39,1.8,23.52,2.35,35.48,2.36,6.04,0,24.95-.89,28.81-1.18,0,.48-4.92,18.36-9.59,28.2Z"/></g></g></g></g></svg>
