<?xml version="1.0" encoding="UTF-8"?><svg xmlns="http://www.w3.org/2000/svg"><defs><style>.jestj-1{fill:#f9c932;}.jestj-2{fill:#f2b02a;}.jestj-3{fill:#ffd400;}.jestj-4{fill:#be1e2d;}.jestj-5{opacity:.12;}.jestj-5,.jestj-6{mix-blend-mode:multiply;}.jestj-7{isolation:isolate;}.jestj-6{opacity:.18;}</style></defs><g class="jestj-7"><g id="Layer_2"><g id="Neck"><g id="Neck-Jester"><path class="jestj-6" d="M160.05,277.98c6.24-8.01,16.32-18.34,22.56-26.35-1.77,2.27,8.64,23.49,9.93,26.68,3.72,9.21,7.75,18.29,12.31,27.11,3.62,7,7.49,13.99,11.99,20.47,3.94,5.68,8.01,10.46,8.78,17.67,.35,3.29,.06,6.61,.32,9.91s1.16,6.71,3.46,9.08c4.22,4.35,15.42,2.24,20.26-.25,9.07-4.66,9.41-15.99,4.36-26.97-2.57-5.59-.57-8.64,1.09-14.27,2.72-9.18,5.39-18.37,8.02-27.58,4.96-17.36,9.82-34.76,14.2-52.27,11.68,12.37,22.53,25.53,32.45,39.35,4.96,6.91,9.7,13.98,14.19,21.21,2.28,3.66,3.74,5.6,3.84,9.68,.23,9.62-1.09,17.42,7.48,23.99,2.88,2.21,6.78,3.42,10.19,2.2,9.35-3.33,10.93-20.08,8.95-27.95-2.14-8.52-5.62-14.57-4.71-23.45s1.46-17.38,1.86-26.09c.17-3.72,2.49-45.7,.71-46.06,20.79,4.21,41.06,10.86,60.61,19.07,8,3.36,15.89,7,23.65,10.89,6.88,3.45,14.05,5.83,14.92,14.49,.88,8.72,5.38,18.39,15.58,18.34,5.43-.03,11.06-1.49,15.08-5.15s6.01-9.8,3.84-14.78c-1.53-3.52-4.78-5.98-8.12-7.86s-6.94-3.39-9.91-5.81c-5.45-4.43-5.59-12.17-7.39-18.54-2.19-7.75-4.7-15.41-7.59-22.92-6.24-16.26-14.22-32.08-25.03-45.8,21.53-2.16,43.31-1.49,64.76,1.25,8.65,1.11,17.26,2.56,25.8,4.34,6.84,1.43,13.59,2.62,16.05,10.06,1.49,4.51,.87,7.94,4.83,11.44,9.21,8.14,22.53,2.96,26.19-8.11,2.04-6.16,.17-13.61-4.99-17.55-4.38-3.34-10.05-3.78-14.79-6.35-5.08-2.75-7.83-8.01-11.71-12.13-9.3-9.85-20.99-17.33-33.17-23.11-22.95-10.89-48.32-17.63-68.2-33.44-29.95,45-61.98,91.89-110.14,116.42-19.85,10.11-41.6,15.92-63.36,20.71-34.01,7.49-68.53,12.7-103.24,15.56-.02,7.17-2.07,14.43-.55,21.44,.63,2.9,4.01,18.56,4.63,21.43Z"/><path class="jestj-4" d="M469.96,78.05c21.7-24.41,50.29-51.53,81.4-60.43-47.37-7.78-102.31,1.35-146.95,19.95,0,0,6.71,9.39,14.42,14.9,2.87,2.05,34.81,43.39,34.81,43.39l16.32-17.81Z"/><path class="jestj-3" d="M476.35,79.18c49.84,19.24,60.5,38.48,85.3,84.78-41.39-18.74-87.17-22.35-138.11-22.49l-49.16-27.02s31.31-32.79,44.45-61.98l3.1,1.69c17.56,9.56,35.77,17.83,54.41,25.03Z"/><path class="jestj-3" d="M271.22,229.76c17.9,19.28,35.12,35.39,78.57,90.59,10.34-27.69,16.2-79.52,6.53-114.64l-34.97-46.62s-28.69,19.77-64.22,27.28l14.08,43.39Z"/><path class="jestj-4" d="M112.3,214.45c-24.13,3.09-72.28,8.68-96.41,11.77,30.25-30.44,76.46-60.95,116.01-77.6,0,0,10.44,31.68,11.23,44.23l-30.83,21.6Z"/><path class="jestj-3" d="M178.94,238.3c-16.7,14.67-55.48,53.62-72.33,86.77-6.2-61.63,0-81.7,5.68-110.63l30.83-21.6c10.85,2.87,24.48,4.17,39.54,4.02l-3.72,41.43Z"/><path class="jestj-4" d="M271.22,229.76c-12.48,38.47-22.69,81.12-33.79,114.18-33.33-36.63-51.21-72.28-58.48-105.64l3.72-41.44s44.18-.59,74.47-10.5l14.08,43.39Z"/><path class="jestj-4" d="M321.35,159.09l34.97,46.62s80.41,12.28,124.48,49.79c0,0-17.7-76.91-57.25-114.03l-49.16-27.02s-34.19,33.97-53.04,44.64Z"/><g><circle class="jestj-1" cx="14.9" cy="228.26" r="14.9"/><path class="jestj-2" d="M21.92,241.48c.53,.73,1.94,.98,2.71,.52,1.28-.76,1.43-2.31,1.23-3.64-.94-6.12-5.44-12.01-9.23-16.68-1.53-1.88-3.2-3.78-5.18-5.25-1.4-1.04-4.52-3.23-6.33-2.05-.96,.62-1.02,2.24-.79,3.39,3.76,.25,9.28,7.44,11.14,10.03,3,4.19,6.32,8.94,6.46,13.68Z"/><path class="jestj-5" d="M21.92,241.48c.62,.82,2,.85,2.44,.6,1.33-.75,.1-4.36-.29-5.32-1.39-3.48-2.45-5.61-4.54-8.72-2.1-3.13-4.42-5.99-7.05-8.7-1.12-1.16-2.89-2.44-4.25-3.3-.91-.57-2.31-1.46-3.43-1.06-.85,.31-.6,2.12-.47,2.78,3.76,.25,9.28,7.44,11.14,10.03,3,4.19,6.32,8.94,6.46,13.68Z"/><path class="jestj-2" d="M16.43,235.54c-.86-1.73-2.77-2.52-4.27-1.78-.92,.46-1.47,1.4-1.55,2.46-.04,0-.07-.02-.11-.02-1.12,.02-2.18,.19-3.32,.07-2.26-.25-4.17-1.07-6.05-2.31,.39,1.05,1.4,2.76,2.17,3.66,.63,.59,1.46,.85,2.3,1.05,1.93,.48,4,.79,5.91,.32,.97,1.18,2.51,1.64,3.76,1.02,1.5-.74,2.01-2.75,1.15-4.48Z"/><path class="jestj-5" d="M16.43,235.54c-.86-1.73-2.77-2.52-4.27-1.78-.92,.46-1.47,1.4-1.55,2.46-.04,0-.07-.02-.11-.02-1.12,.02-2.18,.19-3.32,.07-2.26-.25-4.17-1.07-6.05-2.31,.39,1.05,1.4,2.76,2.17,3.66,.63,.59,1.46,.85,2.3,1.05,1.93,.48,4,.79,5.91,.32,.97,1.18,2.51,1.64,3.76,1.02,1.5-.74,2.01-2.75,1.15-4.48Z"/></g><g><circle class="jestj-1" cx="105.56" cy="324.51" r="14.9"/><path class="jestj-2" d="M119.34,330.34c.87,.23,2.12-.47,2.43-1.31,.52-1.4-.35-2.7-1.34-3.6-4.59-4.15-11.8-5.89-17.69-7.12-2.37-.49-4.87-.91-7.33-.8-1.74,.08-5.54,.35-6.21,2.4-.35,1.08,.63,2.38,1.52,3.12,3.08-2.18,11.9-.08,14.97,.76,4.97,1.36,10.55,2.94,13.64,6.54Z"/><path class="jestj-5" d="M119.34,330.34c1,.24,2.09-.6,2.27-1.07,.56-1.42-2.68-3.44-3.58-3.95-3.28-1.82-5.44-2.8-9.03-3.9-3.6-1.1-7.21-1.86-10.96-2.3-1.6-.19-3.78-.07-5.38,.12-1.06,.13-2.71,.32-3.33,1.34-.47,.78,.87,2.02,1.39,2.45,3.08-2.18,11.9-.08,14.97,.76,4.97,1.36,10.55,2.94,13.64,6.54Z"/><path class="jestj-2" d="M111.34,329.2c-1.76-.8-3.74-.21-4.43,1.31-.43,.94-.26,2.01,.35,2.89-.03,.02-.06,.03-.1,.06-.86,.73-1.57,1.53-2.53,2.15-1.91,1.24-3.91,1.8-6.15,2.02,.96,.57,2.82,1.26,4,1.47,.86,.06,1.67-.26,2.45-.63,1.8-.85,3.6-1.91,4.79-3.48,1.5,.3,2.98-.31,3.56-1.58,.69-1.52-.17-3.4-1.93-4.2Z"/><path class="jestj-5" d="M111.34,329.2c-1.76-.8-3.74-.21-4.43,1.31-.43,.94-.26,2.01,.35,2.89-.03,.02-.06,.03-.1,.06-.86,.73-1.57,1.53-2.53,2.15-1.91,1.24-3.91,1.8-6.15,2.02,.96,.57,2.82,1.26,4,1.47,.86,.06,1.67-.26,2.45-.63,1.8-.85,3.6-1.91,4.79-3.48,1.5,.3,2.98-.31,3.56-1.58,.69-1.52-.17-3.4-1.93-4.2Z"/></g><g><circle class="jestj-1" cx="237.77" cy="347.73" r="14.9"/><path class="jestj-2" d="M252.73,347.91c.89-.12,1.79-1.23,1.76-2.13-.05-1.49-1.34-2.37-2.61-2.83-5.82-2.11-13.15-.99-19.07,.1-2.38,.44-4.85,1-7.09,2.03-1.59,.73-5,2.41-4.84,4.57,.08,1.14,1.48,1.97,2.59,2.32,2.02-3.18,10.98-4.57,14.15-4.96,5.12-.62,10.88-1.26,15.1,.9Z"/><path class="jestj-5" d="M252.73,347.91c1.02-.15,1.71-1.34,1.7-1.85-.02-1.53-3.78-2.18-4.8-2.3-3.72-.45-6.1-.54-9.83-.2-3.75,.34-7.37,1-11.02,2.01-1.55,.43-3.53,1.36-4.94,2.15-.94,.52-2.39,1.32-2.57,2.5-.14,.9,1.57,1.54,2.22,1.74,2.02-3.18,10.98-4.57,14.15-4.96,5.12-.62,10.88-1.26,15.1,.9Z"/><path class="jestj-2" d="M244.89,349.88c-1.93-.07-3.54,1.22-3.61,2.89-.04,1.03,.52,1.96,1.41,2.54-.02,.03-.05,.05-.07,.09-.52,1-.88,2.01-1.53,2.94-1.3,1.87-2.94,3.15-4.93,4.2,1.11,.17,3.09,.1,4.26-.15,.82-.27,1.44-.87,2.03-1.51,1.35-1.47,2.61-3.13,3.12-5.03,1.5-.29,2.65-1.41,2.7-2.81,.06-1.67-1.45-3.08-3.38-3.16Z"/><path class="jestj-5" d="M244.89,349.88c-1.93-.07-3.54,1.22-3.61,2.89-.04,1.03,.52,1.96,1.41,2.54-.02,.03-.05,.05-.07,.09-.52,1-.88,2.01-1.53,2.94-1.3,1.87-2.94,3.15-4.93,4.2,1.11,.17,3.09,.1,4.26-.15,.82-.27,1.44-.87,2.03-1.51,1.35-1.47,2.61-3.13,3.12-5.03,1.5-.29,2.65-1.41,2.7-2.81,.06-1.67-1.45-3.08-3.38-3.16Z"/></g><g><circle class="jestj-1" cx="348.48" cy="321.69" r="14.9"/><path class="jestj-2" d="M363.09,324.94c.9,.07,2-.84,2.16-1.73,.26-1.47-.83-2.59-1.97-3.3-5.26-3.26-12.67-3.66-18.68-3.81-2.42-.06-4.95-.02-7.36,.53-1.7,.39-5.39,1.34-5.67,3.49-.15,1.13,1.05,2.23,2.06,2.8,2.63-2.7,11.69-2.23,14.86-1.96,5.14,.44,10.9,.99,14.6,3.97Z"/><path class="jestj-5" d="M363.09,324.94c1.03,.06,1.95-.97,2.04-1.46,.29-1.5-3.25-2.9-4.23-3.23-3.55-1.2-5.86-1.78-9.59-2.21-3.74-.43-7.42-.53-11.19-.29-1.61,.1-3.73,.61-5.27,1.09-1.02,.32-2.61,.8-3.03,1.92-.32,.85,1.22,1.83,1.81,2.16,2.63-2.7,11.69-2.23,14.86-1.96,5.14,.44,10.9,.99,14.6,3.97Z"/><path class="jestj-2" d="M355.01,325.26c-1.87-.47-3.72,.47-4.12,2.09-.25,1,.11,2.03,.86,2.78-.03,.03-.06,.04-.08,.07-.71,.87-1.27,1.79-2.1,2.57-1.66,1.56-3.52,2.48-5.69,3.1,1.05,.39,3,.73,4.2,.72,.86-.1,1.59-.56,2.29-1.06,1.62-1.16,3.2-2.53,4.08-4.29,1.53,.02,2.88-.84,3.22-2.2,.4-1.62-.78-3.31-2.66-3.78Z"/><path class="jestj-5" d="M355.01,325.26c-1.87-.47-3.72,.47-4.12,2.09-.25,1,.11,2.03,.86,2.78-.03,.03-.06,.04-.08,.07-.71,.87-1.27,1.79-2.1,2.57-1.66,1.56-3.52,2.48-5.69,3.1,1.05,.39,3,.73,4.2,.72,.86-.1,1.59-.56,2.29-1.06,1.62-1.16,3.2-2.53,4.08-4.29,1.53,.02,2.88-.84,3.22-2.2,.4-1.62-.78-3.31-2.66-3.78Z"/></g><g><circle class="jestj-1" cx="479.84" cy="252.08" r="14.9"/><path class="jestj-2" d="M493.09,245.12c.73-.53,.99-1.94,.53-2.71-.75-1.29-2.3-1.44-3.64-1.24-6.12,.91-12.03,5.39-16.72,9.16-1.89,1.52-3.79,3.19-5.27,5.16-1.05,1.4-3.25,4.5-2.08,6.33,.61,.96,2.24,1.03,3.38,.8,.26-3.76,7.48-9.25,10.08-11.09,4.2-2.98,8.96-6.29,13.71-6.4Z"/><path class="jestj-5" d="M493.09,245.12c.82-.62,.86-1.99,.61-2.43-.75-1.33-4.36-.11-5.32,.26-3.49,1.38-5.62,2.43-8.74,4.51-3.14,2.09-6.01,4.39-8.73,7.01-1.16,1.12-2.45,2.88-3.32,4.24-.58,.9-1.47,2.3-1.07,3.43,.3,.85,2.12,.61,2.78,.48,.26-3.76,7.48-9.25,10.08-11.09,4.2-2.98,8.96-6.29,13.71-6.4Z"/><path class="jestj-2" d="M487.13,250.58c-1.73,.85-2.54,2.76-1.8,4.26,.46,.93,1.39,1.48,2.45,1.56,0,.04-.02,.07-.02,.11,.02,1.12,.19,2.18,.06,3.32-.26,2.26-1.08,4.16-2.34,6.04,1.05-.38,2.76-1.38,3.67-2.16,.59-.63,.85-1.46,1.06-2.29,.49-1.93,.8-4,.34-5.91,1.18-.97,1.65-2.5,1.04-3.75-.74-1.5-2.74-2.02-4.47-1.17Z"/><path class="jestj-5" d="M487.13,250.58c-1.73,.85-2.54,2.76-1.8,4.26,.46,.93,1.39,1.48,2.45,1.56,0,.04-.02,.07-.02,.11,.02,1.12,.19,2.18,.06,3.32-.26,2.26-1.08,4.16-2.34,6.04,1.05-.38,2.76-1.38,3.67-2.16,.59-.63,.85-1.46,1.06-2.29,.49-1.93,.8-4,.34-5.91,1.18-.97,1.65-2.5,1.04-3.75-.74-1.5-2.74-2.02-4.47-1.17Z"/></g><g><circle class="jestj-1" cx="558.19" cy="161.58" r="14.9"/><path class="jestj-2" d="M570.18,152.62c.64-.63,.67-2.07,.1-2.76-.94-1.15-2.5-1.06-3.79-.66-5.9,1.87-11.04,7.21-15.07,11.68-1.62,1.8-3.24,3.74-4.39,5.92-.81,1.54-2.5,4.96-1.06,6.57,.76,.85,2.37,.66,3.47,.26-.33-3.76,5.93-10.31,8.21-12.54,3.68-3.61,7.86-7.62,12.53-8.48Z"/><path class="jestj-5" d="M570.18,152.62c.71-.74,.54-2.11,.22-2.5-.95-1.2-4.32,.57-5.21,1.1-3.23,1.91-5.17,3.28-7.93,5.83-2.77,2.55-5.24,5.28-7.52,8.3-.97,1.28-1.97,3.23-2.61,4.71-.43,.98-1.09,2.5-.52,3.55,.44,.8,2.19,.27,2.82,.03-.33-3.76,5.93-10.31,8.21-12.54,3.68-3.61,7.86-7.62,12.53-8.48Z"/><path class="jestj-2" d="M565.16,158.96c-1.58,1.11-2.07,3.12-1.11,4.49,.6,.84,1.61,1.24,2.67,1.16,0,.04,0,.07,0,.11,.2,1.11,.53,2.13,.58,3.27,.1,2.28-.42,4.28-1.36,6.33,.98-.54,2.51-1.8,3.29-2.71,.48-.72,.61-1.57,.69-2.43,.18-1.98,.17-4.07-.59-5.89,1.01-1.14,1.24-2.73,.43-3.87-.96-1.36-3.02-1.57-4.6-.45Z"/><path class="jestj-5" d="M565.16,158.96c-1.58,1.11-2.07,3.12-1.11,4.49,.6,.84,1.61,1.24,2.67,1.16,0,.04,0,.07,0,.11,.2,1.11,.53,2.13,.58,3.27,.1,2.28-.42,4.28-1.36,6.33,.98-.54,2.51-1.8,3.29-2.71,.48-.72,.61-1.57,.69-2.43,.18-1.98,.17-4.07-.59-5.89,1.01-1.14,1.24-2.73,.43-3.87-.96-1.36-3.02-1.57-4.6-.45Z"/></g><g><circle class="jestj-1" cx="546.28" cy="14.31" r="14.18"/><path class="jestj-2" d="M541.35,.95c-.41-.75-1.71-1.17-2.49-.84-1.31,.55-1.65,2-1.62,3.28,.11,5.89,3.6,12.02,6.58,16.91,1.2,1.97,2.54,3.97,4.22,5.61,1.19,1.16,3.85,3.62,5.71,2.74,.98-.46,1.24-1.99,1.18-3.09-3.52-.71-7.8-8.2-9.22-10.88-2.29-4.33-4.82-9.23-4.34-13.73Z"/><path class="jestj-5" d="M541.35,.95c-.48-.85-1.78-1.06-2.22-.88-1.35,.54-.65,4.1-.41,5.05,.87,3.46,1.6,5.6,3.17,8.81,1.58,3.22,3.4,6.21,5.54,9.1,.91,1.23,2.41,2.67,3.59,3.66,.78,.66,1.99,1.68,3.1,1.44,.84-.18,.83-1.92,.79-2.56-3.52-.71-7.8-8.2-9.22-10.88-2.29-4.33-4.82-9.23-4.34-13.73Z"/><path class="jestj-2" d="M545.77,7.25c.59,1.74,2.29,2.73,3.8,2.22,.93-.32,1.56-1.13,1.78-2.12,.04,0,.06,.02,.1,.03,1.06,.12,2.08,.09,3.14,.36,2.1,.52,3.8,1.54,5.41,2.95-.23-1.04-.96-2.78-1.58-3.73-.52-.64-1.27-.98-2.03-1.29-1.76-.7-3.67-1.25-5.53-1.06-.77-1.23-2.15-1.87-3.41-1.44-1.51,.51-2.25,2.34-1.66,4.07Z"/><path class="jestj-5" d="M545.77,7.25c.59,1.74,2.29,2.73,3.8,2.22,.93-.32,1.56-1.13,1.78-2.12,.04,0,.06,.02,.1,.03,1.06,.12,2.08,.09,3.14,.36,2.1,.52,3.8,1.54,5.41,2.95-.23-1.04-.96-2.78-1.58-3.73-.52-.64-1.27-.98-2.03-1.29-1.76-.7-3.67-1.25-5.53-1.06-.77-1.23-2.15-1.87-3.41-1.44-1.51,.51-2.25,2.34-1.66,4.07Z"/></g></g></g></g></g></svg>
