<?xml version="1.0" encoding="UTF-8"?>
<svg xmlns="http://www.w3.org/2000/svg" xmlns:xlink="http://www.w3.org/1999/xlink" width="48px" height="px" viewBox="0 0 48 48" version="1.1">
<defs>
<filter id="alpha" filterUnits="objectBoundingBox" x="0%" y="0%" width="100%" height="100%">
  <feColorMatrix type="matrix" in="SourceGraphic" values="0 0 0 0 1 0 0 0 0 1 0 0 0 0 1 0 0 0 1 0"/>
</filter>
<mask id="mask0">
  <g filter="url(#alpha)">
<rect x="0" y="0" width="48" height="48" style="fill:rgb(0%,0%,0%);fill-opacity:0.34902;stroke:none;"/>
  </g>
</mask>
<clipPath id="clip2">
  <rect x="0" y="0" width="68" height="68"/>
</clipPath>
<g id="surface6" clip-path="url(#clip2)">
<path style="fill:none;stroke-width:0.75;stroke-linecap:butt;stroke-linejoin:miter;stroke:rgb(13.72549%,12.156863%,12.54902%);stroke-opacity:1;stroke-miterlimit:4;" d="M 80.400276 64.141544 C 80.400276 64.141544 81.359835 68.198989 77.480239 68.141085 C 73.600643 68.079044 73.538603 70.01057 74.349265 72.430147 C 75.159926 74.849724 74.171415 77.050092 71.011489 77.00046 " transform="matrix(0.944444,0,0,0.944444,0,0)"/>
<path style="fill:none;stroke-width:0.75;stroke-linecap:butt;stroke-linejoin:miter;stroke:rgb(13.72549%,12.156863%,12.54902%);stroke-opacity:1;stroke-miterlimit:4;" d="M 13.351103 15.53079 C 13.351103 15.53079 17.139706 13.789522 17.851103 17.611213 C 18.558364 21.428768 20.460938 21.110294 22.669577 19.840533 C 24.878217 18.558364 27.231618 19.100184 27.810662 22.210478 " transform="matrix(0.944444,0,0,0.944444,0,0)"/>
<path style="fill:none;stroke-width:0.75;stroke-linecap:butt;stroke-linejoin:miter;stroke:rgb(13.72549%,12.156863%,12.54902%);stroke-opacity:1;stroke-miterlimit:4;" d="M 66.039982 28.741268 C 66.039982 28.741268 63.438419 32.00046 61.089154 28.919118 C 58.731618 25.841912 57.180607 26.97932 55.790901 29.109375 C 54.388787 31.251838 52.05193 31.830882 50.128676 29.31204 " transform="matrix(0.944444,0,0,0.944444,0,0)"/>
<path style="fill:none;stroke-width:0.75;stroke-linecap:butt;stroke-linejoin:miter;stroke:rgb(13.72549%,12.156863%,12.54902%);stroke-opacity:1;stroke-miterlimit:4;" d="M 39.03171 29.051471 C 39.03171 29.051471 35.210018 27.380515 37.579963 24.311581 C 39.95818 21.238511 38.448529 20.03079 36.028952 19.228401 C 33.609375 18.430147 32.438879 16.320772 34.378676 13.818474 " transform="matrix(0.944444,0,0,0.944444,0,0)"/>
<path style="fill:none;stroke-width:0.75;stroke-linecap:butt;stroke-linejoin:miter;stroke:rgb(13.72549%,12.156863%,12.54902%);stroke-opacity:1;stroke-miterlimit:4;" d="M 41.141085 24.820312 C 41.141085 24.820312 45.21921 23.939338 43.498621 20.460938 C 41.778033 16.978401 43.490349 16.101562 46.021599 15.79136 C 48.561121 15.48943 50.120404 13.648897 48.710018 10.811581 " transform="matrix(0.944444,0,0,0.944444,0,0)"/>
<path style="fill:none;stroke-width:0.75;stroke-linecap:butt;stroke-linejoin:miter;stroke:rgb(13.72549%,12.156863%,12.54902%);stroke-opacity:1;stroke-miterlimit:4;" d="M 55.120864 14.869026 C 55.120864 14.869026 59.198989 13.988051 57.478401 10.509651 C 55.761949 7.03125 57.470129 6.150276 60.001379 5.840074 C 62.540901 5.538143 64.100184 3.701746 62.689798 0.860294 " transform="matrix(0.944444,0,0,0.944444,0,0)"/>
<path style="fill:none;stroke-width:0.75;stroke-linecap:butt;stroke-linejoin:miter;stroke:rgb(13.72549%,12.156863%,12.54902%);stroke-opacity:1;stroke-miterlimit:4;" d="M 27.388787 34.188419 C 27.388787 34.188419 31.069853 32.227941 28.460018 29.349265 C 25.850184 26.47886 27.248162 25.159467 29.609835 24.170956 C 31.971507 23.178309 32.960018 20.990349 30.838235 18.641085 " transform="matrix(0.944444,0,0,0.944444,0,0)"/>
<path style="fill:none;stroke-width:0.75;stroke-linecap:butt;stroke-linejoin:miter;stroke:rgb(13.72549%,12.156863%,12.54902%);stroke-opacity:1;stroke-miterlimit:4;" d="M 10.389706 22.938419 C 10.389706 22.938419 11.680147 26.900735 7.808824 27.169577 C 3.941636 27.438419 4.040901 29.361673 5.050092 31.698529 C 6.059283 34.05193 5.261029 36.318474 2.109375 36.54182 " transform="matrix(0.944444,0,0,0.944444,0,0)"/>
<path style="fill:none;stroke-width:0.75;stroke-linecap:butt;stroke-linejoin:miter;stroke:rgb(13.72549%,12.156863%,12.54902%);stroke-opacity:1;stroke-miterlimit:4;" d="M 7.560662 41.161765 C 7.560662 41.161765 5.538143 37.509651 9.28125 36.52114 C 13.028493 35.520221 12.569393 33.650735 11.130055 31.549632 C 9.690717 29.440257 10.038143 27.049632 13.098805 26.238971 " transform="matrix(0.944444,0,0,0.944444,0,0)"/>
<path style="fill:none;stroke-width:0.75;stroke-linecap:butt;stroke-linejoin:miter;stroke:rgb(13.72549%,12.156863%,12.54902%);stroke-opacity:1;stroke-miterlimit:4;" d="M 20.440257 16.999081 C 20.440257 16.999081 21.788603 13.049173 25.039522 15.170956 C 28.290441 17.288603 29.369945 15.68796 29.969669 13.210478 C 30.569393 10.72886 32.579504 9.388787 35.230699 11.121783 " transform="matrix(0.944444,0,0,0.944444,0,0)"/>
<path style="fill:none;stroke-width:0.75;stroke-linecap:butt;stroke-linejoin:miter;stroke:rgb(13.72549%,12.156863%,12.54902%);stroke-opacity:1;stroke-miterlimit:4;" d="M 12.329504 44.47886 C 12.329504 44.47886 10.559283 40.698529 14.368566 39.970588 C 18.181985 39.238511 17.851103 37.340074 16.560662 35.139706 C 15.270221 32.939338 15.79136 30.581801 18.901654 29.977941 " transform="matrix(0.944444,0,0,0.944444,0,0)"/>
<path style="fill:none;stroke-width:0.75;stroke-linecap:butt;stroke-linejoin:miter;stroke:rgb(13.72549%,12.156863%,12.54902%);stroke-opacity:1;stroke-miterlimit:4;" d="M 24.030331 38.671875 C 24.030331 38.671875 20.601562 36.30193 23.521599 33.741728 C 26.441636 31.181526 25.200827 29.709099 22.971507 28.460018 C 20.738051 27.210938 20.01011 24.911305 22.388327 22.830882 " transform="matrix(0.944444,0,0,0.944444,0,0)"/>
<path style="fill:none;stroke-width:0.75;stroke-linecap:butt;stroke-linejoin:miter;stroke:rgb(13.72549%,12.156863%,12.54902%);stroke-opacity:1;stroke-miterlimit:4;" d="M 11.01011 59.641544 C 11.01011 59.641544 11.31204 55.480699 15.001379 56.700827 C 18.690717 57.920956 19.319393 56.101103 19.269761 53.549173 C 19.220129 51.001379 20.820772 49.189798 23.831801 50.190717 " transform="matrix(0.944444,0,0,0.944444,0,0)"/>
<path style="fill:none;stroke-width:0.75;stroke-linecap:butt;stroke-linejoin:miter;stroke:rgb(13.72549%,12.156863%,12.54902%);stroke-opacity:1;stroke-miterlimit:4;" d="M 29.498162 52.858456 C 29.498162 52.858456 29.121783 57.011029 25.461397 55.72886 C 21.801011 54.438419 21.130974 56.25 21.130974 58.80193 C 21.130974 61.349724 19.501379 63.128217 16.511029 62.081801 " transform="matrix(0.944444,0,0,0.944444,0,0)"/>
<path style="fill:none;stroke-width:0.75;stroke-linecap:butt;stroke-linejoin:miter;stroke:rgb(13.72549%,12.156863%,12.54902%);stroke-opacity:1;stroke-miterlimit:4;" d="M 19.670956 27.310202 C 19.670956 27.310202 15.501838 27.488051 16.29182 23.691176 C 17.081801 19.890165 15.199908 19.46829 12.668658 19.811581 C 10.141544 20.150735 8.168658 18.769301 8.809743 15.671415 " transform="matrix(0.944444,0,0,0.944444,0,0)"/>
<path style="fill:none;stroke-width:0.75;stroke-linecap:butt;stroke-linejoin:miter;stroke:rgb(13.72549%,12.156863%,12.54902%);stroke-opacity:1;stroke-miterlimit:4;" d="M 32.711857 27.971967 C 32.711857 27.971967 31.21875 31.859835 35.081801 32.318934 C 38.928309 32.778033 38.738051 34.701287 37.608915 36.980239 C 36.479779 39.271599 37.170496 41.579504 40.309743 41.960018 " transform="matrix(0.944444,0,0,0.944444,0,0)"/>
<path style="fill:none;stroke-width:0.75;stroke-linecap:butt;stroke-linejoin:miter;stroke:rgb(13.72549%,12.156863%,12.54902%);stroke-opacity:1;stroke-miterlimit:4;" d="M 3.321232 45.670037 C 3.321232 45.670037 5.240349 49.371783 8.139706 46.799173 C 11.051471 44.230699 12.350184 45.649357 13.309743 48.011029 C 14.269301 50.380974 16.448989 51.398438 18.818934 49.301471 " transform="matrix(0.944444,0,0,0.944444,0,0)"/>
<path style="fill:none;stroke-width:0.75;stroke-linecap:butt;stroke-linejoin:miter;stroke:rgb(13.72549%,12.156863%,12.54902%);stroke-opacity:1;stroke-miterlimit:4;" d="M 51.022059 83.378217 C 51.022059 83.378217 49.160846 79.651654 52.949449 78.820312 C 56.738051 77.988971 56.361673 76.098805 55.021599 73.931526 C 53.681526 71.76011 54.140625 69.390165 57.230239 68.720129 " transform="matrix(0.944444,0,0,0.944444,0,0)"/>
<path style="fill:none;stroke-width:0.75;stroke-linecap:butt;stroke-linejoin:miter;stroke:rgb(13.72549%,12.156863%,12.54902%);stroke-opacity:1;stroke-miterlimit:4;" d="M 64.559283 9.980239 C 64.559283 9.980239 67.028493 13.338695 63.430147 14.811121 C 59.840074 16.27114 60.53079 18.070312 62.230699 19.981158 C 63.930607 21.892004 63.868566 24.299173 60.940257 25.490349 " transform="matrix(0.944444,0,0,0.944444,0,0)"/>
<path style="fill:none;stroke-width:0.75;stroke-linecap:butt;stroke-linejoin:miter;stroke:rgb(13.72549%,12.156863%,12.54902%);stroke-opacity:1;stroke-miterlimit:4;" d="M 59.951746 14.269301 C 59.951746 14.269301 55.861213 15.108915 57.548713 18.599724 C 59.227941 22.098805 57.511489 22.959099 54.971967 23.240349 C 52.428309 23.521599 50.848346 25.341452 52.221507 28.191176 " transform="matrix(0.944444,0,0,0.944444,0,0)"/>
<path style="fill:none;stroke-width:0.75;stroke-linecap:butt;stroke-linejoin:miter;stroke:rgb(13.72549%,12.156863%,12.54902%);stroke-opacity:1;stroke-miterlimit:4;" d="M 17.081801 0.719669 C 17.081801 0.719669 21.250919 0.918199 20.121783 4.628217 C 18.988511 8.338235 20.829044 8.93796 23.380974 8.818015 C 25.928768 8.710478 27.769301 10.261489 26.851103 13.289062 " transform="matrix(0.944444,0,0,0.944444,0,0)"/>
<path style="fill:none;stroke-width:0.75;stroke-linecap:butt;stroke-linejoin:miter;stroke:rgb(13.72549%,12.156863%,12.54902%);stroke-opacity:1;stroke-miterlimit:4;" d="M 39.441176 15.70864 C 39.441176 15.70864 35.392004 14.720129 37.211857 11.29136 C 39.03171 7.858456 37.340074 6.931985 34.821232 6.551471 C 32.289982 6.170956 30.780331 4.289062 32.269301 1.501379 " transform="matrix(0.944444,0,0,0.944444,0,0)"/>
<path style="fill:none;stroke-width:0.75;stroke-linecap:butt;stroke-linejoin:miter;stroke:rgb(13.72549%,12.156863%,12.54902%);stroke-opacity:1;stroke-miterlimit:4;" d="M 18.028952 7.899816 C 18.028952 7.899816 14.058364 6.630055 13.810202 10.501379 C 13.56204 14.368566 11.638787 14.28171 9.289522 13.28079 C 6.940257 12.279871 4.669577 13.090533 4.471048 16.25046 " transform="matrix(0.944444,0,0,0.944444,0,0)"/>
<path style="fill:none;stroke-width:0.75;stroke-linecap:butt;stroke-linejoin:miter;stroke:rgb(13.72549%,12.156863%,12.54902%);stroke-opacity:1;stroke-miterlimit:4;" d="M 8.400276 64.141544 C 8.400276 64.141544 9.359835 68.198989 5.480239 68.141085 C 1.600643 68.079044 1.538603 70.01057 2.349265 72.430147 C 3.159926 74.849724 2.171415 77.050092 -0.988511 77.00046 " transform="matrix(0.944444,0,0,0.944444,0,0)"/>
<path style="fill:none;stroke-width:0.75;stroke-linecap:butt;stroke-linejoin:miter;stroke:rgb(13.72549%,12.156863%,12.54902%);stroke-opacity:1;stroke-miterlimit:4;" d="M 70.320772 33.481158 C 70.320772 33.481158 68.050092 36.980239 65.411305 34.130515 C 62.768382 31.289062 61.329044 32.571232 60.150276 34.829504 C 58.959099 37.091912 56.688419 37.898438 54.54182 35.578125 " transform="matrix(0.944444,0,0,0.944444,0,0)"/>
<path style="fill:none;stroke-width:0.75;stroke-linecap:butt;stroke-linejoin:miter;stroke:rgb(13.72549%,12.156863%,12.54902%);stroke-opacity:1;stroke-miterlimit:4;" d="M 50.380974 1.600643 C 50.380974 1.600643 51.340533 5.658088 47.460938 5.600184 C 43.581342 5.538143 43.511029 7.469669 44.329963 9.880974 C 45.140625 12.300551 44.147978 14.500919 40.988051 14.451287 " transform="matrix(0.944444,0,0,0.944444,0,0)"/>
<path style="fill:none;stroke-width:0.75;stroke-linecap:butt;stroke-linejoin:miter;stroke:rgb(13.72549%,12.156863%,12.54902%);stroke-opacity:1;stroke-miterlimit:4;" d="M 43.879136 31.80193 C 43.879136 31.80193 42.24954 27.971967 46.079504 27.359835 C 49.909467 26.76011 49.648897 24.849265 48.428768 22.599265 C 47.221048 20.349265 47.820772 18.02068 50.939338 17.528493 " transform="matrix(0.944444,0,0,0.944444,0,0)"/>
<path style="fill:none;stroke-width:0.75;stroke-linecap:butt;stroke-linejoin:miter;stroke:rgb(13.72549%,12.156863%,12.54902%);stroke-opacity:1;stroke-miterlimit:4;" d="M 74.878676 33.609375 C 74.878676 33.609375 70.730239 33.170956 72.070312 29.53125 C 73.410386 25.891544 71.611213 25.188419 69.059283 25.151195 C 66.511489 25.118107 64.761949 23.451287 65.849724 20.481618 " transform="matrix(0.944444,0,0,0.944444,0,0)"/>
<path style="fill:none;stroke-width:0.75;stroke-linecap:butt;stroke-linejoin:miter;stroke:rgb(13.72549%,12.156863%,12.54902%);stroke-opacity:1;stroke-miterlimit:4;" d="M 62.119026 38.221048 C 62.119026 38.221048 65.589154 35.900735 66.892004 39.561121 C 68.190717 43.209099 70.018842 42.601103 72 40.988051 C 73.981158 39.379136 76.388327 39.540441 77.451287 42.518382 " transform="matrix(0.944444,0,0,0.944444,0,0)"/>
<path style="fill:none;stroke-width:0.75;stroke-linecap:butt;stroke-linejoin:miter;stroke:rgb(13.72549%,12.156863%,12.54902%);stroke-opacity:1;stroke-miterlimit:4;" d="M 71.681526 62.731158 C 71.681526 62.731158 70.920496 66.829963 67.388327 65.20864 C 63.860294 63.591452 63.028952 65.328585 62.801471 67.868107 C 62.569853 70.411765 60.778952 72.028952 57.900276 70.709559 " transform="matrix(0.944444,0,0,0.944444,0,0)"/>
<path style="fill:none;stroke-width:0.75;stroke-linecap:butt;stroke-linejoin:miter;stroke:rgb(13.72549%,12.156863%,12.54902%);stroke-opacity:1;stroke-miterlimit:4;" d="M 28.778493 43.961857 C 28.778493 43.961857 32.910386 44.511949 31.47932 48.118566 C 30.039982 51.72932 31.818474 52.469669 34.370404 52.568934 C 36.918199 52.668199 38.618107 54.380515 37.451746 57.321232 " transform="matrix(0.944444,0,0,0.944444,0,0)"/>
<path style="fill:none;stroke-width:0.75;stroke-linecap:butt;stroke-linejoin:miter;stroke:rgb(13.72549%,12.156863%,12.54902%);stroke-opacity:1;stroke-miterlimit:4;" d="M 14.790441 43.428309 C 14.790441 43.428309 15.98989 47.419577 19.319393 45.438419 C 22.648897 43.448989 23.670496 45.078585 24.170956 47.589154 C 24.671415 50.091452 26.631893 51.501838 29.349265 49.880515 " transform="matrix(0.944444,0,0,0.944444,0,0)"/>
<path style="fill:none;stroke-width:0.75;stroke-linecap:butt;stroke-linejoin:miter;stroke:rgb(13.72549%,12.156863%,12.54902%);stroke-opacity:1;stroke-miterlimit:4;" d="M 1.790901 60.009651 C 1.790901 60.009651 2.990349 64.000919 6.319853 62.019761 C 9.649357 60.030331 10.670956 61.659926 11.171415 64.170496 C 11.671875 66.668658 13.628217 68.079044 16.349724 66.461857 " transform="matrix(0.944444,0,0,0.944444,0,0)"/>
<path style="fill:none;stroke-width:0.75;stroke-linecap:butt;stroke-linejoin:miter;stroke:rgb(13.72549%,12.156863%,12.54902%);stroke-opacity:1;stroke-miterlimit:4;" d="M 37.881893 69.009651 C 37.881893 69.009651 42.030331 68.649816 40.768842 64.981158 C 39.499081 61.308364 41.310662 60.650735 43.858456 60.671415 C 46.410386 60.68796 48.188879 59.058364 47.159007 56.068015 " transform="matrix(0.944444,0,0,0.944444,0,0)"/>
<path style="fill:none;stroke-width:0.75;stroke-linecap:butt;stroke-linejoin:miter;stroke:rgb(13.72549%,12.156863%,12.54902%);stroke-opacity:1;stroke-miterlimit:4;" d="M 34.490349 60.088235 C 34.490349 60.088235 37.699908 62.751838 34.568934 65.039062 C 31.43796 67.330423 32.550551 68.910386 34.659926 70.349724 C 36.769301 71.789062 37.311121 74.138327 34.759191 76.011949 " transform="matrix(0.944444,0,0,0.944444,0,0)"/>
<path style="fill:none;stroke-width:0.75;stroke-linecap:butt;stroke-linejoin:miter;stroke:rgb(13.72549%,12.156863%,12.54902%);stroke-opacity:1;stroke-miterlimit:4;" d="M 50.831801 63.591452 C 50.831801 63.591452 47.460938 61.130515 50.438879 58.648897 C 53.420956 56.171415 52.221507 54.661765 50.02114 53.358915 C 47.829044 52.05193 47.138327 49.73989 49.578585 47.721507 " transform="matrix(0.944444,0,0,0.944444,0,0)"/>
<path style="fill:none;stroke-width:0.75;stroke-linecap:butt;stroke-linejoin:miter;stroke:rgb(13.72549%,12.156863%,12.54902%);stroke-opacity:1;stroke-miterlimit:4;" d="M 55.939798 59.430607 C 55.939798 59.430607 58.76057 56.361673 60.890625 59.600184 C 63.02068 62.838695 64.650276 61.808824 66.188879 59.778033 C 67.731618 57.751379 70.109835 57.329504 71.851103 59.980699 " transform="matrix(0.944444,0,0,0.944444,0,0)"/>
<path style="fill:none;stroke-width:0.75;stroke-linecap:butt;stroke-linejoin:miter;stroke:rgb(13.72549%,12.156863%,12.54902%);stroke-opacity:1;stroke-miterlimit:4;" d="M 40.169118 32.480239 C 40.169118 32.480239 44.329963 32.720129 43.171875 36.421875 C 42.009651 40.119485 43.829504 40.731618 46.389706 40.640625 C 48.941636 40.549632 50.769761 42.129596 49.818474 45.140625 " transform="matrix(0.944444,0,0,0.944444,0,0)"/>
<path style="fill:none;stroke-width:0.75;stroke-linecap:butt;stroke-linejoin:miter;stroke:rgb(13.72549%,12.156863%,12.54902%);stroke-opacity:1;stroke-miterlimit:4;" d="M 31.669577 40.409007 C 31.669577 40.409007 31.28079 44.561581 35.119026 43.970129 C 38.948989 43.378676 39.279871 45.268842 38.808364 47.779412 C 38.340993 50.289982 39.619026 52.329044 42.75 51.849265 " transform="matrix(0.944444,0,0,0.944444,0,0)"/>
<path style="fill:none;stroke-width:0.75;stroke-linecap:butt;stroke-linejoin:miter;stroke:rgb(13.72549%,12.156863%,12.54902%);stroke-opacity:1;stroke-miterlimit:4;" d="M 19.46829 42.70864 C 19.46829 42.70864 20.53125 38.680147 23.931066 40.549632 C 27.330882 42.431526 28.290441 40.76057 28.70818 38.241728 C 29.130055 35.71875 31.040901 34.25046 33.81204 35.78079 " transform="matrix(0.944444,0,0,0.944444,0,0)"/>
<path style="fill:none;stroke-width:0.75;stroke-linecap:butt;stroke-linejoin:miter;stroke:rgb(13.72549%,12.156863%,12.54902%);stroke-opacity:1;stroke-miterlimit:4;" d="M 1.211857 13.181526 C 1.211857 13.181526 5.368566 12.970588 4.23943 9.26057 C 3.102022 5.550551 4.930147 4.950827 7.477941 5.058364 C 10.029871 5.170037 11.870404 3.598346 10.939798 0.579044 " transform="matrix(0.944444,0,0,0.944444,0,0)"/>
<path style="fill:none;stroke-width:0.75;stroke-linecap:butt;stroke-linejoin:miter;stroke:rgb(13.72549%,12.156863%,12.54902%);stroke-opacity:1;stroke-miterlimit:4;" d="M 35.689798 57.647978 C 35.689798 57.647978 31.868107 55.96875 31.231158 59.798713 C 30.590074 63.628676 28.679228 63.339154 26.449908 62.098346 C 24.220588 60.861673 21.879596 61.440717 21.350184 64.559283 " transform="matrix(0.944444,0,0,0.944444,0,0)"/>
<path style="fill:none;stroke-width:0.75;stroke-linecap:butt;stroke-linejoin:miter;stroke:rgb(13.72549%,12.156863%,12.54902%);stroke-opacity:1;stroke-miterlimit:4;" d="M 83.79182 52.821232 C 83.79182 52.821232 82.199449 48.95818 79.080882 51.270221 C 75.95818 53.578125 74.79182 52.05193 74.039062 49.611673 C 73.290441 47.171415 71.210018 45.959559 68.658088 47.841452 " transform="matrix(0.944444,0,0,0.944444,0,0)"/>
<path style="fill:none;stroke-width:0.75;stroke-linecap:butt;stroke-linejoin:miter;stroke:rgb(13.72549%,12.156863%,12.54902%);stroke-opacity:1;stroke-miterlimit:4;" d="M 67.71921 48.838235 C 67.71921 48.838235 66.701746 52.879136 63.28125 51.051011 C 59.860754 49.210478 58.921875 50.889706 58.528952 53.408548 C 58.140165 55.931526 56.25 57.428768 53.45818 55.931526 " transform="matrix(0.944444,0,0,0.944444,0,0)"/>
<path style="fill:none;stroke-width:0.75;stroke-linecap:butt;stroke-linejoin:miter;stroke:rgb(13.72549%,12.156863%,12.54902%);stroke-opacity:1;stroke-miterlimit:4;" d="M 59.641544 60.81204 C 59.641544 60.81204 59.521599 64.981158 55.778493 63.918199 C 52.05193 62.859375 51.48943 64.699908 51.650735 67.251838 C 51.81204 69.799632 50.28171 71.669118 47.241728 70.800551 " transform="matrix(0.944444,0,0,0.944444,0,0)"/>
<path style="fill:none;stroke-width:0.75;stroke-linecap:butt;stroke-linejoin:miter;stroke:rgb(13.72549%,12.156863%,12.54902%);stroke-opacity:1;stroke-miterlimit:4;" d="M 51.348805 47.940717 C 51.348805 47.940717 53.371324 44.288603 56.200368 46.939798 C 59.029412 49.590993 60.369485 48.209559 61.399357 45.868566 C 62.420956 43.53171 64.642004 42.568015 66.941636 44.731158 " transform="matrix(0.944444,0,0,0.944444,0,0)"/>
<path style="fill:none;stroke-width:0.75;stroke-linecap:butt;stroke-linejoin:miter;stroke:rgb(13.72549%,12.156863%,12.54902%);stroke-opacity:1;stroke-miterlimit:4;" d="M 41.289982 59.079044 C 41.289982 59.079044 39.329504 55.397978 43.101562 54.471507 C 46.869485 53.540901 46.439338 51.659007 45.028952 49.528952 C 43.630974 47.398897 44.019761 45.02068 47.088695 44.259651 " transform="matrix(0.944444,0,0,0.944444,0,0)"/>
<path style="fill:none;stroke-width:0.75;stroke-linecap:butt;stroke-linejoin:miter;stroke:rgb(13.72549%,12.156863%,12.54902%);stroke-opacity:1;stroke-miterlimit:4;" d="M 62.011489 83.53125 C 62.011489 83.53125 60.721048 79.568934 64.588235 79.300092 C 68.459559 79.03125 68.360294 77.107996 67.351103 74.77114 C 66.341912 72.430147 67.140165 70.151195 70.300092 69.931985 " transform="matrix(0.944444,0,0,0.944444,0,0)"/>
<path style="fill:none;stroke-width:0.75;stroke-linecap:butt;stroke-linejoin:miter;stroke:rgb(13.72549%,12.156863%,12.54902%);stroke-opacity:1;stroke-miterlimit:4;" d="M 46.410386 34.018842 C 46.410386 34.018842 50.500919 33.20818 50.298254 37.079504 C 50.099724 40.959099 52.018842 41.091452 54.471507 40.359375 C 56.920037 39.639706 59.079044 40.698529 58.921875 43.858456 " transform="matrix(0.944444,0,0,0.944444,0,0)"/>
<path style="fill:none;stroke-width:0.75;stroke-linecap:butt;stroke-linejoin:miter;stroke:rgb(13.72549%,12.156863%,12.54902%);stroke-opacity:1;stroke-miterlimit:4;" d="M 66.590074 12.821691 C 66.590074 12.821691 70.721967 12.288143 70.258732 16.138787 C 69.799632 19.98943 71.710478 20.258272 74.200368 19.699908 C 76.690257 19.141544 78.778952 20.349265 78.398438 23.500919 " transform="matrix(0.944444,0,0,0.944444,0,0)"/>
<path style="fill:none;stroke-width:0.75;stroke-linecap:butt;stroke-linejoin:miter;stroke:rgb(13.72549%,12.156863%,12.54902%);stroke-opacity:1;stroke-miterlimit:4;" d="M 65.068015 53.838695 C 65.068015 53.838695 67.47932 57.238511 70.01057 54.289522 C 72.529412 51.340533 74.018382 52.560662 75.288143 54.769301 C 76.570312 56.977941 78.869945 57.689338 80.929688 55.290441 " transform="matrix(0.944444,0,0,0.944444,0,0)"/>
<path style="fill:none;stroke-width:0.75;stroke-linecap:butt;stroke-linejoin:miter;stroke:rgb(13.72549%,12.156863%,12.54902%);stroke-opacity:1;stroke-miterlimit:4;" d="M 45.459099 62.830423 C 45.459099 62.830423 41.740809 64.70818 44.280331 67.640625 C 46.819853 70.568934 45.388787 71.859375 43.018842 72.789982 C 40.640625 73.720588 39.598346 75.900276 41.670496 78.290901 " transform="matrix(0.944444,0,0,0.944444,0,0)"/>
<path style="fill:none;stroke-width:0.75;stroke-linecap:butt;stroke-linejoin:miter;stroke:rgb(13.72549%,12.156863%,12.54902%);stroke-opacity:1;stroke-miterlimit:4;" d="M 28.228401 80.309283 C 28.228401 80.309283 24.659007 78.150276 27.421875 75.420496 C 30.180607 72.690717 28.848805 71.301011 26.549173 70.180147 C 24.24954 69.059283 23.368566 66.821691 25.630974 64.588235 " transform="matrix(0.944444,0,0,0.944444,0,0)"/>
<path style="fill:none;stroke-width:0.75;stroke-linecap:butt;stroke-linejoin:miter;stroke:rgb(13.72549%,12.156863%,12.54902%);stroke-opacity:1;stroke-miterlimit:4;" d="M 19.96875 65.688419 C 19.96875 65.688419 21.168199 69.68796 17.288603 69.861673 C 13.409007 70.03125 13.45864 71.950368 14.418199 74.320312 C 15.369485 76.690257 14.521599 78.940257 11.361673 79.080882 " transform="matrix(0.944444,0,0,0.944444,0,0)"/>
<path style="fill:none;stroke-width:0.75;stroke-linecap:butt;stroke-linejoin:miter;stroke:rgb(13.72549%,12.156863%,12.54902%);stroke-opacity:1;stroke-miterlimit:4;" d="M 2.878676 33.609375 C 2.878676 33.609375 -1.269761 33.170956 0.0703125 29.53125 C 1.410386 25.891544 -0.388787 25.188419 -2.940717 25.151195 C -5.488511 25.118107 -7.238051 23.451287 -6.150276 20.481618 " transform="matrix(0.944444,0,0,0.944444,0,0)"/>
<path style="fill:none;stroke-width:0.75;stroke-linecap:butt;stroke-linejoin:miter;stroke:rgb(13.72549%,12.156863%,12.54902%);stroke-opacity:1;stroke-miterlimit:4;" d="M -9.880974 38.221048 C -9.880974 38.221048 -6.410846 35.900735 -5.107996 39.561121 C -3.809283 43.209099 -1.981158 42.601103 0 40.988051 C 1.981158 39.379136 4.388327 39.540441 5.451287 42.518382 " transform="matrix(0.944444,0,0,0.944444,0,0)"/>
<path style="fill:none;stroke-width:0.75;stroke-linecap:butt;stroke-linejoin:miter;stroke:rgb(13.72549%,12.156863%,12.54902%);stroke-opacity:1;stroke-miterlimit:4;" d="M -0.318474 62.731158 C -0.318474 62.731158 -1.079504 66.829963 -4.611673 65.20864 C -8.139706 63.591452 -8.971048 65.328585 -9.198529 67.868107 C -9.430147 70.411765 -11.221048 72.028952 -14.099724 70.709559 " transform="matrix(0.944444,0,0,0.944444,0,0)"/>
<path style="fill:none;stroke-width:0.75;stroke-linecap:butt;stroke-linejoin:miter;stroke:rgb(13.72549%,12.156863%,12.54902%);stroke-opacity:1;stroke-miterlimit:4;" d="M -16.060202 59.430607 C -16.060202 59.430607 -13.23943 56.361673 -11.109375 59.600184 C -8.97932 62.838695 -7.349724 61.808824 -5.811121 59.778033 C -4.268382 57.751379 -1.890165 57.329504 -0.148897 59.980699 " transform="matrix(0.944444,0,0,0.944444,0,0)"/>
<path style="fill:none;stroke-width:0.75;stroke-linecap:butt;stroke-linejoin:miter;stroke:rgb(13.72549%,12.156863%,12.54902%);stroke-opacity:1;stroke-miterlimit:4;" d="M 11.79182 52.821232 C 11.79182 52.821232 10.199449 48.95818 7.080882 51.270221 C 3.95818 53.578125 2.79182 52.05193 2.039062 49.611673 C 1.290441 47.171415 -0.789982 45.959559 -3.341912 47.841452 " transform="matrix(0.944444,0,0,0.944444,0,0)"/>
<path style="fill:none;stroke-width:0.75;stroke-linecap:butt;stroke-linejoin:miter;stroke:rgb(13.72549%,12.156863%,12.54902%);stroke-opacity:1;stroke-miterlimit:4;" d="M -5.409926 12.821691 C -5.409926 12.821691 -1.278033 12.288143 -1.741268 16.138787 C -2.200368 19.98943 -0.289522 20.258272 2.200368 19.699908 C 4.690257 19.141544 6.778952 20.349265 6.398438 23.500919 " transform="matrix(0.944444,0,0,0.944444,0,0)"/>
<path style="fill:none;stroke-width:0.75;stroke-linecap:butt;stroke-linejoin:miter;stroke:rgb(13.72549%,12.156863%,12.54902%);stroke-opacity:1;stroke-miterlimit:4;" d="M -6.931985 53.838695 C -6.931985 53.838695 -4.52068 57.238511 -1.98943 54.289522 C 0.529412 51.340533 2.018382 52.560662 3.288143 54.769301 C 4.570312 56.977941 6.869945 57.689338 8.929688 55.290441 " transform="matrix(0.944444,0,0,0.944444,0,0)"/>
<path style="fill:none;stroke-width:0.75;stroke-linecap:butt;stroke-linejoin:miter;stroke:rgb(13.72549%,12.156863%,12.54902%);stroke-opacity:1;stroke-miterlimit:4;" d="M 80.400276 -7.858456 C 80.400276 -7.858456 81.359835 -3.801011 77.480239 -3.858915 C 73.600643 -3.920956 73.538603 -1.98943 74.349265 0.430147 C 75.159926 2.849724 74.171415 5.050092 71.011489 5.00046 " transform="matrix(0.944444,0,0,0.944444,0,0)"/>
<path style="fill:none;stroke-width:0.75;stroke-linecap:butt;stroke-linejoin:miter;stroke:rgb(13.72549%,12.156863%,12.54902%);stroke-opacity:1;stroke-miterlimit:4;" d="M 51.022059 11.378217 C 51.022059 11.378217 49.160846 7.651654 52.949449 6.820312 C 56.738051 5.988971 56.361673 4.098805 55.021599 1.931526 C 53.681526 -0.23989 54.140625 -2.609835 57.230239 -3.279871 " transform="matrix(0.944444,0,0,0.944444,0,0)"/>
<path style="fill:none;stroke-width:0.75;stroke-linecap:butt;stroke-linejoin:miter;stroke:rgb(13.72549%,12.156863%,12.54902%);stroke-opacity:1;stroke-miterlimit:4;" d="M 8.400276 -7.858456 C 8.400276 -7.858456 9.359835 -3.801011 5.480239 -3.858915 C 1.600643 -3.920956 1.538603 -1.98943 2.349265 0.430147 C 3.159926 2.849724 2.171415 5.050092 -0.988511 5.00046 " transform="matrix(0.944444,0,0,0.944444,0,0)"/>
<path style="fill:none;stroke-width:0.75;stroke-linecap:butt;stroke-linejoin:miter;stroke:rgb(13.72549%,12.156863%,12.54902%);stroke-opacity:1;stroke-miterlimit:4;" d="M 34.490349 -11.911765 C 34.490349 -11.911765 37.699908 -9.248162 34.568934 -6.960938 C 31.43796 -4.669577 32.550551 -3.089614 34.659926 -1.650276 C 36.769301 -0.210938 37.311121 2.138327 34.759191 4.011949 " transform="matrix(0.944444,0,0,0.944444,0,0)"/>
<path style="fill:none;stroke-width:0.75;stroke-linecap:butt;stroke-linejoin:miter;stroke:rgb(13.72549%,12.156863%,12.54902%);stroke-opacity:1;stroke-miterlimit:4;" d="M 62.011489 11.53125 C 62.011489 11.53125 60.721048 7.568934 64.588235 7.300092 C 68.459559 7.03125 68.360294 5.107996 67.351103 2.77114 C 66.341912 0.430147 67.140165 -1.848805 70.300092 -2.068015 " transform="matrix(0.944444,0,0,0.944444,0,0)"/>
<path style="fill:none;stroke-width:0.75;stroke-linecap:butt;stroke-linejoin:miter;stroke:rgb(13.72549%,12.156863%,12.54902%);stroke-opacity:1;stroke-miterlimit:4;" d="M 45.459099 -9.169577 C 45.459099 -9.169577 41.740809 -7.29182 44.280331 -4.359375 C 46.819853 -1.431066 45.388787 -0.140625 43.018842 0.789982 C 40.640625 1.720588 39.598346 3.900276 41.670496 6.290901 " transform="matrix(0.944444,0,0,0.944444,0,0)"/>
<path style="fill:none;stroke-width:0.75;stroke-linecap:butt;stroke-linejoin:miter;stroke:rgb(13.72549%,12.156863%,12.54902%);stroke-opacity:1;stroke-miterlimit:4;" d="M 28.228401 8.309283 C 28.228401 8.309283 24.659007 6.150276 27.421875 3.420496 C 30.180607 0.690717 28.848805 -0.698989 26.549173 -1.819853 C 24.24954 -2.940717 23.368566 -5.178309 25.630974 -7.411765 " transform="matrix(0.944444,0,0,0.944444,0,0)"/>
<path style="fill:none;stroke-width:0.75;stroke-linecap:butt;stroke-linejoin:miter;stroke:rgb(13.72549%,12.156863%,12.54902%);stroke-opacity:1;stroke-miterlimit:4;" d="M 19.96875 -6.311581 C 19.96875 -6.311581 21.168199 -2.31204 17.288603 -2.138327 C 13.409007 -1.96875 13.45864 -0.0496324 14.418199 2.320312 C 15.369485 4.690257 14.521599 6.940257 11.361673 7.080882 " transform="matrix(0.944444,0,0,0.944444,0,0)"/>
</g>
<pattern id="pattern0" patternUnits="userSpaceOnUse" width="68" height="68" patternTransform="matrix(1.007033,0,0,1.007033,6.863022,35.909517)">
<use xlink:href="#surface6"/>
</pattern>
<clipPath id="clip1">
  <rect x="0" y="0" width="48" height="48"/>
</clipPath>
<g id="surface7" clip-path="url(#clip1)">
<rect x="0" y="0" width="48" height="48" style="fill:url(#pattern0);stroke:none;"/>
</g>
</defs>
<g id="surface1">
<rect x="0" y="0" width="48" height="48" style="fill:rgb(71.764706%,91.764706%,90.980392%);fill-opacity:1;stroke:none;"/>
<use xlink:href="#surface7" mask="url(#mask0)"/>
</g>
</svg>
