<?xml version="1.0" encoding="UTF-8"?>
<svg xmlns="http://www.w3.org/2000/svg" xmlns:xlink="http://www.w3.org/1999/xlink" width="48px" height="px" viewBox="0 0 48 48" version="1.1">
<defs>
<filter id="alpha" filterUnits="objectBoundingBox" x="0%" y="0%" width="100%" height="100%">
  <feColorMatrix type="matrix" in="SourceGraphic" values="0 0 0 0 1 0 0 0 0 1 0 0 0 0 1 0 0 0 1 0"/>
</filter>
<mask id="mask0">
  <g filter="url(#alpha)">
<rect x="0" y="0" width="48" height="48" style="fill:rgb(0%,0%,0%);fill-opacity:0.301961;stroke:none;"/>
  </g>
</mask>
<clipPath id="clip2">
  <rect x="0" y="0" width="26" height="26"/>
</clipPath>
<g id="surface6" clip-path="url(#clip2)">
<path style=" stroke:none;fill-rule:nonzero;fill:rgb(13.72549%,12.156863%,12.54902%);fill-opacity:1;" d="M 26 28.601562 C 27.433594 28.601562 28.601562 27.433594 28.601562 26 C 28.601562 24.566406 27.433594 23.398438 26 23.398438 C 24.566406 23.398438 23.398438 24.566406 23.398438 26 C 23.398438 27.433594 24.566406 28.601562 26 28.601562 Z M 26 28.601562 "/>
<path style=" stroke:none;fill-rule:nonzero;fill:rgb(13.72549%,12.156863%,12.54902%);fill-opacity:1;" d="M 13 28.601562 C 14.433594 28.601562 15.601562 27.433594 15.601562 26 C 15.601562 24.566406 14.433594 23.398438 13 23.398438 C 11.566406 23.398438 10.398438 24.566406 10.398438 26 C 10.398438 27.433594 11.566406 28.601562 13 28.601562 Z M 13 28.601562 "/>
<path style=" stroke:none;fill-rule:nonzero;fill:rgb(13.72549%,12.156863%,12.54902%);fill-opacity:1;" d="M 26 15.601562 C 27.433594 15.601562 28.601562 14.433594 28.601562 13 C 28.601562 11.566406 27.433594 10.398438 26 10.398438 C 24.566406 10.398438 23.398438 11.566406 23.398438 13 C 23.398438 14.433594 24.566406 15.601562 26 15.601562 Z M 26 15.601562 "/>
<path style=" stroke:none;fill-rule:nonzero;fill:rgb(13.72549%,12.156863%,12.54902%);fill-opacity:1;" d="M 13 15.601562 C 14.433594 15.601562 15.601562 14.433594 15.601562 13 C 15.601562 11.566406 14.433594 10.398438 13 10.398438 C 11.566406 10.398438 10.398438 11.566406 10.398438 13 C 10.398438 14.433594 11.566406 15.601562 13 15.601562 Z M 13 15.601562 "/>
<path style=" stroke:none;fill-rule:nonzero;fill:rgb(13.72549%,12.156863%,12.54902%);fill-opacity:1;" d="M 6.5 22.101562 C 7.933594 22.101562 9.101562 20.933594 9.101562 19.5 C 9.101562 18.066406 7.933594 16.898438 6.5 16.898438 C 5.066406 16.898438 3.898438 18.066406 3.898438 19.5 C 3.898438 20.933594 5.066406 22.101562 6.5 22.101562 Z M 6.5 22.101562 "/>
<path style=" stroke:none;fill-rule:nonzero;fill:rgb(13.72549%,12.156863%,12.54902%);fill-opacity:1;" d="M 19.5 22.101562 C 20.933594 22.101562 22.101562 20.933594 22.101562 19.5 C 22.101562 18.066406 20.933594 16.898438 19.5 16.898438 C 18.066406 16.898438 16.898438 18.066406 16.898438 19.5 C 16.898438 20.933594 18.066406 22.101562 19.5 22.101562 Z M 19.5 22.101562 "/>
<path style=" stroke:none;fill-rule:nonzero;fill:rgb(13.72549%,12.156863%,12.54902%);fill-opacity:1;" d="M 6.5 9.101562 C 7.933594 9.101562 9.101562 7.933594 9.101562 6.5 C 9.101562 5.066406 7.933594 3.898438 6.5 3.898438 C 5.066406 3.898438 3.898438 5.066406 3.898438 6.5 C 3.898438 7.933594 5.066406 9.101562 6.5 9.101562 Z M 6.5 9.101562 "/>
<path style=" stroke:none;fill-rule:nonzero;fill:rgb(13.72549%,12.156863%,12.54902%);fill-opacity:1;" d="M 19.5 9.101562 C 20.933594 9.101562 22.101562 7.933594 22.101562 6.5 C 22.101562 5.066406 20.933594 3.898438 19.5 3.898438 C 18.066406 3.898438 16.898438 5.066406 16.898438 6.5 C 16.898438 7.933594 18.066406 9.101562 19.5 9.101562 Z M 19.5 9.101562 "/>
<path style=" stroke:none;fill-rule:nonzero;fill:rgb(13.72549%,12.156863%,12.54902%);fill-opacity:1;" d="M 0 28.601562 C 1.433594 28.601562 2.601562 27.433594 2.601562 26 C 2.601562 24.566406 1.433594 23.398438 0 23.398438 C -1.433594 23.398438 -2.601562 24.566406 -2.601562 26 C -2.601562 27.433594 -1.433594 28.601562 0 28.601562 Z M 0 28.601562 "/>
<path style=" stroke:none;fill-rule:nonzero;fill:rgb(13.72549%,12.156863%,12.54902%);fill-opacity:1;" d="M 0 15.601562 C 1.433594 15.601562 2.601562 14.433594 2.601562 13 C 2.601562 11.566406 1.433594 10.398438 0 10.398438 C -1.433594 10.398438 -2.601562 11.566406 -2.601562 13 C -2.601562 14.433594 -1.433594 15.601562 0 15.601562 Z M 0 15.601562 "/>
<path style=" stroke:none;fill-rule:nonzero;fill:rgb(13.72549%,12.156863%,12.54902%);fill-opacity:1;" d="M 26 2.601562 C 27.433594 2.601562 28.601562 1.433594 28.601562 0 C 28.601562 -1.433594 27.433594 -2.601562 26 -2.601562 C 24.566406 -2.601562 23.398438 -1.433594 23.398438 0 C 23.398438 1.433594 24.566406 2.601562 26 2.601562 Z M 26 2.601562 "/>
<path style=" stroke:none;fill-rule:nonzero;fill:rgb(13.72549%,12.156863%,12.54902%);fill-opacity:1;" d="M 13 2.601562 C 14.433594 2.601562 15.601562 1.433594 15.601562 0 C 15.601562 -1.433594 14.433594 -2.601562 13 -2.601562 C 11.566406 -2.601562 10.398438 -1.433594 10.398438 0 C 10.398438 1.433594 11.566406 2.601562 13 2.601562 Z M 13 2.601562 "/>
<path style=" stroke:none;fill-rule:nonzero;fill:rgb(13.72549%,12.156863%,12.54902%);fill-opacity:1;" d="M 0 2.601562 C 1.433594 2.601562 2.601562 1.433594 2.601562 0 C 2.601562 -1.433594 1.433594 -2.601562 0 -2.601562 C -1.433594 -2.601562 -2.601562 -1.433594 -2.601562 0 C -2.601562 1.433594 -1.433594 2.601562 0 2.601562 Z M 0 2.601562 "/>
</g>
<pattern id="pattern0" patternUnits="userSpaceOnUse" width="26" height="26" patternTransform="matrix(1.02507,0,0,1.02507,7.428257,7.197872)">
<use xlink:href="#surface6"/>
</pattern>
<clipPath id="clip1">
  <rect x="0" y="0" width="48" height="48"/>
</clipPath>
<g id="surface7" clip-path="url(#clip1)">
<rect x="0" y="0" width="48" height="48" style="fill:url(#pattern0);stroke:none;"/>
</g>
</defs>
<g id="surface1">
<rect x="0" y="0" width="48" height="48" style="fill:rgb(71.764706%,91.764706%,90.980392%);fill-opacity:1;stroke:none;"/>
<use xlink:href="#surface7" mask="url(#mask0)"/>
</g>
</svg>
