<?xml version="1.0" encoding="UTF-8"?><svg id="Layer_2" xmlns="http://www.w3.org/2000/svg" viewBox="0 0 164.51 46.16"><defs><style>.cls-1{fill:#fff;}</style></defs><g id="Layer_1-2"><g id="Eye-Lashes"><ellipse cx="138.61" cy="23.08" rx="13.01" ry="23.09" transform="translate(-.68 4.51) rotate(-1.86)"/><ellipse class="cls-1" cx="143.23" cy="13.47" rx="4.04" ry="6.62" transform="translate(-.36 4.66) rotate(-1.86)"/><ellipse cx="25.1" cy="23.08" rx="13.01" ry="23.09" transform="translate(-.74 .83) rotate(-1.86)"/><ellipse class="cls-1" cx="29.74" cy="14.17" rx="4.04" ry="6.62" transform="translate(-.44 .97) rotate(-1.86)"/><path d="M145.02,37.49c4.83-5.62,12.92-7.48,19.48-4.93-3.28-.46-6.51,.31-9.24,1.71-2.73,1.4-4.98,3.56-6.08,5.99-1.8,3.45-6.65,.24-4.16-2.77h0Z"/><path d="M143.28,40c5.64-1.6,11.97-1.76,17.37,.65-2.83-.23-5.65-.13-8.21,.6-2.56,.72-4.92,1.99-7.29,3.39-3.41,1.78-5.56-3.55-1.87-4.64h0Z"/><path d="M15.32,40.26c-2.5-5.28-9.31-8.52-15.32-7.69,6.57-2.55,14.65-.7,19.48,4.93,2.48,3.01-2.36,6.22-4.16,2.77h0Z"/><path d="M19.36,44.64c-4.75-3.02-9.79-4.64-15.5-3.99,5.38-2.41,11.75-2.25,17.37-.65,3.69,1.09,1.55,6.41-1.87,4.64h0Z"/></g></g></svg>