<?xml version="1.0" encoding="UTF-8"?><svg id="Layer_2" xmlns="http://www.w3.org/2000/svg" viewBox="0 0 154.86 48.71"><defs><style>.cls-1{fill:#fff;}</style></defs><g id="Layer_1-2"><g id="Eye-Sparkle"><path d="M33.27,25.45c0,11.13-3.41,23.12-15.88,23.26C3.3,48.87,1,36.57,1,25.81S3.75,2.69,16.88,2.54c12.95-.15,16.39,12.12,16.39,22.9Z"/><path d="M146.3,25.45c0,11.13-3.41,23.12-15.88,23.26-14.09,.16-16.39-12.14-16.39-22.9s2.75-23.12,15.88-23.26c12.95-.15,16.39,12.12,16.39,22.9Z"/><path class="cls-1" d="M135.47,36.64c-1.27-13.8-3.71-16.25-17.39-17.42-.83-.07-.84-1.29,0-1.36,13.69-1.3,16.17-3.72,17.4-17.23,.08-.83,1.29-.83,1.36,0,1.2,13.57,3.67,16,17.39,17.26,.83,.08,.83,1.29,0,1.36-13.76,1.21-16.2,3.65-17.4,17.39-.07,.83-1.29,.83-1.36,0Z"/><path class="cls-1" d="M22.45,36.64c-1.27-13.8-3.71-16.25-17.39-17.42-.83-.07-.84-1.29,0-1.36,13.69-1.3,16.17-3.72,17.4-17.23,.08-.83,1.29-.83,1.36,0,1.2,13.57,3.67,16,17.39,17.26,.83,.08,.83,1.29,0,1.36-13.76,1.21-16.2,3.65-17.4,17.39-.07,.83-1.29,.83-1.36,0Z"/><path class="cls-1" d="M123.77,43.86c-.76-8.24-2.21-9.7-10.37-10.39-.5-.04-.5-.77,0-.81,8.17-.77,9.65-2.22,10.38-10.28,.05-.5,.77-.49,.81,0,.72,8.1,2.19,9.55,10.38,10.3,.5,.05,.49,.77,0,.81-8.21,.72-9.67,2.18-10.38,10.37-.04,.5-.77,.5-.81,0Z"/><path class="cls-1" d="M10.75,43.86c-.76-8.24-2.21-9.7-10.37-10.39-.5-.04-.5-.77,0-.81,8.17-.77,9.65-2.22,10.38-10.28,.05-.5,.77-.49,.81,0,.72,8.1,2.19,9.55,10.38,10.3,.5,.05,.49,.77,0,.81-8.21,.72-9.67,2.18-10.38,10.37-.04,.5-.77,.5-.81,0Z"/></g></g></svg>