<?xml version="1.0" encoding="UTF-8"?><svg id="Layer_2" xmlns="http://www.w3.org/2000/svg" viewBox="0 0 162.98 44.82"><defs><style>.cls-1{fill:#fff;}</style></defs><g id="Layer_1-2"><g id="Eye-Heart"><g id="Kl0ORQ"><path d="M29.97,43.65c-2.07,1.56-4.92,1.56-7,0C16.8,38.99,4.31,28.79,1.06,20.31-5,3.09,16.51-8.17,26.47,7.4c9.96-15.57,31.48-4.31,25.42,12.91-3.25,8.48-15.74,18.68-21.92,23.34Z"/></g><g id="Kl0ORQ-2"><path d="M140,43.65c-2.07,1.56-4.92,1.56-7,0-6.18-4.66-18.67-14.86-21.92-23.34-6.06-17.22,15.46-28.48,25.42-12.91,9.96-15.57,31.48-4.31,25.42,12.91-3.25,8.48-15.74,18.68-21.92,23.34Z"/></g><path class="cls-1" d="M7.95,6.95c-.49,.9-.71,1.97-.5,2.98s.87,1.93,1.8,2.36c.98,.44,2.14,.3,3.15-.07,1.68-.61,3.2-1.9,3.7-3.62,1.68-5.74-6.11-5.43-8.15-1.64Z"/><path class="cls-1" d="M7.17,21.18c-.53-1.02-1.01-2.12-.96-3.27s.78-2.35,1.9-2.58c.92-.19,1.88,.3,2.5,1s.97,1.6,1.31,2.48c.76,1.95,1.52,3.91,2.27,5.86,.5,1.29,1,2.58,1.5,3.87,1.6,4.12-2.85,.07-3.75-.84-1.9-1.92-3.52-4.12-4.77-6.51Z"/><path class="cls-1" d="M118.63,6.95c-.49,.9-.71,1.97-.5,2.98s.87,1.93,1.8,2.36c.98,.44,2.14,.3,3.15-.07,1.68-.61,3.2-1.9,3.7-3.62,1.68-5.74-6.11-5.43-8.15-1.64Z"/><path class="cls-1" d="M117.86,21.18c-.53-1.02-1.01-2.12-.96-3.27s.78-2.35,1.9-2.58c.92-.19,1.88,.3,2.5,1s.97,1.6,1.31,2.48c.76,1.95,1.52,3.91,2.27,5.86,.5,1.29,1,2.58,1.5,3.87,1.6,4.12-2.85,.07-3.75-.84-1.9-1.92-3.52-4.12-4.77-6.51Z"/><path class="cls-1" d="M153.75,14.95c.24-.56,.52-1.16,1.05-1.45,.92-.51,2.14,.24,2.48,1.24s.07,2.09-.26,3.09c-1.64,4.91-5.6,8.76-9.38,12.18-2.17,1.97-4.83,4.69-7.69,5.54-.54,.16-1.15,.27-1.63-.03-.58-.36-.7-1.18-.46-1.82s.76-1.12,1.25-1.58c5.75-5.3,11.47-9.85,14.63-17.18Z"/><path class="cls-1" d="M44.01,14.95c.24-.56,.52-1.16,1.05-1.45,.92-.51,2.14,.24,2.48,1.24s.07,2.09-.26,3.09c-1.64,4.91-5.6,8.76-9.38,12.18-2.17,1.97-4.83,4.69-7.69,5.54-.54,.16-1.15,.27-1.63-.03-.58-.36-.7-1.18-.46-1.82s.76-1.12,1.25-1.58c5.75-5.3,11.47-9.85,14.63-17.18Z"/></g></g></svg>