<?xml version="1.0" encoding="UTF-8"?>
<svg xmlns="http://www.w3.org/2000/svg" xmlns:xlink="http://www.w3.org/1999/xlink" width="182px" height="48px" viewBox="0 0 181 48" version="1.1">
<g id="surface1">
<path style=" stroke:none;fill-rule:nonzero;fill:rgb(0%,0%,0%);fill-opacity:1;" d="M 31.09375 24 C 31.09375 10.746094 24.132812 0.00390625 15.546875 0.00390625 C 6.960938 0.00390625 0 10.746094 0 24 C 0 37.253906 6.960938 47.996094 15.546875 47.996094 C 24.132812 47.996094 31.09375 37.253906 31.09375 24 Z M 31.09375 24 "/>
<path style=" stroke:none;fill-rule:nonzero;fill:rgb(100%,100%,100%);fill-opacity:1;" d="M 36.101562 14.320312 C 36.101562 11.652344 31.734375 9.488281 26.347656 9.488281 C 20.964844 9.488281 16.597656 11.652344 16.597656 14.320312 C 16.597656 16.992188 20.964844 19.15625 26.347656 19.15625 C 31.734375 19.15625 36.101562 16.992188 36.101562 14.320312 Z M 36.101562 14.320312 "/>
<path style=" stroke:none;fill-rule:nonzero;fill:rgb(0%,0%,0%);fill-opacity:1;" d="M 180.257812 28.089844 C 167.964844 18.234375 149.546875 17.445312 137.074219 26.773438 C 132.9375 29.800781 129.414062 33.679688 126.890625 38.140625 C 126.773438 38.355469 126.484375 38.4375 126.269531 38.308594 C 126.019531 38.1875 126.03125 37.875 125.996094 37.660156 C 125.542969 34.40625 126.140625 31.261719 127.226562 28.304688 C 134.480469 9.226562 161.820312 4.117188 176.078125 19.121094 C 178.25 21.464844 180.042969 24.15625 180.929688 27.3125 L 181.011719 27.601562 C 181.132812 28.019531 180.617188 28.355469 180.28125 28.078125 Z M 180.257812 28.089844 "/>
</g>
</svg>
