<?xml version="1.0" encoding="UTF-8"?>
<svg xmlns="http://www.w3.org/2000/svg" xmlns:xlink="http://www.w3.org/1999/xlink" width="48px" height="px" viewBox="0 0 48 47" version="1.1">
<g id="surface1">
<path style=" stroke:none;fill-rule:nonzero;fill:rgb(0%,40.784314%,21.960784%);fill-opacity:1;" d="M 12.90625 45.570312 C 13.054688 45.871094 13.4375 45.96875 13.707031 45.769531 L 43.324219 24.882812 C 43.496094 24.757812 43.5625 24.53125 43.488281 24.332031 L 34.394531 0.769531 C 34.394531 0.769531 34.28125 0.515625 33.898438 0.375 L 0.0703125 19.421875 C 0.0703125 19.421875 -0.144531 19.855469 0.25 20.164062 Z M 12.90625 45.570312 "/>
<path style=" stroke:none;fill-rule:nonzero;fill:rgb(82.745098%,74.901961%,57.254902%);fill-opacity:1;" d="M 0.496094 19.535156 L 13.324219 44.921875 C 13.324219 44.921875 15.347656 44.890625 16.390625 46.117188 C 17.433594 47.339844 4.652344 18.039062 4.652344 18.039062 L 0.851562 18.863281 L 0.496094 19.539062 Z M 0.496094 19.535156 "/>
<path style=" stroke:none;fill-rule:nonzero;fill:rgb(0%,58.039216%,26.666667%);fill-opacity:1;" d="M 17.398438 46.90625 L 47.714844 25.546875 C 47.96875 25.359375 48.058594 25.019531 47.929688 24.730469 L 37.804688 2.148438 C 37.804688 2.148438 37.691406 1.894531 37.308594 1.753906 L 3.480469 20.800781 C 3.480469 20.800781 3.308594 21.152344 3.703125 21.457031 L 16.695312 46.738281 C 16.824219 47 17.160156 47.082031 17.398438 46.910156 Z M 17.398438 46.90625 "/>
<path style=" stroke:none;fill-rule:nonzero;fill:rgb(1.176471%,45.882353%,23.529412%);fill-opacity:1;" d="M 37.804688 2.148438 C 37.804688 2.148438 37.691406 1.894531 37.308594 1.753906 L 3.480469 20.800781 C 3.480469 20.800781 3.308594 21.152344 3.703125 21.457031 Z M 37.804688 2.148438 "/>
<path style=" stroke:none;fill-rule:nonzero;fill:rgb(0%,58.039216%,26.666667%);fill-opacity:1;" d="M 37.308594 1.753906 C 37.308594 1.753906 37.683594 1.21875 37.308594 0.574219 L 3.441406 19.851562 C 3.441406 19.851562 2.816406 20.394531 3.480469 20.800781 Z M 37.308594 1.753906 "/>
<path style=" stroke:none;fill-rule:nonzero;fill:rgb(0%,40.784314%,21.960784%);fill-opacity:1;" d="M 37.308594 0.574219 C 37.308594 0.574219 35.347656 -0.71875 33.308594 0.574219 L 1.070312 18.3125 C 1.070312 18.3125 0.183594 18.613281 0.03125 19.554688 C 0.179688 19.808594 0.699219 19.496094 0.714844 19.21875 C 0.730469 18.941406 3.351562 19.933594 3.304688 20.007812 C 3.257812 20.082031 37.308594 0.574219 37.308594 0.574219 Z M 37.308594 0.574219 "/>
<path style=" stroke:none;fill-rule:nonzero;fill:rgb(80%,67.843137%,33.72549%);fill-opacity:1;" d="M 36.136719 8.472656 L 43.21875 23.144531 L 37.035156 27.375 L 29.261719 12.367188 Z M 36.136719 8.472656 "/>
<path style="fill:none;stroke-width:1.96;stroke-linecap:butt;stroke-linejoin:miter;stroke:rgb(0%,58.039216%,26.666667%);stroke-opacity:1;stroke-miterlimit:10;" d="M 211.134783 55.708818 L 249.630201 134.4188 L 219.694434 154.866834 L 177.862593 74.569772 Z M 211.134783 55.708818 " transform="matrix(0.169765,0,0,0.169828,0.0122727,0)"/>
</g>
</svg>
