<?xml version="1.0" encoding="UTF-8"?>
<svg xmlns="http://www.w3.org/2000/svg" xmlns:xlink="http://www.w3.org/1999/xlink" width="48px" height="px" viewBox="0 0 47 40" version="1.1">
<defs>
<linearGradient id="linear0" gradientUnits="userSpaceOnUse" x1="209.63" y1="868.14" x2="154.98" y2="923.31" gradientTransform="matrix(0.0942877,0,0,-0.0951475,11.889883,108.736441)">
<stop offset="0" style="stop-color:rgb(0%,50.588235%,67.843137%);stop-opacity:1;"/>
<stop offset="1" style="stop-color:rgb(7.843137%,81.960784%,87.45098%);stop-opacity:1;"/>
</linearGradient>
<linearGradient id="linear1" gradientUnits="userSpaceOnUse" x1="209.78" y1="868.29" x2="155.13" y2="923.45" gradientTransform="matrix(0.0942877,0,0,-0.0951475,11.889883,108.736441)">
<stop offset="0" style="stop-color:rgb(0%,50.588235%,67.843137%);stop-opacity:1;"/>
<stop offset="1" style="stop-color:rgb(7.843137%,81.960784%,87.45098%);stop-opacity:1;"/>
</linearGradient>
<linearGradient id="linear2" gradientUnits="userSpaceOnUse" x1="193.06" y1="960.71" x2="245.09" y2="908.15" gradientTransform="matrix(0.0942877,0,0,-0.0951475,11.889883,108.736441)">
<stop offset="0" style="stop-color:rgb(0%,50.588235%,67.843137%);stop-opacity:1;"/>
<stop offset="1" style="stop-color:rgb(7.843137%,81.960784%,87.45098%);stop-opacity:1;"/>
</linearGradient>
<linearGradient id="linear3" gradientUnits="userSpaceOnUse" x1="193.21" y1="960.86" x2="245.24" y2="908.3" gradientTransform="matrix(0.0942877,0,0,-0.0951475,11.889883,108.736441)">
<stop offset="0" style="stop-color:rgb(0%,50.588235%,67.843137%);stop-opacity:1;"/>
<stop offset="1" style="stop-color:rgb(7.843137%,81.960784%,87.45098%);stop-opacity:1;"/>
</linearGradient>
<linearGradient id="linear4" gradientUnits="userSpaceOnUse" x1="170.06" y1="945.34" x2="229.67" y2="886.51" gradientTransform="matrix(0.0942877,0,0,-0.0951475,11.889883,108.736441)">
<stop offset="0" style="stop-color:rgb(7.843137%,81.960784%,87.45098%);stop-opacity:1;"/>
<stop offset="1" style="stop-color:rgb(52.156863%,85.098039%,64.705882%);stop-opacity:1;"/>
</linearGradient>
<linearGradient id="linear5" gradientUnits="userSpaceOnUse" x1="170.08" y1="945.36" x2="229.69" y2="886.53" gradientTransform="matrix(0.0942877,0,0,-0.0951475,11.889883,108.736441)">
<stop offset="0" style="stop-color:rgb(7.843137%,81.960784%,87.45098%);stop-opacity:1;"/>
<stop offset="1" style="stop-color:rgb(52.156863%,85.098039%,64.705882%);stop-opacity:1;"/>
</linearGradient>
<filter id="alpha" filterUnits="objectBoundingBox" x="0%" y="0%" width="100%" height="100%">
  <feColorMatrix type="matrix" in="SourceGraphic" values="0 0 0 0 1 0 0 0 0 1 0 0 0 0 1 0 0 0 1 0"/>
</filter>
<mask id="mask0">
  <g filter="url(#alpha)">
<rect x="0" y="0" width="47" height="40" style="fill:rgb(0%,0%,0%);fill-opacity:0.25098;stroke:none;"/>
  </g>
</mask>
<clipPath id="clip1">
  <rect x="0" y="0" width="47" height="40"/>
</clipPath>
<g id="surface5" clip-path="url(#clip1)">
<path style=" stroke:none;fill-rule:nonzero;fill:rgb(0%,0%,0%);fill-opacity:1;" d="M 14.175781 22.945312 L 10.652344 24.433594 L 12.136719 28.015625 C 12.152344 28.023438 12.167969 28.03125 12.1875 28.039062 L 13.808594 28.699219 C 14.375 28.925781 15.011719 28.628906 15.199219 28.046875 L 15.675781 26.570312 Z M 14.175781 22.945312 "/>
</g>
<mask id="mask1">
  <g filter="url(#alpha)">
<rect x="0" y="0" width="47" height="40" style="fill:rgb(0%,0%,0%);fill-opacity:0.25098;stroke:none;"/>
  </g>
</mask>
<clipPath id="clip2">
  <rect x="0" y="0" width="47" height="40"/>
</clipPath>
<g id="surface8" clip-path="url(#clip2)">
<path style=" stroke:none;fill-rule:nonzero;fill:rgb(0%,0%,0%);fill-opacity:1;" d="M 35.625 13.910156 L 32.101562 15.394531 L 33.582031 18.980469 C 33.601562 18.988281 33.617188 18.996094 33.636719 19.003906 L 35.257812 19.664062 C 35.820312 19.890625 36.457031 19.59375 36.644531 19.011719 L 37.125 17.535156 Z M 35.625 13.910156 "/>
</g>
</defs>
<g id="surface1">
<path style=" stroke:none;fill-rule:nonzero;fill:rgb(44.705882%,24.313725%,7.843137%);fill-opacity:1;" d="M 2.09375 13.773438 L 34.164062 0.261719 C 35.878906 -0.460938 37.847656 0.355469 38.5625 2.085938 L 46.714844 21.789062 C 47.429688 23.515625 46.621094 25.503906 44.90625 26.226562 L 12.835938 39.738281 C 11.121094 40.457031 9.152344 39.640625 8.4375 37.914062 L 0.289062 18.210938 C -0.429688 16.480469 0.382812 14.496094 2.09375 13.773438 Z M 2.09375 13.773438 "/>
<path style=" stroke:none;fill-rule:nonzero;fill:rgb(31.764706%,15.686275%,5.098039%);fill-opacity:1;" d="M 11.28125 9.90625 L 10.417969 7.8125 C 10.125 7.105469 10.1875 6.289062 10.589844 5.578125 C 10.933594 4.964844 11.503906 4.46875 12.191406 4.179688 L 20.304688 0.761719 C 21.871094 0.101562 23.542969 0.664062 24.113281 2.042969 L 24.976562 4.136719 L 22.542969 5.164062 L 21.714844 3.164062 C 21.640625 3.148438 21.492188 3.148438 21.320312 3.222656 L 13.207031 6.640625 C 13.035156 6.710938 12.933594 6.816406 12.890625 6.882812 L 13.71875 8.878906 Z M 11.28125 9.90625 "/>
<path style=" stroke:none;fill-rule:nonzero;fill:rgb(100%,100%,100%);fill-opacity:1;" d="M 35.246094 21.644531 C 35.246094 24.164062 33.226562 26.203125 30.730469 26.203125 C 28.238281 26.203125 26.214844 24.164062 26.214844 21.644531 C 26.214844 19.128906 28.238281 17.089844 30.730469 17.089844 C 33.226562 17.089844 35.246094 19.128906 35.246094 21.644531 Z M 35.246094 21.644531 "/>
<path style=" stroke:none;fill-rule:nonzero;fill:url(#linear0);" d="M 29.074219 22.195312 C 28.519531 21.585938 28.050781 20.980469 27.71875 20.449219 C 27.582031 20.234375 27.460938 20.015625 27.355469 19.785156 C 26.585938 21.234375 26.792969 23.019531 27.871094 24.253906 C 27.914062 23.828125 28.363281 23.066406 29.070312 22.195312 Z M 29.074219 22.195312 "/>
<path style=" stroke:none;fill-rule:nonzero;fill:url(#linear1);" d="M 30.257812 23.390625 C 29.394531 24.105469 28.640625 24.558594 28.21875 24.605469 C 29.445312 25.691406 31.210938 25.898438 32.648438 25.121094 C 32.367188 24.996094 32.050781 24.808594 31.695312 24.5625 C 31.191406 24.203125 30.710938 23.8125 30.257812 23.390625 Z M 30.257812 23.390625 "/>
<path style=" stroke:none;fill-rule:nonzero;fill:url(#linear2);" d="M 31.347656 19.898438 C 32.210938 19.183594 32.964844 18.734375 33.386719 18.6875 C 32.160156 17.597656 30.398438 17.390625 28.957031 18.167969 C 29.242188 18.296875 29.554688 18.480469 29.910156 18.730469 C 30.414062 19.085938 30.894531 19.476562 31.347656 19.898438 Z M 31.347656 19.898438 "/>
<path style=" stroke:none;fill-rule:nonzero;fill:url(#linear3);" d="M 33.734375 19.039062 C 33.6875 19.464844 33.242188 20.226562 32.535156 21.097656 C 33.085938 21.707031 33.554688 22.308594 33.886719 22.84375 C 34.023438 23.054688 34.144531 23.277344 34.25 23.507812 C 35.019531 22.054688 34.8125 20.273438 33.734375 19.039062 Z M 33.734375 19.039062 "/>
<path style=" stroke:none;fill-rule:nonzero;fill:url(#linear4);" d="M 30.804688 20.375 C 29.460938 19.148438 28.246094 18.445312 27.9375 18.753906 C 27.582031 19.117188 28.574219 20.703125 30.15625 22.296875 C 30.375 22.515625 30.589844 22.722656 30.804688 22.917969 Z M 30.804688 20.375 "/>
<path style=" stroke:none;fill-rule:nonzero;fill:url(#linear5);" d="M 32.0625 21.644531 C 31.871094 21.859375 31.664062 22.078125 31.449219 22.296875 C 31.230469 22.515625 31.015625 22.722656 30.800781 22.917969 C 32.144531 24.144531 33.359375 24.847656 33.667969 24.535156 C 33.976562 24.226562 33.277344 23 32.0625 21.644531 Z M 32.0625 21.644531 "/>
<path style=" stroke:none;fill-rule:nonzero;fill:rgb(96.862745%,58.039216%,11.372549%);fill-opacity:1;" d="M 13.542969 20.128906 C 12.453125 20.128906 11.636719 19.75 11.246094 19.0625 C 10.835938 18.347656 10.941406 17.40625 11.546875 16.410156 C 12.113281 15.480469 13.058594 14.597656 14.214844 13.925781 C 15.417969 13.222656 16.695312 12.835938 17.808594 12.835938 C 18.921875 12.835938 19.714844 13.214844 20.109375 13.898438 C 20.519531 14.617188 20.414062 15.558594 19.808594 16.554688 C 19.242188 17.484375 18.292969 18.367188 17.140625 19.039062 C 15.933594 19.742188 14.65625 20.128906 13.542969 20.128906 Z M 13.542969 20.128906 "/>
<path style=" stroke:none;fill-rule:nonzero;fill:rgb(100%,100%,100%);fill-opacity:1;" d="M 17.808594 13.167969 C 18.738281 13.167969 19.480469 13.464844 19.824219 14.066406 C 20.539062 15.320312 19.265625 17.417969 16.976562 18.75 C 15.78125 19.445312 14.550781 19.796875 13.542969 19.796875 C 12.613281 19.796875 11.875 19.5 11.53125 18.898438 C 10.8125 17.644531 12.089844 15.546875 14.378906 14.210938 C 15.570312 13.519531 16.800781 13.167969 17.808594 13.167969 M 17.808594 12.5 C 16.640625 12.5 15.304688 12.902344 14.046875 13.636719 C 12.847656 14.335938 11.859375 15.257812 11.265625 16.238281 C 10.59375 17.339844 10.484375 18.402344 10.957031 19.230469 C 11.414062 20.023438 12.332031 20.460938 13.542969 20.460938 C 14.753906 20.460938 16.050781 20.058594 17.304688 19.328125 C 18.507812 18.628906 19.496094 17.703125 20.089844 16.726562 C 20.757812 15.625 20.867188 14.5625 20.394531 13.734375 C 19.941406 12.9375 19.023438 12.5 17.8125 12.5 Z M 17.808594 12.5 "/>
<path style=" stroke:none;fill-rule:nonzero;fill:rgb(74.509804%,11.764706%,17.647059%);fill-opacity:1;" d="M 16.257812 31.171875 L 16.257812 30.839844 C 16.257812 30.515625 15.996094 30.25 15.675781 30.25 L 15.347656 30.25 L 15.347656 26.859375 L 15.675781 26.859375 C 15.996094 26.859375 16.257812 26.597656 16.257812 26.273438 L 16.257812 25.941406 L 21.90625 25.941406 L 21.90625 26.273438 C 21.90625 26.597656 22.167969 26.859375 22.488281 26.859375 L 22.820312 26.859375 L 22.820312 30.25 L 22.488281 30.25 C 22.167969 30.25 21.90625 30.515625 21.90625 30.839844 L 21.90625 31.171875 Z M 16.257812 31.171875 "/>
<path style=" stroke:none;fill-rule:nonzero;fill:rgb(100%,100%,100%);fill-opacity:1;" d="M 21.574219 26.273438 C 21.574219 26.78125 21.984375 27.195312 22.488281 27.195312 L 22.488281 29.917969 C 21.984375 29.917969 21.574219 30.332031 21.574219 30.839844 L 16.589844 30.839844 C 16.589844 30.332031 16.179688 29.917969 15.675781 29.917969 L 15.675781 27.195312 C 16.179688 27.195312 16.589844 26.78125 16.589844 26.273438 L 21.574219 26.273438 M 22.234375 25.609375 L 15.929688 25.609375 L 15.929688 26.273438 C 15.929688 26.414062 15.816406 26.527344 15.675781 26.527344 L 15.015625 26.527344 L 15.015625 30.585938 L 15.675781 30.585938 C 15.816406 30.585938 15.929688 30.699219 15.929688 30.839844 L 15.929688 31.503906 L 22.234375 31.503906 L 22.234375 30.839844 C 22.234375 30.699219 22.347656 30.585938 22.488281 30.585938 L 23.148438 30.585938 L 23.148438 26.527344 L 22.488281 26.527344 C 22.347656 26.527344 22.234375 26.414062 22.234375 26.273438 Z M 22.234375 25.609375 "/>
<path style=" stroke:none;fill-rule:nonzero;fill:rgb(18.431373%,45.882353%,29.411765%);fill-opacity:1;" d="M 25.410156 7.925781 L 35.011719 5.378906 L 36.195312 9.921875 L 26.59375 12.46875 Z M 25.410156 7.925781 "/>
<path style=" stroke:none;fill-rule:nonzero;fill:rgb(100%,100%,100%);fill-opacity:1;" d="M 34.777344 5.785156 L 35.792969 9.679688 L 26.828125 12.0625 L 25.8125 8.164062 L 34.777344 5.785156 M 35.246094 4.96875 L 34.609375 5.140625 L 25.644531 7.519531 L 25.007812 7.6875 L 25.175781 8.332031 L 26.191406 12.230469 L 26.355469 12.875 L 26.996094 12.703125 L 35.960938 10.324219 L 36.597656 10.15625 L 36.429688 9.511719 L 35.414062 5.613281 Z M 35.246094 4.96875 "/>
<path style=" stroke:none;fill-rule:nonzero;fill:rgb(60%,33.72549%,15.686275%);fill-opacity:1;" d="M 5.925781 11.710938 L 8.539062 10.613281 C 8.789062 10.503906 9.082031 10.625 9.1875 10.878906 L 19.863281 36.683594 C 19.96875 36.9375 19.847656 37.230469 19.59375 37.339844 L 16.984375 38.4375 C 16.730469 38.542969 16.441406 38.425781 16.335938 38.167969 L 5.660156 12.363281 C 5.554688 12.109375 5.675781 11.816406 5.925781 11.710938 Z M 5.925781 11.710938 "/>
<use xlink:href="#surface5" mask="url(#mask0)"/>
<path style=" stroke:none;fill-rule:nonzero;fill:rgb(60%,33.72549%,15.686275%);fill-opacity:1;" d="M 14.152344 22.957031 L 10.679688 24.421875 L 11.722656 26.949219 C 11.816406 27.175781 11.996094 27.351562 12.21875 27.445312 L 13.621094 28.011719 C 14.105469 28.210938 14.65625 27.953125 14.816406 27.449219 L 15.238281 26.152344 C 15.304688 25.945312 15.296875 25.71875 15.210938 25.515625 Z M 14.152344 22.957031 "/>
<path style="fill:none;stroke-width:9;stroke-linecap:butt;stroke-linejoin:miter;stroke:rgb(91.764706%,53.72549%,27.843137%);stroke-opacity:1;stroke-miterlimit:10;" d="M 106.91394 210.011627 L 140.270253 210.012493 C 142.23712 210.032838 143.816519 211.626487 143.846969 213.596711 L 143.835982 246.958805 C 143.828201 248.913068 142.256923 250.526011 140.274239 250.543551 L 106.879695 250.526725 C 104.951058 250.52234 103.333429 248.912731 103.34121 246.958467 L 103.313966 213.580413 C 103.321747 211.626149 104.931256 210.029167 106.91394 210.011627 Z M 106.91394 210.011627 " transform="matrix(0.0870094,-0.0366567,0.0363255,0.0878028,-7.439098,6.221694)"/>
<path style="fill:none;stroke-width:9;stroke-linecap:round;stroke-linejoin:miter;stroke:rgb(91.764706%,53.72549%,27.843137%);stroke-opacity:1;stroke-miterlimit:10;" d="M 123.590706 230.275742 L 130.79936 249.201953 " transform="matrix(0.0942877,0,0,0.0951475,0.0266026,0)"/>
<path style=" stroke:none;fill-rule:nonzero;fill:rgb(60%,33.72549%,15.686275%);fill-opacity:1;" d="M 27.375 2.675781 L 29.984375 1.574219 C 30.238281 1.46875 30.527344 1.589844 30.632812 1.84375 L 41.308594 27.648438 C 41.414062 27.902344 41.292969 28.195312 41.042969 28.300781 L 38.429688 29.402344 C 38.179688 29.507812 37.890625 29.386719 37.785156 29.132812 L 27.109375 3.328125 C 27.003906 3.074219 27.121094 2.78125 27.375 2.675781 Z M 27.375 2.675781 "/>
<use xlink:href="#surface8" mask="url(#mask1)"/>
<path style=" stroke:none;fill-rule:nonzero;fill:rgb(60%,33.72549%,15.686275%);fill-opacity:1;" d="M 35.597656 13.921875 L 32.125 15.386719 L 33.171875 17.914062 C 33.265625 18.136719 33.441406 18.316406 33.667969 18.40625 L 35.066406 18.976562 C 35.550781 19.171875 36.101562 18.914062 36.265625 18.414062 L 36.683594 17.113281 C 36.75 16.90625 36.742188 16.683594 36.660156 16.480469 Z M 35.597656 13.921875 "/>
<path style="fill:none;stroke-width:9;stroke-linecap:butt;stroke-linejoin:miter;stroke:rgb(91.764706%,53.72549%,27.843137%);stroke-opacity:1;stroke-miterlimit:10;" d="M 334.391291 115.060992 L 367.747604 115.061858 C 369.714471 115.082203 371.309687 116.637966 371.32432 118.646076 L 371.313333 152.00817 C 371.305552 153.962433 369.696043 155.559415 367.75159 155.592917 L 334.357046 155.57609 C 332.390178 155.555745 330.81078 153.962096 330.818561 152.007833 L 330.791317 118.629778 C 330.799098 116.675515 332.408607 115.078533 334.391291 115.060992 Z M 334.391291 115.060992 " transform="matrix(0.0870094,-0.0366567,0.0363255,0.0878028,-2.333419,13.862036)"/>
<path style="fill:none;stroke-width:9;stroke-linecap:round;stroke-linejoin:miter;stroke:rgb(91.764706%,53.72549%,27.843137%);stroke-opacity:1;stroke-miterlimit:10;" d="M 351.03617 135.31625 L 358.286253 154.242461 " transform="matrix(0.0942877,0,0,0.0951475,0.0266026,0)"/>
</g>
</svg>
