<?xml version="1.0" encoding="UTF-8"?>
<svg xmlns="http://www.w3.org/2000/svg" xmlns:xlink="http://www.w3.org/1999/xlink" width="48px" height="px" viewBox="0 0 47 21" version="1.1">
<g id="surface1">
<path style="fill-rule:nonzero;fill:rgb(88.627451%,10.196078%,1.960784%);fill-opacity:1;stroke-width:28;stroke-linecap:round;stroke-linejoin:miter;stroke:rgb(0%,0%,0%);stroke-opacity:1;stroke-miterlimit:10;" d="M 275.953204 192.109359 L 829.331549 13.987445 " transform="matrix(0.0557301,0,0,0.056887,0,0.0128907)"/>
<path style=" stroke:none;fill-rule:nonzero;fill:rgb(88.627451%,10.196078%,1.960784%);fill-opacity:1;" d="M 7.082031 7.152344 C 6.964844 7.203125 6.867188 7.246094 6.792969 7.273438 C 6.105469 7.535156 2.613281 8.945312 1.820312 9.285156 L 2.292969 10.4375 C 3.054688 10.113281 6.5625 8.695312 7.222656 8.445312 C 7.320312 8.40625 7.429688 8.359375 7.558594 8.304688 C 8.394531 7.941406 9.953125 7.269531 11.175781 8.03125 C 11.734375 8.378906 12.042969 9.078125 12.261719 9.792969 C 12.492188 10.558594 12.082031 11.371094 11.335938 11.613281 L 3.425781 14.214844 L 3.804688 15.402344 L 11.722656 12.800781 C 12.464844 12.558594 13.257812 12.96875 13.511719 13.71875 C 13.765625 14.472656 13.933594 15.265625 13.664062 15.917969 C 13.105469 17.265625 11.457031 17.648438 10.570312 17.851562 C 10.433594 17.882812 10.316406 17.910156 10.21875 17.9375 C 9.535156 18.125 5.875 19.0625 5.070312 19.253906 L 5.347656 20.472656 C 6.1875 20.273438 9.828125 19.339844 10.539062 19.144531 C 10.613281 19.125 10.71875 19.097656 10.839844 19.070312 C 11.863281 18.835938 13.992188 18.347656 14.792969 16.40625 C 15.089844 15.683594 15.140625 14.882812 15.0625 14.109375 C 15.050781 13.996094 14.917969 13.277344 14.796875 12.714844 C 14.710938 12.320312 14.933594 11.925781 15.308594 11.800781 L 16.304688 11.472656 L 15.828125 9.960938 C 15.828125 9.960938 15.300781 10.132812 14.832031 10.285156 C 14.457031 10.410156 14.050781 10.222656 13.898438 9.851562 C 13.742188 9.480469 13.554688 9.078125 13.53125 9.027344 C 13.128906 8.222656 12.582031 7.441406 11.8125 6.960938 C 10.054688 5.863281 8.046875 6.734375 7.082031 7.152344 Z M 7.082031 7.152344 "/>
<path style=" stroke:none;fill-rule:nonzero;fill:rgb(88.627451%,10.196078%,1.960784%);fill-opacity:1;" d="M 1.664062 15.636719 L 3.644531 15.957031 C 3.765625 15.976562 3.875 15.875 3.871094 15.75 C 3.855469 15.515625 3.816406 15.144531 3.703125 14.78125 C 3.589844 14.417969 3.40625 14.09375 3.285156 13.894531 C 3.21875 13.785156 3.070312 13.769531 2.984375 13.859375 L 1.558594 15.296875 C 1.445312 15.414062 1.507812 15.609375 1.664062 15.636719 Z M 1.664062 15.636719 "/>
<path style=" stroke:none;fill-rule:nonzero;fill:rgb(88.627451%,10.196078%,1.960784%);fill-opacity:1;" d="M 0.179688 10.871094 L 2.179688 11.023438 C 2.300781 11.03125 2.402344 10.921875 2.386719 10.796875 C 2.355469 10.566406 2.285156 10.199219 2.140625 9.847656 C 2 9.496094 1.792969 9.183594 1.65625 8.996094 C 1.578125 8.894531 1.433594 8.890625 1.351562 8.988281 L 0.046875 10.539062 C -0.0585938 10.664062 0.0195312 10.855469 0.179688 10.871094 Z M 0.179688 10.871094 "/>
<path style=" stroke:none;fill-rule:nonzero;fill:rgb(88.627451%,10.196078%,1.960784%);fill-opacity:1;" d="M 3.109375 20.152344 L 4.644531 18.835938 C 4.738281 18.753906 4.882812 18.785156 4.941406 18.894531 C 5.046875 19.105469 5.203125 19.441406 5.285156 19.8125 C 5.371094 20.183594 5.378906 20.558594 5.375 20.792969 C 5.371094 20.921875 5.253906 21.011719 5.132812 20.980469 L 3.1875 20.496094 C 3.03125 20.460938 2.984375 20.257812 3.109375 20.152344 Z M 3.109375 20.152344 "/>
</g>
</svg>
