<?xml version="1.0" encoding="UTF-8"?>
<svg xmlns="http://www.w3.org/2000/svg" xmlns:xlink="http://www.w3.org/1999/xlink" width="48px" height="px" viewBox="0 0 47 39" version="1.1">
<defs>
<filter id="alpha" filterUnits="objectBoundingBox" x="0%" y="0%" width="100%" height="100%">
  <feColorMatrix type="matrix" in="SourceGraphic" values="0 0 0 0 1 0 0 0 0 1 0 0 0 0 1 0 0 0 1 0"/>
</filter>
<mask id="mask0">
  <g filter="url(#alpha)">
<rect x="0" y="0" width="47" height="39" style="fill:rgb(0%,0%,0%);fill-opacity:0.301961;stroke:none;"/>
  </g>
</mask>
<clipPath id="clip1">
  <rect x="0" y="0" width="47" height="39"/>
</clipPath>
<g id="surface5" clip-path="url(#clip1)">
<path style=" stroke:none;fill-rule:nonzero;fill:rgb(90.196078%,90.588235%,90.980392%);fill-opacity:1;" d="M 7.15625 35.433594 C 6.460938 35.445312 5.765625 35.375 5.085938 35.222656 C 4.875 35.175781 4.746094 35.449219 4.914062 35.585938 C 9.996094 39.839844 17.46875 40.238281 23.03125 36.109375 C 28.28125 32.214844 30.238281 25.460938 28.339844 19.519531 C 28.273438 19.324219 27.996094 19.332031 27.945312 19.535156 C 27.761719 20.257812 27.488281 20.960938 27.128906 21.621094 C 29.023438 33.421875 16.5 40.957031 7.15625 35.433594 Z M 7.15625 35.433594 "/>
</g>
<mask id="mask1">
  <g filter="url(#alpha)">
<rect x="0" y="0" width="47" height="39" style="fill:rgb(0%,0%,0%);fill-opacity:0.301961;stroke:none;"/>
  </g>
</mask>
<clipPath id="clip2">
  <rect x="0" y="0" width="47" height="39"/>
</clipPath>
<g id="surface8" clip-path="url(#clip2)">
<path style=" stroke:none;fill-rule:nonzero;fill:rgb(90.196078%,90.588235%,90.980392%);fill-opacity:1;" d="M 1.921875 28.226562 C 1.703125 28.894531 1.5625 29.585938 1.503906 30.285156 C 1.484375 30.503906 1.1875 30.546875 1.109375 30.34375 C -1.382812 24.167969 0.480469 16.84375 6.042969 12.71875 C 11.292969 8.820312 18.253906 8.957031 23.292969 12.570312 C 23.460938 12.6875 23.367188 12.957031 23.160156 12.945312 C 22.421875 12.90625 21.679688 12.957031 20.945312 13.105469 C 10.375 7.742188 -0.492188 17.5625 1.921875 28.226562 Z M 1.921875 28.226562 "/>
</g>
</defs>
<g id="surface1">
<path style=" stroke:none;fill-rule:nonzero;fill:rgb(24.705882%,15.686275%,5.882353%);fill-opacity:1;" d="M 44.320312 0.445312 L 46.0625 2.84375 L 10.140625 29.519531 C 9.144531 29.132812 8.464844 28.199219 8.398438 27.121094 C 8.398438 27.121094 44.320312 0.445312 44.320312 0.445312 Z M 44.320312 0.445312 "/>
<path style=" stroke:none;fill-rule:nonzero;fill:rgb(65.882353%,65.882353%,65.882353%);fill-opacity:1;" d="M 1.105469 30.34375 C 1.1875 30.546875 1.484375 30.503906 1.503906 30.285156 C 1.714844 27.804688 2.945312 25.425781 5.085938 23.835938 C 5.09375 23.828125 5.101562 23.824219 5.109375 23.820312 C 6.238281 22.984375 7.832031 23.25 8.660156 24.390625 L 12.792969 30.085938 C 13.625 31.226562 13.398438 32.839844 12.273438 33.683594 C 12.265625 33.6875 12.257812 33.691406 12.25 33.699219 C 10.109375 35.289062 7.492188 35.761719 5.085938 35.222656 C 4.875 35.175781 4.746094 35.449219 4.914062 35.585938 C 9.996094 39.839844 17.46875 40.238281 23.03125 36.109375 C 28.28125 32.214844 30.238281 25.460938 28.339844 19.519531 C 28.273438 19.324219 27.996094 19.332031 27.945312 19.535156 C 27.453125 21.472656 26.320312 23.257812 24.601562 24.53125 C 24.113281 24.894531 23.597656 25.199219 23.066406 25.449219 C 21.972656 25.960938 20.671875 25.601562 19.960938 24.621094 L 15.96875 19.121094 C 15.253906 18.140625 15.304688 16.777344 16.117188 15.875 C 16.507812 15.4375 16.949219 15.035156 17.441406 14.667969 C 19.160156 13.394531 21.183594 12.835938 23.160156 12.945312 C 23.363281 12.957031 23.457031 12.691406 23.289062 12.570312 C 18.25 8.960938 11.292969 8.820312 6.039062 12.71875 C 0.480469 16.84375 -1.382812 24.167969 1.105469 30.34375 Z M 1.105469 30.34375 "/>
<use xlink:href="#surface5" mask="url(#mask0)"/>
<use xlink:href="#surface8" mask="url(#mask1)"/>
<path style=" stroke:none;fill-rule:nonzero;fill:rgb(50.196078%,50.980392%,52.156863%);fill-opacity:1;" d="M 13.113281 26.019531 C 13.113281 26.429688 12.78125 26.765625 12.375 26.765625 C 11.964844 26.765625 11.632812 26.429688 11.632812 26.019531 C 11.632812 25.605469 11.964844 25.269531 12.375 25.269531 C 12.78125 25.269531 13.113281 25.605469 13.113281 26.019531 Z M 13.113281 26.019531 "/>
<path style=" stroke:none;fill-rule:nonzero;fill:rgb(50.196078%,50.980392%,52.156863%);fill-opacity:1;" d="M 17.085938 23.070312 C 17.085938 23.484375 16.753906 23.820312 16.34375 23.820312 C 15.933594 23.820312 15.601562 23.484375 15.601562 23.070312 C 15.601562 22.660156 15.933594 22.324219 16.34375 22.324219 C 16.753906 22.324219 17.085938 22.660156 17.085938 23.070312 Z M 17.085938 23.070312 "/>
<path style=" stroke:none;fill-rule:nonzero;fill:rgb(24.705882%,15.686275%,5.882353%);fill-opacity:1;" d="M 45.804688 1.1875 C 45.042969 0.136719 43.863281 -0.296875 43.167969 0.21875 C 42.476562 0.730469 42.53125 2 43.296875 3.050781 C 44.058594 4.101562 45.238281 4.539062 45.933594 4.023438 C 46.625 3.507812 46.570312 2.238281 45.804688 1.1875 Z M 45.804688 1.1875 "/>
<path style=" stroke:none;fill-rule:nonzero;fill:rgb(24.705882%,15.686275%,5.882353%);fill-opacity:1;" d="M 45.371094 3.355469 C 45.371094 3.355469 46.335938 2.46875 46.957031 0.71875 C 47.042969 0.472656 46.859375 0.214844 46.601562 0.226562 C 44.703125 0.335938 43.628906 0.957031 43.628906 0.957031 Z M 45.371094 3.355469 "/>
</g>
</svg>
