<?xml version="1.0" encoding="UTF-8"?>
<svg xmlns="http://www.w3.org/2000/svg" xmlns:xlink="http://www.w3.org/1999/xlink" width="48px" height="px" viewBox="0 0 48 27" version="1.1">
<g id="surface1">
<path style=" stroke:none;fill-rule:nonzero;fill:rgb(7.843137%,81.960784%,87.45098%);fill-opacity:1;" d="M 0.464844 22.71875 C -0.0351562 21.417969 -0.160156 19.988281 0.230469 18.710938 C 0.691406 17.195312 1.75 15.914062 3.007812 14.992188 C 3.335938 14.753906 3.679688 14.535156 4.035156 14.339844 C 6.058594 13.238281 8.351562 12.769531 10.582031 12.199219 C 19.265625 9.984375 27.4375 6.128906 35.523438 2.253906 C 37.667969 1.226562 40.359375 -0.304688 42.792969 0.0703125 C 43.835938 0.234375 44.867188 0.574219 45.730469 1.199219 C 48.496094 3.1875 48.628906 7.175781 46.6875 9.761719 C 45.199219 11.738281 42.203125 12.519531 39.957031 13.285156 C 31.46875 16.164062 22.9375 19.121094 15.167969 23.613281 C 13.171875 24.765625 11.199219 26.03125 8.984375 26.660156 C 7.425781 27.101562 5.710938 27.121094 4.175781 26.582031 C 2.492188 25.992188 1.136719 24.476562 0.464844 22.71875 Z M 0.464844 22.71875 "/>
<path style=" stroke:none;fill-rule:nonzero;fill:rgb(28.627451%,29.803922%,40.392157%);fill-opacity:1;" d="M 16.515625 13.441406 L 18.503906 18.394531 C 18.933594 19.453125 18.421875 20.664062 17.367188 21.09375 L 15.980469 21.660156 C 14.925781 22.089844 13.722656 21.578125 13.296875 20.515625 L 11.308594 15.566406 C 10.839844 14.398438 11.402344 13.070312 12.558594 12.597656 L 13.570312 12.183594 C 14.730469 11.710938 16.050781 12.277344 16.515625 13.441406 Z M 16.515625 13.441406 "/>
<path style=" stroke:none;fill-rule:nonzero;fill:rgb(7.45098%,9.019608%,21.176471%);fill-opacity:1;" d="M 16.523438 13.757812 L 18.433594 18.511719 C 18.84375 19.53125 18.351562 20.695312 17.34375 21.105469 L 16.007812 21.652344 C 14.996094 22.0625 13.84375 21.570312 13.433594 20.550781 L 11.523438 15.796875 C 11.074219 14.675781 11.613281 13.402344 12.722656 12.949219 L 13.695312 12.550781 C 14.808594 12.097656 16.074219 12.640625 16.523438 13.757812 Z M 16.523438 13.757812 "/>
<path style=" stroke:none;fill-rule:nonzero;fill:rgb(28.627451%,29.803922%,40.392157%);fill-opacity:1;" d="M 11.597656 17.28125 L 11.902344 16.503906 C 11.980469 16.308594 12.191406 16.199219 12.394531 16.253906 C 13.105469 16.449219 13.875 16.398438 14.554688 16.113281 C 15.234375 15.824219 15.808594 15.300781 16.167969 14.652344 C 16.269531 14.46875 16.492188 14.390625 16.6875 14.472656 L 17.453125 14.796875 C 17.675781 14.890625 17.769531 15.160156 17.65625 15.378906 C 17.121094 16.386719 16.246094 17.199219 15.195312 17.644531 C 14.148438 18.089844 12.957031 18.15625 11.867188 17.835938 C 11.636719 17.765625 11.507812 17.511719 11.597656 17.28125 Z M 11.597656 17.28125 "/>
<path style=" stroke:none;fill-rule:nonzero;fill:rgb(28.627451%,29.803922%,40.392157%);fill-opacity:1;" d="M 18.796875 18.460938 C 16.804688 18.921875 14.875 19.691406 13.105469 20.730469 "/>
<path style=" stroke:none;fill-rule:nonzero;fill:rgb(28.627451%,29.803922%,40.392157%);fill-opacity:1;" d="M 12.945312 19.53125 C 14.570312 18.625 16.300781 17.9375 18.101562 17.476562 C 18.34375 17.414062 18.59375 17.566406 18.648438 17.816406 L 18.945312 19.113281 C 19 19.355469 18.855469 19.59375 18.617188 19.65625 C 17.023438 20.0625 15.488281 20.675781 14.046875 21.476562 C 13.835938 21.597656 13.566406 21.523438 13.441406 21.308594 L 12.777344 20.160156 C 12.648438 19.9375 12.726562 19.65625 12.949219 19.53125 Z M 12.945312 19.53125 "/>
<path style=" stroke:none;fill-rule:nonzero;fill:rgb(28.627451%,29.803922%,40.392157%);fill-opacity:1;" d="M 34.988281 5.914062 L 36.976562 10.863281 C 37.402344 11.925781 36.890625 13.136719 35.839844 13.566406 L 34.449219 14.132812 C 33.394531 14.5625 32.195312 14.050781 31.765625 12.988281 L 29.777344 8.035156 C 29.3125 6.871094 29.871094 5.539062 31.027344 5.066406 L 32.042969 4.65625 C 33.199219 4.183594 34.519531 4.746094 34.988281 5.914062 Z M 34.988281 5.914062 "/>
<path style=" stroke:none;fill-rule:nonzero;fill:rgb(7.45098%,9.019608%,21.176471%);fill-opacity:1;" d="M 34.992188 6.230469 L 36.902344 10.984375 C 37.3125 12.003906 36.820312 13.164062 35.8125 13.578125 L 34.476562 14.121094 C 33.464844 14.535156 32.3125 14.039062 31.902344 13.019531 L 29.992188 8.265625 C 29.542969 7.148438 30.082031 5.871094 31.191406 5.417969 L 32.164062 5.019531 C 33.277344 4.566406 34.542969 5.109375 34.992188 6.230469 Z M 34.992188 6.230469 "/>
<path style=" stroke:none;fill-rule:nonzero;fill:rgb(28.627451%,29.803922%,40.392157%);fill-opacity:1;" d="M 30.066406 9.753906 L 30.371094 8.976562 C 30.449219 8.777344 30.660156 8.671875 30.863281 8.726562 C 31.574219 8.921875 32.34375 8.871094 33.023438 8.582031 C 33.707031 8.292969 34.277344 7.773438 34.636719 7.125 C 34.738281 6.941406 34.960938 6.863281 35.15625 6.945312 L 35.921875 7.269531 C 36.144531 7.363281 36.238281 7.632812 36.125 7.847656 C 35.589844 8.855469 34.714844 9.671875 33.664062 10.117188 C 32.617188 10.5625 31.425781 10.625 30.335938 10.304688 C 30.105469 10.238281 29.976562 9.980469 30.066406 9.753906 Z M 30.066406 9.753906 "/>
<path style=" stroke:none;fill-rule:nonzero;fill:rgb(28.627451%,29.803922%,40.392157%);fill-opacity:1;" d="M 37.265625 10.929688 C 35.273438 11.394531 33.34375 12.164062 31.574219 13.199219 "/>
<path style=" stroke:none;fill-rule:nonzero;fill:rgb(28.627451%,29.803922%,40.392157%);fill-opacity:1;" d="M 31.414062 12.003906 C 33.039062 11.097656 34.769531 10.40625 36.570312 9.949219 C 36.8125 9.886719 37.0625 10.039062 37.117188 10.285156 L 37.414062 11.585938 C 37.46875 11.824219 37.324219 12.066406 37.085938 12.125 C 35.492188 12.535156 33.957031 13.148438 32.515625 13.949219 C 32.304688 14.070312 32.035156 13.996094 31.910156 13.78125 L 31.246094 12.628906 C 31.117188 12.410156 31.195312 12.128906 31.417969 12.003906 Z M 31.414062 12.003906 "/>
</g>
</svg>
