<?xml version="1.0" encoding="UTF-8"?>
<svg xmlns="http://www.w3.org/2000/svg" xmlns:xlink="http://www.w3.org/1999/xlink" width="48px" height="px" viewBox="0 0 48 56" version="1.1">
<defs>
<filter id="alpha" filterUnits="objectBoundingBox" x="0%" y="0%" width="100%" height="100%">
  <feColorMatrix type="matrix" in="SourceGraphic" values="0 0 0 0 1 0 0 0 0 1 0 0 0 0 1 0 0 0 1 0"/>
</filter>
<mask id="mask0">
  <g filter="url(#alpha)">
<rect x="0" y="0" width="48" height="56" style="fill:rgb(0%,0%,0%);fill-opacity:0.0784314;stroke:none;"/>
  </g>
</mask>
<clipPath id="clip1">
  <rect x="0" y="0" width="49" height="56"/>
</clipPath>
<g id="surface5" clip-path="url(#clip1)">
<path style=" stroke:none;fill-rule:nonzero;fill:rgb(0%,0%,0%);fill-opacity:1;" d="M 27.4375 2.636719 C 26.921875 1.835938 26.3125 1.125 25.59375 0.820312 C 25.261719 0.679688 24.871094 0.621094 24.53125 0.636719 C 24.507812 0.726562 24.550781 0.773438 24.621094 0.832031 C 25.660156 1.664062 26.21875 2.96875 26.390625 4.277344 C 26.558594 5.585938 26.386719 6.910156 26.1875 8.214844 C 26.085938 8.886719 26.296875 9.078125 26.789062 9.449219 C 26.886719 9.523438 26.996094 9.601562 27.121094 9.589844 C 27.605469 9.546875 27.75 8.78125 27.898438 8.441406 C 28.203125 7.742188 28.613281 7.09375 28.894531 6.378906 C 28.960938 6.214844 29.019531 6.042969 29.023438 5.867188 C 29.03125 5.609375 28.910156 5.363281 28.785156 5.132812 C 28.433594 4.460938 27.988281 3.496094 27.4375 2.636719 Z M 27.4375 2.636719 "/>
</g>
<mask id="mask1">
  <g filter="url(#alpha)">
<rect x="0" y="0" width="48" height="56" style="fill:rgb(0%,0%,0%);fill-opacity:0.0784314;stroke:none;"/>
  </g>
</mask>
<clipPath id="clip2">
  <rect x="0" y="0" width="49" height="56"/>
</clipPath>
<g id="surface8" clip-path="url(#clip2)">
<path style=" stroke:none;fill-rule:nonzero;fill:rgb(0%,0%,0%);fill-opacity:1;" d="M 44.0625 14.464844 C 45.402344 14.351562 46.710938 13.8125 47.695312 12.902344 C 47.761719 12.839844 47.964844 13.320312 47.980469 13.382812 C 48.050781 13.691406 47.925781 14.074219 47.777344 14.347656 C 47.136719 15.550781 45.398438 16.40625 44.082031 16.582031 C 42.628906 16.773438 41.152344 16.429688 39.765625 15.964844 C 39.273438 15.796875 38.726562 15.554688 38.585938 15.0625 C 38.410156 14.4375 38.773438 13.9375 39.398438 13.8125 C 40.183594 13.652344 40.953125 13.976562 41.695312 14.195312 C 42.453125 14.414062 43.273438 14.535156 44.0625 14.464844 Z M 44.0625 14.464844 "/>
</g>
<mask id="mask2">
  <g filter="url(#alpha)">
<rect x="0" y="0" width="48" height="56" style="fill:rgb(0%,0%,0%);fill-opacity:0.0784314;stroke:none;"/>
  </g>
</mask>
<clipPath id="clip3">
  <rect x="0" y="0" width="49" height="56"/>
</clipPath>
<g id="surface11" clip-path="url(#clip3)">
<path style=" stroke:none;fill-rule:nonzero;fill:rgb(0%,0%,0%);fill-opacity:1;" d="M 34.445312 40.390625 C 34.726562 39.199219 34.375 37.941406 33.847656 36.835938 C 33.300781 35.679688 32.875 34.445312 32.769531 33.167969 C 32.652344 31.742188 33.054688 30.621094 33.574219 29.332031 C 34.570312 26.847656 34.960938 24.179688 35.121094 21.527344 C 35.199219 20.183594 35.4375 18.839844 35.367188 17.488281 C 35.332031 16.882812 35.265625 16.265625 35.0625 15.6875 C 34.925781 15.285156 34.421875 14.738281 34.582031 14.304688 C 34.664062 14.070312 34.882812 13.914062 35.078125 13.757812 C 36.199219 12.890625 37.179688 11.671875 37.84375 10.429688 C 38.597656 9.015625 38.90625 7.425781 39.054688 5.847656 C 39.179688 4.578125 38.910156 2.929688 39.488281 1.726562 C 40.25 2.683594 40.523438 3.511719 40.671875 4.148438 C 41.132812 6.132812 40.726562 8.203125 40.246094 10.183594 C 39.769531 12.164062 39.214844 14.171875 39.386719 16.199219 C 39.496094 17.472656 39.886719 18.703125 40.179688 19.949219 C 41.1875 24.230469 41.050781 28.765625 39.78125 32.976562 C 39.328125 34.492188 38.734375 35.96875 38.339844 37.5 C 38.144531 38.265625 37.996094 39.042969 37.949219 39.832031 C 37.917969 40.347656 38.332031 41.734375 37.382812 41.542969 C 37.417969 42.015625 37.449219 42.484375 37.484375 42.957031 C 37.5 43.1875 37.527344 43.425781 37.539062 43.660156 C 37.550781 43.90625 37.5625 44.136719 37.558594 44.386719 C 37.554688 44.558594 37.535156 44.769531 37.59375 44.929688 C 37.652344 45.089844 37.691406 45.285156 37.792969 45.433594 C 38.003906 45.761719 38.546875 46.085938 38.953125 46.46875 C 39.3125 46.8125 40.015625 47.402344 40.382812 47.808594 C 40.683594 48.136719 40.945312 48.363281 41.246094 48.703125 C 41.582031 49.085938 42.179688 49.742188 42.375 50.019531 C 42.472656 50.160156 42.632812 50.378906 42.707031 50.535156 C 42.777344 50.679688 42.875 50.839844 42.917969 50.996094 C 42.988281 51.242188 43.066406 51.488281 43.054688 51.824219 C 43.03125 52.359375 42.660156 53.101562 41.855469 53.707031 C 41.671875 53.84375 41.445312 54.035156 41.257812 54.164062 C 40.398438 54.761719 39.550781 55.257812 38.640625 55.53125 C 39.082031 55.398438 39.566406 55.011719 39.945312 54.75 C 40.351562 54.476562 40.734375 54.171875 41.074219 53.824219 C 41.414062 53.476562 41.839844 53.027344 42.054688 52.597656 C 42.230469 52.246094 42.429688 51.773438 42.195312 51.421875 C 41.984375 51.101562 41.648438 50.835938 41.292969 50.6875 C 40.757812 50.464844 40.207031 50.480469 39.648438 50.40625 C 38.832031 50.292969 38.398438 49.648438 38.015625 49.003906 C 37.558594 48.234375 36.964844 47.558594 36.332031 46.921875 C 35.613281 46.203125 34.714844 45.425781 34.664062 44.367188 C 34.609375 43.089844 34.546875 41.800781 34.453125 40.519531 C 34.453125 40.476562 34.449219 40.433594 34.445312 40.390625 Z M 34.445312 40.390625 "/>
</g>
<mask id="mask3">
  <g filter="url(#alpha)">
<rect x="0" y="0" width="48" height="56" style="fill:rgb(0%,0%,0%);fill-opacity:0.0784314;stroke:none;"/>
  </g>
</mask>
<clipPath id="clip4">
  <rect x="0" y="0" width="49" height="56"/>
</clipPath>
<g id="surface14" clip-path="url(#clip4)">
<path style=" stroke:none;fill-rule:nonzero;fill:rgb(0%,0%,0%);fill-opacity:1;" d="M 33.511719 14.261719 C 33.496094 14.699219 32.976562 15.164062 32.746094 15.460938 C 31.402344 17.183594 25.261719 25.726562 22.988281 27.695312 C 22.722656 27.921875 22.53125 28.109375 22.082031 28.113281 C 22.125 28.113281 22.390625 27.628906 22.425781 27.578125 C 22.628906 27.296875 22.851562 27.03125 23.058594 26.757812 C 24.210938 25.246094 25.328125 23.710938 26.410156 22.148438 C 27.402344 20.726562 28.046875 19.78125 29.207031 17.710938 C 29.957031 16.378906 31.179688 13.992188 31.984375 12.660156 C 31.984375 12.660156 33.257812 13.476562 33.488281 14.082031 C 33.507812 14.140625 33.515625 14.203125 33.511719 14.261719 Z M 33.511719 14.261719 "/>
</g>
<mask id="mask4">
  <g filter="url(#alpha)">
<rect x="0" y="0" width="48" height="56" style="fill:rgb(0%,0%,0%);fill-opacity:0.0784314;stroke:none;"/>
  </g>
</mask>
<clipPath id="clip5">
  <rect x="0" y="0" width="49" height="56"/>
</clipPath>
<g id="surface17" clip-path="url(#clip5)">
<path style=" stroke:none;fill-rule:nonzero;fill:rgb(0%,0%,0%);fill-opacity:1;" d="M 15.25 30.351562 C 15.21875 30.246094 15.191406 30.132812 15.117188 30.050781 C 14.894531 29.796875 14.46875 29.96875 14.210938 30.183594 C 13.359375 30.898438 12.859375 31.960938 11.992188 32.65625 C 11.625 32.953125 11.199219 33.175781 10.839844 33.480469 C 10.550781 33.722656 10.304688 34.015625 10.066406 34.308594 C 9.738281 34.703125 9.414062 35.097656 9.085938 35.492188 C 8.863281 35.761719 8.636719 36.035156 8.492188 36.355469 C 8.304688 36.769531 6.941406 40.40625 6.824219 40.871094 C 6.726562 41.273438 6.628906 41.582031 6.824219 41.984375 C 6.988281 42.320312 7.265625 42.585938 7.535156 42.84375 C 7.902344 43.195312 8.175781 43.617188 8.726562 43.558594 C 9.183594 43.511719 9.652344 43.390625 10.027344 43.121094 C 10.5 42.785156 10.761719 42.25 10.816406 41.691406 C 10.871094 41.140625 10.863281 40.585938 10.816406 40.035156 C 10.773438 39.464844 10.6875 38.902344 10.566406 38.34375 C 10.492188 37.992188 10.402344 37.644531 10.332031 37.292969 C 10.265625 36.976562 10.140625 36.578125 10.222656 36.253906 C 10.304688 35.933594 10.542969 35.734375 10.75 35.496094 C 10.980469 35.234375 11.230469 34.984375 11.480469 34.738281 C 11.980469 34.253906 12.429688 33.738281 12.917969 33.222656 C 13.03125 33.257812 13.054688 33.320312 13.253906 33.3125 C 13.371094 33.308594 13.46875 33.246094 13.613281 33.132812 C 13.851562 32.945312 14.402344 32.589844 14.765625 32.257812 C 15.035156 32.019531 15.453125 31.636719 15.519531 31.386719 C 15.597656 31.109375 15.316406 30.628906 15.246094 30.351562 Z M 15.25 30.351562 "/>
</g>
</defs>
<g id="surface1">
<path style=" stroke:none;fill-rule:nonzero;fill:rgb(84.705882%,58.823529%,39.215686%);fill-opacity:1;" d="M 27.4375 2.636719 C 26.921875 1.835938 26.3125 1.125 25.59375 0.820312 C 23.871094 0.0898438 23.363281 1.890625 23.296875 3.21875 C 23.242188 4.375 23.28125 5.609375 23.78125 6.679688 C 24.367188 7.933594 25.71875 8.644531 26.789062 9.453125 C 26.886719 9.527344 26.996094 9.601562 27.121094 9.59375 C 27.605469 9.546875 27.75 8.785156 27.898438 8.445312 C 28.203125 7.742188 28.613281 7.097656 28.894531 6.378906 C 28.960938 6.214844 29.019531 6.046875 29.023438 5.871094 C 29.03125 5.609375 28.910156 5.367188 28.785156 5.136719 C 28.433594 4.460938 27.988281 3.496094 27.4375 2.636719 Z M 27.4375 2.636719 "/>
<use xlink:href="#surface5" mask="url(#mask0)"/>
<path style=" stroke:none;fill-rule:nonzero;fill:rgb(84.705882%,58.823529%,39.215686%);fill-opacity:1;" d="M 43.789062 11.253906 C 44.886719 11.476562 45.941406 11.921875 46.964844 12.359375 C 47.265625 12.484375 47.578125 12.625 47.777344 12.875 C 48.097656 13.285156 48.023438 13.886719 47.78125 14.347656 C 47.136719 15.550781 45.398438 16.40625 44.082031 16.582031 C 42.628906 16.773438 41.15625 16.429688 39.765625 15.964844 C 39.277344 15.796875 38.726562 15.554688 38.589844 15.0625 C 38.519531 14.816406 38.570312 14.554688 38.621094 14.300781 C 38.886719 13.023438 38.988281 12.207031 40.246094 11.578125 C 41.324219 11.035156 42.625 11.023438 43.785156 11.253906 Z M 43.789062 11.253906 "/>
<path style=" stroke:none;fill-rule:nonzero;fill:rgb(98.039216%,75.294118%,27.058824%);fill-opacity:1;" d="M 10.578125 38.273438 C 10.730469 39.070312 10.816406 39.878906 10.851562 40.6875 C 10.882812 41.363281 10.886719 42.113281 10.472656 42.6875 C 10.039062 43.289062 9.183594 43.546875 8.46875 43.613281 C 6.679688 43.78125 4.925781 43.480469 3.296875 42.761719 C 2.996094 42.628906 2.691406 42.496094 2.4375 42.292969 C 1.929688 41.882812 1.558594 41.199219 1.191406 40.675781 C 0.714844 39.992188 0.324219 39.191406 0.0859375 38.386719 C 0.0390625 38.234375 -0.00390625 38.074219 0 37.910156 C 0 37.75 0.046875 37.59375 0.105469 37.445312 C 0.703125 35.957031 2.574219 35.429688 3.988281 35.039062 C 4.894531 34.792969 5.742188 34.585938 6.472656 33.957031 C 6.753906 33.714844 10.925781 28.921875 11.53125 28.28125 C 11.53125 28.28125 14.691406 31.339844 14.691406 31.339844 C 14.691406 31.339844 13.050781 33.082031 12.953125 33.183594 C 12.410156 33.761719 11.867188 34.335938 11.320312 34.914062 C 10.953125 35.308594 10.355469 35.785156 10.199219 36.3125 C 10.109375 36.609375 10.25 36.914062 10.328125 37.199219 C 10.425781 37.550781 10.507812 37.910156 10.578125 38.269531 Z M 10.578125 38.273438 "/>
<path style=" stroke:none;fill-rule:nonzero;fill:rgb(98.039216%,75.294118%,27.058824%);fill-opacity:1;" d="M 39.570312 47.027344 C 40.398438 47.792969 41.179688 48.605469 41.917969 49.453125 C 42.550781 50.1875 43.1875 51.074219 43.03125 52.027344 C 42.894531 52.839844 42.210938 53.445312 41.546875 53.949219 C 39.453125 55.546875 36.878906 56.421875 34.261719 55.726562 C 33.058594 55.40625 31.949219 55.015625 30.917969 54.296875 C 30.597656 54.070312 30.28125 53.816406 30.097656 53.46875 C 29.910156 53.109375 29.882812 52.691406 29.898438 52.285156 C 29.953125 51.074219 30.375 49.902344 30.980469 48.847656 C 31.0625 48.707031 31.148438 48.5625 31.238281 48.421875 C 31.558594 47.925781 31.914062 47.453125 32.296875 46.996094 C 32.589844 46.644531 33.050781 46.3125 33.046875 45.832031 C 33.03125 44.832031 32.878906 43.804688 32.808594 42.804688 C 32.722656 41.554688 32.632812 40.304688 32.542969 39.054688 C 32.542969 39.054688 37.183594 38.734375 37.183594 38.734375 C 37.246094 39.621094 37.3125 40.507812 37.375 41.398438 C 37.429688 42.207031 37.488281 43.015625 37.546875 43.824219 C 37.597656 44.570312 37.445312 45.246094 38.082031 45.75 C 38.59375 46.160156 39.089844 46.585938 39.570312 47.027344 Z M 39.570312 47.027344 "/>
<use xlink:href="#surface8" mask="url(#mask1)"/>
<path style=" stroke:none;fill-rule:nonzero;fill:rgb(84.705882%,58.823529%,39.215686%);fill-opacity:1;" d="M 13.9375 21.847656 C 14.78125 20.585938 15.683594 19.363281 16.636719 18.1875 C 19.0625 15.195312 22.375 11.515625 25.722656 9.5 C 26.160156 9.234375 26.621094 8.980469 26.933594 8.582031 C 27.199219 8.242188 27.335938 7.828125 27.488281 7.425781 C 28.515625 4.71875 30.539062 2.386719 33.097656 0.964844 C 34.167969 0.371094 35.386719 -0.078125 36.609375 0.0585938 C 38.660156 0.292969 40.210938 2.167969 40.671875 4.148438 C 41.132812 6.132812 40.722656 8.207031 40.246094 10.183594 C 39.769531 12.164062 39.214844 14.175781 39.386719 16.203125 C 39.492188 17.476562 39.882812 18.707031 40.175781 19.949219 C 41.1875 24.230469 41.050781 28.765625 39.78125 32.980469 C 39.324219 34.496094 38.734375 35.96875 38.339844 37.503906 C 38.144531 38.265625 37.996094 39.046875 37.949219 39.832031 C 37.917969 40.347656 38.34375 41.761719 37.339844 41.539062 C 37.472656 40.746094 35.753906 40.464844 35.238281 40.429688 C 34.257812 40.355469 33.179688 40.734375 32.71875 41.585938 C 32.070312 41.476562 31.53125 40.914062 31.457031 40.269531 C 31.398438 39.785156 31.484375 39.113281 30.933594 39.027344 C 30.882812 39.019531 30.832031 39.019531 30.777344 39.023438 C 29.269531 39.132812 27.71875 39.386719 26.191406 39.449219 C 24.664062 39.515625 22.945312 39.410156 21.550781 38.640625 C 19.242188 37.371094 17.28125 35.632812 16.339844 33.132812 C 16.074219 32.433594 15.878906 32.230469 15.496094 31.480469 C 14.984375 32.222656 14.21875 32.652344 13.523438 33.207031 C 13.320312 33.367188 13.027344 33.347656 12.847656 33.164062 C 12.078125 32.375 11.320312 31.625 10.542969 30.820312 C 10.089844 30.351562 9.863281 30.277344 10.019531 29.6875 C 10.171875 29.09375 10.546875 28.496094 10.800781 27.945312 C 11.832031 25.683594 12.535156 23.945312 13.941406 21.847656 Z M 13.9375 21.847656 "/>
<use xlink:href="#surface11" mask="url(#mask2)"/>
<path style=" stroke:none;fill-rule:nonzero;fill:rgb(98.039216%,75.294118%,27.058824%);fill-opacity:1;" d="M 33.511719 14.261719 C 33.496094 14.699219 32.976562 15.164062 32.746094 15.460938 C 31.402344 17.183594 25.261719 25.726562 22.988281 27.695312 C 22.828125 27.835938 22.65625 27.96875 22.457031 28.042969 C 22.257812 28.117188 22.019531 28.113281 21.84375 27.992188 C 21.648438 27.855469 21.578125 27.597656 21.554688 27.363281 C 21.359375 25.578125 22.585938 23.449219 23.234375 21.847656 C 24.621094 18.421875 25.746094 15.042969 27.058594 11.597656 C 27.105469 11.46875 27.15625 11.335938 27.261719 11.246094 C 27.363281 11.160156 27.5 11.125 27.632812 11.105469 C 28.957031 10.886719 30.234375 11.597656 31.382812 12.28125 C 31.933594 12.605469 33.289062 13.492188 33.484375 14.082031 C 33.503906 14.140625 33.511719 14.203125 33.507812 14.265625 Z M 33.511719 14.261719 "/>
<use xlink:href="#surface14" mask="url(#mask3)"/>
<path style=" stroke:none;fill-rule:nonzero;fill:rgb(0%,0%,0%);fill-opacity:1;" d="M 31.417969 7.019531 C 31.15625 6.894531 30.65625 7.371094 30.300781 8.085938 C 29.949219 8.796875 29.875 9.480469 30.136719 9.605469 C 30.398438 9.730469 30.898438 9.253906 31.25 8.542969 C 31.605469 7.828125 31.679688 7.144531 31.417969 7.019531 Z M 31.417969 7.019531 "/>
<path style=" stroke:none;fill-rule:nonzero;fill:rgb(0%,0%,0%);fill-opacity:1;" d="M 34.132812 8.328125 C 33.871094 8.199219 33.371094 8.679688 33.019531 9.390625 C 32.664062 10.105469 32.589844 10.785156 32.855469 10.914062 C 33.117188 11.039062 33.613281 10.5625 33.96875 9.847656 C 34.324219 9.132812 34.398438 8.453125 34.132812 8.328125 Z M 34.132812 8.328125 "/>
<path style="fill:none;stroke-width:1.5;stroke-linecap:round;stroke-linejoin:miter;stroke:rgb(0%,0%,0%);stroke-opacity:1;stroke-miterlimit:10;" d="M 237.692249 312.526511 C 242.183403 309.027975 247.804408 307.077972 253.510152 306.6765 C 259.18765 306.275029 264.92164 307.364737 270.231936 309.429446 " transform="matrix(0.138293,0,0,0.136218,0,0.0338228)"/>
<path style="fill:none;stroke-width:1.5;stroke-linecap:round;stroke-linejoin:miter;stroke:rgb(0%,0%,0%);stroke-opacity:1;stroke-miterlimit:10;" d="M 239.132808 329.617717 C 248.793027 324.025795 260.938918 322.907411 271.446525 326.664035 " transform="matrix(0.138293,0,0,0.136218,0,0.0338228)"/>
<path style="fill:none;stroke-width:1.5;stroke-linecap:round;stroke-linejoin:miter;stroke:rgb(0%,0%,0%);stroke-opacity:1;stroke-miterlimit:10;" d="M 225.659343 387.429582 C 225.828821 391.214883 227.94729 394.570036 230.009267 397.75313 " transform="matrix(0.138293,0,0,0.136218,0,0.0338228)"/>
<path style="fill:none;stroke-width:1.5;stroke-linecap:round;stroke-linejoin:miter;stroke:rgb(0%,0%,0%);stroke-opacity:1;stroke-miterlimit:10;" d="M 265.317087 386.454581 C 266.672908 390.182528 267.153094 394.254594 266.672908 398.211954 " transform="matrix(0.138293,0,0,0.136218,0,0.0338228)"/>
<path style="fill:none;stroke-width:1.5;stroke-linecap:round;stroke-linejoin:miter;stroke:rgb(0%,0%,0%);stroke-opacity:1;stroke-miterlimit:10;" d="M 303.562519 381.981043 C 303.619011 385.651638 302.941101 389.293556 301.528788 392.648709 " transform="matrix(0.138293,0,0,0.136218,0,0.0338228)"/>
<path style="fill:none;stroke-width:1.5;stroke-linecap:round;stroke-linejoin:miter;stroke:rgb(0%,0%,0%);stroke-opacity:1;stroke-miterlimit:10;" d="M 2.824626 287.979409 C 3.248319 285.914699 3.784998 283.821313 4.83011 281.95734 C 5.875221 280.122042 7.513504 278.516157 9.518988 277.885274 " transform="matrix(0.138293,0,0,0.136218,0,0.0338228)"/>
<path style="fill:none;stroke-width:1.5;stroke-linecap:round;stroke-linejoin:miter;stroke:rgb(0%,0%,0%);stroke-opacity:1;stroke-miterlimit:10;" d="M 27.398869 309.773565 C 29.545584 306.733853 31.833531 302.346346 33.132859 298.876487 " transform="matrix(0.138293,0,0,0.136218,0,0.0338228)"/>
<path style="fill:none;stroke-width:1.5;stroke-linecap:round;stroke-linejoin:miter;stroke:rgb(0%,0%,0%);stroke-opacity:1;stroke-miterlimit:10;" d="M 61.944041 319.12211 C 64.401465 315.795634 65.503069 311.522832 64.96639 307.450766 " transform="matrix(0.138293,0,0,0.136218,0,0.0338228)"/>
<path style="fill:none;stroke-width:1.5;stroke-linecap:round;stroke-linejoin:miter;stroke:rgb(0%,0%,0%);stroke-opacity:1;stroke-miterlimit:10;" d="M 65.729039 228.418276 C 70.643888 237.107261 78.694071 243.645508 87.196194 248.893311 " transform="matrix(0.138293,0,0,0.136218,0,0.0338228)"/>
<path style="fill:none;stroke-width:1.5;stroke-linecap:round;stroke-linejoin:miter;stroke:rgb(0%,0%,0%);stroke-opacity:1;stroke-miterlimit:10;" d="M 53.611395 241.98227 C 54.148074 244.046979 55.560387 245.796247 57.000946 247.373456 C 62.254749 253.166113 68.638403 257.926415 75.699967 261.281568 " transform="matrix(0.138293,0,0,0.136218,0,0.0338228)"/>
<use xlink:href="#surface17" mask="url(#mask4)"/>
</g>
</svg>
