<?xml version="1.0" encoding="UTF-8"?>
<svg xmlns="http://www.w3.org/2000/svg" xmlns:xlink="http://www.w3.org/1999/xlink" width="48px" height="px" viewBox="0 0 47 41" version="1.1">
<defs>
<filter id="alpha" filterUnits="objectBoundingBox" x="0%" y="0%" width="100%" height="100%">
  <feColorMatrix type="matrix" in="SourceGraphic" values="0 0 0 0 1 0 0 0 0 1 0 0 0 0 1 0 0 0 1 0"/>
</filter>
<mask id="mask0">
  <g filter="url(#alpha)">
<rect x="0" y="0" width="47" height="41" style="fill:rgb(0%,0%,0%);fill-opacity:0.121569;stroke:none;"/>
  </g>
</mask>
<clipPath id="clip1">
  <rect x="0" y="0" width="47" height="41"/>
</clipPath>
<g id="surface5" clip-path="url(#clip1)">
<path style=" stroke:none;fill-rule:nonzero;fill:rgb(0%,0%,0%);fill-opacity:1;" d="M 46.5 9.65625 C 45.773438 9.632812 44.980469 9.617188 44.269531 9.472656 C 43.050781 9.230469 41.871094 8.675781 40.960938 7.808594 C 42.136719 8.730469 43.554688 9.292969 45.023438 9.484375 C 45.511719 9.550781 46.007812 9.585938 46.5 9.65625 Z M 46.5 9.65625 "/>
</g>
<mask id="mask1">
  <g filter="url(#alpha)">
<rect x="0" y="0" width="47" height="41" style="fill:rgb(0%,0%,0%);fill-opacity:0.121569;stroke:none;"/>
  </g>
</mask>
<clipPath id="clip2">
  <rect x="0" y="0" width="47" height="41"/>
</clipPath>
<g id="surface8" clip-path="url(#clip2)">
<path style=" stroke:none;fill-rule:nonzero;fill:rgb(0%,0%,0%);fill-opacity:1;" d="M 46.476562 7.851562 C 45.078125 6.382812 43.285156 5.347656 41.371094 4.734375 C 43.339844 5.175781 45.207031 6.257812 46.476562 7.851562 Z M 46.476562 7.851562 "/>
</g>
<mask id="mask2">
  <g filter="url(#alpha)">
<rect x="0" y="0" width="47" height="41" style="fill:rgb(0%,0%,0%);fill-opacity:0.121569;stroke:none;"/>
  </g>
</mask>
<clipPath id="clip3">
  <rect x="0" y="0" width="47" height="41"/>
</clipPath>
<g id="surface11" clip-path="url(#clip3)">
<path style=" stroke:none;fill-rule:nonzero;fill:rgb(0%,0%,0%);fill-opacity:1;" d="M 46.90625 6.316406 C 45.507812 4.847656 43.714844 3.8125 41.800781 3.199219 C 43.769531 3.640625 45.636719 4.722656 46.90625 6.316406 Z M 46.90625 6.316406 "/>
</g>
<mask id="mask3">
  <g filter="url(#alpha)">
<rect x="0" y="0" width="47" height="41" style="fill:rgb(0%,0%,0%);fill-opacity:0.121569;stroke:none;"/>
  </g>
</mask>
<clipPath id="clip4">
  <rect x="0" y="0" width="47" height="41"/>
</clipPath>
<g id="surface14" clip-path="url(#clip4)">
<path style=" stroke:none;fill-rule:nonzero;fill:rgb(0%,0%,0%);fill-opacity:1;" d="M 42.203125 8.511719 C 43.496094 8.25 44.765625 7.914062 46.023438 7.5 C 44.828125 8.078125 43.519531 8.421875 42.203125 8.511719 Z M 42.203125 8.511719 "/>
</g>
<mask id="mask4">
  <g filter="url(#alpha)">
<rect x="0" y="0" width="47" height="41" style="fill:rgb(0%,0%,0%);fill-opacity:0.121569;stroke:none;"/>
  </g>
</mask>
<clipPath id="clip5">
  <rect x="0" y="0" width="47" height="41"/>
</clipPath>
<g id="surface17" clip-path="url(#clip5)">
<path style=" stroke:none;fill-rule:nonzero;fill:rgb(0%,0%,0%);fill-opacity:1;" d="M 44.578125 6.414062 C 43.507812 6.902344 42.164062 7.351562 40.980469 7.292969 C 42.214844 7.160156 43.390625 6.753906 44.578125 6.414062 Z M 44.578125 6.414062 "/>
</g>
</defs>
<g id="surface1">
<path style=" stroke:none;fill-rule:nonzero;fill:rgb(76.862745%,60.392157%,42.352941%);fill-opacity:1;" d="M 0.363281 40.253906 C 0.03125 39.714844 0.199219 39.003906 0.734375 38.667969 L 42.828125 12.398438 L 44.023438 14.363281 L 1.929688 40.628906 C 1.394531 40.964844 0.691406 40.796875 0.363281 40.253906 Z M 0.363281 40.253906 "/>
<path style=" stroke:none;fill-rule:nonzero;fill:rgb(13.72549%,12.156863%,12.54902%);fill-opacity:1;" d="M 0.632812 40.695312 L 0.09375 39.808594 C -0.0898438 39.511719 0.00390625 39.121094 0.296875 38.9375 L 9.667969 33.089844 L 10.867188 35.050781 L 1.492188 40.902344 C 1.199219 41.085938 0.8125 40.992188 0.632812 40.695312 Z M 0.632812 40.695312 "/>
<path style=" stroke:none;fill-rule:nonzero;fill:rgb(76.862745%,60.392157%,42.352941%);fill-opacity:1;" d="M 45.953125 11.957031 C 46.515625 10.632812 46.636719 9.167969 46.753906 7.734375 C 46.796875 7.191406 46.839844 6.652344 46.882812 6.109375 C 47 4.683594 47.101562 3.1875 46.511719 1.886719 C 45.921875 0.585938 44.386719 -0.390625 43.082031 0.160156 C 41.886719 0.664062 41.28125 2.09375 41.175781 3.402344 C 40.976562 5.902344 40.773438 9.707031 39.894531 12.28125 C 39.320312 13.964844 38.339844 14.832031 36.375 16.429688 C 37.007812 16.296875 39.285156 15.914062 39.765625 15.800781 C 40.652344 15.589844 41.578125 15.441406 42.445312 15.160156 C 43.976562 14.667969 45.320312 13.445312 45.953125 11.957031 Z M 45.953125 11.957031 "/>
<path style=" stroke:none;fill-rule:nonzero;fill:rgb(90.196078%,90.588235%,90.980392%);fill-opacity:1;" d="M 45.953125 11.121094 C 45.984375 11.121094 46.015625 11.121094 46.050781 11.117188 C 46.253906 11.097656 46.253906 11.085938 46.3125 10.890625 C 46.410156 10.558594 46.46875 10.210938 46.523438 9.867188 C 46.636719 9.160156 46.695312 8.445312 46.753906 7.734375 C 46.796875 7.191406 46.839844 6.652344 46.882812 6.109375 C 46.941406 5.421875 47.058594 4.664062 46.964844 3.976562 C 46.921875 3.664062 46.523438 3.617188 46.246094 3.519531 C 45.90625 3.398438 45.558594 3.289062 45.203125 3.214844 C 44.820312 3.136719 44.425781 3.097656 44.039062 3.0625 C 43.199219 2.988281 42.335938 2.933594 41.539062 3.191406 C 41.429688 3.226562 41.324219 3.269531 41.242188 3.347656 C 41.074219 3.507812 41.136719 3.902344 41.121094 4.121094 C 41.09375 4.476562 41.066406 4.832031 41.039062 5.191406 C 40.980469 5.917969 40.917969 6.644531 40.839844 7.371094 C 40.800781 7.738281 40.757812 8.105469 40.707031 8.472656 C 40.667969 8.777344 40.507812 9.191406 40.691406 9.433594 C 41.074219 9.921875 41.8125 10.289062 42.375 10.511719 C 43.363281 10.914062 44.445312 11.003906 45.507812 11.089844 C 45.652344 11.101562 45.804688 11.125 45.949219 11.121094 Z M 45.953125 11.121094 "/>
<use xlink:href="#surface5" mask="url(#mask0)"/>
<use xlink:href="#surface8" mask="url(#mask1)"/>
<use xlink:href="#surface11" mask="url(#mask2)"/>
<use xlink:href="#surface14" mask="url(#mask3)"/>
<use xlink:href="#surface17" mask="url(#mask4)"/>
</g>
</svg>
