<?xml version="1.0" encoding="UTF-8"?>
<svg xmlns="http://www.w3.org/2000/svg" xmlns:xlink="http://www.w3.org/1999/xlink" width="48px" height="px" viewBox="0 0 48 47" version="1.1">
<g id="surface1">
<path style=" stroke:none;fill-rule:nonzero;fill:rgb(0%,0%,0%);fill-opacity:1;" d="M 5.457031 46.996094 C 4.050781 46.996094 2.707031 46.210938 2.066406 44.875 C 0.175781 40.925781 -0.433594 36.777344 0.304688 32.878906 C 1.121094 28.582031 3.511719 24.941406 7.226562 22.347656 C 12.894531 18.386719 19.171875 18.816406 24.714844 19.199219 C 27.765625 19.40625 30.652344 19.605469 33.261719 19.113281 C 35.605469 18.671875 39.648438 17.34375 40.417969 13.425781 C 40.730469 11.851562 40.117188 10.085938 38.820312 8.8125 C 38.316406 8.316406 36.917969 7.195312 35.449219 7.507812 C 34.664062 4.0625 33.828125 1.738281 33.285156 0.429688 C 37.394531 -0.800781 41.277344 0.785156 44.101562 3.558594 C 47.195312 6.59375 48.570312 10.8125 47.78125 14.839844 C 46.601562 20.828125 41.824219 25.039062 34.671875 26.386719 C 31.105469 27.0625 27.59375 26.820312 24.195312 26.585938 C 19.285156 26.25 15.039062 25.960938 11.554688 28.394531 C 8.261719 30.695312 5.820312 35.402344 8.84375 41.707031 C 9.726562 43.558594 8.929688 45.765625 7.058594 46.640625 C 6.539062 46.882812 5.992188 46.996094 5.457031 46.996094 Z M 5.457031 46.996094 "/>
</g>
</svg>
