<?xml version="1.0" encoding="UTF-8"?>
<svg xmlns="http://www.w3.org/2000/svg" xmlns:xlink="http://www.w3.org/1999/xlink" width="48px" height="px" viewBox="0 0 47 26" version="1.1">
<defs>
<filter id="alpha" filterUnits="objectBoundingBox" x="0%" y="0%" width="100%" height="100%">
  <feColorMatrix type="matrix" in="SourceGraphic" values="0 0 0 0 1 0 0 0 0 1 0 0 0 0 1 0 0 0 1 0"/>
</filter>
<mask id="mask0">
  <g filter="url(#alpha)">
<rect x="0" y="0" width="47" height="26" style="fill:rgb(0%,0%,0%);fill-opacity:0.501961;stroke:none;"/>
  </g>
</mask>
<clipPath id="clip1">
  <rect x="0" y="0" width="47" height="26"/>
</clipPath>
<g id="surface5" clip-path="url(#clip1)">
<path style=" stroke:none;fill-rule:nonzero;fill:rgb(100%,100%,100%);fill-opacity:1;" d="M 44.351562 1.8125 L 43.574219 2.222656 L 43.535156 3.105469 L 44.277344 3.578125 L 45.054688 3.167969 L 45.089844 2.285156 Z M 44.351562 1.8125 "/>
</g>
<mask id="mask1">
  <g filter="url(#alpha)">
<rect x="0" y="0" width="47" height="26" style="fill:rgb(0%,0%,0%);fill-opacity:0.25098;stroke:none;"/>
  </g>
</mask>
<clipPath id="clip2">
  <rect x="0" y="0" width="47" height="26"/>
</clipPath>
<g id="surface8" clip-path="url(#clip2)">
<path style=" stroke:none;fill-rule:nonzero;fill:rgb(100%,100%,100%);fill-opacity:1;" d="M 44.246094 4.347656 L 44.277344 3.578125 L 45.054688 3.167969 L 45.699219 3.582031 Z M 44.246094 4.347656 "/>
</g>
</defs>
<g id="surface1">
<path style=" stroke:none;fill-rule:nonzero;fill:rgb(81.960784%,82.745098%,83.137255%);fill-opacity:1;" d="M 31.015625 7.285156 L 32.9375 10.996094 L 7.75 26 L 0.0117188 25.960938 L 4.40625 19.539062 Z M 31.015625 7.285156 "/>
<path style=" stroke:none;fill-rule:nonzero;fill:rgb(90.196078%,90.588235%,90.980392%);fill-opacity:1;" d="M 26.140625 15.046875 L 18.421875 13.085938 L 8.910156 17.464844 L 18.136719 19.8125 Z M 26.140625 15.046875 "/>
<path style=" stroke:none;fill-rule:nonzero;fill:rgb(73.72549%,74.509804%,75.294118%);fill-opacity:1;" d="M 32.117188 9.414062 C 32.117188 9.414062 9.375 22.53125 3.371094 24.199219 C 3.371094 24.199219 10.359375 18.734375 31.804688 8.808594 Z M 32.117188 9.414062 "/>
<path style=" stroke:none;fill-rule:nonzero;fill:rgb(73.72549%,74.509804%,75.294118%);fill-opacity:1;" d="M 35 14.984375 L 28.949219 3.296875 C 29.863281 2.816406 30.992188 3.175781 31.46875 4.09375 L 35.789062 12.441406 C 36.265625 13.363281 35.910156 14.5 35 14.984375 Z M 35 14.984375 "/>
<path style=" stroke:none;fill-rule:nonzero;fill:rgb(28.627451%,29.803922%,40.392157%);fill-opacity:1;" d="M 34.5 9.949219 L 32.800781 6.667969 L 42.066406 1.792969 L 43.765625 5.074219 Z M 34.5 9.949219 "/>
<path style=" stroke:none;fill-rule:nonzero;fill:rgb(73.72549%,74.509804%,75.294118%);fill-opacity:1;" d="M 46.988281 2.695312 C 46.988281 4.183594 45.789062 5.390625 44.316406 5.390625 C 42.839844 5.390625 41.644531 4.183594 41.644531 2.695312 C 41.644531 1.207031 42.839844 0 44.316406 0 C 45.789062 0 46.988281 1.207031 46.988281 2.695312 Z M 46.988281 2.695312 "/>
<path style=" stroke:none;fill-rule:nonzero;fill:rgb(44.705882%,53.72549%,100%);fill-opacity:1;" d="M 44.382812 1.039062 L 42.929688 1.808594 L 42.859375 3.460938 L 44.246094 4.347656 L 45.699219 3.582031 L 45.769531 1.929688 Z M 44.382812 1.039062 "/>
<use xlink:href="#surface5" mask="url(#mask0)"/>
<path style=" stroke:none;fill-rule:nonzero;fill:rgb(44.705882%,53.72549%,100%);fill-opacity:1;" d="M 45.089844 2.285156 L 44.351562 1.8125 L 44.382812 1.039062 L 45.769531 1.929688 Z M 45.089844 2.285156 "/>
<path style=" stroke:none;fill-rule:nonzero;fill:rgb(100%,100%,100%);fill-opacity:1;" d="M 43.535156 3.105469 L 44.277344 3.578125 L 44.246094 4.347656 L 42.859375 3.460938 Z M 43.535156 3.105469 "/>
<use xlink:href="#surface8" mask="url(#mask1)"/>
</g>
</svg>
