<?xml version="1.0" encoding="UTF-8"?>
<svg xmlns="http://www.w3.org/2000/svg" xmlns:xlink="http://www.w3.org/1999/xlink" width="48px" height="px" viewBox="0 0 48 35" version="1.1">
<defs>
<filter id="alpha" filterUnits="objectBoundingBox" x="0%" y="0%" width="100%" height="100%">
  <feColorMatrix type="matrix" in="SourceGraphic" values="0 0 0 0 1 0 0 0 0 1 0 0 0 0 1 0 0 0 1 0"/>
</filter>
<mask id="mask0">
  <g filter="url(#alpha)">
<rect x="0" y="0" width="48" height="35" style="fill:rgb(0%,0%,0%);fill-opacity:0.501961;stroke:none;"/>
  </g>
</mask>
<clipPath id="clip1">
  <rect x="0" y="0" width="48" height="35"/>
</clipPath>
<g id="surface5" clip-path="url(#clip1)">
<path style=" stroke:none;fill-rule:nonzero;fill:rgb(97.647059%,58.431373%,76.078431%);fill-opacity:1;" d="M 36.542969 3.808594 C 39.855469 2.453125 42.726562 1.355469 46.039062 0 C 46.417969 1.445312 46.171875 3.046875 45.375 4.304688 C 45.488281 4.101562 45.734375 3.984375 45.964844 4.019531 C 45.820312 4.757812 45.398438 5.433594 44.804688 5.890625 C 45.03125 5.789062 45.296875 5.777344 45.53125 5.859375 C 45.367188 6.726562 44.601562 7.445312 43.730469 7.546875 C 43.875 7.378906 44.175781 7.5 44.25 7.707031 C 44.320312 7.914062 44.234375 8.144531 44.125 8.335938 C 43.792969 8.90625 43.230469 9.332031 42.59375 9.488281 C 42.421875 9.253906 42.980469 9.089844 43.078125 9.363281 C 43.175781 9.640625 42.949219 9.914062 42.742188 10.117188 C 42.234375 10.617188 41.667969 11.144531 40.964844 11.222656 C 41.199219 12.40625 39.96875 13.617188 38.808594 13.347656 C 39.15625 13.835938 39.519531 14.382812 39.457031 14.984375 C 39.394531 15.582031 38.628906 16.082031 38.1875 15.679688 C 38.394531 16.34375 38.171875 17.121094 37.644531 17.570312 C 37.121094 18.019531 36.324219 18.117188 35.710938 17.800781 C 35.984375 18.441406 35.769531 19.257812 35.214844 19.671875 C 34.664062 20.089844 33.828125 20.066406 33.300781 19.617188 C 33.5 20.28125 33.585938 21.046875 33.214844 21.632812 C 32.84375 22.214844 31.859375 22.390625 31.496094 21.800781 C 31.804688 22.417969 31.585938 23.253906 31.019531 23.640625 C 30.449219 24.023438 29.605469 23.910156 29.15625 23.386719 C 29.503906 23.960938 28.921875 24.738281 28.261719 24.828125 C 27.601562 24.921875 26.96875 24.574219 26.390625 24.238281 C 26.644531 25.738281 24.390625 26.128906 24.347656 25.53125 C 24.386719 26.070312 23.980469 26.601562 23.457031 26.699219 C 22.933594 26.800781 22.363281 26.449219 22.207031 25.933594 C 22.050781 26.679688 21.78125 27.398438 21.417969 28.066406 C 20.988281 27.761719 20.558594 27.457031 20.128906 27.152344 C 20.371094 27.800781 20 28.613281 19.359375 28.855469 C 18.714844 29.09375 17.914062 28.714844 17.683594 28.0625 C 17.253906 28.625 16.824219 29.1875 16.398438 29.75 C 15.9375 29.597656 15.535156 29.265625 15.292969 28.84375 C 15.226562 29.53125 14.964844 30.265625 14.378906 30.621094 C 13.789062 30.976562 12.847656 30.710938 12.730469 30.027344 C 12.414062 30.496094 12.058594 30.984375 11.527344 31.167969 C 11 31.351562 10.277344 31.042969 10.257812 30.480469 C 10.289062 31.074219 9.835938 31.660156 9.253906 31.769531 C 8.671875 31.882812 8.042969 31.503906 7.855469 30.9375 C 7.773438 31.476562 7.453125 32.015625 6.941406 32.195312 C 6.429688 32.375 5.757812 32.054688 5.699219 31.511719 C 5.222656 32.671875 3.234375 32.632812 2.800781 31.453125 C 2.4375 31.8125 1.074219 32.949219 0.515625 32.773438 C -0.371094 32.488281 0.09375 31.515625 0.511719 31 C 2.390625 28.664062 4.085938 26.097656 5.964844 23.765625 C 13.828125 19.097656 28.894531 11.429688 36.542969 3.808594 Z M 36.542969 3.808594 "/>
</g>
</defs>
<g id="surface1">
<path style=" stroke:none;fill-rule:nonzero;fill:rgb(95.686275%,76.470588%,86.27451%);fill-opacity:1;" d="M 36.328125 3.789062 C 39.59375 2.960938 43.128906 2.152344 46.351562 1.332031 C 47.359375 1.078125 47.394531 1.203125 47.988281 2.003906 C 47.558594 2.339844 47.1875 2.761719 46.902344 3.226562 C 47.285156 3.367188 47.621094 3.605469 47.882812 3.910156 C 46.839844 4.980469 48.089844 5.160156 47.878906 6.175781 C 47.828125 6.40625 47.574219 6.5625 47.34375 6.574219 C 47.109375 6.585938 46.894531 6.492188 46.683594 6.402344 C 46.945312 6.96875 47.160156 7.558594 47.324219 8.164062 C 46.75 8.117188 46.175781 8.070312 45.597656 8.027344 C 45.980469 8.492188 46.359375 8.957031 46.738281 9.421875 C 46.675781 9.34375 45.488281 9.535156 45.328125 9.546875 C 45.78125 10.257812 45.519531 10.570312 45.171875 11.226562 C 44.617188 12.273438 45.105469 11.820312 43.96875 11.621094 C 44.003906 11.925781 44.121094 12.210938 44.164062 12.511719 C 44.265625 13.15625 43.847656 13.820312 43.175781 13.46875 C 43.300781 14.351562 41.578125 18.046875 40.558594 16.394531 C 40.367188 16.835938 40.414062 19.125 39.261719 18.699219 C 39.257812 19.527344 39.121094 20.558594 38.324219 20.917969 C 37.492188 21.292969 37.269531 20.75 37.183594 21.867188 C 37.109375 22.839844 36.382812 23.300781 35.617188 22.550781 C 35.238281 22.976562 34.96875 23.53125 34.34375 23.71875 C 34.167969 23.773438 32.71875 23.664062 32.707031 23.507812 C 32.753906 24.09375 32.738281 24.804688 32.332031 25.316406 C 31.921875 25.839844 30.921875 25.945312 30.71875 25.359375 C 30.972656 25.824219 30.375 26.433594 29.804688 26.445312 C 29.238281 26.453125 28.777344 26.089844 28.371094 25.738281 C 28.25 26.375 28.128906 27.011719 28.003906 27.644531 C 27.972656 27.8125 27.9375 27.992188 27.820312 28.128906 C 27.605469 28.386719 27.183594 28.40625 26.902344 28.253906 C 26.621094 28.101562 26.441406 27.828125 26.277344 27.5625 C 26.46875 28.261719 26.1875 29.117188 25.519531 29.542969 C 24.851562 29.96875 23.835938 29.8125 23.523438 29.160156 C 23.308594 29.824219 23.074219 30.519531 22.542969 31.019531 C 22.015625 31.519531 21.085938 31.726562 20.582031 31.269531 C 20.058594 32.378906 19.1875 31.84375 18.363281 32.097656 C 17.667969 32.3125 17.378906 33.078125 16.667969 33.25 C 15.964844 33.417969 15.4375 32.765625 15.109375 32.191406 C 15.054688 32.863281 14.4375 33.488281 13.714844 33.597656 C 12.996094 33.710938 12.253906 33.292969 12.050781 32.664062 C 11.734375 33.105469 11.386719 33.570312 10.871094 33.804688 C 10.355469 34.035156 9.621094 33.914062 9.457031 33.429688 C 8.886719 33.917969 8.21875 34.316406 7.503906 34.59375 C 7.238281 34.140625 6.976562 33.6875 6.710938 33.234375 C 5.984375 33.824219 5.257812 34.414062 4.53125 35 C 4.324219 34.542969 3.996094 34.011719 3.441406 34.042969 C 3.207031 34.054688 2.976562 34.175781 2.742188 34.167969 C 2.039062 34.140625 2.046875 33.203125 2.269531 32.585938 C 3.445312 29.359375 4.851562 26.289062 6.246094 23.128906 C 11.304688 20.375 16.15625 17.511719 21.15625 14.789062 C 26.800781 11.71875 32.160156 8.578125 36.324219 3.789062 Z M 36.328125 3.789062 "/>
<use xlink:href="#surface5" mask="url(#mask0)"/>
<path style=" stroke:none;fill-rule:nonzero;fill:rgb(97.647059%,58.431373%,76.078431%);fill-opacity:1;" d="M 35.910156 2.914062 C 27.351562 11.855469 16.316406 17.738281 5.148438 22.957031 C 5.492188 23.253906 5.789062 23.621094 6.132812 23.917969 C 7.585938 23.472656 8.945312 22.699219 10.296875 21.996094 C 16.601562 18.730469 22.941406 15.4375 28.570312 11.089844 C 29.964844 10.015625 31.308594 8.875 32.652344 7.738281 C 34.140625 6.46875 35.371094 5.363281 36.542969 3.808594 Z M 35.910156 2.914062 "/>
</g>
</svg>
