<?xml version="1.0" encoding="UTF-8"?>
<svg xmlns="http://www.w3.org/2000/svg" xmlns:xlink="http://www.w3.org/1999/xlink" width="48px" height="px" viewBox="0 0 48 39" version="1.1">
<g id="surface1">
<path style=" stroke:none;fill-rule:nonzero;fill:rgb(42.745098%,43.137255%,44.313725%);fill-opacity:1;" d="M 2.402344 32.105469 L 43.285156 3.382812 C 43.835938 2.996094 44.59375 3.128906 44.980469 3.679688 L 46.042969 5.195312 C 46.429688 5.746094 46.296875 6.503906 45.746094 6.890625 L 4.859375 35.613281 C 4.3125 36 3.550781 35.867188 3.167969 35.316406 L 2.105469 33.800781 C 1.71875 33.25 1.851562 32.492188 2.402344 32.105469 Z M 2.402344 32.105469 "/>
<path style=" stroke:none;fill-rule:nonzero;fill:rgb(65.490196%,66.27451%,67.45098%);fill-opacity:1;" d="M 4.46875 19.484375 L 6.753906 17.878906 C 7.070312 17.65625 7.511719 17.730469 7.734375 18.050781 L 19.832031 35.308594 C 20.054688 35.628906 19.980469 36.066406 19.660156 36.292969 L 17.375 37.898438 C 17.058594 38.121094 16.617188 38.042969 16.394531 37.726562 L 4.296875 20.464844 C 4.074219 20.148438 4.148438 19.707031 4.46875 19.484375 Z M 4.46875 19.484375 "/>
<path style=" stroke:none;fill-rule:nonzero;fill:rgb(65.490196%,66.27451%,67.45098%);fill-opacity:1;" d="M 1.988281 23.449219 L 4.445312 21.722656 C 4.71875 21.535156 5.089844 21.597656 5.28125 21.871094 L 15.410156 36.320312 C 15.601562 36.589844 15.535156 36.964844 15.265625 37.15625 L 12.804688 38.882812 C 12.535156 39.070312 12.160156 39.007812 11.972656 38.734375 L 1.84375 24.285156 C 1.652344 24.015625 1.71875 23.640625 1.988281 23.449219 Z M 1.988281 23.449219 "/>
<path style=" stroke:none;fill-rule:nonzero;fill:rgb(65.490196%,66.27451%,67.45098%);fill-opacity:1;" d="M 0.273438 28.234375 L 2.648438 26.570312 C 2.941406 26.363281 3.347656 26.433594 3.554688 26.726562 L 10.257812 36.292969 C 10.464844 36.585938 10.394531 36.992188 10.101562 37.199219 L 7.726562 38.867188 C 7.433594 39.074219 7.027344 39.003906 6.820312 38.707031 L 0.117188 29.144531 C -0.0898438 28.847656 -0.0195312 28.441406 0.273438 28.234375 Z M 0.273438 28.234375 "/>
<path style="fill-rule:nonzero;fill:rgb(65.490196%,66.27451%,67.45098%);fill-opacity:1;stroke-width:3;stroke-linecap:round;stroke-linejoin:miter;stroke:rgb(42.745098%,43.137255%,44.313725%);stroke-opacity:1;stroke-miterlimit:10;" d="M 50.166662 199.723746 L 135.306453 321.001656 " transform="matrix(0.111581,0,0,0.111701,0,0.0109519)"/>
<path style="fill-rule:nonzero;fill:rgb(65.490196%,66.27451%,67.45098%);fill-opacity:1;stroke-width:3;stroke-linecap:round;stroke-linejoin:miter;stroke:rgb(42.745098%,43.137255%,44.313725%);stroke-opacity:1;stroke-miterlimit:10;" d="M 33.537796 241.548538 L 90.706086 322.994978 " transform="matrix(0.111581,0,0,0.111701,0,0.0109519)"/>
<path style=" stroke:none;fill-rule:nonzero;fill:rgb(65.490196%,66.27451%,67.45098%);fill-opacity:1;" d="M 43.53125 19.515625 L 41.246094 21.121094 C 40.925781 21.34375 40.488281 21.269531 40.265625 20.949219 L 28.167969 3.691406 C 27.941406 3.371094 28.019531 2.933594 28.339844 2.707031 L 30.625 1.101562 C 30.941406 0.878906 31.378906 0.957031 31.605469 1.273438 L 43.703125 18.535156 C 43.925781 18.851562 43.847656 19.292969 43.53125 19.515625 Z M 43.53125 19.515625 "/>
<path style=" stroke:none;fill-rule:nonzero;fill:rgb(65.490196%,66.27451%,67.45098%);fill-opacity:1;" d="M 46.007812 15.546875 L 43.550781 17.273438 C 43.28125 17.464844 42.90625 17.398438 42.71875 17.128906 L 32.585938 2.679688 C 32.398438 2.40625 32.460938 2.035156 32.734375 1.84375 L 35.191406 0.117188 C 35.460938 -0.0742188 35.835938 -0.0078125 36.023438 0.261719 L 46.15625 14.714844 C 46.34375 14.984375 46.28125 15.359375 46.007812 15.546875 Z M 46.007812 15.546875 "/>
<path style=" stroke:none;fill-rule:nonzero;fill:rgb(65.490196%,66.27451%,67.45098%);fill-opacity:1;" d="M 47.722656 10.761719 L 45.347656 12.429688 C 45.054688 12.636719 44.648438 12.566406 44.441406 12.269531 L 37.738281 2.707031 C 37.53125 2.410156 37.601562 2.003906 37.898438 1.796875 L 40.269531 0.132812 C 40.5625 -0.0742188 40.96875 -0.00390625 41.175781 0.289062 L 47.878906 9.855469 C 48.085938 10.148438 48.015625 10.554688 47.722656 10.761719 Z M 47.722656 10.761719 "/>
<path style="fill-rule:nonzero;fill:rgb(65.490196%,66.27451%,67.45098%);fill-opacity:1;stroke-width:3;stroke-linecap:round;stroke-linejoin:miter;stroke:rgb(42.745098%,43.137255%,44.313725%);stroke-opacity:1;stroke-miterlimit:10;" d="M 380.013338 149.226254 L 294.873547 27.948344 " transform="matrix(0.111581,0,0,0.111701,0,0.0109519)"/>
<path style="fill-rule:nonzero;fill:rgb(65.490196%,66.27451%,67.45098%);fill-opacity:1;stroke-width:3;stroke-linecap:round;stroke-linejoin:miter;stroke:rgb(42.745098%,43.137255%,44.313725%);stroke-opacity:1;stroke-miterlimit:10;" d="M 396.642204 107.366491 L 339.473914 25.955022 " transform="matrix(0.111581,0,0,0.111701,0,0.0109519)"/>
</g>
</svg>
