<?xml version="1.0" encoding="UTF-8"?>
<svg xmlns="http://www.w3.org/2000/svg" xmlns:xlink="http://www.w3.org/1999/xlink" width="48px" height="px" viewBox="0 0 48 48" version="1.1">
<defs>
<filter id="alpha" filterUnits="objectBoundingBox" x="0%" y="0%" width="100%" height="100%">
  <feColorMatrix type="matrix" in="SourceGraphic" values="0 0 0 0 1 0 0 0 0 1 0 0 0 0 1 0 0 0 1 0"/>
</filter>
<mask id="mask0">
  <g filter="url(#alpha)">
<rect x="0" y="0" width="48" height="48" style="fill:rgb(0%,0%,0%);fill-opacity:0.34902;stroke:none;"/>
  </g>
</mask>
<clipPath id="clip2">
  <rect x="0" y="0" width="46" height="46"/>
</clipPath>
<g id="surface6" clip-path="url(#clip2)">
<path style="fill:none;stroke-width:1.6;stroke-linecap:round;stroke-linejoin:miter;stroke:rgb(13.72549%,12.156863%,12.54902%);stroke-opacity:1;stroke-miterlimit:4;" d="M 58.108696 14.478261 L 62.261413 13.451087 " transform="matrix(0.798611,0,0,0.798611,0,0)"/>
<path style="fill:none;stroke-width:1.6;stroke-linecap:round;stroke-linejoin:miter;stroke:rgb(13.72549%,12.156863%,12.54902%);stroke-opacity:1;stroke-miterlimit:4;" d="M 25.80163 31.79837 L 23.590761 35.461957 " transform="matrix(0.798611,0,0,0.798611,0,0)"/>
<path style="fill:none;stroke-width:1.6;stroke-linecap:round;stroke-linejoin:miter;stroke:rgb(13.72549%,12.156863%,12.54902%);stroke-opacity:1;stroke-miterlimit:4;" d="M 23.228804 24.911413 L 24.989674 28.129891 " transform="matrix(0.798611,0,0,0.798611,0,0)"/>
<path style="fill:none;stroke-width:1.6;stroke-linecap:round;stroke-linejoin:miter;stroke:rgb(13.72549%,12.156863%,12.54902%);stroke-opacity:1;stroke-miterlimit:4;" d="M 21.75163 27.352174 L 21.971739 32.170109 " transform="matrix(0.798611,0,0,0.798611,0,0)"/>
<path style="fill:none;stroke-width:1.6;stroke-linecap:round;stroke-linejoin:miter;stroke:rgb(13.72549%,12.156863%,12.54902%);stroke-opacity:1;stroke-miterlimit:4;" d="M 30.780978 44.119565 L 31.578261 48.311413 " transform="matrix(0.798611,0,0,0.798611,0,0)"/>
<path style="fill:none;stroke-width:1.6;stroke-linecap:round;stroke-linejoin:miter;stroke:rgb(13.72549%,12.156863%,12.54902%);stroke-opacity:1;stroke-miterlimit:4;" d="M 17.501087 38.690217 L 16.708696 42.891848 " transform="matrix(0.798611,0,0,0.798611,0,0)"/>
<path style="fill:none;stroke-width:1.6;stroke-linecap:round;stroke-linejoin:miter;stroke:rgb(13.72549%,12.156863%,12.54902%);stroke-opacity:1;stroke-miterlimit:4;" d="M 9.870652 39.159783 L 13.172283 41.869565 " transform="matrix(0.798611,0,0,0.798611,0,0)"/>
<path style="fill:none;stroke-width:1.6;stroke-linecap:round;stroke-linejoin:miter;stroke:rgb(13.72549%,12.156863%,12.54902%);stroke-opacity:1;stroke-miterlimit:4;" d="M 17.501087 33.441848 L 20.797826 36.15163 " transform="matrix(0.798611,0,0,0.798611,0,0)"/>
<path style="fill:none;stroke-width:1.6;stroke-linecap:round;stroke-linejoin:miter;stroke:rgb(13.72549%,12.156863%,12.54902%);stroke-opacity:1;stroke-miterlimit:4;" d="M 21.668478 43.390761 L 20.201087 39.379891 " transform="matrix(0.798611,0,0,0.798611,0,0)"/>
<path style="fill:none;stroke-width:1.6;stroke-linecap:round;stroke-linejoin:miter;stroke:rgb(13.72549%,12.156863%,12.54902%);stroke-opacity:1;stroke-miterlimit:4;" d="M 9.45 42.011413 L 5.24837 45.60163 " transform="matrix(0.798611,0,0,0.798611,0,0)"/>
<path style="fill:none;stroke-width:1.6;stroke-linecap:round;stroke-linejoin:miter;stroke:rgb(13.72549%,12.156863%,12.54902%);stroke-opacity:1;stroke-miterlimit:4;" d="M 15.119022 31.299457 L 19.227717 30.120652 " transform="matrix(0.798611,0,0,0.798611,0,0)"/>
<path style="fill:none;stroke-width:1.6;stroke-linecap:round;stroke-linejoin:miter;stroke:rgb(13.72549%,12.156863%,12.54902%);stroke-opacity:1;stroke-miterlimit:4;" d="M 23.791304 50.898913 L 27.229891 48.360326 " transform="matrix(0.798611,0,0,0.798611,0,0)"/>
<path style="fill:none;stroke-width:1.6;stroke-linecap:round;stroke-linejoin:miter;stroke:rgb(13.72549%,12.156863%,12.54902%);stroke-opacity:1;stroke-miterlimit:4;" d="M 15.109239 52.772283 L 17.320109 49.108696 " transform="matrix(0.798611,0,0,0.798611,0,0)"/>
<path style="fill:none;stroke-width:1.6;stroke-linecap:round;stroke-linejoin:miter;stroke:rgb(13.72549%,12.156863%,12.54902%);stroke-opacity:1;stroke-miterlimit:4;" d="M 33.75 34.151087 L 35.427717 38.078804 " transform="matrix(0.798611,0,0,0.798611,0,0)"/>
<path style="fill:none;stroke-width:1.6;stroke-linecap:round;stroke-linejoin:miter;stroke:rgb(13.72549%,12.156863%,12.54902%);stroke-opacity:1;stroke-miterlimit:4;" d="M 41.752174 24.847826 L 41.199457 30.6 " transform="matrix(0.798611,0,0,0.798611,0,0)"/>
<path style="fill:none;stroke-width:1.6;stroke-linecap:round;stroke-linejoin:miter;stroke:rgb(13.72549%,12.156863%,12.54902%);stroke-opacity:1;stroke-miterlimit:4;" d="M 30.570652 38.900543 L 28.438043 42.608152 " transform="matrix(0.798611,0,0,0.798611,0,0)"/>
<path style="fill:none;stroke-width:1.6;stroke-linecap:round;stroke-linejoin:miter;stroke:rgb(13.72549%,12.156863%,12.54902%);stroke-opacity:1;stroke-miterlimit:4;" d="M 39.668478 38.729348 L 36.361957 41.43913 " transform="matrix(0.798611,0,0,0.798611,0,0)"/>
<path style="fill:none;stroke-width:1.6;stroke-linecap:round;stroke-linejoin:miter;stroke:rgb(13.72549%,12.156863%,12.54902%);stroke-opacity:1;stroke-miterlimit:4;" d="M 38.592391 52.04837 L 41.908696 54.738587 " transform="matrix(0.798611,0,0,0.798611,0,0)"/>
<path style="fill:none;stroke-width:1.6;stroke-linecap:round;stroke-linejoin:miter;stroke:rgb(13.72549%,12.156863%,12.54902%);stroke-opacity:1;stroke-miterlimit:4;" d="M 36.909783 32.468478 L 40.20163 35.197826 " transform="matrix(0.798611,0,0,0.798611,0,0)"/>
<path style="fill:none;stroke-width:1.6;stroke-linecap:round;stroke-linejoin:miter;stroke:rgb(13.72549%,12.156863%,12.54902%);stroke-opacity:1;stroke-miterlimit:4;" d="M 30.081522 34.591304 L 31.568478 30.580435 " transform="matrix(0.798611,0,0,0.798611,0,0)"/>
<path style="fill:none;stroke-width:1.6;stroke-linecap:round;stroke-linejoin:miter;stroke:rgb(13.72549%,12.156863%,12.54902%);stroke-opacity:1;stroke-miterlimit:4;" d="M 34.278261 30.467935 L 37.922283 28.217935 " transform="matrix(0.798611,0,0,0.798611,0,0)"/>
<path style="fill:none;stroke-width:1.6;stroke-linecap:round;stroke-linejoin:miter;stroke:rgb(13.72549%,12.156863%,12.54902%);stroke-opacity:1;stroke-miterlimit:4;" d="M 10.022283 47.920109 L 12.502174 44.442391 " transform="matrix(0.798611,0,0,0.798611,0,0)"/>
<path style="fill:none;stroke-width:1.6;stroke-linecap:round;stroke-linejoin:miter;stroke:rgb(13.72549%,12.156863%,12.54902%);stroke-opacity:1;stroke-miterlimit:4;" d="M 40.998913 20.382065 L 38.611957 23.928261 " transform="matrix(0.798611,0,0,0.798611,0,0)"/>
<path style="fill:none;stroke-width:1.6;stroke-linecap:round;stroke-linejoin:miter;stroke:rgb(13.72549%,12.156863%,12.54902%);stroke-opacity:1;stroke-miterlimit:4;" d="M 13.998913 37.848913 L 12.282065 32.639674 " transform="matrix(0.798611,0,0,0.798611,0,0)"/>
<path style="fill:none;stroke-width:1.6;stroke-linecap:round;stroke-linejoin:miter;stroke:rgb(13.72549%,12.156863%,12.54902%);stroke-opacity:1;stroke-miterlimit:4;" d="M 13.157609 17.148913 L 15.930978 13.891304 " transform="matrix(0.798611,0,0,0.798611,0,0)"/>
<path style="fill:none;stroke-width:1.6;stroke-linecap:round;stroke-linejoin:miter;stroke:rgb(13.72549%,12.156863%,12.54902%);stroke-opacity:1;stroke-miterlimit:4;" d="M 34.68913 21.859239 L 34.248913 27.352174 " transform="matrix(0.798611,0,0,0.798611,0,0)"/>
<path style="fill:none;stroke-width:1.6;stroke-linecap:round;stroke-linejoin:miter;stroke:rgb(13.72549%,12.156863%,12.54902%);stroke-opacity:1;stroke-miterlimit:4;" d="M 21.502174 23.351087 L 23.409783 18.738587 " transform="matrix(0.798611,0,0,0.798611,0,0)"/>
<path style="fill:none;stroke-width:1.6;stroke-linecap:round;stroke-linejoin:miter;stroke:rgb(13.72549%,12.156863%,12.54902%);stroke-opacity:1;stroke-miterlimit:4;" d="M 25.718478 42.060326 L 24.3 46.090761 " transform="matrix(0.798611,0,0,0.798611,0,0)"/>
<path style="fill:none;stroke-width:1.6;stroke-linecap:round;stroke-linejoin:miter;stroke:rgb(13.72549%,12.156863%,12.54902%);stroke-opacity:1;stroke-miterlimit:4;" d="M 31.690761 41.639674 L 35.002174 44.349457 " transform="matrix(0.798611,0,0,0.798611,0,0)"/>
<path style="fill:none;stroke-width:1.6;stroke-linecap:round;stroke-linejoin:miter;stroke:rgb(13.72549%,12.156863%,12.54902%);stroke-opacity:1;stroke-miterlimit:4;" d="M 16.341848 21.927717 L 18.997826 26.598913 " transform="matrix(0.798611,0,0,0.798611,0,0)"/>
<path style="fill:none;stroke-width:1.6;stroke-linecap:round;stroke-linejoin:miter;stroke:rgb(13.72549%,12.156863%,12.54902%);stroke-opacity:1;stroke-miterlimit:4;" d="M 25.131522 55.120109 L 28.770652 52.870109 " transform="matrix(0.798611,0,0,0.798611,0,0)"/>
<path style="fill:none;stroke-width:1.6;stroke-linecap:round;stroke-linejoin:miter;stroke:rgb(13.72549%,12.156863%,12.54902%);stroke-opacity:1;stroke-miterlimit:4;" d="M 14.982065 28.922283 L 10.848913 27.811957 " transform="matrix(0.798611,0,0,0.798611,0,0)"/>
<path style="fill:none;stroke-width:1.6;stroke-linecap:round;stroke-linejoin:miter;stroke:rgb(13.72549%,12.156863%,12.54902%);stroke-opacity:1;stroke-miterlimit:4;" d="M 14.370652 20.318478 L 12.75163 23.351087 " transform="matrix(0.798611,0,0,0.798611,0,0)"/>
<path style="fill:none;stroke-width:1.6;stroke-linecap:round;stroke-linejoin:miter;stroke:rgb(13.72549%,12.156863%,12.54902%);stroke-opacity:1;stroke-miterlimit:4;" d="M 45.74837 5.85 L 45.997826 11.000543 " transform="matrix(0.798611,0,0,0.798611,0,0)"/>
<path style="fill:none;stroke-width:1.6;stroke-linecap:round;stroke-linejoin:miter;stroke:rgb(13.72549%,12.156863%,12.54902%);stroke-opacity:1;stroke-miterlimit:4;" d="M 30.458152 3.360326 L 33.769565 6.070109 " transform="matrix(0.798611,0,0,0.798611,0,0)"/>
<path style="fill:none;stroke-width:1.6;stroke-linecap:round;stroke-linejoin:miter;stroke:rgb(13.72549%,12.156863%,12.54902%);stroke-opacity:1;stroke-miterlimit:4;" d="M 25.248913 5.351087 L 20.959239 8.339674 " transform="matrix(0.798611,0,0,0.798611,0,0)"/>
<path style="fill:none;stroke-width:1.6;stroke-linecap:round;stroke-linejoin:miter;stroke:rgb(13.72549%,12.156863%,12.54902%);stroke-opacity:1;stroke-miterlimit:4;" d="M 13.759239 2.279348 L 17.501087 4.852174 " transform="matrix(0.798611,0,0,0.798611,0,0)"/>
<path style="fill:none;stroke-width:1.6;stroke-linecap:round;stroke-linejoin:miter;stroke:rgb(13.72549%,12.156863%,12.54902%);stroke-opacity:1;stroke-miterlimit:4;" d="M 27.851087 16.49837 L 29.99837 20.201087 " transform="matrix(0.798611,0,0,0.798611,0,0)"/>
<path style="fill:none;stroke-width:1.6;stroke-linecap:round;stroke-linejoin:miter;stroke:rgb(13.72549%,12.156863%,12.54902%);stroke-opacity:1;stroke-miterlimit:4;" d="M 29.99837 9.097826 L 29.450543 12.477717 " transform="matrix(0.798611,0,0,0.798611,0,0)"/>
<path style="fill:none;stroke-width:1.6;stroke-linecap:round;stroke-linejoin:miter;stroke:rgb(13.72549%,12.156863%,12.54902%);stroke-opacity:1;stroke-miterlimit:4;" d="M 33.309783 8.647826 L 37.227717 10.359783 " transform="matrix(0.798611,0,0,0.798611,0,0)"/>
<path style="fill:none;stroke-width:1.6;stroke-linecap:round;stroke-linejoin:miter;stroke:rgb(13.72549%,12.156863%,12.54902%);stroke-opacity:1;stroke-miterlimit:4;" d="M 25.508152 9.767935 L 27.709239 6.109239 " transform="matrix(0.798611,0,0,0.798611,0,0)"/>
<path style="fill:none;stroke-width:1.6;stroke-linecap:round;stroke-linejoin:miter;stroke:rgb(13.72549%,12.156863%,12.54902%);stroke-opacity:1;stroke-miterlimit:4;" d="M 48.247826 21.101087 L 44.408152 24.490761 " transform="matrix(0.798611,0,0,0.798611,0,0)"/>
<path style="fill:none;stroke-width:1.6;stroke-linecap:round;stroke-linejoin:miter;stroke:rgb(13.72549%,12.156863%,12.54902%);stroke-opacity:1;stroke-miterlimit:4;" d="M 17.750543 19.599457 L 19.64837 14.69837 " transform="matrix(0.798611,0,0,0.798611,0,0)"/>
<path style="fill:none;stroke-width:1.6;stroke-linecap:round;stroke-linejoin:miter;stroke:rgb(13.72549%,12.156863%,12.54902%);stroke-opacity:1;stroke-miterlimit:4;" d="M 16.669565 8.579348 L 19.711957 11.592391 " transform="matrix(0.798611,0,0,0.798611,0,0)"/>
<path style="fill:none;stroke-width:1.6;stroke-linecap:round;stroke-linejoin:miter;stroke:rgb(13.72549%,12.156863%,12.54902%);stroke-opacity:1;stroke-miterlimit:4;" d="M 42.221739 4.710326 L 40.001087 8.598913 " transform="matrix(0.798611,0,0,0.798611,0,0)"/>
<path style="fill:none;stroke-width:1.6;stroke-linecap:round;stroke-linejoin:miter;stroke:rgb(13.72549%,12.156863%,12.54902%);stroke-opacity:1;stroke-miterlimit:4;" d="M 44.501087 15.089674 L 44.58913 19.369565 " transform="matrix(0.798611,0,0,0.798611,0,0)"/>
<path style="fill:none;stroke-width:1.6;stroke-linecap:round;stroke-linejoin:miter;stroke:rgb(13.72549%,12.156863%,12.54902%);stroke-opacity:1;stroke-miterlimit:4;" d="M 40.622283 12.389674 L 44.877717 12.6 " transform="matrix(0.798611,0,0,0.798611,0,0)"/>
<path style="fill:none;stroke-width:1.6;stroke-linecap:round;stroke-linejoin:miter;stroke:rgb(13.72549%,12.156863%,12.54902%);stroke-opacity:1;stroke-miterlimit:4;" d="M 25.860326 12.961957 L 22.558696 15.681522 " transform="matrix(0.798611,0,0,0.798611,0,0)"/>
<path style="fill:none;stroke-width:1.6;stroke-linecap:round;stroke-linejoin:miter;stroke:rgb(13.72549%,12.156863%,12.54902%);stroke-opacity:1;stroke-miterlimit:4;" d="M 45.249457 30.678261 L 43.561957 34.61087 " transform="matrix(0.798611,0,0,0.798611,0,0)"/>
<path style="fill:none;stroke-width:1.6;stroke-linecap:round;stroke-linejoin:miter;stroke:rgb(13.72549%,12.156863%,12.54902%);stroke-opacity:1;stroke-miterlimit:4;" d="M 50.082065 38.592391 L 50.801087 42.798913 " transform="matrix(0.798611,0,0,0.798611,0,0)"/>
<path style="fill:none;stroke-width:1.6;stroke-linecap:round;stroke-linejoin:miter;stroke:rgb(13.72549%,12.156863%,12.54902%);stroke-opacity:1;stroke-miterlimit:4;" d="M 50.69837 33.59837 L 52.278261 37.579891 " transform="matrix(0.798611,0,0,0.798611,0,0)"/>
<path style="fill:none;stroke-width:1.6;stroke-linecap:round;stroke-linejoin:miter;stroke:rgb(13.72549%,12.156863%,12.54902%);stroke-opacity:1;stroke-miterlimit:4;" d="M 50.742391 46.677717 L 47.450543 49.411957 " transform="matrix(0.798611,0,0,0.798611,0,0)"/>
<path style="fill:none;stroke-width:1.6;stroke-linecap:round;stroke-linejoin:miter;stroke:rgb(13.72549%,12.156863%,12.54902%);stroke-opacity:1;stroke-miterlimit:4;" d="M 52.601087 50.238587 L 54.811957 46.579891 " transform="matrix(0.798611,0,0,0.798611,0,0)"/>
<path style="fill:none;stroke-width:1.6;stroke-linecap:round;stroke-linejoin:miter;stroke:rgb(13.72549%,12.156863%,12.54902%);stroke-opacity:1;stroke-miterlimit:4;" d="M 43.478804 45.249457 L 44.501087 50.351087 " transform="matrix(0.798611,0,0,0.798611,0,0)"/>
<path style="fill:none;stroke-width:1.6;stroke-linecap:round;stroke-linejoin:miter;stroke:rgb(13.72549%,12.156863%,12.54902%);stroke-opacity:1;stroke-miterlimit:4;" d="M 54.611413 23.341304 L 50.351087 23.018478 " transform="matrix(0.798611,0,0,0.798611,0,0)"/>
<path style="fill:none;stroke-width:1.6;stroke-linecap:round;stroke-linejoin:miter;stroke:rgb(13.72549%,12.156863%,12.54902%);stroke-opacity:1;stroke-miterlimit:4;" d="M 56.357609 40.211413 L 53.080435 42.940761 " transform="matrix(0.798611,0,0,0.798611,0,0)"/>
<path style="fill:none;stroke-width:1.6;stroke-linecap:round;stroke-linejoin:miter;stroke:rgb(13.72549%,12.156863%,12.54902%);stroke-opacity:1;stroke-miterlimit:4;" d="M 47.651087 36.430435 L 45.851087 40.309239 " transform="matrix(0.798611,0,0,0.798611,0,0)"/>
<path style="fill:none;stroke-width:1.6;stroke-linecap:round;stroke-linejoin:miter;stroke:rgb(13.72549%,12.156863%,12.54902%);stroke-opacity:1;stroke-miterlimit:4;" d="M 53.427717 26.197826 L 56.592391 29.078804 " transform="matrix(0.798611,0,0,0.798611,0,0)"/>
<path style="fill:none;stroke-width:1.6;stroke-linecap:round;stroke-linejoin:miter;stroke:rgb(13.72549%,12.156863%,12.54902%);stroke-opacity:1;stroke-miterlimit:4;" d="M 7.747826 5.351087 L 5.028261 8.349457 " transform="matrix(0.798611,0,0,0.798611,0,0)"/>
<path style="fill:none;stroke-width:1.6;stroke-linecap:round;stroke-linejoin:miter;stroke:rgb(13.72549%,12.156863%,12.54902%);stroke-opacity:1;stroke-miterlimit:4;" d="M 14.008696 10.208152 L 10.711957 12.917935 " transform="matrix(0.798611,0,0,0.798611,0,0)"/>
<path style="fill:none;stroke-width:1.6;stroke-linecap:round;stroke-linejoin:miter;stroke:rgb(13.72549%,12.156863%,12.54902%);stroke-opacity:1;stroke-miterlimit:4;" d="M 11.181522 2.538587 L 12.409239 6.642391 " transform="matrix(0.798611,0,0,0.798611,0,0)"/>
<path style="fill:none;stroke-width:1.6;stroke-linecap:round;stroke-linejoin:miter;stroke:rgb(13.72549%,12.156863%,12.54902%);stroke-opacity:1;stroke-miterlimit:4;" d="M 47.748913 30.75163 L 51.999457 31.230978 " transform="matrix(0.798611,0,0,0.798611,0,0)"/>
<path style="fill:none;stroke-width:1.6;stroke-linecap:round;stroke-linejoin:miter;stroke:rgb(13.72549%,12.156863%,12.54902%);stroke-opacity:1;stroke-miterlimit:4;" d="M 6.75 47.807609 L 5.072283 51.740217 " transform="matrix(0.798611,0,0,0.798611,0,0)"/>
<path style="fill:none;stroke-width:1.6;stroke-linecap:round;stroke-linejoin:miter;stroke:rgb(13.72549%,12.156863%,12.54902%);stroke-opacity:1;stroke-miterlimit:4;" d="M 8.290761 52.967935 L 4.998913 55.702174 " transform="matrix(0.798611,0,0,0.798611,0,0)"/>
<path style="fill:none;stroke-width:1.6;stroke-linecap:round;stroke-linejoin:miter;stroke:rgb(13.72549%,12.156863%,12.54902%);stroke-opacity:1;stroke-miterlimit:4;" d="M 6.128804 29.900543 L 9.420652 32.639674 " transform="matrix(0.798611,0,0,0.798611,0,0)"/>
<path style="fill:none;stroke-width:1.6;stroke-linecap:round;stroke-linejoin:miter;stroke:rgb(13.72549%,12.156863%,12.54902%);stroke-opacity:1;stroke-miterlimit:4;" d="M 48.927717 7.121739 L 52.571739 4.871739 " transform="matrix(0.798611,0,0,0.798611,0,0)"/>
<path style="fill:none;stroke-width:1.6;stroke-linecap:round;stroke-linejoin:miter;stroke:rgb(13.72549%,12.156863%,12.54902%);stroke-opacity:1;stroke-miterlimit:4;" d="M 50.219022 9.621196 L 48.800543 13.65163 " transform="matrix(0.798611,0,0,0.798611,0,0)"/>
<path style="fill:none;stroke-width:1.6;stroke-linecap:round;stroke-linejoin:miter;stroke:rgb(13.72549%,12.156863%,12.54902%);stroke-opacity:1;stroke-miterlimit:4;" d="M 0.508696 14.478261 L 4.661413 13.451087 " transform="matrix(0.798611,0,0,0.798611,0,0)"/>
<path style="fill:none;stroke-width:1.6;stroke-linecap:round;stroke-linejoin:miter;stroke:rgb(13.72549%,12.156863%,12.54902%);stroke-opacity:1;stroke-miterlimit:4;" d="M 2.509239 28.907609 L 4.729891 25.248913 " transform="matrix(0.798611,0,0,0.798611,0,0)"/>
<path style="fill:none;stroke-width:1.6;stroke-linecap:round;stroke-linejoin:miter;stroke:rgb(13.72549%,12.156863%,12.54902%);stroke-opacity:1;stroke-miterlimit:4;" d="M 5.561413 18.327717 L 2.279348 21.061957 " transform="matrix(0.798611,0,0,0.798611,0,0)"/>
<path style="fill:none;stroke-width:1.6;stroke-linecap:round;stroke-linejoin:miter;stroke:rgb(13.72549%,12.156863%,12.54902%);stroke-opacity:1;stroke-miterlimit:4;" d="M 7.341848 14.928261 L 9.498913 18.60163 " transform="matrix(0.798611,0,0,0.798611,0,0)"/>
<path style="fill:none;stroke-width:1.6;stroke-linecap:round;stroke-linejoin:miter;stroke:rgb(13.72549%,12.156863%,12.54902%);stroke-opacity:1;stroke-miterlimit:4;" d="M 5.752174 21.101087 L 8.491304 25.630435 " transform="matrix(0.798611,0,0,0.798611,0,0)"/>
<path style="fill:none;stroke-width:1.6;stroke-linecap:round;stroke-linejoin:miter;stroke:rgb(13.72549%,12.156863%,12.54902%);stroke-opacity:1;stroke-miterlimit:4;" d="M 4.01087 32.390217 L 3.218478 36.591848 " transform="matrix(0.798611,0,0,0.798611,0,0)"/>
<path style="fill:none;stroke-width:1.6;stroke-linecap:round;stroke-linejoin:miter;stroke:rgb(13.72549%,12.156863%,12.54902%);stroke-opacity:1;stroke-miterlimit:4;" d="M 9.498913 35.598913 L 5.488043 38.680435 " transform="matrix(0.798611,0,0,0.798611,0,0)"/>
<path style="fill:none;stroke-width:1.6;stroke-linecap:round;stroke-linejoin:miter;stroke:rgb(13.72549%,12.156863%,12.54902%);stroke-opacity:1;stroke-miterlimit:4;" d="M 11.450543 49.91087 L 11.768478 54.171196 " transform="matrix(0.798611,0,0,0.798611,0,0)"/>
<path style="fill:none;stroke-width:1.6;stroke-linecap:round;stroke-linejoin:miter;stroke:rgb(13.72549%,12.156863%,12.54902%);stroke-opacity:1;stroke-miterlimit:4;" d="M 34.747826 12.6 L 30.810326 15.891848 " transform="matrix(0.798611,0,0,0.798611,0,0)"/>
<path style="fill:none;stroke-width:1.6;stroke-linecap:round;stroke-linejoin:miter;stroke:rgb(13.72549%,12.156863%,12.54902%);stroke-opacity:1;stroke-miterlimit:4;" d="M 37.379348 13.270109 L 39.531522 16.967935 " transform="matrix(0.798611,0,0,0.798611,0,0)"/>
<path style="fill:none;stroke-width:1.6;stroke-linecap:round;stroke-linejoin:miter;stroke:rgb(13.72549%,12.156863%,12.54902%);stroke-opacity:1;stroke-miterlimit:4;" d="M 33.309783 17.559783 L 37.129891 19.482065 " transform="matrix(0.798611,0,0,0.798611,0,0)"/>
<path style="fill:none;stroke-width:1.6;stroke-linecap:round;stroke-linejoin:miter;stroke:rgb(13.72549%,12.156863%,12.54902%);stroke-opacity:1;stroke-miterlimit:4;" d="M 28.457609 36.851087 L 25.16087 39.56087 " transform="matrix(0.798611,0,0,0.798611,0,0)"/>
<path style="fill:none;stroke-width:1.6;stroke-linecap:round;stroke-linejoin:miter;stroke:rgb(13.72549%,12.156863%,12.54902%);stroke-opacity:1;stroke-miterlimit:4;" d="M 20.201087 44.70163 L 16.229348 46.281522 " transform="matrix(0.798611,0,0,0.798611,0,0)"/>
<path style="fill:none;stroke-width:1.6;stroke-linecap:round;stroke-linejoin:miter;stroke:rgb(13.72549%,12.156863%,12.54902%);stroke-opacity:1;stroke-miterlimit:4;" d="M 20.000543 50.10163 L 22.001087 54.352174 " transform="matrix(0.798611,0,0,0.798611,0,0)"/>
<path style="fill:none;stroke-width:1.6;stroke-linecap:round;stroke-linejoin:miter;stroke:rgb(13.72549%,12.156863%,12.54902%);stroke-opacity:1;stroke-miterlimit:4;" d="M 36.249457 47.347826 L 40.260326 48.820109 " transform="matrix(0.798611,0,0,0.798611,0,0)"/>
<path style="fill:none;stroke-width:1.6;stroke-linecap:round;stroke-linejoin:miter;stroke:rgb(13.72549%,12.156863%,12.54902%);stroke-opacity:1;stroke-miterlimit:4;" d="M 36.997826 3.101087 L 36.591848 7.478804 " transform="matrix(0.798611,0,0,0.798611,0,0)"/>
<path style="fill:none;stroke-width:1.6;stroke-linecap:round;stroke-linejoin:miter;stroke:rgb(13.72549%,12.156863%,12.54902%);stroke-opacity:1;stroke-miterlimit:4;" d="M 40.852174 41.629891 L 39.800543 45.777717 " transform="matrix(0.798611,0,0,0.798611,0,0)"/>
<path style="fill:none;stroke-width:1.6;stroke-linecap:round;stroke-linejoin:miter;stroke:rgb(13.72549%,12.156863%,12.54902%);stroke-opacity:1;stroke-miterlimit:4;" d="M 36.171196 49.700543 L 32.072283 50.928261 " transform="matrix(0.798611,0,0,0.798611,0,0)"/>
<path style="fill:none;stroke-width:1.6;stroke-linecap:round;stroke-linejoin:miter;stroke:rgb(13.72549%,12.156863%,12.54902%);stroke-opacity:1;stroke-miterlimit:4;" d="M 32.497826 23.600543 L 28.658152 27.728804 " transform="matrix(0.798611,0,0,0.798611,0,0)"/>
<path style="fill:none;stroke-width:1.6;stroke-linecap:round;stroke-linejoin:miter;stroke:rgb(13.72549%,12.156863%,12.54902%);stroke-opacity:1;stroke-miterlimit:4;" d="M 49.95 51.348913 L 51.627717 55.281522 " transform="matrix(0.798611,0,0,0.798611,0,0)"/>
<path style="fill:none;stroke-width:1.6;stroke-linecap:round;stroke-linejoin:miter;stroke:rgb(13.72549%,12.156863%,12.54902%);stroke-opacity:1;stroke-miterlimit:4;" d="M 56.21087 36.528261 L 59.507609 39.238043 " transform="matrix(0.798611,0,0,0.798611,0,0)"/>
<path style="fill:none;stroke-width:1.6;stroke-linecap:round;stroke-linejoin:miter;stroke:rgb(13.72549%,12.156863%,12.54902%);stroke-opacity:1;stroke-miterlimit:4;" d="M 56.959239 46.227717 L 60.26087 48.942391 " transform="matrix(0.798611,0,0,0.798611,0,0)"/>
<path style="fill:none;stroke-width:1.6;stroke-linecap:round;stroke-linejoin:miter;stroke:rgb(13.72549%,12.156863%,12.54902%);stroke-opacity:1;stroke-miterlimit:4;" d="M 54.210326 32.170109 L 58.319022 30.991304 " transform="matrix(0.798611,0,0,0.798611,0,0)"/>
<path style="fill:none;stroke-width:1.6;stroke-linecap:round;stroke-linejoin:miter;stroke:rgb(13.72549%,12.156863%,12.54902%);stroke-opacity:1;stroke-miterlimit:4;" d="M 56.440761 21.409239 L 58.588043 25.102174 " transform="matrix(0.798611,0,0,0.798611,0,0)"/>
<path style="fill:none;stroke-width:1.6;stroke-linecap:round;stroke-linejoin:miter;stroke:rgb(13.72549%,12.156863%,12.54902%);stroke-opacity:1;stroke-miterlimit:4;" d="M 58.108696 14.478261 L 62.261413 13.451087 " transform="matrix(0.798611,0,0,0.798611,0,0)"/>
<path style="fill:none;stroke-width:1.6;stroke-linecap:round;stroke-linejoin:miter;stroke:rgb(13.72549%,12.156863%,12.54902%);stroke-opacity:1;stroke-miterlimit:4;" d="M 58.998913 51.59837 L 55.711957 54.327717 " transform="matrix(0.798611,0,0,0.798611,0,0)"/>
<path style="fill:none;stroke-width:1.6;stroke-linecap:round;stroke-linejoin:miter;stroke:rgb(13.72549%,12.156863%,12.54902%);stroke-opacity:1;stroke-miterlimit:4;" d="M 51.14837 14.55163 L 52.830978 18.479348 " transform="matrix(0.798611,0,0,0.798611,0,0)"/>
<path style="fill:none;stroke-width:1.6;stroke-linecap:round;stroke-linejoin:miter;stroke:rgb(13.72549%,12.156863%,12.54902%);stroke-opacity:1;stroke-miterlimit:4;" d="M 60.329348 42.90163 L 56.152174 43.821196 " transform="matrix(0.798611,0,0,0.798611,0,0)"/>
<path style="fill:none;stroke-width:1.6;stroke-linecap:round;stroke-linejoin:miter;stroke:rgb(13.72549%,12.156863%,12.54902%);stroke-opacity:1;stroke-miterlimit:4;" d="M 50.928261 26.1 L 45.74837 27.352174 " transform="matrix(0.798611,0,0,0.798611,0,0)"/>
<path style="fill:none;stroke-width:1.6;stroke-linecap:round;stroke-linejoin:miter;stroke:rgb(13.72549%,12.156863%,12.54902%);stroke-opacity:1;stroke-miterlimit:4;" d="M 6.070109 11.21087 L 9.60163 8.799457 " transform="matrix(0.798611,0,0,0.798611,0,0)"/>
<path style="fill:none;stroke-width:1.6;stroke-linecap:round;stroke-linejoin:miter;stroke:rgb(13.72549%,12.156863%,12.54902%);stroke-opacity:1;stroke-miterlimit:4;" d="M 45.03913 42.432065 L 48.042391 45.479348 " transform="matrix(0.798611,0,0,0.798611,0,0)"/>
<path style="fill:none;stroke-width:1.6;stroke-linecap:round;stroke-linejoin:miter;stroke:rgb(13.72549%,12.156863%,12.54902%);stroke-opacity:1;stroke-miterlimit:4;" d="M 53.090217 8.657609 L 55.090761 12.438587 " transform="matrix(0.798611,0,0,0.798611,0,0)"/>
<path style="fill:none;stroke-width:1.6;stroke-linecap:round;stroke-linejoin:miter;stroke:rgb(13.72549%,12.156863%,12.54902%);stroke-opacity:1;stroke-miterlimit:4;" d="M 59.057609 17.931522 L 54.802174 17.598913 " transform="matrix(0.798611,0,0,0.798611,0,0)"/>
<path style="fill:none;stroke-width:1.6;stroke-linecap:round;stroke-linejoin:miter;stroke:rgb(13.72549%,12.156863%,12.54902%);stroke-opacity:1;stroke-miterlimit:4;" d="M 26.359239 19.809783 L 27.498913 24.847826 " transform="matrix(0.798611,0,0,0.798611,0,0)"/>
<path style="fill:none;stroke-width:1.6;stroke-linecap:round;stroke-linejoin:miter;stroke:rgb(13.72549%,12.156863%,12.54902%);stroke-opacity:1;stroke-miterlimit:4;" d="M 42.158152 36.41087 L 42.999457 40.597826 " transform="matrix(0.798611,0,0,0.798611,0,0)"/>
<path style="fill:none;stroke-width:1.6;stroke-linecap:round;stroke-linejoin:miter;stroke:rgb(13.72549%,12.156863%,12.54902%);stroke-opacity:1;stroke-miterlimit:4;" d="M 47.21087 17.96087 L 50.957609 20.029891 " transform="matrix(0.798611,0,0,0.798611,0,0)"/>
<path style="fill:none;stroke-width:1.6;stroke-linecap:round;stroke-linejoin:miter;stroke:rgb(13.72549%,12.156863%,12.54902%);stroke-opacity:1;stroke-miterlimit:4;" d="M 35.002174 54.352174 L 31.969565 53.378804 " transform="matrix(0.798611,0,0,0.798611,0,0)"/>
<path style="fill:none;stroke-width:1.6;stroke-linecap:round;stroke-linejoin:miter;stroke:rgb(13.72549%,12.156863%,12.54902%);stroke-opacity:1;stroke-miterlimit:4;" d="M 20.651087 1.848913 L 20.201087 6.099457 " transform="matrix(0.798611,0,0,0.798611,0,0)"/>
<path style="fill:none;stroke-width:1.6;stroke-linecap:round;stroke-linejoin:miter;stroke:rgb(13.72549%,12.156863%,12.54902%);stroke-opacity:1;stroke-miterlimit:4;" d="M 2.000543 5.600543 L 2.99837 10.848913 " transform="matrix(0.798611,0,0,0.798611,0,0)"/>
<path style="fill:none;stroke-width:1.6;stroke-linecap:round;stroke-linejoin:miter;stroke:rgb(13.72549%,12.156863%,12.54902%);stroke-opacity:1;stroke-miterlimit:4;" d="M 56.25 8.1 L 57.741848 4.098913 " transform="matrix(0.798611,0,0,0.798611,0,0)"/>
<path style="fill:none;stroke-width:1.6;stroke-linecap:round;stroke-linejoin:miter;stroke:rgb(13.72549%,12.156863%,12.54902%);stroke-opacity:1;stroke-miterlimit:4;" d="M 47.748913 52.728261 L 45.997826 56.602174 " transform="matrix(0.798611,0,0,0.798611,0,0)"/>
<path style="fill:none;stroke-width:1.6;stroke-linecap:round;stroke-linejoin:miter;stroke:rgb(13.72549%,12.156863%,12.54902%);stroke-opacity:1;stroke-miterlimit:4;" d="M 44.329891 59.771739 L 40.661413 57.580435 " transform="matrix(0.798611,0,0,0.798611,0,0)"/>
<path style="fill:none;stroke-width:1.6;stroke-linecap:round;stroke-linejoin:miter;stroke:rgb(13.72549%,12.156863%,12.54902%);stroke-opacity:1;stroke-miterlimit:4;" d="M 29.499457 55.19837 L 27.709239 60.691304 " transform="matrix(0.798611,0,0,0.798611,0,0)"/>
<path style="fill:none;stroke-width:1.6;stroke-linecap:round;stroke-linejoin:miter;stroke:rgb(13.72549%,12.156863%,12.54902%);stroke-opacity:1;stroke-miterlimit:4;" d="M 21.502174 56.450543 L 24.500543 60.701087 " transform="matrix(0.798611,0,0,0.798611,0,0)"/>
<path style="fill:none;stroke-width:1.6;stroke-linecap:round;stroke-linejoin:miter;stroke:rgb(13.72549%,12.156863%,12.54902%);stroke-opacity:1;stroke-miterlimit:4;" d="M 50.928261 57.370109 L 47.631522 60.079891 " transform="matrix(0.798611,0,0,0.798611,0,0)"/>
<path style="fill:none;stroke-width:1.6;stroke-linecap:round;stroke-linejoin:miter;stroke:rgb(13.72549%,12.156863%,12.54902%);stroke-opacity:1;stroke-miterlimit:4;" d="M 8.530435 55.829348 L 7.601087 60.00163 " transform="matrix(0.798611,0,0,0.798611,0,0)"/>
<path style="fill:none;stroke-width:1.6;stroke-linecap:round;stroke-linejoin:miter;stroke:rgb(13.72549%,12.156863%,12.54902%);stroke-opacity:1;stroke-miterlimit:4;" d="M 15.00163 55.599457 L 11.748913 57.952174 " transform="matrix(0.798611,0,0,0.798611,0,0)"/>
<path style="fill:none;stroke-width:1.6;stroke-linecap:round;stroke-linejoin:miter;stroke:rgb(13.72549%,12.156863%,12.54902%);stroke-opacity:1;stroke-miterlimit:4;" d="M 1.599457 55.398913 L 2.40163 59.600543 " transform="matrix(0.798611,0,0,0.798611,0,0)"/>
<path style="fill:none;stroke-width:1.6;stroke-linecap:round;stroke-linejoin:miter;stroke:rgb(13.72549%,12.156863%,12.54902%);stroke-opacity:1;stroke-miterlimit:4;" d="M 54 60.397826 L 56.21087 56.73913 " transform="matrix(0.798611,0,0,0.798611,0,0)"/>
<path style="fill:none;stroke-width:1.6;stroke-linecap:round;stroke-linejoin:miter;stroke:rgb(13.72549%,12.156863%,12.54902%);stroke-opacity:1;stroke-miterlimit:4;" d="M 33.999457 60.701087 L 33.970109 57.428804 " transform="matrix(0.798611,0,0,0.798611,0,0)"/>
<path style="fill:none;stroke-width:1.6;stroke-linecap:round;stroke-linejoin:miter;stroke:rgb(13.72549%,12.156863%,12.54902%);stroke-opacity:1;stroke-miterlimit:4;" d="M 16.909239 54.141848 L 17.618478 58.34837 " transform="matrix(0.798611,0,0,0.798611,0,0)"/>
<path style="fill:none;stroke-width:1.6;stroke-linecap:round;stroke-linejoin:miter;stroke:rgb(13.72549%,12.156863%,12.54902%);stroke-opacity:1;stroke-miterlimit:4;" d="M 37.149457 55.8 L 38.99837 59.10163 " transform="matrix(0.798611,0,0,0.798611,0,0)"/>
<path style="fill:none;stroke-width:1.6;stroke-linecap:round;stroke-linejoin:miter;stroke:rgb(13.72549%,12.156863%,12.54902%);stroke-opacity:1;stroke-miterlimit:4;" d="M -1.38913 36.528261 L 1.907609 39.238043 " transform="matrix(0.798611,0,0,0.798611,0,0)"/>
<path style="fill:none;stroke-width:1.6;stroke-linecap:round;stroke-linejoin:miter;stroke:rgb(13.72549%,12.156863%,12.54902%);stroke-opacity:1;stroke-miterlimit:4;" d="M -0.640761 46.227717 L 2.66087 48.942391 " transform="matrix(0.798611,0,0,0.798611,0,0)"/>
<path style="fill:none;stroke-width:1.6;stroke-linecap:round;stroke-linejoin:miter;stroke:rgb(13.72549%,12.156863%,12.54902%);stroke-opacity:1;stroke-miterlimit:4;" d="M -3.379891 32.170109 L 0.719022 30.991304 " transform="matrix(0.798611,0,0,0.798611,0,0)"/>
<path style="fill:none;stroke-width:1.6;stroke-linecap:round;stroke-linejoin:miter;stroke:rgb(13.72549%,12.156863%,12.54902%);stroke-opacity:1;stroke-miterlimit:4;" d="M -1.159239 21.409239 L 0.988043 25.102174 " transform="matrix(0.798611,0,0,0.798611,0,0)"/>
<path style="fill:none;stroke-width:1.6;stroke-linecap:round;stroke-linejoin:miter;stroke:rgb(13.72549%,12.156863%,12.54902%);stroke-opacity:1;stroke-miterlimit:4;" d="M 0.508696 14.478261 L 4.661413 13.451087 " transform="matrix(0.798611,0,0,0.798611,0,0)"/>
<path style="fill:none;stroke-width:1.6;stroke-linecap:round;stroke-linejoin:miter;stroke:rgb(13.72549%,12.156863%,12.54902%);stroke-opacity:1;stroke-miterlimit:4;" d="M 1.398913 51.59837 L -1.888043 54.327717 " transform="matrix(0.798611,0,0,0.798611,0,0)"/>
<path style="fill:none;stroke-width:1.6;stroke-linecap:round;stroke-linejoin:miter;stroke:rgb(13.72549%,12.156863%,12.54902%);stroke-opacity:1;stroke-miterlimit:4;" d="M 2.729348 42.90163 L -1.447826 43.821196 " transform="matrix(0.798611,0,0,0.798611,0,0)"/>
<path style="fill:none;stroke-width:1.6;stroke-linecap:round;stroke-linejoin:miter;stroke:rgb(13.72549%,12.156863%,12.54902%);stroke-opacity:1;stroke-miterlimit:4;" d="M 1.457609 17.931522 L -2.797826 17.598913 " transform="matrix(0.798611,0,0,0.798611,0,0)"/>
<path style="fill:none;stroke-width:1.6;stroke-linecap:round;stroke-linejoin:miter;stroke:rgb(13.72549%,12.156863%,12.54902%);stroke-opacity:1;stroke-miterlimit:4;" d="M -1.35 8.1 L 0.141848 4.098913 " transform="matrix(0.798611,0,0,0.798611,0,0)"/>
<path style="fill:none;stroke-width:1.6;stroke-linecap:round;stroke-linejoin:miter;stroke:rgb(13.72549%,12.156863%,12.54902%);stroke-opacity:1;stroke-miterlimit:4;" d="M 44.329891 2.171739 L 40.661413 -0.0195652 " transform="matrix(0.798611,0,0,0.798611,0,0)"/>
<path style="fill:none;stroke-width:1.6;stroke-linecap:round;stroke-linejoin:miter;stroke:rgb(13.72549%,12.156863%,12.54902%);stroke-opacity:1;stroke-miterlimit:4;" d="M 29.499457 -2.40163 L 27.709239 3.091304 " transform="matrix(0.798611,0,0,0.798611,0,0)"/>
<path style="fill:none;stroke-width:1.6;stroke-linecap:round;stroke-linejoin:miter;stroke:rgb(13.72549%,12.156863%,12.54902%);stroke-opacity:1;stroke-miterlimit:4;" d="M 21.502174 -1.149457 L 24.500543 3.101087 " transform="matrix(0.798611,0,0,0.798611,0,0)"/>
<path style="fill:none;stroke-width:1.6;stroke-linecap:round;stroke-linejoin:miter;stroke:rgb(13.72549%,12.156863%,12.54902%);stroke-opacity:1;stroke-miterlimit:4;" d="M 50.928261 -0.229891 L 47.631522 2.479891 " transform="matrix(0.798611,0,0,0.798611,0,0)"/>
<path style="fill:none;stroke-width:1.6;stroke-linecap:round;stroke-linejoin:miter;stroke:rgb(13.72549%,12.156863%,12.54902%);stroke-opacity:1;stroke-miterlimit:4;" d="M 8.530435 -1.770652 L 7.601087 2.40163 " transform="matrix(0.798611,0,0,0.798611,0,0)"/>
<path style="fill:none;stroke-width:1.6;stroke-linecap:round;stroke-linejoin:miter;stroke:rgb(13.72549%,12.156863%,12.54902%);stroke-opacity:1;stroke-miterlimit:4;" d="M 15.00163 -2.000543 L 11.748913 0.352174 " transform="matrix(0.798611,0,0,0.798611,0,0)"/>
<path style="fill:none;stroke-width:1.6;stroke-linecap:round;stroke-linejoin:miter;stroke:rgb(13.72549%,12.156863%,12.54902%);stroke-opacity:1;stroke-miterlimit:4;" d="M 1.599457 -2.201087 L 2.40163 2.000543 " transform="matrix(0.798611,0,0,0.798611,0,0)"/>
<path style="fill:none;stroke-width:1.6;stroke-linecap:round;stroke-linejoin:miter;stroke:rgb(13.72549%,12.156863%,12.54902%);stroke-opacity:1;stroke-miterlimit:4;" d="M 54 2.797826 L 56.21087 -0.86087 " transform="matrix(0.798611,0,0,0.798611,0,0)"/>
<path style="fill:none;stroke-width:1.6;stroke-linecap:round;stroke-linejoin:miter;stroke:rgb(13.72549%,12.156863%,12.54902%);stroke-opacity:1;stroke-miterlimit:4;" d="M 33.999457 3.101087 L 33.970109 -0.171196 " transform="matrix(0.798611,0,0,0.798611,0,0)"/>
<path style="fill:none;stroke-width:1.6;stroke-linecap:round;stroke-linejoin:miter;stroke:rgb(13.72549%,12.156863%,12.54902%);stroke-opacity:1;stroke-miterlimit:4;" d="M 16.909239 -3.458152 L 17.618478 0.74837 " transform="matrix(0.798611,0,0,0.798611,0,0)"/>
<path style="fill:none;stroke-width:1.6;stroke-linecap:round;stroke-linejoin:miter;stroke:rgb(13.72549%,12.156863%,12.54902%);stroke-opacity:1;stroke-miterlimit:4;" d="M 37.149457 -1.8 L 38.99837 1.50163 " transform="matrix(0.798611,0,0,0.798611,0,0)"/>
</g>
<pattern id="pattern0" patternUnits="userSpaceOnUse" width="46" height="46" patternTransform="matrix(1.00022,0,0,1.00022,32.632768,33.959507)">
<use xlink:href="#surface6"/>
</pattern>
<clipPath id="clip1">
  <rect x="0" y="0" width="48" height="48"/>
</clipPath>
<g id="surface7" clip-path="url(#clip1)">
<rect x="0" y="0" width="48" height="48" style="fill:url(#pattern0);stroke:none;"/>
</g>
</defs>
<g id="surface1">
<rect x="0" y="0" width="48" height="48" style="fill:rgb(71.764706%,91.764706%,90.980392%);fill-opacity:1;stroke:none;"/>
<use xlink:href="#surface7" mask="url(#mask0)"/>
</g>
</svg>
