<?xml version="1.0" encoding="UTF-8"?>
<svg xmlns="http://www.w3.org/2000/svg" xmlns:xlink="http://www.w3.org/1999/xlink" width="48px" height="px" viewBox="0 0 48 48" version="1.1">
<defs>
<filter id="alpha" filterUnits="objectBoundingBox" x="0%" y="0%" width="100%" height="100%">
  <feColorMatrix type="matrix" in="SourceGraphic" values="0 0 0 0 1 0 0 0 0 1 0 0 0 0 1 0 0 0 1 0"/>
</filter>
<mask id="mask0">
  <g filter="url(#alpha)">
<rect x="0" y="0" width="48" height="48" style="fill:rgb(0%,0%,0%);fill-opacity:0.301961;stroke:none;"/>
  </g>
</mask>
<clipPath id="clip2">
  <rect x="0" y="0" width="16" height="18"/>
</clipPath>
<g id="surface6" clip-path="url(#clip2)">
<path style=" stroke:none;fill-rule:nonzero;fill:rgb(0%,0%,0%);fill-opacity:1;" d="M 4.292969 3.152344 C 4.3125 3.136719 4.320312 3.105469 4.3125 3.078125 L 4.25 2.871094 C 4.550781 2.808594 4.816406 3.074219 4.921875 3.199219 C 4.949219 3.230469 5 3.230469 5.027344 3.199219 C 5.101562 3.105469 5.21875 2.90625 5.183594 2.648438 C 5.132812 2.246094 4.738281 1.964844 4.546875 1.847656 C 4.5 1.820312 4.5 1.753906 4.546875 1.726562 C 4.914062 1.519531 6.195312 0.929688 7.417969 1.9375 C 7.464844 1.976562 7.441406 2.050781 7.386719 2.058594 C 7.1875 2.089844 6.859375 2.179688 6.714844 2.496094 C 6.550781 2.855469 6.742188 3.160156 6.847656 3.289062 C 6.875 3.324219 6.867188 3.371094 6.832031 3.394531 C 6.695312 3.476562 6.417969 3.683594 6.410156 4.027344 C 6.402344 4.308594 6.527344 4.492188 6.601562 4.582031 C 6.632812 4.613281 6.625 4.660156 6.589844 4.6875 C 6.503906 4.746094 6.367188 4.875 6.335938 5.042969 C 6.316406 5.164062 6.351562 5.292969 6.398438 5.398438 C 6.421875 5.457031 6.367188 5.515625 6.308594 5.488281 C 6.203125 5.445312 6.078125 5.40625 5.957031 5.429688 C 5.789062 5.457031 5.664062 5.597656 5.605469 5.6875 C 5.582031 5.71875 5.53125 5.726562 5.5 5.699219 C 5.414062 5.621094 5.234375 5.496094 4.953125 5.503906 C 4.613281 5.515625 4.410156 5.789062 4.328125 5.929688 C 4.304688 5.964844 4.257812 5.972656 4.226562 5.945312 C 4.097656 5.84375 3.796875 5.644531 3.441406 5.808594 C 3.128906 5.957031 3.035156 6.289062 3.011719 6.488281 C 3.003906 6.550781 2.925781 6.570312 2.890625 6.523438 C 1.894531 5.289062 2.476562 3.988281 2.683594 3.613281 C 2.707031 3.566406 2.773438 3.566406 2.800781 3.613281 C 2.914062 3.808594 3.191406 4.207031 3.59375 4.261719 C 3.851562 4.296875 4.042969 4.179688 4.132812 4.101562 C 4.167969 4.074219 4.167969 4.023438 4.132812 3.996094 C 4.011719 3.886719 3.75 3.617188 3.8125 3.3125 L 4.019531 3.378906 C 4.046875 3.386719 4.074219 3.378906 4.09375 3.355469 C 4.160156 3.269531 4.246094 3.195312 4.292969 3.152344 Z M 4.292969 3.152344 "/>
<path style=" stroke:none;fill-rule:nonzero;fill:rgb(0%,0%,0%);fill-opacity:1;" d="M 12.503906 12.441406 C 12.519531 12.464844 12.550781 12.472656 12.578125 12.464844 L 12.78125 12.398438 C 12.84375 12.703125 12.582031 12.972656 12.460938 13.078125 C 12.425781 13.109375 12.425781 13.160156 12.460938 13.1875 C 12.554688 13.261719 12.746094 13.378906 13 13.347656 C 13.402344 13.292969 13.679688 12.890625 13.792969 12.699219 C 13.820312 12.652344 13.886719 12.652344 13.910156 12.699219 C 14.117188 13.070312 14.699219 14.371094 13.703125 15.609375 C 13.667969 15.652344 13.59375 15.632812 13.585938 15.574219 C 13.554688 15.371094 13.464844 15.042969 13.152344 14.894531 C 12.796875 14.730469 12.496094 14.925781 12.371094 15.03125 C 12.335938 15.058594 12.289062 15.046875 12.265625 15.011719 C 12.1875 14.875 11.980469 14.597656 11.640625 14.589844 C 11.363281 14.578125 11.179688 14.707031 11.09375 14.78125 C 11.0625 14.808594 11.015625 14.804688 10.992188 14.769531 C 10.929688 14.683594 10.804688 14.542969 10.636719 14.511719 C 10.515625 14.492188 10.390625 14.527344 10.289062 14.574219 C 10.226562 14.601562 10.171875 14.542969 10.195312 14.480469 C 10.242188 14.378906 10.277344 14.25 10.257812 14.128906 C 10.226562 13.957031 10.089844 13.832031 10.003906 13.769531 C 9.96875 13.746094 9.964844 13.699219 9.992188 13.664062 C 10.066406 13.578125 10.191406 13.394531 10.183594 13.109375 C 10.171875 12.769531 9.898438 12.558594 9.765625 12.476562 C 9.726562 12.457031 9.71875 12.40625 9.746094 12.375 C 9.847656 12.246094 10.042969 11.941406 9.878906 11.582031 C 9.734375 11.265625 9.410156 11.171875 9.207031 11.144531 C 9.148438 11.136719 9.128906 11.058594 9.175781 11.023438 C 10.394531 10.015625 11.679688 10.601562 12.050781 10.8125 C 12.097656 10.839844 12.097656 10.90625 12.050781 10.933594 C 11.859375 11.046875 11.460938 11.328125 11.410156 11.734375 C 11.375 11.992188 11.492188 12.1875 11.566406 12.28125 C 11.59375 12.316406 11.644531 12.316406 11.671875 12.28125 C 11.777344 12.15625 12.046875 11.890625 12.34375 11.957031 L 12.28125 12.164062 C 12.273438 12.191406 12.28125 12.222656 12.304688 12.238281 C 12.390625 12.308594 12.464844 12.394531 12.503906 12.445312 Z M 12.503906 12.441406 "/>
<path style=" stroke:none;fill-rule:nonzero;fill:rgb(0%,0%,0%);fill-opacity:1;" d="M 13.1875 3.578125 L 13.742188 3.285156 C 13.894531 3.203125 14.074219 3.335938 14.042969 3.507812 L 13.941406 4.128906 C 13.929688 4.199219 13.953125 4.269531 14 4.316406 L 14.449219 4.757812 C 14.570312 4.882812 14.503906 5.097656 14.332031 5.121094 L 13.714844 5.210938 C 13.644531 5.21875 13.585938 5.265625 13.554688 5.324219 L 13.28125 5.890625 C 13.203125 6.050781 12.980469 6.050781 12.902344 5.890625 L 12.625 5.324219 C 12.597656 5.265625 12.539062 5.21875 12.46875 5.210938 L 11.851562 5.121094 C 11.679688 5.09375 11.609375 4.878906 11.734375 4.757812 L 12.183594 4.316406 C 12.230469 4.269531 12.253906 4.199219 12.242188 4.128906 L 12.136719 3.507812 C 12.109375 3.335938 12.289062 3.203125 12.441406 3.285156 L 12.992188 3.578125 C 13.054688 3.609375 13.128906 3.609375 13.1875 3.578125 Z M 13.1875 3.578125 "/>
<path style=" stroke:none;fill-rule:nonzero;fill:rgb(0%,0%,0%);fill-opacity:1;" d="M 3.339844 12.183594 L 3.429688 11.746094 C 3.457031 11.625 3.609375 11.585938 3.691406 11.683594 L 3.976562 12.019531 C 4.007812 12.058594 4.054688 12.074219 4.105469 12.070312 L 4.542969 12.023438 C 4.664062 12.011719 4.75 12.144531 4.683594 12.253906 L 4.457031 12.632812 C 4.429688 12.675781 4.425781 12.726562 4.449219 12.773438 L 4.628906 13.179688 C 4.675781 13.292969 4.578125 13.414062 4.457031 13.386719 L 4.03125 13.285156 C 3.980469 13.273438 3.933594 13.285156 3.894531 13.316406 L 3.566406 13.617188 C 3.476562 13.703125 3.332031 13.640625 3.320312 13.519531 L 3.285156 13.074219 C 3.28125 13.023438 3.253906 12.980469 3.210938 12.957031 L 2.832031 12.734375 C 2.722656 12.671875 2.734375 12.511719 2.847656 12.464844 L 3.253906 12.292969 C 3.300781 12.273438 3.335938 12.234375 3.34375 12.1875 Z M 3.339844 12.183594 "/>
</g>
<pattern id="pattern0" patternUnits="userSpaceOnUse" width="16" height="18" patternTransform="matrix(1.025884,-0.218058,0.215366,1.013219,152.057508,-29.277584)">
<use xlink:href="#surface6"/>
</pattern>
<clipPath id="clip1">
  <rect x="0" y="0" width="48" height="48"/>
</clipPath>
<g id="surface7" clip-path="url(#clip1)">
<rect x="0" y="0" width="48" height="48" style="fill:url(#pattern0);stroke:none;"/>
</g>
</defs>
<g id="surface1">
<rect x="0" y="0" width="48" height="48" style="fill:rgb(40%,17.647059%,56.862745%);fill-opacity:1;stroke:none;"/>
<use xlink:href="#surface7" mask="url(#mask0)"/>
</g>
</svg>
