<?xml version="1.0" encoding="UTF-8"?>
<svg xmlns="http://www.w3.org/2000/svg" xmlns:xlink="http://www.w3.org/1999/xlink" width="48px" height="px" viewBox="0 0 48 34" version="1.1">
<g id="surface1">
<path style=" stroke:none;fill-rule:nonzero;fill:rgb(3.921569%,4.705882%,10.588235%);fill-opacity:1;" d="M 27.359375 24.59375 L 28.257812 24.59375 L 32.375 30.5 L 32.425781 30.5 L 32.425781 24.59375 L 33.3125 24.59375 L 33.3125 31.996094 L 32.414062 31.996094 L 28.300781 26.089844 L 28.25 26.089844 L 28.25 31.996094 L 27.359375 31.996094 Z M 27.359375 24.59375 "/>
<path style=" stroke:none;fill-rule:nonzero;fill:rgb(3.921569%,4.705882%,10.588235%);fill-opacity:1;" d="M 34.5625 24.59375 L 35.550781 24.59375 L 38.402344 30.84375 L 41.253906 24.59375 L 42.242188 24.59375 L 42.242188 31.996094 L 41.351562 31.996094 L 41.351562 26.378906 L 41.300781 26.378906 L 38.738281 31.996094 L 38.066406 31.996094 L 35.507812 26.371094 L 35.457031 26.371094 L 35.457031 31.996094 L 34.5625 31.996094 Z M 34.5625 24.59375 "/>
<path style=" stroke:none;fill-rule:nonzero;fill:rgb(3.921569%,4.705882%,10.588235%);fill-opacity:1;" d="M 43.183594 30.304688 L 43.917969 29.957031 C 44.117188 30.75 44.835938 31.296875 45.644531 31.273438 C 46.421875 31.273438 47.085938 30.84375 47.085938 30 C 47.085938 29.238281 46.550781 28.902344 45.691406 28.558594 L 45.210938 28.371094 C 44.136719 27.933594 43.484375 27.328125 43.484375 26.367188 C 43.484375 25.21875 44.40625 24.488281 45.597656 24.488281 C 46.589844 24.457031 47.488281 25.082031 47.808594 26.035156 L 47.125 26.386719 C 46.835938 25.722656 46.359375 25.3125 45.613281 25.3125 C 44.910156 25.3125 44.375 25.707031 44.375 26.378906 C 44.375 26.898438 44.683594 27.308594 45.554688 27.648438 L 46.050781 27.847656 C 47.25 28.332031 48.003906 28.871094 48.003906 30.007812 C 48.003906 31.375 46.882812 32.105469 45.644531 32.105469 C 44.410156 32.105469 43.433594 31.363281 43.183594 30.300781 Z M 43.183594 30.304688 "/>
<path style=" stroke:none;fill-rule:nonzero;fill:rgb(3.921569%,4.705882%,10.588235%);fill-opacity:1;" d="M 0 28.296875 C 0 26.035156 1.726562 24.488281 3.804688 24.488281 C 5.882812 24.488281 7.605469 26.035156 7.605469 28.296875 C 7.605469 30.5625 5.871094 32.109375 3.804688 32.109375 C 1.738281 32.109375 0 30.5625 0 28.296875 Z M 5.921875 28.296875 C 5.921875 26.933594 4.960938 26.054688 3.800781 26.054688 C 2.644531 26.054688 1.679688 26.929688 1.679688 28.296875 C 1.679688 29.667969 2.644531 30.542969 3.800781 30.542969 C 4.960938 30.542969 5.921875 29.667969 5.921875 28.296875 Z M 5.921875 28.296875 "/>
<path style=" stroke:none;fill-rule:nonzero;fill:rgb(3.921569%,4.705882%,10.588235%);fill-opacity:1;" d="M 14.308594 29.289062 C 14.308594 31.179688 12.964844 32.109375 11.75 32.109375 C 10.800781 32.109375 10.242188 31.585938 10.148438 31.390625 L 10.117188 31.390625 L 10.117188 33.988281 L 8.519531 33.988281 L 8.519531 26.578125 L 10.117188 26.578125 L 10.117188 27.195312 L 10.148438 27.195312 C 10.230469 27 10.789062 26.476562 11.75 26.476562 C 12.960938 26.476562 14.308594 27.40625 14.308594 29.292969 Z M 12.738281 29.289062 C 12.71875 28.550781 12.109375 27.964844 11.375 27.988281 C 10.640625 28.007812 10.0625 28.621094 10.082031 29.367188 C 10.105469 30.09375 10.695312 30.671875 11.417969 30.667969 C 12.136719 30.679688 12.730469 30.101562 12.742188 29.371094 C 12.742188 29.34375 12.742188 29.316406 12.742188 29.289062 Z M 12.738281 29.289062 "/>
<path style=" stroke:none;fill-rule:nonzero;fill:rgb(3.921569%,4.705882%,10.588235%);fill-opacity:1;" d="M 20.140625 29.917969 L 16.320312 29.917969 C 16.535156 30.503906 17.074219 30.792969 17.789062 30.792969 C 18.253906 30.808594 18.710938 30.660156 19.082031 30.375 L 19.804688 31.140625 C 19.359375 31.703125 18.59375 32.109375 17.613281 32.109375 C 16.125 32.109375 14.78125 31.085938 14.78125 29.300781 C 14.78125 27.519531 16.132812 26.472656 17.519531 26.472656 C 18.90625 26.472656 20.480469 27.433594 20.140625 29.921875 Z M 16.285156 28.757812 L 18.738281 28.757812 C 18.621094 28.132812 18.074219 27.828125 17.539062 27.828125 C 16.957031 27.800781 16.433594 28.191406 16.285156 28.757812 Z M 16.285156 28.757812 "/>
<path style=" stroke:none;fill-rule:nonzero;fill:rgb(3.921569%,4.705882%,10.588235%);fill-opacity:1;" d="M 26.128906 28.808594 L 26.128906 32 L 24.527344 32 L 24.527344 29.089844 C 24.527344 28.414062 24.1875 27.910156 23.523438 27.910156 C 22.859375 27.910156 22.53125 28.414062 22.53125 29.089844 L 22.53125 32 L 20.929688 32 L 20.929688 26.574219 L 22.53125 26.574219 L 22.53125 27.261719 C 22.832031 26.804688 23.359375 26.46875 24.132812 26.46875 C 25.207031 26.472656 26.128906 27.152344 26.128906 28.808594 Z M 26.128906 28.808594 "/>
<path style=" stroke:none;fill-rule:nonzero;fill:rgb(3.921569%,4.705882%,10.588235%);fill-opacity:1;" d="M 19.734375 11.097656 C 18.5 9.757812 17.382812 8.316406 16.394531 6.785156 C 16.058594 6.261719 15.761719 5.714844 15.503906 5.148438 C 13.609375 8.730469 14.117188 13.125 16.773438 16.167969 C 16.886719 15.121094 17.992188 13.238281 19.734375 11.097656 Z M 19.734375 11.097656 "/>
<path style=" stroke:none;fill-rule:nonzero;fill:rgb(3.921569%,4.705882%,10.588235%);fill-opacity:1;" d="M 22.65625 14.046875 C 20.535156 15.808594 18.675781 16.921875 17.632812 17.035156 C 20.652344 19.71875 25.003906 20.230469 28.550781 18.316406 C 27.726562 17.925781 26.9375 17.464844 26.199219 16.929688 C 24.957031 16.050781 23.773438 15.085938 22.65625 14.046875 Z M 22.65625 14.046875 "/>
<path style=" stroke:none;fill-rule:nonzero;fill:rgb(3.921569%,4.705882%,10.588235%);fill-opacity:1;" d="M 25.34375 5.429688 C 27.464844 3.667969 29.328125 2.554688 30.371094 2.441406 C 27.351562 -0.242188 23 -0.753906 19.453125 1.164062 C 20.277344 1.550781 21.0625 2.015625 21.804688 2.542969 C 23.046875 3.425781 24.230469 4.390625 25.347656 5.429688 Z M 25.34375 5.429688 "/>
<path style=" stroke:none;fill-rule:nonzero;fill:rgb(3.921569%,4.705882%,10.588235%);fill-opacity:1;" d="M 31.226562 3.308594 C 31.117188 4.359375 30.011719 6.242188 28.265625 8.386719 C 29.5 9.722656 30.617188 11.164062 31.605469 12.695312 C 31.941406 13.21875 32.238281 13.765625 32.496094 14.332031 C 34.390625 10.75 33.886719 6.359375 31.226562 3.308594 Z M 31.226562 3.308594 "/>
<path style=" stroke:none;fill-rule:nonzero;fill:rgb(3.921569%,4.705882%,10.588235%);fill-opacity:1;" d="M 24 6.605469 C 20.6875 3.582031 17.699219 1.84375 16.941406 2.613281 C 16.0625 3.503906 18.507812 7.410156 22.410156 11.347656 C 22.945312 11.890625 23.476562 12.398438 24 12.878906 Z M 24 6.605469 "/>
<path style=" stroke:none;fill-rule:nonzero;fill:rgb(3.921569%,4.705882%,10.588235%);fill-opacity:1;" d="M 27.105469 9.742188 C 26.628906 10.269531 26.128906 10.808594 25.59375 11.347656 C 25.058594 11.886719 24.527344 12.394531 24.003906 12.875 C 27.316406 15.894531 30.304688 17.632812 31.0625 16.867188 C 31.820312 16.097656 30.097656 13.082031 27.105469 9.738281 Z M 27.105469 9.742188 "/>
</g>
</svg>
