<?xml version="1.0" encoding="UTF-8"?>
<svg xmlns="http://www.w3.org/2000/svg" xmlns:xlink="http://www.w3.org/1999/xlink" width="48px" height="px" viewBox="0 0 48 48" version="1.1">
<defs>
<clipPath id="clip1">
  <path d="M 3.015625 2.132812 L 45.722656 2.132812 L 45.722656 44.371094 L 3.015625 44.371094 Z M 3.015625 2.132812 "/>
</clipPath>
<clipPath id="clip2">
  <path d="M 3.015625 18 L 45.722656 18 L 45.722656 43 L 3.015625 43 Z M 3.015625 18 "/>
</clipPath>
<clipPath id="clip3">
  <path d="M 3.015625 28 L 45.722656 28 L 45.722656 44.371094 L 3.015625 44.371094 Z M 3.015625 28 "/>
</clipPath>
<clipPath id="clip4">
  <path d="M 3.015625 35 L 45.722656 35 L 45.722656 44.371094 L 3.015625 44.371094 Z M 3.015625 35 "/>
</clipPath>
<clipPath id="clip5">
  <path d="M 3.015625 2.132812 L 45.722656 2.132812 L 45.722656 44.371094 L 3.015625 44.371094 Z M 3.015625 2.132812 "/>
</clipPath>
<filter id="alpha" filterUnits="objectBoundingBox" x="0%" y="0%" width="100%" height="100%">
  <feColorMatrix type="matrix" in="SourceGraphic" values="0 0 0 0 1 0 0 0 0 1 0 0 0 0 1 0 0 0 1 0"/>
</filter>
<mask id="mask0">
  <g filter="url(#alpha)">
<rect x="0" y="0" width="48" height="48" style="fill:rgb(0%,0%,0%);fill-opacity:0.4;stroke:none;"/>
  </g>
</mask>
<clipPath id="clip6">
  <rect x="0" y="0" width="49" height="48"/>
</clipPath>
<g id="surface5" clip-path="url(#clip6)">
<path style=" stroke:none;fill-rule:nonzero;fill:rgb(96.862745%,94.117647%,82.352941%);fill-opacity:1;" d="M 47.820312 7.03125 C 47.820312 10.914062 44.636719 14.0625 40.710938 14.0625 C 36.785156 14.0625 33.601562 10.914062 33.601562 7.03125 C 33.601562 3.148438 36.785156 0 40.710938 0 C 44.636719 0 47.820312 3.148438 47.820312 7.03125 Z M 47.820312 7.03125 "/>
</g>
<mask id="mask1">
  <g filter="url(#alpha)">
<rect x="0" y="0" width="48" height="48" style="fill:rgb(0%,0%,0%);fill-opacity:0.4;stroke:none;"/>
  </g>
</mask>
<clipPath id="clip7">
  <rect x="0" y="0" width="49" height="48"/>
</clipPath>
<g id="surface8" clip-path="url(#clip7)">
<path style=" stroke:none;fill-rule:nonzero;fill:rgb(96.862745%,94.117647%,82.352941%);fill-opacity:1;" d="M 46.839844 7.03125 C 46.839844 10.378906 44.097656 13.09375 40.710938 13.09375 C 37.324219 13.09375 34.578125 10.378906 34.578125 7.03125 C 34.578125 3.683594 37.324219 0.964844 40.710938 0.964844 C 44.097656 0.964844 46.839844 3.683594 46.839844 7.03125 Z M 46.839844 7.03125 "/>
</g>
<clipPath id="clip8">
  <path d="M 35 2.132812 L 45.722656 2.132812 L 45.722656 13 L 35 13 Z M 35 2.132812 "/>
</clipPath>
</defs>
<g id="surface1">
<g clip-path="url(#clip1)" clip-rule="nonzero">
<path style=" stroke:none;fill-rule:nonzero;fill:rgb(24.313725%,15.294118%,41.960784%);fill-opacity:1;" d="M 3.015625 2.132812 L 45.722656 2.132812 L 45.722656 44.371094 L 3.015625 44.371094 Z M 3.015625 2.132812 "/>
</g>
<path style=" stroke:none;fill-rule:nonzero;fill:rgb(38.823529%,25.882353%,55.686275%);fill-opacity:1;" d="M 5.988281 19.707031 C 6.152344 17.667969 5.664062 15.960938 5.238281 13.988281 C 7.875 14.007812 10.769531 13.832031 13.402344 13.855469 C 12.886719 15.707031 12.574219 17.59375 12.386719 19.472656 "/>
<g clip-path="url(#clip2)" clip-rule="nonzero">
<path style=" stroke:none;fill-rule:nonzero;fill:rgb(38.823529%,25.882353%,55.686275%);fill-opacity:1;" d="M 28.09375 25.035156 C 26.9375 24.726562 25.800781 24.34375 24.691406 23.890625 C 22.015625 22.792969 19.652344 21.09375 17.023438 19.898438 C 13.21875 18.171875 8.632812 17.429688 4.90625 19.3125 C 3.441406 20.054688 2.136719 21.230469 1.570312 22.761719 C 1.203125 23.742188 1.160156 24.808594 1.117188 25.855469 C 0.945312 30.296875 0.769531 34.738281 0.59375 39.179688 C 7.375 41.46875 14.789062 39.503906 21.949219 39.683594 C 29.769531 39.878906 37.476562 42.667969 45.257812 41.855469 C 45.378906 41.84375 45.140625 38.566406 45.140625 38.265625 C 45.148438 36.589844 45.632812 34.960938 46.074219 33.359375 C 46.636719 31.308594 47.140625 29.125 46.542969 27.082031 C 46.5 26.925781 43.515625 26.890625 43.195312 26.867188 C 42.03125 26.78125 40.871094 26.6875 39.710938 26.585938 C 37.53125 26.390625 35.359375 26.144531 33.1875 25.941406 C 31.46875 25.78125 29.761719 25.480469 28.09375 25.035156 Z M 28.09375 25.035156 "/>
</g>
<path style=" stroke:none;fill-rule:nonzero;fill:rgb(45.098039%,30.588235%,60.784314%);fill-opacity:1;" d="M 9.578125 20.996094 C 9.585938 21.96875 9.183594 22.90625 8.804688 23.898438 C 8.4375 24.855469 8.191406 25.945312 8.609375 26.878906 C 8.863281 27.4375 9.324219 27.878906 9.828125 28.234375 C 10.917969 29 12.226562 29.171875 13.410156 29.753906 C 14.59375 30.332031 15.660156 31.132812 16.53125 32.109375 C 16.835938 32.453125 17.148438 32.835938 17.589844 32.96875 C 17.96875 33.085938 18.378906 32.996094 18.765625 32.90625 C 20.453125 32.515625 22.140625 32.125 23.832031 31.730469 C 23.675781 31.769531 22.003906 30.003906 21.746094 29.808594 C 20.945312 29.1875 20.082031 28.644531 19.179688 28.183594 C 17.398438 27.273438 15.453125 26.675781 13.503906 26.296875 C 12.832031 26.164062 12.113281 26.007812 11.652344 25.507812 C 10.96875 24.765625 11.136719 23.625 11.1875 22.625 C 11.230469 21.871094 11.183594 21.050781 10.933594 20.332031 C 10.765625 19.847656 10.484375 19.070312 10.039062 18.777344 C 9.640625 18.515625 9.117188 18.59375 8.652344 18.683594 C 8.773438 18.660156 9.152344 19.390625 9.203125 19.492188 C 9.46875 20.011719 9.574219 20.507812 9.578125 20.996094 Z M 9.578125 20.996094 "/>
<g clip-path="url(#clip3)" clip-rule="nonzero">
<path style=" stroke:none;fill-rule:nonzero;fill:rgb(29.411765%,18.823529%,47.843137%);fill-opacity:1;" d="M 47.957031 34.832031 C 47.90625 34.421875 47.796875 34.011719 47.613281 33.59375 C 47.1875 32.632812 46.394531 31.882812 45.570312 31.222656 C 43.835938 29.835938 41.800781 29.074219 39.578125 28.847656 C 37.265625 28.613281 31.917969 29.003906 29.679688 29.621094 C 26.769531 30.417969 23.796875 30.902344 20.839844 31.480469 C 17.777344 32.074219 15.0625 32.496094 11.949219 32.746094 C 7.664062 33.085938 2.21875 33.652344 1.753906 33.644531 C 1.292969 38.011719 0.574219 41.539062 0.113281 45.90625 C 4.261719 48.136719 9.238281 48.277344 13.921875 47.730469 C 18.609375 47.179688 23.222656 46 27.9375 45.773438 C 34.328125 45.46875 40.917969 46.914062 47.042969 45.070312 C 47.109375 45.046875 47.085938 42.230469 47.105469 41.945312 C 47.175781 40.90625 47.300781 39.871094 47.472656 38.84375 C 47.703125 37.480469 48.128906 36.175781 47.957031 34.832031 Z M 47.957031 34.832031 "/>
</g>
<g clip-path="url(#clip4)" clip-rule="nonzero">
<path style=" stroke:none;fill-rule:nonzero;fill:rgb(13.333333%,8.627451%,27.843137%);fill-opacity:1;" d="M 0.00390625 39.84375 C 7.304688 36.367188 15.527344 34.996094 23.625 35.25 C 31.726562 35.503906 39.714844 37.34375 47.351562 40.023438 C 47.414062 41.730469 47.585938 43.421875 47.648438 45.128906 C 38.527344 46.464844 29.300781 47.804688 20.117188 46.988281 C 13.441406 46.394531 6.820312 44.664062 0.136719 45.136719 C 0.136719 43.375 0.00390625 41.609375 0.00390625 39.84375 Z M 0.00390625 39.84375 "/>
</g>
<g clip-path="url(#clip5)" clip-rule="nonzero">
<use xlink:href="#surface5" mask="url(#mask0)"/>
<use xlink:href="#surface8" mask="url(#mask1)"/>
</g>
<g clip-path="url(#clip8)" clip-rule="nonzero">
<path style=" stroke:none;fill-rule:nonzero;fill:rgb(96.862745%,94.117647%,82.352941%);fill-opacity:1;" d="M 46.207031 7.03125 C 46.207031 10.03125 43.746094 12.46875 40.710938 12.46875 C 37.675781 12.46875 35.214844 10.03125 35.214844 7.03125 C 35.214844 4.027344 37.675781 1.59375 40.710938 1.59375 C 43.746094 1.59375 46.207031 4.027344 46.207031 7.03125 Z M 46.207031 7.03125 "/>
</g>
<path style=" stroke:none;fill-rule:nonzero;fill:rgb(29.411765%,18.823529%,47.843137%);fill-opacity:1;" d="M 5.175781 34.066406 C 4.878906 33.15625 4.660156 32.21875 4.535156 31.269531 C 4.351562 29.90625 5.609375 28.664062 6.957031 29.417969 C 7.640625 29.800781 7.847656 30.542969 8.0625 31.289062 C 8.273438 32.03125 8.339844 32.8125 8.546875 33.558594 C 7.570312 34.050781 6.273438 34.105469 5.175781 34.066406 Z M 5.175781 34.066406 "/>
<path style=" stroke:none;fill-rule:nonzero;fill:rgb(38.823529%,25.882353%,55.686275%);fill-opacity:1;" d="M 39.757812 27.039062 C 39.863281 26.425781 39.800781 25.800781 39.8125 25.179688 C 39.832031 24.210938 40.371094 22.667969 41.6875 23.011719 C 42.367188 23.1875 42.710938 23.832031 42.808594 24.457031 C 42.949219 25.339844 42.976562 26.242188 42.898438 27.132812 C 41.957031 27.382812 40.714844 27.210938 39.757812 27.039062 Z M 39.757812 27.039062 "/>
<path style=" stroke:none;fill-rule:nonzero;fill:rgb(29.411765%,18.823529%,47.843137%);fill-opacity:1;" d="M 10.007812 34.640625 C 9.949219 32.597656 10.144531 30.355469 10.214844 28.210938 C 10.554688 28.117188 11.019531 28.078125 11.246094 27.816406 C 11.472656 27.558594 11.648438 27.234375 11.894531 26.972656 C 12.289062 26.550781 12.402344 26.585938 12.757812 27.027344 C 12.914062 27.222656 13.0625 27.628906 13.253906 27.765625 C 13.476562 27.921875 14.15625 27.988281 14.425781 28.039062 C 14.425781 28.039062 14.214844 33.304688 14.15625 34.332031 "/>
<path style=" stroke:none;fill-rule:nonzero;fill:rgb(38.823529%,25.882353%,55.686275%);fill-opacity:1;" d="M 7.898438 14.578125 C 7.839844 13.164062 7.464844 11.761719 7.335938 11.066406 C 8.558594 11.199219 9.863281 11.101562 11.09375 11.078125 C 10.761719 12.328125 10.65625 13.609375 10.554688 14.898438 "/>
<path style=" stroke:none;fill-rule:nonzero;fill:rgb(38.823529%,25.882353%,55.686275%);fill-opacity:1;" d="M 8.242188 13.386719 C 7.4375 13.578125 5.242188 13.347656 4.519531 13.011719 C 4.871094 13.726562 4.882812 14.589844 4.550781 15.3125 C 5 15.246094 5.464844 15.296875 5.886719 15.460938 C 6.722656 14.820312 7.71875 14.378906 8.761719 14.191406 "/>
<path style=" stroke:none;fill-rule:nonzero;fill:rgb(38.823529%,25.882353%,55.686275%);fill-opacity:1;" d="M 10.117188 13.335938 C 11.0625 13.574219 12.949219 13.382812 13.808594 12.972656 C 13.675781 13.546875 13.519531 14.757812 13.863281 15.238281 C 13.230469 15.277344 12.519531 15.429688 12.042969 15.84375 C 11.132812 15.378906 10.546875 14.535156 9.554688 14.289062 "/>
<path style=" stroke:none;fill-rule:nonzero;fill:rgb(38.823529%,25.882353%,55.686275%);fill-opacity:1;" d="M 9.347656 6.960938 C 9.953125 8.769531 11.09375 11.078125 12.140625 11.5 C 10.566406 11.445312 7.164062 11.414062 6.464844 11.535156 C 7.335938 11.066406 8.761719 8.660156 9.347656 6.960938 Z M 9.347656 6.960938 "/>
<path style=" stroke:none;fill-rule:nonzero;fill:rgb(24.313725%,15.294118%,41.960784%);fill-opacity:1;" d="M 8.8125 18.5 C 8.691406 18.097656 8.625 17.675781 8.613281 17.253906 C 8.609375 17.054688 8.621094 16.851562 8.683594 16.664062 C 8.785156 16.367188 9.125 16.171875 9.460938 16.296875 C 9.875 16.449219 9.820312 16.925781 9.835938 17.273438 C 9.851562 17.671875 9.835938 18.070312 9.785156 18.46875 "/>
<path style=" stroke:none;fill-rule:nonzero;fill:rgb(24.313725%,15.294118%,41.960784%);fill-opacity:1;" d="M 7.710938 17.136719 C 7.417969 17.105469 7.113281 17.128906 6.828125 17.207031 C 6.734375 16.648438 6.75 16.082031 6.644531 15.53125 C 6.730469 15.53125 7.707031 15.386719 7.707031 15.386719 C 7.722656 15.539062 7.679688 17.132812 7.710938 17.136719 Z M 7.710938 17.136719 "/>
<path style=" stroke:none;fill-rule:nonzero;fill:rgb(24.313725%,15.294118%,41.960784%);fill-opacity:1;" d="M 11.929688 15.453125 C 11.796875 16.011719 11.722656 16.546875 11.710938 17.121094 C 11.398438 17.117188 11.085938 17.117188 10.777344 17.113281 C 10.816406 16.945312 10.847656 15.609375 10.847656 15.46875 C 10.847656 15.429688 11.839844 15.457031 11.929688 15.453125 Z M 11.929688 15.453125 "/>
<path style="fill:none;stroke-width:3.24;stroke-linecap:butt;stroke-linejoin:miter;stroke:rgb(38.823529%,25.882353%,55.686275%);stroke-opacity:1;stroke-miterlimit:10;" d="M 229.321697 492.326645 L 231.693314 562.244348 " transform="matrix(0.0312946,0,0,0.0309516,0.00316204,0)"/>
<path style="fill:none;stroke-width:3.24;stroke-linecap:butt;stroke-linejoin:miter;stroke:rgb(38.823529%,25.882353%,55.686275%);stroke-opacity:1;stroke-miterlimit:10;" d="M 209.350186 530.440627 L 255.15984 522.868313 " transform="matrix(0.0312946,0,0,0.0309516,0.00316204,0)"/>
<path style="fill:none;stroke-width:3.24;stroke-linecap:butt;stroke-linejoin:miter;stroke:rgb(38.823529%,25.882353%,55.686275%);stroke-opacity:1;stroke-miterlimit:10;" d="M 363.879756 485.511562 L 359.635809 565.147069 " transform="matrix(0.0312946,0,0,0.0309516,0.00316204,0)"/>
<path style="fill:none;stroke-width:3.24;stroke-linecap:butt;stroke-linejoin:miter;stroke:rgb(38.823529%,25.882353%,55.686275%);stroke-opacity:1;stroke-miterlimit:10;" d="M 339.414654 525.266213 L 381.105184 527.285496 " transform="matrix(0.0312946,0,0,0.0309516,0.00316204,0)"/>
<path style=" stroke:none;fill-rule:nonzero;fill:rgb(24.313725%,15.294118%,41.960784%);fill-opacity:1;" d="M 9.933594 11.234375 C 9.933594 11.621094 9.617188 11.933594 9.226562 11.933594 C 8.835938 11.933594 8.519531 11.621094 8.519531 11.234375 C 8.519531 10.847656 8.835938 10.535156 9.226562 10.535156 C 9.617188 10.535156 9.933594 10.847656 9.933594 11.234375 Z M 9.933594 11.234375 "/>
<path style="fill:none;stroke-width:3.24;stroke-linecap:butt;stroke-linejoin:miter;stroke:rgb(38.823529%,25.882353%,55.686275%);stroke-opacity:1;stroke-miterlimit:10;" d="M 294.728397 322.833006 L 294.728397 404.866413 " transform="matrix(0.0312946,0,0,0.0309516,0.00316204,0)"/>
<path style="fill:none;stroke-width:3.24;stroke-linecap:butt;stroke-linejoin:miter;stroke:rgb(38.823529%,25.882353%,55.686275%);stroke-opacity:1;stroke-miterlimit:10;" d="M 335.794818 363.849709 L 253.786799 363.849709 " transform="matrix(0.0312946,0,0,0.0309516,0.00316204,0)"/>
<path style=" stroke:none;fill-rule:nonzero;fill:rgb(38.823529%,25.882353%,55.686275%);fill-opacity:1;" d="M 13.519531 7.421875 C 13.222656 7.421875 12.925781 7.421875 12.628906 7.425781 C 12.519531 7.425781 12.410156 7.425781 12.308594 7.394531 C 12.207031 7.367188 12.109375 7.296875 12.070312 7.199219 C 12.007812 7.054688 12.09375 6.882812 12.222656 6.792969 C 12.347656 6.703125 12.511719 6.679688 12.667969 6.664062 C 12.882812 6.644531 13.433594 6.535156 13.628906 6.625 C 13.519531 6.574219 13.40625 6.519531 13.328125 6.429688 C 13.25 6.335938 13.21875 6.195312 13.289062 6.09375 C 13.363281 5.988281 13.519531 5.976562 13.648438 5.992188 C 14.015625 6.042969 14.273438 6.117188 14.613281 6.261719 C 14.378906 6.164062 14.285156 5.855469 14.386719 5.625 C 14.492188 5.398438 14.753906 5.265625 15.007812 5.273438 C 15.261719 5.28125 15.496094 5.414062 15.675781 5.589844 C 15.714844 5.246094 16.046875 4.960938 16.398438 4.96875 C 16.75 4.972656 17.066406 5.273438 17.09375 5.621094 C 17.226562 5.53125 17.363281 5.441406 17.519531 5.410156 C 17.871094 5.339844 18.148438 5.675781 18.113281 6.007812 C 18.261719 5.902344 18.414062 5.789062 18.589844 5.730469 C 18.765625 5.671875 18.96875 5.667969 19.125 5.769531 C 19.28125 5.871094 19.359375 6.089844 19.265625 6.246094 C 19.394531 6.199219 19.546875 6.222656 19.65625 6.308594 C 19.761719 6.394531 19.820312 6.539062 19.804688 6.671875 C 19.8125 6.601562 20.445312 6.617188 20.519531 6.617188 C 20.832031 6.617188 21.164062 6.652344 21.421875 6.847656 C 21.496094 6.902344 21.5625 6.976562 21.59375 7.0625 C 21.742188 7.464844 21.101562 7.402344 20.867188 7.414062 C 20.480469 7.433594 20.09375 7.433594 19.707031 7.433594 C 19.109375 7.429688 18.511719 7.386719 17.917969 7.40625 C 16.449219 7.445312 14.984375 7.425781 13.519531 7.421875 Z M 13.519531 7.421875 "/>
<path style=" stroke:none;fill-rule:nonzero;fill:rgb(38.823529%,25.882353%,55.686275%);fill-opacity:1;" d="M 25.992188 9.675781 C 25.898438 9.566406 25.816406 9.382812 25.886719 9.234375 C 25.980469 9.027344 26.253906 8.941406 26.480469 9 C 26.703125 9.054688 26.886719 9.214844 27.035156 9.390625 C 26.875 9.113281 27.117188 8.703125 27.441406 8.710938 C 27.765625 8.71875 27.992188 9.140625 27.8125 9.410156 C 27.871094 9.136719 28.195312 8.953125 28.464844 9.046875 C 28.765625 9.148438 28.789062 9.472656 28.824219 9.722656 C 28.996094 9.683594 29.214844 9.625 29.394531 9.675781 C 29.605469 9.730469 29.773438 9.980469 29.660156 10.164062 C 30.027344 10.03125 30.441406 10.042969 30.800781 10.195312 C 30.902344 10.238281 31.011719 10.308594 31.019531 10.417969 C 31.023438 10.535156 30.898438 10.625 30.78125 10.625 C 30.546875 10.632812 24.773438 10.722656 23.851562 10.480469 C 23.796875 10.28125 24.015625 10.109375 24.21875 10.070312 C 24.421875 10.035156 24.644531 10.058594 24.824219 9.953125 C 24.945312 9.878906 25.023438 9.757812 25.140625 9.675781 C 25.402344 9.5 25.71875 9.613281 25.992188 9.675781 Z M 25.992188 9.675781 "/>
<path style=" stroke:none;fill-rule:nonzero;fill:rgb(13.333333%,8.627451%,27.843137%);fill-opacity:1;" d="M 37.398438 8.464844 C 37.453125 8.511719 37.503906 8.5625 37.558594 8.613281 C 37.683594 8.726562 37.734375 8.730469 37.886719 8.65625 C 37.96875 8.617188 38.011719 8.558594 38.011719 8.46875 C 38.015625 8.359375 38.019531 8.25 38.019531 8.132812 C 38.042969 8.191406 38.070312 8.246094 38.09375 8.300781 C 38.136719 8.410156 38.191406 8.515625 38.269531 8.605469 C 38.296875 8.640625 38.332031 8.671875 38.363281 8.699219 C 38.484375 8.808594 38.617188 8.835938 38.773438 8.773438 C 39.160156 8.625 39.472656 8.386719 39.699219 8.046875 C 39.808594 7.882812 39.867188 7.703125 39.867188 7.503906 C 39.867188 7.5 39.867188 7.492188 39.867188 7.484375 C 40.179688 7.464844 40.484375 7.449219 40.773438 7.585938 C 41.054688 7.71875 41.269531 7.917969 41.433594 8.179688 C 41.4375 8.1875 41.441406 8.195312 41.445312 8.207031 C 41.449219 8.207031 41.449219 8.210938 41.449219 8.21875 C 41.394531 8.214844 41.339844 8.210938 41.289062 8.214844 C 40.992188 8.25 40.761719 8.382812 40.613281 8.644531 C 40.535156 8.777344 40.523438 8.925781 40.554688 9.078125 C 40.558594 9.089844 40.558594 9.101562 40.5625 9.113281 C 40.5625 9.117188 40.5625 9.117188 40.558594 9.121094 C 40.550781 9.121094 40.542969 9.121094 40.535156 9.117188 C 40.296875 9.050781 40.070312 9.101562 39.855469 9.214844 C 39.703125 9.292969 39.570312 9.394531 39.484375 9.542969 C 39.390625 9.703125 39.375 9.875 39.398438 10.050781 C 39.398438 10.066406 39.402344 10.078125 39.402344 10.09375 C 39.316406 10.085938 39.234375 10.089844 39.152344 10.125 C 39.078125 10.160156 39.019531 10.210938 38.984375 10.285156 C 38.917969 10.433594 38.910156 10.59375 38.925781 10.753906 C 38.925781 10.761719 38.925781 10.769531 38.925781 10.777344 C 38.925781 10.78125 38.925781 10.78125 38.921875 10.792969 C 38.902344 10.769531 38.878906 10.753906 38.859375 10.734375 C 38.753906 10.625 38.621094 10.5625 38.46875 10.53125 C 38.285156 10.496094 38.132812 10.542969 38.007812 10.679688 C 38 10.683594 37.996094 10.6875 37.988281 10.699219 C 37.976562 10.683594 37.964844 10.667969 37.953125 10.652344 C 37.882812 10.578125 37.816406 10.496094 37.742188 10.425781 C 37.589844 10.28125 37.402344 10.246094 37.203125 10.25 C 36.910156 10.253906 36.652344 10.351562 36.429688 10.535156 C 36.417969 10.542969 36.40625 10.554688 36.394531 10.566406 C 36.328125 10.453125 36.25 10.363281 36.148438 10.289062 C 35.835938 10.054688 35.363281 10.054688 35.074219 10.28125 C 35 10.34375 34.941406 10.414062 34.898438 10.5 C 34.894531 10.496094 34.890625 10.496094 34.886719 10.496094 C 34.886719 10.410156 34.882812 10.324219 34.890625 10.238281 C 34.90625 9.964844 34.984375 9.707031 35.117188 9.464844 C 35.253906 9.222656 35.457031 9.054688 35.699219 8.925781 C 35.78125 8.882812 35.875 8.847656 35.960938 8.808594 C 35.984375 8.800781 36 8.804688 36.023438 8.820312 C 36.367188 9.082031 36.730469 9.289062 37.179688 9.292969 C 37.285156 9.296875 37.386719 9.292969 37.480469 9.242188 C 37.523438 9.21875 37.558594 9.191406 37.59375 9.15625 C 37.652344 9.097656 37.667969 9.023438 37.628906 8.945312 C 37.554688 8.796875 37.480469 8.648438 37.40625 8.5 C 37.402344 8.488281 37.398438 8.476562 37.394531 8.46875 C 37.394531 8.46875 37.394531 8.464844 37.398438 8.464844 Z M 37.398438 8.464844 "/>
</g>
</svg>
