<?xml version="1.0" encoding="UTF-8"?>
<svg xmlns="http://www.w3.org/2000/svg" xmlns:xlink="http://www.w3.org/1999/xlink" width="48px" height="px" viewBox="0 0 47 37" version="1.1">
<defs>
<filter id="alpha" filterUnits="objectBoundingBox" x="0%" y="0%" width="100%" height="100%">
  <feColorMatrix type="matrix" in="SourceGraphic" values="0 0 0 0 1 0 0 0 0 1 0 0 0 0 1 0 0 0 1 0"/>
</filter>
<mask id="mask0">
  <g filter="url(#alpha)">
<rect x="0" y="0" width="47" height="37" style="fill:rgb(0%,0%,0%);fill-opacity:0.121569;stroke:none;"/>
  </g>
</mask>
<clipPath id="clip1">
  <rect x="0" y="0" width="47" height="37"/>
</clipPath>
<g id="surface5" clip-path="url(#clip1)">
<path style=" stroke:none;fill-rule:nonzero;fill:rgb(0%,0%,0%);fill-opacity:1;" d="M 3.316406 28.316406 C 3.242188 28.207031 3.183594 28.046875 3.140625 27.828125 C 2.898438 26.535156 2.652344 25.242188 2.40625 23.949219 C 3.121094 24.222656 3.726562 24.035156 4.359375 24.609375 C 4.859375 25.058594 5.140625 25.71875 5.132812 26.394531 C 5.121094 27.25 3.859375 29.125 3.320312 28.316406 Z M 3.316406 28.316406 "/>
<path style=" stroke:none;fill-rule:nonzero;fill:rgb(0%,0%,0%);fill-opacity:1;" d="M 6.191406 33.027344 C 5.226562 33.011719 4.351562 32.613281 4.023438 31.691406 C 3.714844 30.828125 3.308594 29.613281 3.652344 28.707031 C 4.03125 27.703125 5.285156 27.105469 6.28125 27.125 C 7.890625 27.148438 9.175781 28.492188 9.148438 30.121094 C 9.125 31.753906 7.800781 33.054688 6.191406 33.03125 Z M 6.191406 33.027344 "/>
<path style=" stroke:none;fill-rule:nonzero;fill:rgb(0%,0%,0%);fill-opacity:1;" d="M 11.5625 30.101562 C 13.398438 30.128906 14.867188 31.660156 14.835938 33.523438 C 14.808594 35.386719 13.296875 36.871094 11.460938 36.84375 C 9.621094 36.8125 8.15625 35.28125 8.183594 33.417969 C 8.210938 31.558594 9.722656 30.070312 11.5625 30.101562 Z M 11.5625 30.101562 "/>
<path style=" stroke:none;fill-rule:nonzero;fill:rgb(0%,0%,0%);fill-opacity:1;" d="M 19.050781 29.730469 C 21.015625 30.085938 22.324219 31.988281 21.976562 33.976562 C 21.625 35.96875 19.746094 37.296875 17.78125 36.941406 C 15.816406 36.585938 14.507812 34.683594 14.855469 32.691406 C 15.207031 30.703125 17.085938 29.375 19.050781 29.730469 Z M 19.050781 29.730469 "/>
<path style=" stroke:none;fill-rule:nonzero;fill:rgb(0%,0%,0%);fill-opacity:1;" d="M 29.128906 30.207031 C 29.894531 32.167969 28.949219 34.382812 27.015625 35.160156 C 25.082031 35.933594 22.894531 34.976562 22.128906 33.019531 C 21.363281 31.0625 22.308594 28.84375 24.242188 28.066406 C 26.175781 27.292969 28.363281 28.25 29.128906 30.207031 Z M 29.128906 30.207031 "/>
<path style=" stroke:none;fill-rule:nonzero;fill:rgb(0%,0%,0%);fill-opacity:1;" d="M 35.363281 28.140625 C 35.363281 30.058594 33.828125 31.613281 31.9375 31.613281 C 30.042969 31.613281 28.507812 30.058594 28.507812 28.140625 C 28.507812 26.226562 30.042969 24.671875 31.9375 24.671875 C 33.828125 24.671875 35.363281 26.226562 35.363281 28.140625 Z M 35.363281 28.140625 "/>
<path style=" stroke:none;fill-rule:nonzero;fill:rgb(0%,0%,0%);fill-opacity:1;" d="M 39.792969 23.632812 C 39.792969 25.390625 38.382812 26.820312 36.644531 26.820312 C 34.90625 26.820312 33.5 25.390625 33.5 23.632812 C 33.5 21.871094 34.90625 20.441406 36.644531 20.441406 C 38.382812 20.441406 39.792969 21.871094 39.792969 23.632812 Z M 39.792969 23.632812 "/>
<path style=" stroke:none;fill-rule:nonzero;fill:rgb(0%,0%,0%);fill-opacity:1;" d="M 43.1875 18.75 C 43.1875 20.390625 41.875 21.722656 40.253906 21.722656 C 38.632812 21.722656 37.320312 20.390625 37.320312 18.75 C 37.320312 17.109375 38.632812 15.78125 40.253906 15.78125 C 41.875 15.78125 43.1875 17.109375 43.1875 18.75 Z M 43.1875 18.75 "/>
<path style=" stroke:none;fill-rule:nonzero;fill:rgb(0%,0%,0%);fill-opacity:1;" d="M 45.1875 13.664062 C 45.1875 15.183594 43.96875 16.417969 42.46875 16.417969 C 40.964844 16.417969 39.746094 15.183594 39.746094 13.664062 C 39.746094 12.140625 40.964844 10.90625 42.46875 10.90625 C 43.96875 10.90625 45.1875 12.140625 45.1875 13.664062 Z M 45.1875 13.664062 "/>
<path style=" stroke:none;fill-rule:nonzero;fill:rgb(0%,0%,0%);fill-opacity:1;" d="M 46.484375 8.746094 C 46.484375 10.148438 45.359375 11.289062 43.976562 11.289062 C 42.589844 11.289062 41.464844 10.148438 41.464844 8.746094 C 41.464844 7.339844 42.589844 6.203125 43.976562 6.203125 C 45.359375 6.203125 46.484375 7.339844 46.484375 8.746094 Z M 46.484375 8.746094 "/>
<path style=" stroke:none;fill-rule:nonzero;fill:rgb(0%,0%,0%);fill-opacity:1;" d="M 46.953125 3.863281 C 46.953125 5.160156 45.917969 6.210938 44.636719 6.210938 C 43.355469 6.210938 42.316406 5.160156 42.316406 3.863281 C 42.316406 2.566406 43.355469 1.515625 44.636719 1.515625 C 45.917969 1.515625 46.953125 2.566406 46.953125 3.863281 Z M 46.953125 3.863281 "/>
</g>
<mask id="mask1">
  <g filter="url(#alpha)">
<rect x="0" y="0" width="47" height="37" style="fill:rgb(0%,0%,0%);fill-opacity:0.121569;stroke:none;"/>
  </g>
</mask>
<clipPath id="clip2">
  <rect x="0" y="0" width="47" height="37"/>
</clipPath>
<g id="surface8" clip-path="url(#clip2)">
<path style=" stroke:none;fill-rule:nonzero;fill:rgb(0%,0%,0%);fill-opacity:1;" d="M 4.636719 24.394531 C 4.5625 24.152344 4.5 23.902344 4.375 23.679688 C 4.316406 23.570312 4.246094 23.464844 4.167969 23.367188 C 4.113281 23.300781 3.96875 23.203125 3.941406 23.125 C 4.035156 23.390625 4.089844 23.671875 4.085938 23.96875 C 4.066406 25.269531 3.011719 26.300781 1.730469 26.28125 C 1.132812 26.273438 0.59375 26.035156 0.191406 25.652344 C 0.511719 26.539062 1.339844 27.175781 2.328125 27.191406 C 2.507812 27.195312 2.683594 27.167969 2.859375 27.160156 C 3.035156 27.152344 3.203125 27.066406 3.332031 26.953125 C 3.515625 26.796875 3.65625 26.59375 3.820312 26.417969 C 4 26.226562 4.207031 26.066406 4.433594 25.9375 C 4.539062 25.675781 4.632812 25.402344 4.667969 25.117188 C 4.699219 24.875 4.679688 24.523438 4.636719 24.394531 Z M 4.636719 24.394531 "/>
<path style=" stroke:none;fill-rule:nonzero;fill:rgb(0%,0%,0%);fill-opacity:1;" d="M 8.6875 28.238281 C 8.664062 28.03125 8.617188 27.828125 8.546875 27.625 C 8.53125 28.058594 8.386719 28.476562 8.191406 28.863281 C 8.035156 29.167969 7.699219 29.570312 7.421875 29.835938 C 6.9375 30.289062 6.25 30.464844 5.59375 30.453125 C 4.320312 30.433594 3.257812 29.59375 2.875 28.4375 C 2.875 28.464844 2.871094 28.492188 2.871094 28.515625 C 2.847656 30.148438 4.128906 31.488281 5.742188 31.515625 C 6.878906 31.53125 7.898438 30.910156 8.433594 29.804688 C 8.675781 29.304688 8.757812 28.773438 8.6875 28.242188 Z M 8.6875 28.238281 "/>
<path style=" stroke:none;fill-rule:nonzero;fill:rgb(0%,0%,0%);fill-opacity:1;" d="M 17.761719 34.121094 C 16.15625 34.09375 14.8125 33.007812 14.367188 31.53125 C 14.367188 31.53125 14.367188 31.535156 14.367188 31.535156 C 14.367188 31.53125 14.363281 31.527344 14.363281 31.519531 C 14.34375 31.457031 14.324219 31.398438 14.308594 31.335938 C 13.96875 32.863281 12.617188 33.992188 11.011719 33.964844 C 9.421875 33.941406 8.113281 32.789062 7.804688 31.277344 C 7.761719 31.480469 7.738281 31.6875 7.734375 31.90625 C 7.707031 33.769531 9.175781 35.300781 11.011719 35.328125 C 12.773438 35.355469 14.234375 33.992188 14.378906 32.242188 C 14.582031 34.042969 16.078125 35.453125 17.914062 35.480469 C 19.910156 35.511719 21.554688 33.898438 21.582031 31.875 C 21.589844 31.480469 21.53125 31.097656 21.421875 30.738281 C 21.277344 32.652344 19.683594 34.148438 17.761719 34.117188 Z M 17.761719 34.121094 "/>
<path style=" stroke:none;fill-rule:nonzero;fill:rgb(0%,0%,0%);fill-opacity:1;" d="M 24.820312 32.550781 C 23.296875 32.527344 22 31.585938 21.429688 30.257812 C 21.433594 30.328125 21.433594 30.402344 21.433594 30.476562 C 21.617188 32.378906 23.183594 33.882812 25.117188 33.914062 C 27.199219 33.945312 28.910156 32.265625 28.941406 30.160156 C 28.949219 29.605469 28.839844 29.082031 28.636719 28.605469 C 28.640625 28.667969 28.640625 28.730469 28.640625 28.796875 C 28.609375 30.902344 26.898438 32.582031 24.820312 32.550781 Z M 24.820312 32.550781 "/>
<path style=" stroke:none;fill-rule:nonzero;fill:rgb(0%,0%,0%);fill-opacity:1;" d="M 44.289062 4.808594 C 44.855469 5.261719 45.230469 5.957031 45.246094 6.746094 C 45.277344 8.148438 44.179688 9.3125 42.792969 9.34375 C 42.777344 9.34375 42.761719 9.34375 42.746094 9.34375 C 43.421875 9.855469 43.855469 10.675781 43.839844 11.59375 C 43.816406 13.101562 42.605469 14.304688 41.121094 14.304688 C 41.664062 14.855469 41.996094 15.613281 41.984375 16.449219 C 41.957031 18.089844 40.625 19.402344 39.003906 19.375 C 38.625 19.371094 38.265625 19.289062 37.9375 19.152344 C 38.375 19.707031 38.628906 20.414062 38.617188 21.183594 C 38.589844 22.945312 37.160156 24.347656 35.421875 24.320312 C 34.90625 24.3125 34.417969 24.175781 33.992188 23.945312 C 34.207031 24.40625 34.324219 24.925781 34.3125 25.46875 C 34.285156 27.386719 32.726562 28.917969 30.835938 28.886719 C 29.957031 28.871094 29.164062 28.527344 28.566406 27.964844 C 28.605469 28.15625 28.628906 28.351562 28.636719 28.550781 C 29.242188 29.46875 30.265625 30.078125 31.433594 30.097656 C 33.324219 30.128906 34.882812 28.597656 34.914062 26.679688 C 34.925781 25.933594 34.699219 25.238281 34.3125 24.664062 C 34.824219 25.054688 35.457031 25.292969 36.148438 25.304688 C 37.886719 25.332031 39.316406 23.925781 39.34375 22.167969 C 39.355469 21.257812 38.992188 20.433594 38.398438 19.84375 C 38.804688 20.066406 39.265625 20.199219 39.757812 20.207031 C 41.378906 20.234375 42.710938 18.921875 42.734375 17.28125 C 42.75 16.292969 42.289062 15.414062 41.5625 14.859375 C 41.695312 14.882812 41.832031 14.902344 41.972656 14.902344 C 43.476562 14.925781 44.710938 13.710938 44.734375 12.191406 C 44.753906 11.15625 44.203125 10.25 43.382812 9.765625 C 43.417969 9.765625 43.449219 9.773438 43.484375 9.773438 C 44.871094 9.792969 46.011719 8.675781 46.03125 7.269531 C 46.050781 6.121094 45.3125 5.140625 44.289062 4.808594 Z M 44.289062 4.808594 "/>
<path style=" stroke:none;fill-rule:nonzero;fill:rgb(0%,0%,0%);fill-opacity:1;" d="M 45.757812 2.101562 C 45.738281 3.339844 44.773438 4.339844 43.570312 4.40625 C 43.769531 4.480469 43.960938 4.578125 44.136719 4.695312 C 44.140625 4.695312 44.148438 4.695312 44.152344 4.695312 C 45.433594 4.71875 46.488281 3.683594 46.507812 2.386719 C 46.523438 1.226562 45.707031 0.25 44.621094 0.0429688 C 45.3125 0.460938 45.773438 1.226562 45.757812 2.101562 Z M 45.757812 2.101562 "/>
<path style=" stroke:none;fill-rule:nonzero;fill:rgb(0%,0%,0%);fill-opacity:1;" d="M 28.640625 28.605469 C 28.640625 28.589844 28.640625 28.570312 28.636719 28.550781 C 28.617188 28.519531 28.59375 28.484375 28.570312 28.449219 C 28.59375 28.5 28.617188 28.554688 28.640625 28.605469 Z M 28.640625 28.605469 "/>
</g>
</defs>
<g id="surface1">
<use xlink:href="#surface5" mask="url(#mask0)"/>
<path style=" stroke:none;fill-rule:nonzero;fill:rgb(90.980392%,90.196078%,89.019608%);fill-opacity:1;" d="M 4.683594 24.84375 C 4.683594 26.140625 3.644531 27.195312 2.363281 27.195312 C 1.082031 27.195312 0.046875 26.140625 0.046875 24.84375 C 0.046875 23.546875 1.082031 22.496094 2.363281 22.496094 C 3.644531 22.496094 4.683594 23.546875 4.683594 24.84375 Z M 4.683594 24.84375 "/>
<path style=" stroke:none;fill-rule:nonzero;fill:rgb(90.980392%,90.196078%,89.019608%);fill-opacity:1;" d="M 8.703125 28.5625 C 8.703125 30.191406 7.394531 31.515625 5.785156 31.515625 C 4.175781 31.515625 2.871094 30.191406 2.871094 28.5625 C 2.871094 26.929688 4.175781 25.609375 5.785156 25.609375 C 7.394531 25.609375 8.703125 26.929688 8.703125 28.5625 Z M 8.703125 28.5625 "/>
<path style=" stroke:none;fill-rule:nonzero;fill:rgb(90.980392%,90.196078%,89.019608%);fill-opacity:1;" d="M 11.113281 28.585938 C 12.953125 28.613281 14.417969 30.144531 14.390625 32.007812 C 14.363281 33.867188 12.847656 35.355469 11.011719 35.328125 C 9.171875 35.296875 7.707031 33.765625 7.734375 31.902344 C 7.761719 30.042969 9.277344 28.554688 11.113281 28.585938 Z M 11.113281 28.585938 "/>
<path style=" stroke:none;fill-rule:nonzero;fill:rgb(90.980392%,90.196078%,89.019608%);fill-opacity:1;" d="M 18.601562 28.214844 C 20.566406 28.570312 21.878906 30.472656 21.527344 32.460938 C 21.175781 34.453125 19.300781 35.78125 17.335938 35.425781 C 15.367188 35.070312 14.058594 33.167969 14.410156 31.179688 C 14.757812 29.1875 16.636719 27.859375 18.601562 28.214844 Z M 18.601562 28.214844 "/>
<path style=" stroke:none;fill-rule:nonzero;fill:rgb(90.980392%,90.196078%,89.019608%);fill-opacity:1;" d="M 28.679688 28.691406 C 29.445312 30.652344 28.5 32.867188 26.566406 33.644531 C 24.636719 34.417969 22.449219 33.460938 21.679688 31.503906 C 20.914062 29.546875 21.859375 27.328125 23.792969 26.550781 C 25.726562 25.777344 27.914062 26.734375 28.679688 28.691406 Z M 28.679688 28.691406 "/>
<path style=" stroke:none;fill-rule:nonzero;fill:rgb(90.980392%,90.196078%,89.019608%);fill-opacity:1;" d="M 34.914062 26.625 C 34.914062 28.542969 33.378906 30.097656 31.488281 30.097656 C 29.59375 30.097656 28.0625 28.542969 28.0625 26.625 C 28.0625 24.710938 29.59375 23.15625 31.488281 23.15625 C 33.378906 23.15625 34.914062 24.710938 34.914062 26.625 Z M 34.914062 26.625 "/>
<path style=" stroke:none;fill-rule:nonzero;fill:rgb(90.980392%,90.196078%,89.019608%);fill-opacity:1;" d="M 39.34375 22.117188 C 39.34375 23.875 37.933594 25.304688 36.199219 25.304688 C 34.460938 25.304688 33.050781 23.875 33.050781 22.117188 C 33.050781 20.355469 34.460938 18.929688 36.199219 18.929688 C 37.933594 18.929688 39.34375 20.355469 39.34375 22.117188 Z M 39.34375 22.117188 "/>
<path style=" stroke:none;fill-rule:nonzero;fill:rgb(90.980392%,90.196078%,89.019608%);fill-opacity:1;" d="M 42.738281 17.234375 C 42.738281 18.875 41.425781 20.207031 39.804688 20.207031 C 38.183594 20.207031 36.871094 18.875 36.871094 17.234375 C 36.871094 15.59375 38.183594 14.265625 39.804688 14.265625 C 41.425781 14.265625 42.738281 15.59375 42.738281 17.234375 Z M 42.738281 17.234375 "/>
<path style=" stroke:none;fill-rule:nonzero;fill:rgb(90.980392%,90.196078%,89.019608%);fill-opacity:1;" d="M 44.738281 12.148438 C 44.738281 13.667969 43.519531 14.902344 42.019531 14.902344 C 40.515625 14.902344 39.296875 13.667969 39.296875 12.148438 C 39.296875 10.625 40.515625 9.390625 42.019531 9.390625 C 43.519531 9.390625 44.738281 10.625 44.738281 12.148438 Z M 44.738281 12.148438 "/>
<path style=" stroke:none;fill-rule:nonzero;fill:rgb(90.980392%,90.196078%,89.019608%);fill-opacity:1;" d="M 46.035156 7.230469 C 46.035156 8.636719 44.910156 9.773438 43.527344 9.773438 C 42.140625 9.773438 41.015625 8.636719 41.015625 7.230469 C 41.015625 5.828125 42.140625 4.6875 43.527344 4.6875 C 44.910156 4.6875 46.035156 5.828125 46.035156 7.230469 Z M 46.035156 7.230469 "/>
<path style=" stroke:none;fill-rule:nonzero;fill:rgb(90.980392%,90.196078%,89.019608%);fill-opacity:1;" d="M 46.503906 2.347656 C 46.503906 3.644531 45.46875 4.695312 44.1875 4.695312 C 42.90625 4.695312 41.867188 3.644531 41.867188 2.347656 C 41.867188 1.050781 42.90625 0 44.1875 0 C 45.46875 0 46.503906 1.050781 46.503906 2.347656 Z M 46.503906 2.347656 "/>
<use xlink:href="#surface8" mask="url(#mask1)"/>
</g>
</svg>
