<?xml version="1.0" encoding="UTF-8"?>
<svg xmlns="http://www.w3.org/2000/svg" xmlns:xlink="http://www.w3.org/1999/xlink" width="48px" height="px" viewBox="0 0 48 73" version="1.1">
<defs>
<filter id="alpha" filterUnits="objectBoundingBox" x="0%" y="0%" width="100%" height="100%">
  <feColorMatrix type="matrix" in="SourceGraphic" values="0 0 0 0 1 0 0 0 0 1 0 0 0 0 1 0 0 0 1 0"/>
</filter>
<mask id="mask0">
  <g filter="url(#alpha)">
<rect x="0" y="0" width="48" height="73" style="fill:rgb(0%,0%,0%);fill-opacity:0.129412;stroke:none;"/>
  </g>
</mask>
<clipPath id="clip1">
  <rect x="0" y="0" width="48" height="73"/>
</clipPath>
<g id="surface5" clip-path="url(#clip1)">
<path style=" stroke:none;fill-rule:nonzero;fill:rgb(0%,0%,0%);fill-opacity:1;" d="M 10.738281 40.820312 C 12.378906 45.558594 15.203125 49.246094 19.628906 52.167969 C 20.847656 52.972656 22.382812 53.746094 23.890625 53.605469 C 28.289062 53.191406 29.734375 46.496094 29.894531 43.027344 C 30.066406 39.316406 29.355469 35.632812 29.011719 31.933594 C 28.875 30.46875 28.792969 28.976562 29.105469 27.542969 C 29.730469 24.679688 32.125 23.332031 34.371094 21.773438 C 39.84375 17.972656 46.949219 11.933594 47.476562 4.769531 C 47.4375 5.375 42.394531 7.824219 41.699219 8.28125 C 39.707031 9.582031 37.542969 10.667969 35.453125 11.804688 C 31.054688 14.191406 26.617188 16.503906 22.136719 18.742188 C 18.121094 20.753906 14.070312 22.699219 9.996094 24.585938 C 8.054688 25.484375 5.871094 26.199219 4.035156 27.289062 C 2.628906 28.125 3.335938 29.132812 4.425781 29.921875 C 5.9375 31.015625 7.269531 31.445312 8.261719 33.203125 C 9.171875 34.808594 9.582031 36.640625 10.03125 38.429688 C 10.234375 39.253906 10.472656 40.054688 10.738281 40.820312 Z M 10.738281 40.820312 "/>
</g>
<mask id="mask1">
  <g filter="url(#alpha)">
<rect x="0" y="0" width="48" height="73" style="fill:rgb(0%,0%,0%);fill-opacity:0.129412;stroke:none;"/>
  </g>
</mask>
<clipPath id="clip2">
  <rect x="0" y="0" width="48" height="73"/>
</clipPath>
<g id="surface8" clip-path="url(#clip2)">
<path style=" stroke:none;fill-rule:nonzero;fill:rgb(0%,0%,0%);fill-opacity:1;" d="M 20.296875 23.964844 C 20.710938 24.308594 20.648438 24.738281 20.648438 25.316406 C 20.648438 26.117188 20.691406 26.921875 20.886719 27.699219 C 20.9375 27.902344 21 28.113281 20.953125 28.320312 C 20.875 28.664062 20.289062 28.828125 19.996094 28.9375 C 18.621094 29.453125 17.253906 29.839844 15.820312 30.074219 C 14.304688 30.320312 12.910156 30.78125 11.351562 30.828125 C 10.988281 30.839844 10.472656 30.921875 10.125 30.820312 C 9.777344 30.71875 9.796875 30.636719 9.730469 30.253906 C 9.597656 29.515625 9.453125 28.777344 9.179688 28.074219 C 9.035156 27.703125 8.53125 26.945312 8.746094 26.519531 C 8.953125 26.113281 9.34375 25.832031 9.738281 25.597656 C 9.921875 25.488281 10.109375 25.386719 10.296875 25.285156 C 12.347656 24.210938 14.71875 23.476562 17.039062 23.363281 C 18.007812 23.316406 19.246094 23.332031 20.117188 23.84375 C 20.1875 23.882812 20.246094 23.921875 20.296875 23.964844 Z M 20.296875 23.964844 "/>
</g>
<mask id="mask2">
  <g filter="url(#alpha)">
<rect x="0" y="0" width="48" height="73" style="fill:rgb(0%,0%,0%);fill-opacity:0.129412;stroke:none;"/>
  </g>
</mask>
<clipPath id="clip3">
  <rect x="0" y="0" width="48" height="73"/>
</clipPath>
<g id="surface11" clip-path="url(#clip3)">
<path style=" stroke:none;fill-rule:nonzero;fill:rgb(0%,0%,0%);fill-opacity:1;" d="M 28.714844 53.671875 C 28.78125 53.105469 28.71875 52.515625 28.65625 51.941406 C 27.3125 39.945312 25.953125 27.867188 22.4375 16.316406 C 22.710938 15.980469 23.269531 15.875 23.660156 15.613281 C 22.289062 14.507812 19.371094 15.996094 17.472656 16.714844 C 17.199219 16.816406 16.921875 16.921875 16.644531 17.023438 C 15.46875 17.445312 14.308594 16.078125 13.476562 17.023438 C 11.792969 18.945312 12.5625 23.179688 13.203125 25.285156 C 14.921875 30.921875 15.480469 36.851562 15.5 42.722656 C 15.519531 48.351562 15.527344 54.335938 13.714844 59.710938 C 13.628906 59.96875 13.769531 60.253906 14.027344 60.339844 C 14.082031 60.355469 14.136719 60.367188 14.1875 60.367188 C 14.394531 60.367188 14.589844 60.234375 14.660156 60.027344 C 15.015625 58.972656 15.371094 57.820312 15.632812 56.628906 C 15.855469 56.984375 16.160156 57.269531 16.5625 57.457031 C 16.402344 58.644531 16.167969 59.820312 15.851562 60.984375 C 15.777344 61.25 15.9375 61.523438 16.199219 61.59375 C 16.246094 61.605469 16.289062 61.613281 16.332031 61.613281 C 16.550781 61.613281 16.75 61.464844 16.8125 61.246094 C 17.128906 60.078125 17.371094 58.898438 17.535156 57.707031 C 17.753906 57.726562 17.984375 57.730469 18.238281 57.714844 C 18.460938 57.703125 18.6875 57.6875 18.917969 57.675781 C 18.871094 58.863281 18.742188 60.097656 18.511719 61.625 C 18.472656 61.894531 18.660156 62.148438 18.933594 62.191406 C 18.957031 62.195312 18.980469 62.195312 19.007812 62.195312 C 19.246094 62.195312 19.460938 62.015625 19.5 61.773438 C 19.738281 60.167969 19.875 58.871094 19.914062 57.621094 C 20.433594 57.589844 20.953125 57.558594 21.476562 57.511719 C 21.503906 58.859375 21.425781 60.308594 21.144531 61.707031 C 21.089844 61.980469 21.265625 62.242188 21.535156 62.292969 C 21.570312 62.300781 21.601562 62.304688 21.632812 62.304688 C 21.867188 62.304688 22.074219 62.140625 22.121094 61.90625 C 22.425781 60.398438 22.503906 58.84375 22.46875 57.410156 C 22.902344 57.359375 23.332031 57.296875 23.753906 57.21875 C 23.898438 58.640625 23.941406 60.074219 23.871094 61.503906 C 23.859375 61.777344 24.070312 62.011719 24.34375 62.023438 C 24.351562 62.023438 24.359375 62.023438 24.367188 62.023438 C 24.632812 62.023438 24.851562 61.816406 24.867188 61.550781 C 24.9375 60.03125 24.894531 58.511719 24.734375 57.003906 C 24.761719 56.996094 24.792969 56.988281 24.820312 56.980469 C 25.246094 56.867188 25.683594 56.730469 26.101562 56.5625 C 26.382812 58.113281 26.539062 59.722656 26.488281 60.914062 C 26.476562 61.191406 26.691406 61.421875 26.964844 61.433594 C 26.972656 61.433594 26.980469 61.433594 26.984375 61.433594 C 27.25 61.433594 27.472656 61.226562 27.484375 60.957031 C 27.539062 59.609375 27.359375 57.808594 27.03125 56.105469 C 27.453125 55.847656 27.828125 55.542969 28.117188 55.167969 C 28.480469 56.574219 28.6875 58.007812 28.730469 59.464844 C 28.738281 59.734375 28.957031 59.949219 29.226562 59.949219 C 29.230469 59.949219 29.238281 59.949219 29.242188 59.949219 C 29.515625 59.941406 29.734375 59.710938 29.726562 59.4375 C 29.667969 57.46875 29.328125 55.539062 28.714844 53.671875 Z M 28.714844 53.671875 "/>
</g>
<mask id="mask3">
  <g filter="url(#alpha)">
<rect x="0" y="0" width="48" height="73" style="fill:rgb(0%,0%,0%);fill-opacity:0.129412;stroke:none;"/>
  </g>
</mask>
<clipPath id="clip4">
  <rect x="0" y="0" width="48" height="73"/>
</clipPath>
<g id="surface14" clip-path="url(#clip4)">
<path style=" stroke:none;fill-rule:nonzero;fill:rgb(0%,0%,0%);fill-opacity:1;" d="M 26.601562 24.4375 C 26.589844 24.617188 26.5625 24.640625 26.238281 24.789062 C 25.742188 25.019531 24.925781 24.9375 24.542969 24.535156 C 24.0625 24.027344 23.847656 23.3125 23.652344 22.660156 C 23.1875 21.128906 22.722656 19.578125 22.65625 17.980469 C 22.589844 16.402344 22.730469 14.222656 24.429688 13.503906 C 23.804688 13.765625 25.054688 18.292969 25.1875 18.875 C 25.488281 20.179688 25.839844 21.476562 26.234375 22.753906 C 26.378906 23.21875 26.640625 23.734375 26.609375 24.230469 C 26.605469 24.316406 26.605469 24.386719 26.601562 24.4375 Z M 26.601562 24.4375 "/>
</g>
</defs>
<g id="surface1">
<use xlink:href="#surface5" mask="url(#mask0)"/>
<path style=" stroke:none;fill-rule:nonzero;fill:rgb(94.509804%,94.901961%,94.901961%);fill-opacity:1;" d="M 20.316406 24.65625 C 20.582031 25.246094 24.691406 50.730469 25.160156 62.546875 C 23.414062 64.542969 20.949219 65.898438 18.328125 66.308594 C 15.707031 66.71875 13.238281 65.863281 10.964844 64.496094 C 12.433594 52.101562 11.796875 39.589844 9.402344 28.710938 C 9.402344 28.710938 9.230469 27.335938 9.4375 26.929688 C 9.648438 26.523438 9.34375 26.542969 9.738281 26.3125 C 12.363281 24.75 17.644531 23.175781 20.316406 24.65625 Z M 20.316406 24.65625 "/>
<path style=" stroke:none;fill-rule:nonzero;fill:rgb(84.705882%,13.72549%,13.72549%);fill-opacity:1;" d="M 21.160156 29.417969 C 20.746094 26.84375 20.4375 25.109375 20.339844 24.726562 C 16.695312 25.09375 13.078125 25.722656 9.519531 26.605469 C 9.523438 26.671875 9.519531 26.765625 9.441406 26.929688 C 9.234375 27.335938 9.40625 28.707031 9.40625 28.707031 C 9.609375 29.640625 9.800781 30.585938 9.980469 31.539062 C 12.695312 31.648438 15.417969 31.183594 18.035156 30.4375 C 19.089844 30.136719 20.128906 29.792969 21.160156 29.417969 Z M 21.160156 29.417969 "/>
<use xlink:href="#surface8" mask="url(#mask1)"/>
<path style=" stroke:none;fill-rule:nonzero;fill:rgb(94.509804%,94.901961%,94.901961%);fill-opacity:1;" d="M 47.78125 4.019531 C 47.964844 4.078125 48.054688 4.289062 47.964844 4.460938 C 43.777344 12.503906 38.507812 18.433594 30.273438 22.953125 C 22.300781 27.332031 11.683594 28.671875 2.605469 28.914062 C 2.4375 28.917969 2.289062 28.808594 2.246094 28.648438 C 1.058594 24.535156 0.335938 22.382812 0 18.5625 C -0.0273438 18.214844 0.273438 17.929688 0.621094 17.976562 C 7.910156 19.003906 15.695312 17.574219 22.441406 14.628906 C 29.367188 11.605469 33.828125 6.285156 39 0.933594 C 40.664062 -0.789062 40.617188 0.203125 42.960938 1.550781 C 44.507812 2.441406 46.070312 3.5 47.78125 4.019531 Z M 47.78125 4.019531 "/>
<path style=" stroke:none;fill-rule:nonzero;fill:rgb(84.705882%,13.72549%,13.72549%);fill-opacity:1;" d="M 20.640625 15.371094 C 21.671875 18.828125 22.699219 22.285156 23.730469 25.738281 C 25.871094 25.039062 27.925781 24.199219 29.832031 23.1875 C 29.816406 23.164062 29.800781 23.144531 29.789062 23.121094 C 28.550781 21.234375 27.449219 19.261719 26.449219 17.242188 C 25.820312 15.96875 25.34375 14.703125 24.878906 13.421875 C 24.101562 13.855469 23.289062 14.261719 22.441406 14.628906 C 21.851562 14.886719 21.25 15.132812 20.640625 15.367188 Z M 20.640625 15.371094 "/>
<path style=" stroke:none;fill-rule:nonzero;fill:rgb(84.705882%,13.72549%,13.72549%);fill-opacity:1;" d="M 25.160156 62.546875 C 25.082031 60.609375 24.945312 58.6875 24.707031 56.183594 C 23.390625 56.667969 17.535156 57.707031 11.621094 56.585938 C 11.5 59.371094 11.296875 61.703125 10.964844 64.496094 C 13.238281 65.863281 15.707031 66.714844 18.328125 66.304688 C 20.949219 65.894531 23.414062 64.542969 25.160156 62.546875 Z M 25.160156 62.546875 "/>
<path style="fill:none;stroke-width:6;stroke-linecap:round;stroke-linejoin:miter;stroke:rgb(84.705882%,13.72549%,13.72549%);stroke-opacity:1;stroke-miterlimit:10;" d="M 80.609751 447.033024 C 80.884214 463.488721 76.355576 479.999363 71.195674 495.630902 " transform="matrix(0.142323,0,0,0.14219,0,0.0181852)"/>
<path style="fill:none;stroke-width:6;stroke-linecap:round;stroke-linejoin:miter;stroke:rgb(84.705882%,13.72549%,13.72549%);stroke-opacity:1;stroke-miterlimit:10;" d="M 92.192085 449.313195 C 92.30187 467.966649 89.886597 486.647574 85.028604 504.669173 " transform="matrix(0.142323,0,0,0.14219,0,0.0181852)"/>
<path style="fill:none;stroke-width:6;stroke-linecap:round;stroke-linejoin:miter;stroke:rgb(84.705882%,13.72549%,13.72549%);stroke-opacity:1;stroke-miterlimit:10;" d="M 105.17418 455.549328 C 106.464155 474.642333 105.640767 488.268419 102.402104 509.064685 " transform="matrix(0.142323,0,0,0.14219,0,0.0181852)"/>
<path style="fill:none;stroke-width:6;stroke-linecap:round;stroke-linejoin:miter;stroke:rgb(84.705882%,13.72549%,13.72549%);stroke-opacity:1;stroke-miterlimit:10;" d="M 120.736226 455.5768 C 122.767251 473.076432 123.014268 492.883707 119.528589 510.136091 " transform="matrix(0.142323,0,0,0.14219,0,0.0181852)"/>
<path style="fill:none;stroke-width:6;stroke-linecap:round;stroke-linejoin:miter;stroke:rgb(84.705882%,13.72549%,13.72549%);stroke-opacity:1;stroke-miterlimit:10;" d="M 133.855552 453.736179 C 137.286338 471.757778 138.493975 490.191456 137.396123 508.487774 " transform="matrix(0.142323,0,0,0.14219,0,0.0181852)"/>
<path style="fill:none;stroke-width:6;stroke-linecap:round;stroke-linejoin:miter;stroke:rgb(84.705882%,13.72549%,13.72549%);stroke-opacity:1;stroke-miterlimit:10;" d="M 146.727861 448.186846 C 151.860317 463.214002 155.400889 488.817858 154.522607 504.669173 " transform="matrix(0.142323,0,0,0.14219,0,0.0181852)"/>
<path style="fill:none;stroke-width:6;stroke-linecap:round;stroke-linejoin:miter;stroke:rgb(84.705882%,13.72549%,13.72549%);stroke-opacity:1;stroke-miterlimit:10;" d="M 159.380601 442.47268 C 165.720693 459.038265 169.096587 476.730201 169.316157 494.47708 " transform="matrix(0.142323,0,0,0.14219,0,0.0181852)"/>
<path style=" stroke:none;fill-rule:nonzero;fill:rgb(84.705882%,13.72549%,13.72549%);fill-opacity:1;" d="M 23.746094 47.523438 C 23.359375 44.40625 22.933594 41.257812 22.515625 38.339844 C 18.730469 38.929688 14.898438 39.125 11.074219 38.917969 C 11.398438 41.828125 11.609375 44.8125 11.699219 47.835938 C 13.128906 48.085938 14.75 48.132812 15.375 48.183594 C 18.179688 48.414062 21 48.191406 23.746094 47.523438 Z M 23.746094 47.523438 "/>
<path style="fill:none;stroke-width:6;stroke-linecap:round;stroke-linejoin:miter;stroke:rgb(84.705882%,13.72549%,13.72549%);stroke-opacity:1;stroke-miterlimit:10;" d="M 172.03334 433.544297 C 177.303027 449.532971 183.368657 470.301765 183.505889 487.14207 " transform="matrix(0.142323,0,0,0.14219,0,0.0181852)"/>
<use xlink:href="#surface11" mask="url(#mask2)"/>
<use xlink:href="#surface14" mask="url(#mask3)"/>
<path style=" stroke:none;fill-rule:nonzero;fill:rgb(94.509804%,94.901961%,94.901961%);fill-opacity:1;" d="M 18.328125 14.722656 C 18.054688 14.828125 17.777344 14.929688 17.5 15.03125 C 16.324219 15.457031 14.570312 15.730469 13.738281 16.679688 C 12.054688 18.601562 13.085938 21.890625 13.726562 23.992188 C 16.492188 33.066406 17.738281 42.597656 17.398438 52.070312 C 17.351562 53.328125 17.402344 54.832031 18.472656 55.488281 C 19.03125 55.832031 19.730469 55.839844 20.390625 55.804688 C 22.171875 55.71875 23.949219 55.445312 25.671875 54.992188 C 27.207031 54.589844 28.878906 53.878906 29.414062 52.386719 C 29.691406 51.617188 29.601562 50.765625 29.511719 49.953125 C 28.167969 37.953125 26.808594 25.875 23.292969 14.328125 C 23.566406 13.992188 24.125 13.886719 24.515625 13.621094 C 23.144531 12.519531 20.226562 14.003906 18.328125 14.726562 Z M 18.328125 14.722656 "/>
<path style="fill:none;stroke-width:6;stroke-linecap:round;stroke-linejoin:miter;stroke:rgb(84.705882%,13.72549%,13.72549%);stroke-opacity:1;stroke-miterlimit:10;" d="M 126.307822 368.463249 C 126.582285 384.918947 122.053647 401.429588 116.893745 417.061127 " transform="matrix(0.142323,0,0,0.14219,0,0.0181852)"/>
<path style="fill:none;stroke-width:6;stroke-linecap:round;stroke-linejoin:miter;stroke:rgb(84.705882%,13.72549%,13.72549%);stroke-opacity:1;stroke-miterlimit:10;" d="M 137.86271 370.715949 C 137.972495 389.369402 135.584668 408.050328 130.726675 426.071926 " transform="matrix(0.142323,0,0,0.14219,0,0.0181852)"/>
<path style="fill:none;stroke-width:6;stroke-linecap:round;stroke-linejoin:miter;stroke:rgb(84.705882%,13.72549%,13.72549%);stroke-opacity:1;stroke-miterlimit:10;" d="M 150.844805 376.952081 C 152.13478 396.072558 151.311392 409.698645 148.100176 430.49491 " transform="matrix(0.142323,0,0,0.14219,0,0.0181852)"/>
<path style="fill:none;stroke-width:6;stroke-linecap:round;stroke-linejoin:miter;stroke:rgb(84.705882%,13.72549%,13.72549%);stroke-opacity:1;stroke-miterlimit:10;" d="M 166.406851 377.007025 C 168.437876 394.479185 168.712339 414.28646 165.199214 431.538844 " transform="matrix(0.142323,0,0,0.14219,0,0.0181852)"/>
<path style="fill:none;stroke-width:6;stroke-linecap:round;stroke-linejoin:miter;stroke:rgb(84.705882%,13.72549%,13.72549%);stroke-opacity:1;stroke-miterlimit:10;" d="M 179.553623 375.166405 C 182.984409 393.160531 184.192046 411.621681 183.066748 429.917999 " transform="matrix(0.142323,0,0,0.14219,0,0.0181852)"/>
<path style="fill:none;stroke-width:6;stroke-linecap:round;stroke-linejoin:miter;stroke:rgb(84.705882%,13.72549%,13.72549%);stroke-opacity:1;stroke-miterlimit:10;" d="M 192.398486 369.617071 C 197.558389 384.616755 201.09896 410.220612 200.220679 426.071926 " transform="matrix(0.142323,0,0,0.14219,0,0.0181852)"/>
<path style="fill:none;stroke-width:6;stroke-linecap:round;stroke-linejoin:miter;stroke:rgb(84.705882%,13.72549%,13.72549%);stroke-opacity:1;stroke-miterlimit:10;" d="M 205.051226 363.875434 C 211.418765 380.441019 214.794658 398.160426 214.986782 415.907305 " transform="matrix(0.142323,0,0,0.14219,0,0.0181852)"/>
<path style=" stroke:none;fill-rule:nonzero;fill:rgb(84.705882%,13.72549%,13.72549%);fill-opacity:1;" d="M 42.476562 8.789062 C 41.1875 7.75 39.949219 6.644531 38.742188 5.507812 C 38.035156 4.84375 37.359375 4.097656 36.65625 3.390625 C 34.535156 5.625 33.109375 7.078125 30.894531 9.089844 C 33.320312 11.914062 35.269531 15.21875 38.089844 17.496094 C 40.511719 15.351562 42.597656 12.96875 44.457031 10.300781 C 43.78125 9.816406 43.121094 9.3125 42.476562 8.789062 Z M 42.476562 8.789062 "/>
<path style=" stroke:none;fill-rule:nonzero;fill:rgb(84.705882%,13.72549%,13.72549%);fill-opacity:1;" d="M 8.085938 26.25 C 7.679688 23.789062 6.976562 20.902344 6.996094 18.277344 C 4.855469 18.363281 2.71875 18.273438 0.625 17.976562 C 0.277344 17.929688 -0.0273438 18.21875 0.00390625 18.566406 C 0.335938 22.382812 1.058594 24.535156 2.246094 28.648438 C 2.292969 28.808594 2.4375 28.917969 2.605469 28.914062 C 4.515625 28.863281 6.496094 28.761719 8.5 28.597656 C 8.355469 27.816406 8.214844 27.035156 8.085938 26.25 Z M 8.085938 26.25 "/>
<path style=" stroke:none;fill-rule:nonzero;fill:rgb(84.705882%,13.72549%,13.72549%);fill-opacity:1;" d="M 26.136719 25.878906 C 24.648438 26.125 15.570312 28.847656 15.066406 28.910156 C 15.851562 32.328125 16.285156 34.5 16.734375 37.957031 C 20.464844 37.40625 24.152344 36.707031 27.769531 35.671875 C 27.304688 32.390625 26.777344 29.121094 26.136719 25.878906 Z M 26.136719 25.878906 "/>
<path style=" stroke:none;fill-rule:nonzero;fill:rgb(84.705882%,13.72549%,13.72549%);fill-opacity:1;" d="M 20.84375 46.421875 C 19.777344 46.664062 18.566406 46.773438 17.425781 46.988281 C 17.464844 48.683594 17.457031 50.378906 17.394531 52.070312 C 17.351562 53.328125 17.402344 54.832031 18.472656 55.488281 C 19.03125 55.832031 19.730469 55.839844 20.386719 55.804688 C 22.171875 55.71875 23.945312 55.445312 25.671875 54.992188 C 27.203125 54.589844 28.878906 53.878906 29.410156 52.386719 C 29.6875 51.617188 29.601562 50.765625 29.507812 49.953125 C 29.296875 48.050781 29.082031 46.148438 28.863281 44.246094 C 27.382812 44.867188 26.121094 45.214844 25.878906 45.285156 C 24.214844 45.769531 22.535156 46.039062 20.847656 46.421875 Z M 20.84375 46.421875 "/>
<path style=" stroke:none;fill-rule:nonzero;fill:rgb(84.705882%,13.72549%,13.72549%);fill-opacity:1;" d="M 23.289062 14.328125 C 23.566406 13.992188 24.125 13.882812 24.515625 13.621094 C 23.144531 12.515625 20.222656 14.003906 18.328125 14.722656 C 18.054688 14.828125 17.777344 14.929688 17.5 15.03125 C 16.324219 15.457031 14.570312 15.730469 13.738281 16.679688 C 13.046875 17.472656 12.636719 18.808594 12.878906 20.429688 C 13.273438 20.21875 14.214844 19.828125 14.613281 19.699219 C 15.734375 19.34375 16.671875 18.972656 17.808594 18.683594 C 18.304688 18.558594 21.914062 17.523438 24.148438 17.3125 C 23.925781 16.511719 23.53125 15.125 23.292969 14.328125 Z M 23.289062 14.328125 "/>
</g>
</svg>
