<?xml version="1.0" encoding="UTF-8"?>
<svg xmlns="http://www.w3.org/2000/svg" xmlns:xlink="http://www.w3.org/1999/xlink" width="48px" height="px" viewBox="0 0 48 31" version="1.1">
<defs>
<filter id="alpha" filterUnits="objectBoundingBox" x="0%" y="0%" width="100%" height="100%">
  <feColorMatrix type="matrix" in="SourceGraphic" values="0 0 0 0 1 0 0 0 0 1 0 0 0 0 1 0 0 0 1 0"/>
</filter>
<mask id="mask0">
  <g filter="url(#alpha)">
<rect x="0" y="0" width="48" height="31" style="fill:rgb(0%,0%,0%);fill-opacity:0.180392;stroke:none;"/>
  </g>
</mask>
<clipPath id="clip1">
  <rect x="0" y="0" width="48" height="31"/>
</clipPath>
<g id="surface5" clip-path="url(#clip1)">
<path style=" stroke:none;fill-rule:nonzero;fill:rgb(0%,0%,0%);fill-opacity:1;" d="M 46.53125 0.886719 C 39.523438 12.042969 27.183594 19.722656 14.09375 21.105469 C 16.289062 24.855469 19.761719 27.863281 24.035156 28.605469 C 25.839844 28.917969 27.734375 28.9375 29.453125 28.304688 C 31.019531 27.726562 32.351562 26.640625 33.5625 25.492188 C 39.929688 19.460938 43.746094 10.644531 47.527344 2.722656 C 47.707031 2.34375 48.046875 1.605469 47.929688 1.199219 C 47.929688 1.199219 46.691406 0.628906 46.53125 0.886719 Z M 46.53125 0.886719 "/>
</g>
<mask id="mask1">
  <g filter="url(#alpha)">
<rect x="0" y="0" width="48" height="31" style="fill:rgb(0%,0%,0%);fill-opacity:0.180392;stroke:none;"/>
  </g>
</mask>
<clipPath id="clip2">
  <rect x="0" y="0" width="48" height="31"/>
</clipPath>
<g id="surface8" clip-path="url(#clip2)">
<path style=" stroke:none;fill-rule:nonzero;fill:rgb(0%,0%,0%);fill-opacity:1;" d="M 11.960938 26.382812 C 11.148438 27.914062 9.859375 29.386719 8.371094 30.273438 C 6.878906 31.160156 4.871094 31.3125 3.457031 30.308594 C 2.296875 29.484375 1.644531 28.296875 1.421875 26.890625 C 1.164062 25.289062 0.851562 23.613281 0.519531 22.371094 C 0.414062 21.980469 0.171875 20.742188 0.171875 20.742188 C 1.132812 20.984375 2.0625 21.328125 3.023438 21.574219 C 4.914062 22.058594 6.867188 22.332031 8.820312 22.332031 C 9.808594 22.332031 12.671875 20.515625 13.351562 20.136719 C 13.351562 20.136719 13.351562 23.765625 11.960938 26.382812 Z M 11.960938 26.382812 "/>
</g>
</defs>
<g id="surface1">
<use xlink:href="#surface5" mask="url(#mask0)"/>
<path style=" stroke:none;fill-rule:nonzero;fill:rgb(94.509804%,94.901961%,94.901961%);fill-opacity:1;" d="M 45.890625 0.109375 C 38.746094 11.179688 26.257812 18.753906 13.167969 20.136719 C 15.363281 23.886719 19.019531 26.378906 23.292969 27.121094 C 25.097656 27.433594 26.996094 27.453125 28.714844 26.820312 C 30.28125 26.242188 31.609375 25.15625 32.824219 24.007812 C 39.1875 17.976562 43.105469 9.867188 46.886719 1.949219 C 47.066406 1.570312 47.253906 1.144531 47.136719 0.742188 C 47.023438 0.335938 46.117188 -0.242188 45.890625 0.109375 Z M 45.890625 0.109375 "/>
<use xlink:href="#surface8" mask="url(#mask1)"/>
<path style=" stroke:none;fill-rule:nonzero;fill:rgb(94.509804%,94.901961%,94.901961%);fill-opacity:1;" d="M 11.960938 24.714844 C 11.21875 26.28125 9.859375 27.71875 8.371094 28.605469 C 6.878906 29.488281 4.871094 29.640625 3.457031 28.640625 C 2.296875 27.816406 1.726562 26.402344 1.289062 25.050781 C 0.808594 23.566406 0.410156 22.054688 0.101562 20.527344 C 0.0195312 20.132812 0.0117188 19.316406 0.171875 19.074219 C 1.132812 19.316406 2.042969 19.738281 3.023438 19.90625 C 4.71875 20.203125 6.867188 20.292969 8.820312 20.292969 C 9.808594 20.292969 12.898438 20.148438 13.53125 20.101562 C 13.53125 20.179688 12.726562 23.105469 11.960938 24.714844 Z M 11.960938 24.714844 "/>
</g>
</svg>
