<?xml version="1.0" encoding="UTF-8"?>
<svg xmlns="http://www.w3.org/2000/svg" xmlns:xlink="http://www.w3.org/1999/xlink" width="48px" height="px" viewBox="0 0 48 49" version="1.1">
<g id="surface1">
<path style="fill:none;stroke-width:4.5;stroke-linecap:butt;stroke-linejoin:miter;stroke:rgb(88.627451%,77.647059%,45.882353%);stroke-opacity:1;stroke-miterlimit:10;" d="M 6.011758 181.739925 L 7.469154 181.396954 C 10.133455 180.779606 12.774985 182.380139 13.412596 184.986721 C 14.027435 187.501844 14.642274 189.971238 15.302656 192.463496 C 15.985811 195.024349 14.437327 197.699525 11.818569 198.431197 L 10.361174 198.842763 C 7.742415 199.5973 5.03257 198.019632 4.326644 195.36732 C 3.64349 192.806467 3.005879 190.245615 2.39104 187.707627 C 1.730658 185.055315 3.370228 182.380139 6.011758 181.76279 Z M 6.011758 181.739925 " transform="matrix(0.171539,0,0,0.170842,0,0.0098661)"/>
<path style="fill:none;stroke-width:4.5;stroke-linecap:round;stroke-linejoin:miter;stroke:rgb(88.627451%,77.647059%,45.882353%);stroke-opacity:1;stroke-miterlimit:10;" d="M 7.719644 185.604069 L 3.825664 169.16431 " transform="matrix(0.171539,0,0,0.170842,0,0.0098661)"/>
<path style="fill:none;stroke-width:4.5;stroke-linecap:butt;stroke-linejoin:miter;stroke:rgb(88.627451%,77.647059%,45.882353%);stroke-opacity:1;stroke-miterlimit:10;" d="M 12.820529 206.982616 L 14.232381 206.525321 C 16.851139 205.70219 19.560985 207.074075 20.426313 209.543469 C 21.246099 211.921403 22.134199 214.276473 23.045072 216.608678 C 24.047031 219.009478 22.840125 221.821843 20.38077 222.942216 L 19.014461 223.559564 C 16.509562 224.679937 13.617542 223.468105 12.524495 220.838658 C 11.545308 218.323535 10.588892 215.808412 9.700791 213.270424 C 8.789919 210.640977 10.224543 207.805747 12.797757 206.982616 Z M 12.820529 206.982616 " transform="matrix(0.171539,0,0,0.170842,0,0.0098661)"/>
<path style="fill:none;stroke-width:4.5;stroke-linecap:round;stroke-linejoin:miter;stroke:rgb(88.627451%,77.647059%,45.882353%);stroke-opacity:1;stroke-miterlimit:10;" d="M 14.824448 210.686707 C 13.002703 205.359218 11.431449 199.940271 9.974053 194.521324 " transform="matrix(0.171539,0,0,0.170842,0,0.0098661)"/>
<path style="fill:none;stroke-width:4.5;stroke-linecap:butt;stroke-linejoin:miter;stroke:rgb(88.627451%,77.647059%,45.882353%);stroke-opacity:1;stroke-miterlimit:10;" d="M 22.703494 231.219258 L 24.047031 230.51045 C 26.460843 229.252889 29.375635 230.07602 30.650856 232.293901 L 32.563688 235.449237 L 34.590379 238.558844 C 36.070547 240.639537 35.524023 243.63482 33.360701 245.281083 L 32.176567 246.195673 C 30.013245 247.841935 26.870736 247.293181 25.231165 244.938111 L 22.976756 241.508398 L 20.858978 238.01009 C 19.424354 235.517832 20.312454 232.43109 22.703494 231.196393 Z M 22.703494 231.219258 " transform="matrix(0.171539,0,0,0.170842,0,0.0098661)"/>
<path style="fill:none;stroke-width:4.5;stroke-linecap:round;stroke-linejoin:miter;stroke:rgb(88.627451%,77.647059%,45.882353%);stroke-opacity:1;stroke-miterlimit:10;" d="M 25.367796 234.488918 C 22.566864 229.618725 20.153052 224.519884 18.035273 219.30672 " transform="matrix(0.171539,0,0,0.170842,0,0.0098661)"/>
<path style="fill:none;stroke-width:4.5;stroke-linecap:butt;stroke-linejoin:miter;stroke:rgb(88.627451%,77.647059%,45.882353%);stroke-opacity:1;stroke-miterlimit:10;" d="M 37.573486 252.780722 L 38.689305 251.774673 C 40.715996 250.014087 43.79019 250.036952 45.520848 251.888997 L 48.139606 254.44985 C 49.027707 255.295846 49.961351 256.050383 50.872223 256.873514 C 51.828639 257.71951 52.397935 258.839883 52.489022 260.051715 C 52.602881 261.286412 52.284076 262.589703 51.46429 263.687211 L 50.553418 264.876178 C 49.733633 265.950822 48.549499 266.591035 47.274277 266.728224 C 45.999056 266.842547 44.587204 266.476711 43.516929 265.516392 C 42.492197 264.578937 41.39915 263.710076 40.419963 262.749756 L 37.459627 259.868797 C 35.455708 257.765239 35.501252 254.609903 37.573486 252.803587 Z M 37.573486 252.780722 " transform="matrix(0.171539,0,0,0.170842,0,0.0098661)"/>
<path style="fill:none;stroke-width:4.5;stroke-linecap:round;stroke-linejoin:miter;stroke:rgb(88.627451%,77.647059%,45.882353%);stroke-opacity:1;stroke-miterlimit:10;" d="M 40.966486 255.31871 C 37.049735 251.271649 33.451789 246.881615 30.263735 242.24007 " transform="matrix(0.171539,0,0,0.170842,0,0.0098661)"/>
<path style="fill:none;stroke-width:4.5;stroke-linecap:butt;stroke-linejoin:miter;stroke:rgb(88.627451%,77.647059%,45.882353%);stroke-opacity:1;stroke-miterlimit:10;" d="M 57.612679 269.654912 L 58.386921 268.374486 C 59.092847 267.208384 60.185894 266.453847 61.347256 266.110875 C 62.53139 265.722174 63.78384 265.790769 64.899658 266.385252 C 67.040208 267.459896 69.180758 268.48881 71.412396 269.289076 C 72.004463 269.517724 72.505443 269.860695 72.915335 270.272261 C 73.348 270.660962 73.712349 271.163986 73.962839 271.712741 C 74.48659 272.810249 74.645993 274.136405 74.258872 275.439696 L 73.826208 276.880175 C 73.439087 278.183466 72.550986 279.212381 71.389624 279.761135 C 70.797557 280.058376 70.137174 280.241295 69.45402 280.264159 C 68.770866 280.287024 68.06494 280.149835 67.381785 279.898323 C 64.740256 278.938003 62.189813 277.726171 59.684914 276.46861 C 58.386921 275.759802 57.49882 274.662294 57.111699 273.450462 C 56.74735 272.1929 56.906753 270.821015 57.612679 269.677777 Z M 57.612679 269.654912 " transform="matrix(0.171539,0,0,0.170842,0,0.0098661)"/>
<path style="fill:none;stroke-width:4.5;stroke-linecap:round;stroke-linejoin:miter;stroke:rgb(88.627451%,77.647059%,45.882353%);stroke-opacity:1;stroke-miterlimit:10;" d="M 61.620518 271.049663 C 56.633491 268.420216 51.96527 265.196285 47.661398 261.583654 " transform="matrix(0.171539,0,0,0.170842,0,0.0098661)"/>
<path style="fill:none;stroke-width:4.5;stroke-linecap:butt;stroke-linejoin:miter;stroke:rgb(88.627451%,77.647059%,45.882353%);stroke-opacity:1;stroke-miterlimit:10;" d="M 82.16069 278.755085 L 82.41118 277.268876 C 82.616126 275.919856 83.322052 274.822347 84.255697 274.022081 C 85.189341 273.221814 86.350703 272.833114 87.580381 272.924573 C 89.948649 273.084626 92.339689 273.15322 94.730729 273.038896 C 97.190085 272.970302 99.444494 274.890942 99.763299 277.611848 L 99.922702 279.098057 C 100.241507 281.796098 98.123729 284.288356 95.163394 284.379815 C 92.362461 284.494139 89.538757 284.425545 86.715052 284.242627 C 85.257656 284.128303 83.959663 283.396631 83.139878 282.413446 C 82.320093 281.430262 81.955744 280.081241 82.16069 278.755085 Z M 82.16069 278.755085 " transform="matrix(0.171539,0,0,0.170842,0,0.0098661)"/>
<path style="fill:none;stroke-width:4.5;stroke-linecap:round;stroke-linejoin:miter;stroke:rgb(88.627451%,77.647059%,45.882353%);stroke-opacity:1;stroke-miterlimit:10;" d="M 86.419019 278.526438 C 80.794382 278.023413 75.260832 276.742987 69.977772 274.799483 " transform="matrix(0.171539,0,0,0.170842,0,0.0098661)"/>
<path style="fill:none;stroke-width:4.5;stroke-linecap:butt;stroke-linejoin:miter;stroke:rgb(88.627451%,77.647059%,45.882353%);stroke-opacity:1;stroke-miterlimit:10;" d="M 108.371043 277.749036 L 108.029466 276.262827 C 107.756204 274.936671 108.006694 273.610515 108.598761 272.558736 C 109.2136 271.484093 110.192788 270.706691 111.399694 270.340855 C 112.561056 269.997884 113.722419 269.654912 114.883781 269.243347 L 116.614438 268.671728 L 118.322324 268.00865 C 119.506458 267.57422 120.78168 267.642814 121.897498 268.122974 C 123.036089 268.603134 124.015277 269.517724 124.584572 270.752421 L 125.199411 272.124306 C 125.745934 273.359003 125.723162 274.730888 125.222183 275.896991 C 124.721203 277.108823 123.742015 278.114872 122.375706 278.617897 L 120.440103 279.349569 L 118.458955 280.012647 C 117.160962 280.469942 115.840197 280.858643 114.49666 281.247344 C 113.130352 281.658909 111.695728 281.407397 110.579909 280.790049 C 109.46409 280.149835 108.644305 279.075192 108.371043 277.749036 Z M 108.371043 277.749036 " transform="matrix(0.171539,0,0,0.170842,0,0.0098661)"/>
<path style="fill:none;stroke-width:4.5;stroke-linecap:round;stroke-linejoin:miter;stroke:rgb(88.627451%,77.647059%,45.882353%);stroke-opacity:1;stroke-miterlimit:10;" d="M 112.219479 276.011315 C 106.799788 277.520389 101.197923 278.412114 95.573286 278.686491 " transform="matrix(0.171539,0,0,0.170842,0,0.0098661)"/>
<path style="fill:none;stroke-width:4.5;stroke-linecap:butt;stroke-linejoin:miter;stroke:rgb(88.627451%,77.647059%,45.882353%);stroke-opacity:1;stroke-miterlimit:10;" d="M 132.805195 268.305892 L 132.076497 267.002601 C 131.416115 265.813633 131.279484 264.464613 131.552746 263.275646 C 131.848779 262.109543 132.554705 261.034899 133.647752 260.348957 C 134.695256 259.708744 135.719987 259.022801 136.744718 258.336858 C 137.76945 257.650916 138.77141 256.919243 139.796141 256.210436 C 141.868376 254.701362 144.874255 255.112928 146.559368 257.23935 L 147.493013 258.428317 C 149.200898 260.531875 148.768234 263.687211 146.445509 265.379203 C 145.329691 266.17947 144.236644 266.979736 143.098053 267.734273 C 141.959463 268.48881 140.820872 269.243347 139.65951 269.952154 C 138.452604 270.729556 137.063524 270.912474 135.811074 270.592367 C 134.558625 270.295126 133.465578 269.494859 132.805195 268.305892 Z M 132.805195 268.305892 " transform="matrix(0.171539,0,0,0.170842,0,0.0098661)"/>
<path style="fill:none;stroke-width:4.5;stroke-linecap:round;stroke-linejoin:miter;stroke:rgb(88.627451%,77.647059%,45.882353%);stroke-opacity:1;stroke-miterlimit:10;" d="M 136.016021 265.539256 C 131.23394 268.511675 126.178599 271.049663 120.941082 273.107491 " transform="matrix(0.171539,0,0,0.170842,0,0.0098661)"/>
<path style="fill:none;stroke-width:4.5;stroke-linecap:butt;stroke-linejoin:miter;stroke:rgb(88.627451%,77.647059%,45.882353%);stroke-opacity:1;stroke-miterlimit:10;" d="M 154.00575 252.940776 L 153.003791 251.820403 C 151.204818 249.762575 151.295905 246.744427 153.163193 244.938111 C 154.984938 243.20039 156.738368 241.416939 158.469025 239.610623 C 160.267998 237.689983 163.342192 237.598524 165.368883 239.40484 L 166.484702 240.410889 C 168.511393 242.24007 168.648024 245.372542 166.71242 247.43037 C 164.867904 249.351009 162.977843 251.271649 161.019468 253.146559 C 158.992777 255.090063 155.804723 254.975739 154.00575 252.940776 Z M 154.00575 252.940776 " transform="matrix(0.171539,0,0,0.170842,0,0.0098661)"/>
<path style="fill:none;stroke-width:4.5;stroke-linecap:round;stroke-linejoin:miter;stroke:rgb(88.627451%,77.647059%,45.882353%);stroke-opacity:1;stroke-miterlimit:10;" d="M 156.556193 249.556792 C 152.457267 253.420936 148.176167 257.102161 143.621805 260.417551 " transform="matrix(0.171539,0,0,0.170842,0,0.0098661)"/>
<path style="fill:none;stroke-width:4.5;stroke-linecap:butt;stroke-linejoin:miter;stroke:rgb(88.627451%,77.647059%,45.882353%);stroke-opacity:1;stroke-miterlimit:10;" d="M 172.041024 233.985893 L 170.879661 233.025573 C 168.807427 231.287852 168.488621 228.20111 170.150964 226.166146 L 172.519232 223.170863 L 174.841956 220.084121 C 176.458755 217.957699 179.510177 217.546133 181.696271 219.169531 L 182.903177 220.061257 C 185.089271 221.707519 185.499163 224.794261 183.836821 226.989278 L 181.468553 230.144614 L 179.009198 233.254221 C 177.255768 235.426373 174.13603 235.746479 172.041024 233.985893 Z M 172.041024 233.985893 " transform="matrix(0.171539,0,0,0.170842,0,0.0098661)"/>
<path style="fill:none;stroke-width:4.5;stroke-linecap:round;stroke-linejoin:miter;stroke:rgb(88.627451%,77.647059%,45.882353%);stroke-opacity:1;stroke-miterlimit:10;" d="M 174.090487 230.281803 C 170.560856 234.671836 166.871823 238.947545 163.023387 243.040336 " transform="matrix(0.171539,0,0,0.170842,0,0.0098661)"/>
<path style="fill:none;stroke-width:4.5;stroke-linecap:butt;stroke-linejoin:miter;stroke:rgb(88.627451%,77.647059%,45.882353%);stroke-opacity:1;stroke-miterlimit:10;" d="M 187.935747 213.247559 L 186.728841 212.378699 C 184.519976 210.778166 183.973452 207.714288 185.521935 205.519272 L 189.939666 199.231464 C 191.419834 196.990718 194.448485 196.396234 196.702894 197.905308 L 197.955343 198.728439 C 200.232524 200.237513 200.847363 203.30139 199.321652 205.610731 L 194.790062 212.058592 C 193.196035 214.322203 190.121841 214.848092 187.935747 213.247559 Z M 187.935747 213.247559 " transform="matrix(0.171539,0,0,0.170842,0,0.0098661)"/>
<path style="fill:none;stroke-width:4.5;stroke-linecap:round;stroke-linejoin:miter;stroke:rgb(88.627451%,77.647059%,45.882353%);stroke-opacity:1;stroke-miterlimit:10;" d="M 189.711948 209.429145 C 188.072378 211.715621 186.523895 214.07069 184.793237 216.288572 L 179.715124 223.033675 " transform="matrix(0.171539,0,0,0.170842,0,0.0098661)"/>
<path style="fill:none;stroke-width:4.5;stroke-linecap:butt;stroke-linejoin:miter;stroke:rgb(88.627451%,77.647059%,45.882353%);stroke-opacity:1;stroke-miterlimit:10;" d="M 202.623564 191.640365 L 201.348343 190.840098 C 199.071162 189.399619 198.365236 186.358606 199.754316 184.072131 L 203.762155 177.509946 C 205.196779 175.246335 208.134342 174.446068 210.479839 175.817954 L 211.800604 176.572491 C 214.1461 177.921511 214.965885 181.008253 213.50849 183.340458 L 209.386792 190.062697 C 207.952168 192.417767 204.923517 193.103709 202.623564 191.640365 Z M 202.623564 191.640365 " transform="matrix(0.171539,0,0,0.170842,0,0.0098661)"/>
<path style="fill:none;stroke-width:4.5;stroke-linecap:round;stroke-linejoin:miter;stroke:rgb(88.627451%,77.647059%,45.882353%);stroke-opacity:1;stroke-miterlimit:10;" d="M 204.172048 187.730492 C 202.737424 190.131291 201.18894 192.486361 199.640457 194.841431 L 194.995008 201.883776 " transform="matrix(0.171539,0,0,0.170842,0,0.0098661)"/>
<path style="fill:none;stroke-width:4.5;stroke-linecap:butt;stroke-linejoin:miter;stroke:rgb(88.627451%,77.647059%,45.882353%);stroke-opacity:1;stroke-miterlimit:10;" d="M 215.990617 169.210039 L 214.669852 168.501232 C 212.301584 167.152211 211.481799 164.202658 212.75702 161.870452 L 216.354966 155.056755 C 217.607415 152.67882 220.567751 151.76423 223.004334 152.998927 L 224.347871 153.68487 C 226.761683 154.919567 227.695327 157.86912 226.420106 160.315649 L 222.731073 167.2894 C 221.410308 169.713064 218.358885 170.55906 215.990617 169.210039 Z M 215.990617 169.210039 " transform="matrix(0.171539,0,0,0.170842,0,0.0098661)"/>
<path style="fill:none;stroke-width:4.5;stroke-linecap:round;stroke-linejoin:miter;stroke:rgb(88.627451%,77.647059%,45.882353%);stroke-opacity:1;stroke-miterlimit:10;" d="M 217.379697 165.231572 L 213.212456 172.594023 L 210.069946 178.081564 L 208.976899 179.88788 " transform="matrix(0.171539,0,0,0.170842,0,0.0098661)"/>
<path style="fill:none;stroke-width:4.5;stroke-linecap:butt;stroke-linejoin:miter;stroke:rgb(88.627451%,77.647059%,45.882353%);stroke-opacity:1;stroke-miterlimit:10;" d="M 228.082448 146.070906 L 226.738911 145.407828 C 224.279556 144.218861 223.254824 141.292172 224.438958 138.891373 C 225.600321 136.604897 226.579508 134.226962 227.649784 131.894757 C 228.74283 129.471093 231.657622 128.373585 234.139749 129.471093 L 235.52883 130.088441 C 238.010957 131.18595 239.104004 134.089774 237.988185 136.604897 C 236.872367 138.982832 235.870407 141.42936 234.686273 143.761566 C 233.479367 146.230959 230.519032 147.259873 228.082448 146.070906 Z M 228.082448 146.070906 " transform="matrix(0.171539,0,0,0.170842,0,0.0098661)"/>
<path style="fill:none;stroke-width:4.5;stroke-linecap:round;stroke-linejoin:miter;stroke:rgb(88.627451%,77.647059%,45.882353%);stroke-opacity:1;stroke-miterlimit:10;" d="M 229.221038 142.000979 C 226.716139 147.05409 224.370643 152.175796 221.660798 157.114583 " transform="matrix(0.171539,0,0,0.170842,0,0.0098661)"/>
<path style="fill:none;stroke-width:4.5;stroke-linecap:butt;stroke-linejoin:miter;stroke:rgb(88.627451%,77.647059%,45.882353%);stroke-opacity:1;stroke-miterlimit:10;" d="M 238.876286 122.29156 L 237.509977 121.719941 C 235.005078 120.668162 233.798172 117.810067 234.822904 115.340674 C 235.802091 112.939874 236.826823 110.584805 237.714924 108.184005 C 238.67134 105.668882 241.517816 104.434185 244.045487 105.394505 L 245.457339 105.943259 C 247.98501 106.903579 249.260231 109.761673 248.281043 112.322526 C 247.370171 114.79192 246.322668 117.215584 245.320708 119.639248 C 244.273205 122.177236 241.381185 123.366203 238.899058 122.314424 Z M 238.876286 122.29156 " transform="matrix(0.171539,0,0,0.170842,0,0.0098661)"/>
<path style="fill:none;stroke-width:4.5;stroke-linecap:round;stroke-linejoin:miter;stroke:rgb(88.627451%,77.647059%,45.882353%);stroke-opacity:1;stroke-miterlimit:10;" d="M 239.787158 118.175904 L 236.530789 125.972785 L 233.069474 133.678208 " transform="matrix(0.171539,0,0,0.170842,0,0.0098661)"/>
<path style="fill:none;stroke-width:4.5;stroke-linecap:butt;stroke-linejoin:miter;stroke:rgb(88.627451%,77.647059%,45.882353%);stroke-opacity:1;stroke-miterlimit:10;" d="M 248.417674 97.986324 L 247.005822 97.483299 C 244.455379 96.545844 243.089071 93.756344 243.999943 91.218356 L 246.550386 83.947364 C 247.392943 81.409376 250.12556 79.991761 252.721546 80.837757 L 254.15617 81.317917 C 256.729385 82.141048 258.164009 84.953413 257.29868 87.559995 L 254.702694 94.991041 C 253.791821 97.574758 250.990889 98.923779 248.440446 98.009189 Z M 248.417674 97.986324 " transform="matrix(0.171539,0,0,0.170842,0,0.0098661)"/>
<path style="fill:none;stroke-width:4.5;stroke-linecap:round;stroke-linejoin:miter;stroke:rgb(88.627451%,77.647059%,45.882353%);stroke-opacity:1;stroke-miterlimit:10;" d="M 249.100828 93.824938 C 247.301855 99.152427 245.206849 104.388456 243.20293 109.670214 " transform="matrix(0.171539,0,0,0.170842,0,0.0098661)"/>
<path style="fill:none;stroke-width:4.5;stroke-linecap:butt;stroke-linejoin:miter;stroke:rgb(88.627451%,77.647059%,45.882353%);stroke-opacity:1;stroke-miterlimit:10;" d="M 256.729385 73.223793 L 255.271989 72.789363 C 252.676003 71.989096 251.26415 69.26819 251.992848 66.684473 L 254.15617 59.253427 C 254.90764 56.66971 257.640257 55.183501 260.236243 55.892308 L 261.693639 56.303874 C 264.335169 57.035546 265.815337 59.733587 265.063867 62.363034 L 262.855002 69.931268 C 262.126304 72.560715 259.302599 74.02406 256.729385 73.223793 Z M 256.729385 73.223793 " transform="matrix(0.171539,0,0,0.170842,0,0.0098661)"/>
<path style="fill:none;stroke-width:4.5;stroke-linecap:round;stroke-linejoin:miter;stroke:rgb(88.627451%,77.647059%,45.882353%);stroke-opacity:1;stroke-miterlimit:10;" d="M 257.207593 69.039543 C 255.590794 74.435625 253.814593 79.785978 252.106707 85.159196 " transform="matrix(0.171539,0,0,0.170842,0,0.0098661)"/>
<path style="fill:none;stroke-width:4.5;stroke-linecap:butt;stroke-linejoin:miter;stroke:rgb(88.627451%,77.647059%,45.882353%);stroke-opacity:1;stroke-miterlimit:10;" d="M 263.856961 48.141156 L 262.399565 47.752455 C 259.780807 47.066512 258.209552 44.391336 258.892707 41.807618 C 259.553089 39.31536 260.099613 36.800237 260.714451 34.285114 C 261.32929 31.678531 263.993592 30.055134 266.657894 30.672482 L 268.11529 31.015453 C 270.75682 31.632802 272.39639 34.285114 271.758779 36.96029 C 271.121169 39.498278 270.551873 42.059131 269.891491 44.597119 C 269.185565 47.24943 266.498491 48.827098 263.856961 48.141156 Z M 263.856961 48.141156 " transform="matrix(0.171539,0,0,0.170842,0,0.0098661)"/>
<path style="fill:none;stroke-width:4.5;stroke-linecap:round;stroke-linejoin:miter;stroke:rgb(88.627451%,77.647059%,45.882353%);stroke-opacity:1;stroke-miterlimit:10;" d="M 264.198538 43.911176 L 262.035216 52.096759 L 260.964941 56.166685 L 259.780807 60.236612 " transform="matrix(0.171539,0,0,0.170842,0,0.0098661)"/>
<path style="fill:none;stroke-width:4.5;stroke-linecap:butt;stroke-linejoin:miter;stroke:rgb(88.627451%,77.647059%,45.882353%);stroke-opacity:1;stroke-miterlimit:10;" d="M 269.982578 22.761277 L 268.525182 22.44117 C 265.860881 21.846686 264.175767 19.240104 264.745062 16.610657 C 265.268813 14.072669 265.838109 11.580411 266.36186 9.019558 C 266.908384 6.367246 269.50437 4.65239 272.168672 5.201144 L 273.64884 5.52125 C 276.290369 6.04714 278.021027 8.653722 277.474504 11.306034 L 275.834933 18.988592 C 275.265638 21.640903 272.64688 23.332895 269.982578 22.761277 Z M 269.982578 22.761277 " transform="matrix(0.171539,0,0,0.170842,0,0.0098661)"/>
<path style="fill:none;stroke-width:4.5;stroke-linecap:round;stroke-linejoin:miter;stroke:rgb(88.627451%,77.647059%,45.882353%);stroke-opacity:1;stroke-miterlimit:10;" d="M 270.119209 18.531297 L 268.343008 26.785474 L 266.384632 35.016786 " transform="matrix(0.171539,0,0,0.170842,0,0.0098661)"/>
<path style="fill:none;stroke-width:2.25;stroke-linecap:butt;stroke-linejoin:miter;stroke:rgb(88.627451%,77.647059%,45.882353%);stroke-opacity:1;stroke-miterlimit:10;" d="M 4.053382 168.729879 L 4.759308 168.478367 C 6.057301 168.021072 7.469154 168.615555 7.92459 169.827388 L 9.427529 173.279966 C 9.996825 174.446068 9.450301 175.909413 8.243395 176.503896 L 7.583013 176.846868 C 6.376107 177.441351 4.873167 176.915462 4.2811 175.6579 L 2.664302 171.976675 C 2.163322 170.650519 2.800933 169.210039 4.076154 168.729879 Z M 4.053382 168.729879 " transform="matrix(0.171539,0,0,0.170842,0,0.0098661)"/>
<path style="fill:none;stroke-width:2.25;stroke-linecap:round;stroke-linejoin:miter;stroke:rgb(88.627451%,77.647059%,45.882353%);stroke-opacity:1;stroke-miterlimit:10;" d="M 5.146429 170.536195 C 4.668221 169.210039 4.098926 167.929613 3.689033 166.580592 L 3.028651 164.591358 L 2.482127 162.556395 " transform="matrix(0.171539,0,0,0.170842,0,0.0098661)"/>
<path style="fill:none;stroke-width:2.25;stroke-linecap:butt;stroke-linejoin:miter;stroke:rgb(88.627451%,77.647059%,45.882353%);stroke-opacity:1;stroke-miterlimit:10;" d="M 9.518617 180.596688 L 10.178999 180.230852 C 11.363133 179.590638 12.866073 179.979339 13.526455 181.122577 C 14.141294 182.220085 14.824448 183.294729 15.507603 184.369372 C 16.190757 185.489745 15.871951 186.975955 14.733361 187.730492 L 14.118522 188.142057 C 12.979932 188.919459 11.431449 188.599352 10.702751 187.410385 C 9.996825 186.290012 9.290898 185.146774 8.630516 183.980672 C 7.92459 182.768839 8.334482 181.259766 9.518617 180.619552 Z M 9.518617 180.596688 " transform="matrix(0.171539,0,0,0.170842,0,0.0098661)"/>
<path style="fill:none;stroke-width:2.25;stroke-linecap:round;stroke-linejoin:miter;stroke:rgb(88.627451%,77.647059%,45.882353%);stroke-opacity:1;stroke-miterlimit:10;" d="M 10.884925 182.220085 C 9.450301 179.796421 8.197852 177.281298 6.990946 174.74331 " transform="matrix(0.171539,0,0,0.170842,0,0.0098661)"/>
<path style="fill:none;stroke-width:2.25;stroke-linecap:butt;stroke-linejoin:miter;stroke:rgb(88.627451%,77.647059%,45.882353%);stroke-opacity:1;stroke-miterlimit:10;" d="M 16.509562 191.6175 L 17.124401 191.18307 C 18.24022 190.382803 19.765931 190.611451 20.540173 191.686094 L 22.840125 194.704242 C 23.682682 195.710291 23.52328 197.24223 22.475776 198.111091 L 21.883709 198.591251 C 20.858978 199.460111 19.287723 199.300058 18.399622 198.225415 L 15.985811 195.070078 C 15.166025 193.949705 15.393743 192.394902 16.509562 191.6175 Z M 16.509562 191.6175 " transform="matrix(0.171539,0,0,0.170842,0,0.0098661)"/>
<path style="fill:none;stroke-width:2.25;stroke-linecap:round;stroke-linejoin:miter;stroke:rgb(88.627451%,77.647059%,45.882353%);stroke-opacity:1;stroke-miterlimit:10;" d="M 18.035273 193.080844 C 16.372931 190.817234 14.756133 188.507893 13.253193 186.129959 " transform="matrix(0.171539,0,0,0.170842,0,0.0098661)"/>
<path style="fill:none;stroke-width:2.25;stroke-linecap:butt;stroke-linejoin:miter;stroke:rgb(88.627451%,77.647059%,45.882353%);stroke-opacity:1;stroke-miterlimit:10;" d="M 24.66187 201.815181 L 25.231165 201.312157 C 26.255897 200.420431 27.758836 200.51189 28.669709 201.47221 C 29.535037 202.3868 30.377594 203.34712 31.288467 204.238845 C 32.222111 205.1763 32.199339 206.731104 31.242923 207.691424 L 30.719172 208.217313 C 29.762756 209.200497 28.191501 209.177633 27.235085 208.194448 C 26.278669 207.256993 25.41334 206.250944 24.502467 205.290624 C 23.546051 204.30744 23.65991 202.706907 24.66187 201.815181 Z M 24.66187 201.815181 " transform="matrix(0.171539,0,0,0.170842,0,0.0098661)"/>
<path style="fill:none;stroke-width:2.25;stroke-linecap:round;stroke-linejoin:miter;stroke:rgb(88.627451%,77.647059%,45.882353%);stroke-opacity:1;stroke-miterlimit:10;" d="M 26.324212 203.118472 C 25.367796 202.089558 24.456924 200.99205 23.52328 199.940271 C 22.612407 198.888492 21.747078 197.790984 20.836206 196.693476 " transform="matrix(0.171539,0,0,0.170842,0,0.0098661)"/>
<path style="fill:none;stroke-width:2.25;stroke-linecap:butt;stroke-linejoin:miter;stroke:rgb(88.627451%,77.647059%,45.882353%);stroke-opacity:1;stroke-miterlimit:10;" d="M 33.770594 211.144002 L 34.271574 210.595248 C 35.205218 209.612063 36.753701 209.520604 37.732889 210.389465 C 38.666533 211.258325 39.622949 212.081457 40.602137 212.881723 C 41.626868 213.750584 41.740728 215.282523 40.920942 216.334301 L 40.442734 216.928785 C 39.600177 217.980564 38.028923 218.140617 36.958647 217.248892 C 35.933916 216.402896 34.931956 215.534035 33.952769 214.642309 C 32.928037 213.727719 32.83695 212.150051 33.770594 211.166866 Z M 33.770594 211.144002 " transform="matrix(0.171539,0,0,0.170842,0,0.0098661)"/>
<path style="fill:none;stroke-width:2.25;stroke-linecap:round;stroke-linejoin:miter;stroke:rgb(88.627451%,77.647059%,45.882353%);stroke-opacity:1;stroke-miterlimit:10;" d="M 35.569567 212.264375 C 33.474561 210.389465 31.447869 208.44596 29.489494 206.433862 " transform="matrix(0.171539,0,0,0.170842,0,0.0098661)"/>
<path style="fill:none;stroke-width:2.25;stroke-linecap:butt;stroke-linejoin:miter;stroke:rgb(88.627451%,77.647059%,45.882353%);stroke-opacity:1;stroke-miterlimit:10;" d="M 43.79019 219.489638 L 44.245627 218.895154 C 45.065412 217.82051 46.591123 217.568998 47.638626 218.3464 C 48.663358 219.100937 49.733633 219.764015 50.781136 220.495687 C 51.874183 221.227359 52.192988 222.690704 51.487062 223.856806 L 51.07717 224.497019 C 50.371243 225.640257 48.799989 226.006093 47.638626 225.228691 C 46.545579 224.474154 45.429761 223.742482 44.359486 222.965081 C 43.243667 222.141949 42.993177 220.610011 43.79019 219.512502 Z M 43.79019 219.489638 " transform="matrix(0.171539,0,0,0.170842,0,0.0098661)"/>
<path style="fill:none;stroke-width:2.25;stroke-linecap:round;stroke-linejoin:miter;stroke:rgb(88.627451%,77.647059%,45.882353%);stroke-opacity:1;stroke-miterlimit:10;" d="M 45.703022 220.427093 C 43.425841 218.78083 41.194204 217.065974 39.030882 215.259658 " transform="matrix(0.171539,0,0,0.170842,0,0.0098661)"/>
<path style="fill:none;stroke-width:2.25;stroke-linecap:butt;stroke-linejoin:miter;stroke:rgb(88.627451%,77.647059%,45.882353%);stroke-opacity:1;stroke-miterlimit:10;" d="M 54.720659 226.669171 L 55.085008 226.028958 C 55.768162 224.839991 57.202786 224.45129 58.364149 225.022909 C 59.479967 225.594528 60.573014 226.234741 61.734377 226.737765 C 62.918511 227.286519 63.419491 228.749864 62.872967 229.984561 L 62.576934 230.670503 C 62.03041 231.928065 60.550243 232.43109 59.297793 231.859471 C 58.068115 231.310717 56.906753 230.647639 55.699847 230.03029 C 54.470169 229.390077 54.060277 227.835274 54.720659 226.669171 Z M 54.720659 226.669171 " transform="matrix(0.171539,0,0,0.170842,0,0.0098661)"/>
<path style="fill:none;stroke-width:2.25;stroke-linecap:round;stroke-linejoin:miter;stroke:rgb(88.627451%,77.647059%,45.882353%);stroke-opacity:1;stroke-miterlimit:10;" d="M 56.701807 227.355114 C 55.449357 226.692036 54.265223 225.960364 53.035545 225.274421 C 51.828639 224.519884 50.644505 223.788212 49.460371 223.01081 " transform="matrix(0.171539,0,0,0.170842,0,0.0098661)"/>
<path style="fill:none;stroke-width:2.25;stroke-linecap:butt;stroke-linejoin:miter;stroke:rgb(88.627451%,77.647059%,45.882353%);stroke-opacity:1;stroke-miterlimit:10;" d="M 66.493685 232.271036 L 66.766947 231.562229 C 67.267926 230.304667 68.634235 229.618725 69.841141 230.053155 C 71.025275 230.487585 72.209409 230.784827 73.416315 231.150663 C 74.645993 231.47077 75.420234 232.774061 75.124201 234.100217 L 74.964798 234.831889 C 74.668765 236.158045 73.302456 236.981176 71.913376 236.638205 C 70.638154 236.226639 69.317389 235.883668 68.042168 235.426373 C 66.698631 234.946213 66.015477 233.528598 66.516457 232.271036 Z M 66.493685 232.271036 " transform="matrix(0.171539,0,0,0.170842,0,0.0098661)"/>
<path style="fill:none;stroke-width:2.25;stroke-linecap:round;stroke-linejoin:miter;stroke:rgb(88.627451%,77.647059%,45.882353%);stroke-opacity:1;stroke-miterlimit:10;" d="M 68.588691 232.614008 C 67.267926 232.156713 65.947161 231.699417 64.649168 231.127799 L 62.713564 230.304667 L 60.800732 229.412942 " transform="matrix(0.171539,0,0,0.170842,0,0.0098661)"/>
<path style="fill:none;stroke-width:2.25;stroke-linecap:butt;stroke-linejoin:miter;stroke:rgb(88.627451%,77.647059%,45.882353%);stroke-opacity:1;stroke-miterlimit:10;" d="M 79.132039 235.65502 L 79.245898 234.900483 C 79.450845 233.597192 80.634979 232.591143 81.9102 232.751196 C 83.117106 232.934114 84.324012 232.911249 85.55369 232.979844 C 86.828911 232.979844 87.921958 234.008758 87.94473 235.380643 L 87.967502 236.13518 C 87.990273 237.461336 86.919998 238.650303 85.462603 238.650303 C 84.096294 238.558844 82.707214 238.581709 81.340905 238.398791 C 79.929053 238.238738 78.927093 237.026906 79.132039 235.65502 Z M 79.132039 235.65502 " transform="matrix(0.171539,0,0,0.170842,0,0.0098661)"/>
<path style="fill:none;stroke-width:2.25;stroke-linecap:round;stroke-linejoin:miter;stroke:rgb(88.627451%,77.647059%,45.882353%);stroke-opacity:1;stroke-miterlimit:10;" d="M 81.249818 235.517832 C 78.448885 235.266319 75.693496 234.648971 72.960879 233.985893 " transform="matrix(0.171539,0,0,0.170842,0,0.0098661)"/>
<path style="fill:none;stroke-width:2.25;stroke-linecap:butt;stroke-linejoin:miter;stroke:rgb(88.627451%,77.647059%,45.882353%);stroke-opacity:1;stroke-miterlimit:10;" d="M 92.203058 235.975127 L 92.134743 235.22059 C 92.043656 233.848704 93.022843 232.659737 94.298065 232.499684 C 95.550514 232.339631 96.780192 232.248172 98.032642 232.042389 C 99.307863 231.813741 100.560312 232.705467 100.810802 234.031623 L 100.947433 234.763295 C 101.197923 236.112315 100.287051 237.392742 98.89797 237.644254 C 97.577205 237.850037 96.233669 237.964361 94.890132 238.124414 C 93.501051 238.284467 92.294146 237.301283 92.203058 235.952262 Z M 92.203058 235.975127 " transform="matrix(0.171539,0,0,0.170842,0,0.0098661)"/>
<path style="fill:none;stroke-width:2.25;stroke-linecap:round;stroke-linejoin:miter;stroke:rgb(88.627451%,77.647059%,45.882353%);stroke-opacity:1;stroke-miterlimit:10;" d="M 94.229749 235.380643 L 92.134743 235.609291 L 90.039736 235.677885 L 85.80418 235.815074 " transform="matrix(0.171539,0,0,0.170842,0,0.0098661)"/>
<path style="fill:none;stroke-width:2.25;stroke-linecap:butt;stroke-linejoin:miter;stroke:rgb(88.627451%,77.647059%,45.882353%);stroke-opacity:1;stroke-miterlimit:10;" d="M 105.091903 233.917299 L 104.9325 233.185627 C 104.613695 231.859471 105.410708 230.533315 106.663158 230.190344 L 108.484902 229.733048 C 109.099741 229.572995 109.669036 229.344348 110.283875 229.161429 C 111.513553 228.749864 112.879862 229.458671 113.335298 230.739098 L 113.585788 231.47077 C 114.041224 232.751196 113.312526 234.145946 111.968989 234.580377 C 111.331379 234.786159 110.71654 235.014807 110.078929 235.197725 L 108.120553 235.70075 C 106.777017 236.043721 105.410708 235.266319 105.114674 233.940164 Z M 105.091903 233.917299 " transform="matrix(0.171539,0,0,0.170842,0,0.0098661)"/>
<path style="fill:none;stroke-width:2.25;stroke-linecap:round;stroke-linejoin:miter;stroke:rgb(88.627451%,77.647059%,45.882353%);stroke-opacity:1;stroke-miterlimit:10;" d="M 107.027507 233.048438 L 104.978044 233.574327 C 104.294889 233.757245 103.611735 233.917299 102.928581 234.031623 L 98.784111 234.809024 " transform="matrix(0.171539,0,0,0.170842,0,0.0098661)"/>
<path style="fill:none;stroke-width:2.25;stroke-linecap:butt;stroke-linejoin:miter;stroke:rgb(88.627451%,77.647059%,45.882353%);stroke-opacity:1;stroke-miterlimit:10;" d="M 117.548083 229.984561 L 117.274821 229.298618 C 116.773841 228.018192 117.365908 226.600577 118.595586 226.120417 C 119.77972 225.663122 120.895539 225.068638 122.056901 224.565614 C 123.241035 224.016859 124.698431 224.565614 125.290498 225.777446 L 125.632075 226.440524 C 126.224142 227.67522 125.700391 229.138565 124.425169 229.710184 C 123.218263 230.258938 122.034129 230.876286 120.78168 231.333581 C 119.483687 231.859471 118.026291 231.242122 117.548083 229.984561 Z M 117.548083 229.984561 " transform="matrix(0.171539,0,0,0.170842,0,0.0098661)"/>
<path style="fill:none;stroke-width:2.25;stroke-linecap:round;stroke-linejoin:miter;stroke:rgb(88.627451%,77.647059%,45.882353%);stroke-opacity:1;stroke-miterlimit:10;" d="M 119.324284 228.864188 L 115.407533 230.418991 C 114.086768 230.899151 112.743231 231.310717 111.399694 231.768012 " transform="matrix(0.171539,0,0,0.170842,0,0.0098661)"/>
<path style="fill:none;stroke-width:2.25;stroke-linecap:butt;stroke-linejoin:miter;stroke:rgb(88.627451%,77.647059%,45.882353%);stroke-opacity:1;stroke-miterlimit:10;" d="M 129.389424 224.497019 L 129.025075 223.833941 C 128.387464 222.622109 128.8429 221.204494 129.981491 220.541416 L 133.260632 218.620777 C 134.421994 217.957699 135.87939 218.277806 136.630859 219.443908 L 137.01798 220.084121 C 137.746678 221.227359 137.405101 222.782163 136.198195 223.468105 L 132.759652 225.480204 C 131.552746 226.166146 130.004263 225.685987 129.389424 224.497019 Z M 129.389424 224.497019 " transform="matrix(0.171539,0,0,0.170842,0,0.0098661)"/>
<path style="fill:none;stroke-width:2.25;stroke-linecap:round;stroke-linejoin:miter;stroke:rgb(88.627451%,77.647059%,45.882353%);stroke-opacity:1;stroke-miterlimit:10;" d="M 131.028994 223.193728 C 129.799316 223.879671 128.546867 224.519884 127.294417 225.160097 C 126.679578 225.480204 126.06474 225.823175 125.427129 226.143282 L 123.514297 227.012142 " transform="matrix(0.171539,0,0,0.170842,0,0.0098661)"/>
<path style="fill:none;stroke-width:2.25;stroke-linecap:butt;stroke-linejoin:miter;stroke:rgb(88.627451%,77.647059%,45.882353%);stroke-opacity:1;stroke-miterlimit:10;" d="M 140.570382 217.82051 L 140.16049 217.180297 C 139.40902 216.059924 139.682282 214.527986 140.775329 213.750584 C 141.822832 213.018912 142.893107 212.332969 143.917839 211.578432 C 144.988114 210.778166 146.513825 211.029678 147.33361 212.127186 L 147.789046 212.72167 C 148.58606 213.819178 148.358341 215.351117 147.242523 216.174248 C 146.172248 216.95165 145.079201 217.683322 143.986154 218.437859 C 142.847563 219.215261 141.321852 218.940884 140.570382 217.797646 Z M 140.570382 217.82051 " transform="matrix(0.171539,0,0,0.170842,0,0.0098661)"/>
<path style="fill:none;stroke-width:2.25;stroke-linecap:round;stroke-linejoin:miter;stroke:rgb(88.627451%,77.647059%,45.882353%);stroke-opacity:1;stroke-miterlimit:10;" d="M 142.073322 216.311437 L 140.342664 217.500404 L 138.566463 218.643642 C 137.359557 219.375314 136.220967 220.17558 134.991289 220.884388 " transform="matrix(0.171539,0,0,0.170842,0,0.0098661)"/>
<path style="fill:none;stroke-width:2.25;stroke-linecap:butt;stroke-linejoin:miter;stroke:rgb(88.627451%,77.647059%,45.882353%);stroke-opacity:1;stroke-miterlimit:10;" d="M 151.159274 210.183682 L 150.681066 209.589198 C 149.861281 208.514555 150.043455 206.982616 151.090959 206.159485 C 152.11569 205.382083 153.072106 204.558952 154.074066 203.735821 C 155.098797 202.889825 156.670052 203.049878 157.535381 204.078792 L 158.013589 204.673276 C 158.878918 205.70219 158.719515 207.256993 157.672012 208.125854 C 156.64728 208.948985 155.645321 209.817846 154.620589 210.618112 C 153.527542 211.464108 151.979059 211.28119 151.159274 210.183682 Z M 151.159274 210.183682 " transform="matrix(0.171539,0,0,0.170842,0,0.0098661)"/>
<path style="fill:none;stroke-width:2.25;stroke-linecap:round;stroke-linejoin:miter;stroke:rgb(88.627451%,77.647059%,45.882353%);stroke-opacity:1;stroke-miterlimit:10;" d="M 152.571126 208.606014 L 149.22367 211.189731 L 145.830671 213.704854 " transform="matrix(0.171539,0,0,0.170842,0,0.0098661)"/>
<path style="fill:none;stroke-width:2.25;stroke-linecap:butt;stroke-linejoin:miter;stroke:rgb(88.627451%,77.647059%,45.882353%);stroke-opacity:1;stroke-miterlimit:10;" d="M 161.224414 201.90664 L 160.746206 201.335021 C 159.858105 200.306107 159.949193 198.774169 160.973924 197.882443 L 163.865944 195.321591 C 164.82236 194.429865 166.370843 194.498459 167.304487 195.481644 L 167.805467 196.030398 C 168.739111 197.036447 168.670796 198.614115 167.646064 199.528706 L 164.708501 202.135288 C 163.68377 203.049878 162.112515 202.935554 161.247186 201.90664 Z M 161.224414 201.90664 " transform="matrix(0.171539,0,0,0.170842,0,0.0098661)"/>
<path style="fill:none;stroke-width:2.25;stroke-linecap:round;stroke-linejoin:miter;stroke:rgb(88.627451%,77.647059%,45.882353%);stroke-opacity:1;stroke-miterlimit:10;" d="M 162.545179 200.260378 C 160.427401 202.112423 158.309622 203.964468 156.123529 205.725055 " transform="matrix(0.171539,0,0,0.170842,0,0.0098661)"/>
<path style="fill:none;stroke-width:2.25;stroke-linecap:butt;stroke-linejoin:miter;stroke:rgb(88.627451%,77.647059%,45.882353%);stroke-opacity:1;stroke-miterlimit:10;" d="M 170.902433 193.172303 L 170.378682 192.623549 C 169.445037 191.640365 169.445037 190.085561 170.378682 189.170971 L 173.111299 186.450065 C 173.999399 185.489745 175.547882 185.466881 176.549842 186.381471 L 177.096366 186.90736 C 178.075553 187.844815 178.121097 189.399619 177.164681 190.405668 L 174.363748 193.195168 C 173.384561 194.178353 171.836077 194.155488 170.902433 193.172303 Z M 170.902433 193.172303 " transform="matrix(0.171539,0,0,0.170842,0,0.0098661)"/>
<path style="fill:none;stroke-width:2.25;stroke-linecap:round;stroke-linejoin:miter;stroke:rgb(88.627451%,77.647059%,45.882353%);stroke-opacity:1;stroke-miterlimit:10;" d="M 172.109339 191.434582 C 170.150964 193.469545 168.033185 195.298726 165.983722 197.219365 " transform="matrix(0.171539,0,0,0.170842,0,0.0098661)"/>
<path style="fill:none;stroke-width:2.25;stroke-linecap:butt;stroke-linejoin:miter;stroke:rgb(88.627451%,77.647059%,45.882353%);stroke-opacity:1;stroke-miterlimit:10;" d="M 179.988385 183.820618 L 179.41909 183.317594 C 178.439902 182.380139 178.326043 180.8482 179.214144 179.842151 L 181.741815 176.961191 C 182.629915 175.955142 184.132855 175.817954 185.180358 176.686814 L 185.772425 177.166974 C 186.819928 178.035835 186.956559 179.590638 186.068459 180.642417 L 183.449701 183.591971 C 182.538828 184.620885 180.990345 184.712344 180.011157 183.820618 Z M 179.988385 183.820618 " transform="matrix(0.171539,0,0,0.170842,0,0.0098661)"/>
<path style="fill:none;stroke-width:2.25;stroke-linecap:round;stroke-linejoin:miter;stroke:rgb(88.627451%,77.647059%,45.882353%);stroke-opacity:1;stroke-miterlimit:10;" d="M 181.081432 182.014302 L 179.66958 183.591971 L 178.234956 185.123909 L 175.342936 188.210651 " transform="matrix(0.171539,0,0,0.170842,0,0.0098661)"/>
<path style="fill:none;stroke-width:2.25;stroke-linecap:butt;stroke-linejoin:miter;stroke:rgb(88.627451%,77.647059%,45.882353%);stroke-opacity:1;stroke-miterlimit:10;" d="M 188.459499 173.920179 L 187.867432 173.440019 C 186.819928 172.594023 186.614982 171.03922 187.434767 169.987441 L 189.803035 166.969293 C 190.622821 165.917514 192.12576 165.688867 193.218807 166.489133 L 193.810874 166.946428 C 194.903921 167.769559 195.154411 169.324363 194.311854 170.399006 L 191.898042 173.508613 C 191.055485 174.583257 189.507002 174.78904 188.436727 173.920179 Z M 188.459499 173.920179 " transform="matrix(0.171539,0,0,0.170842,0,0.0098661)"/>
<path style="fill:none;stroke-width:2.25;stroke-linecap:round;stroke-linejoin:miter;stroke:rgb(88.627451%,77.647059%,45.882353%);stroke-opacity:1;stroke-miterlimit:10;" d="M 189.438687 172.045269 C 187.730801 174.286015 185.886284 176.389573 184.110083 178.584589 " transform="matrix(0.171539,0,0,0.170842,0,0.0098661)"/>
<path style="fill:none;stroke-width:2.25;stroke-linecap:butt;stroke-linejoin:miter;stroke:rgb(88.627451%,77.647059%,45.882353%);stroke-opacity:1;stroke-miterlimit:10;" d="M 196.361317 163.53958 L 195.746478 163.105149 C 194.630659 162.304883 194.380169 160.795809 195.154411 159.698301 L 197.340505 156.520099 C 198.114746 155.445456 199.640457 155.148214 200.756276 155.902751 L 201.371115 156.314317 C 202.509705 157.068854 202.828511 158.623657 202.031497 159.74403 L 199.777088 162.967961 C 199.002847 164.111199 197.454364 164.339846 196.361317 163.53958 Z M 196.361317 163.53958 " transform="matrix(0.171539,0,0,0.170842,0,0.0098661)"/>
<path style="fill:none;stroke-width:2.25;stroke-linecap:round;stroke-linejoin:miter;stroke:rgb(88.627451%,77.647059%,45.882353%);stroke-opacity:1;stroke-miterlimit:10;" d="M 197.249417 161.61894 C 195.609847 163.92828 193.924733 166.169027 192.262391 168.432637 " transform="matrix(0.171539,0,0,0.170842,0,0.0098661)"/>
<path style="fill:none;stroke-width:2.25;stroke-linecap:butt;stroke-linejoin:miter;stroke:rgb(88.627451%,77.647059%,45.882353%);stroke-opacity:1;stroke-miterlimit:10;" d="M 203.69384 152.770279 L 203.079001 152.358714 C 201.917638 151.627042 201.621605 150.140833 202.327531 148.997595 L 204.376994 145.727935 C 205.08292 144.584697 206.608631 144.241725 207.769993 144.950533 L 208.407604 145.339234 C 209.568966 146.048041 209.910544 147.557115 209.204618 148.700353 L 207.109611 152.038607 C 206.380913 153.20471 204.83243 153.501952 203.69384 152.770279 Z M 203.69384 152.770279 " transform="matrix(0.171539,0,0,0.170842,0,0.0098661)"/>
<path style="fill:none;stroke-width:2.25;stroke-linecap:round;stroke-linejoin:miter;stroke:rgb(88.627451%,77.647059%,45.882353%);stroke-opacity:1;stroke-miterlimit:10;" d="M 204.513625 150.84964 C 202.987913 153.181845 201.43943 155.55978 199.868175 157.86912 " transform="matrix(0.171539,0,0,0.170842,0,0.0098661)"/>
<path style="fill:none;stroke-width:2.25;stroke-linecap:butt;stroke-linejoin:miter;stroke:rgb(88.627451%,77.647059%,45.882353%);stroke-opacity:1;stroke-miterlimit:10;" d="M 210.570926 141.703738 L 209.910544 141.337901 C 208.749181 140.629094 208.339289 139.142885 209.022443 137.999647 L 210.935275 134.638528 C 211.595658 133.449561 213.098597 133.06086 214.282731 133.723938 L 214.943114 134.089774 C 216.15002 134.752852 216.559912 136.239061 215.876758 137.450893 L 213.941154 140.857742 C 213.235228 142.023844 211.732288 142.412545 210.570926 141.726602 Z M 210.570926 141.703738 " transform="matrix(0.171539,0,0,0.170842,0,0.0098661)"/>
<path style="fill:none;stroke-width:2.25;stroke-linecap:round;stroke-linejoin:miter;stroke:rgb(88.627451%,77.647059%,45.882353%);stroke-opacity:1;stroke-miterlimit:10;" d="M 211.299624 139.737369 C 209.842228 142.161033 208.453148 144.584697 206.950208 146.962631 " transform="matrix(0.171539,0,0,0.170842,0,0.0098661)"/>
<path style="fill:none;stroke-width:2.25;stroke-linecap:butt;stroke-linejoin:miter;stroke:rgb(88.627451%,77.647059%,45.882353%);stroke-opacity:1;stroke-miterlimit:10;" d="M 216.969805 130.362819 L 216.309422 130.019847 C 215.125288 129.356769 214.669852 127.87056 215.330234 126.704458 C 215.945073 125.56122 216.514368 124.417982 217.106436 123.274744 C 217.721274 122.085777 219.201442 121.628482 220.43112 122.24583 L 221.091502 122.588801 C 222.298408 123.20615 222.776616 124.669494 222.139006 125.881326 C 221.524167 127.047429 220.954871 128.213531 220.317261 129.356769 C 219.67965 130.568601 218.176711 131.003032 216.969805 130.362819 Z M 216.969805 130.362819 " transform="matrix(0.171539,0,0,0.170842,0,0.0098661)"/>
<path style="fill:none;stroke-width:2.25;stroke-linecap:round;stroke-linejoin:miter;stroke:rgb(88.627451%,77.647059%,45.882353%);stroke-opacity:1;stroke-miterlimit:10;" d="M 217.630187 128.373585 C 216.28665 130.842978 214.988657 133.312372 213.576805 135.758901 " transform="matrix(0.171539,0,0,0.170842,0,0.0098661)"/>
<path style="fill:none;stroke-width:2.25;stroke-linecap:butt;stroke-linejoin:miter;stroke:rgb(88.627451%,77.647059%,45.882353%);stroke-opacity:1;stroke-miterlimit:10;" d="M 223.004334 118.816117 L 222.32118 118.473145 C 221.114274 117.855797 220.613294 116.392453 221.205361 115.180621 C 221.797428 114.037383 222.343952 112.87128 222.913247 111.705178 C 223.482542 110.493346 224.96271 109.990321 226.169616 110.56194 L 226.85277 110.882046 C 228.082448 111.47653 228.6062 112.939874 228.014132 114.174571 C 227.467609 115.340674 226.898314 116.529641 226.306247 117.695744 C 225.691408 118.907576 224.21124 119.4106 223.004334 118.793252 Z M 223.004334 118.816117 " transform="matrix(0.171539,0,0,0.170842,0,0.0098661)"/>
<path style="fill:none;stroke-width:2.25;stroke-linecap:round;stroke-linejoin:miter;stroke:rgb(88.627451%,77.647059%,45.882353%);stroke-opacity:1;stroke-miterlimit:10;" d="M 223.57363 116.781153 C 222.32118 119.319141 221.06873 121.8114 219.770737 124.303658 " transform="matrix(0.171539,0,0,0.170842,0,0.0098661)"/>
<path style="fill:none;stroke-width:2.25;stroke-linecap:butt;stroke-linejoin:miter;stroke:rgb(88.627451%,77.647059%,45.882353%);stroke-opacity:1;stroke-miterlimit:10;" d="M 228.651743 107.086497 L 227.991361 106.76639 C 226.738911 106.194771 226.192388 104.731427 226.761683 103.519595 C 227.308206 102.330628 227.85473 101.164525 228.378481 99.998423 C 228.925005 98.763726 230.382401 98.214972 231.612078 98.763726 L 232.318005 99.060968 C 233.547682 99.609722 234.116978 101.073066 233.570454 102.330628 C 233.046702 103.519595 232.477407 104.685698 231.930884 105.874665 C 231.361589 107.109362 229.904193 107.658116 228.674515 107.086497 Z M 228.651743 107.086497 " transform="matrix(0.171539,0,0,0.170842,0,0.0098661)"/>
<path style="fill:none;stroke-width:2.25;stroke-linecap:round;stroke-linejoin:miter;stroke:rgb(88.627451%,77.647059%,45.882353%);stroke-opacity:1;stroke-miterlimit:10;" d="M 229.175495 105.028669 C 228.014132 107.589522 226.807227 110.150374 225.600321 112.665497 " transform="matrix(0.171539,0,0,0.170842,0,0.0098661)"/>
<path style="fill:none;stroke-width:2.25;stroke-linecap:butt;stroke-linejoin:miter;stroke:rgb(88.627451%,77.647059%,45.882353%);stroke-opacity:1;stroke-miterlimit:10;" d="M 234.003118 95.219688 L 233.319964 94.899582 C 232.067515 94.373693 231.475448 92.910348 231.999199 91.698516 L 233.547682 88.131614 C 234.048662 86.896917 235.483286 86.302434 236.758507 86.828323 L 237.441662 87.125565 C 238.694111 87.628589 239.286178 89.091934 238.762427 90.349495 L 237.236715 93.939262 C 236.690192 95.196824 235.255568 95.768443 234.003118 95.219688 Z M 234.003118 95.219688 " transform="matrix(0.171539,0,0,0.170842,0,0.0098661)"/>
<path style="fill:none;stroke-width:2.25;stroke-linecap:round;stroke-linejoin:miter;stroke:rgb(88.627451%,77.647059%,45.882353%);stroke-opacity:1;stroke-miterlimit:10;" d="M 234.481326 93.138996 C 233.38828 95.745578 232.204146 98.306431 231.088327 100.867283 " transform="matrix(0.171539,0,0,0.170842,0,0.0098661)"/>
<path style="fill:none;stroke-width:2.25;stroke-linecap:butt;stroke-linejoin:miter;stroke:rgb(88.627451%,77.647059%,45.882353%);stroke-opacity:1;stroke-miterlimit:10;" d="M 239.05846 83.215692 L 238.352534 82.91845 C 237.100085 82.39256 236.508018 80.974945 237.008997 79.740249 L 238.443621 76.127617 C 238.967373 74.870056 240.379225 74.275572 241.631675 74.778597 L 242.337601 75.052974 C 243.59005 75.555998 244.227661 76.973613 243.726681 78.231175 L 242.269285 81.866671 C 241.745534 83.124233 240.31091 83.718716 239.05846 83.215692 Z M 239.05846 83.215692 " transform="matrix(0.171539,0,0,0.170842,0,0.0098661)"/>
<path style="fill:none;stroke-width:2.25;stroke-linecap:round;stroke-linejoin:miter;stroke:rgb(88.627451%,77.647059%,45.882353%);stroke-opacity:1;stroke-miterlimit:10;" d="M 239.491125 81.157864 L 236.280299 88.931881 " transform="matrix(0.171539,0,0,0.170842,0,0.0098661)"/>
<path style="fill:none;stroke-width:2.25;stroke-linecap:butt;stroke-linejoin:miter;stroke:rgb(88.627451%,77.647059%,45.882353%);stroke-opacity:1;stroke-miterlimit:10;" d="M 243.886084 71.120236 L 243.180158 70.845859 C 241.927708 70.342834 241.290098 68.925219 241.791077 67.667657 L 243.157386 64.055026 C 243.635594 62.797464 245.070218 62.157251 246.322668 62.637411 L 247.028594 62.911788 C 248.303815 63.391948 248.941426 64.809563 248.463218 66.067125 L 247.074137 69.725485 C 246.595929 70.983047 245.161305 71.600395 243.886084 71.120236 Z M 243.886084 71.120236 " transform="matrix(0.171539,0,0,0.170842,0,0.0098661)"/>
<path style="fill:none;stroke-width:2.25;stroke-linecap:round;stroke-linejoin:miter;stroke:rgb(88.627451%,77.647059%,45.882353%);stroke-opacity:1;stroke-miterlimit:10;" d="M 244.295977 69.039543 L 241.19901 76.905019 " transform="matrix(0.171539,0,0,0.170842,0,0.0098661)"/>
<path style="fill:none;stroke-width:2.25;stroke-linecap:butt;stroke-linejoin:miter;stroke:rgb(88.627451%,77.647059%,45.882353%);stroke-opacity:1;stroke-miterlimit:10;" d="M 248.508761 58.933321 L 247.825607 58.681808 C 246.550386 58.201648 245.890003 56.806898 246.368211 55.526472 L 247.688976 51.890976 C 248.167184 50.610549 249.579036 49.970336 250.854258 50.427631 L 251.560184 50.679144 C 252.835405 51.136439 253.495788 52.554054 253.040352 53.83448 L 251.696815 57.492841 C 251.218607 58.773267 249.806755 59.413481 248.508761 58.933321 Z M 248.508761 58.933321 " transform="matrix(0.171539,0,0,0.170842,0,0.0098661)"/>
<path style="fill:none;stroke-width:2.25;stroke-linecap:round;stroke-linejoin:miter;stroke:rgb(88.627451%,77.647059%,45.882353%);stroke-opacity:1;stroke-miterlimit:10;" d="M 248.895882 56.875493 L 245.935547 64.763833 " transform="matrix(0.171539,0,0,0.170842,0,0.0098661)"/>
<path style="fill:none;stroke-width:2.25;stroke-linecap:butt;stroke-linejoin:miter;stroke:rgb(88.627451%,77.647059%,45.882353%);stroke-opacity:1;stroke-miterlimit:10;" d="M 252.972036 46.700676 L 252.26611 46.449164 C 250.990889 45.991869 250.330506 44.597119 250.785942 43.339557 L 252.083936 39.681196 C 252.539372 38.40077 253.928452 37.737692 255.226445 38.172122 L 255.932371 38.423634 C 257.207593 38.88093 257.890747 40.27568 257.435311 41.556106 L 256.137318 45.237332 C 255.65911 46.517758 254.270029 47.180836 252.972036 46.723541 Z M 252.972036 46.700676 " transform="matrix(0.171539,0,0,0.170842,0,0.0098661)"/>
<path style="fill:none;stroke-width:2.25;stroke-linecap:round;stroke-linejoin:miter;stroke:rgb(88.627451%,77.647059%,45.882353%);stroke-opacity:1;stroke-miterlimit:10;" d="M 253.336385 44.642848 L 250.467137 52.576918 " transform="matrix(0.171539,0,0,0.170842,0,0.0098661)"/>
<path style="fill:none;stroke-width:2.25;stroke-linecap:butt;stroke-linejoin:miter;stroke:rgb(88.627451%,77.647059%,45.882353%);stroke-opacity:1;stroke-miterlimit:10;" d="M 257.321452 34.445167 L 256.615526 34.193655 C 255.340304 33.736359 254.65715 32.341609 255.089814 31.061183 L 256.365036 27.402822 C 256.7977 26.122396 258.209552 25.459318 259.484774 25.893748 L 260.1907 26.122396 C 261.488693 26.579691 262.149076 27.974441 261.716411 29.254867 L 260.44119 32.936093 C 259.985754 34.216519 258.596673 34.879597 257.29868 34.445167 Z M 257.321452 34.445167 " transform="matrix(0.171539,0,0,0.170842,0,0.0098661)"/>
<path style="fill:none;stroke-width:2.25;stroke-linecap:round;stroke-linejoin:miter;stroke:rgb(88.627451%,77.647059%,45.882353%);stroke-opacity:1;stroke-miterlimit:10;" d="M 257.640257 32.364474 L 254.862096 40.321409 " transform="matrix(0.171539,0,0,0.170842,0,0.0098661)"/>
<path style="fill:none;stroke-width:2.25;stroke-linecap:butt;stroke-linejoin:miter;stroke:rgb(88.627451%,77.647059%,45.882353%);stroke-opacity:1;stroke-miterlimit:10;" d="M 261.57978 22.143928 L 260.873854 21.892416 C 259.575861 21.457985 258.892707 20.063235 259.348143 18.782809 L 260.600592 15.101583 C 261.033257 13.821157 262.422337 13.158079 263.72033 13.592509 L 264.426257 13.821157 C 265.72425 14.278452 266.407404 15.650337 265.97474 16.930764 L 264.699518 20.634854 C 264.266854 21.915281 262.877773 22.601223 261.57978 22.143928 Z M 261.57978 22.143928 " transform="matrix(0.171539,0,0,0.170842,0,0.0098661)"/>
<path style="fill:none;stroke-width:2.25;stroke-linecap:round;stroke-linejoin:miter;stroke:rgb(88.627451%,77.647059%,45.882353%);stroke-opacity:1;stroke-miterlimit:10;" d="M 261.898586 20.063235 L 259.143197 28.02017 " transform="matrix(0.171539,0,0,0.170842,0,0.0098661)"/>
<path style="fill:none;stroke-width:2.25;stroke-linecap:butt;stroke-linejoin:miter;stroke:rgb(88.627451%,77.647059%,45.882353%);stroke-opacity:1;stroke-miterlimit:10;" d="M 265.792565 9.819825 L 265.086639 9.591177 C 263.788646 9.133882 263.105492 7.739132 263.538156 6.458705 L 264.790605 2.800345 C 265.246042 1.519918 266.635122 0.833975 267.910343 1.268406 L 268.639041 1.519918 C 269.914263 1.954349 270.620189 3.349099 270.164753 4.629525 L 268.912303 8.310751 C 268.479639 9.591177 267.090558 10.254255 265.792565 9.819825 Z M 265.792565 9.819825 " transform="matrix(0.171539,0,0,0.170842,0,0.0098661)"/>
<path style="fill:none;stroke-width:2.25;stroke-linecap:round;stroke-linejoin:miter;stroke:rgb(88.627451%,77.647059%,45.882353%);stroke-opacity:1;stroke-miterlimit:10;" d="M 266.11137 7.739132 L 263.378753 15.718932 " transform="matrix(0.171539,0,0,0.170842,0,0.0098661)"/>
</g>
</svg>
