<?xml version="1.0" encoding="UTF-8"?>
<svg xmlns="http://www.w3.org/2000/svg" xmlns:xlink="http://www.w3.org/1999/xlink" width="48px" height="px" viewBox="0 0 48 31" version="1.1">
<defs>
<filter id="alpha" filterUnits="objectBoundingBox" x="0%" y="0%" width="100%" height="100%">
  <feColorMatrix type="matrix" in="SourceGraphic" values="0 0 0 0 1 0 0 0 0 1 0 0 0 0 1 0 0 0 1 0"/>
</filter>
<mask id="mask0">
  <g filter="url(#alpha)">
<rect x="0" y="0" width="48" height="31" style="fill:rgb(0%,0%,0%);fill-opacity:0.180392;stroke:none;"/>
  </g>
</mask>
<clipPath id="clip1">
  <rect x="0" y="0" width="48" height="31"/>
</clipPath>
<g id="surface5" clip-path="url(#clip1)">
<path style=" stroke:none;fill-rule:nonzero;fill:rgb(0%,0%,0%);fill-opacity:1;" d="M 13.40625 23.605469 C 13.929688 22.925781 14.773438 22.046875 15.292969 21.367188 C 15.144531 21.558594 16.019531 23.363281 16.125 23.632812 C 16.4375 24.414062 16.777344 25.1875 17.15625 25.933594 C 17.460938 26.527344 17.785156 27.121094 18.160156 27.671875 C 18.492188 28.15625 18.832031 28.5625 18.898438 29.171875 C 18.925781 29.453125 18.902344 29.734375 18.921875 30.015625 C 18.945312 30.296875 19.019531 30.585938 19.214844 30.785156 C 19.566406 31.15625 20.503906 30.976562 20.910156 30.765625 C 21.671875 30.367188 21.699219 29.40625 21.277344 28.476562 C 21.058594 28 21.226562 27.742188 21.367188 27.261719 C 21.59375 26.484375 21.816406 25.703125 22.039062 24.921875 C 22.453125 23.445312 22.859375 21.96875 23.226562 20.480469 C 24.207031 21.53125 25.113281 22.648438 25.945312 23.824219 C 26.359375 24.410156 26.757812 25.011719 27.132812 25.625 C 27.324219 25.9375 27.449219 26.101562 27.457031 26.445312 C 27.476562 27.265625 27.363281 27.925781 28.082031 28.484375 C 28.324219 28.671875 28.648438 28.773438 28.9375 28.671875 C 29.71875 28.386719 29.851562 26.964844 29.683594 26.296875 C 29.507812 25.574219 29.214844 25.058594 29.289062 24.304688 C 29.367188 23.550781 29.414062 22.832031 29.445312 22.089844 C 29.460938 21.773438 29.65625 18.210938 29.507812 18.179688 C 31.246094 18.535156 32.945312 19.101562 34.582031 19.800781 C 35.253906 20.085938 35.914062 20.394531 36.5625 20.722656 C 37.140625 21.015625 37.738281 21.21875 37.8125 21.953125 C 37.886719 22.695312 38.261719 23.515625 39.117188 23.511719 C 39.574219 23.507812 40.042969 23.386719 40.378906 23.074219 C 40.71875 22.761719 40.882812 22.242188 40.703125 21.820312 C 40.574219 21.519531 40.300781 21.3125 40.023438 21.152344 C 39.742188 20.992188 39.441406 20.863281 39.191406 20.65625 C 38.734375 20.28125 38.722656 19.625 38.574219 19.082031 C 38.390625 18.425781 38.179688 17.773438 37.9375 17.136719 C 37.414062 15.757812 36.746094 14.414062 35.839844 13.25 C 37.644531 13.066406 39.46875 13.121094 41.265625 13.355469 C 41.988281 13.449219 42.710938 13.570312 43.425781 13.722656 C 44 13.84375 44.5625 13.945312 44.769531 14.578125 C 44.894531 14.960938 44.84375 15.25 45.175781 15.546875 C 45.945312 16.238281 47.0625 15.800781 47.367188 14.859375 C 47.539062 14.335938 47.382812 13.703125 46.949219 13.371094 C 46.582031 13.085938 46.109375 13.050781 45.710938 12.832031 C 45.285156 12.597656 45.054688 12.152344 44.730469 11.800781 C 43.953125 10.964844 42.972656 10.328125 41.953125 9.839844 C 40.03125 8.914062 37.90625 8.339844 36.242188 7 C 33.730469 10.820312 31.050781 14.800781 27.015625 16.882812 C 25.351562 17.742188 23.53125 18.238281 21.710938 18.644531 C 18.859375 19.277344 15.96875 19.722656 13.0625 19.964844 C 13.0625 20.574219 12.890625 21.191406 13.015625 21.785156 C 13.070312 22.03125 13.351562 23.359375 13.40625 23.605469 Z M 13.40625 23.605469 "/>
</g>
<mask id="mask1">
  <g filter="url(#alpha)">
<rect x="0" y="0" width="48" height="31" style="fill:rgb(0%,0%,0%);fill-opacity:0.121569;stroke:none;"/>
  </g>
</mask>
<clipPath id="clip2">
  <rect x="0" y="0" width="48" height="31"/>
</clipPath>
<g id="surface8" clip-path="url(#clip2)">
<path style=" stroke:none;fill-rule:nonzero;fill:rgb(0%,0%,0%);fill-opacity:1;" d="M 1.835938 20.503906 C 1.886719 20.574219 2.003906 20.578125 2.039062 20.554688 C 2.152344 20.492188 2.050781 20.1875 2.015625 20.105469 C 1.898438 19.808594 1.8125 19.628906 1.636719 19.363281 C 1.460938 19.097656 1.265625 18.855469 1.046875 18.625 C 0.953125 18.527344 0.804688 18.417969 0.691406 18.34375 C 0.613281 18.296875 0.496094 18.222656 0.402344 18.253906 C 0.332031 18.28125 0.351562 18.433594 0.363281 18.492188 C 0.679688 18.511719 1.140625 19.121094 1.296875 19.34375 C 1.546875 19.699219 1.824219 20.101562 1.835938 20.503906 Z M 1.835938 20.503906 "/>
</g>
<mask id="mask2">
  <g filter="url(#alpha)">
<rect x="0" y="0" width="48" height="31" style="fill:rgb(0%,0%,0%);fill-opacity:0.121569;stroke:none;"/>
  </g>
</mask>
<clipPath id="clip3">
  <rect x="0" y="0" width="48" height="31"/>
</clipPath>
<g id="surface11" clip-path="url(#clip3)">
<path style=" stroke:none;fill-rule:nonzero;fill:rgb(0%,0%,0%);fill-opacity:1;" d="M 1.375 20 C 1.304688 19.855469 1.144531 19.785156 1.019531 19.851562 C 0.941406 19.890625 0.894531 19.96875 0.890625 20.058594 C 0.886719 20.058594 0.882812 20.058594 0.878906 20.058594 C 0.785156 20.058594 0.695312 20.074219 0.601562 20.0625 C 0.414062 20.042969 0.253906 19.972656 0.09375 19.867188 C 0.128906 19.957031 0.210938 20.101562 0.277344 20.175781 C 0.328125 20.226562 0.398438 20.25 0.46875 20.265625 C 0.632812 20.308594 0.804688 20.332031 0.964844 20.292969 C 1.046875 20.394531 1.175781 20.433594 1.28125 20.378906 C 1.40625 20.316406 1.449219 20.148438 1.375 20 Z M 1.375 20 "/>
</g>
<mask id="mask3">
  <g filter="url(#alpha)">
<rect x="0" y="0" width="48" height="31" style="fill:rgb(0%,0%,0%);fill-opacity:0.121569;stroke:none;"/>
  </g>
</mask>
<clipPath id="clip4">
  <rect x="0" y="0" width="48" height="31"/>
</clipPath>
<g id="surface14" clip-path="url(#clip4)">
<path style=" stroke:none;fill-rule:nonzero;fill:rgb(0%,0%,0%);fill-opacity:1;" d="M 9.996094 28.050781 C 10.078125 28.070312 10.171875 28 10.1875 27.960938 C 10.234375 27.839844 9.960938 27.667969 9.886719 27.625 C 9.609375 27.46875 9.429688 27.386719 9.128906 27.292969 C 8.828125 27.199219 8.527344 27.136719 8.210938 27.097656 C 8.078125 27.082031 7.894531 27.09375 7.761719 27.109375 C 7.671875 27.121094 7.535156 27.136719 7.480469 27.222656 C 7.441406 27.289062 7.554688 27.394531 7.597656 27.429688 C 7.855469 27.246094 8.59375 27.421875 8.851562 27.496094 C 9.269531 27.609375 9.734375 27.746094 9.996094 28.050781 Z M 9.996094 28.050781 "/>
</g>
<mask id="mask4">
  <g filter="url(#alpha)">
<rect x="0" y="0" width="48" height="31" style="fill:rgb(0%,0%,0%);fill-opacity:0.121569;stroke:none;"/>
  </g>
</mask>
<clipPath id="clip5">
  <rect x="0" y="0" width="48" height="31"/>
</clipPath>
<g id="surface17" clip-path="url(#clip5)">
<path style=" stroke:none;fill-rule:nonzero;fill:rgb(0%,0%,0%);fill-opacity:1;" d="M 9.324219 27.953125 C 9.179688 27.886719 9.011719 27.9375 8.953125 28.066406 C 8.917969 28.144531 8.933594 28.234375 8.984375 28.3125 C 8.980469 28.3125 8.980469 28.3125 8.976562 28.316406 C 8.902344 28.378906 8.84375 28.445312 8.761719 28.5 C 8.605469 28.605469 8.4375 28.652344 8.25 28.671875 C 8.328125 28.71875 8.484375 28.777344 8.582031 28.792969 C 8.65625 28.800781 8.722656 28.773438 8.789062 28.742188 C 8.9375 28.667969 9.089844 28.578125 9.191406 28.445312 C 9.316406 28.472656 9.4375 28.417969 9.488281 28.3125 C 9.546875 28.183594 9.472656 28.023438 9.328125 27.953125 Z M 9.324219 27.953125 "/>
</g>
<mask id="mask5">
  <g filter="url(#alpha)">
<rect x="0" y="0" width="48" height="31" style="fill:rgb(0%,0%,0%);fill-opacity:0.121569;stroke:none;"/>
  </g>
</mask>
<clipPath id="clip6">
  <rect x="0" y="0" width="48" height="31"/>
</clipPath>
<g id="surface20" clip-path="url(#clip6)">
<path style=" stroke:none;fill-rule:nonzero;fill:rgb(0%,0%,0%);fill-opacity:1;" d="M 21.167969 29.542969 C 21.253906 29.53125 21.3125 29.429688 21.308594 29.386719 C 21.308594 29.253906 20.992188 29.199219 20.90625 29.191406 C 20.597656 29.152344 20.398438 29.144531 20.085938 29.171875 C 19.769531 29.203125 19.46875 29.257812 19.160156 29.34375 C 19.03125 29.378906 18.867188 29.460938 18.746094 29.527344 C 18.667969 29.570312 18.546875 29.640625 18.53125 29.738281 C 18.519531 29.816406 18.664062 29.871094 18.71875 29.886719 C 18.886719 29.617188 19.636719 29.5 19.902344 29.464844 C 20.332031 29.414062 20.816406 29.359375 21.167969 29.542969 Z M 21.167969 29.542969 "/>
</g>
<mask id="mask6">
  <g filter="url(#alpha)">
<rect x="0" y="0" width="48" height="31" style="fill:rgb(0%,0%,0%);fill-opacity:0.121569;stroke:none;"/>
  </g>
</mask>
<clipPath id="clip7">
  <rect x="0" y="0" width="48" height="31"/>
</clipPath>
<g id="surface23" clip-path="url(#clip7)">
<path style=" stroke:none;fill-rule:nonzero;fill:rgb(0%,0%,0%);fill-opacity:1;" d="M 20.511719 29.710938 C 20.347656 29.703125 20.214844 29.8125 20.207031 29.957031 C 20.207031 30.042969 20.253906 30.121094 20.328125 30.171875 C 20.324219 30.171875 20.324219 30.175781 20.320312 30.179688 C 20.277344 30.265625 20.246094 30.347656 20.191406 30.429688 C 20.082031 30.585938 19.945312 30.695312 19.78125 30.785156 C 19.871094 30.800781 20.039062 30.792969 20.136719 30.773438 C 20.207031 30.75 20.257812 30.699219 20.304688 30.644531 C 20.417969 30.519531 20.523438 30.378906 20.566406 30.21875 C 20.695312 30.191406 20.789062 30.097656 20.792969 29.976562 C 20.800781 29.835938 20.671875 29.71875 20.511719 29.710938 Z M 20.511719 29.710938 "/>
</g>
<mask id="mask7">
  <g filter="url(#alpha)">
<rect x="0" y="0" width="48" height="31" style="fill:rgb(0%,0%,0%);fill-opacity:0.121569;stroke:none;"/>
  </g>
</mask>
<clipPath id="clip8">
  <rect x="0" y="0" width="48" height="31"/>
</clipPath>
<g id="surface26" clip-path="url(#clip8)">
<path style=" stroke:none;fill-rule:nonzero;fill:rgb(0%,0%,0%);fill-opacity:1;" d="M 30.410156 27.59375 C 30.496094 27.597656 30.574219 27.511719 30.582031 27.46875 C 30.605469 27.339844 30.308594 27.222656 30.226562 27.195312 C 29.929688 27.09375 29.734375 27.042969 29.425781 27.007812 C 29.109375 26.96875 28.800781 26.960938 28.488281 26.980469 C 28.351562 26.992188 28.175781 27.035156 28.046875 27.074219 C 27.960938 27.101562 27.828125 27.140625 27.792969 27.238281 C 27.765625 27.308594 27.894531 27.394531 27.941406 27.421875 C 28.164062 27.191406 28.921875 27.230469 29.1875 27.253906 C 29.617188 27.292969 30.101562 27.339844 30.410156 27.589844 Z M 30.410156 27.59375 "/>
</g>
<mask id="mask8">
  <g filter="url(#alpha)">
<rect x="0" y="0" width="48" height="31" style="fill:rgb(0%,0%,0%);fill-opacity:0.121569;stroke:none;"/>
  </g>
</mask>
<clipPath id="clip9">
  <rect x="0" y="0" width="48" height="31"/>
</clipPath>
<g id="surface29" clip-path="url(#clip9)">
<path style=" stroke:none;fill-rule:nonzero;fill:rgb(0%,0%,0%);fill-opacity:1;" d="M 29.734375 27.621094 C 29.578125 27.578125 29.421875 27.660156 29.390625 27.796875 C 29.367188 27.882812 29.398438 27.96875 29.460938 28.03125 C 29.457031 28.035156 29.457031 28.035156 29.453125 28.039062 C 29.394531 28.113281 29.347656 28.191406 29.277344 28.257812 C 29.140625 28.390625 28.984375 28.46875 28.800781 28.519531 C 28.890625 28.554688 29.054688 28.582031 29.152344 28.582031 C 29.226562 28.574219 29.285156 28.535156 29.34375 28.492188 C 29.480469 28.394531 29.613281 28.277344 29.6875 28.128906 C 29.816406 28.128906 29.929688 28.054688 29.957031 27.941406 C 29.988281 27.804688 29.890625 27.660156 29.734375 27.621094 Z M 29.734375 27.621094 "/>
</g>
<mask id="mask9">
  <g filter="url(#alpha)">
<rect x="0" y="0" width="48" height="31" style="fill:rgb(0%,0%,0%);fill-opacity:0.121569;stroke:none;"/>
  </g>
</mask>
<clipPath id="clip10">
  <rect x="0" y="0" width="48" height="31"/>
</clipPath>
<g id="surface32" clip-path="url(#clip10)">
<path style=" stroke:none;fill-rule:nonzero;fill:rgb(0%,0%,0%);fill-opacity:1;" d="M 41.296875 20.8125 C 41.367188 20.761719 41.371094 20.644531 41.347656 20.609375 C 41.285156 20.496094 40.984375 20.597656 40.902344 20.628906 C 40.613281 20.746094 40.433594 20.835938 40.171875 21.011719 C 39.910156 21.191406 39.667969 21.386719 39.441406 21.609375 C 39.34375 21.703125 39.234375 21.851562 39.164062 21.96875 C 39.113281 22.042969 39.039062 22.164062 39.074219 22.257812 C 39.097656 22.332031 39.25 22.3125 39.304688 22.300781 C 39.328125 21.980469 39.933594 21.515625 40.148438 21.359375 C 40.503906 21.105469 40.902344 20.824219 41.296875 20.816406 Z M 41.296875 20.8125 "/>
</g>
<mask id="mask10">
  <g filter="url(#alpha)">
<rect x="0" y="0" width="48" height="31" style="fill:rgb(0%,0%,0%);fill-opacity:0.121569;stroke:none;"/>
  </g>
</mask>
<clipPath id="clip11">
  <rect x="0" y="0" width="48" height="31"/>
</clipPath>
<g id="surface35" clip-path="url(#clip11)">
<path style=" stroke:none;fill-rule:nonzero;fill:rgb(0%,0%,0%);fill-opacity:1;" d="M 40.800781 21.277344 C 40.65625 21.351562 40.585938 21.511719 40.648438 21.640625 C 40.6875 21.71875 40.765625 21.765625 40.855469 21.773438 C 40.855469 21.777344 40.851562 21.777344 40.851562 21.78125 C 40.855469 21.875 40.867188 21.964844 40.855469 22.0625 C 40.835938 22.253906 40.765625 22.417969 40.660156 22.578125 C 40.75 22.542969 40.890625 22.460938 40.96875 22.394531 C 41.019531 22.339844 41.039062 22.269531 41.058594 22.199219 C 41.097656 22.035156 41.125 21.859375 41.085938 21.695312 C 41.183594 21.613281 41.222656 21.484375 41.171875 21.378906 C 41.109375 21.25 40.941406 21.207031 40.796875 21.277344 Z M 40.800781 21.277344 "/>
</g>
<mask id="mask11">
  <g filter="url(#alpha)">
<rect x="0" y="0" width="48" height="31" style="fill:rgb(0%,0%,0%);fill-opacity:0.121569;stroke:none;"/>
  </g>
</mask>
<clipPath id="clip12">
  <rect x="0" y="0" width="48" height="31"/>
</clipPath>
<g id="surface38" clip-path="url(#clip12)">
<path style=" stroke:none;fill-rule:nonzero;fill:rgb(0%,0%,0%);fill-opacity:1;" d="M 47.753906 12.960938 C 47.816406 12.898438 47.800781 12.78125 47.773438 12.746094 C 47.695312 12.644531 47.410156 12.796875 47.335938 12.839844 C 47.066406 13.003906 46.902344 13.121094 46.671875 13.335938 C 46.441406 13.550781 46.234375 13.785156 46.042969 14.039062 C 45.960938 14.148438 45.878906 14.316406 45.824219 14.441406 C 45.789062 14.523438 45.734375 14.652344 45.78125 14.742188 C 45.816406 14.808594 45.964844 14.765625 46.015625 14.746094 C 45.988281 14.425781 46.515625 13.871094 46.703125 13.679688 C 47.011719 13.375 47.363281 13.03125 47.753906 12.960938 Z M 47.753906 12.960938 "/>
</g>
<mask id="mask12">
  <g filter="url(#alpha)">
<rect x="0" y="0" width="48" height="31" style="fill:rgb(0%,0%,0%);fill-opacity:0.121569;stroke:none;"/>
  </g>
</mask>
<clipPath id="clip13">
  <rect x="0" y="0" width="48" height="31"/>
</clipPath>
<g id="surface41" clip-path="url(#clip13)">
<path style=" stroke:none;fill-rule:nonzero;fill:rgb(0%,0%,0%);fill-opacity:1;" d="M 47.335938 13.5 C 47.203125 13.59375 47.160156 13.761719 47.242188 13.878906 C 47.292969 13.949219 47.375 13.984375 47.464844 13.976562 C 47.464844 13.980469 47.464844 13.984375 47.464844 13.988281 C 47.480469 14.082031 47.507812 14.167969 47.515625 14.265625 C 47.523438 14.457031 47.480469 14.628906 47.398438 14.800781 C 47.480469 14.757812 47.609375 14.648438 47.675781 14.574219 C 47.714844 14.511719 47.726562 14.4375 47.734375 14.367188 C 47.75 14.199219 47.746094 14.019531 47.683594 13.867188 C 47.769531 13.769531 47.789062 13.632812 47.71875 13.539062 C 47.640625 13.421875 47.46875 13.402344 47.335938 13.5 Z M 47.335938 13.5 "/>
</g>
<mask id="mask13">
  <g filter="url(#alpha)">
<rect x="0" y="0" width="48" height="31" style="fill:rgb(0%,0%,0%);fill-opacity:0.121569;stroke:none;"/>
  </g>
</mask>
<clipPath id="clip14">
  <rect x="0" y="0" width="48" height="31"/>
</clipPath>
<g id="surface44" clip-path="url(#clip14)">
<path style=" stroke:none;fill-rule:nonzero;fill:rgb(0%,0%,0%);fill-opacity:1;" d="M 45.339844 0.0820312 C 45.300781 0.0078125 45.191406 -0.0078125 45.15625 0.0078125 C 45.042969 0.0507812 45.101562 0.355469 45.121094 0.433594 C 45.191406 0.730469 45.253906 0.910156 45.386719 1.183594 C 45.519531 1.457031 45.671875 1.710938 45.851562 1.957031 C 45.925781 2.058594 46.050781 2.183594 46.148438 2.265625 C 46.214844 2.324219 46.316406 2.410156 46.410156 2.386719 C 46.480469 2.375 46.480469 2.226562 46.476562 2.171875 C 46.179688 2.109375 45.824219 1.476562 45.703125 1.246094 C 45.511719 0.878906 45.300781 0.464844 45.339844 0.0820312 Z M 45.339844 0.0820312 "/>
</g>
<mask id="mask14">
  <g filter="url(#alpha)">
<rect x="0" y="0" width="48" height="31" style="fill:rgb(0%,0%,0%);fill-opacity:0.121569;stroke:none;"/>
  </g>
</mask>
<clipPath id="clip15">
  <rect x="0" y="0" width="48" height="31"/>
</clipPath>
<g id="surface47" clip-path="url(#clip15)">
<path style=" stroke:none;fill-rule:nonzero;fill:rgb(0%,0%,0%);fill-opacity:1;" d="M 45.710938 0.617188 C 45.761719 0.761719 45.902344 0.847656 46.027344 0.804688 C 46.105469 0.777344 46.160156 0.707031 46.179688 0.625 C 46.179688 0.625 46.183594 0.625 46.1875 0.625 C 46.273438 0.636719 46.359375 0.632812 46.449219 0.65625 C 46.625 0.703125 46.765625 0.789062 46.902344 0.90625 C 46.882812 0.820312 46.820312 0.671875 46.769531 0.589844 C 46.726562 0.535156 46.664062 0.507812 46.601562 0.480469 C 46.453125 0.421875 46.292969 0.375 46.136719 0.390625 C 46.074219 0.285156 45.957031 0.234375 45.851562 0.269531 C 45.726562 0.3125 45.664062 0.46875 45.710938 0.613281 Z M 45.710938 0.617188 "/>
</g>
</defs>
<g id="surface1">
<use xlink:href="#surface5" mask="url(#mask0)"/>
<path style=" stroke:none;fill-rule:nonzero;fill:rgb(74.509804%,11.764706%,17.647059%);fill-opacity:1;" d="M 39.359375 6.628906 C 41.179688 4.554688 43.574219 2.25 46.179688 1.496094 C 42.210938 0.835938 37.609375 1.609375 33.871094 3.191406 C 33.871094 3.191406 34.433594 3.988281 35.078125 4.457031 C 35.320312 4.628906 37.996094 8.140625 37.996094 8.140625 Z M 39.359375 6.628906 "/>
<path style=" stroke:none;fill-rule:nonzero;fill:rgb(100%,83.137255%,0%);fill-opacity:1;" d="M 39.894531 6.722656 C 44.070312 8.355469 44.964844 9.992188 47.039062 13.921875 C 43.574219 12.332031 39.738281 12.023438 35.472656 12.011719 L 31.355469 9.71875 C 31.355469 9.71875 33.976562 6.933594 35.078125 4.457031 L 35.339844 4.597656 C 36.808594 5.410156 38.335938 6.113281 39.894531 6.722656 Z M 39.894531 6.722656 "/>
<path style=" stroke:none;fill-rule:nonzero;fill:rgb(100%,83.137255%,0%);fill-opacity:1;" d="M 22.714844 19.511719 C 24.214844 21.148438 25.65625 22.515625 29.296875 27.203125 C 30.164062 24.851562 30.652344 20.449219 29.84375 17.46875 L 26.914062 13.507812 C 26.914062 13.507812 24.511719 15.1875 21.535156 15.824219 Z M 22.714844 19.511719 "/>
<path style=" stroke:none;fill-rule:nonzero;fill:rgb(74.509804%,11.764706%,17.647059%);fill-opacity:1;" d="M 9.40625 18.210938 C 7.386719 18.472656 3.351562 18.945312 1.332031 19.210938 C 3.863281 16.625 7.734375 14.035156 11.046875 12.621094 C 11.046875 12.621094 11.921875 15.308594 11.988281 16.375 Z M 9.40625 18.210938 "/>
<path style=" stroke:none;fill-rule:nonzero;fill:rgb(100%,83.137255%,0%);fill-opacity:1;" d="M 14.988281 20.234375 C 13.589844 21.480469 10.339844 24.789062 8.929688 27.601562 C 8.410156 22.371094 8.929688 20.664062 9.40625 18.210938 L 11.988281 16.375 C 12.894531 16.617188 14.039062 16.730469 15.300781 16.714844 Z M 14.988281 20.234375 "/>
<path style=" stroke:none;fill-rule:nonzero;fill:rgb(74.509804%,11.764706%,17.647059%);fill-opacity:1;" d="M 22.714844 19.511719 C 21.671875 22.777344 20.816406 26.398438 19.886719 29.207031 C 17.09375 26.09375 15.597656 23.066406 14.988281 20.234375 L 15.300781 16.714844 C 15.300781 16.714844 19 16.667969 21.535156 15.824219 L 22.714844 19.507812 Z M 22.714844 19.511719 "/>
<path style=" stroke:none;fill-rule:nonzero;fill:rgb(74.509804%,11.764706%,17.647059%);fill-opacity:1;" d="M 26.914062 13.507812 L 29.84375 17.46875 C 29.84375 17.46875 36.578125 18.511719 40.269531 21.695312 C 40.269531 21.695312 38.785156 15.164062 35.472656 12.011719 L 31.355469 9.71875 C 31.355469 9.71875 28.492188 12.601562 26.914062 13.507812 Z M 26.914062 13.507812 "/>
<path style=" stroke:none;fill-rule:nonzero;fill:rgb(97.647059%,78.823529%,19.607843%);fill-opacity:1;" d="M 2.496094 19.382812 C 2.496094 20.082031 1.9375 20.648438 1.25 20.648438 C 0.558594 20.648438 0 20.082031 0 19.382812 C 0 18.683594 0.558594 18.117188 1.25 18.117188 C 1.9375 18.117188 2.496094 18.683594 2.496094 19.382812 Z M 2.496094 19.382812 "/>
<path style=" stroke:none;fill-rule:nonzero;fill:rgb(94.901961%,69.019608%,16.470588%);fill-opacity:1;" d="M 1.835938 20.503906 C 1.878906 20.566406 2 20.589844 2.0625 20.550781 C 2.171875 20.484375 2.183594 20.351562 2.167969 20.242188 C 2.085938 19.722656 1.710938 19.21875 1.394531 18.824219 C 1.265625 18.664062 1.125 18.503906 0.960938 18.378906 C 0.84375 18.289062 0.582031 18.105469 0.429688 18.203125 C 0.347656 18.257812 0.34375 18.394531 0.363281 18.492188 C 0.679688 18.511719 1.140625 19.125 1.296875 19.34375 C 1.546875 19.699219 1.824219 20.101562 1.835938 20.503906 Z M 1.835938 20.503906 "/>
<use xlink:href="#surface8" mask="url(#mask1)"/>
<path style=" stroke:none;fill-rule:nonzero;fill:rgb(94.901961%,69.019608%,16.470588%);fill-opacity:1;" d="M 1.375 20 C 1.304688 19.855469 1.144531 19.785156 1.019531 19.851562 C 0.941406 19.890625 0.894531 19.96875 0.890625 20.058594 C 0.886719 20.058594 0.882812 20.058594 0.878906 20.058594 C 0.785156 20.058594 0.695312 20.074219 0.601562 20.0625 C 0.414062 20.042969 0.253906 19.972656 0.09375 19.867188 C 0.128906 19.957031 0.210938 20.101562 0.277344 20.175781 C 0.328125 20.226562 0.398438 20.25 0.46875 20.265625 C 0.632812 20.308594 0.804688 20.332031 0.964844 20.292969 C 1.046875 20.394531 1.175781 20.433594 1.28125 20.378906 C 1.40625 20.316406 1.449219 20.148438 1.375 20 Z M 1.375 20 "/>
<use xlink:href="#surface11" mask="url(#mask2)"/>
<path style=" stroke:none;fill-rule:nonzero;fill:rgb(97.647059%,78.823529%,19.607843%);fill-opacity:1;" d="M 10.089844 27.554688 C 10.089844 28.253906 9.53125 28.820312 8.839844 28.820312 C 8.152344 28.820312 7.59375 28.253906 7.59375 27.554688 C 7.59375 26.855469 8.152344 26.289062 8.839844 26.289062 C 9.53125 26.289062 10.089844 26.855469 10.089844 27.554688 Z M 10.089844 27.554688 "/>
<path style=" stroke:none;fill-rule:nonzero;fill:rgb(94.901961%,69.019608%,16.470588%);fill-opacity:1;" d="M 9.996094 28.050781 C 10.070312 28.070312 10.171875 28.011719 10.199219 27.941406 C 10.242188 27.820312 10.167969 27.710938 10.085938 27.632812 C 9.703125 27.28125 9.097656 27.132812 8.605469 27.03125 C 8.40625 26.988281 8.199219 26.953125 7.992188 26.960938 C 7.84375 26.96875 7.527344 26.992188 7.472656 27.164062 C 7.441406 27.257812 7.523438 27.367188 7.597656 27.429688 C 7.855469 27.246094 8.59375 27.421875 8.851562 27.496094 C 9.269531 27.609375 9.734375 27.746094 9.996094 28.050781 Z M 9.996094 28.050781 "/>
<use xlink:href="#surface14" mask="url(#mask3)"/>
<path style=" stroke:none;fill-rule:nonzero;fill:rgb(94.901961%,69.019608%,16.470588%);fill-opacity:1;" d="M 9.324219 27.953125 C 9.179688 27.886719 9.011719 27.9375 8.953125 28.066406 C 8.917969 28.144531 8.933594 28.234375 8.984375 28.3125 C 8.980469 28.3125 8.980469 28.3125 8.976562 28.316406 C 8.902344 28.378906 8.84375 28.445312 8.761719 28.5 C 8.605469 28.605469 8.4375 28.652344 8.25 28.671875 C 8.328125 28.71875 8.484375 28.777344 8.582031 28.792969 C 8.65625 28.800781 8.722656 28.773438 8.789062 28.742188 C 8.9375 28.667969 9.089844 28.578125 9.191406 28.445312 C 9.316406 28.472656 9.4375 28.417969 9.488281 28.3125 C 9.546875 28.183594 9.472656 28.023438 9.328125 27.953125 Z M 9.324219 27.953125 "/>
<use xlink:href="#surface17" mask="url(#mask4)"/>
<path style=" stroke:none;fill-rule:nonzero;fill:rgb(97.647059%,78.823529%,19.607843%);fill-opacity:1;" d="M 21.164062 29.527344 C 21.164062 30.226562 20.605469 30.792969 19.914062 30.792969 C 19.226562 30.792969 18.667969 30.226562 18.667969 29.527344 C 18.667969 28.828125 19.226562 28.261719 19.914062 28.261719 C 20.605469 28.261719 21.164062 28.828125 21.164062 29.527344 Z M 21.164062 29.527344 "/>
<path style=" stroke:none;fill-rule:nonzero;fill:rgb(94.901961%,69.019608%,16.470588%);fill-opacity:1;" d="M 21.167969 29.542969 C 21.242188 29.53125 21.316406 29.4375 21.316406 29.363281 C 21.3125 29.234375 21.203125 29.160156 21.097656 29.121094 C 20.609375 28.941406 19.996094 29.039062 19.5 29.128906 C 19.300781 29.167969 19.09375 29.214844 18.90625 29.300781 C 18.773438 29.363281 18.488281 29.507812 18.5 29.691406 C 18.507812 29.789062 18.625 29.859375 18.71875 29.886719 C 18.886719 29.617188 19.636719 29.5 19.902344 29.464844 C 20.332031 29.414062 20.8125 29.359375 21.167969 29.542969 Z M 21.167969 29.542969 "/>
<use xlink:href="#surface20" mask="url(#mask5)"/>
<path style=" stroke:none;fill-rule:nonzero;fill:rgb(94.901961%,69.019608%,16.470588%);fill-opacity:1;" d="M 20.511719 29.710938 C 20.347656 29.703125 20.214844 29.8125 20.207031 29.957031 C 20.207031 30.042969 20.253906 30.121094 20.328125 30.171875 C 20.324219 30.171875 20.324219 30.175781 20.320312 30.179688 C 20.277344 30.265625 20.246094 30.347656 20.191406 30.429688 C 20.082031 30.585938 19.945312 30.695312 19.78125 30.785156 C 19.871094 30.800781 20.039062 30.792969 20.136719 30.773438 C 20.207031 30.75 20.257812 30.699219 20.304688 30.644531 C 20.417969 30.519531 20.523438 30.378906 20.566406 30.21875 C 20.695312 30.191406 20.789062 30.097656 20.792969 29.976562 C 20.800781 29.835938 20.671875 29.71875 20.511719 29.710938 Z M 20.511719 29.710938 "/>
<use xlink:href="#surface23" mask="url(#mask6)"/>
<path style=" stroke:none;fill-rule:nonzero;fill:rgb(97.647059%,78.823529%,19.607843%);fill-opacity:1;" d="M 30.433594 27.316406 C 30.433594 28.015625 29.875 28.582031 29.1875 28.582031 C 28.496094 28.582031 27.9375 28.015625 27.9375 27.316406 C 27.9375 26.617188 28.496094 26.050781 29.1875 26.050781 C 29.875 26.050781 30.433594 26.617188 30.433594 27.316406 Z M 30.433594 27.316406 "/>
<path style=" stroke:none;fill-rule:nonzero;fill:rgb(94.901961%,69.019608%,16.470588%);fill-opacity:1;" d="M 30.410156 27.59375 C 30.484375 27.597656 30.578125 27.519531 30.589844 27.445312 C 30.613281 27.320312 30.523438 27.226562 30.425781 27.164062 C 29.984375 26.886719 29.367188 26.855469 28.863281 26.839844 C 28.660156 26.835938 28.449219 26.839844 28.246094 26.886719 C 28.101562 26.917969 27.792969 27 27.769531 27.183594 C 27.757812 27.277344 27.859375 27.371094 27.941406 27.421875 C 28.164062 27.191406 28.921875 27.230469 29.1875 27.253906 C 29.617188 27.292969 30.101562 27.339844 30.410156 27.589844 Z M 30.410156 27.59375 "/>
<use xlink:href="#surface26" mask="url(#mask7)"/>
<path style=" stroke:none;fill-rule:nonzero;fill:rgb(94.901961%,69.019608%,16.470588%);fill-opacity:1;" d="M 29.734375 27.621094 C 29.578125 27.578125 29.421875 27.660156 29.390625 27.796875 C 29.367188 27.882812 29.398438 27.96875 29.460938 28.03125 C 29.457031 28.035156 29.457031 28.035156 29.453125 28.039062 C 29.394531 28.113281 29.347656 28.191406 29.277344 28.257812 C 29.140625 28.390625 28.984375 28.46875 28.800781 28.519531 C 28.890625 28.554688 29.054688 28.582031 29.152344 28.582031 C 29.226562 28.574219 29.285156 28.535156 29.34375 28.492188 C 29.480469 28.394531 29.613281 28.277344 29.6875 28.128906 C 29.816406 28.128906 29.929688 28.054688 29.957031 27.941406 C 29.988281 27.804688 29.890625 27.660156 29.734375 27.621094 Z M 29.734375 27.621094 "/>
<use xlink:href="#surface29" mask="url(#mask8)"/>
<path style=" stroke:none;fill-rule:nonzero;fill:rgb(97.647059%,78.823529%,19.607843%);fill-opacity:1;" d="M 41.4375 21.40625 C 41.4375 22.105469 40.878906 22.671875 40.1875 22.671875 C 39.5 22.671875 38.941406 22.105469 38.941406 21.40625 C 38.941406 20.707031 39.5 20.140625 40.1875 20.140625 C 40.878906 20.140625 41.4375 20.707031 41.4375 21.40625 Z M 41.4375 21.40625 "/>
<path style=" stroke:none;fill-rule:nonzero;fill:rgb(94.901961%,69.019608%,16.470588%);fill-opacity:1;" d="M 41.296875 20.8125 C 41.359375 20.769531 41.382812 20.648438 41.34375 20.585938 C 41.28125 20.476562 41.148438 20.460938 41.039062 20.480469 C 40.527344 20.554688 40.03125 20.9375 39.636719 21.257812 C 39.480469 21.386719 39.320312 21.527344 39.195312 21.695312 C 39.109375 21.8125 38.925781 22.078125 39.023438 22.234375 C 39.074219 22.3125 39.210938 22.320312 39.304688 22.300781 C 39.328125 21.980469 39.929688 21.515625 40.148438 21.359375 C 40.5 21.105469 40.898438 20.824219 41.296875 20.816406 Z M 41.296875 20.8125 "/>
<use xlink:href="#surface32" mask="url(#mask9)"/>
<path style=" stroke:none;fill-rule:nonzero;fill:rgb(94.901961%,69.019608%,16.470588%);fill-opacity:1;" d="M 40.800781 21.277344 C 40.65625 21.351562 40.585938 21.511719 40.648438 21.640625 C 40.6875 21.71875 40.765625 21.765625 40.855469 21.773438 C 40.855469 21.777344 40.851562 21.777344 40.851562 21.78125 C 40.855469 21.875 40.867188 21.964844 40.855469 22.0625 C 40.835938 22.253906 40.765625 22.417969 40.660156 22.578125 C 40.75 22.542969 40.890625 22.460938 40.96875 22.394531 C 41.019531 22.339844 41.039062 22.269531 41.058594 22.199219 C 41.097656 22.035156 41.125 21.859375 41.085938 21.695312 C 41.183594 21.613281 41.222656 21.484375 41.171875 21.378906 C 41.109375 21.25 40.941406 21.207031 40.796875 21.277344 Z M 40.800781 21.277344 "/>
<use xlink:href="#surface35" mask="url(#mask10)"/>
<path style=" stroke:none;fill-rule:nonzero;fill:rgb(97.647059%,78.823529%,19.607843%);fill-opacity:1;" d="M 48 13.71875 C 48 14.417969 47.441406 14.984375 46.75 14.984375 C 46.0625 14.984375 45.503906 14.417969 45.503906 13.71875 C 45.503906 13.023438 46.0625 12.457031 46.75 12.457031 C 47.441406 12.457031 48 13.023438 48 13.71875 Z M 48 13.71875 "/>
<path style=" stroke:none;fill-rule:nonzero;fill:rgb(94.901961%,69.019608%,16.470588%);fill-opacity:1;" d="M 47.753906 12.960938 C 47.808594 12.90625 47.8125 12.785156 47.761719 12.726562 C 47.683594 12.628906 47.554688 12.636719 47.445312 12.667969 C 46.953125 12.828125 46.519531 13.28125 46.183594 13.660156 C 46.046875 13.8125 45.914062 13.980469 45.816406 14.164062 C 45.75 14.292969 45.605469 14.585938 45.726562 14.722656 C 45.789062 14.792969 45.925781 14.777344 46.019531 14.742188 C 45.992188 14.425781 46.515625 13.867188 46.707031 13.679688 C 47.015625 13.371094 47.363281 13.03125 47.753906 12.957031 Z M 47.753906 12.960938 "/>
<use xlink:href="#surface38" mask="url(#mask11)"/>
<path style=" stroke:none;fill-rule:nonzero;fill:rgb(94.901961%,69.019608%,16.470588%);fill-opacity:1;" d="M 47.335938 13.5 C 47.203125 13.59375 47.160156 13.761719 47.242188 13.878906 C 47.292969 13.949219 47.375 13.984375 47.464844 13.976562 C 47.464844 13.980469 47.464844 13.984375 47.464844 13.988281 C 47.480469 14.082031 47.507812 14.167969 47.515625 14.265625 C 47.523438 14.457031 47.480469 14.628906 47.398438 14.800781 C 47.480469 14.757812 47.609375 14.648438 47.675781 14.574219 C 47.714844 14.511719 47.726562 14.4375 47.734375 14.367188 C 47.75 14.199219 47.746094 14.019531 47.683594 13.867188 C 47.769531 13.769531 47.789062 13.632812 47.71875 13.539062 C 47.640625 13.421875 47.46875 13.402344 47.335938 13.5 Z M 47.335938 13.5 "/>
<use xlink:href="#surface41" mask="url(#mask12)"/>
<path style=" stroke:none;fill-rule:nonzero;fill:rgb(97.647059%,78.823529%,19.607843%);fill-opacity:1;" d="M 46.941406 1.214844 C 46.941406 1.878906 46.410156 2.417969 45.753906 2.417969 C 45.097656 2.417969 44.566406 1.878906 44.566406 1.214844 C 44.566406 0.550781 45.097656 0.0117188 45.753906 0.0117188 C 46.410156 0.0117188 46.941406 0.550781 46.941406 1.214844 Z M 46.941406 1.214844 "/>
<path style=" stroke:none;fill-rule:nonzero;fill:rgb(94.901961%,69.019608%,16.470588%);fill-opacity:1;" d="M 45.339844 0.0820312 C 45.304688 0.015625 45.195312 -0.0195312 45.132812 0.0078125 C 45.023438 0.0546875 44.992188 0.179688 44.996094 0.289062 C 45.003906 0.789062 45.296875 1.308594 45.546875 1.722656 C 45.648438 1.890625 45.761719 2.0625 45.902344 2.199219 C 46 2.296875 46.222656 2.507812 46.378906 2.433594 C 46.460938 2.394531 46.484375 2.265625 46.476562 2.171875 C 46.183594 2.109375 45.824219 1.472656 45.707031 1.246094 C 45.515625 0.878906 45.300781 0.460938 45.34375 0.0820312 Z M 45.339844 0.0820312 "/>
<use xlink:href="#surface44" mask="url(#mask13)"/>
<path style=" stroke:none;fill-rule:nonzero;fill:rgb(94.901961%,69.019608%,16.470588%);fill-opacity:1;" d="M 45.710938 0.617188 C 45.761719 0.761719 45.902344 0.847656 46.027344 0.804688 C 46.105469 0.777344 46.160156 0.707031 46.179688 0.625 C 46.179688 0.625 46.183594 0.625 46.1875 0.625 C 46.273438 0.636719 46.359375 0.632812 46.449219 0.65625 C 46.625 0.703125 46.765625 0.789062 46.902344 0.90625 C 46.882812 0.820312 46.820312 0.671875 46.769531 0.589844 C 46.726562 0.535156 46.664062 0.507812 46.601562 0.480469 C 46.453125 0.421875 46.292969 0.375 46.136719 0.390625 C 46.074219 0.285156 45.957031 0.234375 45.851562 0.269531 C 45.726562 0.3125 45.664062 0.46875 45.710938 0.613281 Z M 45.710938 0.617188 "/>
<use xlink:href="#surface47" mask="url(#mask14)"/>
</g>
</svg>
