<?xml version="1.0" encoding="UTF-8"?>
<svg xmlns="http://www.w3.org/2000/svg" xmlns:xlink="http://www.w3.org/1999/xlink" width="48px" height="px" viewBox="0 0 48 35" version="1.1">
<defs>
<filter id="alpha" filterUnits="objectBoundingBox" x="0%" y="0%" width="100%" height="100%">
  <feColorMatrix type="matrix" in="SourceGraphic" values="0 0 0 0 1 0 0 0 0 1 0 0 0 0 1 0 0 0 1 0"/>
</filter>
<mask id="mask0">
  <g filter="url(#alpha)">
<rect x="0" y="0" width="48" height="35" style="fill:rgb(0%,0%,0%);fill-opacity:0.180392;stroke:none;"/>
  </g>
</mask>
<clipPath id="clip1">
  <rect x="0" y="0" width="49" height="35"/>
</clipPath>
<g id="surface5" clip-path="url(#clip1)">
<path style=" stroke:none;fill-rule:nonzero;fill:rgb(0%,0%,0%);fill-opacity:1;" d="M 46.929688 5.128906 C 43.371094 15.550781 32.308594 27.273438 22.625 34.660156 C 20.582031 36.214844 20.617188 31.160156 20.078125 30.65625 C 19.027344 29.675781 17.511719 29.21875 16.101562 29.453125 C 14.996094 29.640625 13.824219 30.28125 13.164062 31.21875 C 12.550781 32.085938 12.492188 33.253906 12.039062 34.230469 C 11.820312 34.703125 11.214844 34.84375 10.8125 34.511719 C 8.339844 32.476562 0.753906 26.992188 1.351562 26.5 C 5.171875 23.402344 11.054688 24.625 15.554688 23.566406 C 16.953125 23.238281 18.308594 22.710938 19.566406 22.007812 C 20.824219 21.308594 21.820312 20.15625 23.066406 19.511719 C 25.671875 18.171875 28.519531 17.1875 31.148438 15.804688 C 36.765625 12.839844 42.144531 9.34375 46.933594 5.128906 Z M 46.929688 5.128906 "/>
</g>
<mask id="mask1">
  <g filter="url(#alpha)">
<rect x="0" y="0" width="48" height="35" style="fill:rgb(0%,0%,0%);fill-opacity:0.180392;stroke:none;"/>
  </g>
</mask>
<clipPath id="clip2">
  <rect x="0" y="0" width="49" height="35"/>
</clipPath>
<g id="surface8" clip-path="url(#clip2)">
<path style=" stroke:none;fill-rule:nonzero;fill:rgb(0%,0%,0%);fill-opacity:1;" d="M 9.195312 31.773438 L 10.488281 32.546875 C 10.488281 32.546875 11.636719 32.0625 11.804688 31.679688 L 12.003906 30.402344 L 9.195312 31.777344 Z M 9.195312 31.773438 "/>
</g>
<mask id="mask2">
  <g filter="url(#alpha)">
<rect x="0" y="0" width="48" height="35" style="fill:rgb(0%,0%,0%);fill-opacity:0.180392;stroke:none;"/>
  </g>
</mask>
<clipPath id="clip3">
  <rect x="0" y="0" width="49" height="35"/>
</clipPath>
<g id="surface11" clip-path="url(#clip3)">
<path style=" stroke:none;fill-rule:nonzero;fill:rgb(0%,0%,0%);fill-opacity:1;" d="M 24.214844 30.421875 C 24.328125 30.386719 24.449219 30.355469 24.546875 30.273438 C 25.105469 29.824219 26.253906 28.894531 26.847656 28.40625 C 26.734375 27.082031 26.621094 25.820312 26.375 24.425781 C 26.171875 23.273438 25.992188 22.78125 25.679688 21.792969 C 25.507812 21.253906 25.28125 20.730469 25.007812 20.234375 C 24.921875 20.085938 24.074219 18.980469 24.101562 18.917969 C 23.628906 19.984375 22.945312 20.765625 22.25 21.707031 C 21.425781 22.820312 20.84375 24.117188 20.566406 25.476562 C 20.328125 26.652344 20.304688 27.753906 20.46875 28.933594 C 20.511719 29.253906 20.609375 29.585938 20.851562 29.789062 C 21.164062 30.054688 21.609375 30.070312 21.984375 30.175781 C 22.707031 30.378906 23.484375 30.65625 24.214844 30.421875 Z M 24.214844 30.421875 "/>
</g>
<mask id="mask3">
  <g filter="url(#alpha)">
<rect x="0" y="0" width="48" height="35" style="fill:rgb(0%,0%,0%);fill-opacity:0.180392;stroke:none;"/>
  </g>
</mask>
<clipPath id="clip4">
  <rect x="0" y="0" width="49" height="35"/>
</clipPath>
<g id="surface14" clip-path="url(#clip4)">
<path style=" stroke:none;fill-rule:nonzero;fill:rgb(0%,0%,0%);fill-opacity:1;" d="M 19.59375 22.148438 C 19.910156 21.953125 20.242188 21.78125 20.585938 21.632812 C 20.800781 21.539062 21.074219 21.46875 21.238281 21.636719 C 21.363281 21.761719 21.351562 21.972656 21.265625 22.125 C 21.179688 22.277344 21.035156 22.386719 20.894531 22.488281 C 20.121094 23.046875 18.972656 23.488281 18.4375 24.308594 C 17.578125 25.621094 20.90625 26.328125 21.738281 26.660156 C 22.402344 26.925781 22.167969 27.316406 21.542969 27.324219 C 20.09375 27.335938 18.527344 26.5 17.308594 25.761719 C 16.289062 25.144531 17.382812 24.046875 17.976562 23.4375 C 18.457031 22.941406 19.003906 22.507812 19.59375 22.148438 Z M 19.59375 22.148438 "/>
</g>
<mask id="mask4">
  <g filter="url(#alpha)">
<rect x="0" y="0" width="48" height="35" style="fill:rgb(0%,0%,0%);fill-opacity:0.180392;stroke:none;"/>
  </g>
</mask>
<clipPath id="clip5">
  <rect x="0" y="0" width="49" height="35"/>
</clipPath>
<g id="surface17" clip-path="url(#clip5)">
<path style=" stroke:none;fill-rule:nonzero;fill:rgb(0%,0%,0%);fill-opacity:1;" d="M 11.035156 23.582031 C 10.671875 23.496094 10.300781 23.441406 9.929688 23.410156 C 9.699219 23.390625 9.414062 23.410156 9.3125 23.621094 C 9.234375 23.777344 9.308594 23.976562 9.4375 24.09375 C 9.566406 24.210938 9.742188 24.265625 9.90625 24.320312 C 10.8125 24.601562 12.039062 24.652344 12.808594 25.257812 C 14.03125 26.226562 11.097656 27.964844 10.410156 28.546875 C 9.867188 29.011719 10.210938 29.308594 10.804688 29.113281 C 12.183594 28.664062 13.410156 27.367188 14.332031 26.277344 C 15.109375 25.363281 13.726562 24.671875 12.972656 24.285156 C 12.359375 23.96875 11.707031 23.730469 11.035156 23.578125 Z M 11.035156 23.582031 "/>
</g>
<mask id="mask5">
  <g filter="url(#alpha)">
<rect x="0" y="0" width="48" height="35" style="fill:rgb(0%,0%,0%);fill-opacity:0.180392;stroke:none;"/>
  </g>
</mask>
<clipPath id="clip6">
  <rect x="0" y="0" width="49" height="35"/>
</clipPath>
<g id="surface20" clip-path="url(#clip6)">
<path style=" stroke:none;fill-rule:nonzero;fill:rgb(0%,0%,0%);fill-opacity:1;" d="M 14.199219 27.53125 C 14.421875 28.15625 15.03125 28.726562 15.621094 28.617188 C 16.257812 28.496094 17.234375 28.605469 17.667969 28.027344 C 18.273438 27.214844 17.886719 25.847656 17.675781 24.960938 C 17.542969 24.414062 17.554688 23.832031 17.433594 23.277344 C 17.320312 23.824219 17.300781 24.386719 17.234375 24.941406 C 17.171875 25.496094 17.058594 26.058594 16.777344 26.542969 C 16.5 27.023438 16.027344 27.417969 15.476562 27.484375 C 14.929688 27.550781 14.347656 27.230469 14.191406 26.683594 C 14.078125 26.933594 14.097656 27.242188 14.199219 27.53125 Z M 14.199219 27.53125 "/>
</g>
</defs>
<g id="surface1">
<use xlink:href="#surface5" mask="url(#mask0)"/>
<path style=" stroke:none;fill-rule:nonzero;fill:rgb(81.960784%,82.745098%,83.137255%);fill-opacity:1;" d="M 18.960938 23.617188 C 18.4375 24.183594 17.644531 24.617188 16.929688 24.90625 C 15.765625 25.378906 14.511719 25.554688 13.269531 25.726562 C 12.691406 25.804688 12.101562 25.882812 11.527344 25.777344 C 10.210938 25.53125 10.082031 24.710938 10.808594 23.71875 C 11.5625 22.699219 13.058594 22.328125 14.230469 22.132812 C 15.902344 21.851562 17.617188 21.691406 19.285156 21.433594 C 19.75 22.292969 19.503906 23.027344 18.960938 23.617188 Z M 18.960938 23.617188 "/>
<path style=" stroke:none;fill-rule:nonzero;fill:rgb(94.509804%,94.901961%,94.901961%);fill-opacity:1;" d="M 44.058594 0.0429688 C 45.535156 1.050781 46.261719 1.550781 47.738281 2.558594 C 49.800781 3.972656 39.007812 16.570312 37.957031 17.785156 C 33.425781 23.035156 28.683594 26.992188 23.242188 31.3125 C 22.972656 31.527344 22.699219 31.742188 22.425781 31.953125 C 22.132812 32.179688 21.703125 32.054688 21.574219 31.699219 C 20.761719 29.433594 19.234375 26.003906 18.308594 24.414062 C 17.484375 22.996094 16.582031 22.363281 15.964844 21.996094 C 15.78125 21.886719 15.792969 21.613281 15.984375 21.515625 C 18.378906 20.28125 21.257812 19.660156 23.746094 18.625 C 28.429688 16.675781 32.847656 13.953125 36.515625 10.398438 C 37.425781 9.515625 45.191406 0.816406 44.0625 0.0390625 Z M 44.058594 0.0429688 "/>
<path style=" stroke:none;fill-rule:nonzero;fill:rgb(94.509804%,94.901961%,94.901961%);fill-opacity:1;" d="M 2.089844 27.023438 C 1.554688 26.605469 1.1875 26.277344 1.089844 26.109375 C 0.296875 24.730469 0.316406 22.140625 0 20.570312 C 0.203125 21.59375 6.71875 22.089844 7.648438 22.148438 C 9.875 22.289062 11.882812 22.132812 14.160156 21.878906 C 14.390625 21.851562 14.546875 22.117188 14.410156 22.304688 C 13.082031 24.132812 11.992188 29.878906 11.71875 32.355469 C 11.675781 32.75 11.246094 32.972656 10.902344 32.78125 C 9.425781 31.953125 7.640625 30.804688 6.984375 30.410156 C 5.292969 29.40625 3.640625 28.234375 2.089844 27.019531 Z M 2.089844 27.023438 "/>
<use xlink:href="#surface8" mask="url(#mask1)"/>
<use xlink:href="#surface11" mask="url(#mask2)"/>
<path style=" stroke:none;fill-rule:nonzero;fill:rgb(7.843137%,81.960784%,87.45098%);fill-opacity:1;" d="M 17.265625 27.648438 C 17.316406 27.679688 17.367188 27.714844 17.417969 27.746094 C 19.246094 28.816406 21.558594 29.445312 23.644531 29.769531 C 24.175781 29.851562 24.78125 29.894531 25.199219 29.542969 C 26.488281 28.460938 25.507812 24.378906 25.296875 22.960938 C 25.132812 21.871094 24.800781 18.078125 23.167969 18.042969 C 22.386719 18.023438 21.691406 18.5 21.050781 18.953125 C 19.738281 19.890625 18.421875 20.824219 17.109375 21.761719 C 15.515625 22.898438 15.546875 26.460938 17.265625 27.648438 Z M 17.265625 27.648438 "/>
<use xlink:href="#surface14" mask="url(#mask3)"/>
<path style=" stroke:none;fill-rule:nonzero;fill:rgb(7.843137%,81.960784%,87.45098%);fill-opacity:1;" d="M 14.964844 28.050781 C 14.929688 28.097656 14.890625 28.144531 14.851562 28.191406 C 13.457031 29.796875 11.457031 31.132812 9.582031 32.105469 C 9.105469 32.355469 8.542969 32.589844 8.039062 32.390625 C 6.472656 31.777344 6.125 27.59375 5.882812 26.183594 C 5.695312 25.097656 4.820312 21.390625 6.355469 20.832031 C 7.089844 20.566406 7.902344 20.792969 8.648438 21.019531 C 10.1875 21.484375 11.730469 21.953125 13.273438 22.417969 C 15.140625 22.984375 16.226562 26.375 14.964844 28.050781 Z M 14.964844 28.050781 "/>
<use xlink:href="#surface17" mask="url(#mask4)"/>
<path style=" stroke:none;fill-rule:nonzero;fill:rgb(7.843137%,81.960784%,87.45098%);fill-opacity:1;" d="M 14.292969 27.5 C 14.480469 28.207031 14.835938 28.765625 15.621094 28.617188 C 16.257812 28.496094 17.234375 28.605469 17.667969 28.027344 C 18.273438 27.214844 17.886719 25.847656 17.675781 24.960938 C 17.480469 24.132812 17.757812 22.785156 16.820312 22.402344 C 16.277344 22.183594 15.664062 22.300781 15.09375 22.421875 C 14.625 22.519531 14.097656 22.660156 13.871094 23.085938 C 13.726562 23.359375 13.746094 23.691406 13.765625 24 C 13.847656 25.203125 13.976562 26.335938 14.292969 27.5 Z M 14.292969 27.5 "/>
<use xlink:href="#surface20" mask="url(#mask5)"/>
</g>
</svg>
