<?xml version="1.0" encoding="UTF-8"?>
<svg xmlns="http://www.w3.org/2000/svg" xmlns:xlink="http://www.w3.org/1999/xlink" width="48px" height="px" viewBox="0 0 47 37" version="1.1">
<defs>
<filter id="alpha" filterUnits="objectBoundingBox" x="0%" y="0%" width="100%" height="100%">
  <feColorMatrix type="matrix" in="SourceGraphic" values="0 0 0 0 1 0 0 0 0 1 0 0 0 0 1 0 0 0 1 0"/>
</filter>
<mask id="mask0">
  <g filter="url(#alpha)">
<rect x="0" y="0" width="47" height="37" style="fill:rgb(0%,0%,0%);fill-opacity:0.180392;stroke:none;"/>
  </g>
</mask>
<clipPath id="clip1">
  <rect x="0" y="0" width="47" height="37"/>
</clipPath>
<g id="surface5" clip-path="url(#clip1)">
<path style=" stroke:none;fill-rule:nonzero;fill:rgb(0%,0%,0%);fill-opacity:1;" d="M 15.183594 33.132812 C 15.382812 33.6875 15.625 34.214844 15.941406 34.707031 C 17.273438 36.773438 19.410156 37.328125 21.476562 35.902344 C 22.394531 35.265625 22.933594 34.144531 23.917969 33.457031 C 25.023438 32.6875 26.300781 32.191406 27.554688 31.742188 C 29.535156 31.03125 32.179688 30.210938 33.300781 28.292969 C 34.492188 26.265625 35.6875 24.761719 37.605469 23.421875 C 39.40625 22.160156 41.0625 20.667969 42.394531 18.890625 C 45.160156 15.210938 47.269531 9.785156 46.941406 5.152344 C 46.980469 5.722656 44.988281 7.878906 44.636719 8.324219 C 43.96875 9.167969 43.257812 9.972656 42.503906 10.734375 C 40.949219 12.300781 39.214844 13.691406 37.347656 14.859375 C 33.109375 17.507812 28.671875 19.824219 24.203125 22.105469 C 23.632812 22.398438 23.039062 22.695312 22.398438 22.699219 C 21.675781 22.703125 21.007812 22.335938 20.375 21.976562 C 18.847656 21.105469 17.320312 20.234375 15.789062 19.367188 C 15.421875 19.367188 14.816406 18.691406 14.476562 18.527344 C 14.164062 18.378906 13.820312 18.335938 13.511719 18.179688 C 12.5 17.660156 11.570312 16.75 10.65625 16.070312 C 11.636719 17.984375 11.5 18.667969 11.835938 19.953125 C 12.136719 21.113281 13.976562 28.402344 14.546875 30.816406 C 14.726562 31.59375 14.914062 32.382812 15.183594 33.132812 Z M 15.183594 33.132812 "/>
</g>
<mask id="mask1">
  <g filter="url(#alpha)">
<rect x="0" y="0" width="47" height="37" style="fill:rgb(0%,0%,0%);fill-opacity:0.180392;stroke:none;"/>
  </g>
</mask>
<clipPath id="clip2">
  <rect x="0" y="0" width="47" height="37"/>
</clipPath>
<g id="surface8" clip-path="url(#clip2)">
<path style=" stroke:none;fill-rule:nonzero;fill:rgb(0%,0%,0%);fill-opacity:1;" d="M 10.5 32.8125 C 10.519531 33.660156 10.535156 34.527344 10.25 35.328125 C 9.964844 36.125 9.308594 36.84375 8.476562 36.949219 C 6.878906 37.148438 5.929688 35.164062 4.320312 35.050781 C 4.289062 34.863281 4.117188 34.285156 4.101562 33.996094 C 4.0625 33.402344 4.335938 32.910156 4.527344 32.359375 C 5.925781 28.320312 7.328125 24.277344 8.726562 20.238281 C 8.886719 19.773438 9.046875 19.3125 9.207031 18.847656 C 9.335938 18.476562 9.566406 16.394531 9.878906 16.144531 C 10.570312 15.589844 10.34375 18.785156 10.355469 19.222656 C 10.398438 21.375 10.300781 23.527344 10.347656 25.679688 C 10.398438 28.054688 10.5 30.433594 10.5 32.808594 Z M 10.5 32.8125 "/>
</g>
<mask id="mask2">
  <g filter="url(#alpha)">
<rect x="0" y="0" width="47" height="37" style="fill:rgb(0%,0%,0%);fill-opacity:0.180392;stroke:none;"/>
  </g>
</mask>
<clipPath id="clip3">
  <rect x="0" y="0" width="47" height="37"/>
</clipPath>
<g id="surface11" clip-path="url(#clip3)">
<path style=" stroke:none;fill-rule:nonzero;fill:rgb(0%,0%,0%);fill-opacity:1;" d="M 36.035156 0.730469 C 30.609375 9.453125 21.050781 15.460938 10.910156 16.539062 C 12.609375 19.46875 15.296875 21.824219 18.609375 22.402344 C 20.007812 22.648438 21.476562 22.664062 22.808594 22.167969 C 24.023438 21.714844 25.050781 20.867188 25.992188 19.96875 C 30.921875 15.253906 33.878906 8.359375 36.808594 2.167969 C 36.949219 1.871094 37.210938 1.292969 37.121094 0.976562 C 37.121094 0.976562 36.160156 0.53125 36.035156 0.730469 Z M 36.035156 0.730469 "/>
</g>
<mask id="mask3">
  <g filter="url(#alpha)">
<rect x="0" y="0" width="47" height="37" style="fill:rgb(0%,0%,0%);fill-opacity:0.180392;stroke:none;"/>
  </g>
</mask>
<clipPath id="clip4">
  <rect x="0" y="0" width="47" height="37"/>
</clipPath>
<g id="surface14" clip-path="url(#clip4)">
<path style=" stroke:none;fill-rule:nonzero;fill:rgb(0%,0%,0%);fill-opacity:1;" d="M 9.257812 20.664062 C 8.628906 21.863281 7.628906 23.015625 6.476562 23.707031 C 5.320312 24.402344 3.765625 24.519531 2.667969 23.734375 C 1.769531 23.089844 1.265625 22.160156 1.089844 21.0625 C 0.894531 19.8125 0.652344 18.5 0.390625 17.53125 C 0.3125 17.226562 0.125 16.257812 0.125 16.257812 C 0.871094 16.445312 1.585938 16.714844 2.332031 16.90625 C 3.796875 17.285156 5.308594 17.5 6.824219 17.5 C 7.589844 17.5 9.804688 16.078125 10.332031 15.78125 C 10.332031 15.78125 10.332031 18.621094 9.257812 20.664062 Z M 9.257812 20.664062 "/>
</g>
</defs>
<g id="surface1">
<use xlink:href="#surface5" mask="url(#mask0)"/>
<path style=" stroke:none;fill-rule:nonzero;fill:rgb(49.411765%,50.588235%,59.607843%);fill-opacity:1;" d="M 21.671875 34.230469 C 22.058594 33.933594 22.417969 33.601562 22.761719 33.257812 C 23.601562 32.421875 24.382812 31.511719 25.355469 30.84375 C 27.136719 29.621094 29.421875 29.746094 31.167969 28.476562 C 32.226562 27.707031 33.019531 26.199219 33.945312 25.273438 C 35.421875 23.789062 37.222656 22.675781 38.789062 21.285156 C 43.421875 17.171875 45.664062 10.96875 47 4.882812 C 45.265625 4.113281 43.371094 3.648438 41.679688 2.792969 C 41.226562 2.613281 36.324219 0.578125 36.292969 0.644531 C 35.226562 2.816406 33.96875 4.890625 32.542969 6.835938 C 31.820312 7.816406 31.058594 8.769531 30.253906 9.683594 C 29.945312 10.035156 29.738281 10.414062 29.285156 10.542969 C 28.671875 10.722656 28.042969 10.839844 27.429688 11.019531 C 24.996094 11.742188 22.671875 12.777344 20.320312 13.730469 C 18.796875 14.351562 17.25 14.9375 15.664062 15.382812 C 14.074219 15.828125 12.390625 15.9375 10.726562 16.191406 C 10.855469 16.683594 11.179688 16.988281 11.402344 17.417969 C 11.730469 18.042969 11.851562 18.847656 12.054688 19.519531 L 13.367188 23.949219 L 15.996094 32.808594 C 16.148438 33.332031 16.3125 33.863281 16.632812 34.296875 C 17.339844 35.25 18.703125 35.511719 19.839844 35.195312 C 20.507812 35.007812 21.113281 34.660156 21.667969 34.230469 Z M 21.671875 34.230469 "/>
<use xlink:href="#surface8" mask="url(#mask1)"/>
<path style=" stroke:none;fill-rule:nonzero;fill:rgb(49.411765%,50.588235%,59.607843%);fill-opacity:1;" d="M 9.46875 34.019531 C 9.433594 34.648438 9.367188 35.347656 8.898438 35.761719 C 8.132812 36.441406 6.941406 35.886719 6.140625 35.25 C 5.792969 34.972656 5.445312 34.695312 5.058594 34.472656 C 4.878906 34.371094 4.691406 34.28125 4.496094 34.21875 C 4.332031 34.164062 4.128906 34.183594 3.980469 34.128906 C 3.367188 33.898438 3.152344 32.703125 3.042969 32.148438 C 2.859375 31.195312 2.550781 29.078125 2.375 28.125 C 1.742188 24.640625 1.109375 21.15625 0.472656 17.671875 C 0.578125 18.25 4.589844 17.824219 5.054688 17.742188 C 5.867188 17.597656 6.664062 17.367188 7.433594 17.0625 C 8.417969 16.667969 9.3125 16.113281 10.335938 15.78125 C 10.335938 17.089844 10.082031 19.023438 9.996094 20.5625 L 9.679688 26.355469 C 9.5625 28.523438 9.585938 31.851562 9.46875 34.019531 Z M 9.46875 34.019531 "/>
<use xlink:href="#surface11" mask="url(#mask2)"/>
<path style=" stroke:none;fill-rule:nonzero;fill:rgb(49.411765%,50.588235%,59.607843%);fill-opacity:1;" d="M 35.539062 0.121094 C 30.007812 8.777344 20.476562 14.699219 10.332031 15.78125 C 12.035156 18.714844 14.722656 20.664062 18.035156 21.242188 C 19.433594 21.488281 20.902344 21.503906 22.234375 21.007812 C 23.445312 20.558594 24.476562 19.707031 25.414062 18.808594 C 30.347656 14.09375 33.382812 7.753906 36.308594 1.5625 C 36.449219 1.265625 36.59375 0.933594 36.503906 0.617188 C 36.414062 0.300781 35.714844 -0.152344 35.539062 0.125 Z M 35.539062 0.121094 "/>
<use xlink:href="#surface14" mask="url(#mask3)"/>
<path style=" stroke:none;fill-rule:nonzero;fill:rgb(49.411765%,50.588235%,59.607843%);fill-opacity:1;" d="M 9.257812 19.359375 C 8.683594 20.585938 7.628906 21.710938 6.476562 22.402344 C 5.320312 23.09375 3.765625 23.214844 2.667969 22.429688 C 1.769531 21.785156 1.328125 20.683594 0.988281 19.625 C 0.617188 18.464844 0.308594 17.28125 0.0703125 16.085938 C 0.0078125 15.777344 -0.0703125 15.195312 0.125 14.953125 C 0.871094 15.140625 1.585938 15.410156 2.332031 15.601562 C 3.796875 15.980469 5.308594 16.195312 6.824219 16.195312 C 7.589844 16.195312 9.804688 16.078125 10.332031 15.78125 C 10.332031 15.78125 9.847656 18.101562 9.257812 19.359375 Z M 9.257812 19.359375 "/>
</g>
</svg>
