<?xml version="1.0" encoding="UTF-8"?>
<svg xmlns="http://www.w3.org/2000/svg" xmlns:xlink="http://www.w3.org/1999/xlink" width="48px" height="px" viewBox="0 0 47 32" version="1.1">
<defs>
<filter id="alpha" filterUnits="objectBoundingBox" x="0%" y="0%" width="100%" height="100%">
  <feColorMatrix type="matrix" in="SourceGraphic" values="0 0 0 0 1 0 0 0 0 1 0 0 0 0 1 0 0 0 1 0"/>
</filter>
<mask id="mask0">
  <g filter="url(#alpha)">
<rect x="0" y="0" width="47" height="32" style="fill:rgb(0%,0%,0%);fill-opacity:0.121569;stroke:none;"/>
  </g>
</mask>
<clipPath id="clip1">
  <rect x="0" y="0" width="47" height="32"/>
</clipPath>
<g id="surface5" clip-path="url(#clip1)">
<path style=" stroke:none;fill-rule:nonzero;fill:rgb(0%,0%,0%);fill-opacity:1;" d="M 15.140625 29.917969 C 15.394531 30.007812 15.707031 29.8125 15.765625 29.691406 C 15.949219 29.324219 15.148438 28.699219 14.921875 28.542969 C 14.109375 27.96875 13.5625 27.648438 12.644531 27.261719 C 11.722656 26.875 10.792969 26.578125 9.816406 26.359375 C 9.402344 26.269531 8.824219 26.242188 8.394531 26.253906 C 8.113281 26.257812 7.671875 26.265625 7.484375 26.523438 C 7.339844 26.722656 7.664062 27.089844 7.789062 27.21875 C 8.65625 26.714844 10.925781 27.507812 11.710938 27.8125 C 12.988281 28.304688 14.414062 28.875 15.136719 29.917969 Z M 15.140625 29.917969 "/>
</g>
</defs>
<g id="surface1">
<path style=" stroke:none;fill-rule:nonzero;fill:rgb(0%,0%,0%);fill-opacity:1;" d="M 46.949219 3.578125 C 46.949219 3.578125 45.300781 1.21875 41.558594 0 C 33.808594 14.8125 20.046875 20.941406 13.292969 23.433594 C 8.886719 22.417969 2.863281 20.925781 0.0703125 17.449219 C 0.0703125 17.449219 -0.195312 20.5 1.34375 23.386719 C 2.851562 26.222656 12.796875 26.441406 20.285156 24.386719 C 39.988281 18.984375 46.949219 3.578125 46.949219 3.578125 Z M 46.949219 3.578125 "/>
<path style=" stroke:none;fill-rule:nonzero;fill:rgb(99.607843%,76.470588%,24.313725%);fill-opacity:1;" d="M 15.601562 27.996094 C 15.601562 30.207031 13.835938 32 11.660156 32 C 9.480469 32 7.714844 30.207031 7.714844 27.996094 C 7.714844 25.785156 9.480469 23.992188 11.660156 23.992188 C 13.835938 23.992188 15.601562 25.785156 15.601562 27.996094 Z M 15.601562 27.996094 "/>
<path style=" stroke:none;fill-rule:nonzero;fill:rgb(99.607843%,76.470588%,24.313725%);fill-opacity:1;" d="M 12.097656 24.292969 C 12.1875 23.792969 12.320312 23.226562 12.730469 22.933594 C 13.144531 22.632812 13.46875 22.535156 13.972656 22.46875 C 14.515625 22.402344 14.742188 22.667969 14.855469 22.835938 C 14.46875 22.992188 14.117188 23.113281 13.734375 23.269531 C 13.601562 23.324219 13.476562 23.371094 13.402344 23.492188 C 13.332031 23.605469 13.308594 23.828125 13.300781 23.957031 C 13.28125 24.441406 13.234375 24.660156 13.253906 25.050781 C 13.253906 25.101562 13.253906 25.152344 13.230469 25.191406 C 13.199219 25.238281 13.148438 25.261719 13.101562 25.285156 C 12.816406 25.410156 12.5 25.792969 12.183594 25.539062 C 11.902344 25.3125 12.039062 24.585938 12.097656 24.289062 Z M 12.097656 24.292969 "/>
<path style=" stroke:none;fill-rule:nonzero;fill:rgb(94.901961%,69.019608%,16.470588%);fill-opacity:1;" d="M 15.140625 29.917969 C 15.363281 30 15.710938 29.847656 15.816406 29.628906 C 15.988281 29.269531 15.792969 28.898438 15.554688 28.632812 C 14.453125 27.402344 12.597656 26.75 11.078125 26.265625 C 10.464844 26.070312 9.816406 25.894531 9.164062 25.859375 C 8.707031 25.835938 7.695312 25.808594 7.46875 26.339844 C 7.347656 26.621094 7.570312 26.992188 7.789062 27.214844 C 8.65625 26.714844 10.925781 27.503906 11.710938 27.808594 C 12.988281 28.304688 14.414062 28.871094 15.136719 29.914062 Z M 15.140625 29.917969 "/>
<use xlink:href="#surface5" mask="url(#mask0)"/>
<path style=" stroke:none;fill-rule:nonzero;fill:rgb(0%,0%,0%);fill-opacity:1;" d="M 13.058594 29.402344 C 12.617188 29.144531 12.078125 29.246094 11.855469 29.636719 C 11.636719 30.023438 11.816406 30.550781 12.257812 30.808594 C 12.699219 31.070312 13.238281 30.964844 13.460938 30.574219 C 13.679688 30.1875 13.5 29.660156 13.058594 29.402344 Z M 13.058594 29.402344 "/>
<path style=" stroke:none;fill-rule:nonzero;fill:rgb(0%,0%,0%);fill-opacity:1;" d="M 9.457031 31.316406 C 9.695312 31.496094 10.167969 31.726562 10.46875 31.8125 C 10.695312 31.851562 10.914062 31.785156 11.132812 31.710938 C 11.699219 31.503906 12.273438 31.222656 12.628906 30.722656 C 12.398438 30.5625 12.125 30.234375 11.851562 30.429688 C 11.605469 30.601562 11.398438 30.796875 11.128906 30.9375 C 10.59375 31.21875 10.054688 31.316406 9.457031 31.316406 Z M 9.457031 31.316406 "/>
</g>
</svg>
