<?xml version="1.0" encoding="UTF-8"?>
<svg xmlns="http://www.w3.org/2000/svg" xmlns:xlink="http://www.w3.org/1999/xlink" width="48px" height="px" viewBox="0 0 48 46" version="1.1">
<g id="surface1">
<path style="fill:none;stroke-width:5;stroke-linecap:round;stroke-linejoin:miter;stroke:rgb(0%,0%,0%);stroke-opacity:1;stroke-miterlimit:10;" d="M 3.138261 163.261964 C 55.67002 163.478889 109.047744 145.935045 153.856652 120.663232 C 205.678891 91.378298 242.546634 52.629992 274.693341 2.493101 " transform="matrix(0.143143,0,0,0.144059,0,0.0197532)"/>
<path style="fill:none;stroke-width:4;stroke-linecap:round;stroke-linejoin:miter;stroke:rgb(0%,0%,0%);stroke-opacity:1;stroke-miterlimit:10;" d="M 53.514171 254.072374 C 113.031971 210.199205 153.529181 153.852823 162.916675 115.429906 " transform="matrix(0.143143,0,0,0.144059,0,0.0197532)"/>
<path style="fill:none;stroke-width:4;stroke-linecap:round;stroke-linejoin:miter;stroke:rgb(0%,0%,0%);stroke-opacity:1;stroke-miterlimit:10;" d="M 163.517038 115.782409 C 189.059753 161.282519 202.076713 213.751358 200.794119 265.921925 " transform="matrix(0.143143,0,0,0.144059,0,0.0197532)"/>
<path style="fill:none;stroke-width:4;stroke-linecap:round;stroke-linejoin:miter;stroke:rgb(0%,0%,0%);stroke-opacity:1;stroke-miterlimit:10;" d="M 163.598905 114.752014 C 212.855957 140.56614 270.327065 166.678539 319.311225 177.795968 " transform="matrix(0.143143,0,0,0.144059,0,0.0197532)"/>
<path style="fill:none;stroke-width:4;stroke-linecap:round;stroke-linejoin:miter;stroke:rgb(0%,0%,0%);stroke-opacity:1;stroke-miterlimit:10;" d="M 165.399994 114.968939 C 247.294959 104.963253 308.55927 80.667605 331.618665 63.205107 " transform="matrix(0.143143,0,0,0.144059,0,0.0197532)"/>
<path style="fill:none;stroke-width:4;stroke-linecap:round;stroke-linejoin:miter;stroke:rgb(0%,0%,0%);stroke-opacity:1;stroke-miterlimit:10;" d="M 138.383661 128.852167 C 146.215669 124.839046 153.829363 132.78394 155.548584 138.396886 C 159.860282 133.814336 167.037348 132.16028 172.93182 134.465112 C 175.824478 129.557174 181.227745 126.221946 186.903904 125.760979 C 185.703178 119.849761 188.868728 113.287767 194.271995 110.576199 C 191.897832 104.990369 192.30717 98.265681 195.363564 93.005239 " transform="matrix(0.143143,0,0,0.144059,0,0.0197532)"/>
<path style="fill:none;stroke-width:4;stroke-linecap:round;stroke-linejoin:miter;stroke:rgb(0%,0%,0%);stroke-opacity:1;stroke-miterlimit:10;" d="M 110.930701 141.298264 C 125.666882 139.074778 138.629264 149.866818 139.447941 164.238128 C 151.182308 154.828987 168.01976 152.252998 182.046422 157.703249 C 187.367821 146.694284 198.365378 138.613811 210.481794 136.878408 C 205.515155 126.981185 207.643715 114.01989 215.503012 106.210575 C 209.362936 98.428375 208.325946 86.985558 212.937825 78.200078 " transform="matrix(0.143143,0,0,0.144059,0,0.0197532)"/>
<path style="fill:none;stroke-width:4;stroke-linecap:round;stroke-linejoin:miter;stroke:rgb(0%,0%,0%);stroke-opacity:1;stroke-miterlimit:10;" d="M 85.6063 150.002397 C 105.582013 152.822427 116.988909 164.238128 119.144757 192.519782 C 133.225998 186.337407 142.176864 184.68335 157.540697 184.764697 C 172.93182 184.818929 185.430286 190.6488 195.363564 202.389889 C 199.347791 186.364522 200.76683 177.633274 211.082157 164.72621 C 217.031208 157.269399 231.603655 150.002397 241.045727 151.358181 C 235.778906 142.301544 234.305288 131.102768 237.0615 120.961504 C 239.790422 110.82024 246.749175 101.899182 255.891065 96.747203 C 244.020252 85.358617 237.907466 68.275739 239.845001 51.9521 " transform="matrix(0.143143,0,0,0.144059,0,0.0197532)"/>
<path style="fill:none;stroke-width:4;stroke-linecap:round;stroke-linejoin:miter;stroke:rgb(0%,0%,0%);stroke-opacity:1;stroke-miterlimit:10;" d="M 39.951426 160.71309 C 56.106647 160.225008 68.605112 166.976812 78.074473 180.100801 C 87.543835 193.197674 93.68391 211.094022 88.116908 226.278802 C 106.073219 214.863101 124.247843 209.765354 145.369703 212.070186 C 166.518853 214.375019 184.311427 220.367584 199.37508 235.362555 C 205.651602 218.849106 216.185243 196.749828 228.656418 184.168152 C 243.146997 169.552801 264.623617 164.238128 279.196064 166.841233 C 268.498687 153.364741 265.305848 134.35665 265.114823 126.682912 C 264.760063 112.853916 268.498687 96.340467 280.806128 89.209044 C 264.841931 75.434279 255.863776 48.183021 257.14637 28.008956 " transform="matrix(0.143143,0,0,0.144059,0,0.0197532)"/>
<path style="fill:none;stroke-width:4;stroke-linecap:round;stroke-linejoin:miter;stroke:rgb(0%,0%,0%);stroke-opacity:1;stroke-miterlimit:10;" d="M 1.992113 163.261964 C 20.248605 168.820678 36.158223 181.700626 45.354692 198.403884 C 54.578451 215.107142 58.180628 236.664107 53.132122 255.048538 C 78.865861 245.476703 106.400689 233.95254 149.408508 242.412631 C 176.151949 247.673073 200.848698 265.89481 200.848698 265.89481 C 200.848698 265.89481 228.274369 218.550834 255.891065 199.922362 C 270.681825 189.943792 298.380389 177.768852 319.311225 177.768852 C 286.536865 131.672197 305.530166 93.411974 331.618665 63.205107 C 293.05899 54.799247 280.451368 26.029511 274.693341 2.493101 " transform="matrix(0.143143,0,0,0.144059,0,0.0197532)"/>
<path style="fill:none;stroke-width:4;stroke-linecap:round;stroke-linejoin:miter;stroke:rgb(0%,0%,0%);stroke-opacity:1;stroke-miterlimit:10;" d="M 45.654874 199.352933 C 31.71008 192.140162 18.747698 184.737582 5.512424 177.741736 " transform="matrix(0.143143,0,0,0.144059,0,0.0197532)"/>
<path style="fill:none;stroke-width:4;stroke-linecap:round;stroke-linejoin:miter;stroke:rgb(0%,0%,0%);stroke-opacity:1;stroke-miterlimit:10;" d="M 8.050321 195.610969 C 13.617323 195.882126 22.349875 192.628244 27.507539 189.672635 " transform="matrix(0.143143,0,0,0.144059,0,0.0197532)"/>
<path style="fill:none;stroke-width:4;stroke-linecap:round;stroke-linejoin:miter;stroke:rgb(0%,0%,0%);stroke-opacity:1;stroke-miterlimit:10;" d="M 293.359172 39.750045 C 293.222725 31.886498 293.986824 24.050066 295.651466 16.376329 " transform="matrix(0.143143,0,0,0.144059,0,0.0197532)"/>
<path style="fill:none;stroke-width:3;stroke-linecap:round;stroke-linejoin:miter;stroke:rgb(0%,0%,0%);stroke-opacity:1;stroke-miterlimit:10;" d="M 120.290905 212.992119 L 120.290905 290.759888 " transform="matrix(0.143143,0,0,0.144059,0,0.0197532)"/>
<path style=" stroke:none;fill-rule:nonzero;fill:rgb(0%,0%,0%);fill-opacity:1;" d="M 18.558594 42.425781 C 18.558594 41.539062 17.957031 40.820312 17.214844 40.820312 C 16.472656 40.820312 15.867188 41.539062 15.867188 42.425781 C 15.867188 43.3125 16.472656 44.03125 17.214844 44.03125 C 17.957031 44.03125 18.558594 43.3125 18.558594 42.425781 Z M 18.558594 42.425781 "/>
<path style=" stroke:none;fill-rule:nonzero;fill:rgb(0%,0%,0%);fill-opacity:1;" d="M 18.003906 44.414062 C 18.003906 44.851562 17.652344 45.210938 17.214844 45.210938 C 16.777344 45.210938 16.425781 44.851562 16.425781 44.414062 C 16.425781 43.976562 16.777344 43.617188 17.214844 43.617188 C 17.652344 43.617188 18.003906 43.976562 18.003906 44.414062 Z M 18.003906 44.414062 "/>
<path style=" stroke:none;fill-rule:nonzero;fill:rgb(0%,0%,0%);fill-opacity:1;" d="M 16.398438 41.953125 C 15.917969 41.355469 15.324219 40.824219 14.695312 40.378906 C 15.546875 40.195312 16.308594 39.65625 16.660156 38.789062 C 16.46875 39.558594 15.902344 40.253906 15.132812 40.605469 L 15.164062 40.300781 C 15.769531 40.632812 16.332031 41.046875 16.847656 41.527344 Z M 16.398438 41.953125 "/>
<path style=" stroke:none;fill-rule:nonzero;fill:rgb(0%,0%,0%);fill-opacity:1;" d="M 16.566406 43.597656 C 16.09375 44.019531 15.539062 44.371094 14.980469 44.65625 C 14.980469 44.65625 14.988281 44.386719 14.988281 44.386719 C 15.503906 44.792969 15.992188 45.253906 16.386719 45.78125 C 16.148438 45.558594 15.898438 45.347656 15.632812 45.160156 C 15.308594 44.933594 14.953125 44.738281 14.609375 44.539062 C 15.164062 44.132812 15.695312 43.699219 16.125 43.160156 C 16.125 43.160156 16.566406 43.597656 16.566406 43.597656 Z M 16.566406 43.597656 "/>
<path style=" stroke:none;fill-rule:nonzero;fill:rgb(0%,0%,0%);fill-opacity:1;" d="M 16.171875 43.113281 C 15.679688 43.078125 15.183594 43.027344 14.6875 43.03125 C 14.683594 43.03125 14.667969 43.03125 14.679688 43.03125 C 14.691406 43.023438 14.703125 43.015625 14.710938 43.003906 C 14.71875 42.992188 14.710938 43.003906 14.707031 43.007812 C 14.683594 43.039062 14.660156 43.070312 14.636719 43.105469 C 14.328125 43.597656 14.066406 44.144531 13.75 44.632812 C 13.980469 44.082031 14.136719 43.519531 14.363281 42.960938 C 14.410156 42.855469 14.457031 42.722656 14.582031 42.691406 C 14.636719 42.675781 14.671875 42.671875 14.722656 42.660156 C 14.910156 42.628906 15.101562 42.605469 15.285156 42.582031 C 15.578125 42.546875 15.875 42.519531 16.167969 42.492188 L 16.167969 43.113281 Z M 16.171875 43.113281 "/>
<path style=" stroke:none;fill-rule:nonzero;fill:rgb(0%,0%,0%);fill-opacity:1;" d="M 16.023438 42.472656 C 15.675781 42.25 15.09375 41.832031 14.734375 41.667969 C 14.75 41.664062 14.777344 41.65625 14.789062 41.644531 C 14.230469 41.902344 13.660156 42.125 13.054688 42.203125 C 13.328125 42.128906 13.582031 41.988281 13.832031 41.851562 C 14.097656 41.703125 14.367188 41.550781 14.601562 41.367188 C 14.632812 41.34375 14.679688 41.328125 14.71875 41.324219 C 15.019531 41.335938 15.257812 41.480469 15.523438 41.582031 C 15.523438 41.582031 16.3125 41.925781 16.3125 41.925781 Z M 16.023438 42.472656 "/>
<path style=" stroke:none;fill-rule:nonzero;fill:rgb(0%,0%,0%);fill-opacity:1;" d="M 17.539062 41.585938 C 18.054688 41.109375 18.613281 40.695312 19.222656 40.359375 L 19.253906 40.667969 C 18.484375 40.316406 17.921875 39.621094 17.722656 38.847656 C 18.078125 39.714844 18.839844 40.253906 19.691406 40.4375 C 19.0625 40.886719 18.46875 41.414062 17.988281 42.015625 C 17.988281 42.015625 17.539062 41.589844 17.539062 41.589844 Z M 17.539062 41.585938 "/>
<path style=" stroke:none;fill-rule:nonzero;fill:rgb(0%,0%,0%);fill-opacity:1;" d="M 18.261719 43.21875 C 18.691406 43.757812 19.222656 44.191406 19.777344 44.597656 C 19.777344 44.597656 19.578125 44.710938 19.578125 44.710938 C 18.992188 45.039062 18.492188 45.519531 18 45.980469 C 18.425781 45.433594 18.851562 44.878906 19.398438 44.445312 C 19.398438 44.445312 19.40625 44.710938 19.40625 44.710938 C 18.847656 44.425781 18.292969 44.078125 17.820312 43.652344 C 17.820312 43.652344 18.261719 43.21875 18.261719 43.21875 Z M 18.261719 43.21875 "/>
<path style=" stroke:none;fill-rule:nonzero;fill:rgb(0%,0%,0%);fill-opacity:1;" d="M 18.214844 42.554688 C 18.71875 42.601562 19.222656 42.644531 19.722656 42.734375 C 19.769531 42.742188 19.824219 42.757812 19.871094 42.78125 C 19.898438 42.804688 19.941406 42.847656 19.953125 42.875 C 20.113281 43.195312 20.207031 43.535156 20.328125 43.863281 C 20.425781 44.140625 20.519531 44.421875 20.636719 44.695312 C 20.316406 44.203125 20.054688 43.65625 19.746094 43.164062 C 19.722656 43.128906 19.703125 43.097656 19.679688 43.066406 C 19.675781 43.066406 19.664062 43.050781 19.671875 43.0625 C 19.679688 43.074219 19.695312 43.082031 19.703125 43.089844 C 19.71875 43.09375 19.699219 43.089844 19.695312 43.089844 L 19.671875 43.089844 C 19.1875 43.089844 18.699219 43.136719 18.210938 43.175781 C 18.210938 43.175781 18.214844 42.550781 18.214844 42.550781 Z M 18.214844 42.554688 "/>
<path style=" stroke:none;fill-rule:nonzero;fill:rgb(0%,0%,0%);fill-opacity:1;" d="M 18.074219 41.984375 L 18.863281 41.636719 C 19.074219 41.550781 19.277344 41.460938 19.503906 41.402344 C 19.550781 41.390625 19.632812 41.371094 19.710938 41.390625 C 19.738281 41.398438 19.769531 41.410156 19.792969 41.429688 C 20.261719 41.757812 20.78125 42.082031 21.335938 42.261719 C 20.730469 42.183594 20.160156 41.960938 19.605469 41.707031 C 19.605469 41.707031 19.597656 41.703125 19.597656 41.703125 C 19.609375 41.714844 19.636719 41.722656 19.652344 41.726562 C 19.296875 41.886719 18.707031 42.3125 18.363281 42.53125 C 18.363281 42.53125 18.074219 41.980469 18.074219 41.980469 Z M 18.074219 41.984375 "/>
</g>
</svg>
