<?xml version="1.0" encoding="UTF-8"?>
<svg xmlns="http://www.w3.org/2000/svg" xmlns:xlink="http://www.w3.org/1999/xlink" width="48px" height="px" viewBox="0 0 48 47" version="1.1">
<defs>
<filter id="alpha" filterUnits="objectBoundingBox" x="0%" y="0%" width="100%" height="100%">
  <feColorMatrix type="matrix" in="SourceGraphic" values="0 0 0 0 1 0 0 0 0 1 0 0 0 0 1 0 0 0 1 0"/>
</filter>
<mask id="mask0">
  <g filter="url(#alpha)">
<rect x="0" y="0" width="48" height="47" style="fill:rgb(0%,0%,0%);fill-opacity:0.168627;stroke:none;"/>
  </g>
</mask>
<clipPath id="clip1">
  <rect x="0" y="0" width="48" height="47"/>
</clipPath>
<g id="surface5" clip-path="url(#clip1)">
<path style=" stroke:none;fill-rule:nonzero;fill:rgb(0%,0%,0%);fill-opacity:1;" d="M 5.226562 31.25 C 5.628906 31.75 7.207031 33.941406 7.769531 34.441406 C 8.304688 34.917969 9.035156 35.214844 9.761719 35.117188 C 10.574219 35.007812 11.347656 35.285156 12.066406 35.699219 C 13.230469 36.367188 14.136719 37.457031 14.566406 38.714844 C 15.007812 40.007812 14.921875 41.519531 14.113281 42.625 C 13.304688 43.730469 11.710938 44.300781 10.441406 43.75 C 9.644531 43.402344 9.066406 42.683594 8.683594 41.910156 C 8.304688 41.140625 8.09375 40.300781 7.816406 39.484375 C 7.097656 37.363281 5.945312 35.410156 4.921875 33.414062 C 4.445312 32.484375 3.996094 31.539062 3.628906 30.5625 C 3.386719 29.914062 2.714844 28.566406 3.023438 27.886719 C 3.425781 28.273438 3.691406 29.035156 4.003906 29.53125 C 4.378906 30.125 4.78125 30.703125 5.226562 31.253906 Z M 5.226562 31.25 "/>
</g>
<mask id="mask1">
  <g filter="url(#alpha)">
<rect x="0" y="0" width="48" height="47" style="fill:rgb(0%,0%,0%);fill-opacity:0.168627;stroke:none;"/>
  </g>
</mask>
<clipPath id="clip2">
  <rect x="0" y="0" width="48" height="47"/>
</clipPath>
<g id="surface8" clip-path="url(#clip2)">
<path style=" stroke:none;fill-rule:nonzero;fill:rgb(0%,0%,0%);fill-opacity:1;" d="M 13.5 38.210938 C 12.582031 36.175781 10.601562 35.066406 9.082031 35.730469 C 7.558594 36.394531 7.070312 38.582031 7.988281 40.617188 C 8.910156 42.652344 10.886719 43.761719 12.410156 43.097656 C 13.933594 42.433594 14.421875 40.246094 13.5 38.210938 Z M 13.5 38.210938 "/>
</g>
<mask id="mask2">
  <g filter="url(#alpha)">
<rect x="0" y="0" width="48" height="47" style="fill:rgb(0%,0%,0%);fill-opacity:0.168627;stroke:none;"/>
  </g>
</mask>
<clipPath id="clip3">
  <rect x="0" y="0" width="48" height="47"/>
</clipPath>
<g id="surface11" clip-path="url(#clip3)">
<path style=" stroke:none;fill-rule:nonzero;fill:rgb(0%,0%,0%);fill-opacity:1;" d="M 30.265625 44.570312 C 31.96875 43.945312 33.335938 42.660156 34.476562 41.265625 C 37.871094 37.105469 39.546875 31.882812 41.152344 26.789062 C 43.535156 19.238281 45.574219 11.601562 46.136719 3.710938 C 47.5 5.519531 48.191406 7.914062 47.949219 10.148438 C 47.707031 12.386719 46.945312 14.53125 46.300781 16.695312 C 45.316406 19.988281 44.597656 23.347656 43.625 26.644531 C 43.207031 28.066406 41.214844 33.878906 40.402344 35.292969 C 39.265625 37.273438 38.066406 39.300781 36.71875 41.148438 C 35.277344 43.121094 33.539062 44.6875 31.472656 46.011719 C 30.25 46.789062 28.714844 47.207031 27.3125 46.808594 C 26.59375 46.605469 25.941406 46.148438 25.5 45.554688 C 25.222656 45.183594 24.542969 44.09375 25.445312 44.183594 C 25.796875 44.21875 26.144531 44.507812 26.476562 44.632812 C 26.875 44.777344 27.296875 44.867188 27.71875 44.90625 C 28.574219 44.992188 29.457031 44.871094 30.261719 44.574219 Z M 30.265625 44.570312 "/>
</g>
<mask id="mask3">
  <g filter="url(#alpha)">
<rect x="0" y="0" width="48" height="47" style="fill:rgb(0%,0%,0%);fill-opacity:0.168627;stroke:none;"/>
  </g>
</mask>
<clipPath id="clip4">
  <rect x="0" y="0" width="48" height="47"/>
</clipPath>
<g id="surface14" clip-path="url(#clip4)">
<path style=" stroke:none;fill-rule:nonzero;fill:rgb(0%,0%,0%);fill-opacity:1;" d="M 21.167969 37.765625 C 20.769531 36.535156 21.886719 35.171875 22.582031 34.246094 C 23.382812 33.1875 24.285156 32.199219 25.269531 31.296875 C 28.160156 28.640625 31.777344 26.957031 35.289062 25.28125 C 37.652344 24.152344 39.992188 22.785156 41.554688 20.710938 C 41.707031 20.507812 41.855469 20.292969 41.898438 20.046875 C 41.9375 19.796875 41.847656 19.511719 41.621094 19.398438 C 41.347656 19.261719 41.027344 19.414062 40.761719 19.5625 C 37.644531 21.304688 34.527344 23.050781 31.414062 24.796875 C 29.683594 25.765625 27.949219 26.734375 26.355469 27.910156 C 24.269531 29.441406 22.457031 31.300781 20.757812 33.238281 C 19.921875 34.1875 19.078125 35.234375 18.917969 36.480469 C 18.789062 37.445312 19.113281 38.464844 19.78125 39.1875 C 20.238281 39.679688 21.578125 40.65625 22.269531 39.996094 C 22.8125 39.472656 21.355469 38.347656 21.167969 37.765625 Z M 21.167969 37.765625 "/>
</g>
<mask id="mask4">
  <g filter="url(#alpha)">
<rect x="0" y="0" width="48" height="47" style="fill:rgb(0%,0%,0%);fill-opacity:0.168627;stroke:none;"/>
  </g>
</mask>
<clipPath id="clip5">
  <rect x="0" y="0" width="48" height="47"/>
</clipPath>
<g id="surface17" clip-path="url(#clip5)">
<path style=" stroke:none;fill-rule:nonzero;fill:rgb(0%,0%,0%);fill-opacity:1;" d="M 11.800781 38.953125 C 11.226562 37.683594 9.992188 36.988281 9.042969 37.402344 C 8.089844 37.816406 7.785156 39.183594 8.359375 40.453125 C 8.933594 41.722656 10.167969 42.417969 11.117188 42.003906 C 12.070312 41.585938 12.375 40.222656 11.800781 38.953125 Z M 11.800781 38.953125 "/>
</g>
</defs>
<g id="surface1">
<use xlink:href="#surface5" mask="url(#mask0)"/>
<path style=" stroke:none;fill-rule:nonzero;fill:rgb(70.588235%,71.372549%,78.431373%);fill-opacity:1;" d="M 13.5 38.210938 C 12.582031 36.175781 10.601562 35.066406 9.082031 35.730469 C 7.558594 36.394531 7.070312 38.582031 7.988281 40.617188 C 8.910156 42.652344 10.886719 43.761719 12.410156 43.097656 C 13.933594 42.433594 14.421875 40.246094 13.5 38.210938 Z M 13.5 38.210938 "/>
<use xlink:href="#surface8" mask="url(#mask1)"/>
<path style=" stroke:none;fill-rule:nonzero;fill:rgb(70.588235%,71.372549%,78.431373%);fill-opacity:1;" d="M 12.835938 38.5 C 11.917969 36.464844 9.9375 35.355469 8.414062 36.015625 C 6.894531 36.679688 6.40625 38.867188 7.324219 40.902344 C 8.242188 42.9375 10.222656 44.050781 11.746094 43.386719 C 13.265625 42.722656 13.753906 40.535156 12.835938 38.5 Z M 12.835938 38.5 "/>
<use xlink:href="#surface11" mask="url(#mask2)"/>
<path style=" stroke:none;fill-rule:nonzero;fill:rgb(28.627451%,29.803922%,40.392157%);fill-opacity:1;" d="M 8.296875 39.292969 C 7.933594 39.292969 7.570312 39.140625 7.320312 38.84375 C 5.355469 36.515625 3.691406 33.945312 2.375 31.210938 C 2 30.433594 1.65625 29.644531 1.339844 28.84375 C 1.023438 28.042969 0.65625 27.238281 0.484375 26.417969 C 0.316406 25.597656 0.0351562 24.832031 0.00390625 23.984375 C -0.0117188 23.546875 0.015625 23.105469 0.0859375 22.675781 C 0.121094 22.449219 0.171875 22.226562 0.230469 22.003906 C 0.25 21.921875 0.441406 21.511719 0.40625 21.453125 C 0.542969 21.453125 1.773438 24.339844 2.050781 24.996094 C 2.957031 27.136719 4.105469 29.132812 5.183594 31.1875 C 6.316406 33.347656 7.6875 35.386719 9.265625 37.253906 C 9.714844 37.785156 9.640625 38.566406 9.101562 39.007812 C 8.867188 39.199219 8.578125 39.292969 8.292969 39.292969 Z M 8.296875 39.292969 "/>
<path style=" stroke:none;fill-rule:nonzero;fill:rgb(28.627451%,29.803922%,40.392157%);fill-opacity:1;" d="M 43.191406 18.503906 C 42.980469 18.503906 42.769531 18.453125 42.570312 18.351562 C 41.910156 18.011719 41.65625 17.214844 42.003906 16.566406 C 43.953125 12.910156 44.425781 8.792969 43.929688 4.609375 C 43.746094 3.085938 43.277344 1.796875 42.449219 0.0390625 C 43.234375 0.0429688 44.015625 0.3125 44.628906 0.796875 C 45.339844 1.355469 45.726562 2.191406 46.058594 2.996094 C 46.425781 3.902344 46.632812 4.910156 46.78125 5.871094 C 47.085938 7.863281 47 9.902344 46.585938 11.878906 C 46.175781 13.851562 45.378906 15.929688 44.382812 17.792969 C 44.144531 18.242188 43.675781 18.5 43.191406 18.5 Z M 43.191406 18.503906 "/>
<use xlink:href="#surface14" mask="url(#mask3)"/>
<path style="fill:none;stroke-width:11;stroke-linecap:round;stroke-linejoin:miter;stroke:rgb(70.588235%,71.372549%,78.431373%);stroke-opacity:1;stroke-miterlimit:10;" d="M 189.137419 163.823453 C 166.989081 178.652335 144.272838 194.034157 129.630737 216.277479 C 125.630703 222.384968 122.198575 229.120799 121.581286 236.409571 C 120.939305 243.67321 123.53192 251.565191 129.531971 255.737384 C 133.581388 258.577492 135.581405 259.432038 140.346878 260.889792 " transform="matrix(0.158202,0,0,0.155419,0,0.0387496)"/>
<path style="fill:none;stroke-width:11;stroke-linecap:round;stroke-linejoin:miter;stroke:rgb(70.588235%,71.372549%,78.431373%);stroke-opacity:1;stroke-miterlimit:10;" d="M 245.631729 211.678013 C 234.397065 235.806362 222.643878 260.613322 202.890623 278.483381 C 197.483169 283.384451 191.334968 287.782849 184.248488 289.542207 C 177.162008 291.276432 168.964407 289.919213 163.927327 284.641136 C 160.470507 281.047018 159.359386 279.212258 157.186528 274.73846 " transform="matrix(0.158202,0,0,0.155419,0,0.0387496)"/>
<path style="fill:none;stroke-width:17;stroke-linecap:round;stroke-linejoin:miter;stroke:rgb(28.627451%,29.803922%,40.392157%);stroke-opacity:1;stroke-miterlimit:10;" d="M 184.544787 166.286555 C 207.903011 149.79885 239.82921 137.63414 274.669014 106.920762 C 267.039319 146.933608 260.594819 175.736826 245.286047 213.487639 " transform="matrix(0.158202,0,0,0.155419,0,0.0387496)"/>
<path style="fill:none;stroke-width:17;stroke-linecap:round;stroke-linejoin:miter;stroke:rgb(28.627451%,29.803922%,40.392157%);stroke-opacity:1;stroke-miterlimit:10;" d="M 193.754742 160.179067 C 210.693158 150.829332 226.890828 152.78976 236.224241 159.651259 C 247.508288 167.920246 251.063874 185.388165 248.767558 204.037369 " transform="matrix(0.158202,0,0,0.155419,0,0.0387496)"/>
<use xlink:href="#surface17" mask="url(#mask4)"/>
<path style="fill-rule:nonzero;fill:rgb(70.588235%,71.372549%,78.431373%);fill-opacity:1;stroke-width:2;stroke-linecap:butt;stroke-linejoin:miter;stroke:rgb(28.627451%,29.803922%,40.392157%);stroke-opacity:1;stroke-miterlimit:10;" d="M 71.056148 256.352347 C 71.051776 247.413778 65.734596 240.159673 59.169657 240.161095 C 52.582149 240.152502 47.2536 247.411937 47.257972 256.350507 C 47.262344 265.289076 52.579524 272.54318 59.167032 272.551774 C 65.731971 272.550352 71.06052 265.290916 71.056148 256.352347 Z M 71.056148 256.352347 " transform="matrix(0.144603,-0.063041,0.0641698,0.142059,-15.642991,7.191124)"/>
<path style=" stroke:none;fill-rule:nonzero;fill:rgb(28.627451%,29.803922%,40.392157%);fill-opacity:1;" d="M 23.082031 41.703125 C 23.019531 41.777344 22.945312 41.847656 22.863281 41.910156 C 22.410156 42.273438 21.746094 42.117188 21.300781 41.835938 C 20.722656 41.476562 20.25 41.058594 20.375 40.324219 C 20.480469 39.71875 20.765625 39.261719 21.472656 39.246094 C 21.9375 39.238281 22.378906 39.445312 22.769531 39.695312 C 23.519531 40.175781 23.648438 41.0625 23.082031 41.703125 Z M 23.082031 41.703125 "/>
<path style=" stroke:none;fill-rule:nonzero;fill:rgb(28.627451%,29.803922%,40.392157%);fill-opacity:1;" d="M 23.421875 42.226562 C 23.371094 42.308594 23.320312 42.394531 23.28125 42.488281 C 23.046875 43.019531 23.382812 43.601562 23.78125 43.949219 C 24.292969 44.394531 24.828125 44.726562 25.511719 44.40625 C 26.078125 44.144531 26.449219 43.75 26.269531 43.074219 C 26.152344 42.632812 25.828125 42.273438 25.476562 41.972656 C 24.796875 41.394531 23.894531 41.519531 23.421875 42.226562 Z M 23.421875 42.226562 "/>
</g>
</svg>
