<?xml version="1.0" encoding="UTF-8"?>
<svg xmlns="http://www.w3.org/2000/svg" xmlns:xlink="http://www.w3.org/1999/xlink" width="48px" height="px" viewBox="0 0 48 73" version="1.1">
<defs>
<filter id="alpha" filterUnits="objectBoundingBox" x="0%" y="0%" width="100%" height="100%">
  <feColorMatrix type="matrix" in="SourceGraphic" values="0 0 0 0 1 0 0 0 0 1 0 0 0 0 1 0 0 0 1 0"/>
</filter>
<mask id="mask0">
  <g filter="url(#alpha)">
<rect x="0" y="0" width="48" height="73" style="fill:rgb(0%,0%,0%);fill-opacity:0.129412;stroke:none;"/>
  </g>
</mask>
<clipPath id="clip1">
  <rect x="0" y="0" width="48" height="73"/>
</clipPath>
<g id="surface5" clip-path="url(#clip1)">
<path style=" stroke:none;fill-rule:nonzero;fill:rgb(0%,0%,0%);fill-opacity:1;" d="M 10.738281 40.820312 C 12.378906 45.558594 15.203125 49.246094 19.628906 52.167969 C 20.847656 52.972656 22.382812 53.746094 23.890625 53.605469 C 28.289062 53.191406 29.734375 46.496094 29.894531 43.027344 C 30.066406 39.316406 29.355469 35.632812 29.011719 31.933594 C 28.875 30.46875 28.792969 28.976562 29.105469 27.542969 C 29.730469 24.679688 32.125 23.332031 34.371094 21.773438 C 39.84375 17.972656 46.949219 11.933594 47.476562 4.769531 C 47.4375 5.375 42.394531 7.824219 41.699219 8.28125 C 39.707031 9.582031 37.542969 10.667969 35.453125 11.804688 C 31.054688 14.191406 26.617188 16.503906 22.136719 18.742188 C 18.121094 20.753906 14.070312 22.699219 9.996094 24.585938 C 8.054688 25.484375 5.871094 26.199219 4.035156 27.289062 C 2.628906 28.125 3.335938 29.132812 4.425781 29.921875 C 5.9375 31.015625 7.269531 31.445312 8.261719 33.203125 C 9.171875 34.808594 9.582031 36.640625 10.03125 38.429688 C 10.234375 39.253906 10.472656 40.054688 10.738281 40.820312 Z M 10.738281 40.820312 "/>
</g>
<mask id="mask1">
  <g filter="url(#alpha)">
<rect x="0" y="0" width="48" height="73" style="fill:rgb(0%,0%,0%);fill-opacity:0.258824;stroke:none;"/>
  </g>
</mask>
<clipPath id="clip2">
  <rect x="0" y="0" width="48" height="73"/>
</clipPath>
<g id="surface8" clip-path="url(#clip2)">
<path style=" stroke:none;fill-rule:nonzero;fill:rgb(0%,0%,0%);fill-opacity:1;" d="M 20.296875 23.964844 C 20.710938 24.308594 20.648438 24.738281 20.648438 25.316406 C 20.648438 26.117188 20.691406 26.921875 20.886719 27.699219 C 20.9375 27.902344 21 28.113281 20.953125 28.320312 C 20.875 28.664062 20.289062 28.828125 19.996094 28.9375 C 18.621094 29.453125 17.253906 29.839844 15.820312 30.074219 C 14.304688 30.320312 12.910156 30.78125 11.351562 30.828125 C 10.988281 30.839844 10.472656 30.921875 10.125 30.820312 C 9.777344 30.71875 9.796875 30.636719 9.730469 30.253906 C 9.597656 29.515625 9.453125 28.777344 9.179688 28.074219 C 9.035156 27.703125 8.53125 26.945312 8.746094 26.519531 C 8.953125 26.113281 9.34375 25.832031 9.738281 25.597656 C 9.921875 25.488281 10.109375 25.386719 10.296875 25.285156 C 12.347656 24.210938 14.71875 23.476562 17.039062 23.363281 C 18.007812 23.316406 19.246094 23.332031 20.117188 23.84375 C 20.1875 23.882812 20.246094 23.921875 20.296875 23.964844 Z M 20.296875 23.964844 "/>
</g>
<mask id="mask2">
  <g filter="url(#alpha)">
<rect x="0" y="0" width="48" height="73" style="fill:rgb(0%,0%,0%);fill-opacity:0.258824;stroke:none;"/>
  </g>
</mask>
<clipPath id="clip3">
  <rect x="0" y="0" width="48" height="73"/>
</clipPath>
<g id="surface11" clip-path="url(#clip3)">
<path style=" stroke:none;fill-rule:nonzero;fill:rgb(0%,0%,0%);fill-opacity:1;" d="M 28.714844 53.671875 C 28.78125 53.105469 28.71875 52.515625 28.65625 51.941406 C 27.3125 39.945312 25.953125 27.867188 22.4375 16.316406 C 22.710938 15.980469 23.269531 15.875 23.660156 15.613281 C 22.289062 14.507812 19.371094 15.996094 17.472656 16.714844 C 17.199219 16.816406 16.921875 16.921875 16.644531 17.023438 C 15.46875 17.445312 14.308594 16.078125 13.476562 17.023438 C 11.792969 18.945312 12.5625 23.179688 13.203125 25.285156 C 14.921875 30.921875 15.480469 36.851562 15.5 42.722656 C 15.519531 48.351562 15.527344 54.335938 13.714844 59.710938 C 13.628906 59.96875 13.769531 60.253906 14.027344 60.339844 C 14.082031 60.355469 14.136719 60.367188 14.1875 60.367188 C 14.394531 60.367188 14.589844 60.234375 14.660156 60.027344 C 15.015625 58.972656 15.371094 57.820312 15.632812 56.628906 C 15.855469 56.984375 16.160156 57.269531 16.5625 57.457031 C 16.402344 58.644531 16.167969 59.820312 15.851562 60.984375 C 15.777344 61.25 15.9375 61.523438 16.199219 61.59375 C 16.246094 61.605469 16.289062 61.613281 16.332031 61.613281 C 16.550781 61.613281 16.75 61.464844 16.8125 61.246094 C 17.128906 60.078125 17.371094 58.898438 17.535156 57.707031 C 17.753906 57.726562 17.984375 57.730469 18.238281 57.714844 C 18.460938 57.703125 18.6875 57.6875 18.917969 57.675781 C 18.871094 58.863281 18.742188 60.097656 18.511719 61.625 C 18.472656 61.894531 18.660156 62.148438 18.933594 62.191406 C 18.957031 62.195312 18.980469 62.195312 19.007812 62.195312 C 19.246094 62.195312 19.460938 62.015625 19.5 61.773438 C 19.738281 60.167969 19.875 58.871094 19.914062 57.621094 C 20.433594 57.589844 20.953125 57.558594 21.476562 57.511719 C 21.503906 58.859375 21.425781 60.308594 21.144531 61.707031 C 21.089844 61.980469 21.265625 62.242188 21.535156 62.292969 C 21.570312 62.300781 21.601562 62.304688 21.632812 62.304688 C 21.867188 62.304688 22.074219 62.140625 22.121094 61.90625 C 22.425781 60.398438 22.503906 58.84375 22.46875 57.410156 C 22.902344 57.359375 23.332031 57.296875 23.753906 57.21875 C 23.898438 58.640625 23.941406 60.074219 23.871094 61.503906 C 23.859375 61.777344 24.070312 62.011719 24.34375 62.023438 C 24.351562 62.023438 24.359375 62.023438 24.367188 62.023438 C 24.632812 62.023438 24.851562 61.816406 24.867188 61.550781 C 24.9375 60.03125 24.894531 58.511719 24.734375 57.003906 C 24.761719 56.996094 24.792969 56.988281 24.820312 56.980469 C 25.246094 56.867188 25.683594 56.730469 26.101562 56.5625 C 26.382812 58.113281 26.539062 59.722656 26.488281 60.914062 C 26.476562 61.191406 26.691406 61.421875 26.964844 61.433594 C 26.972656 61.433594 26.980469 61.433594 26.984375 61.433594 C 27.25 61.433594 27.472656 61.226562 27.484375 60.957031 C 27.539062 59.609375 27.359375 57.808594 27.03125 56.105469 C 27.453125 55.847656 27.828125 55.542969 28.117188 55.167969 C 28.480469 56.574219 28.6875 58.007812 28.730469 59.464844 C 28.738281 59.734375 28.957031 59.949219 29.226562 59.949219 C 29.230469 59.949219 29.238281 59.949219 29.242188 59.949219 C 29.515625 59.941406 29.734375 59.710938 29.726562 59.4375 C 29.667969 57.46875 29.328125 55.539062 28.714844 53.671875 Z M 28.714844 53.671875 "/>
</g>
<mask id="mask3">
  <g filter="url(#alpha)">
<rect x="0" y="0" width="48" height="73" style="fill:rgb(0%,0%,0%);fill-opacity:0.258824;stroke:none;"/>
  </g>
</mask>
<clipPath id="clip4">
  <rect x="0" y="0" width="48" height="73"/>
</clipPath>
<g id="surface14" clip-path="url(#clip4)">
<path style=" stroke:none;fill-rule:nonzero;fill:rgb(0%,0%,0%);fill-opacity:1;" d="M 26.601562 24.4375 C 26.589844 24.617188 26.5625 24.640625 26.238281 24.789062 C 25.742188 25.019531 24.925781 24.9375 24.542969 24.535156 C 24.0625 24.027344 23.847656 23.3125 23.652344 22.660156 C 23.1875 21.128906 22.722656 19.578125 22.65625 17.980469 C 22.589844 16.402344 22.730469 14.222656 24.429688 13.503906 C 23.804688 13.765625 25.054688 18.292969 25.1875 18.875 C 25.488281 20.179688 25.839844 21.476562 26.234375 22.753906 C 26.378906 23.21875 26.640625 23.734375 26.609375 24.230469 C 26.605469 24.316406 26.605469 24.386719 26.601562 24.4375 Z M 26.601562 24.4375 "/>
</g>
<linearGradient id="linear0" gradientUnits="userSpaceOnUse" x1="113.4" y1="1300.43" x2="73.42" y2="1340.8" gradientTransform="matrix(0.141549,-0.0148136,-0.0148274,-0.141417,28.059064,237.393838)">
<stop offset="0" style="stop-color:rgb(0%,50.588235%,67.843137%);stop-opacity:1;"/>
<stop offset="1" style="stop-color:rgb(7.843137%,81.960784%,87.45098%);stop-opacity:1;"/>
</linearGradient>
<linearGradient id="linear1" gradientUnits="userSpaceOnUse" x1="113.51" y1="1300.54" x2="73.53" y2="1340.91" gradientTransform="matrix(0.141549,-0.0148136,-0.0148274,-0.141417,28.059064,237.393838)">
<stop offset="0" style="stop-color:rgb(0%,50.588235%,67.843137%);stop-opacity:1;"/>
<stop offset="1" style="stop-color:rgb(7.843137%,81.960784%,87.45098%);stop-opacity:1;"/>
</linearGradient>
<linearGradient id="linear2" gradientUnits="userSpaceOnUse" x1="101.28" y1="1368.17" x2="139.34" y2="1329.71" gradientTransform="matrix(0.141549,-0.0148136,-0.0148274,-0.141417,28.059064,237.393838)">
<stop offset="0" style="stop-color:rgb(0%,50.588235%,67.843137%);stop-opacity:1;"/>
<stop offset="1" style="stop-color:rgb(7.843137%,81.960784%,87.45098%);stop-opacity:1;"/>
</linearGradient>
<linearGradient id="linear3" gradientUnits="userSpaceOnUse" x1="101.39" y1="1368.28" x2="139.46" y2="1329.82" gradientTransform="matrix(0.141549,-0.0148136,-0.0148274,-0.141417,28.059064,237.393838)">
<stop offset="0" style="stop-color:rgb(0%,50.588235%,67.843137%);stop-opacity:1;"/>
<stop offset="1" style="stop-color:rgb(7.843137%,81.960784%,87.45098%);stop-opacity:1;"/>
</linearGradient>
<linearGradient id="linear4" gradientUnits="userSpaceOnUse" x1="84.45" y1="1356.92" x2="128.06" y2="1313.88" gradientTransform="matrix(0.141549,-0.0148136,-0.0148274,-0.141417,28.059064,237.393838)">
<stop offset="0" style="stop-color:rgb(7.843137%,81.960784%,87.45098%);stop-opacity:1;"/>
<stop offset="1" style="stop-color:rgb(52.156863%,85.098039%,64.705882%);stop-opacity:1;"/>
</linearGradient>
<linearGradient id="linear5" gradientUnits="userSpaceOnUse" x1="84.46" y1="1356.93" x2="128.08" y2="1313.89" gradientTransform="matrix(0.141549,-0.0148136,-0.0148274,-0.141417,28.059064,237.393838)">
<stop offset="0" style="stop-color:rgb(7.843137%,81.960784%,87.45098%);stop-opacity:1;"/>
<stop offset="1" style="stop-color:rgb(52.156863%,85.098039%,64.705882%);stop-opacity:1;"/>
</linearGradient>
</defs>
<g id="surface1">
<use xlink:href="#surface5" mask="url(#mask0)"/>
<path style=" stroke:none;fill-rule:nonzero;fill:rgb(28.627451%,29.803922%,40.392157%);fill-opacity:1;" d="M 20.316406 24.65625 C 20.582031 25.246094 24.691406 50.730469 25.160156 62.546875 C 23.414062 64.542969 20.949219 65.898438 18.328125 66.308594 C 15.707031 66.71875 13.238281 65.863281 10.964844 64.496094 C 12.433594 52.101562 11.796875 39.589844 9.402344 28.710938 C 9.402344 28.710938 9.230469 27.335938 9.4375 26.929688 C 9.648438 26.523438 9.34375 26.542969 9.738281 26.3125 C 12.363281 24.75 17.644531 23.175781 20.316406 24.65625 Z M 20.316406 24.65625 "/>
<use xlink:href="#surface8" mask="url(#mask1)"/>
<path style=" stroke:none;fill-rule:nonzero;fill:rgb(28.627451%,29.803922%,40.392157%);fill-opacity:1;" d="M 47.78125 4.019531 C 47.964844 4.078125 48.054688 4.289062 47.964844 4.460938 C 43.777344 12.503906 38.507812 18.433594 30.273438 22.953125 C 22.300781 27.332031 11.683594 28.671875 2.605469 28.914062 C 2.4375 28.917969 2.289062 28.808594 2.246094 28.648438 C 1.058594 24.535156 0.335938 22.382812 0 18.5625 C -0.0273438 18.214844 0.273438 17.929688 0.621094 17.976562 C 7.910156 19.003906 15.695312 17.574219 22.441406 14.628906 C 29.367188 11.605469 33.828125 6.285156 39 0.933594 C 40.664062 -0.789062 40.617188 0.203125 42.960938 1.550781 C 44.507812 2.441406 46.070312 3.5 47.78125 4.019531 Z M 47.78125 4.019531 "/>
<use xlink:href="#surface11" mask="url(#mask2)"/>
<use xlink:href="#surface14" mask="url(#mask3)"/>
<path style=" stroke:none;fill-rule:nonzero;fill:rgb(28.627451%,29.803922%,40.392157%);fill-opacity:1;" d="M 18.328125 14.722656 C 18.054688 14.828125 17.777344 14.929688 17.5 15.03125 C 16.324219 15.457031 14.570312 15.730469 13.738281 16.679688 C 12.054688 18.601562 13.085938 21.890625 13.726562 23.992188 C 16.492188 33.066406 17.738281 42.597656 17.398438 52.070312 C 17.351562 53.328125 17.402344 54.832031 18.472656 55.488281 C 19.03125 55.832031 19.730469 55.839844 20.390625 55.804688 C 22.171875 55.71875 23.949219 55.445312 25.671875 54.992188 C 27.207031 54.589844 28.878906 53.878906 29.414062 52.386719 C 29.691406 51.617188 29.601562 50.765625 29.511719 49.953125 C 28.167969 37.953125 26.808594 25.875 23.292969 14.328125 C 23.566406 13.992188 24.125 13.886719 24.515625 13.621094 C 23.144531 12.519531 20.226562 14.003906 18.328125 14.726562 Z M 18.328125 14.722656 "/>
<path style=" stroke:none;fill-rule:nonzero;fill:rgb(28.627451%,29.803922%,40.392157%);fill-opacity:1;" d="M 10.136719 70.921875 C 10.089844 70.921875 10.046875 70.914062 10 70.898438 C 9.777344 70.824219 9.65625 70.585938 9.730469 70.359375 C 10.402344 68.320312 11.085938 65.925781 11.046875 63.589844 C 11.042969 63.355469 11.234375 63.160156 11.46875 63.15625 L 11.476562 63.15625 C 11.707031 63.15625 11.898438 63.34375 11.902344 63.574219 C 11.941406 66.039062 11.234375 68.519531 10.539062 70.625 C 10.480469 70.804688 10.3125 70.917969 10.136719 70.917969 Z M 10.136719 70.921875 "/>
<path style=" stroke:none;fill-rule:nonzero;fill:rgb(28.627451%,29.803922%,40.392157%);fill-opacity:1;" d="M 12.105469 72.203125 C 12.066406 72.203125 12.03125 72.199219 11.992188 72.1875 C 11.765625 72.128906 11.628906 71.894531 11.691406 71.664062 C 12.371094 69.136719 12.710938 66.527344 12.691406 63.90625 C 12.691406 63.671875 12.882812 63.480469 13.117188 63.476562 L 13.121094 63.476562 C 13.355469 63.476562 13.542969 63.667969 13.546875 63.902344 C 13.5625 66.597656 13.214844 69.285156 12.515625 71.886719 C 12.464844 72.074219 12.292969 72.203125 12.101562 72.203125 Z M 12.105469 72.203125 "/>
<path style=" stroke:none;fill-rule:nonzero;fill:rgb(28.627451%,29.803922%,40.392157%);fill-opacity:1;" d="M 14.578125 72.828125 C 14.554688 72.828125 14.53125 72.828125 14.511719 72.824219 C 14.277344 72.789062 14.117188 72.570312 14.152344 72.335938 C 14.621094 69.320312 14.71875 67.421875 14.542969 64.820312 C 14.527344 64.585938 14.703125 64.382812 14.941406 64.363281 C 15.175781 64.347656 15.378906 64.527344 15.394531 64.761719 C 15.574219 67.433594 15.476562 69.378906 14.996094 72.46875 C 14.964844 72.675781 14.78125 72.828125 14.578125 72.828125 Z M 14.578125 72.828125 "/>
<path style=" stroke:none;fill-rule:nonzero;fill:rgb(28.627451%,29.803922%,40.392157%);fill-opacity:1;" d="M 17.011719 72.980469 C 16.984375 72.980469 16.953125 72.980469 16.925781 72.972656 C 16.695312 72.925781 16.546875 72.703125 16.59375 72.472656 C 17.144531 69.742188 16.984375 66.820312 16.757812 64.847656 C 16.730469 64.613281 16.898438 64.402344 17.132812 64.375 C 17.367188 64.347656 17.578125 64.515625 17.605469 64.75 C 17.84375 66.785156 18.003906 69.800781 17.429688 72.640625 C 17.390625 72.84375 17.210938 72.984375 17.011719 72.984375 Z M 17.011719 72.980469 "/>
<path style=" stroke:none;fill-rule:nonzero;fill:rgb(28.627451%,29.803922%,40.392157%);fill-opacity:1;" d="M 19.554688 72.75 C 19.546875 72.75 19.535156 72.75 19.527344 72.75 C 19.292969 72.734375 19.113281 72.53125 19.128906 72.296875 C 19.285156 69.730469 19.117188 67.144531 18.632812 64.617188 C 18.585938 64.386719 18.738281 64.164062 18.96875 64.117188 C 19.203125 64.074219 19.425781 64.226562 19.46875 64.457031 C 19.964844 67.054688 20.140625 69.710938 19.980469 72.347656 C 19.964844 72.574219 19.777344 72.75 19.554688 72.75 Z M 19.554688 72.75 "/>
<path style=" stroke:none;fill-rule:nonzero;fill:rgb(28.627451%,29.803922%,40.392157%);fill-opacity:1;" d="M 21.992188 72.203125 C 21.984375 72.203125 21.976562 72.203125 21.96875 72.203125 C 21.734375 72.191406 21.554688 71.988281 21.566406 71.753906 C 21.6875 69.5625 21.1875 65.960938 20.476562 63.886719 C 20.398438 63.664062 20.519531 63.421875 20.742188 63.34375 C 20.964844 63.269531 21.207031 63.386719 21.28125 63.613281 C 22.039062 65.808594 22.546875 69.484375 22.417969 71.800781 C 22.40625 72.027344 22.214844 72.203125 21.992188 72.203125 Z M 21.992188 72.203125 "/>
<path style=" stroke:none;fill-rule:nonzero;fill:rgb(28.627451%,29.803922%,40.392157%);fill-opacity:1;" d="M 24.097656 70.753906 C 23.863281 70.753906 23.671875 70.566406 23.667969 70.332031 C 23.640625 67.847656 23.175781 65.40625 22.285156 63.082031 C 22.199219 62.863281 22.3125 62.617188 22.53125 62.53125 C 22.75 62.445312 22.996094 62.558594 23.082031 62.777344 C 24.011719 65.195312 24.496094 67.734375 24.523438 70.324219 C 24.527344 70.558594 24.339844 70.753906 24.101562 70.753906 Z M 24.097656 70.753906 "/>
<path style=" stroke:none;fill-rule:nonzero;fill:rgb(28.627451%,29.803922%,40.392157%);fill-opacity:1;" d="M 26.117188 69.710938 C 25.882812 69.710938 25.691406 69.523438 25.6875 69.289062 C 25.671875 66.886719 24.761719 63.863281 24.078125 61.796875 C 24.003906 61.574219 24.125 61.332031 24.347656 61.257812 C 24.570312 61.1875 24.8125 61.304688 24.886719 61.53125 C 25.589844 63.648438 26.523438 66.757812 26.542969 69.28125 C 26.542969 69.515625 26.355469 69.707031 26.121094 69.710938 Z M 26.117188 69.710938 "/>
<path style=" stroke:none;fill-rule:nonzero;fill:rgb(28.627451%,29.803922%,40.392157%);fill-opacity:1;" d="M 16.636719 59.746094 C 16.59375 59.746094 16.546875 59.738281 16.503906 59.722656 C 16.277344 59.648438 16.15625 59.410156 16.230469 59.183594 C 16.902344 57.148438 17.585938 54.75 17.550781 52.414062 C 17.546875 52.179688 17.734375 51.984375 17.96875 51.980469 L 17.976562 51.980469 C 18.210938 51.980469 18.398438 52.167969 18.402344 52.402344 C 18.441406 54.863281 17.738281 57.347656 17.042969 59.449219 C 16.980469 59.628906 16.816406 59.742188 16.636719 59.742188 Z M 16.636719 59.746094 "/>
<path style=" stroke:none;fill-rule:nonzero;fill:rgb(28.627451%,29.803922%,40.392157%);fill-opacity:1;" d="M 18.605469 61.027344 C 18.570312 61.027344 18.53125 61.023438 18.496094 61.015625 C 18.265625 60.953125 18.132812 60.71875 18.191406 60.492188 C 18.875 57.960938 19.210938 55.351562 19.195312 52.734375 C 19.195312 52.496094 19.382812 52.304688 19.617188 52.304688 L 19.621094 52.304688 C 19.855469 52.304688 20.046875 52.492188 20.046875 52.726562 C 20.0625 55.425781 19.71875 58.109375 19.015625 60.710938 C 18.964844 60.902344 18.792969 61.027344 18.605469 61.027344 Z M 18.605469 61.027344 "/>
<path style=" stroke:none;fill-rule:nonzero;fill:rgb(28.627451%,29.803922%,40.392157%);fill-opacity:1;" d="M 21.078125 61.65625 C 21.058594 61.65625 21.035156 61.652344 21.011719 61.648438 C 20.777344 61.613281 20.621094 61.394531 20.65625 61.164062 C 21.121094 58.144531 21.21875 56.246094 21.042969 53.644531 C 21.027344 53.410156 21.207031 53.207031 21.441406 53.191406 C 21.675781 53.175781 21.878906 53.351562 21.894531 53.585938 C 22.078125 56.261719 21.976562 58.203125 21.5 61.292969 C 21.464844 61.503906 21.285156 61.652344 21.078125 61.652344 Z M 21.078125 61.65625 "/>
<path style=" stroke:none;fill-rule:nonzero;fill:rgb(28.627451%,29.803922%,40.392157%);fill-opacity:1;" d="M 23.515625 61.808594 C 23.484375 61.808594 23.457031 61.804688 23.429688 61.800781 C 23.199219 61.753906 23.050781 61.527344 23.09375 61.296875 C 23.644531 58.570312 23.488281 55.644531 23.261719 53.675781 C 23.234375 53.441406 23.402344 53.230469 23.636719 53.203125 C 23.871094 53.175781 24.082031 53.34375 24.109375 53.578125 C 24.347656 55.609375 24.503906 58.628906 23.933594 61.46875 C 23.890625 61.667969 23.714844 61.808594 23.515625 61.808594 Z M 23.515625 61.808594 "/>
<path style=" stroke:none;fill-rule:nonzero;fill:rgb(28.627451%,29.803922%,40.392157%);fill-opacity:1;" d="M 26.054688 61.574219 C 26.046875 61.574219 26.039062 61.574219 26.03125 61.574219 C 25.792969 61.558594 25.617188 61.359375 25.628906 61.125 C 25.785156 58.554688 25.617188 55.96875 25.132812 53.445312 C 25.089844 53.210938 25.242188 52.988281 25.472656 52.945312 C 25.703125 52.898438 25.925781 53.050781 25.972656 53.28125 C 26.46875 55.878906 26.640625 58.535156 26.480469 61.175781 C 26.464844 61.402344 26.277344 61.574219 26.054688 61.574219 Z M 26.054688 61.574219 "/>
<path style=" stroke:none;fill-rule:nonzero;fill:rgb(28.627451%,29.803922%,40.392157%);fill-opacity:1;" d="M 28.496094 61.027344 C 28.488281 61.027344 28.480469 61.027344 28.472656 61.027344 C 28.238281 61.015625 28.054688 60.816406 28.070312 60.578125 C 28.191406 58.390625 27.691406 54.789062 26.980469 52.714844 C 26.902344 52.492188 27.023438 52.25 27.242188 52.171875 C 27.46875 52.09375 27.707031 52.214844 27.785156 52.4375 C 28.539062 54.636719 29.046875 58.308594 28.921875 60.628906 C 28.90625 60.855469 28.71875 61.03125 28.496094 61.03125 Z M 28.496094 61.027344 "/>
<path style=" stroke:none;fill-rule:nonzero;fill:rgb(28.627451%,29.803922%,40.392157%);fill-opacity:1;" d="M 30.597656 59.582031 C 30.367188 59.582031 30.175781 59.394531 30.171875 59.15625 C 30.144531 56.671875 29.679688 54.234375 28.789062 51.910156 C 28.703125 51.6875 28.8125 51.441406 29.035156 51.359375 C 29.253906 51.273438 29.5 51.382812 29.585938 51.601562 C 30.515625 54.019531 31 56.558594 31.027344 59.148438 C 31.03125 59.382812 30.839844 59.578125 30.605469 59.578125 L 30.601562 59.578125 Z M 30.597656 59.582031 "/>
<path style=" stroke:none;fill-rule:nonzero;fill:url(#linear0);" d="M 21.550781 47.824219 C 20.878906 47.222656 20.292969 46.621094 19.867188 46.078125 C 19.691406 45.863281 19.535156 45.636719 19.394531 45.398438 C 18.710938 47.066406 19.140625 48.980469 20.46875 50.195312 C 20.46875 49.730469 20.875 48.847656 21.550781 47.820312 Z M 21.550781 47.824219 "/>
<path style=" stroke:none;fill-rule:nonzero;fill:url(#linear1);" d="M 22.992188 48.988281 C 22.125 49.863281 21.347656 50.441406 20.890625 50.539062 C 22.359375 51.582031 24.320312 51.605469 25.816406 50.59375 C 25.488281 50.488281 25.121094 50.324219 24.703125 50.097656 C 24.109375 49.765625 23.535156 49.394531 22.992188 48.988281 Z M 22.992188 48.988281 "/>
<path style=" stroke:none;fill-rule:nonzero;fill:url(#linear2);" d="M 23.789062 45.0625 C 24.65625 44.1875 25.433594 43.609375 25.890625 43.511719 C 24.421875 42.46875 22.460938 42.445312 20.96875 43.457031 C 21.292969 43.5625 21.660156 43.726562 22.078125 43.953125 C 22.671875 44.285156 23.246094 44.65625 23.789062 45.0625 Z M 23.789062 45.0625 "/>
<path style=" stroke:none;fill-rule:nonzero;fill:url(#linear3);" d="M 26.3125 43.855469 C 26.3125 44.320312 25.90625 45.203125 25.230469 46.230469 C 25.902344 46.828125 26.488281 47.429688 26.917969 47.972656 C 27.089844 48.191406 27.246094 48.414062 27.386719 48.65625 C 28.066406 46.988281 27.640625 45.074219 26.3125 43.855469 Z M 26.3125 43.855469 "/>
<path style=" stroke:none;fill-rule:nonzero;fill:url(#linear4);" d="M 23.246094 45.644531 C 21.628906 44.464844 20.21875 43.839844 19.914062 44.210938 C 19.566406 44.644531 20.835938 46.253906 22.757812 47.808594 C 23.019531 48.023438 23.28125 48.222656 23.535156 48.410156 Z M 23.246094 45.644531 "/>
<path style=" stroke:none;fill-rule:nonzero;fill:url(#linear5);" d="M 24.773438 46.882812 C 24.585938 47.136719 24.386719 47.398438 24.171875 47.660156 C 23.960938 47.921875 23.746094 48.175781 23.535156 48.410156 C 25.148438 49.585938 26.5625 50.210938 26.863281 49.839844 C 27.167969 49.464844 26.261719 48.214844 24.773438 46.878906 Z M 24.773438 46.882812 "/>
</g>
</svg>
