<?xml version="1.0" encoding="UTF-8"?><svg xmlns="http://www.w3.org/2000/svg" xmlns:xlink="http://www.w3.org/1999/xlink" viewBox="0 0 1364.67 1364.67"><defs><style>.cls-1,.cls-2{fill:none;}.cls-3{fill:#f5c559;}.cls-4{fill:#fff;}.cls-5{fill:#b7eae8;}.cls-6{fill:#a97c50;}.cls-7{fill:#0a0c1b;}.cls-8{opacity:.12;}.cls-8,.cls-9,.cls-10{mix-blend-mode:multiply;}.cls-2{stroke:#221f20;stroke-width:6px;}.cls-11{fill:url(#_6_lpi_50_);mix-blend-mode:overlay;opacity:.35;}.cls-12{isolation:isolate;}.cls-9{opacity:.17;}.cls-10{opacity:.18;}</style><pattern id="_6_lpi_50_" x="0" y="0" width="72" height="72" patternTransform="translate(591.5 1330.16) rotate(-45) scale(23.25 23.2)" patternUnits="userSpaceOnUse" viewBox="0 0 72 72"><g><rect class="cls-1" width="72" height="72"/><g><line class="cls-2" x1="71.75" y1="66" x2="144.25" y2="66"/><line class="cls-2" x1="71.75" y1="42" x2="144.25" y2="42"/><line class="cls-2" x1="71.75" y1="18" x2="144.25" y2="18"/><line class="cls-2" x1="71.75" y1="54" x2="144.25" y2="54"/><line class="cls-2" x1="71.75" y1="30" x2="144.25" y2="30"/><line class="cls-2" x1="71.75" y1="6" x2="144.25" y2="6"/></g><g><line class="cls-2" x1="-.25" y1="66" x2="72.25" y2="66"/><line class="cls-2" x1="-.25" y1="42" x2="72.25" y2="42"/><line class="cls-2" x1="-.25" y1="18" x2="72.25" y2="18"/><line class="cls-2" x1="-.25" y1="54" x2="72.25" y2="54"/><line class="cls-2" x1="-.25" y1="30" x2="72.25" y2="30"/><line class="cls-2" x1="-.25" y1="6" x2="72.25" y2="6"/></g><g><line class="cls-2" x1="-72.25" y1="66" x2=".25" y2="66"/><line class="cls-2" x1="-72.25" y1="42" x2=".25" y2="42"/><line class="cls-2" x1="-72.25" y1="18" x2=".25" y2="18"/><line class="cls-2" x1="-72.25" y1="54" x2=".25" y2="54"/><line class="cls-2" x1="-72.25" y1="30" x2=".25" y2="30"/><line class="cls-2" x1="-72.25" y1="6" x2=".25" y2="6"/></g></g></pattern></defs><g class="cls-12"><g id="Layer_2"><g id="Background"><g id="Bkgd-Stripes"><rect id="Bkgd-Blank" class="cls-5" width="1364.67" height="1364.67"/><rect id="Bkgd-Blank-2" class="cls-11" width="1364.67" height="1364.67"/></g><g id="Logo_Black"><g id="Layer_2-2"><g id="Logos"><path class="cls-7" d="M1022.64,524.17h3.58l16.4,23.31h.2v-23.31h3.54v29.22h-3.58l-16.4-23.31h-.2v23.31h-3.54v-29.22Z"/><path class="cls-7" d="M1051.33,524.17h3.95l11.35,24.67,11.37-24.67h3.93v29.22h-3.54v-22.18h-.2l-10.21,22.18h-2.68l-10.2-22.2h-.2v22.2h-3.56v-29.22Z"/><path class="cls-7" d="M1085.69,546.7l2.93-1.36c.79,3.13,3.65,5.29,6.88,5.19,3.09,0,5.74-1.69,5.74-5.02,0-3.01-2.14-4.33-5.56-5.69l-1.91-.74c-4.28-1.73-6.88-4.12-6.88-7.91,0-4.53,3.67-7.41,8.41-7.41,3.96-.13,7.54,2.34,8.81,6.09l-2.72,1.4c-1.15-2.63-3.05-4.24-6.02-4.24-2.8,0-4.94,1.56-4.94,4.2,0,2.06,1.24,3.67,4.7,5.02l1.98,.78c4.78,1.91,7.78,4.04,7.78,8.52,0,5.4-4.46,8.29-9.39,8.29s-8.82-2.93-9.81-7.13Z"/><path class="cls-7" d="M913.62,538.78c0-8.93,6.88-15.03,15.16-15.03s15.15,6.09,15.15,15.03-6.92,15.04-15.15,15.04-15.16-6.09-15.16-15.04Zm23.59,0c0-5.39-3.83-8.86-8.44-8.86s-8.45,3.46-8.45,8.86,3.83,8.86,8.45,8.86,8.44-3.46,8.44-8.86Z"/><path class="cls-7" d="M970.64,542.7c0,7.46-5.36,11.13-10.2,11.13-3.79,0-6.01-2.06-6.38-2.84h-.12v10.26h-6.38v-29.25h6.38v2.44h.12c.33-.78,2.55-2.84,6.38-2.84,4.82,0,10.2,3.67,10.2,11.12Zm-6.26,0c-.08-2.92-2.51-5.22-5.44-5.14-2.92,.08-5.22,2.51-5.14,5.44,.08,2.87,2.43,5.15,5.31,5.14,2.87,.05,5.23-2.24,5.28-5.11,0-.11,0-.22,0-.33Z"/><path class="cls-7" d="M993.87,545.17h-15.22c.86,2.31,3,3.46,5.85,3.46,1.86,.06,3.67-.53,5.15-1.65l2.88,3.01c-1.77,2.23-4.82,3.83-8.73,3.83-5.93,0-11.28-4.04-11.28-11.08s5.39-11.16,10.91-11.16,11.8,3.79,10.44,13.6Zm-15.36-4.57h9.77c-.46-2.47-2.64-3.67-4.78-3.67-2.32-.11-4.4,1.42-4.99,3.67Z"/><path class="cls-7" d="M1017.73,540.81v12.59h-6.38v-11.48c0-2.68-1.36-4.66-4-4.66s-3.95,1.98-3.95,4.66v11.48h-6.38v-21.42h6.38v2.72c1.19-1.81,3.3-3.13,6.38-3.13,4.28,.02,7.95,2.7,7.95,9.24Z"/><path class="cls-7" d="M992.26,470.89c-4.92-5.28-9.37-10.97-13.31-17.01-1.33-2.07-2.52-4.23-3.54-6.46-7.55,14.13-5.53,31.47,5.06,43.49,.44-4.14,4.85-11.56,11.8-20.02Z"/><path class="cls-7" d="M1003.9,482.54c-8.45,6.96-15.87,11.35-20.02,11.8,12.03,10.59,29.37,12.61,43.5,5.05-3.28-1.53-6.42-3.36-9.37-5.46-4.95-3.48-9.67-7.29-14.12-11.39Z"/><path class="cls-7" d="M1014.61,448.54c8.45-6.95,15.87-11.35,20.02-11.8-12.03-10.59-29.37-12.6-43.5-5.04,3.28,1.53,6.41,3.36,9.37,5.45,4.95,3.48,9.67,7.29,14.12,11.39Z"/><path class="cls-7" d="M1038.05,440.16c-.44,4.14-4.85,11.57-11.8,20.03,4.91,5.28,9.37,10.97,13.31,17.01,1.33,2.07,2.52,4.23,3.54,6.46,7.55-14.14,5.54-31.47-5.06-43.5Z"/><path class="cls-7" d="M1009.25,453.16h0c-13.2-11.92-25.11-18.78-28.13-15.75-3.5,3.51,6.25,18.94,21.79,34.48,2.13,2.13,4.25,4.14,6.34,6.03v-24.76Z"/><path class="cls-7" d="M1021.63,465.54h0c-1.91,2.09-3.9,4.21-6.03,6.34s-4.25,4.14-6.34,6.03c13.2,11.92,25.11,18.78,28.13,15.75s-3.84-14.94-15.76-28.13Z"/></g></g></g></g><g id="Right_base_"><g id="Base"><path class="cls-3" d="M733.18,1135.68c2.35,9.8-4.13,19.54-14.08,21.16-3.89,.63-7.06,1.11-7.83,1.23-16.45,2.47-36.73,4.71-50.19,15.46-3.24,2.59-6.4,5.88-8.79,9.47-2.91,4.37,.99,10.07,6.15,9.1,16.31-3.07,32.52-5.58,48.86-8.81-7.97,6.76-15.81,14.55-23.78,21.31-4.14,3.51-8.34,6.73-11.05,11.53-1.76,3.11-4.99,9.65-3.77,18.01,.63,4.32,5.59,6.51,9.22,4.09,20.85-13.89,40.51-30.53,59.52-46.64-3.93,7.97-7.87,15.94-11.8,23.9-3.15,6.39-5.76,10.87-6.33,17.95-.38,4.77-.1,9.06,1.14,13.24,1.17,3.92,5.93,5.45,9.23,3.04,3.47-2.54,6.71-5.26,9.58-8.67,4.52-5.37,9.05-11.76,12.37-17.96,5.24-9.78,13.58-26.21,19.81-36.51,4.36-7.21,7.31-15.17,8.33-23.53l7.73-147.83-83.93-2.84s20.59,85.74,29.61,123.3Z"/><path class="cls-6" d="M608.32,885.18c.59,3.17-19.27,10-22.13,10.89-21.09,6.53-57.06,8.86-79.97,7.67-16.38-.86-58.63-7.85-67.62-23.78,7.25-2.22,14.85-3.73,22.29-5.45-4.57,1.06-24.07-1.79-28.89-3.03-22.43-5.75-42.34-20.42-52.38-43.33-1.51-3.45-2.85-7.39-1.68-10.94,1.24-3.77,5.08-5.94,8.8-6.19,5.47-.37,10.21,.53,15.64-.42-9.4-5.5-18.46-12.89-21.7-24.35-.95-3.35-1.13-7.62,1.49-9.61,2.49-1.88,37.75-16.06,72.41-30.36,18.89-7.8,45.01-19.98,62.98-31.93,3.32-2.21,11.8,33.1,13.7,36.26,5.51,9.18,10.81,18.52,16.06,27.88,11.68,20.84,23.07,51.89,34.22,73.06,4.3,8.16,25.05,24.31,26.78,33.66Z"/><path class="cls-10" d="M608.32,885.18c.59,3.17-19.27,10-22.13,10.89-21.09,6.53-57.06,8.86-79.97,7.67-16.38-.86-58.63-7.85-67.62-23.78,7.25-2.22,14.85-3.73,22.29-5.45-4.57,1.06-24.07-1.79-28.89-3.03-22.43-5.75-42.34-20.42-52.38-43.33-1.51-3.45-2.85-7.39-1.68-10.94,1.24-3.77,5.08-5.94,8.8-6.19,5.47-.37,10.21,.53,15.64-.42-9.4-5.5-18.46-12.89-21.7-24.35-.95-3.35-1.13-7.62,1.49-9.61,2.49-1.88,37.75-16.06,72.41-30.36,18.89-7.8,45.01-19.98,62.98-31.93,3.32-2.21,11.8,33.1,13.7,36.26,5.51,9.18,10.81,18.52,16.06,27.88,11.68,20.84,23.07,51.89,34.22,73.06,4.3,8.16,25.05,24.31,26.78,33.66Z"/><path class="cls-3" d="M915.38,1144.63l34.2-154.66-95.72-6.19,18.37,159.26c.37,12.11-2.54,24.09-8.44,34.68-6.86,12.31-13.71,24.62-20.83,36.77-4.7,8.03-8.09,16.23-9.5,25.18-.71,4.5,3.39,8.26,7.81,7.17,1.57-.39,2.8-.71,3.12-.84,4.04-1.59,7.84-3.83,11.17-6.62,4.23-3.54,6.44-7.66,9.19-12.34,4.45-7.56,8.9-15.12,13.36-22.68,.59,7.09,1.17,14.17,1.76,21.26,1.09,13.24,1.78,29.14,10.03,40.35,2.9,3.95,9.03,3.35,10.96-1.15,7.18-16.75,3.75-42.79,2.01-63.9-.01-.16,7.74,9.82,11.79,16.84,3.74,6.49,7.28,13.72,12.92,18.82,3.02,2.73,6.52,5.1,10.2,7.09,4.41,2.38,9.72-1.05,9.36-6.04-.1-1.38-.18-2.42-.2-2.69-.65-9.98-4.61-19.1-9.54-27.66l-16.89-29.3c-5.81-10.09-7.65-21.99-5.13-33.35Z"/><path class="cls-8" d="M745.3,1071.65c9.95,2.09,20.83,2.85,30.85,1.06,10.17-1.81,8.8-8.99,9.28-18.09,.69-13.13,1.37-26.27,2.06-39.4,0,0-83.88-2.83-83.92-2.83l10.45,43.46c3.89,9.3,21.37,13.63,30.27,15.59,.33,.07,.67,.15,1.01,.22Z"/><path class="cls-8" d="M900.13,1073.32c7.84-1.64,15.44-4.44,22.44-8.32,4.17-2.31,10.15-5.28,12.51-9.43,0,0,11.14-50.39,14.5-65.6l-95.72-6.19c2.83,24.57,5.67,49.14,8.5,73.7,.73,6.3-.45,13.05,5.58,15.99s16.92,1.82,23.44,1.18c2.93-.29,5.85-.74,8.74-1.34Z"/><path class="cls-6" d="M1077.99,818.92c-16.97-135.61-111.82-234.12-241.36-270.21-26.77-7.46-54.16-17.04-74.57-36.71s-29.14-54.86-49.02-74.85c-26.48-26.62-63.16-42.64-100.79-43.13-79.63-1.04-145.02,62.67-146.06,142.3-.54,41.51,21.33,86.63,27.9,126.86,8.08,49.45,21.43,107.67,33.19,156.26,26.73,110.49,119.12,196.64,229.88,219.54,59.81,12.37,122.24,11.72,180.43-6.66,53.77-16.98,107.47-49.62,129.23-105.43,12.91-33.12,15.87-70.36,11.16-107.99Z"/><path class="cls-8" d="M1058.78,944.06c6.47-12.2,10-20.89,13.78-34.33-26.62,28.72-65.55,44.93-103.73,53.46-40.81,9.12-78.51,10.62-120.01,7.73-27.37-1.91-54.58-6.05-81.27-12.4-13.67-3.25-27.2-7.09-40.55-11.5-5.11-1.7-10.03-3.91-15.02-5.94s-9.89-3.64-14.77-6.07c1.88,3.78,3.28,7.8,4.16,11.92,.31,1.44,.48,3.15-.56,4.2-1.04,1.04-2.74,.87-4.17,.56-18.85-3.98-31.13-18.9-43.51-32.43,2.29,2.5,5.25,11.59,5.31,14.83,.2,14.17-13.66,4.81-19.18,.82-8.33-6.01-14.96-13.96-22.37-21.07-32.61-31.28-61.41-60.76-93.74-111.89,3.97,16.77,7.95,33.4,13.99,49.59,35.39,94.88,121.1,166.98,220.05,187.45,59.81,12.37,122.24,11.72,180.43-6.66,24.45-7.72,48.21-18.36,69.37-32.93,10.8-7.43,20.86-15.94,29.89-25.46,7.82-7.82,16.83-20.3,21.91-29.89Z"/><path class="cls-3" d="M587.91,545.6c-2.84-13.22-15.85-21.64-29.07-18.8-66.79,14.32-119.49,27.07-184.32,48.45-67.41,22.23-97.17,50.91-109.23,66.75-2.82,3.71,.98,8.81,5.34,7.17,26.21-9.87,52.03-20.79,78.71-29.37,37.12-11.94,176.78-39.02,216.67-44.65,14.47-2.04,25.08-15.25,21.91-29.53Z"/><path class="cls-6" d="M570.1,421.77c12.28-20.87,17.39-39.94,12.77-63.75-.31-1.57-.55-3.47,.63-4.55,.87-.79,2.17-.8,3.33-.67,5.52,.61,10.76,3.5,14.21,7.86,6.56,8.26,5.51,16,3.82,23.91,5.93-5.84,9.43-14.1,13.92-23.47,.4-.83,.83-1.7,1.58-2.24,2.11-1.51,4.97,.5,6.5,2.6,7.77,10.63,6.53,25.13-2.4,34.48-5.52,5.77-12.3,10.15-19.01,14.47"/></g><g id="Right_wing"><path class="cls-9" d="M789.19,760.81c-12.44,1.61-26.23,3.32-38.2,6.53-5.4,1.45-4.65,2.13-3.08,8.29,5.31,20.88,22.06,40.89,37.04,56.12,17.1,17.39,33.52,23.26,56.62,31.13,25.68,8.76,57.75,12.73,84.16,4.84,2.75-.82,5.62-1.9,7.37-4.18,2.42-3.15,.35-5.94-1.06-9.62,9.65,1.06,20.68-.54,29.07-3.64,8.67-3.2,14.87-6.73,22.14-12.52,5.46-4.34,9.73-10.17,10.79-17.18,.56-3.69-.33-6.45-1.95-9.83-.93-1.94-3.99-8.65-6.28-9.16,3.05,.68,6.02-2.09,6.66-5.15s-.42-6.2-1.62-9.09c-6.16-14.88-11.31-19.84-20.15-33.15-8.81-13.26-17.23-28.24-28.08-43.78-1.49-2.13-1.24,.22-3.54-.97-5.75-2.97-10.43,2.28-15.09,4.68-5.48,2.83-11.69,4.95-17.34,7.6-13.61,6.38-27.2,12.82-41.01,18.75-11.41,4.91-22.71,10.69-34.9,12.7-13.91,2.29-27.53,5.8-41.57,7.62Z"/><path class="cls-6" d="M739.67,768.85c19.28,24.43,42.08,46.58,69.38,61.51,15.74,8.61,32.98,14.66,50.77,17.16,8.37,1.18,16.87,1.4,25.3,.81,4.29-.3,8.56-.79,12.81-1.44,3.71-.57,7.76-.96,11.01-2.99,1.1-.69,1.93-1.99,1.65-3.26-.25-1.15-1.29-1.94-2.26-2.62-4.8-3.38-9.98-6.53-14.49-10.28,2.36-.65,6.19,1.3,8.63,1.86,3.38,.78,6.81,1.37,10.26,1.78,6.7,.79,13.5,.88,20.21,.22,13.39-1.32,26.52-5.67,37.68-13.25,2.4-1.63,4.97-4.02,4.52-6.89-.31-1.98-1.99-3.42-3.55-4.68-8.02-6.45-16.48-12.43-23.66-19.85,7.09,4.26,9.86,5.14,12.13,6,4.9,1.85,18.66,6.04,17.8-3.06-.18-1.93-1.03-3.72-1.87-5.46-6.13-12.62-12.22-26.74-18.9-39.41-7.45-14.13-12.83-25.92-15.48-41.52"/></g></g><g id="Eyes"><g id="Eye-Sparkle"><path d="M535.82,494.5c0,11.13-3.41,23.12-15.88,23.26-14.09,.16-16.39-12.14-16.39-22.9s2.75-23.12,15.88-23.26c12.95-.15,16.39,12.12,16.39,22.9Z"/><path d="M648.85,494.5c0,11.13-3.41,23.12-15.88,23.26-14.09,.16-16.39-12.14-16.39-22.9s2.75-23.12,15.88-23.26c12.95-.15,16.39,12.12,16.39,22.9Z"/><path class="cls-4" d="M638.03,505.69c-1.27-13.8-3.71-16.25-17.39-17.42-.83-.07-.84-1.29,0-1.36,13.69-1.3,16.17-3.72,17.4-17.23,.08-.83,1.29-.83,1.36,0,1.2,13.57,3.67,16,17.39,17.26,.83,.08,.83,1.29,0,1.36-13.76,1.21-16.2,3.65-17.4,17.39-.07,.83-1.29,.83-1.36,0Z"/><path class="cls-4" d="M525,505.69c-1.27-13.8-3.71-16.25-17.39-17.42-.83-.07-.84-1.29,0-1.36,13.69-1.3,16.17-3.72,17.4-17.23,.08-.83,1.29-.83,1.36,0,1.2,13.57,3.67,16,17.39,17.26,.83,.08,.83,1.29,0,1.36-13.76,1.21-16.2,3.65-17.4,17.39-.07,.83-1.29,.83-1.36,0Z"/><path class="cls-4" d="M626.33,512.91c-.76-8.24-2.21-9.7-10.37-10.39-.5-.04-.5-.77,0-.81,8.17-.77,9.65-2.22,10.38-10.28,.05-.5,.77-.49,.81,0,.72,8.1,2.19,9.55,10.38,10.3,.5,.05,.49,.77,0,.81-8.21,.72-9.67,2.18-10.38,10.37-.04,.5-.77,.5-.81,0Z"/><path class="cls-4" d="M513.3,512.91c-.76-8.24-2.21-9.7-10.37-10.39-.5-.04-.5-.77,0-.81,8.17-.77,9.65-2.22,10.38-10.28,.05-.5,.77-.49,.81,0,.72,8.1,2.19,9.55,10.38,10.3,.5,.05,.49,.77,0,.81-8.21,.72-9.67,2.18-10.38,10.37-.04,.5-.77,.5-.81,0Z"/></g></g></g></g></svg>