<?xml version="1.0" encoding="UTF-8"?><svg id="Layer_2" xmlns="http://www.w3.org/2000/svg"><defs><style>.gls-2{opacity:.21;}.gls-2,.gls-3{fill:#fff;}.gls-3{opacity:.36;}</style></defs><g id="Glasses"><g id="Glasses-Rectangle"><rect class="gls-2" x="5" y="5" width="87.1" height="57.19" rx="11.24" ry="11.24"/><rect class="gls-2" x="118.49" y="5" width="87.1" height="57.19" rx="11.24" ry="11.24"/><polygon class="gls-3" points="120.02 56.61 154.79 5 175.55 5 137.29 62.19 124.95 61.12 120.02 56.61"/><polygon class="gls-3" points="171.03 62.19 205.59 16.24 205.59 56.5 198.7 62.19 171.03 62.19"/><polygon class="gls-3" points="12.24 62.19 52.42 3.79 83.34 5.27 42.46 62.19 12.24 62.19"/><path class="gls-1" d="M80.86,67.19H16.24C7.29,67.19,0,59.91,0,50.95V16.24C0,7.29,7.29,0,16.24,0H80.86c8.96,0,16.24,7.29,16.24,16.24V50.95c0,8.96-7.29,16.24-16.24,16.24ZM16.24,10c-3.44,0-6.24,2.8-6.24,6.24V50.95c0,3.44,2.8,6.24,6.24,6.24H80.86c3.44,0,6.24-2.8,6.24-6.24V16.24c0-3.44-2.8-6.24-6.24-6.24H16.24Z"/><path class="gls-1" d="M194.35,67.19h-64.62c-8.96,0-16.24-7.29-16.24-16.24V16.24c0-8.96,7.29-16.24,16.24-16.24h64.62c8.96,0,16.24,7.29,16.24,16.24V50.95c0,8.96-7.29,16.24-16.24,16.24ZM129.73,10c-3.44,0-6.24,2.8-6.24,6.24V50.95c0,3.44,2.8,6.24,6.24,6.24h64.62c3.44,0,6.24-2.8,6.24-6.24V16.24c0-3.44-2.8-6.24-6.24-6.24h-64.62Z"/><path class="gls-1" d="M115.19,40.85c-2.42-2.9-6.28-4.72-10.06-4.75-3.78-.05-7.66,1.73-10.13,4.59l-7.57-6.53c4.4-5.1,11.02-8.11,17.78-8.06,6.74,.05,13.33,3.17,17.65,8.34l-7.67,6.41Z"/></g></g></svg>
