<?xml version="1.0" encoding="UTF-8"?><svg id="Layer_2" xmlns="http://www.w3.org/2000/svg"><defs><style>.gls-2{fill:none;stroke:#e9ebf9;stroke-miterlimit:10;stroke-width:4px;}.gls-3{opacity:.7;}.gls-4{fill:#fff;opacity:.41;}</style></defs><g id="Glasses"><g id="Glasses-Heart"><g id="Kl0ORQ" class="gls-3"><path class="gls-1" d="M163.79,76.01c-3.51,2.65-8.34,2.65-11.85,0-10.47-7.9-31.66-25.2-37.17-39.58-9.51-27.03,21.05-45.39,39.04-27.04,2.24,2.29,5.88,2.29,8.13,0,17.99-18.36,48.55,0,39.04,27.04-5.51,14.38-26.7,31.68-37.17,39.58Z"/></g><g id="Kl0ORQ-2" class="gls-3"><path class="gls-1" d="M52.82,76.01c-3.51,2.65-8.34,2.65-11.85,0-10.47-7.9-31.66-25.2-37.17-39.58C-5.72,9.4,24.84-8.96,42.83,9.4c2.24,2.29,5.88,2.29,8.13,0,17.99-18.36,48.55,0,39.04,27.04-5.51,14.38-26.7,31.68-37.17,39.58Z"/></g><polygon class="gls-4" points="127.3 54.4 175.39 2.27 182.3 2.27 191.7 5.86 200.88 16.85 147.13 72.29 127.3 54.4"/><polygon class="gls-4" points="32.36 69.22 86.66 10.31 90.84 21.11 39.54 74.93 32.36 69.22"/><polygon class="gls-4" points="10.07 47.07 42.83 9.4 46.89 11.12 57.09 4.74 66.74 2.03 18.28 56.42 10.07 47.07"/><g id="Kl0ORQ-3"><path class="gls-2" d="M163.79,76.01c-3.51,2.65-8.34,2.65-11.85,0-10.47-7.9-31.66-25.2-37.17-39.58-9.51-27.03,21.05-45.39,39.04-27.04,2.24,2.29,5.88,2.29,8.13,0,17.99-18.36,48.55,0,39.04,27.04-5.51,14.38-26.7,31.68-37.17,39.58Z"/></g><g id="Kl0ORQ-4"><path class="gls-2" d="M52.82,76.01c-3.51,2.65-8.34,2.65-11.85,0-10.47-7.9-31.66-25.2-37.17-39.58C-5.72,9.4,24.84-8.96,42.83,9.4c2.24,2.29,5.88,2.29,8.13,0,17.99-18.36,48.55,0,39.04,27.04-5.51,14.38-26.7,31.68-37.17,39.58Z"/></g><path class="gls-2" d="M92.03,29.68c6.58-5.25,14.84-5.18,21.33,.18"/></g></g></svg>
