<?xml version="1.0" encoding="UTF-8"?><svg id="Layer_2" xmlns="http://www.w3.org/2000/svg"><defs><style></style></defs><g id="Glasses"><g id="Glasses-Shutter"><g><path class="gls-1" d="M157.04,78.05c-10.62,0-21.17-2.57-27.84-7.24-8.95-6.26-14.42-16.28-19.24-26l-.15-.31c-3.61-7.27-7.35-14.79-7.36-23.44-.01-10.21,5.71-16.88,16.13-18.78C131.45-.06,144.99-.59,159.97,.65c1.1,.09,2.21,.17,3.33,.25,7.72,.57,15.71,1.15,22.8,4.93,9,4.8,9.9,16.73,10.56,25.44l.1,1.26c.51,6.52,.7,18.88-3.8,28.32-3.49,7.33-10.75,12.63-20.99,15.34-4.71,1.24-9.83,1.84-14.94,1.84Zm-41.71-35.91c4.67,9.4,9.5,18.3,17.31,23.75,8.44,5.9,25.05,7.89,37.81,4.52,5.91-1.56,13.68-4.93,17.1-12.12,3.9-8.19,3.7-19.35,3.23-25.28l-.1-1.28c-.56-7.32-1.31-17.35-7.41-20.6-5.97-3.19-13.31-3.72-20.41-4.24-1.14-.08-2.27-.17-3.39-.26-14.45-1.2-27.48-.69-39.83,1.56-7.55,1.37-11.22,5.58-11.21,12.86,.01,7.24,3.43,14.12,6.73,20.78l.15,.31Z"/><rect class="gls-1" x="105.44" y="12.71" width="86.97" height="6"/><rect class="gls-1" x="105.44" y="24.38" width="86.97" height="6"/><rect class="gls-1" x="110.48" y="36.06" width="81.93" height="6"/><rect class="gls-1" x="116.41" y="47.74" width="76" height="6"/><rect class="gls-1" x="124.36" y="59.42" width="64.24" height="6"/></g><g><path class="gls-1" d="M39.98,78.05c-5.11,0-10.23-.6-14.94-1.84-10.24-2.71-17.5-8.01-20.99-15.34C-.44,51.42-.25,39.07,.26,32.55l.1-1.26C1.01,22.57,1.92,10.64,10.92,5.84,18.01,2.06,25.99,1.47,33.71,.91c1.12-.08,2.23-.16,3.33-.25,14.98-1.25,28.52-.71,41.4,1.63,10.42,1.9,16.14,8.57,16.13,18.78-.01,8.65-3.75,16.17-7.36,23.44l-.15,.31c-4.83,9.72-10.29,19.74-19.24,26-6.67,4.67-17.23,7.24-27.84,7.24ZM52.22,6c-4.74,0-9.62,.21-14.68,.63-1.12,.09-2.25,.18-3.39,.26-7.1,.52-14.44,1.06-20.41,4.24-6.09,3.25-6.85,13.28-7.4,20.6l-.1,1.28c-.46,5.93-.66,17.09,3.23,25.28,3.42,7.18,11.19,10.55,17.1,12.12,12.76,3.37,29.37,1.39,37.81-4.52,7.8-5.46,12.64-14.35,17.31-23.75l.15-.31c3.3-6.65,6.72-13.54,6.73-20.78,.01-7.28-3.65-11.49-11.21-12.86-8.03-1.46-16.34-2.19-25.15-2.19Z"/><rect class="gls-1" x="4.61" y="12.71" width="86.97" height="6"/><rect class="gls-1" x="4.61" y="24.38" width="86.97" height="6"/><rect class="gls-1" x="4.61" y="36.06" width="81.93" height="6"/><rect class="gls-1" x="4.61" y="47.74" width="76" height="6"/><rect class="gls-1" x="8.42" y="59.42" width="64.24" height="6"/></g><path class="gls-1" d="M113.43,5.96c-2.12,1.79-4.12,4.32-5.24,5.9-2.92,4.12-5.29,11.92-4.77,16.84-.56-3.76-1.98-6.37-4.87-6.3-3.13,.08-4.44,2.8-4.94,5.98-.2-5.54-1.78-10.05-3.55-15.11-1.11-3.19-8.1-8.41-10.5-10.7,10.38,1.27,28.24,2.33,40.38-.42-1.21,.19-5.24,2.73-6.51,3.81Z"/></g></g></svg>
