<?xml version="1.0" encoding="UTF-8"?><svg xmlns="http://www.w3.org/2000/svg"><defs><style>.gls-1{fill:#414042;}.gls-2{isolation:isolate;}.gls-3{mix-blend-mode:multiply;opacity:.3;}</style></defs><g class="gls-2"><g id="Layer_2"><g id="Glasses"><g id="Glasses-Eyepatch2"><path class="gls-1" d="M161.71,55.89l-1.22-13.03c-.1-1.07,.68-2,1.74-2.12,20.36-2.24,40.92-9.84,62.75-23.19,.92-.56,2.12-.29,2.69,.62l6.92,11.11c.57,.92,.29,2.14-.64,2.71-24.12,14.77-47.09,23.18-70.09,25.67-1.08,.12-2.05-.69-2.15-1.77Z"/><path class="gls-1" d="M158.82,28.9c3.33,.8,6.58,1.69,9.7,2.67,6.44,2.02,12.75,5.43,16.47,11.03,4.34,6.53,4.48,15.14,2.22,22.64-7.56,25.12-31.61,39.89-57.63,35.71-15.69-2.52-27.28-10.61-34.26-24.31-9.7-19.04-9.82-44.04,14.25-49.52,15.36-3.5,33.31-2.02,49.25,1.79Z"/><path class="gls-3" d="M184.98,42.6c4.39,6.5,4.48,15.14,2.22,22.64-7.56,25.12-31.61,39.89-57.63,35.71-7.57-1.22-19.82-5.47-26.08-12.8,9.61,.86,20.03,1.42,29.57-.07,10.16-1.59,20.17-4.41,27.32-12.18,11.61-12.63,13.12-29.26,6.8-44.72,0,0,11.62,2.29,17.8,11.43Z"/><path class="gls-1" d="M97.32,51.13C71.75,48.49,20.03,30.67,.62,12.52c-.82-.76-.83-2.06-.02-2.84L9.98,.55c.75-.73,1.92-.74,2.69-.04,7.28,6.63,22.09,14.52,40.25,21.39,16.82,6.36,34.47,11.08,45.79,12.28,1.05,.11,1.82,1.03,1.74,2.09l-.98,13.05c-.08,1.1-1.05,1.92-2.15,1.8Z"/></g></g></g></g></svg>
