<?xml version="1.0" encoding="UTF-8"?><svg xmlns="http://www.w3.org/2000/svg" xmlns:xlink="http://www.w3.org/1999/xlink"><defs><style>.gls-2{fill:#61647d;}.gls-3{fill:#494c67;}.gls-4{fill:#fff;mix-blend-mode:overlay;}.gls-5{isolation:isolate;}.gls-6{mix-blend-mode:multiply;opacity:.15;}</style><linearGradient id="linear-gradient" x1="157.64" y1="130.8" x2="77.52" y2="-7.98" gradientUnits="userSpaceOnUse"><stop offset="0" stop-color="#14d1df"/><stop offset="1" stop-color="#85d9a5"/></linearGradient></defs><g class="gls-5"><g id="Layer_2"><g id="Glasses"><g id="Glasses-Ski"><path class="gls-6" d="M215.11,73.92c-9.71,2.74-19.43,5.48-29.14,8.21-8.64,2.43-17.51,4.89-26.44,4.08-24.3-2.21-43.11-27.74-67.42-25.69-10.99,.93-20.62,7.5-29.31,14.29-8.69,6.79-17.36,14.2-27.93,17.33-6.12,1.82-13.03,1.8-19.02-.5-4.63-1.77-12.13-7.53-10.11,2.21,1.42,6.87,5.2,13.38,10.22,18.67,25.34-6.31,51.22-12.12,79.64-18.22,13.22-2.84,26.24,5.58,29.07,18.8,.33,1.48,.5,2.94,.55,4.38,2.37,3.01,4.99,5.78,8.09,8.02,14.07,10.17,40.39,8.78,56.14,3.63,12.62-4.13,23.63-12.52,31.79-22.91,4.05-5.16,7.39-10.74,9.65-16.87,2.71-7.34,12.63-8.56,19.26-9.6,9.31-1.47,18.1-3.45,26.95-6.86,2.15-.83,4.42-1.8,5.65-3.74,1.4-2.2,1.06-5.16-.18-7.46-3.49-6.51-6.59-4.92-12.7-3.2s-12.57,3.54-18.85,5.31c-11.97,3.37-23.94,6.75-35.9,10.12Z"/><path class="gls-3" d="M269.99,33.11c3.34-.07,5.08,2,6.55,4.61,3.52,6.25,13.84,20.67,12.14,26.03-1.56,4.95-11.02,6.55-15.67,7.84-16.76,4.64-33.74,7.41-52.09,8.82-4.21,.32,.78-42.25,3.29-42.73,7.34-1.41,40.41-4.45,45.78-4.57Z"/><path id="glasses-fill" class="gls-1" d="M72.44,99.33c1.84-9.99,9.66-18.64,19.32-21.76s20.95-.53,28.28,6.49c9.36,8.96,12.46,24.09,23.97,30.03,5.45,2.81,11.85,2.97,17.98,2.72,11.8-.48,23.86-2.33,34.09-8.22,9.91-5.71,17.5-14.94,22.4-25.27s7.23-21.72,8.14-33.12c.63-7.93,.33-16.66-4.82-22.73-3.86-4.56-9.77-6.75-15.45-8.59C152.24,1.34,92.62-.46,38.47,17c-10.03,3.24-20.46,7.57-26.45,16.25-4.63,6.71-5.94,15.13-6.46,23.26-.65,10.18-.2,20.61,3.28,30.19s10.41,18.7,19.8,22.68l43.8-10.05Z"/><path class="gls-4" d="M161.4,8.88c12.42,1.53,28.81,5.87,40.83,9.33,0,0-59.91,94.21-62.35,94.01-2.18-.18-5.49-6.11-6.65-7.95-7.77-12.29-18.39-23.71-17.13-25.55,3.08-4.52,45.31-69.84,45.31-69.84Z"/><path class="gls-4" d="M73.77,11.42c7.57-5.44,17.36-6.43,26.64-7.24-21.6,29.97-67.83,103.29-67.83,103.29-6.21,.82-15.95-4.96-13.28-11.12,3.52-8.08,48.97-80.98,54.47-84.93Z"/><path class="gls-2" d="M110.67,11c24.99,0,53.73,3.31,78.86,9.08,1.87,.43,3.84,.82,5.74,1.2,10.64,2.13,18.36,4.04,20.73,9.17,8.51,18.39,2.63,52.19-11.45,65.75-10.06,9.69-24.68,15.21-41.16,15.54-.85,.02-1.74,.03-2.67,.03-11.19,0-15.03-1.94-16.16-2.77-3.36-2.47-5.67-6.75-8.35-11.71-3.82-7.08-8.58-15.89-18.33-21.27-5.56-3.07-11.74-4.69-17.87-4.69-11.21,0-20.81,5.35-26.34,14.68-2.81,4.74-4.97,9.72-7.37,14.67l13.26-2.9s2.23-3.89,3.57-6.15c3.81-6.43,10.2-9.29,16.88-9.29,4.27,0,8.65,1.17,12.55,3.32,12.94,7.14,13.99,23.75,25.46,32.2,5.73,4.22,15.24,4.92,22.69,4.92,1,0,1.97-.01,2.89-.03,17.61-.35,35.63-6.15,48.57-18.62,17.75-17.1,24.16-55.91,13.8-78.29-5.76-12.44-22.35-13.8-33.99-16.48C167.75,3.79,138.45,0,110.67,0c-14.33,0-28.26,1.01-40.88,3.3-12.53,2.28-50.19,13.29-58.94,22.04S.33,49.52,.04,62.19c-.3,13.31,.92,30.43,10.34,39.78,4.89,4.86,9.43,8.4,13.59,8.58l13.53-3.2s-3.26-1.07-4.41-1.54c-5.95-2.4-10.25-6.29-14.42-11.07-5.26-6.03-7.97-17.5-7.63-32.31,.21-9.54,1.24-22.96,7.59-29.31,1.5-1.5,8.22-5.48,23.84-10.82,11.68-4,23.58-7.14,29.29-8.18,11.41-2.08,24.5-3.13,38.91-3.13"/></g></g></g></g></svg>
