<?xml version="1.0" encoding="UTF-8"?><svg xmlns="http://www.w3.org/2000/svg"><defs><style>.gls-1{fill:#e9ebf9;}.gls-4,.gls-3{opacity:.71;}.gls-5{isolation:isolate;}.gls-6{fill:#fff;mix-blend-mode:overlay;opacity:.4;}</style></defs><g class="gls-5"><g id="Layer_2"><g id="Glasses"><g id="Glasses-ColorRound"><ellipse class="gls-3" cx="154.43" cy="37.19" rx="37.95" ry="35.64"/><polygon class="gls-6" points="143.6 70.79 184.53 15.48 190.57 27.29 156.81 72.83 143.6 70.79"/><g class="gls-4"><ellipse class="gls-2" cx="39.04" cy="37.19" rx="37.95" ry="35.64"/></g><path class="gls-6" d="M43.97,1.58c-3.19,1.93,8.51,.45,11.68,2.41s5.64,4.86,8.05,7.71c-12.37,19.8-39.6,56.07-39.6,56.07-1.97,2.18-16.49-9.98-16.95-11.66C7.15,56.11,45.69,.54,43.97,1.58Z"/><polygon class="gls-6" points="119.3 52.78 154.43 1.54 165.72 3.57 126.66 61.47 119.3 52.78"/><path class="gls-1" d="M39.3,74.37C17.63,74.37,0,57.69,0,37.19S17.63,0,39.3,0s39.3,16.68,39.3,37.19-17.63,37.19-39.3,37.19Zm0-70.79C19.37,3.58,3.16,18.66,3.16,37.19s16.21,33.6,36.14,33.6,36.14-15.08,36.14-33.6S59.23,3.58,39.3,3.58Z"/><path class="gls-1" d="M154.43,74.37c-21.67,0-39.3-16.68-39.3-37.19S132.76,0,154.43,0s39.3,16.68,39.3,37.19-17.63,37.19-39.3,37.19Zm0-70.79c-19.93,0-36.14,15.08-36.14,33.61s16.21,33.6,36.14,33.6,36.14-15.08,36.14-33.6S174.36,3.58,154.43,3.58Z"/><path class="gls-1" d="M116.48,43.09c-2.87-6.59-11.2-11.47-18.81-11.89-7.86-.43-15.69,3.04-19.92,9.82l-.98-.81c-.91-.75-1.11-2.09-.42-3.05,4.76-6.59,12.62-10.17,21.45-9.69,8.62,.48,16.26,4.9,19.96,11.43,.5,.88,.41,1.97-.21,2.77l-1.08,1.42Z"/></g></g></g></g></svg>
