<?xml version="1.0" encoding="UTF-8"?><svg id="Layer_2" xmlns="http://www.w3.org/2000/svg"><defs><style>.gls-1,.gls-2,.gls-3{fill:#fff;}.gls-2,.gls-5{opacity:.2;}.gls-3{opacity:.36;}</style></defs><g id="Glasses"><g id="Glasses-Round"><polygon class="gls-3" points="148.86 72.41 188.44 18.93 194.49 30.75 160.72 76.28 148.86 72.41"/><g class="gls-5"><ellipse class="gls-1" cx="42.95" cy="40.64" rx="37.95" ry="35.64"/></g><ellipse class="gls-2" cx="158.35" cy="40.64" rx="37.95" ry="35.64"/><path class="gls-3" d="M47.89,5.04c-3.19,1.93,8.51,.45,11.68,2.41s5.64,4.86,8.05,7.71c-12.37,19.8-39.6,56.07-39.6,56.07-1.97,2.18-16.49-9.98-16.95-11.66,0,0,38.54-55.57,36.82-54.53Z"/><path class="gls-4" d="M42.95,81.28C19.27,81.28,0,63.05,0,40.64S19.27,0,42.95,0s42.95,18.23,42.95,40.64-19.27,40.64-42.95,40.64Zm0-71.28c-18.17,0-32.95,13.75-32.95,30.64s14.78,30.64,32.95,30.64,32.95-13.75,32.95-30.64S61.12,10,42.95,10Z"/><polygon class="gls-3" points="123.21 56.24 158.35 5 169.63 7.02 130.57 64.92 123.21 56.24"/><path class="gls-4" d="M116.18,46.9c-3.31-5.17-9.22-8.44-15.81-8.74-6.53-.3-12.42,2.27-16.15,7.07l-7.89-6.14c5.67-7.28,14.83-11.36,24.5-10.91,9.83,.46,18.72,5.44,23.77,13.34l-8.42,5.39Z"/><path class="gls-4" d="M158.35,81.28c-23.68,0-42.95-18.23-42.95-40.64S134.66,0,158.35,0s42.95,18.23,42.95,40.64-19.27,40.64-42.95,40.64Zm0-71.28c-18.17,0-32.95,13.75-32.95,30.64s14.78,30.64,32.95,30.64,32.95-13.75,32.95-30.64-14.78-30.64-32.95-30.64Z"/></g></g></svg>
