<?xml version="1.0" encoding="UTF-8"?><svg id="Layer_2" xmlns="http://www.w3.org/2000/svg"><defs><style>.gls-2{fill:#414042;}</style></defs><g id="Glasses"><g id="Glasses-Sun"><g id="E1r0Pi"><path id="glasses-fill" class="gls-1" d="M208.1,31.01c-.34,11.58-1.61,21.33-7.6,29.63-9.36,12.97-22.76,17.03-37.84,14.93-23.14-3.23-43.35-23.11-47.87-46.03-.44-2.25-.48-4.59-.7-6.88-.52-5.44-4.12-8.47-10.06-8.47-5.92,0-9.66,3.05-10.06,8.45-1.58,21.3-13.06,36.29-30.66,46.92-9.76,5.9-20.68,7.9-32.12,5.7C14.45,72.04,3.52,60.76,.96,43.87-.09,37-.44,30.12,.73,23.18,2.38,13.37,7.9,7.03,17.24,3.93,25.15,1.3,33.39,.72,41.61,.64,76.42,.3,111.22,.01,146.03,0c10.82,0,21.66,.62,32.44,1.52,4.96,.41,9.97,1.71,14.66,3.43,7.97,2.91,12.49,9.06,13.93,17.37,.59,3.4,.82,6.86,1.03,8.69ZM114.89,15.29c2.74-7.35,9.4-9.3,16.34-11.96h-53.6c6.42,2.54,12.66,4.95,15.58,11.84,8.01-5.77,13.68-5.77,21.67,.13Z"/></g><path d="M126.94,47.01c7.95,11.89,19.83,21.66,33.82,24.56,13.98,2.9,29.15-2.02,36.82-14.09,5.52-8.68,7.45-20.56,6.08-29.93-.77-5.23-1.93-10.29-5.46-14.22-5.56-6.21-14.77-6.83-22.64-7.63-9.07-.92-18.43-1.17-27.52-.7-7.61,.4-17.24,.59-23.41,5.69-11.23,9.3-4.53,26.1,2.31,36.32Z"/><path d="M81.05,46.93c-7.95,11.89-19.83,21.66-33.82,24.56s-29.15-2.02-36.82-14.09c-5.52-8.68-7.45-20.56-6.08-29.93,.77-5.23,1.93-10.29,5.46-14.22,5.56-6.21,14.77-6.83,22.64-7.63,9.07-.92,18.43-1.17,27.52-.7,7.61,.4,17.24,.59,23.41,5.69,11.23,9.3,4.53,26.1-2.31,36.32Z"/><path class="gls-2" d="M82.05,9.64c-6.16-4.16-15.01-4.35-22.1-4.72-6.13-.32-12.38-.3-18.58,.02L7.5,51.77c.83,1.97,1.79,3.87,2.91,5.63,6.1,9.6,16.95,14.66,28.17,14.88L82.05,9.64Z"/><path class="gls-2" d="M175.56,5.7c-7.77-.79-15.76-1.09-23.61-.85l-28.54,36.17c1.11,2.15,2.32,4.18,3.53,6,2.59,3.87,5.6,7.51,8.97,10.77L176.43,5.79c-.29-.03-.58-.06-.87-.09Z"/><path class="gls-2" d="M155.9,70.26L198.72,13.97c-.17-.21-.33-.44-.51-.64-2.14-2.39-4.82-3.95-7.76-5.01l-44.21,57.47c3.06,1.84,6.29,3.35,9.66,4.47Z"/></g></g></svg>
