<?xml version="1.0" encoding="UTF-8"?><svg id="Layer_2" xmlns="http://www.w3.org/2000/svg"><defs><style>.gls-1{fill:#f2e6d3;}.gls-2{fill:#fff9ee;}.gls-3{fill:none;stroke:#fff9ee;stroke-linecap:round;stroke-miterlimit:10;stroke-width:4px;}</style></defs><g id="Glasses"><g id="Glasses-Eyepatch1"><g><path class="gls-2" d="M204.18,82.7c-16.01-4.48-54.76-8.96-74.47-8.23-2.68,.1-4.81-2.2-4.51-4.86,1.4-12.47,4.91-43.77,6.2-54.5,.29-2.44,1.98-4.47,4.32-5.2,17.87-5.57,61.85-.95,77.03,9.01,1.95,1.28,3.01,3.54,2.77,5.86-1.11,10.36-4.37,40.85-5.79,54.17-.29,2.7-2.93,4.48-5.55,3.75Z"/><path class="gls-1" d="M189.14,67.51c4.01,.07,7.37-1.29,8.55-6.29,2.73-11.55,4.45-23.34,5.15-35.19-4.43,17.69-11.94,34.09-33.14,33.69-10.28-.19-20.02,3.05-30.01,6.04,10.21-3.06,24.42-1.56,34.91-.73,4.08,.33,9.77,2.4,14.54,2.48Z"/><path class="gls-1" d="M139.64,59.11c-.1-10.99,1.16-21.99,3.79-32.67,.11,11-1.17,21.99-3.79,32.67h0Z"/><path class="gls-1" d="M146.74,22.22c8.99-5.57,27.45-3.75,37.5-1.3-6.33,.02-12.6-.27-18.9-.31-6.24,.03-12.56-.27-18.6,1.61h0Z"/><circle class="gls-1" cx="152.24" cy="28.91" r="2.48"/><circle class="gls-1" cx="149.76" cy="44.31" r="2.48"/><circle class="gls-1" cx="147.29" cy="57.4" r="2.48"/><circle class="gls-1" cx="167.58" cy="29.56" r="2.48"/><circle class="gls-1" cx="166.33" cy="44.31" r="2.48"/><circle class="gls-1" cx="166.33" cy="58.3" r="2.48"/><circle class="gls-1" cx="182.94" cy="30.97" r="2.48"/><circle class="gls-1" cx="196.11" cy="31.39" r="2.48"/><circle class="gls-1" cx="182.6" cy="44.95" r="2.48"/><circle class="gls-1" cx="196.11" cy="46.76" r="2.48"/><circle class="gls-1" cx="182.6" cy="58.72" r="2.48"/></g><path class="gls-3" d="M135.11,14.47C107.55,1.96,58.87-2.54,27.32,7.52"/><path class="gls-3" d="M2,96.09c40.16-16.55,99.86-29.01,125.17-24.5"/><path class="gls-3" d="M210.36,22.46c17.08-8.76,35.08-13.73,54.26-14.48"/><path class="gls-3" d="M299.2,66.03c-25.41,15.49-62.81,17.11-92.63,13.69"/></g></g></svg>
