<?xml version="1.0" encoding="UTF-8"?><svg id="Layer_2" xmlns="http://www.w3.org/2000/svg"><defs><style>.domino-1{fill:#fff;}</style></defs><g id="Glasses"><g id="Glasses-DominoMask"><path d="M16.53,.19c9.57-1.03,19.03,2.31,27.87,5.54,15.21,5.56,27.94,14.08,43.03,19.72,18.57,6.94,36.49-4.85,53.48-10.82,9.46-3.32,19.17-7.08,29.01-8.97,9.22-1.77,19.2-2.48,28.2,1.22,9.03,3.71,13.33,11.45,12.37,21.1-1.3,13-6.58,26.15-15.19,36-15.46,17.67-40.1,23.41-61.61,13.23-12.32-5.83-26.61-15.71-40.68-16.14-11.64-.35-22.16,6.3-32.77,10.28-11.3,4.23-22.76,5.54-34.35,1.45-8.38-2.96-15.22-9.27-19.42-16.99C3.03,49.52-1.03,34.3,.24,29.78,2.15,22.94,12.65,4.63,16.53,.19Z"/><path class="domino-1" d="M130.68,50.4s27.83-29.76,54.47-16.99c0,0-22.53,40.62-54.47,16.99Z"/><path class="domino-1" d="M66.36,45.77S41.93,16.01,15.29,28.77c0,0,19.13,40.62,51.07,16.99Z"/></g></g></svg>
