<?xml version="1.0" encoding="UTF-8"?><svg id="Layer_2" xmlns="http://www.w3.org/2000/svg"><defs><style>.alien-1{fill:#85d9a5;}.alien-2{fill:none;stroke:#85d9a5;stroke-miterlimit:10;stroke-width:8px;}.alien-3{fill:#fff;opacity:.4;}</style></defs><g id="Glasses"><g id="Glasses-Alien"><path d="M136.87,38.05c3.13-5.22,6.75-10.15,10.74-14.73,8.04-9.23,28.92-28.2,41.02-12.89,20.81,26.34-2.22,67.26-33.24,82.08-10.17,4.86-23.45,8.61-28.6,1.13-4.77-6.94-2.85-18.42-1.39-26.06,2-10.46,6.01-20.43,11.48-29.53Z"/><path d="M63.55,39.04c-2.92-5.34-6.32-10.42-10.12-15.16C45.78,14.34,25.7-5.49,12.98,9.31c-21.88,25.46-.55,67.3,29.83,83.38,3.65,1.93,7.31,3.61,11.28,4.76l18.27-4.03c4.04-6.84,2.52-17.17,1.44-24.4-1.57-10.53-5.16-20.66-10.25-29.98Z"/><polygon class="alien-3" points="8.02 54.61 36 8 48.5 18.3 17.48 70.62 8.02 54.61"/><polygon class="alien-3" points="29.02 84.67 59.04 32.57 63.22 41.77 35.92 89.25 29.02 84.67"/><polygon class="alien-3" points="136.32 96.32 191.65 13.74 196.8 26.73 153.27 93.23 136.32 96.32"/><path class="alien-2" d="M136.87,38.05c3.13-5.22,6.75-10.15,10.74-14.73,8.04-9.23,28.92-28.2,41.02-12.89,20.81,26.34-2.22,67.26-33.24,82.08-10.17,4.86-23.45,8.61-28.6,1.13-4.77-6.94-2.85-18.42-1.39-26.06,2-10.46,6.01-20.43,11.48-29.53Z"/><path class="alien-1" d="M46.87,99.07c5.23-1.18,28.91-6.44,30.35-6.69,2.82-8,1.41-18.12,.55-23.95-1.59-10.69-5.19-21.22-10.69-31.31h0c-2.99-5.47-6.52-10.77-10.51-15.74C52.58,16.43,38.52,.25,24.21,0c-5.47-.1-10.41,2.22-14.26,6.7C1.35,16.7-1.76,29.55,.95,43.85c3.92,20.74,19.99,41.79,39.99,52.38,2.11,1.12,3.96,2.01,5.93,2.85ZM8.81,42.37c-1.56-8.25-1.58-20.23,7.2-30.45,2.27-2.64,4.84-3.92,7.87-3.92,.06,0,.12,0,.19,0,8.61,.15,19.52,10,26.24,18.38,3.7,4.61,6.97,9.52,9.73,14.57,5.05,9.25,8.35,18.89,9.8,28.65,.84,5.61,2.57,17.28-1.71,22.98-3.55,4.74-14.45,1.33-23.46-3.44C26.72,79.65,12.31,60.85,8.81,42.37Z"/><path class="alien-2" d="M72.21,68.59s10.26-5.28,26.54-5.01,27.68,8.43,27.68,8.43"/></g></g></svg>
