<?xml version="1.0" encoding="UTF-8"?>
<svg xmlns="http://www.w3.org/2000/svg" xmlns:xlink="http://www.w3.org/1999/xlink" width="48px" height="48px" viewBox="0 0 48 15" version="1.1">
<g id="surface1">
<path style=" stroke:none;fill-rule:nonzero;fill:rgb(100%,97.647059%,93.333333%);fill-opacity:1;" d="M 32.535156 12.648438 C 29.984375 11.960938 23.8125 11.277344 20.671875 11.386719 C 20.246094 11.402344 19.90625 11.050781 19.953125 10.644531 C 20.175781 8.738281 20.734375 3.953125 20.941406 2.3125 C 20.988281 1.9375 21.257812 1.628906 21.628906 1.515625 C 24.476562 0.664062 31.484375 1.371094 33.902344 2.894531 C 34.210938 3.089844 34.382812 3.433594 34.34375 3.789062 C 34.167969 5.375 33.648438 10.035156 33.421875 12.074219 C 33.375 12.484375 32.953125 12.757812 32.535156 12.648438 Z M 32.535156 12.648438 "/>
<path style=" stroke:none;fill-rule:nonzero;fill:rgb(94.901961%,90.196078%,82.745098%);fill-opacity:1;" d="M 30.140625 10.324219 C 30.777344 10.335938 31.316406 10.125 31.503906 9.363281 C 31.9375 7.59375 32.210938 5.792969 32.324219 3.980469 C 31.617188 6.6875 30.421875 9.195312 27.042969 9.132812 C 25.40625 9.101562 23.851562 9.597656 22.261719 10.054688 C 23.886719 9.589844 26.152344 9.816406 27.824219 9.945312 C 28.472656 9.996094 29.378906 10.3125 30.140625 10.324219 Z M 30.140625 10.324219 "/>
<path style=" stroke:none;fill-rule:nonzero;fill:rgb(94.901961%,90.196078%,82.745098%);fill-opacity:1;" d="M 22.253906 9.039062 C 22.238281 7.359375 22.4375 5.675781 22.859375 4.042969 C 22.875 5.726562 22.671875 7.40625 22.253906 9.039062 Z M 22.253906 9.039062 "/>
<path style=" stroke:none;fill-rule:nonzero;fill:rgb(94.901961%,90.196078%,82.745098%);fill-opacity:1;" d="M 23.386719 3.398438 C 24.816406 2.546875 27.757812 2.824219 29.359375 3.199219 C 28.351562 3.203125 27.351562 3.15625 26.347656 3.152344 C 25.355469 3.15625 24.347656 3.109375 23.386719 3.398438 Z M 23.386719 3.398438 "/>
<path style=" stroke:none;fill-rule:nonzero;fill:rgb(94.901961%,90.196078%,82.745098%);fill-opacity:1;" d="M 24.65625 4.421875 C 24.65625 4.628906 24.480469 4.800781 24.261719 4.800781 C 24.042969 4.800781 23.867188 4.628906 23.867188 4.421875 C 23.867188 4.210938 24.042969 4.042969 24.261719 4.042969 C 24.480469 4.042969 24.65625 4.210938 24.65625 4.421875 Z M 24.65625 4.421875 "/>
<path style=" stroke:none;fill-rule:nonzero;fill:rgb(94.901961%,90.196078%,82.745098%);fill-opacity:1;" d="M 24.261719 6.777344 C 24.261719 6.984375 24.085938 7.15625 23.867188 7.15625 C 23.648438 7.15625 23.472656 6.984375 23.472656 6.777344 C 23.472656 6.566406 23.648438 6.398438 23.867188 6.398438 C 24.085938 6.398438 24.261719 6.566406 24.261719 6.777344 Z M 24.261719 6.777344 "/>
<path style=" stroke:none;fill-rule:nonzero;fill:rgb(94.901961%,90.196078%,82.745098%);fill-opacity:1;" d="M 23.867188 8.777344 C 23.867188 8.988281 23.691406 9.15625 23.472656 9.15625 C 23.253906 9.15625 23.078125 8.988281 23.078125 8.777344 C 23.078125 8.566406 23.253906 8.398438 23.472656 8.398438 C 23.691406 8.398438 23.867188 8.566406 23.867188 8.777344 Z M 23.867188 8.777344 "/>
<path style=" stroke:none;fill-rule:nonzero;fill:rgb(94.901961%,90.196078%,82.745098%);fill-opacity:1;" d="M 27.101562 4.519531 C 27.101562 4.730469 26.921875 4.898438 26.707031 4.898438 C 26.488281 4.898438 26.308594 4.730469 26.308594 4.519531 C 26.308594 4.3125 26.488281 4.140625 26.707031 4.140625 C 26.921875 4.140625 27.101562 4.3125 27.101562 4.519531 Z M 27.101562 4.519531 "/>
<path style=" stroke:none;fill-rule:nonzero;fill:rgb(94.901961%,90.196078%,82.745098%);fill-opacity:1;" d="M 26.902344 6.777344 C 26.902344 6.984375 26.722656 7.15625 26.507812 7.15625 C 26.289062 7.15625 26.109375 6.984375 26.109375 6.777344 C 26.109375 6.566406 26.289062 6.398438 26.507812 6.398438 C 26.722656 6.398438 26.902344 6.566406 26.902344 6.777344 Z M 26.902344 6.777344 "/>
<path style=" stroke:none;fill-rule:nonzero;fill:rgb(94.901961%,90.196078%,82.745098%);fill-opacity:1;" d="M 26.902344 8.914062 C 26.902344 9.125 26.722656 9.292969 26.507812 9.292969 C 26.289062 9.292969 26.109375 9.125 26.109375 8.914062 C 26.109375 8.707031 26.289062 8.535156 26.507812 8.535156 C 26.722656 8.535156 26.902344 8.707031 26.902344 8.914062 Z M 26.902344 8.914062 "/>
<path style=" stroke:none;fill-rule:nonzero;fill:rgb(94.901961%,90.196078%,82.745098%);fill-opacity:1;" d="M 29.546875 4.734375 C 29.546875 4.945312 29.371094 5.113281 29.152344 5.113281 C 28.933594 5.113281 28.757812 4.945312 28.757812 4.734375 C 28.757812 4.527344 28.933594 4.355469 29.152344 4.355469 C 29.371094 4.355469 29.546875 4.527344 29.546875 4.734375 Z M 29.546875 4.734375 "/>
<path style=" stroke:none;fill-rule:nonzero;fill:rgb(94.901961%,90.196078%,82.745098%);fill-opacity:1;" d="M 31.644531 4.800781 C 31.644531 5.007812 31.46875 5.179688 31.25 5.179688 C 31.03125 5.179688 30.855469 5.007812 30.855469 4.800781 C 30.855469 4.589844 31.03125 4.421875 31.25 4.421875 C 31.46875 4.421875 31.644531 4.589844 31.644531 4.800781 Z M 31.644531 4.800781 "/>
<path style=" stroke:none;fill-rule:nonzero;fill:rgb(94.901961%,90.196078%,82.745098%);fill-opacity:1;" d="M 29.492188 6.875 C 29.492188 7.082031 29.316406 7.253906 29.097656 7.253906 C 28.878906 7.253906 28.703125 7.082031 28.703125 6.875 C 28.703125 6.664062 28.878906 6.496094 29.097656 6.496094 C 29.316406 6.496094 29.492188 6.664062 29.492188 6.875 Z M 29.492188 6.875 "/>
<path style=" stroke:none;fill-rule:nonzero;fill:rgb(94.901961%,90.196078%,82.745098%);fill-opacity:1;" d="M 31.644531 7.152344 C 31.644531 7.359375 31.46875 7.53125 31.25 7.53125 C 31.03125 7.53125 30.855469 7.359375 30.855469 7.152344 C 30.855469 6.941406 31.03125 6.769531 31.25 6.769531 C 31.46875 6.769531 31.644531 6.941406 31.644531 7.152344 Z M 31.644531 7.152344 "/>
<path style=" stroke:none;fill-rule:nonzero;fill:rgb(94.901961%,90.196078%,82.745098%);fill-opacity:1;" d="M 29.492188 8.980469 C 29.492188 9.1875 29.316406 9.359375 29.097656 9.359375 C 28.878906 9.359375 28.703125 9.1875 28.703125 8.980469 C 28.703125 8.769531 28.878906 8.601562 29.097656 8.601562 C 29.316406 8.601562 29.492188 8.769531 29.492188 8.980469 Z M 29.492188 8.980469 "/>
<path style="fill:none;stroke-width:4;stroke-linecap:round;stroke-linejoin:miter;stroke:rgb(100%,97.647059%,93.333333%);stroke-opacity:1;stroke-miterlimit:10;" d="M 135.104663 14.458057 C 107.5465 1.966909 58.878392 -2.528883 27.323805 7.510016 " transform="matrix(0.159322,0,0,0.152921,0.00608838,0)"/>
<path style="fill:none;stroke-width:4;stroke-linecap:round;stroke-linejoin:miter;stroke:rgb(100%,97.647059%,93.333333%);stroke-opacity:1;stroke-miterlimit:10;" d="M 1.996775 96.097547 C 42.157158 79.544859 101.858338 67.079255 127.160851 71.600591 " transform="matrix(0.159322,0,0,0.152921,0.00608838,0)"/>
<path style="fill:none;stroke-width:4;stroke-linecap:round;stroke-linejoin:miter;stroke:rgb(100%,97.647059%,93.333333%);stroke-opacity:1;stroke-miterlimit:10;" d="M 210.350216 22.453414 C 227.439219 13.691729 245.435386 8.736141 264.608414 7.969812 " transform="matrix(0.159322,0,0,0.152921,0.00608838,0)"/>
<path style="fill:none;stroke-width:4;stroke-linecap:round;stroke-linejoin:miter;stroke:rgb(100%,97.647059%,93.333333%);stroke-opacity:1;stroke-miterlimit:10;" d="M 299.203225 66.03194 C 273.778123 81.511768 236.388267 83.146602 206.574454 79.723669 " transform="matrix(0.159322,0,0,0.152921,0.00608838,0)"/>
</g>
</svg>
