<?xml version="1.0" encoding="UTF-8"?>
<svg xmlns="http://www.w3.org/2000/svg" xmlns:xlink="http://www.w3.org/1999/xlink" width="48px" height="48px" viewBox="0 0 48 17" version="1.1">
<g id="surface1">
<path style=" stroke:none;fill-rule:nonzero;fill:rgb(7.843137%,81.960784%,87.45098%);fill-opacity:1;" d="M 47.96875 6.925781 C 47.890625 9.511719 47.601562 11.6875 46.21875 13.542969 C 44.0625 16.4375 40.976562 17.34375 37.503906 16.875 C 32.171875 16.152344 27.515625 11.714844 26.472656 6.597656 C 26.371094 6.09375 26.363281 5.570312 26.3125 5.058594 C 26.191406 3.84375 25.363281 3.167969 23.996094 3.167969 C 22.632812 3.167969 21.769531 3.851562 21.679688 5.054688 C 21.3125 9.8125 18.667969 13.160156 14.613281 15.53125 C 12.367188 16.851562 9.851562 17.296875 7.214844 16.804688 C 3.359375 16.085938 0.839844 13.566406 0.25 9.796875 C 0.0078125 8.261719 -0.0703125 6.726562 0.199219 5.175781 C 0.578125 2.984375 1.847656 1.570312 4 0.878906 C 5.824219 0.289062 7.722656 0.160156 9.617188 0.144531 C 17.632812 0.0664062 25.652344 0.00390625 33.671875 0 C 36.164062 0 38.660156 0.136719 41.144531 0.339844 C 42.289062 0.429688 43.441406 0.722656 44.523438 1.105469 C 46.359375 1.753906 47.398438 3.128906 47.730469 4.984375 C 47.867188 5.742188 47.917969 6.515625 47.96875 6.925781 Z M 26.496094 3.414062 C 27.128906 1.773438 28.664062 1.335938 30.261719 0.742188 L 17.914062 0.742188 C 19.390625 1.3125 20.828125 1.847656 21.503906 3.386719 C 23.347656 2.097656 24.652344 2.097656 26.496094 3.417969 Z M 26.496094 3.414062 "/>
<path style=" stroke:none;fill-rule:nonzero;fill:rgb(0%,0%,0%);fill-opacity:1;" d="M 29.273438 10.496094 C 31.105469 13.152344 33.839844 15.335938 37.066406 15.980469 C 40.285156 16.628906 43.78125 15.53125 45.546875 12.835938 C 46.820312 10.898438 47.261719 8.246094 46.949219 6.152344 C 46.769531 4.984375 46.503906 3.855469 45.691406 2.976562 C 44.410156 1.589844 42.289062 1.453125 40.472656 1.273438 C 38.382812 1.066406 36.226562 1.011719 34.132812 1.117188 C 32.382812 1.207031 30.164062 1.25 28.742188 2.386719 C 26.152344 4.464844 27.699219 8.214844 29.273438 10.496094 Z M 29.273438 10.496094 "/>
<path style=" stroke:none;fill-rule:nonzero;fill:rgb(0%,0%,0%);fill-opacity:1;" d="M 18.703125 10.480469 C 16.871094 13.132812 14.132812 15.316406 10.910156 15.964844 C 7.6875 16.613281 4.195312 15.511719 2.425781 12.816406 C 1.15625 10.878906 0.710938 8.226562 1.027344 6.132812 C 1.203125 4.964844 1.472656 3.835938 2.285156 2.957031 C 3.566406 1.570312 5.6875 1.433594 7.5 1.253906 C 9.589844 1.050781 11.746094 0.992188 13.839844 1.097656 C 15.59375 1.1875 17.8125 1.230469 19.234375 2.371094 C 21.820312 4.445312 20.277344 8.199219 18.703125 10.480469 Z M 18.703125 10.480469 "/>
<path style=" stroke:none;fill-rule:nonzero;fill:rgb(25.490196%,25.098039%,25.882353%);fill-opacity:1;" d="M 18.933594 2.152344 C 17.511719 1.222656 15.472656 1.179688 13.839844 1.097656 C 12.429688 1.027344 10.988281 1.03125 9.558594 1.101562 L 1.757812 11.558594 C 1.949219 12 2.167969 12.425781 2.425781 12.816406 C 3.832031 14.960938 6.332031 16.089844 8.917969 16.140625 Z M 18.933594 2.152344 "/>
<path style=" stroke:none;fill-rule:nonzero;fill:rgb(25.490196%,25.098039%,25.882353%);fill-opacity:1;" d="M 40.472656 1.273438 C 38.683594 1.097656 36.84375 1.03125 35.035156 1.082031 L 28.460938 9.160156 C 28.714844 9.640625 28.996094 10.09375 29.273438 10.5 C 29.871094 11.363281 30.5625 12.175781 31.339844 12.90625 L 40.675781 1.292969 C 40.609375 1.285156 40.539062 1.28125 40.472656 1.273438 Z M 40.472656 1.273438 "/>
<path style=" stroke:none;fill-rule:nonzero;fill:rgb(25.490196%,25.098039%,25.882353%);fill-opacity:1;" d="M 35.945312 15.6875 L 45.808594 3.121094 C 45.769531 3.074219 45.734375 3.019531 45.691406 2.976562 C 45.199219 2.441406 44.582031 2.09375 43.90625 1.859375 L 33.71875 14.691406 C 34.425781 15.101562 35.167969 15.4375 35.945312 15.6875 Z M 35.945312 15.6875 "/>
</g>
</svg>
