<?xml version="1.0" encoding="UTF-8"?>
<svg xmlns="http://www.w3.org/2000/svg" xmlns:xlink="http://www.w3.org/1999/xlink" width="48px" height="px" viewBox="0 0 48 19" version="1.1">
<g id="surface1">
<path style=" stroke:none;fill-rule:nonzero;fill:rgb(0%,0%,0%);fill-opacity:1;" d="M 3.859375 0.0429688 C 6.03125 -0.195312 8.175781 0.578125 10.183594 1.324219 C 13.632812 2.609375 16.519531 4.578125 19.945312 5.878906 C 24.15625 7.484375 28.222656 4.761719 32.074219 3.378906 C 34.222656 2.613281 36.425781 1.746094 38.65625 1.308594 C 40.75 0.898438 43.011719 0.734375 45.054688 1.589844 C 47.101562 2.445312 48.078125 4.234375 47.859375 6.464844 C 47.566406 9.46875 46.367188 12.507812 44.414062 14.78125 C 40.90625 18.867188 35.316406 20.191406 30.4375 17.839844 C 27.644531 16.492188 24.402344 14.210938 21.210938 14.109375 C 18.570312 14.03125 16.183594 15.566406 13.777344 16.484375 C 11.210938 17.464844 8.613281 17.765625 5.984375 16.820312 C 4.082031 16.136719 2.53125 14.679688 1.578125 12.894531 C 0.796875 11.441406 -0.125 7.925781 0.164062 6.882812 C 0.597656 5.300781 2.980469 1.070312 3.859375 0.0429688 Z M 3.859375 0.0429688 "/>
<path style=" stroke:none;fill-rule:nonzero;fill:rgb(100%,100%,100%);fill-opacity:1;" d="M 29.753906 11.644531 C 29.753906 11.644531 36.070312 4.769531 42.113281 7.71875 C 42.113281 7.71875 37 17.105469 29.753906 11.644531 Z M 29.753906 11.644531 "/>
<path style=" stroke:none;fill-rule:nonzero;fill:rgb(100%,100%,100%);fill-opacity:1;" d="M 15.164062 10.574219 C 15.164062 10.574219 9.621094 3.699219 3.578125 6.648438 C 3.578125 6.648438 7.917969 16.03125 15.164062 10.574219 Z M 15.164062 10.574219 "/>
</g>
</svg>
