<?xml version="1.0" encoding="UTF-8"?>
<svg xmlns="http://www.w3.org/2000/svg" xmlns:xlink="http://www.w3.org/1999/xlink" width="48px" height="48px" viewBox="0 0 48 22" version="1.1">
<defs>
<filter id="alpha" filterUnits="objectBoundingBox" x="0%" y="0%" width="100%" height="100%">
  <feColorMatrix type="matrix" in="SourceGraphic" values="0 0 0 0 1 0 0 0 0 1 0 0 0 0 1 0 0 0 1 0"/>
</filter>
<mask id="mask0">
  <g filter="url(#alpha)">
<rect x="0" y="0" width="48" height="22" style="fill:rgb(0%,0%,0%);fill-opacity:0.14902;stroke:none;"/>
  </g>
</mask>
<clipPath id="clip1">
  <rect x="0" y="0" width="48" height="22"/>
</clipPath>
<g id="surface5" clip-path="url(#clip1)">
<path style=" stroke:none;fill-rule:nonzero;fill:rgb(0%,0%,0%);fill-opacity:1;" d="M 35.730469 12.21875 C 34.117188 12.671875 32.503906 13.125 30.894531 13.574219 C 29.460938 13.976562 27.988281 14.382812 26.503906 14.25 C 22.472656 13.882812 19.351562 9.664062 15.316406 10.003906 C 13.492188 10.15625 11.894531 11.242188 10.453125 12.367188 C 9.007812 13.488281 7.570312 14.710938 5.816406 15.230469 C 4.800781 15.53125 3.652344 15.527344 2.660156 15.148438 C 1.890625 14.855469 0.644531 13.902344 0.980469 15.511719 C 1.21875 16.648438 1.84375 17.722656 2.675781 18.597656 C 6.882812 17.554688 11.179688 16.59375 15.894531 15.585938 C 18.089844 15.117188 20.25 16.507812 20.71875 18.695312 C 20.773438 18.9375 20.800781 19.179688 20.8125 19.417969 C 21.203125 19.914062 21.640625 20.375 22.152344 20.742188 C 24.488281 22.425781 28.855469 22.195312 31.472656 21.34375 C 33.566406 20.660156 35.394531 19.273438 36.746094 17.558594 C 37.417969 16.703125 37.972656 15.78125 38.347656 14.769531 C 38.796875 13.554688 40.445312 13.355469 41.546875 13.183594 C 43.089844 12.9375 44.550781 12.613281 46.019531 12.046875 C 46.375 11.910156 46.75 11.75 46.957031 11.429688 C 47.1875 11.066406 47.132812 10.578125 46.925781 10.195312 C 46.347656 9.121094 45.832031 9.382812 44.816406 9.667969 C 43.804688 9.953125 42.730469 10.253906 41.6875 10.546875 C 39.703125 11.101562 37.714844 11.660156 35.730469 12.21875 Z M 35.730469 12.21875 "/>
</g>
<linearGradient id="linear0" gradientUnits="userSpaceOnUse" x1="157.64" y1="130.8" x2="77.52" y2="-7.98" gradientTransform="matrix(0.165965,0,0,0.165289,0.0288193,0)">
<stop offset="0" style="stop-color:rgb(7.843137%,81.960784%,87.45098%);stop-opacity:1;"/>
<stop offset="1" style="stop-color:rgb(52.156863%,85.098039%,64.705882%);stop-opacity:1;"/>
</linearGradient>
</defs>
<g id="surface1">
<use xlink:href="#surface5" mask="url(#mask0)"/>
<path style=" stroke:none;fill-rule:nonzero;fill:rgb(28.627451%,29.803922%,40.392157%);fill-opacity:1;" d="M 44.835938 5.472656 C 45.390625 5.460938 45.679688 5.804688 45.925781 6.234375 C 46.507812 7.269531 48.222656 9.652344 47.941406 10.539062 C 47.679688 11.355469 46.109375 11.621094 45.339844 11.832031 C 42.558594 12.601562 39.738281 13.058594 36.695312 13.289062 C 35.996094 13.34375 36.824219 6.308594 37.238281 6.226562 C 38.457031 5.996094 43.945312 5.492188 44.835938 5.472656 Z M 44.835938 5.472656 "/>
<path style=" stroke:none;fill-rule:nonzero;fill:url(#linear0);" d="M 12.050781 16.417969 C 12.355469 14.765625 13.65625 13.335938 15.257812 12.820312 C 16.859375 12.304688 18.734375 12.734375 19.953125 13.894531 C 21.503906 15.375 22.019531 17.875 23.929688 18.859375 C 24.832031 19.324219 25.894531 19.347656 26.914062 19.308594 C 28.871094 19.226562 30.875 18.921875 32.570312 17.949219 C 34.214844 17.003906 35.476562 15.480469 36.289062 13.773438 C 37.101562 12.066406 37.488281 10.183594 37.640625 8.296875 C 37.746094 6.988281 37.695312 5.542969 36.839844 4.539062 C 36.199219 3.785156 35.21875 3.425781 34.277344 3.121094 C 25.296875 0.222656 15.402344 -0.0742188 6.414062 2.808594 C 4.75 3.34375 3.019531 4.0625 2.023438 5.496094 C 1.253906 6.605469 1.039062 7.996094 0.953125 9.339844 C 0.84375 11.023438 0.917969 12.746094 1.496094 14.332031 C 2.074219 15.914062 3.222656 17.421875 4.78125 18.078125 Z M 12.050781 16.417969 "/>
<path style=" stroke:none;fill-rule:nonzero;fill:rgb(100%,100%,100%);fill-opacity:1;" d="M 26.816406 1.46875 C 28.875 1.71875 31.597656 2.4375 33.59375 3.011719 C 33.59375 3.011719 23.648438 18.582031 23.242188 18.546875 C 22.882812 18.519531 22.332031 17.539062 22.140625 17.234375 C 20.851562 15.203125 19.089844 13.316406 19.296875 13.011719 C 19.808594 12.265625 26.816406 1.46875 26.816406 1.46875 Z M 26.816406 1.46875 "/>
<path style=" stroke:none;fill-rule:nonzero;fill:rgb(100%,100%,100%);fill-opacity:1;" d="M 12.273438 1.886719 C 13.527344 0.988281 15.152344 0.824219 16.695312 0.691406 C 13.109375 5.644531 5.4375 17.761719 5.4375 17.761719 C 4.40625 17.898438 2.789062 16.945312 3.230469 15.925781 C 3.816406 14.589844 11.359375 2.539062 12.273438 1.886719 Z M 12.273438 1.886719 "/>
<path style=" stroke:none;fill-rule:nonzero;fill:rgb(38.039216%,39.215686%,49.019608%);fill-opacity:1;" d="M 18.394531 1.816406 C 22.542969 1.816406 27.3125 2.367188 31.484375 3.320312 C 31.792969 3.390625 32.121094 3.453125 32.4375 3.515625 C 34.203125 3.871094 35.484375 4.183594 35.878906 5.03125 C 37.289062 8.074219 36.3125 13.660156 33.976562 15.902344 C 32.308594 17.503906 29.882812 18.414062 27.144531 18.46875 C 27.003906 18.472656 26.855469 18.472656 26.703125 18.472656 C 24.84375 18.472656 24.207031 18.152344 24.019531 18.015625 C 23.464844 17.609375 23.078125 16.902344 22.636719 16.082031 C 22 14.910156 21.210938 13.453125 19.59375 12.566406 C 18.671875 12.058594 17.644531 11.789062 16.628906 11.789062 C 14.765625 11.789062 13.171875 12.675781 12.253906 14.214844 C 11.789062 15 11.429688 15.824219 11.03125 16.640625 L 13.234375 16.160156 C 13.234375 16.160156 13.601562 15.519531 13.824219 15.144531 C 14.457031 14.082031 15.519531 13.609375 16.628906 13.609375 C 17.335938 13.609375 18.0625 13.804688 18.710938 14.160156 C 20.859375 15.339844 21.03125 18.085938 22.933594 19.480469 C 23.886719 20.179688 25.464844 20.292969 26.699219 20.292969 C 26.867188 20.292969 27.027344 20.292969 27.179688 20.289062 C 30.101562 20.230469 33.09375 19.273438 35.242188 17.210938 C 38.1875 14.386719 39.25 7.96875 37.53125 4.269531 C 36.574219 2.214844 33.824219 1.988281 31.890625 1.546875 C 27.871094 0.625 23.007812 0 18.394531 0 C 16.019531 0 13.707031 0.167969 11.613281 0.546875 C 9.53125 0.921875 3.28125 2.742188 1.828125 4.1875 C 0.378906 5.632812 0.0820312 8.183594 0.0351562 10.28125 C -0.015625 12.480469 0.1875 15.308594 1.75 16.855469 C 2.5625 17.65625 3.316406 18.242188 4.007812 18.273438 L 6.253906 17.742188 C 6.253906 17.742188 5.710938 17.566406 5.519531 17.488281 C 4.53125 17.09375 3.820312 16.449219 3.128906 15.660156 C 2.253906 14.664062 1.804688 12.765625 1.859375 10.320312 C 1.894531 8.742188 2.066406 6.523438 3.121094 5.472656 C 3.371094 5.226562 4.484375 4.570312 7.078125 3.6875 C 9.015625 3.023438 10.992188 2.503906 11.9375 2.332031 C 13.832031 1.988281 16.003906 1.816406 18.394531 1.816406 "/>
</g>
</svg>
