<?xml version="1.0" encoding="UTF-8"?>
<svg xmlns="http://www.w3.org/2000/svg" xmlns:xlink="http://www.w3.org/1999/xlink" width="48px" height="px" viewBox="0 0 47 24" version="1.1">
<defs>
<filter id="alpha" filterUnits="objectBoundingBox" x="0%" y="0%" width="100%" height="100%">
  <feColorMatrix type="matrix" in="SourceGraphic" values="0 0 0 0 1 0 0 0 0 1 0 0 0 0 1 0 0 0 1 0"/>
</filter>
<mask id="mask0">
  <g filter="url(#alpha)">
<rect x="0" y="0" width="47" height="24" style="fill:rgb(0%,0%,0%);fill-opacity:0.4;stroke:none;"/>
  </g>
</mask>
<clipPath id="clip1">
  <rect x="0" y="0" width="47" height="24"/>
</clipPath>
<g id="surface5" clip-path="url(#clip1)">
<path style=" stroke:none;fill-rule:nonzero;fill:rgb(100%,100%,100%);fill-opacity:1;" d="M 1.898438 12.863281 L 8.445312 1.882812 L 11.375 4.3125 L 4.109375 16.636719 Z M 1.898438 12.863281 "/>
</g>
<mask id="mask1">
  <g filter="url(#alpha)">
<rect x="0" y="0" width="47" height="24" style="fill:rgb(0%,0%,0%);fill-opacity:0.4;stroke:none;"/>
  </g>
</mask>
<clipPath id="clip2">
  <rect x="0" y="0" width="47" height="24"/>
</clipPath>
<g id="surface8" clip-path="url(#clip2)">
<path style=" stroke:none;fill-rule:nonzero;fill:rgb(100%,100%,100%);fill-opacity:1;" d="M 6.8125 19.945312 L 13.839844 7.671875 L 14.820312 9.839844 L 8.429688 21.023438 Z M 6.8125 19.945312 "/>
</g>
<mask id="mask2">
  <g filter="url(#alpha)">
<rect x="0" y="0" width="47" height="24" style="fill:rgb(0%,0%,0%);fill-opacity:0.4;stroke:none;"/>
  </g>
</mask>
<clipPath id="clip3">
  <rect x="0" y="0" width="47" height="24"/>
</clipPath>
<g id="surface11" clip-path="url(#clip3)">
<path style=" stroke:none;fill-rule:nonzero;fill:rgb(100%,100%,100%);fill-opacity:1;" d="M 31.933594 22.691406 L 44.886719 3.238281 L 46.089844 6.296875 L 35.902344 21.960938 Z M 31.933594 22.691406 "/>
</g>
</defs>
<g id="surface1">
<path style=" stroke:none;fill-rule:nonzero;fill:rgb(0%,0%,0%);fill-opacity:1;" d="M 32.0625 8.964844 C 32.792969 7.734375 33.640625 6.574219 34.574219 5.492188 C 36.457031 3.320312 41.347656 -1.148438 44.179688 2.457031 C 49.050781 8.660156 43.660156 18.300781 36.398438 21.792969 C 34.015625 22.9375 30.90625 23.820312 29.703125 22.058594 C 28.585938 20.425781 29.035156 17.71875 29.375 15.917969 C 29.84375 13.457031 30.78125 11.105469 32.0625 8.964844 Z M 32.0625 8.964844 "/>
<path style=" stroke:none;fill-rule:nonzero;fill:rgb(0%,0%,0%);fill-opacity:1;" d="M 14.898438 9.195312 C 14.214844 7.9375 13.417969 6.742188 12.527344 5.625 C 10.738281 3.378906 6.035156 -1.292969 3.058594 2.191406 C -2.0625 8.191406 2.929688 18.046875 10.042969 21.835938 C 10.894531 22.289062 11.753906 22.683594 12.683594 22.957031 L 16.960938 22.007812 C 17.90625 20.394531 17.550781 17.960938 17.296875 16.257812 C 16.929688 13.777344 16.089844 11.390625 14.898438 9.195312 Z M 14.898438 9.195312 "/>
<use xlink:href="#surface5" mask="url(#mask0)"/>
<use xlink:href="#surface8" mask="url(#mask1)"/>
<use xlink:href="#surface11" mask="url(#mask2)"/>
<path style="fill:none;stroke-width:8;stroke-linecap:butt;stroke-linejoin:miter;stroke:rgb(52.156863%,85.098039%,64.705882%);stroke-opacity:1;stroke-miterlimit:10;" d="M 136.875271 38.055762 C 139.995515 32.832422 143.616333 27.907559 147.604239 23.314336 C 155.646794 14.094727 176.537414 -4.875117 188.634618 10.430098 C 209.441809 36.762363 186.415407 77.686816 155.396507 92.511152 C 145.21817 97.369687 131.936274 101.117227 126.797048 93.63873 C 122.02491 86.707441 123.943777 75.216094 125.395441 67.571777 C 127.397737 57.125098 131.402329 47.142715 136.875271 38.055762 Z M 136.875271 38.055762 " transform="matrix(0.234106,0,0,0.235571,0.0191416,0)"/>
<path style=" stroke:none;fill-rule:nonzero;fill:rgb(52.156863%,85.098039%,64.705882%);fill-opacity:1;" d="M 10.992188 23.339844 C 12.214844 23.058594 17.757812 21.820312 18.097656 21.761719 C 18.757812 19.878906 18.425781 17.492188 18.226562 16.121094 C 17.851562 13.601562 17.011719 11.121094 15.722656 8.746094 C 15.023438 7.457031 14.195312 6.207031 13.261719 5.035156 C 12.328125 3.871094 9.035156 0.0585938 5.6875 0 C 4.40625 -0.0234375 3.25 0.523438 2.347656 1.578125 C 0.335938 3.933594 -0.394531 6.960938 0.242188 10.328125 C 1.160156 15.214844 4.921875 20.175781 9.601562 22.667969 C 10.097656 22.933594 10.53125 23.140625 10.992188 23.339844 Z M 2.082031 9.980469 C 1.714844 8.039062 1.710938 5.214844 3.765625 2.808594 C 4.296875 2.1875 4.898438 1.882812 5.609375 1.882812 C 5.625 1.882812 5.636719 1.882812 5.652344 1.882812 C 7.667969 1.917969 10.222656 4.242188 11.796875 6.214844 C 12.664062 7.300781 13.429688 8.457031 14.074219 9.648438 C 15.257812 11.824219 16.03125 14.097656 16.367188 16.394531 C 16.566406 17.71875 16.972656 20.464844 15.96875 21.808594 C 15.136719 22.925781 12.585938 22.121094 10.476562 21 C 6.273438 18.761719 2.902344 14.335938 2.082031 9.980469 Z M 2.082031 9.980469 "/>
<path style="fill:none;stroke-width:8;stroke-linecap:butt;stroke-linejoin:miter;stroke:rgb(52.156863%,85.098039%,64.705882%);stroke-opacity:1;stroke-miterlimit:10;" d="M 72.217801 68.583281 C 72.217801 68.583281 82.462881 63.310195 98.748221 63.575508 C 115.03356 63.857402 126.429961 72.015762 126.429961 72.015762 " transform="matrix(0.234106,0,0,0.235571,0.0191416,0)"/>
</g>
</svg>
