<?xml version="1.0" encoding="UTF-8"?>
<svg xmlns="http://www.w3.org/2000/svg" xmlns:xlink="http://www.w3.org/1999/xlink" width="48px" height="48px" viewBox="0 0 48 18" version="1.1">
<defs>
<filter id="alpha" filterUnits="objectBoundingBox" x="0%" y="0%" width="100%" height="100%">
  <feColorMatrix type="matrix" in="SourceGraphic" values="0 0 0 0 1 0 0 0 0 1 0 0 0 0 1 0 0 0 1 0"/>
</filter>
<mask id="mask0">
  <g filter="url(#alpha)">
<rect x="0" y="0" width="48" height="18" style="fill:rgb(0%,0%,0%);fill-opacity:0.709804;stroke:none;"/>
  </g>
</mask>
<clipPath id="clip1">
  <rect x="0" y="0" width="48" height="18"/>
</clipPath>
<g id="surface5" clip-path="url(#clip1)">
<path style=" stroke:none;fill-rule:nonzero;fill:rgb(7.843137%,81.960784%,87.45098%);fill-opacity:1;" d="M 47.515625 9 C 47.515625 4.238281 43.332031 0.375 38.171875 0.375 C 33.011719 0.375 28.828125 4.238281 28.828125 9 C 28.828125 13.765625 33.011719 17.628906 38.171875 17.628906 C 43.332031 17.628906 47.515625 13.765625 47.515625 9 Z M 47.515625 9 "/>
</g>
<mask id="mask1">
  <g filter="url(#alpha)">
<rect x="0" y="0" width="48" height="18" style="fill:rgb(0%,0%,0%);fill-opacity:0.4;stroke:none;"/>
  </g>
</mask>
<clipPath id="clip2">
  <rect x="0" y="0" width="48" height="18"/>
</clipPath>
<g id="surface8" clip-path="url(#clip2)">
<path style=" stroke:none;fill-rule:nonzero;fill:rgb(100%,100%,100%);fill-opacity:1;" d="M 35.503906 17.132812 L 45.582031 3.746094 L 47.066406 6.605469 L 38.757812 17.628906 Z M 35.503906 17.132812 "/>
</g>
<mask id="mask2">
  <g filter="url(#alpha)">
<rect x="0" y="0" width="48" height="18" style="fill:rgb(0%,0%,0%);fill-opacity:0.709804;stroke:none;"/>
  </g>
</mask>
<clipPath id="clip3">
  <rect x="0" y="0" width="48" height="18"/>
</clipPath>
<g id="surface11" clip-path="url(#clip3)">
<path style=" stroke:none;fill-rule:nonzero;fill:rgb(7.843137%,81.960784%,87.45098%);fill-opacity:1;" d="M 19.105469 9 C 19.105469 4.238281 14.921875 0.375 9.761719 0.375 C 4.601562 0.375 0.417969 4.238281 0.417969 9 C 0.417969 13.765625 4.601562 17.628906 9.761719 17.628906 C 14.921875 17.628906 19.105469 13.765625 19.105469 9 Z M 19.105469 9 "/>
</g>
<mask id="mask3">
  <g filter="url(#alpha)">
<rect x="0" y="0" width="48" height="18" style="fill:rgb(0%,0%,0%);fill-opacity:0.4;stroke:none;"/>
  </g>
</mask>
<clipPath id="clip4">
  <rect x="0" y="0" width="48" height="18"/>
</clipPath>
<g id="surface14" clip-path="url(#clip4)">
<path style=" stroke:none;fill-rule:nonzero;fill:rgb(100%,100%,100%);fill-opacity:1;" d="M 10.976562 0.382812 C 10.191406 0.847656 13.070312 0.492188 13.851562 0.964844 C 14.632812 1.441406 15.242188 2.140625 15.832031 2.832031 C 12.789062 7.625 6.085938 16.402344 6.085938 16.402344 C 5.601562 16.929688 2.023438 13.988281 1.910156 13.582031 C 1.910156 13.582031 11.398438 0.128906 10.976562 0.382812 Z M 10.976562 0.382812 "/>
</g>
<mask id="mask4">
  <g filter="url(#alpha)">
<rect x="0" y="0" width="48" height="18" style="fill:rgb(0%,0%,0%);fill-opacity:0.4;stroke:none;"/>
  </g>
</mask>
<clipPath id="clip5">
  <rect x="0" y="0" width="48" height="18"/>
</clipPath>
<g id="surface17" clip-path="url(#clip5)">
<path style=" stroke:none;fill-rule:nonzero;fill:rgb(100%,100%,100%);fill-opacity:1;" d="M 29.523438 12.773438 L 38.171875 0.371094 L 40.949219 0.863281 L 31.335938 14.878906 Z M 29.523438 12.773438 "/>
</g>
</defs>
<g id="surface1">
<use xlink:href="#surface5" mask="url(#mask0)"/>
<use xlink:href="#surface8" mask="url(#mask1)"/>
<use xlink:href="#surface11" mask="url(#mask2)"/>
<use xlink:href="#surface14" mask="url(#mask3)"/>
<use xlink:href="#surface17" mask="url(#mask4)"/>
<path style=" stroke:none;fill-rule:nonzero;fill:rgb(91.372549%,92.156863%,97.647059%);fill-opacity:1;" d="M 9.828125 18 C 4.492188 18 0.152344 13.960938 0.152344 9 C 0.152344 4.039062 4.492188 0 9.828125 0 C 15.160156 0 19.503906 4.039062 19.503906 9 C 19.503906 13.964844 15.160156 18.003906 9.828125 18.003906 Z M 9.828125 0.867188 C 4.921875 0.867188 0.929688 4.515625 0.929688 9 C 0.929688 13.484375 4.921875 17.132812 9.828125 17.132812 C 14.734375 17.132812 18.722656 13.484375 18.722656 9 C 18.722656 4.519531 14.734375 0.867188 9.828125 0.867188 Z M 9.828125 0.867188 "/>
<path style=" stroke:none;fill-rule:nonzero;fill:rgb(91.372549%,92.156863%,97.647059%);fill-opacity:1;" d="M 38.171875 18 C 32.835938 18 28.496094 13.960938 28.496094 9 C 28.496094 4.035156 32.835938 0 38.171875 0 C 43.503906 0 47.847656 4.039062 47.847656 9 C 47.847656 13.964844 43.503906 18.003906 38.171875 18.003906 Z M 38.171875 0.867188 C 33.265625 0.867188 29.273438 4.515625 29.273438 9 C 29.273438 13.484375 33.265625 17.132812 38.171875 17.132812 C 43.078125 17.132812 47.066406 13.484375 47.066406 9 C 47.066406 4.519531 43.078125 0.867188 38.171875 0.867188 Z M 38.171875 0.867188 "/>
<path style=" stroke:none;fill-rule:nonzero;fill:rgb(91.372549%,92.156863%,97.647059%);fill-opacity:1;" d="M 28.828125 10.429688 C 28.121094 8.835938 26.070312 7.652344 24.195312 7.550781 C 22.261719 7.449219 20.335938 8.289062 19.292969 9.929688 L 19.050781 9.730469 C 18.828125 9.550781 18.777344 9.226562 18.949219 8.992188 C 20.121094 7.398438 22.054688 6.53125 24.230469 6.648438 C 26.351562 6.765625 28.230469 7.835938 29.144531 9.414062 C 29.265625 9.628906 29.242188 9.890625 29.089844 10.085938 L 28.824219 10.429688 Z M 28.828125 10.429688 "/>
</g>
</svg>
