<?xml version="1.0" encoding="UTF-8"?>
<svg xmlns="http://www.w3.org/2000/svg" xmlns:xlink="http://www.w3.org/1999/xlink" width="48px" height="px" viewBox="0 0 48 21" version="1.1">
<g id="surface1">
<path style=" stroke:none;fill-rule:nonzero;fill:rgb(69.803922%,71.372549%,72.941176%);fill-opacity:1;" d="M 38.46875 9.789062 C 33.21875 14.878906 26.808594 18.957031 19.964844 20.390625 C 13.121094 21.824219 6.324219 20.550781 0 17.550781 C 3.953125 17.355469 7.632812 15.4375 10.660156 12.875 C 12.710938 14.53125 17.011719 15.003906 22.292969 14.261719 C 28.421875 13.398438 34.183594 9.308594 36.773438 7.867188 C 37.441406 8.085938 38.046875 9.222656 38.46875 9.789062 Z M 38.46875 9.789062 "/>
<path style=" stroke:none;fill-rule:nonzero;fill:rgb(77.647059%,79.215686%,80%);fill-opacity:1;" d="M 38.46875 9.789062 C 33.21875 14.878906 26.808594 18.957031 19.964844 20.390625 C 13.121094 21.824219 6.324219 20.550781 0 17.550781 C 3.917969 18.214844 12.023438 20.835938 20.777344 18.53125 C 31.078125 15.816406 37.425781 8.316406 37.714844 8.699219 C 38.003906 9.082031 38.257812 9.503906 38.46875 9.789062 Z M 38.46875 9.789062 "/>
<path style=" stroke:none;fill-rule:nonzero;fill:rgb(59.607843%,58.039216%,59.607843%);fill-opacity:1;" d="M 48 1.910156 C 48 2.953125 47.15625 3.800781 46.121094 3.800781 C 45.082031 3.800781 44.242188 2.953125 44.242188 1.910156 C 44.242188 0.867188 45.082031 0.0234375 46.121094 0.0234375 C 47.15625 0.0234375 48 0.867188 48 1.910156 Z M 48 1.910156 "/>
<path style=" stroke:none;fill-rule:nonzero;fill:rgb(59.607843%,58.039216%,59.607843%);fill-opacity:1;" d="M 38.414062 10.0625 L 36.527344 7.699219 L 38.257812 6.300781 L 40.144531 8.664062 Z M 38.414062 10.0625 "/>
<path style=" stroke:none;fill-rule:nonzero;fill:rgb(42.352941%,18.823529%,11.764706%);fill-opacity:1;" d="M 44.292969 2.011719 L 45.613281 3.664062 L 45.554688 3.746094 C 44.140625 5.769531 42.292969 7.449219 40.148438 8.664062 C 40.148438 8.664062 38.261719 6.300781 38.261719 6.300781 C 39.902344 4.457031 41.929688 3.003906 44.199219 2.050781 L 44.292969 2.007812 Z M 44.292969 2.011719 "/>
<path style=" stroke:none;fill-rule:nonzero;fill:rgb(59.607843%,58.039216%,59.607843%);fill-opacity:1;" d="M 35.660156 4.402344 L 38.746094 7.851562 L 37.925781 8.515625 L 35.191406 4.78125 Z M 35.660156 4.402344 "/>
<path style=" stroke:none;fill-rule:nonzero;fill:rgb(59.607843%,58.039216%,59.607843%);fill-opacity:1;" d="M 41.019531 11.972656 L 37.933594 8.527344 L 38.753906 7.863281 L 41.488281 11.59375 Z M 41.019531 11.972656 "/>
<path style=" stroke:none;fill-rule:nonzero;fill:rgb(59.607843%,58.039216%,59.607843%);fill-opacity:1;" d="M 41.753906 11.804688 C 41.753906 12.097656 41.519531 12.332031 41.226562 12.332031 C 40.9375 12.332031 40.703125 12.097656 40.703125 11.804688 C 40.703125 11.511719 40.9375 11.273438 41.226562 11.273438 C 41.519531 11.273438 41.753906 11.511719 41.753906 11.804688 Z M 41.753906 11.804688 "/>
<path style=" stroke:none;fill-rule:nonzero;fill:rgb(59.607843%,58.039216%,59.607843%);fill-opacity:1;" d="M 35.980469 4.574219 C 35.980469 4.867188 35.742188 5.101562 35.453125 5.101562 C 35.160156 5.101562 34.925781 4.867188 34.925781 4.574219 C 34.925781 4.28125 35.160156 4.042969 35.453125 4.042969 C 35.742188 4.042969 35.980469 4.28125 35.980469 4.574219 Z M 35.980469 4.574219 "/>
<path style=" stroke:none;fill-rule:nonzero;fill:rgb(59.607843%,58.039216%,59.607843%);fill-opacity:1;" d="M 39.324219 9.339844 C 39.953125 9.886719 40.738281 10.25 41.5625 10.375 C 43.253906 10.625 45.027344 9.808594 46.039062 8.425781 C 47.050781 7.039062 47.300781 5.15625 46.800781 3.511719 C 46.5625 3.332031 46.117188 3.460938 46.046875 3.757812 C 45.984375 4.027344 46.136719 4.304688 46.15625 4.574219 C 46.175781 4.84375 46.0625 5.109375 45.976562 5.359375 C 45.867188 5.691406 45.90625 5.898438 45.964844 6.21875 C 46.015625 6.496094 45.808594 6.703125 45.605469 6.859375 C 45.398438 7.019531 45.273438 7.28125 45.214844 7.546875 C 45.179688 7.703125 45.171875 7.875 45.089844 8.011719 C 44.925781 8.285156 44.546875 8.324219 44.28125 8.503906 C 44.082031 8.640625 43.949219 8.859375 43.742188 8.988281 C 43.476562 9.15625 43.136719 9.140625 42.820312 9.140625 C 42.605469 9.140625 42.375 9.152344 42.175781 9.242188 C 42.007812 9.320312 41.894531 9.460938 41.726562 9.535156 C 41.382812 9.683594 40.988281 9.6875 40.636719 9.574219 C 40.21875 9.445312 39.859375 9.167969 39.566406 8.839844 C 39.371094 8.941406 39.308594 9.121094 39.324219 9.34375 Z M 39.324219 9.339844 "/>
</g>
</svg>
