<?xml version="1.0" encoding="UTF-8"?>
<svg xmlns="http://www.w3.org/2000/svg" xmlns:xlink="http://www.w3.org/1999/xlink" width="48px" height="px" viewBox="0 0 47 35" version="1.1">
<defs>
<filter id="alpha" filterUnits="objectBoundingBox" x="0%" y="0%" width="100%" height="100%">
  <feColorMatrix type="matrix" in="SourceGraphic" values="0 0 0 0 1 0 0 0 0 1 0 0 0 0 1 0 0 0 1 0"/>
</filter>
<mask id="mask0">
  <g filter="url(#alpha)">
<rect x="0" y="0" width="47" height="35" style="fill:rgb(0%,0%,0%);fill-opacity:0.121569;stroke:none;"/>
  </g>
</mask>
<clipPath id="clip1">
  <rect x="0" y="0" width="47" height="35"/>
</clipPath>
<g id="surface5" clip-path="url(#clip1)">
<path style=" stroke:none;fill-rule:nonzero;fill:rgb(0%,0%,0%);fill-opacity:1;" d="M 11.367188 22.386719 C 10.949219 22.550781 10.691406 22.710938 10.308594 22.832031 C 10.261719 22.847656 6.878906 17.679688 7.074219 16.707031 C 7.171875 16.203125 7.671875 16.136719 8.195312 15.800781 C 8.617188 16.957031 9.074219 18.09375 9.640625 19.199219 C 10.207031 20.304688 10.722656 21.339844 11.367188 22.386719 Z M 11.367188 22.386719 "/>
</g>
</defs>
<g id="surface1">
<path style=" stroke:none;fill-rule:nonzero;fill:rgb(76.862745%,60.392157%,42.352941%);fill-opacity:1;" d="M 11.871094 14.503906 C 12.816406 14.429688 13.722656 14.320312 14.664062 14.136719 C 16.464844 13.78125 17.730469 13.238281 19.453125 12.636719 C 23.96875 11.0625 27.675781 7.738281 31.816406 5.324219 C 36.179688 2.785156 40.863281 1.046875 45.789062 0.00390625 C 46.308594 1.023438 46.828125 2.332031 46.960938 3.472656 C 47.089844 4.613281 46.945312 5.785156 46.015625 6.4375 C 44.960938 7.171875 43.5625 6.9375 42.285156 6.914062 C 39.941406 6.875 37.554688 7.460938 35.484375 8.574219 C 33.414062 9.683594 31.367188 11.3125 29.425781 12.640625 C 21.167969 18.292969 12.164062 22.261719 2.835938 25.816406 C 2.382812 25.992188 1.71875 24.964844 1.523438 24.683594 C 0.964844 23.875 0.632812 22.960938 0.332031 22.027344 C 0.136719 21.421875 -0.214844 20.472656 0.175781 19.875 C 0.421875 19.496094 3.175781 18.238281 3.753906 17.9375 C 4.847656 17.367188 5.949219 16.847656 7.078125 16.375 C 8.207031 15.898438 9.613281 14.828125 10.863281 14.621094 C 11.199219 14.5625 11.535156 14.527344 11.871094 14.5 Z M 11.871094 14.503906 "/>
<use xlink:href="#surface5" mask="url(#mask0)"/>
<path style=" stroke:none;fill-rule:nonzero;fill:rgb(60%,61.176471%,67.843137%);fill-opacity:1;" d="M 5.75 30.261719 C 6.28125 31.753906 6.480469 33.242188 6.457031 34.996094 C 8.363281 34.671875 10.304688 34.175781 12.015625 33.265625 C 14.058594 32.179688 15.367188 31.003906 16.632812 29.714844 C 15.210938 28.886719 14.285156 27.695312 13.457031 26.605469 C 10.652344 22.910156 8.390625 18.796875 6.769531 14.433594 C 6.714844 14.28125 3.171875 15.777344 2.851562 15.925781 C 2.210938 16.226562 1.582031 16.546875 0.96875 16.894531 C 0.535156 17.136719 0.121094 17.332031 0.328125 17.886719 C 0.570312 18.523438 1.003906 19.140625 1.316406 19.746094 C 1.648438 20.382812 1.96875 21.027344 2.285156 21.675781 C 2.917969 22.980469 3.464844 24.328125 4.027344 25.664062 C 4.664062 27.171875 5.203125 28.722656 5.753906 30.261719 Z M 5.75 30.261719 "/>
<path style=" stroke:none;fill-rule:nonzero;fill:rgb(70.588235%,71.372549%,78.431373%);fill-opacity:1;" d="M 6.3125 32.53125 C 6.425781 33.308594 6.46875 34.121094 6.457031 34.996094 C 8.363281 34.671875 10.304688 34.175781 12.015625 33.265625 C 14.058594 32.179688 15.367188 31.003906 16.632812 29.714844 C 15.921875 29.300781 15.335938 28.796875 14.824219 28.257812 C 13.242188 30.1875 9.097656 32.21875 6.3125 32.53125 Z M 6.3125 32.53125 "/>
</g>
</svg>
