<?xml version="1.0" encoding="UTF-8"?>
<svg xmlns="http://www.w3.org/2000/svg" xmlns:xlink="http://www.w3.org/1999/xlink" width="48px" height="px" viewBox="0 0 47 41" version="1.1">
<g id="surface1">
<path style=" stroke:none;fill-rule:nonzero;fill:rgb(90.196078%,90.588235%,90.980392%);fill-opacity:1;" d="M 6.496094 20.007812 L 6.796875 19.765625 L 19.859375 36.335938 L 19.558594 36.582031 Z M 6.496094 20.007812 "/>
<path style=" stroke:none;fill-rule:nonzero;fill:rgb(90.196078%,90.588235%,90.980392%);fill-opacity:1;" d="M 4.578125 21.765625 L 4.878906 21.523438 L 17.699219 37.789062 L 17.398438 38.035156 Z M 4.578125 21.765625 "/>
<path style=" stroke:none;fill-rule:nonzero;fill:rgb(90.196078%,90.588235%,90.980392%);fill-opacity:1;" d="M 3.242188 24.261719 L 3.542969 24.015625 L 15.058594 38.628906 L 14.757812 38.875 Z M 3.242188 24.261719 "/>
<path style=" stroke:none;fill-rule:nonzero;fill:rgb(90.196078%,90.588235%,90.980392%);fill-opacity:1;" d="M 1.855469 26.691406 L 2.15625 26.445312 L 12.417969 39.46875 L 12.117188 39.714844 Z M 1.855469 26.691406 "/>
<path style=" stroke:none;fill-rule:nonzero;fill:rgb(90.196078%,90.588235%,90.980392%);fill-opacity:1;" d="M 0.949219 29.734375 L 1.25 29.492188 L 9.292969 39.695312 L 8.992188 39.941406 Z M 0.949219 29.734375 "/>
<path style=" stroke:none;fill-rule:nonzero;fill:rgb(90.196078%,90.588235%,90.980392%);fill-opacity:1;" d="M 8.65625 18.558594 L 8.957031 18.3125 L 21.777344 34.582031 L 21.476562 34.824219 Z M 8.65625 18.558594 "/>
<path style=" stroke:none;fill-rule:nonzero;fill:rgb(90.196078%,90.588235%,90.980392%);fill-opacity:1;" d="M 11.296875 17.71875 L 11.597656 17.472656 L 23.113281 32.085938 L 22.8125 32.332031 Z M 11.296875 17.71875 "/>
<path style=" stroke:none;fill-rule:nonzero;fill:rgb(90.196078%,90.588235%,90.980392%);fill-opacity:1;" d="M 13.941406 16.878906 L 14.242188 16.632812 L 24.503906 29.65625 L 24.203125 29.902344 Z M 13.941406 16.878906 "/>
<path style=" stroke:none;fill-rule:nonzero;fill:rgb(90.196078%,90.588235%,90.980392%);fill-opacity:1;" d="M 17.0625 16.652344 L 17.363281 16.40625 L 25.40625 26.613281 L 25.105469 26.855469 Z M 17.0625 16.652344 "/>
<path style=" stroke:none;fill-rule:nonzero;fill:rgb(90.196078%,90.588235%,90.980392%);fill-opacity:1;" d="M 2.839844 36.316406 L 23.261719 19.710938 L 23.503906 20.015625 L 3.082031 36.625 Z M 2.839844 36.316406 "/>
<path style=" stroke:none;fill-rule:nonzero;fill:rgb(90.196078%,90.588235%,90.980392%);fill-opacity:1;" d="M 1.847656 33.96875 L 21.382812 18.078125 L 21.625 18.386719 L 2.089844 34.273438 Z M 1.847656 33.96875 "/>
<path style=" stroke:none;fill-rule:nonzero;fill:rgb(90.196078%,90.588235%,90.980392%);fill-opacity:1;" d="M 1.09375 31.421875 L 19.164062 16.726562 L 19.40625 17.03125 L 1.335938 31.726562 Z M 1.09375 31.421875 "/>
<path style=" stroke:none;fill-rule:nonzero;fill:rgb(90.196078%,90.588235%,90.980392%);fill-opacity:1;" d="M 1.171875 28.203125 L 15.835938 16.277344 L 16.074219 16.582031 L 1.410156 28.507812 Z M 1.171875 28.203125 "/>
<path style=" stroke:none;fill-rule:nonzero;fill:rgb(90.196078%,90.588235%,90.980392%);fill-opacity:1;" d="M 2.839844 36.316406 L 23.261719 19.710938 L 23.503906 20.015625 L 3.082031 36.625 Z M 2.839844 36.316406 "/>
<path style=" stroke:none;fill-rule:nonzero;fill:rgb(90.196078%,90.588235%,90.980392%);fill-opacity:1;" d="M 4.882812 37.816406 L 24.417969 21.929688 L 24.65625 22.234375 L 5.125 38.121094 Z M 4.882812 37.816406 "/>
<path style=" stroke:none;fill-rule:nonzero;fill:rgb(90.196078%,90.588235%,90.980392%);fill-opacity:1;" d="M 7.160156 39.121094 L 25.230469 24.421875 L 25.472656 24.730469 L 7.402344 39.425781 Z M 7.160156 39.121094 "/>
<path style=" stroke:none;fill-rule:nonzero;fill:rgb(90.196078%,90.588235%,90.980392%);fill-opacity:1;" d="M 10.269531 39.75 L 24.933594 27.824219 L 25.175781 28.128906 L 10.511719 40.058594 Z M 10.269531 39.75 "/>
<path style=" stroke:none;fill-rule:nonzero;fill:rgb(73.72549%,74.509804%,75.294118%);fill-opacity:1;" d="M 24.195312 19.203125 C 26.144531 21.675781 26.796875 24.941406 26.03125 28.394531 C 25.289062 31.765625 23.273438 34.925781 20.363281 37.292969 C 17.453125 39.660156 13.976562 40.964844 10.578125 40.964844 C 7.089844 40.96875 4.097656 39.605469 2.148438 37.132812 C 0.199219 34.660156 -0.453125 31.394531 0.3125 27.941406 C 1.058594 24.570312 3.070312 21.410156 5.980469 19.042969 C 8.894531 16.675781 12.367188 15.371094 15.765625 15.371094 C 19.253906 15.367188 22.246094 16.730469 24.195312 19.203125 Z M 3.777344 35.808594 C 7.023438 39.929688 13.878906 39.851562 19.058594 35.640625 C 24.242188 31.425781 25.816406 24.644531 22.570312 20.523438 C 19.324219 16.40625 12.464844 16.480469 7.285156 20.695312 C 2.101562 24.910156 0.527344 31.691406 3.777344 35.808594 Z M 3.777344 35.808594 "/>
<path style=" stroke:none;fill-rule:nonzero;fill:rgb(73.72549%,74.509804%,75.294118%);fill-opacity:1;" d="M 31.808594 12.472656 L 33.0625 14.164062 C 29.476562 16.90625 27.621094 22.179688 26.148438 27.472656 L 24.140625 26.898438 C 24.851562 24.351562 25.667969 21.648438 26.851562 19.105469 C 28.234375 16.136719 29.855469 13.96875 31.808594 12.472656 Z M 31.808594 12.472656 "/>
<path style=" stroke:none;fill-rule:nonzero;fill:rgb(73.72549%,74.509804%,75.294118%);fill-opacity:1;" d="M 32.308594 13.113281 C 30.449219 14.722656 28.011719 15.855469 24.855469 16.574219 C 22.15625 17.191406 19.378906 17.410156 16.78125 17.554688 L 16.664062 15.441406 C 25.8125 14.929688 28.941406 13.246094 30.960938 11.5 Z M 32.308594 13.113281 "/>
<path style=" stroke:none;fill-rule:nonzero;fill:rgb(15.294118%,66.666667%,88.235294%);fill-opacity:1;" d="M 32.421875 14.40625 L 30.5625 12.046875 C 30.296875 11.710938 30.351562 11.21875 30.683594 10.949219 L 43.890625 0.207031 C 44.222656 -0.0625 44.707031 -0.0078125 44.972656 0.328125 L 46.832031 2.6875 C 47.097656 3.023438 47.042969 3.515625 46.710938 3.785156 L 33.503906 14.527344 C 33.171875 14.796875 32.6875 14.742188 32.421875 14.40625 Z M 32.421875 14.40625 "/>
</g>
</svg>
