<svg id="Layer_2" xmlns="http://www.w3.org/2000/svg"><defs><style>.cls-1{fill:#fff;}</style></defs><g id="Layer_1-2"><g id="Eye-Glisten">
  <path id="eye" d="M32.27,22.9c0,11.13-3.41,23.12-15.88,23.26C2.3,46.33,0,34.03,0,23.27S2.75,.15,15.88,0c12.95-.15,16.39,12.12,16.39,22.9Z"/>
  <path id="eye-2" d="M145.3,22.9c0,11.13-3.41,23.12-15.88,23.26-14.09,.16-16.39-12.14-16.39-22.9S115.78,.15,128.9,0c12.95-.15,16.39,12.12,16.39,22.9Z"/><path class="cls-1" d="M122.6,5.34c2.31-1.54,5.06-2.02,7.89-.34,1.69,1.01,3.12,2.51,3.86,4.34s.74,3.98-.16,5.73c-.88,1.71-2.5,2.88-3.91,4.18-1.37,1.26-2.59,2.68-4.12,3.74s-3.45,1.75-5.24,1.28c-4.09-1.08-5.18-7.07-4.21-10.53,.85-2.99,3.03-6.5,5.89-8.39Z"/><path class="cls-1" d="M131.65,24.98c.4-.74,.83-1.47,1.29-2.2,.99-1.55,2.68-2.95,4.49-2.62,1.22,.22,2.17,1.17,2.86,2.19,2.91,4.31,1.67,9.87-.64,14.15-1.56,2.89-4.39,5.08-7.58,5.86-.93,.23-1.92,.34-2.84,.1-2.16-.57-2.98-3.05-2.36-5.03,.69-2.19,1.53-4.4,2.28-6.61,.69-2.04,1.5-3.97,2.5-5.84Z"/><path class="cls-1" d="M119.51,37.48c.41,.4,.89,.76,1.45,.85,.92,.15,1.79-.47,2.46-1.12,1.73-1.7,2.92-3.95,3.37-6.34,.23-1.24,.15-2.74-.89-3.46-.81-.56-1.9-.4-2.87-.22-2.02,.37-4.73,1.24-5.42,3.45s.22,5.2,1.9,6.84Z"/><path class="cls-1" d="M137.2,13.12c-.16,.39-.32,.77-.48,1.09-.38,.76-.76,1.61-.49,2.41,.31,.94,1.37,1.38,2.3,1.71,.96,.33,2.11,.64,2.91,.02,.74-.57,.81-1.63,.81-2.56,0-.87,0-1.76-.23-2.6-.33-1.23-1.72-3.58-3.12-2.69-.8,.51-1.29,1.62-1.71,2.63Z"/><path class="cls-1" d="M9.45,5.37c2.3-1.53,5.04-2.02,7.86-.34,1.69,1,3.11,2.5,3.85,4.32s.74,3.96-.16,5.71c-.88,1.7-2.49,2.87-3.9,4.17-1.36,1.25-2.58,2.67-4.1,3.73s-3.43,1.74-5.22,1.27c-4.08-1.07-5.16-7.04-4.19-10.49,.84-2.98,3.02-6.47,5.86-8.36Z"/><path class="cls-1" d="M18.49,24.98c.4-.74,.83-1.47,1.29-2.2,.99-1.55,2.68-2.95,4.49-2.62,1.22,.22,2.17,1.17,2.86,2.19,2.91,4.31,1.67,9.87-.64,14.15-1.56,2.89-4.39,5.08-7.58,5.86-.93,.23-1.92,.34-2.84,.1-2.16-.57-2.98-3.05-2.36-5.03,.69-2.19,1.53-4.4,2.28-6.61,.69-2.04,1.5-3.97,2.5-5.84Z"/><path class="cls-1" d="M6.35,37.48c.41,.4,.89,.76,1.45,.85,.92,.15,1.79-.47,2.46-1.12,1.73-1.7,2.92-3.95,3.37-6.34,.23-1.24,.15-2.74-.89-3.46-.81-.56-1.9-.4-2.87-.22-2.02,.37-4.73,1.24-5.42,3.45s.22,5.2,1.9,6.84Z"/><path class="cls-1" d="M24.04,13.12c-.16,.39-.32,.77-.48,1.09-.38,.76-.76,1.61-.49,2.41,.31,.94,1.37,1.38,2.3,1.71,.96,.33,2.11,.64,2.91,.02,.74-.57,.81-1.63,.81-2.56,0-.87,0-1.76-.23-2.6-.33-1.23-1.72-3.58-3.12-2.69-.8,.51-1.29,1.62-1.71,2.63Z"/>
</g></g></svg>
