<svg id="Layer_2" xmlns="http://www.w3.org/2000/svg"><g id="Layer_1-2"><g id="Eye-ClosedUp">
  <path id="eye" d="M.69,17.64C10.88,8.02,27.16,5.98,38.91,13.35c3.88,2.38,7.29,5.56,9.86,9.34,.13,.19,.38,.23,.57,.1,.21-.12,.18-.39,.2-.59,.16-2.91-.59-5.66-1.76-8.2C39.95-2.39,15.33-4.94,3.77,9.39,2.01,11.63,.61,14.14,.06,17.01l-.05,.27c-.08,.38,.4,.64,.68,.37H.69Z"/>
  <path id="eye-2" d="M113.98,23.13c7.6-11.63,22.97-17.27,36.2-12.76,4.36,1.44,8.45,3.76,11.86,6.84,.17,.15,.43,.14,.58-.03,.18-.16,.08-.42,.05-.62-.55-2.86-1.94-5.36-3.7-7.57-11.58-14.14-36.18-11.08-43.98,5.43-1.18,2.57-1.93,5.32-1.77,8.22v.27c.03,.38,.56,.53,.77,.2h0Z"/>
</g></g></svg>
