<svg id="Layer_2" xmlns="http://www.w3.org/2000/svg"><defs><style>.cls-1{fill:#fff;}</style></defs><g id="Layer_1-2"><g id="Eye-Tired"><path d="M4.48,0C3.12,0,2.04,1.14,2.1,2.49c.55,11.85,3.84,20.84,17.62,20.84,12.18,0,16.71-8.97,17.56-20.78C37.38,1.17,36.28,0,34.9,0H4.48Z"/><path d="M37.22,2.76c-.57,13.23-5.28,25.5-20.26,26.43,5.67-1.17,11.04-4.38,13.35-9.77,2.4-5.21,2.33-10.98,1.9-16.66,0,0,5,0,5,0h0Z"/><path d="M146.3,0c1.36,0,2.44,1.14,2.38,2.49-.55,11.85-3.84,20.84-17.62,20.84-12.18,0-16.71-8.97-17.56-20.78C113.39,1.17,114.49,0,115.87,0h30.43Z"/><path d="M118.56,2.76c-.72,8.26-.18,17.92,7.21,23.1,2.36,1.65,5.16,2.66,8.05,3.34-2.95-.27-5.94-.87-8.7-2.27-8.75-4.39-11.14-15.22-11.56-24.16,0,0,5,0,5,0h0Z"/><ellipse class="cls-1" cx="6.26" cy="7.5" rx="6.26" ry="2.73"/><ellipse class="cls-1" cx="118.06" cy="7.5" rx="6.26" ry="2.73"/></g></g></svg>
