<?xml version="1.0" encoding="UTF-8"?><svg id="Layer_2" xmlns="http://www.w3.org/2000/svg"><defs><style>.eye-1{fill:#fff;}</style></defs><g id="Eyes"><g id="Eye-Wink"><g id="eye"><ellipse cx="13.01" cy="20.06" rx="13.01" ry="20.06"/><ellipse class="eye-1" cx="22.05" cy="11.97" rx="8.16" ry="4.04"/></g><path d="M150.85,23.48c-10.29-8.24-25.7-8.9-36.14-1.1-3.46,2.53-6.41,5.77-8.52,9.5-.1,.18-.34,.25-.52,.14-.21-.1-.2-.36-.23-.54-.38-2.72,.12-5.35,1.03-7.82,6.07-15.95,28.95-20.22,40.88-7.68,1.82,1.96,3.32,4.21,4.06,6.85l.07,.24c.1,.35-.33,.63-.61,.4h0Z"/></g></g></svg>
