<?xml version="1.0" encoding="UTF-8"?><svg id="Layer_2" xmlns="http://www.w3.org/2000/svg"><defs><style>.laft-1{fill:#c49a6c;}.laft-2{fill:#14d1df;}.laft-3{fill:#231f20;}</style></defs><g id="Left"><g id="Left-Paintbrush"><path class="laft-3" d="M27.33,60.91C12.24,42.2,17.58,20.44,6.77,0c8.64,.36,17.36,1.6,25.29,5.03,15.58,6.74,28.48,27.41,26.85,44.62-1.33,14.03-14.98,27.18-27.76,15.34-1.42-1.31-2.69-2.68-3.83-4.09Z"/><path class="laft-2" d="M19.97,38.42c-.94,.27-1.9,.26-2.79-.19-1.9-.96-2.44-3.38-2.68-5.5C13.12,20.74,12.62,11.07,6.77,0c8.64,.36,17.36,1.6,25.29,5.03,7.91,3.42,12.9,8.14,10.21,17.38-1.08,3.72-4.06,7.07-7.89,7.7-1.75,.29-3.61,.02-5.28,.63-2.36,.86-3.76,3.2-5.4,5.09-.98,1.14-2.34,2.18-3.74,2.59Z"/><path class="laft-1" d="M127.84,221.36c2.78,1.56,5.84,2.05,7.58-.36,1.05-1.45,1-3.4,.83-5.19-1.19-12.24-62.03-160.04-73.43-163.52-8.29-2.53-18.54,1.19-23.19,8.47-4.88,7.65-5.76,8.54-2.33,18.18,2.9,8.15,50.91,101.04,86.51,139.24,1.1,1.18,2.53,2.34,4.04,3.18Z"/><path class="laft-2" d="M7.38,57.59c-.49,1.73-1.01,3.58-.51,5.31,1.24,4.25,7.94,4.34,10.83,.98s2.93-8.26,2.57-12.68c-.72-8.85-2.02-18.84-5.74-26.95-3.37,10.4-4.06,22.49-7.15,33.34Z"/><path class="laft-2" d="M6.03,74.98c3.75,.1,7.71,2.91,6.89,7.43-.73,3.97-5.61,6.52-9.25,4.83-2.97-1.38-4.14-4.95-3.48-8.01,.65-3.02,3.19-4.32,5.85-4.25Z"/></g></g></svg>
