<?xml version="1.0" encoding="UTF-8"?><svg id="Layer_2" xmlns="http://www.w3.org/2000/svg"><defs><style>.whiskk-1{fill:none;stroke:#bcbec0;stroke-miterlimit:10;stroke-width:3px;}.whiskk-2{fill:#bf9158;}.whiskk-3{fill:#d1d3d4;}</style></defs><g id="Left"><g id="Left-Whisk"><path class="whiskk-1" d="M94.67,137.11C65.79,98.74,6.68,82.02,1.5,34.03,1.26,10.02,23.25-3.99,45.29,3.54c47.79,19.23,38.52,85.33,58.37,127.42"/><path class="whiskk-1" d="M96.34,136.07c-28.26-27.77-51.33-37.27-74.42-69.41C7.63,46.77,13.07,13.64,37.87,8.95c60.88-11.5,42.36,83.15,66.39,121.56"/><path class="whiskk-1" d="M95.69,135.76C68.72,103.7,8.74,61.44,10.43,19.46c1.88-15.21,22.49-15.9,31.22-7.13,35.28,35.44,38.41,74.33,62.33,118.52"/><path class="whiskk-1" d="M97.79,135.79C71.74,98.83,26.55,79.31,19.06,34.54,15.2,7.99,41.39-1.15,57.86,18.07c28.3,37.86,22.13,73.04,43.35,114.84"/><path class="whiskk-1" d="M97.83,135.75C92.41,128.07-15.14-3.88,25.84,11.4c34.3,41.27,43.75,78.76,73.89,123.17"/><path class="whiskk-1" d="M102.37,132.58c-88.32-175.43-124.69-155.57-1.57,.7"/><rect class="whiskk-3" x="97.64" y="131.98" width="15.79" height="24.23" transform="translate(-60.33 77.82) rotate(-32)"/><path class="whiskk-2" d="M160.63,206.76c-18.16-26.08-23.62-31.84-41.78-57.91l-14.56,9.1c15.48,27.75,18.26,35.19,33.74,62.94,2.17,3.89,4.37,7.83,7.46,11.04,3.09,3.21,7.2,5.67,11.66,5.84,2.08,.08,4.2-.45,6.02-1.45v.02c.06-.03,.11-.07,.16-.11,.05-.03,.11-.06,.17-.09v-.02c1.69-1.2,3.09-2.88,3.93-4.78,1.8-4.07,1.4-8.85-.14-13.04-1.54-4.18-4.11-7.89-6.66-11.55Z"/></g></g></svg>
