<?xml version="1.0" encoding="UTF-8"?><svg xmlns="http://www.w3.org/2000/svg"><defs><style>.left-1{fill:#f7c96f;}.left-2{fill:#663f25;}.left-3{mix-blend-mode:multiply;opacity:.12;}.left-4{fill:none;stroke:#a97c50;stroke-miterlimit:10;stroke-width:11px;}.left-5{isolation:isolate;}</style></defs><g class="left-5"><g id="Layer_2"><g id="Left"><g id="Left-Broom"><path class="left-2" d="M73.72,131.57c2.74,14.08,6.43,27.52,10.8,39.55,1.2,3.3,2.41,6.64,2.74,10.13,.35,3.68-.28,7.38-.8,11.04-6.78,47.76,7.51,101.37,11.66,149.62,5.05,58.73,9.41,117.51,14.02,176.27,.57,7.29,.98,15.05-2.55,21.45s-12.55,10.3-18.41,5.93c-14.83-116.3-21.12-232.8-34.1-349.32-3.57-32.03-5.9-64.2-10.23-96.15-3.17-23.44-20.62-62.62-3.33-82.91C50.35,9.15,59.99,4.09,69.68,0c10.76,17.36,1.05,41.1-.48,60.04-1.92,23.87-.05,48.04,4.51,71.53Z"/><path class="left-1" d="M38.07,517.99c-4.79,41.68-15.81,83.31-38.07,118.88,26.4,5.97,54.65,3.53,79.63-6.89l-.62,12.55c12.99,1.59,25.65-6.41,33.29-17.03,7.65-10.62,11.25-23.53,14.72-36.15,1.88,16.64,3.77,33.29,5.65,49.93,17.53-2.9,24.15-24.32,26.42-41.94,4.01-31.16,5.75-62.96,.25-93.89-5.5-30.93-18.73-61.15-41.28-83.04,8.7-16.05,15.17-33.3,19.19-51.1-16.92-5.62-35.57-5.93-52.67-.89,1.01,9.97,2.01,19.93,3.02,29.9-2.42-9.5-5.57-19.99-14.07-24.86-10.9-6.23-24.45-.08-35.42,6.02,6.31,8.73,25.4,26.55,26.81,37.22,1.21,9.13-9.01,16.41-12.98,25.68-10.17,23.73-10.97,50.33-13.87,75.61Z"/><path class="left-3" d="M90.19,569.52c3.15-30.12,6.31-60.27,7.2-90.54,3.6,9.96,3.63,20.8,3.45,31.39-.62,35.88-3.17,71.73-7.63,107.33-1.13,8.99-3.39,22.38-13.09,25.92-2.36-24.94,7.43-48.84,10.07-74.11Z"/><path class="left-4" d="M64.19,419.68c17.22,3.33,36.7,2.3,58.07-.03"/><path class="left-3" d="M61.78,553.58c-.29,28.01-5.27,56.03-5.55,84.04-7.5,.45-14.6,4.82-16.47-3.27-1.48-6.43,5.06-20.32,6.56-26.97,3.78-16.8,12.15-35.74,15.46-53.81Z"/></g></g></g></g></svg>
