<?xml version="1.0" encoding="UTF-8"?><svg xmlns="http://www.w3.org/2000/svg"><defs><style>.left-1{fill:#663f25;}.left-2,.left-3{fill:#7289ff;}.left-4{fill:#3c2415;}.left-3{mix-blend-mode:multiply;}.left-5{isolation:isolate;}.left-6{fill:#fff;mix-blend-mode:overlay;opacity:.44;}</style></defs><g class="left-5"><g id="Layer_2"><g id="Left"><g id="Left-Staff"><path class="left-1" d="M41.02,70.84c8.22,4.52,19.09,7.57,28.13,9.08,2.29-11.68,8.62-23.81,7.89-35.92-.47-7.81-4.19-15.04-5.66-22.72-1.47-7.68,.27-17.13,7.31-20.54-2,.96,17.42,53.22,20,59.66,.76,1.89,1.47,3.86,1.49,5.9,.03,2.62-1.09,5.11-2.25,7.45-3.9,7.88-8.61,15.39-11.62,23.65-6.76,18.58,5.33,31.06,7.95,49.24,2.52,17.47-1.48,33.35,.71,50.3,3.11,24.04,6.57,47.72,3.77,72.01-.97,8.39-2.61,16.73-2.6,25.17,0,11,2.79,21.78,5.28,32.5,4.54,19.55-.63,40.35-.18,60.17,.46,20.49,6.85,40.78,8.16,61.27,.48,7.44,.95,14.9,2.52,22.19,5.45,25.41,16.04,23.47,12.35,49.44-4.76,33.43,3.01,42.51-.34,75.72-.78,7.73-1.56,15.47-2.34,23.2-.45,4.44-4.82,4.92-9.1,6.19-5.92,1.76-6.11-2.2-6.56-8.35-2.41-32.97-3.17-66.69-10.08-98.65-6.24-28.85-3.31-12.77-7.62-41.72-2.26-15.19-10.24-27.71-10.8-43.06-.41-11.32,3.01-22.85,.32-33.85-1.47-5.99-4.69-11.5-5.54-17.61-1.63-11.75,4.44-23.2,4.94-34.87,.44-10.26-1.39-21.13-2.04-31.36-1.71-26.8-.83-53.66-.38-80.48,.13-7.43,.21-15.11-2.66-21.97-1.47-3.51-3.66-6.68-4.97-10.25-3.26-8.91-3.53-19.49-6.11-28.6-2.46-8.7-.39-14.73-1.47-23.68-.74-6.17-7.56-12.72-12.3-16.29-11.86-8.95-29.88-13.43-33.04-27.95-1.23-5.64,.21-11.98-2.7-16.97-2.08-3.55-5.99-5.65-8.43-8.97-4.44-6.02-3.11-14.36-1.58-21.69,1.63-7.8,3.26-15.6,4.89-23.4C8.5,24.78,26.54-.34,26.57,20.49c.01,8.96-5.84,15.5-3.6,25.55s8.82,19.72,18.05,24.8Z"/><path class="left-2" d="M15.24,48.9c-.63,5.1,.35,10.28,3.75,15.49,4.5,6.91,8.99,13.81,13.49,20.72,1.75,2.69,3.56,5.44,6.17,7.31,1.89,1.35,4.1,2.16,6.27,2.96,5.8,2.12,11.59,4.25,17.39,6.37,2.87,1.04,19.31-17.04,21.23-19.85,6.68-9.76,5-31.95-.08-42.45C74.09,20.03,73.55,5.88,50.12,.27c-.91-.22-1.89-.43-2.76-.1-.82,.31-1.39,1.04-1.92,1.73-7.46,13.37-28.07,29.71-30.19,47Z"/><path class="left-3" d="M46.26,93.53c-5.09-2.77-10.41-5.76-13.39-10.73-.22-.37-.44-.77-.42-1.21,.03-.62,.52-1.11,.97-1.54,2.67-2.51,5.16-5.21,7.45-8.07,7.18-8.96,12.54-19.65,21.65-26.64,.45-.34,.96-.69,1.52-.66,.56,.03,1.01,.43,1.42,.81,5.51,5.08,10.76,10.43,15.72,16.04,2.33,2.63,4.69,5.54,5.06,9.03,.44,4.19-2.09,8.05-4.54,11.48-3.85,5.41-7.88,10.87-13.35,14.64-2.75,1.9-6.83,4.58-10.22,3.55-3.91-1.18-8.25-4.72-11.88-6.7Z"/><path class="left-6" d="M55.91,16.38c.47,2.25,.69,4.42,.62,6.15-9.42,4.49-18.37,9.97-26.66,16.31-3.72,2.84-7.75,6.02-12.43,5.85,2.98-4.9,6.06-9.73,9.46-14.36,5.19-7.07,10.45-14.09,15.78-21.06,1.89-2.47,4.1-7.21,7.49-4.48,2.8,2.25,4.79,7.08,5.74,11.59Z"/><path class="left-1" d="M46.27,71.74c-.9-3.43-2.03-6.82-2.37-10.35-1.46-15.2,11.77-30.74,5.4-44.62,5.95,4.78,11.86,10.65,12.94,18.21,1.23,8.62-4.17,16.85-4.52,25.55-.16,3.92,.72,7.81,1.59,11.64,2.48,10.89,4.95,21.77,7.43,32.66,.57,2.52,1.14,5.2,.31,7.65-1.42,4.16-6.58,6.08-10.88,5.19-15.54-3.2-6.6-33.37-9.89-45.92Z"/><path class="left-4" d="M75.26,157.41c-3.23,3.39-7.04,6.22-10.09,9.77-7.12,8.31-9.37,20.19-7.06,30.88,2.31,10.7,8.83,20.2,17.14,27.32-2.6-14.36,.04-29.61,7.31-42.27,5.04-8.77,12.24-16.42,15.4-26.02,2.61-7.96,2.02-16.45-.45-24.36-1.07-3.41-7.04-20.75-11.86-15.69-2.13,2.23,.49,17.6-.5,21.78-1.63,6.91-4.98,13.43-9.89,18.58Z"/><path class="left-4" d="M87.52,267.54c-3.43,2.85-7.42,5-10.67,8.05-6.46,6.06-9.41,15.12-9.84,23.97s1.42,17.62,3.26,26.28c.15,.68,.32,1.43,.87,1.86,1.76,1.39,3.49-1.71,3.89-3.92,1.88-10.46,10.91-17.83,17.41-26.23,9.46-12.21,21.71-47.08,7.4-59.77-.38,11.34-3.15,22.15-12.33,29.76Z"/><path class="left-4" d="M77.15,442.69c4.29-4.23,3.58-11.14,3.86-17.16,.79-16.82,11.73-24.58,20.77-37.04,3.66-5.04,8.67-24.97-4.24-21.53-8.17,2.17-19.51,28.07-21.73,35.64-1.91,6.52-2.78,13.37-2.57,20.16,.07,2.07,4.15,19.68,3.91,19.93Z"/><path class="left-4" d="M86.46,492.57c-2.04,8.33,1.75,16.86,5.45,24.6,1.46,3.06,2.92,6.12,4.38,9.17,9.49-13.71,16.64-29.04,21.06-45.11,1.62-5.9,2.74-12.7-.74-17.73-6.54-9.47-11.48,4.5-15.17,8.85-5.47,6.42-12.87,11.58-14.99,20.22Z"/><path class="left-4" d="M105.56,571.51c1.26-3.49,2.52-6.98,3.78-10.46,2.24-6.19,15.93-24.77,17.5-8.45,.83,8.64-3.73,17.09-10.06,23.02-4.29,4.02-9.94,8.91-16.06,9.29,1.61-4.46,3.22-8.93,4.84-13.39Z"/></g></g></g></g></svg>
