<?xml version="1.0" encoding="UTF-8"?><svg id="Layer_2" xmlns="http://www.w3.org/2000/svg"><defs><style>.hook-1{fill:#b4b6c8;}</style></defs><g id="Left"><g id="Left-Hook"><path class="hook-1" d="M212.87,110.39c-27.13,2.28-62.43,.89-85.39,15.65-4.63,3.13-7.71,6.72-10.22,11.16-3.53,5.68-7.59,11.04-12.28,15.84-19.54,20.87-51.64,31.26-77.71,15.87C12.73,160.61,1.81,145.53,.25,128.66c-2.58-25.18,14.95-51.45,39.61-55.54,0,0,.15,.37,.15,.37-5.41,3.74-9.89,8.21-13.36,13.17-8.16,11.59-11.1,26.37-6.91,39.72,3.66,11.27,14.65,20.2,25.76,22.43,9.05,1.97,18.41-.89,26.25-6,7.49-4.95,13.68-11.87,18.39-19.53,.55-.91,1.64-2.81,2.17-3.75,4.37-7.71,10.72-14.06,17.45-18.83,18.79-12.97,41.12-16.54,63.01-17.8,13.08-.68,26.67-.08,39.37,.52,0,0,.72,26.99,.72,26.99h0Z"/><path d="M286.45,168.6c-9.79,.51-30.09,3.22-53.9,1.97-21.89-1.15-43.57-8.66-59.3-24.08-20.86-20.45-29.31-50.89-23.01-79.21,4.69-21.08,19.12-37.72,38.14-47.18S253.35,0,253.35,0c8.83,30.31,26.08,142.67,33.1,168.6Z"/></g></g></svg>
