<?xml version="1.0" encoding="UTF-8"?><svg id="Layer_2" xmlns="http://www.w3.org/2000/svg"><defs><style>.left-1{fill:#e6e7e8;}.left-2{fill:#a7a9ac;}.left-3{fill:#be1e2d;}.left-4{fill:#d1d3d4;}.left-5{stroke:#58595b;stroke-linecap:round;stroke-width:2px;}.left-5,.left-6{fill:none;stroke-miterlimit:10;}.left-6{stroke:#be1e2d;stroke-width:4px;}</style></defs><g id="Left"><g id="Left-Notebook"><polygon class="left-1" points="189.93 169.74 69.55 222.77 1.72 50.28 119.4 13.11 189.93 169.74"/><polygon class="left-4" points="1.72 50.28 0 63.66 64.15 244.38 186.17 189.09 189.93 169.74 69.55 222.77 1.72 50.28"/><path class="left-2" d="M32.42,137.79c10.24,26.12,24.97,64.03,35.17,90.63,0,0-.61-.26-.61-.26,13.19-5.72,39.78-17.13,53-22.77,13.2-5.63,39.91-16.88,53.16-22.4-13.17,5.84-39.62,17.46-52.82,23.19-13.42,5.82-39.97,17.26-53.42,23.01-10.18-26.95-24.63-64.75-34.48-91.4h0Z"/><path class="left-2" d="M37.77,161.84c9.75,24.05,19.41,48.14,28.92,72.28,0,0-.61-.25-.61-.25l29.1-12.69c25.93-11.27,61.48-26.55,87.53-37.55-25.82,11.56-61.2,27.15-87.14,38.44,0,0-29.12,12.64-29.12,12.64l-.44,.19s-.17-.44-.17-.44c-9.48-24.16-18.82-48.37-28.06-72.62h0Z"/><path class="left-2" d="M44.24,186.43c7.3,17.8,14.49,35.64,21.55,53.54,0,0-.61-.25-.61-.25l27.98-12.49c24.93-11.09,59.12-26.12,84.17-36.95-24.82,11.38-58.84,26.73-83.78,37.84,0,0-28,12.44-28,12.44l-.44,.2s-.17-.45-.17-.45c-7.03-17.91-13.91-35.87-20.69-53.88h0Z"/><g><line class="left-5" x1="26.75" y1="68.73" x2="111.61" y2="40.8"/><line class="left-5" x1="33.78" y1="86.95" x2="119.85" y2="57.58"/><line class="left-5" x1="40.81" y1="105.17" x2="128.09" y2="74.36"/><line class="left-5" x1="47.83" y1="123.38" x2="136.33" y2="91.14"/><line class="left-5" x1="54.86" y1="141.6" x2="144.58" y2="107.92"/><line class="left-5" x1="61.89" y1="159.82" x2="152.82" y2="124.7"/><line class="left-5" x1="68.91" y1="178.04" x2="161.06" y2="141.48"/><line class="left-5" x1="75.94" y1="196.25" x2="169.3" y2="158.26"/></g><path class="left-6" d="M5.72,48.98c-.83-2.6-3.91-8.7-1.01-13.06,3.57-5.36,11.3-5.52,15.74,5.76,2.07,5.27,1.64,11.03-4.52,13.59"/><path class="left-6" d="M29.65,41.7c-.83-2.6-3.91-8.7-1.01-13.06,3.57-5.36,11.3-5.52,15.74,5.76,2.07,5.27,1.64,11.03-4.52,13.59"/><path class="left-6" d="M53.74,33.93c-.83-2.6-3.91-8.7-1.01-13.06,3.57-5.36,11.3-5.52,15.74,5.76,2.07,5.27,1.64,11.03-4.52,13.59"/><path class="left-6" d="M77.9,26.2c-.83-2.6-3.91-8.7-1.01-13.06,3.57-5.36,11.3-5.52,15.74,5.76,2.07,5.27,1.64,11.03-4.52,13.59"/><path class="left-6" d="M101.92,18.6c-.83-2.6-3.91-8.7-1.01-13.06C104.48,.18,112.21,.02,116.65,11.3c2.07,5.27,1.64,11.03-4.52,13.59"/><path class="left-3" d="M2.92,71.9L22.01,228.76c.37,3,3.34,4.96,6.24,4.11l28.82-8.44L2.92,71.9Z"/></g></g></svg>
