<?xml version="1.0" encoding="UTF-8"?><svg xmlns="http://www.w3.org/2000/svg" xmlns:xlink="http://www.w3.org/1999/xlink"><defs><style>.left-1{fill:url(#linear-gradient);}.left-2{fill:#f1f2f2;}.left-3{fill:#603913;}.left-4{opacity:.12;}.left-4,.left-5{mix-blend-mode:multiply;}.left-5{opacity:.08;}.left-6{fill:none;stroke:#f1f2f2;stroke-miterlimit:10;stroke-width:20px;}.left-7{fill:url(#linear-gradient-3);}.left-8{fill:url(#linear-gradient-4);}.left-9{fill:url(#linear-gradient-2);}.left-10{fill:url(#linear-gradient-6);}.left-11{fill:url(#linear-gradient-5);}.left-12{isolation:isolate;}</style><linearGradient id="linear-gradient" x1="21.86" y1="1075.59" x2="-36.77" y2="1134.8" gradientTransform="translate(55.05 1228.11) scale(1 -1)" gradientUnits="userSpaceOnUse"><stop offset="0" stop-color="#0081ad"/><stop offset="1" stop-color="#14d1df"/></linearGradient><linearGradient id="linear-gradient-2" x1="22.02" y1="1075.76" x2="-36.62" y2="1134.96" xlink:href="#linear-gradient"/><linearGradient id="linear-gradient-3" x1="4.08" y1="1174.93" x2="59.92" y2="1118.54" xlink:href="#linear-gradient"/><linearGradient id="linear-gradient-4" x1="4.25" y1="1175.1" x2="60.08" y2="1118.7" xlink:href="#linear-gradient"/><linearGradient id="linear-gradient-5" x1="-20.6" y1="1158.44" x2="43.37" y2="1095.31" gradientTransform="translate(55.05 1228.11) scale(1 -1)" gradientUnits="userSpaceOnUse"><stop offset="0" stop-color="#14d1df"/><stop offset="1" stop-color="#85d9a5"/></linearGradient><linearGradient id="linear-gradient-6" x1="-20.58" y1="1158.46" x2="43.39" y2="1095.33" xlink:href="#linear-gradient-5"/></defs><g class="left-12"><g id="Layer_2"><g id="Left"><g id="Left-Coffee"><path class="left-6" d="M123.13,63.55c7.66-12.65,21.52-20.7,35.3-10.42,18.7,13.96,9.44,38.89-2.2,54.73-12.02,16.36-30.14,27.52-49.37,30.42"/><path class="left-4" d="M148.39,51.07c6.04-.96,12.27,.07,16.77,3.83,5.38,4.5,7.96,11.83,8.02,18.69,.14,15.33-8,30.68-18.14,41.77-6.21,6.79-13.53,12.47-20.89,18-3.73,2.8-3.4-.63-3.48-3.33-.1-3.59-.64-7.23,1.01-10.61,.93-1.9,2.78-2.59,4.43-3.81,2.33-1.72,4.32-3.85,6.46-5.78,1.65-1.48,9.4-11.97,11.61-15.77,3.69-6.35,8.06-18.46,4.51-25.47-3.27-6.46-11.34-14.69-18.89-9.27-1.82,1.31-8.58,6.32-8.45,8.84-.08-1.61-1.43-3.38-1.2-4.82,.11-.72,.49-1.37,.89-1.98,3.53-5.36,10.31-9.18,17.35-10.3Z"/><polygon class="left-2" points="131.82 150.1 2.6 150.1 0 23.96 134.42 23.96 131.82 150.1"/><ellipse class="left-2" cx="67.21" cy="150.1" rx="64.61" ry="23.03"/><path class="left-5" d="M115.28,26.54c-.34,1.15,5.07,2.8,5.15,5.18,.73,22.57,.25,45.18-1.44,67.69-2.03,27.03-4.55,53.45-34.86,65.46-11.4,4.52-22.7,4.78-34.72,7.16,0,0,13.67,1.1,17.8,1.1,35.68,0,64.61-10.31,64.61-23.03l2.6-126.15h-10.94c-4.94,0-7.33-.29-8.19,2.58Z"/><ellipse class="left-2" cx="67.21" cy="23.96" rx="67.21" ry="23.96"/><ellipse class="left-4" cx="67.21" cy="23.96" rx="59.47" ry="18.73"/><path class="left-3" d="M15.72,33.32c10.28,5.6,29.48,9.36,51.49,9.36s41.21-3.77,51.49-9.36c-10.28-5.6-29.48-9.36-51.49-9.36s-41.21,3.77-51.49,9.36Z"/><g id="OpenNMS_Logo-Mark_Full-color"><g id="Layer_2-2"><g id="Logos"><path class="left-1" d="M47.52,108.07c-6.27-6.88-11.62-13.69-15.42-19.71-1.54-2.4-2.92-4.9-4.11-7.49-8.76,16.38-6.43,36.47,5.85,50.4,.51-4.8,5.62-13.4,13.67-23.21Z"/><path class="left-9" d="M61.01,121.57c-9.81,8.06-18.41,13.16-23.2,13.67,13.94,12.28,34.03,14.61,50.4,5.85-3.22-1.43-6.82-3.53-10.85-6.32-5.74-4.03-11.2-8.44-16.35-13.2Z"/><path class="left-7" d="M73.42,82.17c9.81-8.06,18.41-13.16,23.2-13.67-13.94-12.28-34.03-14.61-50.4-5.85,3.22,1.43,6.82,3.53,10.85,6.32,5.74,4.03,11.2,8.44,16.35,13.2Z"/><path class="left-8" d="M100.58,72.47c-.51,4.79-5.62,13.39-13.67,23.2,6.27,6.88,11.62,13.69,15.42,19.71,1.54,2.4,2.91,4.9,4.1,7.49,8.76-16.37,6.43-36.46-5.85-50.4Z"/><path class="left-11" d="M67.21,87.53h0c-15.29-13.83-29.09-21.76-32.6-18.26-4.06,4.06,7.24,21.94,25.25,39.95,2.46,2.47,4.92,4.8,7.35,6.99v-28.68Z"/><path class="left-10" d="M81.56,101.87h0c-2.19,2.43-4.52,4.89-6.99,7.35s-4.92,4.81-7.35,6.99c15.29,13.81,29.09,21.76,32.6,18.26s-4.43-17.31-18.26-32.6Z"/></g></g></g></g></g></g></g></svg>
