<?xml version="1.0" encoding="UTF-8"?><svg xmlns="http://www.w3.org/2000/svg"><defs><style>.playcards-1,.playcards-2,.playcards-3{font-family:Charter-Bold, Charter;}.playcards-1,.playcards-3{font-size:18.49px;}.playcards-4{fill:#f1f2f2;}.playcards-5,.playcards-2,.playcards-3{fill:#db263c;}.playcards-2{font-size:18.49px;}.playcards-6{isolation:isolate;}.playcards-7{mix-blend-mode:multiply;opacity:.18;}</style></defs><g class="playcards-6"><g id="Layer_2"><g id="Left"><g id="Left-PlayingCards"><g><rect class="playcards-4" x="19.28" y="55.6" width="93.55" height="129.1" rx="5.84" ry="5.84" transform="translate(-51.5 190.71) rotate(-92.17)"/><text class="playcards-1" transform="translate(22.07 162.37) rotate(-92.17)"><tspan x="0" y="0">8</tspan></text><text class="playcards-1" transform="translate(110.34 78.02) rotate(87.83)"><tspan x="0" y="0">8</tspan></text><g id="_5Ov0h7.tif"><path d="M25.76,156.67c0-.16-.01-.31-.02-.47,0-.02,.01-.05,.02-.07,.03-.42,.16-.8,.37-1.16,.55-.92,1.74-1.6,3.11-1.29,.64,.14,1.23,.4,1.77,.77,.03,.02,.07,.04,.11,.07-.17-.3-.34-.57-.48-.86-.24-.49-.34-1.02-.23-1.56,.21-1.1,.89-1.8,1.93-2.16,.17-.06,.35-.09,.53-.13l.51-.02s.05,.01,.08,.02c.84,.07,1.53,.43,2.06,1.09,.35,.43,.54,.93,.56,1.49,.01,.38-.08,.76-.2,1.12-.24,.7-.64,1.31-1.09,1.89-.05,.07-.1,.14-.17,.22,.04,0,.06,0,.08,0,.55-.07,1.1-.15,1.64-.31,.89-.27,1.52-.81,1.81-1.71,.06-.19,.11-.38,.17-.59l.22,5.91s-.01,0-.01,0c-.03-.08-.05-.16-.08-.24-.33-1-.98-1.65-2.03-1.88-.49-.11-.99-.16-1.49-.18-.09,0-.18,0-.29-.01,.19,.23,.36,.44,.53,.65,.31,.39,.61,.79,.84,1.24,.63,1.24,.31,2.44-.51,3.22-.67,.63-1.48,.89-2.39,.78-1.78-.21-3.08-2.01-2.2-3.93,.1-.21,.22-.41,.33-.62-.05,.03-.08,.06-.12,.08-.35,.22-.69,.46-1.05,.65-.61,.33-1.26,.48-1.95,.36-1.15-.2-1.93-.84-2.29-1.97-.04-.12-.06-.25-.09-.38Z"/></g><g id="_5Ov0h7.tif-2"><path d="M24.98,136.17c0-.2-.01-.39-.02-.59,0-.03,.02-.06,.02-.09,.04-.53,.2-1.02,.47-1.47,.7-1.17,2.21-2.03,3.95-1.64,.82,.18,1.56,.51,2.25,.98,.04,.03,.09,.06,.14,.09-.21-.38-.43-.73-.61-1.1-.31-.63-.43-1.3-.29-1.99,.27-1.4,1.13-2.29,2.46-2.75,.22-.08,.45-.11,.68-.16l.65-.02s.07,.02,.1,.02c1.07,.09,1.95,.54,2.62,1.38,.44,.55,.69,1.19,.71,1.9,.01,.49-.1,.96-.26,1.42-.3,.89-.82,1.66-1.38,2.4-.07,.09-.13,.18-.21,.28,.05,0,.08,0,.1,0,.7-.09,1.4-.2,2.08-.4,1.13-.34,1.93-1.04,2.31-2.18,.08-.24,.14-.49,.22-.75l.28,7.52s-.01,0-.02,0c-.03-.1-.07-.2-.1-.31-.41-1.28-1.25-2.1-2.58-2.39-.62-.14-1.26-.2-1.89-.23-.11,0-.23,0-.37-.02,.24,.29,.46,.56,.68,.83,.4,.5,.78,1.01,1.07,1.58,.8,1.58,.4,3.11-.65,4.1-.85,.81-1.88,1.13-3.04,.99-2.26-.27-3.92-2.56-2.79-5,.12-.27,.27-.52,.42-.79-.06,.04-.1,.08-.15,.11-.44,.28-.87,.58-1.34,.83-.77,.41-1.6,.62-2.48,.46-1.46-.26-2.46-1.07-2.92-2.5-.05-.16-.08-.32-.11-.48Z"/></g><g id="_5Ov0h7.tif-3"><path d="M41.98,120.8c0-.2-.01-.39-.02-.59,0-.03,.02-.06,.02-.09,.04-.53,.2-1.02,.47-1.47,.7-1.17,2.21-2.03,3.95-1.64,.82,.18,1.56,.51,2.25,.98,.04,.03,.09,.06,.14,.09-.21-.38-.43-.73-.61-1.1-.31-.63-.43-1.3-.29-1.99,.27-1.4,1.13-2.29,2.46-2.75,.22-.08,.45-.11,.68-.16l.65-.02s.07,.02,.1,.02c1.07,.09,1.95,.54,2.62,1.38,.44,.55,.69,1.19,.71,1.9,.01,.49-.1,.96-.26,1.42-.3,.89-.82,1.66-1.38,2.4-.07,.09-.13,.18-.21,.28,.05,0,.08,0,.1,0,.7-.09,1.4-.2,2.08-.4,1.13-.34,1.93-1.04,2.31-2.18,.08-.24,.14-.49,.22-.75l.28,7.52s-.01,0-.02,0c-.03-.1-.07-.2-.1-.31-.41-1.28-1.25-2.1-2.58-2.39-.62-.14-1.26-.2-1.89-.23-.11,0-.23,0-.37-.02,.24,.29,.46,.56,.68,.83,.4,.5,.78,1.01,1.07,1.58,.8,1.58,.4,3.11-.65,4.1-.85,.81-1.88,1.13-3.04,.99-2.26-.27-3.92-2.56-2.79-5,.12-.27,.27-.52,.42-.79-.06,.04-.1,.08-.15,.11-.44,.28-.87,.58-1.34,.83-.77,.41-1.6,.62-2.48,.46-1.46-.26-2.46-1.07-2.92-2.5-.05-.16-.08-.32-.11-.48Z"/></g><g id="_5Ov0h7.tif-4"><path d="M92.19,118.31c0,.2,.01,.39,.02,.59,0,.03-.02,.06-.02,.09-.04,.53-.2,1.02-.47,1.47-.7,1.17-2.21,2.03-3.95,1.64-.82-.18-1.56-.51-2.25-.98-.04-.03-.09-.06-.14-.09,.21,.38,.43,.73,.61,1.1,.31,.63,.43,1.3,.29,1.99-.27,1.4-1.13,2.29-2.46,2.75-.22,.08-.45,.11-.68,.16l-.65,.02s-.07-.02-.1-.02c-1.07-.09-1.95-.54-2.62-1.38-.44-.55-.69-1.19-.71-1.9-.01-.49,.1-.96,.26-1.42,.3-.89,.82-1.66,1.38-2.4,.07-.09,.13-.18,.21-.28-.05,0-.08,0-.1,0-.7,.09-1.4,.2-2.08,.4-1.13,.34-1.93,1.04-2.31,2.18-.08,.24-.14,.49-.22,.75l-.28-7.52s.01,0,.02,0c.03,.1,.07,.2,.1,.31,.41,1.28,1.25,2.1,2.58,2.39,.62,.14,1.26,.2,1.89,.23,.11,0,.23,0,.37,.02-.24-.29-.46-.56-.68-.83-.4-.5-.78-1.01-1.07-1.58-.8-1.58-.4-3.11,.65-4.1,.85-.81,1.88-1.13,3.04-.99,2.26,.27,3.92,2.56,2.79,5-.12,.27-.27,.52-.42,.79,.06-.04,.1-.08,.15-.11,.44-.28,.87-.58,1.34-.83,.77-.41,1.6-.62,2.48-.46,1.46,.26,2.46,1.07,2.92,2.5,.05,.16,.08,.32,.11,.48Z"/></g><g id="_5Ov0h7.tif-5"><path d="M108.49,132.41c0,.2,.01,.39,.02,.59,0,.03-.02,.06-.02,.09-.04,.53-.2,1.02-.47,1.47-.7,1.17-2.21,2.03-3.95,1.64-.82-.18-1.56-.51-2.25-.98-.04-.03-.09-.06-.14-.09,.21,.38,.43,.73,.61,1.1,.31,.63,.43,1.3,.29,1.99-.27,1.4-1.13,2.29-2.46,2.75-.22,.08-.45,.11-.68,.16l-.65,.02s-.07-.02-.1-.02c-1.07-.09-1.95-.54-2.62-1.38-.44-.55-.69-1.19-.71-1.9-.01-.49,.1-.96,.26-1.42,.3-.89,.82-1.66,1.38-2.4,.07-.09,.13-.18,.21-.28-.05,0-.08,0-.1,0-.7,.09-1.4,.2-2.08,.4-1.13,.34-1.93,1.04-2.31,2.18-.08,.24-.14,.49-.22,.75l-.28-7.52s.01,0,.02,0c.03,.1,.07,.2,.1,.31,.41,1.28,1.25,2.1,2.58,2.39,.62,.14,1.26,.2,1.89,.23,.11,0,.23,0,.37,.02-.24-.29-.46-.56-.68-.83-.4-.5-.78-1.01-1.07-1.58-.8-1.58-.4-3.11,.65-4.1,.85-.81,1.88-1.13,3.04-.99,2.26,.27,3.92,2.56,2.79,5-.12,.27-.27,.52-.42,.79,.06-.04,.1-.08,.15-.11,.44-.28,.87-.58,1.34-.83,.77-.41,1.6-.62,2.48-.46,1.46,.26,2.46,1.07,2.92,2.5,.05,.16,.08,.32,.11,.48Z"/></g><g id="_5Ov0h7.tif-6"><path d="M107.38,103.01c0,.2,.01,.39,.02,.59,0,.03-.02,.06-.02,.09-.04,.53-.2,1.02-.47,1.47-.7,1.17-2.21,2.03-3.95,1.64-.82-.18-1.56-.51-2.25-.98-.04-.03-.09-.06-.14-.09,.21,.38,.43,.73,.61,1.1,.31,.63,.43,1.3,.29,1.99-.27,1.4-1.13,2.29-2.46,2.75-.22,.08-.45,.11-.68,.16l-.65,.02s-.07-.02-.1-.02c-1.07-.09-1.95-.54-2.62-1.38-.44-.55-.69-1.19-.71-1.9-.01-.49,.1-.96,.26-1.42,.3-.89,.82-1.66,1.38-2.4,.07-.09,.13-.18,.21-.28-.05,0-.08,0-.1,0-.7,.09-1.4,.2-2.08,.4-1.13,.34-1.93,1.04-2.31,2.18-.08,.24-.14,.49-.22,.75l-.28-7.52s.01,0,.02,0c.03,.1,.07,.2,.1,.31,.41,1.28,1.25,2.1,2.58,2.39,.62,.14,1.26,.2,1.89,.23,.11,0,.23,0,.37,.02-.24-.29-.46-.56-.68-.83-.4-.5-.78-1.01-1.07-1.58-.8-1.58-.4-3.11,.65-4.1,.85-.81,1.88-1.13,3.04-.99,2.26,.27,3.92,2.56,2.79,5-.12,.27-.27,.52-.42,.79,.06-.04,.1-.08,.15-.11,.44-.28,.87-.58,1.34-.83,.77-.41,1.6-.62,2.48-.46,1.46,.26,2.46,1.07,2.92,2.5,.05,.16,.08,.32,.11,.48Z"/></g><g id="_5Ov0h7.tif-7"><path d="M23.87,106.76c0-.2-.01-.39-.02-.59,0-.03,.02-.06,.02-.09,.04-.53,.2-1.02,.47-1.47,.7-1.17,2.21-2.03,3.95-1.64,.82,.18,1.56,.51,2.25,.98,.04,.03,.09,.06,.14,.09-.21-.38-.43-.73-.61-1.1-.31-.63-.43-1.3-.29-1.99,.27-1.4,1.13-2.29,2.46-2.75,.22-.08,.45-.11,.68-.16l.65-.02s.07,.02,.1,.02c1.07,.09,1.95,.54,2.62,1.38,.44,.55,.69,1.19,.71,1.9,.01,.49-.1,.96-.26,1.42-.3,.89-.82,1.66-1.38,2.4-.07,.09-.13,.18-.21,.28,.05,0,.08,0,.1,0,.7-.09,1.4-.2,2.08-.4,1.13-.34,1.93-1.04,2.31-2.18,.08-.24,.14-.49,.22-.75,.1,2.52,.19,5.02,.28,7.52,0,0-.01,0-.02,0-.03-.1-.07-.2-.1-.31-.41-1.28-1.25-2.1-2.58-2.39-.62-.14-1.26-.2-1.89-.23-.11,0-.23,0-.37-.02,.24,.29,.46,.56,.68,.83,.4,.5,.78,1.01,1.07,1.58,.8,1.58,.4,3.11-.65,4.1-.85,.81-1.88,1.13-3.04,.99-2.26-.27-3.92-2.56-2.79-5,.12-.27,.27-.52,.42-.79-.06,.04-.1,.08-.15,.11-.44,.28-.87,.58-1.34,.83-.77,.41-1.6,.62-2.48,.46-1.46-.26-2.46-1.07-2.92-2.5-.05-.16-.08-.32-.11-.48Z"/></g><g id="_5Ov0h7.tif-8"><path d="M58.68,134.89c0-.2-.01-.39-.02-.59,0-.03,.02-.06,.02-.09,.04-.53,.2-1.02,.47-1.47,.7-1.17,2.21-2.03,3.95-1.64,.82,.18,1.56,.51,2.25,.98,.04,.03,.09,.06,.14,.09-.21-.38-.43-.73-.61-1.1-.31-.63-.43-1.3-.29-1.99,.27-1.4,1.13-2.29,2.46-2.75,.22-.08,.45-.11,.68-.16l.65-.02s.07,.02,.1,.02c1.07,.09,1.95,.54,2.62,1.38,.44,.55,.69,1.19,.71,1.9,.01,.49-.1,.96-.26,1.42-.3,.89-.82,1.66-1.38,2.4-.07,.09-.13,.18-.21,.28,.05,0,.08,0,.1,0,.7-.09,1.4-.2,2.08-.4,1.13-.34,1.93-1.04,2.31-2.18,.08-.24,.14-.49,.22-.75,.1,2.52,.19,5.02,.28,7.52,0,0-.01,0-.02,0-.03-.1-.07-.2-.1-.31-.41-1.28-1.25-2.1-2.58-2.39-.62-.14-1.26-.2-1.89-.23-.11,0-.23,0-.37-.02,.24,.29,.46,.56,.68,.83,.4,.5,.78,1.01,1.07,1.58,.8,1.58,.4,3.11-.65,4.1-.85,.81-1.88,1.13-3.04,.99-2.26-.27-3.92-2.56-2.79-5,.12-.27,.27-.52,.42-.79-.06,.04-.1,.08-.15,.11-.44,.28-.87,.58-1.34,.83-.77,.41-1.6,.62-2.48,.46-1.46-.26-2.46-1.07-2.92-2.5-.05-.16-.08-.32-.11-.48Z"/></g><g id="_5Ov0h7.tif-9"><path d="M57.56,105.49c0-.2-.01-.39-.02-.59,0-.03,.02-.06,.02-.09,.04-.53,.2-1.02,.47-1.47,.7-1.17,2.21-2.03,3.95-1.64,.82,.18,1.56,.51,2.25,.98,.04,.03,.09,.06,.14,.09-.21-.38-.43-.73-.61-1.1-.31-.63-.43-1.3-.29-1.99,.27-1.4,1.13-2.29,2.46-2.75,.22-.08,.45-.11,.68-.16l.65-.02s.07,.02,.1,.02c1.07,.09,1.95,.54,2.62,1.38,.44,.55,.69,1.19,.71,1.9,.01,.49-.1,.96-.26,1.42-.3,.89-.82,1.66-1.38,2.4-.07,.09-.13,.18-.21,.28,.05,0,.08,0,.1,0,.7-.09,1.4-.2,2.08-.4,1.13-.34,1.93-1.04,2.31-2.18,.08-.24,.14-.49,.22-.75,.1,2.52,.19,5.02,.28,7.52,0,0-.01,0-.02,0-.03-.1-.07-.2-.1-.31-.41-1.28-1.25-2.1-2.58-2.39-.62-.14-1.26-.2-1.89-.23-.11,0-.23,0-.37-.02,.24,.29,.46,.56,.68,.83,.4,.5,.78,1.01,1.07,1.58,.8,1.58,.4,3.11-.65,4.1-.85,.81-1.88,1.13-3.04,.99-2.26-.27-3.92-2.56-2.79-5,.12-.27,.27-.52,.42-.79-.06,.04-.1,.08-.15,.11-.44,.28-.87,.58-1.34,.83-.77,.41-1.6,.62-2.48,.46-1.46-.26-2.46-1.07-2.92-2.5-.05-.16-.08-.32-.11-.48Z"/></g><g id="_5Ov0h7.tif-10"><path d="M106.65,83.72c0,.16,.01,.31,.02,.47,0,.02-.01,.05-.02,.07-.03,.42-.16,.8-.37,1.16-.55,.92-1.74,1.6-3.11,1.29-.64-.14-1.23-.4-1.77-.77-.03-.02-.07-.04-.11-.07,.17,.3,.34,.57,.48,.86,.24,.49,.34,1.02,.23,1.56-.21,1.1-.89,1.8-1.93,2.16-.17,.06-.35,.09-.53,.13l-.51,.02s-.05-.01-.08-.02c-.84-.07-1.53-.43-2.06-1.09-.35-.43-.54-.93-.56-1.49-.01-.38,.08-.76,.2-1.12,.24-.7,.64-1.31,1.09-1.89,.05-.07,.1-.14,.17-.22-.04,0-.06,0-.08,0-.55,.07-1.1,.15-1.64,.31-.89,.27-1.52,.81-1.81,1.71-.06,.19-.11,.38-.17,.59l-.22-5.91s.01,0,.01,0c.03,.08,.05,.16,.08,.24,.33,1,.98,1.65,2.03,1.88,.49,.11,.99,.16,1.49,.18,.09,0,.18,0,.29,.01-.19-.23-.36-.44-.53-.65-.31-.39-.61-.79-.84-1.24-.63-1.24-.31-2.44,.51-3.22,.67-.63,1.48-.89,2.39-.78,1.78,.21,3.08,2.01,2.2,3.93-.1,.21-.22,.41-.33,.62,.05-.03,.08-.06,.12-.08,.35-.22,.69-.46,1.05-.65,.61-.33,1.26-.48,1.95-.36,1.15,.2,1.93,.84,2.29,1.97,.04,.12,.06,.25,.09,.38Z"/></g></g><g><path class="playcards-7" d="M122.95,71.18l-105.1,3.98-10.32,58.46c-.56,3.18,1.56,6.21,4.74,6.77l115.63,20.42c1.48,.26,2.92-.06,4.1-.8,.09-.45,.14-.93,.12-1.41l-3.1-81.81c-.12-3.23-2.84-5.74-6.06-5.62Z"/><rect class="playcards-4" x="32.57" y="37.8" width="93.55" height="129.1" rx="5.84" ry="5.84" transform="translate(-35.24 162.69) rotate(-79.98)"/><text class="playcards-3" transform="translate(27.44 134.34) rotate(-79.98)"><tspan x="0" y="0">5</tspan></text><text class="playcards-3" transform="translate(131.54 70.52) rotate(100.02)"><tspan x="0" y="0">5</tspan></text><polygon class="playcards-5" points="46.97 131.91 38.75 135.61 32.29 129.32 40.51 125.61 46.97 131.91"/><polygon class="playcards-5" points="126.67 75.54 118.45 79.24 112 72.95 120.22 69.25 126.67 75.54"/><polygon class="playcards-5" points="53.83 112.94 41.79 118.37 32.34 109.15 44.38 103.73 53.83 112.94"/><polygon class="playcards-5" points="59 83.66 46.96 89.08 37.51 79.86 49.55 74.44 59 83.66"/><polygon class="playcards-5" points="126.65 95.61 114.61 101.03 105.15 91.81 117.19 86.39 126.65 95.61"/><polygon class="playcards-5" points="121.48 124.89 109.44 130.31 99.98 121.09 112.02 115.67 121.48 124.89"/><polygon class="playcards-5" points="90.24 104.28 78.2 109.7 68.74 100.48 80.78 95.06 90.24 104.28"/></g><g><path class="playcards-7" d="M42.42,48.33l-23.29,50.71c-1.35,2.93-.06,6.4,2.87,7.75l106.7,49.01c2.52,1.16,5.44,.37,7.06-1.74,.01-.06,.03-.11,.04-.17l14.24-80.62c.56-3.18-1.56-6.21-4.74-6.77L42.42,48.33Z"/><rect class="playcards-4" x="49.88" y="22.94" width="93.55" height="129.1" rx="5.84" ry="5.84" transform="translate(-23.19 138.81) rotate(-65.33)"/><g id="ReYLAW"><path d="M53.16,105.3c1.11,.37,2.24,.38,3.43,.07l-1.46,3.18c-.54-1.06-1.28-1.94-2.38-2.59,.05,.18,.09,.29,.12,.41,.23,.74,.22,1.47-.05,2.2-.67,1.81-2.98,2.38-4.42,1.09-.64-.57-1.08-1.29-1.38-2.08-.31-.83-.6-1.67-.91-2.5-.45-1.19-.99-2.34-1.8-3.4,.36-.04,.69-.07,1.01-.13,1.62-.26,3.13-.86,4.64-1.46,.83-.33,1.68-.56,2.58-.57,1.43-.02,2.33,.87,2.74,1.86,.41,1.01,.07,2.27-.85,3.07-.37,.32-.82,.55-1.26,.84Z"/></g><g id="ReYLAW-2"><path d="M63.51,87.96c1.41,.47,2.85,.48,4.36,.09-.62,1.36-1.23,2.67-1.86,4.04-.69-1.35-1.62-2.47-3.03-3.29,.07,.23,.11,.37,.16,.52,.29,.94,.28,1.87-.07,2.8-.86,2.3-3.79,3.03-5.62,1.39-.81-.73-1.37-1.63-1.75-2.65-.39-1.06-.76-2.13-1.16-3.18-.58-1.52-1.26-2.98-2.29-4.32,.45-.06,.87-.09,1.28-.16,2.06-.33,3.98-1.09,5.9-1.85,1.06-.42,2.13-.71,3.28-.73,1.81-.03,2.97,1.1,3.49,2.37,.52,1.28,.09,2.88-1.09,3.91-.47,.41-1.05,.71-1.61,1.07Z"/></g><g id="ReYLAW-3"><path d="M75.79,61.22c1.41,.47,2.85,.48,4.36,.09l-1.86,4.04c-.69-1.35-1.62-2.47-3.03-3.29,.07,.23,.11,.37,.16,.52,.29,.94,.28,1.87-.07,2.8-.86,2.3-3.79,3.03-5.62,1.39-.81-.73-1.37-1.63-1.75-2.65-.39-1.06-.76-2.13-1.16-3.18-.58-1.52-1.26-2.98-2.29-4.32,.45-.06,.87-.09,1.28-.16,2.06-.33,3.98-1.09,5.9-1.85,1.06-.42,2.13-.71,3.28-.73,1.81-.03,2.97,1.1,3.49,2.37,.52,1.28,.09,2.88-1.09,3.91-.47,.41-1.05,.71-1.61,1.07Z"/></g><g id="ReYLAW-4"><path d="M94.15,102.03c1.41,.47,2.85,.48,4.36,.09-.62,1.36-1.23,2.67-1.86,4.04-.69-1.35-1.62-2.47-3.03-3.29,.07,.23,.11,.37,.16,.52,.29,.94,.28,1.87-.07,2.8-.86,2.3-3.79,3.03-5.62,1.39-.81-.73-1.37-1.63-1.75-2.65-.39-1.06-.76-2.13-1.16-3.18-.58-1.52-1.26-2.98-2.29-4.32,.45-.06,.87-.09,1.28-.16,2.06-.33,3.98-1.09,5.9-1.85,1.06-.42,2.13-.71,3.28-.73,1.81-.03,2.97,1.1,3.49,2.37,.52,1.28,.09,2.88-1.09,3.91-.47,.41-1.05,.71-1.61,1.07Z"/></g><g id="ReYLAW-5"><path d="M85.63,81.87c1.41,.47,2.85,.48,4.36,.09l-1.86,4.04c-.69-1.35-1.62-2.47-3.03-3.29,.07,.23,.11,.37,.16,.52,.29,.94,.28,1.87-.07,2.8-.86,2.3-3.79,3.03-5.62,1.39-.81-.73-1.37-1.63-1.75-2.65-.39-1.06-.76-2.13-1.16-3.18-.58-1.52-1.26-2.98-2.29-4.32,.45-.06,.87-.09,1.28-.16,2.06-.33,3.98-1.09,5.9-1.85,1.06-.42,2.13-.71,3.28-.73,1.81-.03,2.97,1.1,3.49,2.37,.52,1.28,.09,2.88-1.09,3.91-.47,.41-1.05,.71-1.61,1.07Z"/></g><g id="ReYLAW-6"><path d="M106.43,75.3c1.41,.47,2.85,.48,4.36,.09-.62,1.36-1.23,2.67-1.86,4.04-.69-1.35-1.62-2.47-3.03-3.29,.07,.23,.11,.37,.16,.52,.29,.94,.28,1.87-.07,2.8-.86,2.3-3.79,3.03-5.62,1.39-.81-.73-1.37-1.63-1.75-2.65-.39-1.06-.76-2.13-1.16-3.18-.58-1.52-1.26-2.98-2.29-4.32,.45-.06,.87-.09,1.28-.16,2.06-.33,3.98-1.09,5.9-1.85,1.06-.42,2.13-.71,3.28-.73,1.81-.03,2.97,1.1,3.49,2.37,.52,1.28,.09,2.88-1.09,3.91-.47,.41-1.05,.71-1.61,1.07Z"/></g><g id="ReYLAW-7"><path d="M129.24,86.87c-1.41-.47-2.85-.48-4.36-.09l1.86-4.04c.69,1.35,1.62,2.47,3.03,3.29-.07-.23-.11-.37-.16-.52-.29-.94-.28-1.87,.07-2.8,.86-2.3,3.79-3.03,5.62-1.39,.81,.73,1.37,1.63,1.75,2.65,.39,1.06,.76,2.13,1.16,3.18,.58,1.52,1.26,2.98,2.29,4.32-.45,.06-.87,.09-1.28,.16-2.06,.33-3.98,1.09-5.9,1.85-1.06,.42-2.13,.71-3.28,.73-1.81,.03-2.97-1.1-3.49-2.37-.52-1.28-.09-2.88,1.09-3.91,.47-.41,1.05-.71,1.61-1.07Z"/></g><g id="ReYLAW-8"><path d="M116.96,113.61c-1.41-.47-2.85-.48-4.36-.09l1.86-4.04c.69,1.35,1.62,2.47,3.03,3.29-.07-.23-.11-.37-.16-.52-.29-.94-.28-1.87,.07-2.8,.86-2.3,3.79-3.03,5.62-1.39,.81,.73,1.37,1.63,1.75,2.65,.39,1.06,.76,2.13,1.16,3.18,.58,1.52,1.26,2.98,2.29,4.32-.45,.06-.87,.09-1.28,.16-2.06,.33-3.98,1.09-5.9,1.85-1.06,.42-2.13,.71-3.28,.73-1.81,.03-2.97-1.1-3.49-2.37-.52-1.28-.09-2.88,1.09-3.91,.47-.41,1.05-.71,1.61-1.07Z"/></g><text class="playcards-1" transform="translate(38.34 105.3) rotate(-65.33)"><tspan x="0" y="0">7</tspan></text><g id="ReYLAW-9"><path d="M140.38,69.89c-1.11-.37-2.24-.38-3.43-.07,.49-1.07,.96-2.1,1.46-3.18,.54,1.06,1.28,1.94,2.38,2.59-.05-.18-.09-.29-.12-.41-.23-.74-.22-1.47,.05-2.2,.67-1.81,2.98-2.38,4.42-1.09,.64,.57,1.08,1.29,1.38,2.08,.31,.83,.6,1.67,.91,2.5,.45,1.19,.99,2.34,1.8,3.4-.36,.04-.69,.07-1.01,.13-1.62,.26-3.13,.86-4.64,1.46-.83,.33-1.68,.56-2.58,.57-1.43,.02-2.33-.87-2.74-1.86-.41-1.01-.07-2.27,.85-3.07,.37-.32,.82-.55,1.26-.84Z"/></g><text class="playcards-1" transform="translate(155.21 69.89) rotate(114.67)"><tspan x="0" y="0">7</tspan></text></g><g><path class="playcards-7" d="M56.08,58.11l68.66,93.75,5.74,2.64c.48,.22,.97,.36,1.47,.45,.58-.19,1.15-.47,1.67-.85l5.24-3.84,33.54-73.02c1.35-2.93,.06-6.4-2.87-7.75L84.18,30.28l-26.84,19.66c-2.6,1.91-3.17,5.56-1.26,8.17Z"/><rect class="playcards-4" x="84.15" y="12.84" width="93.55" height="129.1" rx="5.84" ry="5.84" transform="translate(-20.43 92.32) rotate(-36.22)"/><text class="playcards-2" transform="translate(71.32 64.58) rotate(-36.22)"><tspan x="0" y="0">3</tspan></text><text class="playcards-2" transform="translate(190.65 90.51) rotate(143.78)"><tspan x="0" y="0">3</tspan></text><g id="S7adsS"><path class="playcards-5" d="M85.68,74.37c-1.5-.7-3.1-.64-4.68-.67-.95-.02-1.89-.09-2.8-.37-1.27-.39-2.18-1.19-2.73-2.39-.75-1.63-.05-3.4,1.64-4.13,1.11-.48,2.18-.43,3.22,.31,0-.09,0-.14-.02-.19-.41-1.42,.23-2.94,1.58-3.72,1.28-.74,2.73-.5,3.8,.62,.97,1.01,1.37,2.22,1.19,3.57-.14,1.03-.45,2.04-.67,3.07-.2,.95-.4,1.91-.56,2.87-.05,.33,.01,.68,.03,1.04Z"/></g><g id="S7adsS-2"><path class="playcards-5" d="M117.36,58.83c-2.32-1.09-4.8-1-7.26-1.04-1.47-.03-2.93-.14-4.34-.57-1.96-.6-3.37-1.84-4.23-3.7-1.17-2.53-.07-5.27,2.54-6.4,1.72-.74,3.38-.67,4.99,.48-.01-.13-.01-.22-.03-.3-.64-2.21,.35-4.55,2.45-5.76,1.98-1.15,4.24-.77,5.89,.95,1.5,1.56,2.12,3.44,1.84,5.53-.21,1.6-.7,3.17-1.03,4.75-.31,1.48-.62,2.96-.86,4.45-.08,.51,.02,1.05,.04,1.61Z"/></g><g id="S7adsS-3"><path class="playcards-5" d="M136.2,84.54c-2.32-1.09-4.8-1-7.26-1.04-1.47-.03-2.93-.14-4.34-.57-1.96-.6-3.37-1.84-4.23-3.7-1.17-2.53-.07-5.27,2.54-6.4,1.72-.74,3.38-.67,4.99,.48-.01-.13-.01-.22-.03-.3-.64-2.21,.35-4.55,2.45-5.76,1.98-1.15,4.24-.77,5.89,.95,1.5,1.56,2.12,3.44,1.84,5.53-.21,1.6-.7,3.17-1.03,4.75-.31,1.48-.62,2.96-.86,4.45-.08,.51,.02,1.05,.04,1.61Z"/></g><g id="S7adsS-4"><path class="playcards-5" d="M155.03,110.25c-2.32-1.09-4.8-1-7.26-1.04-1.47-.03-2.93-.14-4.34-.57-1.96-.6-3.37-1.84-4.23-3.7-1.17-2.53-.07-5.27,2.54-6.4,1.72-.74,3.38-.67,4.99,.48-.01-.13-.01-.22-.03-.3-.64-2.21,.35-4.55,2.45-5.76,1.98-1.15,4.24-.77,5.89,.95,1.5,1.56,2.12,3.44,1.84,5.53-.21,1.6-.7,3.17-1.03,4.75-.31,1.48-.62,2.96-.86,4.45-.08,.51,.02,1.05,.04,1.61Z"/></g><g id="S7adsS-5"><path class="playcards-5" d="M176.55,81.1c1.5,.7,3.1,.64,4.68,.67,.95,.02,1.89,.09,2.8,.37,1.27,.39,2.18,1.19,2.73,2.39,.75,1.63,.05,3.4-1.64,4.13-1.11,.48-2.18,.43-3.22-.31,0,.09,0,.14,.02,.19,.41,1.42-.23,2.94-1.58,3.72-1.28,.74-2.73,.5-3.8-.62-.97-1.01-1.37-2.22-1.19-3.57,.14-1.03,.45-2.04,.67-3.07,.2-.95,.4-1.91,.56-2.87,.05-.33-.01-.68-.03-1.04Z"/></g></g><g><path class="playcards-7" d="M203.36,97.12L141.15,12.19l-52.42,20.37c-3.01,1.17-4.5,4.56-3.33,7.56l42.52,109.44c1.17,3.01,4.56,4.5,7.56,3.33l3.42-1.33,63.19-46.28c2.6-1.91,3.17-5.56,1.26-8.17Z"/><rect class="playcards-4" x="105.95" y="13.32" width="93.55" height="129.1" rx="5.84" ry="5.84" transform="translate(-17.84 60.6) rotate(-21.23)"/><g id="ReYLAW-10"><path d="M159.46,90.41c2.37,4.57,5.93,8.08,10.62,10.74-4.83,1.88-9.49,3.69-14.37,5.58,1.54-5.04,1.92-10.06,.41-15.49-.38,.73-.62,1.2-.86,1.66-1.54,3.04-3.83,5.32-6.91,6.79-7.68,3.66-16.74-1.61-17.34-10.1-.26-3.77,.53-7.37,2.03-10.82,1.57-3.58,3.24-7.12,4.78-10.72,2.22-5.17,4.04-10.46,4.73-16.27,1.27,.96,2.4,1.86,3.58,2.69,5.91,4.13,12.52,6.88,19.14,9.61,3.64,1.5,7.02,3.37,9.93,6.1,4.59,4.3,4.73,9.9,2.96,14.3-1.78,4.45-6.72,7.4-12.13,7.11-2.17-.12-4.31-.77-6.59-1.2Z"/></g><g id="ReYLAW-11"><path d="M109.09,60.4c.54,1.04,1.35,1.83,2.41,2.44l-3.26,1.27c.35-1.14,.44-2.28,.09-3.52-.09,.17-.14,.27-.19,.38-.35,.69-.87,1.21-1.57,1.54-1.74,.83-3.8-.36-3.94-2.29-.06-.85,.12-1.67,.46-2.46,.36-.81,.73-1.62,1.08-2.43,.5-1.17,.92-2.37,1.07-3.69,.29,.22,.54,.42,.81,.61,1.34,.94,2.84,1.56,4.34,2.18,.83,.34,1.59,.77,2.25,1.38,1.04,.98,1.07,2.25,.67,3.25-.4,1.01-1.53,1.68-2.75,1.61-.49-.03-.98-.17-1.5-.27Z"/></g><text class="playcards-1" transform="translate(98.45 50.08) rotate(-21.23)"><tspan x="0" y="0">A</tspan></text><g id="ReYLAW-12"><path d="M196.37,95.66c-.54-1.04-1.35-1.83-2.41-2.44l3.26-1.27c-.35,1.14-.44,2.28-.09,3.52,.09-.17,.14-.27,.19-.38,.35-.69,.87-1.21,1.57-1.54,1.74-.83,3.8,.36,3.94,2.29,.06,.85-.12,1.67-.46,2.46-.36,.81-.73,1.62-1.08,2.43-.5,1.17-.92,2.37-1.07,3.69-.29-.22-.54-.42-.81-.61-1.34-.94-2.84-1.56-4.34-2.18-.83-.34-1.59-.77-2.25-1.38-1.04-.98-1.07-2.25-.67-3.25,.4-1.01,1.53-1.68,2.75-1.61,.49,.03,.98,.17,1.5,.27Z"/></g><text class="playcards-1" transform="translate(207.03 105.98) rotate(158.77)"><tspan x="0" y="0">A</tspan></text></g></g></g></g></g></svg>
