<?xml version="1.0" encoding="UTF-8"?><svg id="Layer_2" xmlns="http://www.w3.org/2000/svg"><defs><style>.candle-1{fill:#e9ebf9;}.candle-2{fill:#ffd28a;}.candle-3{fill:#fcecca;}.candle-4{fill:#7e8198;}.candle-5{fill:#b4b6c8;}.candle-6{fill:#d1d4e0;}.candle-7{fill:#494c67;}.candle-8{fill:none;stroke:#b4b6c8;stroke-linecap:round;stroke-miterlimit:10;stroke-width:7.65px;}</style></defs><g id="Left"><g id="Left-Candle"><path class="candle-5" d="M141.53,211.59c-5.98,11.7-11.41,13.15-20,15.45-18.24,4.88-36.52,5.23-55.27,5.32-26.72,.12-48.96-7.27-54.38-11.49S.86,209.35,0,205.22c10.65-5.5,58.2-8.21,71.68-8.21,23.85,0,46.8-1.95,68.96,6.54,.91,.35,2.77,.77,2.72,1.66-.11,1.93-.94,4.65-1.82,6.37Z"/><ellipse class="candle-6" cx="71.68" cy="204.46" rx="71.68" ry="15.26"/><path class="candle-1" d="M115.81,212.02c4.49,2.95,.44,3.95-3.5,4.73-6.97,1.38-13.97,1.64-21.06,2.05-11.67,.68-24.69,1.4-36.34,.49-5.85-.46-10.63-.7-16.47-1.32-2.8-.3-6.04-1.12-8.24-1.78-1.58-.47-3.81-.87-2.99-3.1,.47-1.27,1.82-1.97,3.08-2.46,3.76-1.46,7.86-2.41,11.83-3.05,22.58-3.62,45.87-.95,67.87,2.61,2.02,.33,4.11,.69,5.82,1.82Z"/><path class="candle-5" d="M74.06,201.24c15.47,1.69,29.41,6.22,44.86,1.57,1.54-.46,3.35-1.44,3.09-2.87-.24-1.28-1.97-1.8-3.42-2.03-12.45-2-29.07-3.47-41.7-3.88-19.67-.63-35.03,.38-54.18,5.48-1.94,.52-3.95,1.12-5.37,2.4s-2.03,3.45-.82,4.89c1.62,1.93,4.98,1.37,7.56,.6,15.31-4.54,33.58-7.91,49.75-6.19,.08,0,.15,.02,.23,.02Z"/><path class="candle-6" d="M103.06,218.1c-8.5-3.92-15.46-12.6-16.75-21.87,.05,.33-4.65,1.25-4.93,1.3-5.27,.96-10.99,1.02-16.3,.41-2.57-.29-5.3-.72-7.71-1.71-1.29,9.27-8.25,17.95-16.75,21.87,9.6,.97,22.1,1.3,31.37,1.29s21.53-.28,31.08-1.29Z"/><path class="candle-5" d="M103.06,218.1c-8.5-3.92-15.46-12.6-16.75-21.87,.05,.33-4.65,1.25-4.93,1.3-.01,0-2.26,.62-1.91,.82,.81,.46,.95,1.58,.77,2.5s-.59,1.81-.51,2.74c.1,1.31,1.15,2.38,2.3,3.01s2.45,.97,3.63,1.56c1.2,.6,2.39,1.77,2.11,3.08-.22,1.06-1.28,1.7-2.26,2.17-5.66,2.74-11.85,4.36-18.13,4.74,1.16,1.65,2.86,1.23,4.62,1.23,9.49-.01,21.53-.28,31.08-1.29Z"/><path class="candle-8" d="M83.41,193.49c7.27-2.95,12.85-6.75,19.03-11.65,9.87-7.84,23.77-19.41,36.61-16.02,7.13,1.88,12.55,9.87,12.39,18.28-.1,5.27-2.27,10.66-6.15,13.73-2.29,1.82-7.42,3.94-11.65,2.28-2.85-1.12-7.51-5.21-6.01-9.2"/><path class="candle-1" d="M106.4,175.28c3.87-3.1,8.63-6.41,12.83-8.91s8.94-4.14,13.66-3.59c-6.97,2.28-14.63,5.73-20.7,10.22-8.39,6.2-15.98,14.54-25.74,17.14-.62,.17,.57-1.67,.65-1.76,.72-.72,2-1.15,2.86-1.67,1.9-1.14,3.77-2.32,5.62-3.54,3.7-2.45,7.31-5.08,10.82-7.89Z"/><path class="candle-5" d="M86.93,186.65c0,2.62-2.5,6.8-15.37,6.8s-15.31-4.39-15.31-7.02c1.37-3.31,6.89-4.14,15.43-4.06,7.29,.07,13.61,.99,15.25,4.28Z"/><path class="candle-6" d="M56.06,195.94c1.69,2.05,4.27,3.12,6.86,3.45,5.19,.66,10.31,1.29,15.55,.71,3.24-.35,6.61-1.22,8.9-3.54s1.83-7.59-.44-9.92c0,0-.76,2.25-4.65,3.58-5.56,1.89-10.79,1.94-16.66,1.17-4.57-.59-8.6-2.28-9.37-4.97-1.04,2.6-2.02,7.3-.19,9.51Z"/><path class="candle-5" d="M56.06,195.94c1.69,2.05,4.27,3.12,6.86,3.45,5.19,.66,10.31,1.29,15.55,.71,3.24-.35,6.61-1.22,8.9-3.54,.78-.79,1.24-1.85,1.38-2.95,0-.07-.11-2.38-.39-2.17-4.24,3.32-9.55,5.27-14.93,4.74-.24-.02-.49-.07-.66-.24-.3-.31-.11-.87,.24-1.13s.79-.35,1.18-.55,.74-.6,.64-1.03c-2.45,.12-4.91,.23-7.36,.35,.85,1,2.01,1.74,3.27,2.09-2.76,1.25-5.15,.8-8.01,.23-1.47-.3-2.88-.82-4.23-1.45-.54-.25-3.48-1.34-3.6-1.87,.27,1.16,.35,2.38,1.15,3.34Z"/><path class="candle-6" d="M71.68,136.34c-12.39,0-25.08-4.45-25.08-4.45,4.23,3.1,6.62,8.21,7.53,13.37,.6,3.4,.61,6.86,.45,10.29-.13,2.89-.55,7.04,1.39,9.44,1.27,1.57,1.87,1.56,3.4,2.89,3.6,3.13,4.43,8.75,2.32,13.04-.81,1.64-1.88,3.15-2.55,4.85-.15,.39-.41,.87-.17,1.21,1.69,2.4,10.3,3.36,12.69,3.22,2.4,.14,11-.83,12.69-3.22,.24-.34-.01-.83-.17-1.21-.67-1.7-1.74-3.21-2.55-4.85-2.11-4.29-1.28-9.91,2.32-13.04,1.53-1.33,2.13-1.31,3.4-2.89,1.94-2.4,1.53-6.56,1.39-9.44-.16-3.44-.15-6.89,.45-10.29,.91-5.16,3.31-10.27,7.53-13.37,0,0-12.69,4.45-25.08,4.45Z"/><path class="candle-5" d="M94.91,127.61c-4.06-2.55-12.93-4.32-23.23-4.32s-19.16,1.77-23.23,4.32h-2.37v3.13c0,4.12,11.46,7.45,25.59,7.45s25.59-3.34,25.59-7.45v-3.13h-2.37Z"/><ellipse class="candle-6" cx="71.68" cy="127.61" rx="25.59" ry="7.45"/><path class="candle-3" d="M66.53,25.4c-.44-3-.3-6.32-.28-7.89,.07-7.18,1.6-10.95,4.52-17.51-.5,1.13,2.29,6.39,2.64,7.81,1.02,4.15,2.31,8.51,2.81,12.76,.42,3.54,.27,8.95-3.82,10.46-3.83,1.42-5.31-1.85-5.86-5.64Z"/><path class="candle-2" d="M68.27,25.44c0-3.01,.76-6.26,2.18-8.92,.08-.14,.19-.3,.35-.29,.12,.01,.2,.12,.27,.23,.72,1.19,.94,2.88,1.15,4.25,.27,1.82,.55,3.65,.82,5.47,.25,1.69,.71,5.22-1.97,4.94s-2.79-3.72-2.79-5.68Z"/><path class="candle-5" d="M66.07,126.71c-.17,0-.35,0-.52-.01-1.54-.08-3.06-.12-4.6,.04-.88,.09-1.86,.29-2.38,1-.48,.65-.45,1.56-.91,2.22-.41,.59-1.14,.9-1.85,.95-1.75,.14-3.43-.78-4.87-1.67-1.52-.94-1.64-2.16-.05-3.12,2.46-1.48,5.11-2.06,7.88-2.6,8.41-1.65,17.5-1.84,25.9,.06,.85,.19,2.95,.54,3.4,1.43,1,1.97-8.37,.79-9.26,.79-3.04,0-6.07,.2-9.09,.53-1.23,.14-2.42,.37-3.64,.38Z"/><path class="candle-5" d="M61.46,159.39c.35,.72,.91,1.3,1.53,1.9,2.47,2.4,6.26,3.27,9.78,2.61,2.19-.41,4.03-.79,5.77-2.17,.74-.58,1.5-1.2,1.87-2.06,.3-.7,.3-1.48,.29-2.24-.02-2.6,1.28-9.47-2.34-10.26-.97-.21-1.99,.02-2.95,.29s-1.94,.58-2.93,.51c-1.79-.13-3.28-1.46-4.34-2.91s-1.87-3.1-3.14-4.38c-.79-.79-1.84-1.45-2.95-1.33-3.43,.35-1.61,12.44-1.43,14.98,.1,1.43,.28,2.82,.57,4.22,.06,.3,.16,.58,.28,.83Z"/><path class="candle-5" d="M63.77,163.53c-.33-.19-.67-.37-1.01-.53-.45-.22-.95-.41-1.45-.32s-.96,.54-.88,1.03c.05,.34,.33,.6,.61,.8,3.89,2.9,8.69,4.45,13.58,4.02,1.34-.12,2.68-.38,3.87-1s2.21-1.64,2.62-2.92c.15-.45,.16-1.05-.25-1.28-.33-.19-.74-.02-1.08,.13-2.59,1.17-5.41,1.8-8.25,1.87-2.1,.06-4.25-.03-6.18-.97-.53-.26-1.05-.56-1.57-.84Z"/><path d="M70.31,22.54c1.31,.69,1.53,2.44,1.58,3.92,.12,3.13,.25,5.13,.37,8.26,.03,.74-.04,3.07-1.15,1.82-.7-.78-.3-3.81-.35-4.85-.15-3.43-.3-5.72-.46-9.15Z"/><path class="candle-1" d="M93.61,125.63c.95,.63,1.94,1.55,1.82,2.68-.1,.93-.92,1.6-1.72,2.08-2.19,1.35-4.71,2.16-7.27,2.36,.14-1.1,1.26-1.78,2.27-2.24s2.16-1.01,2.47-2.08c.25-.84-.14-1.77-.78-2.37s-1.48-.94-2.32-1.19c-3.34-1.02-6.9-1.01-10.39-.95-.06,0,.8-1.29,.94-1.41,.52-.44,1.13-.65,1.8-.73,1.32-.15,3.03,.18,4.34,.4,3.15,.5,6.19,1.68,8.84,3.46Z"/><path class="candle-5" d="M73.01,171.97c.23,.71,0,1.48-.18,2.2-1.02,3.93-.88,8.15,.4,12,.27,.82,.57,1.81,.03,2.49-.54,.67-1.57,.61-2.42,.45-.84-.16-1.81-.46-2.08-1.26-.16-.46-.03-.97,.09-1.44,.71-2.9,.92-5.79,.94-8.76,.01-2.13,.28-4-2.01-5.2-.55-.29-1.17-.46-1.68-.81s-.92-.98-.74-1.58c1.49,.55,3.31,1.1,4.92,1.04,1.15-.05,2.23-.6,2.72,.89Z"/><path class="candle-7" d="M84.9,131.31c.02,.81-.51,1.53-1.29,1.76-2,.57-6.2,1.52-12.15,1.52s-10.14-.96-12.17-1.53c-.78-.22-1.3-.94-1.27-1.75l3.54-95.55c.04-1.55,1.51-2.66,3.01-2.29l1.26,.31c3.7,.92,7.57,.92,11.27,0l1.25-.31c1.5-.37,2.97,.74,3.01,2.29l3.54,95.56Z"/><path class="candle-4" d="M82.51,43.27c-.16-1,.15-2.21,.22-3.22,.14-1.88,.09-3.89-.95-5.47-1.71-2.58-4.23-1.36-6.63-1.2-3.67,.25-7.47-.04-11.15-.07-2.88-.02-4.32,1.9-4.48,4.71-.12,2.11,.39,4.37,.59,6.46,.24,2.46,.56,4.9,.66,7.38,.22,5.57-.18,11.16-1.21,16.64-.15,.78-.3,1.61,0,2.34,.3,.73,1.25,1.25,1.91,.81,.24-.17,.4-.43,.54-.69,1.56-2.95,1.57-6.47,1.1-9.77-.47-3.3-.96-7.15-1.14-10.48-.14-2.6-.22-4.74,1.09-7.03,1.09-1.9,3.59-2.7,5.35-1.2s2.44,4.4,2.5,6.63c.05,1.9-.05,3.9,.79,5.61,.23,.46,.76,.95,1.18,.67,.2-.13,.27-.38,.32-.61,.46-2.09-.01-4.26-.33-6.38-.15-1.01-.5-8.32,2.27-6.97,1.14,.56,.6,3.35,.7,4.36,.23,2.11,.89,4.1,1.23,6.17s-.2,4.77-.21,6.79c0,2.67-.48,4.44-.49,7.11,0,1.33,.02,2.67-.02,4-.03,1.23-.54,2.09-.94,3.25-.7,2.09-.29,4.76,.65,6.75,.27,.56,.78,1.15,1.39,1.02,.65-.14,.84-.97,.9-1.63,.27-2.94-.16-5.86-.43-8.8-.3-3.23,.25-6.16,.19-9.4-.08-4.07,.33-8.08-.35-12.09-.26-1.54-.68-3.05-.75-4.62-.04-.98,.39-4.59,2.01-2.79,.89,.98,1.26,2.33,1.4,3.65,.08,.7,.17,1.52,.78,1.87,.76,.43,1.74-.3,1.91-1.16,.19-1.02-.47-1.72-.62-2.65Z"/><path class="candle-6" d="M47.26,221.02c4.03-.06,8.54,1.49,12.6,1.88,1.93,.19,3.74,.4,5.68,.38,1.63-.01,3.7-.18,5.14,.75,3.5,2.26-5.07,3.72-6.17,4.03-.29,.08-.64,.22-.69,.51-.07,.43,.51,.64,.95,.68,6.99,.61,13.4,.65,20.42-.67,.19-.04,.39-.08,.54-.2,.33-.28,.2-.86-.13-1.14s-.8-.33-1.23-.37c-2.44-.24-4.88-.48-7.32-.72-1.25-3.63,6.18-3.16,7.94-3.34,4.26-.45,9.62-.6,13.62-2.2-1.5,.6-4.81-.14-6.43-.19-7.44-.22-14.74,.75-22.19,.82s-15.15-.32-22.73-.21Z"/><path class="candle-6" d="M136.73,165.83c-.35-.22-.73-.47-.88-.9-.33-.96,.74-1.79,1.64-1.95,6.6-1.22,13.79,7.62,15.7,13.78,.2,.66,.36,1.33,.5,2.01,.62,3.12,.56,7.31-.59,10.34-.78,2.05-1.35,3.71-3.28,4.46-1.72,.67-.99-1.39-.8-2.65,.58-3.82,1.14-7.72,.35-11.56-1.58-7.63-7.11-10.09-12.64-13.52Z"/><path class="candle-6" d="M127.39,187.7c1.44-.3,3.13,.88,3.24,2.6,.03,.53-.07,1.06-.17,1.58-.17,.9-.35,1.73-.36,2.64,0,.42-.12,.96-.49,.99-.37,.02-.53-.51-.58-.92-.11-.83-.23-1.67-.57-2.42s-.92-1.4-1.65-1.58c-.27-.07-.55-.07-.83-.12-1.3-.28-.44-1.6,.19-2.15,.35-.31,.78-.52,1.22-.61Z"/><path class="candle-6" d="M105.71,180.86c1.66-.22,2.46-1.05,3.81-1.94,1.58-1.04,3.2-2,4.79-2.99,3.19-1.99,6.39-3.99,9.58-5.98,.45-.28,.98-.82,.74-1.33-.2-.43-.74-.4-1.16-.31-1.59,.35-3.01,.6-4.45,1.44-1.35,.79-2.63,1.72-3.94,2.57-2.67,1.73-5.15,3.82-7.68,5.8-.43,.33-.86,.67-1.2,1.13s-.56,1.04-.49,1.62Z"/><path class="candle-1" d="M56.14,145.65c.15,3.11-.49,6.2-.58,9.31s.49,6.45,2.64,8.7c-1.6-2.7-1.77-6.01-1.54-9.14s.83-6.25,.61-9.38c-.06-.84-1.11-6.86-2.53-5.8-.35,.26,1.35,5.32,1.4,6.31Z"/><path class="candle-1" d="M88.39,137.67c.24,0,.5,.05,.77,.14-1.28,3.3-2.99,6.39-3.07,9.96s.63,7.38,.4,11.08c-.08,1.43-.24,2.92-.95,4.16-.68,1.17-1.91,2.35-3.33,2.4,2-2.53,2.61-5.9,2.63-9.12s-.48-6.44-.41-9.66c.06-2.26,.76-9.05,3.96-8.96Z"/><path class="candle-1" d="M66.91,186.07c-.2,.58-.42,1.17-.84,1.62s-1.07,.73-1.65,.55c-.63-.19-1.01-.86-1.07-1.51s.15-1.29,.36-1.91c.39-1.16,1.79-6.8,3.73-6.46s-.16,6.63-.53,7.72Z"/><path class="candle-1" d="M59.01,191.35c-.45-.11-.91-.22-1.37-.15s-.92,.33-1.07,.77c-.18,.5,.11,1.07,.53,1.4s.96,.45,1.47,.58c2.76,.66,5.53,1.32,8.29,1.98,.19,.04-.52-2.1-.61-2.25-.38-.61-.93-1.19-1.63-1.37-.74-.2-1.71-.08-2.51-.23-1.04-.2-2.07-.47-3.1-.72Z"/><path class="candle-1" d="M62.71,200.67c.57,.26,1.02,.88,.88,1.49-.1,.43-.45,.75-.69,1.11-.5,.76-.51,1.75-.33,2.64s.51,1.75,.66,2.64c.4,2.52-.75,4.99-1.88,7.28-.29,.58-.59,1.19-1.14,1.54-.56,.37-1.28,.4-1.96,.39-2.22-.04-4.43-.35-6.57-.93,2.45-.36,4.74-1.73,6.22-3.72s2.11-4.58,1.74-7.04c-.16-1.07-.51-2.12-.44-3.2,.13-1.82,1.78-3.01,3.51-2.21Z"/></g></g></svg>
