<?xml version="1.0" encoding="UTF-8"?><svg xmlns="http://www.w3.org/2000/svg"><defs><style>.firehose-1{fill:#f5c559;}.firehose-2{opacity:.12;}.firehose-2,.firehose-3,.firehose-4,.firehose-5{mix-blend-mode:multiply;}.firehose-6,.firehose-3,.firehose-4,.firehose-7,.firehose-8{fill:none;}.firehose-6,.firehose-3,.firehose-4,.firehose-8{stroke-miterlimit:10;}.firehose-6,.firehose-3,.firehose-7,.firehose-8{stroke-width:39px;}.firehose-6,.firehose-4{stroke-linecap:round;}.firehose-6,.firehose-7,.firehose-8{stroke:#be1e2d;}.firehose-9{isolation:isolate;}.firehose-3,.firehose-4{stroke:#000;}.firehose-3,.firehose-4,.firehose-5{opacity:.18;}.firehose-4{stroke-width:7px;}.firehose-7{stroke-linejoin:round;}</style></defs><g class="firehose-9"><g id="Layer_2"><g id="Left"><g id="Left-FireHose"><path class="firehose-7" d="M100.46,359.16c66.26-33.26,204.04-34.21,269.59,.29"/><path class="firehose-3" d="M100.46,359.16c66.26-33.26,204.04-34.21,269.59,.29"/><path class="firehose-7" d="M100.46,400.18c72.14-36.21,198.16-37.31,269.59,.29"/><path class="firehose-3" d="M100.46,400.18c72.14-36.21,198.16-37.31,269.59,.29"/><path class="firehose-8" d="M103.04,28.97c59.6-14.89,132.71-20.37,161.12,46.76,25.17,59.49,.15,100.84-36.29,145.48-19.31,23.66-64.56,61.53-79.81,87.99-20.75,36.01-17.91,77.7-17.19,119.25"/><g class="firehose-5"><path d="M144.64,361.1c2.29-23.41,12.5-45.76,28.12-63.27,15.6-16.61,32.25-32.49,48.45-48.42,31.22-30.91,61.89-69.29,68.98-113.73,2.05-14.82,1.12-30.03-2.37-44.63-3.46-14.62-9.45-28.63-17.27-41.5-.32-.53-.16-1.22,.37-1.55,.53-.32,1.21-.16,1.54,.36,8.1,12.96,14.39,27.12,18.12,42.01,12.71,48.22-6.68,90.39-35.43,128.34-20.66,27.38-46.89,49.91-70.16,74.93-18.53,18.05-31.3,42.14-33.39,68.08-.45,4.52-7.26,4.16-6.97-.63h0Z"/></g><path class="firehose-6" d="M100.46,399.98c84.41,37.04,183.34,32.84,269.59,.29"/><path class="firehose-6" d="M100.46,359.16c91.82,40.29,175.94,35.64,269.59,.29"/><path class="firehose-4" d="M88.67,370.62c29.48,17.34,88.32,29.82,146.58,29.67,61.35-.16,122.06-13.83,147.22-30.42"/><path class="firehose-4" d="M88.67,411.51c29.48,17.34,88.32,29.82,146.58,29.67,61.35-.16,122.06-13.83,147.22-30.42"/><path class="firehose-6" d="M100.46,440.05c77,33.79,190.75,30.05,269.59,.29"/><path class="firehose-6" d="M100.46,480.41c69.59,30.54,198.16,27.25,269.59,.29"/><path class="firehose-4" d="M88.67,451.85c29.48,17.34,88.32,29.82,146.58,29.67,61.35-.16,122.06-13.83,147.22-30.42"/><path class="firehose-4" d="M88.67,491.05c22.53,16.91,88.32,27.55,146.58,27.4,61.35-.16,120.38-12.04,147.22-27.02"/><polygon class="firehose-1" points="112.67 48.01 11.97 67.27 4.56 37.54 102.51 7.27 112.67 48.01"/><polygon class="firehose-2" points="112.67 48.01 11.97 67.27 10.01 59.24 109.09 34.65 112.67 48.01"/><rect class="firehose-1" x="81.2" y="22.12" width="52.15" height="10.71" rx="5.35" ry="5.35" transform="translate(108.01 -83.26) rotate(76.01)"/><path class="firehose-2" d="M110.46,52.36c1.64-.06,2.93-1.56,3.32-3.15s.08-3.26-.23-4.87c-.76-3.94-1.52-7.88-2.28-11.81-1.4-7.23-2.81-14.5-5.55-21.33-.69-1.73-1.51-3.47-2.88-4.74s-3.42-1.95-5.15-1.24c.69-1.61,1.47-2.6,3.27-3.05,2.87-.71,5.78,1.03,6.49,3.9l10.02,40.21c.71,2.87-1.03,5.78-3.9,6.49-1.35,.34-1.96-.46-3.12-.42Z"/><rect class="firehose-1" x="-10.25" y="46.7" width="37.74" height="10.71" rx="5.35" ry="5.35" transform="translate(57.05 31.1) rotate(76.01)"/><path class="firehose-2" d="M10.79,70.33c1.33-.26,2.34-1.43,2.77-2.72s.37-2.68,.22-4.03c-.31-2.92-.98-5.79-1.64-8.65-1.12-4.8-2.24-9.6-3.78-14.28-.47-1.42-.98-2.84-1.83-4.07s-2.06-2.26-3.52-2.6c.36-.06,.69-.16,1.04-.25,2.87-.71,5.78,1.03,6.49,3.9l6.53,26.23c.71,2.87-1.03,5.78-3.9,6.49-.84,.21-1.79,.26-2.39-.03Z"/><rect class="firehose-1" x="6.11" y="43.77" width="40.32" height="7.78" rx="3.89" ry="3.89" transform="translate(66.16 10.65) rotate(76.01)"/><path class="firehose-2" d="M30,67.37c.9-.75,1.36-1.84,1.46-2.99,.09-1.15-.14-2.3-.38-3.43-1.02-4.89-2.03-9.78-3.05-14.67-.78-3.76-1.56-7.52-2.77-11.16-.45-1.35-.96-2.7-1.77-3.88s-1.93-2.18-3.29-2.6c0,0,.77-.45,1.19-.55,2.08-.52,4.19,.75,4.71,2.83l7.87,31.58c.5,2.01-.93,4.98-3.97,4.86Z"/><rect class="firehose-1" x="64.27" y="28.57" width="46.02" height="7.78" rx="3.89" ry="3.89" transform="translate(97.68 -60.08) rotate(76.01)"/><path class="firehose-2" d="M91.39,54.75c.92-.14,1.61-.86,1.83-1.76,.23-.9,.04-1.85-.14-2.76-.55-2.75-.99-5.53-1.65-8.25-2.3-9.51-5.03-18.46-7.78-27.66-.26-.87-.79-1.67-1.45-2.3s-1.54-.94-2.44-.77c2.68-2.53,6.06-.7,6.67,1.72,0,0,9.24,37.11,9.24,37.11,.57,2.28-1.67,5.84-4.28,4.67Z"/></g></g></g></g></svg>
