<?xml version="1.0" encoding="UTF-8"?><svg id="Layer_2" xmlns="http://www.w3.org/2000/svg"><defs><style>.lasso-1{fill:#a08168;}.lasso-2{fill:#c1a584;}</style></defs><g id="Left"><g id="Left-Lasso"><path class="lasso-2" d="M302.15,855.74c-6.34,0-12.78-.84-19.16-2.48-10.01,2.02-19.81,2.16-29.06,.31-5.37-1.07-10.64-2.84-15.71-5.24-6.72-1.48-13.36-3.89-19.68-7.53-3.27-1.88-6.41-4.08-9.42-6.58-27.14-14.58-47.61-42.26-54.72-74.95-6.77-31.14-1.65-65.52,14.39-97.42-2.65-18.8-3.02-40.91,8.86-58.82,11.61-17.51,31.56-26.05,51.38-32.67,14.29-4.77,30.09-9.5,46.7-12.28,11.51-5.69,22.57-9.45,33.62-11.49,2.11-.39,4.19-.71,6.25-.96-9.01-7.45-19.32-11.39-34.68-14.18-23.95-4.34-48.6,3.09-69.56,10.93-5.12,1.92-10.34,3.97-15.39,5.97-18.58,7.33-37.79,14.91-58.27,17.98-31.22,4.68-60.31-3.42-77.81-21.68-24.55-25.61-23.33-64.24-20.27-91.06,6.43-56.45,22.93-110.65,49.05-161.1l15.1,7.81c-25.16,48.61-41.06,100.83-47.25,155.21-4.24,37.22,.73,61.81,15.65,77.38,13.69,14.28,37.25,20.5,63.02,16.63,18.57-2.79,36.05-9.68,54.56-16.98,5.12-2.02,10.41-4.11,15.67-6.07,41.45-15.51,63.75-14.42,78.55-11.73,25.82,4.68,40.81,12.9,55.53,31.28,14.92,2.52,28.12,9.55,39.46,21.02,12.82,12.98,19.14,29.62,22.18,45.93,5.2,9.19,9.06,19.7,11.45,31.25,14.21,27.71,13.95,60.19,13.71,91.72-.03,3.61-.06,7.21-.06,10.78-.06,48.18,11.03,78.93,33.91,94.02l-9.36,14.19c-28.03-18.49-41.62-53.89-41.55-108.23,0-3.6,.03-7.24,.06-10.89,.04-5.15,.08-10.32,.05-15.49-5.61,21.16-14.98,41.42-27.7,59.48-1.71,2.42-3.47,4.8-5.29,7.12-10.33,26.44-23.9,57.12-55.45,66.22-6.04,1.74-12.34,2.6-18.73,2.6Zm-104.92-144.95c6.14,20.38,13.99,40.24,23.48,59.37,8.3,16.71,20.16,37.77,38.44,52.35,2.4,1.92,4.89,3.67,7.43,5.26,16.59-2.11,33.16-8.67,47.16-19.24,26.41-19.94,36.32-52.75,42-79.1,7.58-35.15,8.33-67.46,2.23-96.04-2.65-12.44-5.95-25.9-10.87-39.05-6.9-4.21-14.1-6.77-21.4-6.59-19.93,.47-39.62,5.89-70.94,30.82-21.92,17.44-47.78,62.4-57.53,92.22Zm36.77,115.1c1.56,.41,3.14,.77,4.73,1.08-15.33-15.42-25.68-34.02-33.25-49.26-1.07-2.16-2.12-4.33-3.16-6.5,2.17,8.97,5.03,17.7,8.99,25.9,5.73,11.86,13.61,21.73,22.68,28.78Zm-59.31-133.56c-6.71,21.43-8.05,43.21-3.68,63.32,1.22,5.62,2.93,11.08,5.07,16.33-3.1-17.7-2.57-36.38,1.67-54.59-.36-5.07-.59-10.16-.61-15.25-.86-3.26-1.67-6.54-2.45-9.82Zm196.75-76.28c1.16,4.69,2.2,9.3,3.15,13.79,5.74,26.91,5.92,56.66,.55,88.63,2.59-10.17,4.67-20.2,6.44-29.77,4.37-23.58,4.85-42.67,1.31-58.35-3.47-4.64-7.32-9.54-11.46-14.3Zm-140.16-28.5c-15.86,5.49-31.23,12.46-39.46,24.87-4.61,6.95-6.7,15.18-7.33,23.69,12.29-17.03,27.94-33.28,46.79-48.56Z"/><g><polygon class="lasso-1" points="103.53 300.72 88.41 292.96 88.65 292.48 103.75 300.3 103.53 300.72"/><path class="lasso-1" d="M302.27,855.73v-17c.29,0,.58,0,.86,0l.25,17c-.37,0-.74,0-1.12,0Zm-31.65-.91l-.69-16.99c.28-.01,.57-.03,.85-.04l.99,16.97c-.38,.02-.77,.04-1.15,.06Zm-46.82-11.29c-.34-.16-.68-.32-1.02-.48l7.35-15.33c.26,.13,.53,.25,.79,.37l-7.12,15.44Zm59.93-1.8l-4.37-16.43c.29-.08,.58-.16,.87-.24l4.57,16.38c-.35,.1-.71,.2-1.06,.29Zm-33-4.25c-.3-.22-.59-.45-.88-.67l10.38-13.46c.24,.18,.48,.36,.72,.54l-10.22,13.59Zm71.7-1.62l-9.59-14.04c.25-.17,.5-.34,.74-.52l9.75,13.93c-.3,.21-.6,.42-.9,.62Zm-103.49-.43c-.28-.25-.56-.5-.83-.76l11.54-12.48c.21,.2,.43,.4,.65,.59l-11.36,12.65Zm134.29-4.39l-13.22-10.69c.19-.23,.38-.47,.56-.7l13.35,10.52c-.23,.29-.46,.58-.69,.86Zm-24.82-1.77l-8.61-14.66,.81-.48,8.72,14.6-.91,.54Zm3.4-13.72l-11.55-12.47c.22-.21,.44-.41,.66-.62l11.69,12.34c-.27,.25-.53,.5-.8,.75Zm86.11-5.63l-.34-1.01,16.13-5.37,.3,.9-16.09,5.48Zm-232.26-7.26c-.16-.33-.31-.67-.46-1l15.48-7.02c.12,.27,.25,.55,.38,.82l-15.4,7.2Zm174.54-5.38l-14.08-9.53,.52-.78,14.16,9.41-.6,.89Zm-144.62-.91l-.53-.89,14.64-8.64,.49,.83-14.61,8.7Zm154.05-1.36l-12.77-11.23,.63-.72,12.82,11.16-.69,.79Zm-179.9-6.06l-.33-1,16.15-5.29,.3,.9-16.12,5.4Zm187.97-5.54l-15.85-6.15,.35-.91,15.86,6.12-.37,.95Zm-16.07-13.46l-15.84-6.18,.35-.91,15.86,6.12-.38,.97Zm-205.57-4.01l-.28-1.02,16.4-4.47,.25,.91-16.37,4.59Zm253.31-8.78l-.03-1.04,16.99-.5,.03,.96-16.99,.57Zm-10.73-7.01l-15.46-7.06,.4-.88,15.49,7-.43,.95Zm-224.54-.64v-.43s0-.64,0-.64l17,.09v.53s0,.4,0,.4l-17,.06Zm209.44-.01l-16.05-5.6,.33-.94,16.06,5.58-.33,.96Zm-203.93-12.4l-.11-1,16.9-1.86,.11,.99-16.9,1.86Zm213.71-3.51l-16.53-3.97,.23-.95,16.54,3.92-.24,1Zm-18.25-14.67l-16.76-2.85,.16-.95,16.77,2.78-.17,1.03Zm-205.31-4.76l-16.83-2.38,.15-1.05,16.81,2.5-.14,.93Zm239.26-8.05l-.04-.97,16.98-.75,.04,1.03-16.99,.7Zm-12.1-7.15l-16.68-3.3,.19-.97,16.68,3.29-.2,.99Zm-201.94-12.75l-16.88-2.06,.14-1.07,16.86,2.21-.12,.92Zm206.99-4.16l-16.92-1.64,.09-.98,16.92,1.61-.1,1.01Zm-217.45-13.65l-15.13-7.74,.48-.93,15.09,7.82-.44,.85Zm177.42-1.53l-.03-.96,16.99-.62,.04,1.04-16.99,.55Zm38.59-8.01c-.11-.28-.23-.56-.34-.84l15.71-6.49c.14,.34,.28,.68,.41,1.02l-15.79,6.3Zm-178.13-.47l-14.47-8.92,.54-.88,14.45,8.96-.52,.84Zm173.66-9.87l-.19-.93,16.65-3.45,.21,1.03-16.67,3.36Zm-228.67-.89c-.02-.36-.03-.73-.05-1.09l16.99-.65,.04,.92-16.98,.82Zm45.31-4.11l-13.71-10.05,.63-.86,13.64,10.15-.56,.75Zm173.52-12.72l-.07-.94,16.94-1.39,.08,1.06-16.95,1.26Zm-173.72-2.34l-12.63-11.38,.69-.76,12.59,11.42-.65,.72Zm39.99-8l-11.15-12.83c.29-.25,.57-.49,.85-.73l10.96,12.99c-.22,.19-.44,.38-.67,.57Zm121.24-1.72l-.62-.74,12.98-10.97,.67,.8-13.03,10.92Zm-19.27-.48l-.24-.93,16.46-4.25,.26,1.01-16.48,4.17Zm-107.16-7.99l-9.52-14.08,.89-.6,9.41,14.16-.78,.52Zm-50.26-4.18l-11.98-12.06c.27-.27,.55-.54,.82-.8l11.77,12.27c-.21,.2-.41,.4-.61,.6Zm173.89-2.4c-.18-.25-.36-.49-.53-.73l13.69-10.08c.22,.29,.43,.59,.65,.89l-13.8,9.93Zm-121.82-8.55l-10.33-13.5,.82-.62,10.28,13.54-.78,.59Zm43.96-.6l-6.42-15.74,.82-.33-2.19-6.14,.99-.35,.52,1.48-2.01-16.67,.58-.07-1.07-2.55,1-.41,6.42,15.74-.86,.35-4.81-11.52,1.7,15.23-.88,.1,5.02,14.36-.36,.13,2.42,6.04-.88,.35Zm44.77-4.75c-.25-.09-.51-.18-.76-.26l5.32-16.14c.38,.12,.76,.25,1.14,.39l-5.7,16.02Zm35.21-3.24c-.16-.24-.32-.47-.49-.71l13.9-9.78c.22,.31,.44,.63,.65,.94l-14.07,9.54Zm-134.31-1.49l-5.23-16.18,.96-.31,5.22,16.18-.95,.31Zm-126.61-17.74c-.37-.03-.73-.06-1.1-.09l1.49-16.93c.3,.03,.6,.05,.9,.07l-1.29,16.95Zm224.83-4.47c-.28-.05-.56-.1-.84-.14l2.67-16.79c.38,.06,.76,.13,1.14,.19l-2.98,16.74Zm-172.33-2.97l-5.12-16.21,.91-.29,5.22,16.18-1,.32Zm-104.01-14.46c-.25-.26-.51-.51-.75-.77l-.09-.09,12.34-11.69,.05,.06c.15,.15,.33,.34,.51,.52l-12.06,11.98Zm152.26-3.61l-5.9-15.95,.97-.35,5.84,15.96-.91,.34Zm93.22-2.51c-.26-.13-.52-.27-.78-.4l7.64-15.19c.34,.17,.67,.34,1,.52l-7.87,15.07Zm-46.09-8.92l-1.09-16.96,1.06-.06,.97,16.97-.94,.06Zm-221.24-36.31l-.1-1.05,16.93-1.59,.09,.95-16.92,1.69Zm19.26-50.6l-16.83-2.38,.14-1.01,16.83,2.41-.14,.98Zm9.81-49.18l-16.46-4.24,.26-1,16.45,4.3-.24,.94Zm15.22-47.78l-15.88-6.06,.36-.95,15.87,6.09-.35,.92Z"/><polygon class="lasso-1" points="450.75 854.93 450.27 854.61 459.75 840.5 460.11 840.74 450.75 854.93"/></g><path class="lasso-2" d="M46.55,325.25c-12.8,0-23.7-4.92-31.8-14.44-9.6-11.28-12.99-26.3-14.15-36.92-1.39-12.81-.33-26.66,2.91-37.99h0c14.5-50.6,61.33-102.54,89.31-133.57,1.77-1.97,3.46-3.83,5.03-5.59C138.04,51.94,178.08,22.26,220.28,6c20.95-8.07,51.09-9.68,67.76,5.85,7.78,7.25,15.5,20.97,8.09,45.16-12.68,41.44-39.36,76.72-62.9,107.85-30.19,39.93-57.4,70.92-85.65,97.53-2.79,2.63-5.66,5.39-8.6,8.23-23.22,22.36-52.11,50.19-86.09,54.24-2.16,.26-4.27,.39-6.34,.39Zm-26.7-84.66h0c-5.27,18.39-3.78,45.56,7.84,59.2,5.7,6.69,13.29,9.37,23.18,8.19,28.31-3.38,54.93-29.01,76.31-49.61,2.99-2.88,5.91-5.69,8.74-8.36,27.54-25.95,54.15-56.27,83.75-95.41,23.79-31.47,48.4-64.01,60.2-102.58,3.88-12.68,2.73-22.01-3.43-27.75-9.4-8.76-30.92-9.8-50.06-2.42-39.63,15.27-77.53,43.47-115.88,86.23-1.59,1.77-3.28,3.65-5.07,5.63-25.22,27.97-72.18,80.05-85.59,126.87Z"/><path class="lasso-1" d="M52.33,324.93l-1.86-16.9,.89-.11,2.1,16.87-1.13,.13Zm50.88-22.67l-10.18-13.61,.77-.58,10.26,13.55-.85,.64Zm-98.32-9.04c-.13-.36-.25-.72-.38-1.08l16.1-5.45c.1,.28,.19,.56,.29,.84l-16.02,5.69Zm137.79-26.15l-11.77-12.26,.73-.7,11.77,12.26-.73,.7Zm-123.07-25.61l-16.41-4.45c.1-.37,.2-.73,.31-1.09l.07-.24,7.34,2.34,8.97,2.44-.04,.14h0c-.08,.29-.16,.57-.24,.87Zm159.96-11.59l-12.54-11.48,.68-.74,12.55,11.47-.69,.76ZM40.19,196.59l-14.52-8.84,.54-.89,14.49,8.89-.52,.84Zm173.44-6.54l-13.25-10.65,.62-.78,13.27,10.63-.65,.81Zm-143.99-34.83l-13.28-10.61,.66-.82,13.24,10.67-.62,.77Zm175.76-6.58l-13.66-10.11,.59-.8,13.68,10.09-.61,.83ZM103.15,116.28l-12.61-11.4,.67-.75,12.63,11.38-.69,.77Zm171.66-11.47l-14.71-8.52,.49-.86,14.74,8.47-.52,.9Zm-136.27-25.43l-11.61-12.42,.76-.71,11.57,12.45-.73,.68Zm158.02-23.79l-16.34-4.69c.08-.29,.16-.58,.24-.86l16.41,4.45c-.1,.36-.2,.73-.31,1.1Zm-118.72-7.93l-9.57-14.05,.86-.58,9.53,14.08-.82,.56Zm43.9-23.93l-6.47-15.72,.97-.4,6.41,15.75-.91,.37Zm45.64-4.55c-.26-.09-.52-.17-.78-.25l5-16.25c.39,.12,.78,.24,1.16,.37l-5.38,16.12Z"/></g></g></svg>
