<?xml version="1.0" encoding="UTF-8"?><svg xmlns="http://www.w3.org/2000/svg"><defs><style>.raygun-1{fill:#0081ad;}.raygun-2{fill:#7e8198;}.raygun-3{fill:#b4b6c8;}.raygun-4{fill:#85d9a5;}.raygun-5{mix-blend-mode:multiply;opacity:.12;}.raygun-6{stroke:#7e8198;stroke-width:11px;}.raygun-6,.raygun-7{fill:none;stroke-miterlimit:10;}.raygun-8{isolation:isolate;}.raygun-7{stroke:#85d9a5;stroke-width:9px;}</style></defs><g class="raygun-8"><g id="Layer_2"><g id="Left"><g id="Left-Raygun"><path class="raygun-3" d="M175.17,123.29c-.99,1.31-2.03,2.58-3.12,3.8,1.08,1.86,3.12,3.12,5.27,3.26,1.63,.11,3.72-.45,4.86-1.71s1.37-2.55,2.93-3.53c1.85-1.16,3.69-1.15,5.71-1.68,3.85-1.02,7.01-3.95,9.24-7.15,.93-1.33,2.36-3.26,2.44-4.93,.09-1.82-1-4.23-1.78-5.84-.27-.55-1.74-5.11-2.31-5.07-3.32,.15-6.62,.66-9.83,1.55-3.18,.87-4.15,1.95-5.07,5.1-1.72,5.88-4.67,11.33-8.36,16.21Z"/><path class="raygun-2" d="M210.66,133.94c.49,1.34,.96,2.68,1.43,4.03,3.06,8.94,3.28,10.12,5.43,19.31s2.86,18.42,3.29,28.14c.09,2.05,.21,4.21,1.33,5.93,2.71,4.19,8.23,3.58,12.49,3.41,5.58-.21,11-2.13,15.75-5.01,6.35-3.86,11.57-9.33,16.37-15,2.08-2.45,4.16-5.08,4.8-8.23,1.02-5-1.82-9.92-4.83-14.04-6.42-8.79-20.84-44.13-22.62-56.07-.54-3.64-.89-7.31-1.83-10.86-.2-.75-.46-1.55-1.07-2.04-.59-.47-1.38-.55-2.13-.59-4.77-.2-9.46,1.19-13.92,2.9-5.48,2.1-10.77,4.69-15.78,7.74-3,1.82-6.42,3.37-8.81,6.01-3.47,3.83-2.77,6.52-.5,10.68,4.15,7.61,7.64,15.56,10.61,23.69Z"/><path class="raygun-2" d="M239.45,1.07c2.95,1.88,2.98,6.23,1.07,11.24-4.76,12.47-1.86,22.01,.97,33.35-7,.43-14.11,.85-20.97-.62-6.84-1.46-13.07-4.73-19.18-8.01-3.08-1.66-6.15-3.35-9.32-4.85-2.92-1.39-13.28-.7-11.26-4.14,4.27-7.26,15.82-13.58,20.84-16.38,9.45-5.29,19.72-9.11,30.33-11.29,3.35-.69,5.83-.37,7.52,.71Z"/><path class="raygun-6" d="M160.59,108.42c-1.1,5.15-2.21,10.38-1.87,15.63s2.31,11.6,6.4,14.92c3.54,2.88,7.08,3.9,11.61,4.49,13.74,1.78,24.5-1.66,37.55-6.3"/><path class="raygun-3" d="M96.11,96.61c20.75,9.77,41.44,14.43,65.9,14.43,36.87,0,70.85-12.41,97.97-33.29,7.24-5.57,7.24-16.39,0-21.96-27.12-20.87-61.1-33.29-97.97-33.29-24.2,0-45.31,4.67-65.9,14.24v59.87Z"/><path class="raygun-5" d="M96.11,96.61c20.75,9.77,41.44,14.43,65.9,14.43,36.87,0,70.85-12.41,97.97-33.29,7.24-5.57,7.24-16.39,0-21.96-.21-.16-3.07-2.66-3.33-2.34-14.35,17.67-36.42,27.41-58.59,32.61-25.91,6.08-53.07,6.76-79.26,2.01-8.13-1.48-16.56-3.68-22.59-9.33-.26,1.47-1.23,17.35-.11,17.88Z"/><ellipse class="raygun-2" cx="96.11" cy="66.68" rx="6.71" ry="29.93"/><path class="raygun-7" d="M77.82,112.77c-5.48,0-9.92-20.59-9.92-45.99s4.44-45.99,9.92-45.99"/><path class="raygun-7" d="M52.95,99.57c-4.67,0-8.46-14.68-8.46-32.8s3.79-32.8,8.46-32.8"/><path class="raygun-3" d="M94.96,59.53s-.03,0-.05,.01v-.02H26.15v14.5H94.91s.03,0,.05,0c.89,0,1.6-3.25,1.6-7.25s-.72-7.25-1.6-7.25Z"/><path class="raygun-5" d="M26.15,66.68v7.35H94.91s.03,0,.05,0c.89,0,1.6-3.25,1.6-7.25l-70.42-.1Z"/><circle class="raygun-3" cx="15.27" cy="66.78" r="15.27"/><path class="raygun-5" d="M30.54,66.78c0,8.43-6.84,15.27-15.27,15.27S0,75.21,0,66.78c0-1.4,.22-2.58,.61-3.92,.02,4.89,3.64,9.47,8.32,10.9s10.07-.21,13.39-3.81,4.54-8.92,3.42-13.69c3.36,2.2,4.79,6.6,4.79,10.51Z"/><circle class="raygun-1" cx="180.76" cy="66.78" r="12.62"/><circle class="raygun-1" cx="211.26" cy="66.78" r="9.11"/><circle class="raygun-1" cx="234.94" cy="66.78" r="5.8"/><path class="raygun-4" d="M209.39,112.21c.5-2.76,2.88-3.94,5.28-4.83,4.64-1.73,8.17-3.41,12.84-5.05,3.55-1.25,8.36-4.17,11.55-.78,1.33,1.43,2.08,3.32,2.57,5.21,4.44,17.17,9.88,31.23,17.84,46.32,1.66,3.14,2.95,6.63,2.79,10.18-.13,3.02-1.47,5.87-3.11,8.41-5.27,8.18-14.02,14.03-23.6,15.76-2.21,.4-4.66,.54-6.52-.71-2.96-1.99-2.95-6.24-2.96-9.81-.02-8.91-2.16-17.68-4.46-26.29-2.01-7.56-3.48-14.21-6.42-22.19-1.77-4.81-6.74-10.75-5.82-16.17,0-.02,0-.04,.01-.06Z"/><circle class="raygun-2" cx="226.77" cy="114.54" r="3.5"/><circle class="raygun-2" cx="244.25" cy="171.28" r="3.5"/><path class="raygun-7" d="M52.95,33.98c4.67,0,8.46,14.68,8.46,32.8s-3.79,32.8-8.46,32.8"/><path class="raygun-7" d="M77.82,20.78c5.48,0,9.92,20.59,9.92,45.99s-4.44,45.99-9.92,45.99"/></g></g></g></g></svg>
