<?xml version="1.0" encoding="UTF-8"?><svg id="Layer_2" xmlns="http://www.w3.org/2000/svg"><defs><style>.game-1{fill:#f9bc35;}.game-2{fill:#009444;}.game-3{fill:#ed1c24;}.game-4{fill:#a7a9ac;}.game-5{fill:#808285;}.game-6{fill:#328ecc;}.game-7{fill:#58595b;}</style></defs><g id="Left"><g id="Left-GameController"><path class="game-5" d="M28.83,37.57c-11.01,4.44-20.81,11.86-28.07,21.26-1.05,1.36-1.02,3.26,.09,4.57,1.36,1.62,2.65,3.34,4.14,4.78,10.6-5.5,24.24-14.7,33.06-22.76l-5.01-6.66c-.98-1.3-2.7-1.79-4.2-1.19Z"/><path class="game-5" d="M109.78,4.89C120.79,.44,133-1.02,144.74,.71c1.7,.25,2.99,1.64,3.11,3.35,.14,2.11,.41,4.24,.34,6.31-11.45,3.41-27.65,6.25-39.59,6.57l-1.01-8.27c-.2-1.61,.7-3.17,2.2-3.77Z"/><path class="game-4" d="M148.39,9.96c-9.62-3.64-20.67-3.8-34.15,1.16-13.13,4.83-26.1,10.12-39.26,14.87C51.14,34.61,26.88,43.33,9.02,61.58-4.35,75.23,.92,98.25,2.95,115.15c2.55,21.23,8.24,42.08,16.94,61.62,4.04,9.07,9.8,18.77,19.44,21.16,6.97,1.73,14.5-1,19.94-5.7,5.44-4.69,9.08-11.12,12.04-17.67,5.64-12.51,9.16-25.97,10.35-39.65,.44-5.07,.6-10.29,2.56-14.99,3.35-8,11.12-12.83,19.1-16.67,8.41-2.78,17.36-4.7,25.32-1.26,4.68,2.02,8.41,5.67,12.25,9.01,10.35,9.01,22.23,16.26,34.98,21.35,6.67,2.66,13.76,4.76,20.93,4.36,7.17-.4,14.49-3.66,18.31-9.75,5.28-8.41,2.7-19.39-.69-28.73-6.85-18.87-16.42-36.74-28.24-52.96-11.66-16-23.06-29.73-37.8-35.31Z"/><circle class="game-7" cx="138" cy="43.66" r="29.23"/><circle class="game-7" cx="35.48" cy="85.05" r="29.24"/><circle class="game-1" cx="132.6" cy="29.03" r="8.04"/><circle class="game-2" cx="144.37" cy="58.17" r="8.04"/><circle class="game-6" cx="123.43" cy="49.28" r="8.04"/><circle class="game-3" cx="153.26" cy="37.24" r="8.04"/><path class="game-5" d="M37.73,75.23l-2.54,5.85c-.38,.87-1.38,1.28-2.26,.91l-5.89-2.45c-.43-.18-.77-.52-.94-.95l-4.75-11.77c-.36-.89,.07-1.9,.96-2.26l8.43-3.4c.89-.36,1.9,.07,2.26,.96l4.75,11.77c.17,.43,.17,.91-.02,1.34Z"/><path class="game-5" d="M33.23,94.88l2.54-5.85c.38-.87,1.38-1.28,2.26-.91l5.89,2.45c.43,.18,.77,.52,.94,.95l4.75,11.77c.36,.89-.07,1.9-.96,2.26l-8.43,3.4c-.89,.36-1.9-.07-2.26-.96l-4.75-11.77c-.17-.43-.17-.91,.02-1.34Z"/><path class="game-5" d="M45.3,87.3l-5.85-2.54c-.87-.38-1.28-1.38-.91-2.26l2.45-5.89c.18-.43,.52-.77,.95-.94l11.77-4.75c.89-.36,1.9,.07,2.26,.96l3.4,8.43c.36,.89-.07,1.9-.96,2.26l-11.77,4.75c-.43,.17-.91,.17-1.34-.02Z"/><path class="game-5" d="M25.66,82.8l5.85,2.54c.87,.38,1.28,1.38,.91,2.26l-2.45,5.89c-.18,.43-.52,.77-.95,.94l-11.77,4.75c-.89,.36-1.9-.07-2.26-.96l-3.4-8.43c-.36-.89,.07-1.9,.96-2.26l11.77-4.75c.43-.17,.91-.17,1.34,.02Z"/><rect class="game-5" x="69.24" y="60.44" width="14.74" height="5.25" transform="translate(-18.04 33.27) rotate(-21.98)"/><rect class="game-5" x="87.3" y="53.15" width="14.74" height="5.25" transform="translate(-14 39.5) rotate(-21.98)"/><circle class="game-5" cx="70.2" cy="102.35" r="14.7"/><circle class="game-5" cx="126.51" cy="79.62" r="14.7"/></g></g></svg>
