<?xml version="1.0" encoding="UTF-8"?><svg id="Layer_2" xmlns="http://www.w3.org/2000/svg"><defs><style>.ankh-1{fill:#edc05d;}.ankh-2{fill:#d1a652;}</style></defs><g id="Left"><g id="Left-Ankh"><polygon class="ankh-2" points="71.09 102.64 104.94 227.72 73.63 234.35 53.89 106.28 71.09 102.64 71.09 102.64"/><polygon class="ankh-2" points="64.76 115.19 4.76 133.19 0 110.69 62.14 102.83 64.76 115.19 64.76 115.19"/><polygon class="ankh-2" points="62.14 102.83 122.13 84.83 126.9 107.33 64.76 115.19 62.14 102.83 62.14 102.83"/><path class="ankh-2" d="M92.3,38.15c3.77,21.22-7.91,47.77-17.21,66.41-2.47,4.92-6.35,11.6-8.86,16.61-8.89-6.48-18.07-13.46-26.08-20.92-12.8-11.96-29.09-28.54-32.17-46.62C1.61,19.1,33.94-11.92,67.53,4.55c12.96,6.49,21.97,19.56,24.77,33.61h0Zm-18.55,3.93c-2.93-13.46-16.35-25.12-30.29-21.27-13.2,3.3-19.51,19.2-16.43,31.83,4.09,15.93,24.8,35.38,37.22,46.39,1.37,1.2,2.84,2.44,4.14,3.51l-12.05,2.51c7.99-16.26,20.82-45.17,17.41-62.99h0Z"/><g id="Left-Ankh-2"><polygon class="ankh-1" points="67.05 103.5 97.6 229.27 80.97 232.79 57.92 105.43 67.05 103.5 67.05 103.5"/><polygon class="ankh-1" points="64.07 111.96 3.52 127.32 1.24 116.56 62.82 106.05 64.07 111.96 64.07 111.96"/><polygon class="ankh-1" points="62.82 106.05 123.37 90.7 125.65 101.46 64.07 111.96 62.82 106.05 62.82 106.05"/><path class="ankh-1" d="M87.66,39.13c3.97,21.84-10.42,52.71-20.66,71.84,0,0-2.23,4.15-2.23,4.15-7.54-5.64-14.79-11.61-21.64-18.01-11.54-10.99-25.44-25.3-29.78-41.09C5.37,24.54,33.77-6.11,65.29,9.03c11.68,5.77,19.77,17.49,22.37,30.11h0Zm-9.28,1.96c-3.34-16.18-19.5-29.91-36.27-25.1-14.84,3.82-22.83,20.81-20.18,35.33,2.68,18.44,29.68,42.76,43.98,54.45,0,0-6.02,1.26-6.02,1.26,2.73-5.16,5.3-10.63,7.65-16.08,6.02-14.54,13.68-34.28,10.84-49.86h0Z"/></g></g></g></svg>
