<?xml version="1.0" encoding="UTF-8"?><svg xmlns="http://www.w3.org/2000/svg"><defs><style>.book-1{fill:#fff2e3;}.book-2{fill:#a5325e;}.book-3{mix-blend-mode:multiply;opacity:.12;}.book-4{fill:none;stroke:#7e8198;stroke-linecap:round;stroke-miterlimit:10;stroke-width:2px;}.book-5{isolation:isolate;}</style></defs><g class="book-5"><g id="Layer_2"><g id="Left"><g id="Left-Book"><path class="book-2" d="M131.56,292.22l154.99-84.04c2.8-1.52,3.71-5.11,1.97-7.78L159.28,2.47c-1.74-2.67-5.38-3.28-7.9-1.34L17.68,104.36l113.87,187.85Z"/><path class="book-1" d="M237.26,224.46c-9.71,4.29-20.99,9.78-30.91,13.57-14.15,5.41-25.2,12.25-38.28,19.9-16.9,9.88-29.24,18.84-38.94,35.72,2.96-5.14-6.07-19.66-8.84-23.35-1.22-1.63-2.59-3.3-2.9-5.32-.34-2.16,.6-4.3,1.58-6.25,16.07-32.04,48.86-51.96,81.32-67.15,10.05-4.71,20.29-9.31,31.08-12.04,8.17-2.07,20.9-2.63,29.01,.33,0,0,.79,19.49,.33,25.15-3.97,6.5-16.24,16.26-23.45,19.45Z"/><path class="book-3" d="M237.26,224.46c-9.71,4.29-20.99,9.78-30.91,13.57-14.15,5.41-25.2,12.25-38.28,19.9-16.9,9.88-29.24,18.84-38.94,35.72,2.96-5.14-6.07-19.66-8.84-23.35-1.22-1.63-2.59-3.3-2.9-5.32-.34-2.16,.6-4.3,1.58-6.25,16.07-32.04,48.86-51.96,81.32-67.15,10.05-4.71,20.29-9.31,31.08-12.04,8.17-2.07,20.9-2.63,29.01,.33,0,0,.79,19.49,.33,25.15-3.97,6.5-16.24,16.26-23.45,19.45Z"/><path class="book-1" d="M73.13,60.09c6.99-4.73,14.45-8.76,22.23-12.06,18.42-7.81,48-20.61,57.09-38.96l107.92,170.79c-12.11,35.15-59.94,41.59-90.84,61.72-12.38,8.07-40.7,31.23-40.93,47.47-6.31-3.21,.21-20.1-3.86-25.76-7.07-9.85-14.05-19.76-21.03-29.68-10.76-15.31-21.22-30.89-32.29-45.97-11.46-15.62-23.01-31.16-34.65-46.63-3.09-4.11-9.81-9.3-10.78-14.67s3.61-13.62,5.84-18.4c9.28-19.87,23.82-36.03,41.3-47.85Z"/><g><path class="book-4" d="M40.9,117.37c3.88-14.27,12.75-27.14,24.71-35.85,13.56-9.87,25.04-16.7,40.91-22.11,15.87-5.4,34.66-13.71,44.32-27.42"/><path class="book-4" d="M49.62,131.13c3.89-14.11,13.03-26.58,25.01-34.95,13.42-9.41,25.1-16.03,40.62-21.39,16.06-5.57,35.02-14.19,44.86-28.05"/><path class="book-4" d="M58.34,144.89c3.9-13.95,13.31-26.03,25.31-34.06,13.28-8.96,25.16-15.36,40.33-20.67,16.25-5.74,35.39-14.66,45.41-28.69"/><path class="book-4" d="M67.05,158.65c3.91-13.79,13.61-25.44,25.61-33.16,13.16-8.47,25.22-14.69,40.03-19.95,16.44-5.91,35.75-15.13,45.95-29.32"/><path class="book-4" d="M75.77,172.42c3.92-13.63,13.89-24.88,25.91-32.27,13.03-8.01,25.3-13.98,39.74-19.23,16.64-6.04,36.11-15.61,46.5-29.95"/><path class="book-4" d="M84.48,186.18c3.93-13.47,14.18-24.32,26.22-31.37,12.89-7.55,25.36-13.31,39.45-18.51,16.83-6.21,36.48-16.08,47.04-30.59"/><path class="book-4" d="M93.2,199.94c3.93-13.31,14.45-23.76,26.52-30.48,12.75-7.1,25.42-12.64,39.16-17.79,17.02-6.38,36.84-16.55,47.59-31.22"/><path class="book-4" d="M101.91,213.7c3.94-13.15,14.73-23.21,26.82-29.58s25.48-11.97,38.87-17.07c17.21-6.56,37.2-17.03,48.13-31.85"/><path class="book-4" d="M110.63,227.47c3.95-12.99,15.01-22.66,27.12-28.69,12.46-6.2,25.54-11.32,38.58-16.35,17.39-6.76,37.57-17.5,48.68-32.49"/><path class="book-4" d="M119.34,241.23c3.96-12.83,15.27-22.13,27.42-27.79,12.31-5.78,25.6-10.65,38.29-15.63,17.57-6.93,37.93-17.97,49.22-33.12"/><path class="book-4" d="M128.06,254.99c3.97-12.67,15.55-21.57,27.72-26.9s25.66-9.98,38-14.91c17.76-7.1,38.29-18.45,49.77-33.75"/></g><path class="book-2" d="M17.68,104.36l117.53,179.28,35.42-49.05c1.62-2.24,1.69-5.25,.18-7.57L31.86,20.75c-2.41-3.57-7.97-2.09-8.28,2.21l-5.89,81.41Z"/><path class="book-2" d="M117.56,294.47c1.2,2.52,5.71,4.93,8.95,3.99s3.61-3.19,5.05-6.24,1.5-5.98,3.65-8.58L17.68,104.36c-1.54,2.96-5.86,3.37-8.98,4.55-3.13,1.18-5.74,1.47-7.59,4.25s-1.42,6.22,1.56,9.12l114.89,172.18Z"/><path class="book-3" d="M131.56,292.22c1.44-3.05,1.5-5.98,3.65-8.58L17.68,104.36c-1.54,2.96-5.86,3.37-8.98,4.55-3.13,1.18,121.42,186.35,122.86,183.3Z"/></g></g></g></g></svg>
