<?xml version="1.0" encoding="UTF-8"?><svg xmlns="http://www.w3.org/2000/svg"><defs><style>.left-1{fill:#14d1df;}.left-2{fill:#231f20;}.left-3{fill:#414042;}.left-4{isolation:isolate;}.left-5{mix-blend-mode:multiply;opacity:.18;}</style></defs><g class="left-4"><g id="Layer_2"><g id="Left"><g id="Left-Skateboard"><path class="left-1" d="M34.06,522.61c27.74,7.47,49.25,3.28,67.76-22.92,5.51-7.81,10.76-15.42,14.97-24,21.34-43.46,38.5-96.78,44.86-144.99,2.62-19.89,6.36-39.11,9.31-58.89,11.83-79.35,47.11-180.16-14.57-248.08-5.02-5.53-11.4-10.97-18.86-10.7,10.76,56.01,9.9,112.59,.44,168.83-4.4,26.13-10.96,51.9-14.17,78.2-3.73,30.58-2.91,61.76-9.43,91.87-4.91,22.68-13.88,44.24-22.81,65.66-15.09,36.22-31.92,75.26-57.49,105.02Z"/><path class="left-5" d="M34.06,522.61c27.74,7.47,49.25,3.28,67.76-22.92,5.51-7.81,10.76-15.42,14.97-24,21.34-43.46,38.5-96.78,44.86-144.99,2.62-19.89,6.36-39.11,9.31-58.89,11.83-79.35,47.11-180.16-14.57-248.08-5.02-5.53-11.4-10.97-18.86-10.7,10.76,56.01,9.9,112.59,.44,168.83-4.4,26.13-10.96,51.9-14.17,78.2-3.73,30.58-2.91,61.76-9.43,91.87-4.91,22.68-13.88,44.24-22.81,65.66-15.09,36.22-31.92,75.26-57.49,105.02Z"/><path class="left-1" d="M46.59,276.41c11.47-46.91,21.63-94.07,28.43-141.64,2.89-20.22,5.32-40.78,2.64-61.03-2.14-16.18-7.48-32.91-2.27-48.38,3.93-11.67,14.01-21.06,25.93-24.16,12.95-3.37,27.08,.61,37.96,8.4,10.88,7.79,18.85,19.05,25.01,30.93,21.74,41.94,21.7,88.08,14.93,133.15-7.49,49.8-16.5,108.11-27.42,165.03-10.25,53.42-22.8,86.39-40.56,128.26-7.97,18.79-14.53,33.83-26.4,46.41-21.82,23.12-54.4,16.8-71.11-5.6-15.84-21.24-16.23-41.11-9.9-66.19,13.86-54.88,29.23-109.85,42.76-165.18Z"/><ellipse class="left-5" cx="101.73" cy="145.15" rx="6.06" ry="3.92" transform="translate(-66.67 200.47) rotate(-73.16)"/><ellipse class="left-5" cx="134.15" cy="155.3" rx="6.06" ry="3.92" transform="translate(-53.35 238.71) rotate(-73.16)"/><ellipse class="left-5" cx="105.91" cy="113.33" rx="6.06" ry="3.92" transform="translate(-33.24 181.87) rotate(-73.16)"/><ellipse class="left-5" cx="139.21" cy="125.95" rx="6.06" ry="3.92" transform="translate(-21.67 222.71) rotate(-73.16)"/><ellipse class="left-5" cx="44.9" cy="418.5" rx="5.72" ry="3.69" transform="translate(-368.66 340.24) rotate(-73.16)"/><ellipse class="left-5" cx="77.02" cy="427.55" rx="5.72" ry="3.69" transform="translate(-354.51 377.41) rotate(-73.16)"/><ellipse class="left-5" cx="57.71" cy="385.62" rx="5.72" ry="3.69" transform="translate(-328.09 329.14) rotate(-73.16)"/><ellipse class="left-5" cx="88.42" cy="395.41" rx="5.72" ry="3.69" transform="translate(-315.64 365.49) rotate(-73.16)"/><path class="left-2" d="M170.45,459.71c2.11-10.93-3.74-23.23-2.84-34.32-11.53-2.13-18.44-7.49-29.64-1.44-9.57,5.17-15.39,15.77-17.39,26.15-1.99,10.35-.55,22.28,6.33,30.64,7.66,9.3,17.37,9.77,28.45,11.33,1.63-3.13,6.71-6.27,7.66-9.67,2.15-7.69,5.92-14.86,7.42-22.68Z"/><ellipse class="left-3" cx="159.81" cy="458.43" rx="33.97" ry="25.39" transform="translate(-320.58 528.6) rotate(-79.09)"/><ellipse cx="161.7" cy="458.8" rx="14.76" ry="9.1" transform="translate(-319.41 530.75) rotate(-79.09)"/><path class="left-2" d="M230.08,159.05c1.57-11.02-5.47-23.34-5.11-34.46-11.62-1.56-18.17-6.28-29.07,.31-9.31,5.63-14.6,16.5-16.1,26.97-1.49,10.43,.53,22.28,7.81,30.29,8.11,8.91,17.07,8.98,28.22,10,1.47-3.2,7.15-6.66,7.94-10.09,1.77-7.79,5.19-15.13,6.31-23.02Z"/><ellipse class="left-3" cx="219.39" cy="158.09" rx="33.97" ry="25.39" transform="translate(31.86 352.92) rotate(-81.87)"/><ellipse cx="221.29" cy="158.36" rx="14.76" ry="9.1" transform="translate(33.23 355.04) rotate(-81.87)"/></g></g></g></g></svg>
