<?xml version="1.0" encoding="UTF-8"?><svg xmlns="http://www.w3.org/2000/svg" xmlns:xlink="http://www.w3.org/1999/xlink"><defs><style>.clubmate-1,.clubmate-2{fill:none;}.clubmate-3{clip-path:url(#clippath4);}.clubmate-4{stroke-width:1.2px;}.clubmate-4,.clubmate-5,.clubmate-6,.clubmate-7{fill:#fff;}.clubmate-4,.clubmate-2,.clubmate-6{stroke-miterlimit:10;}.clubmate-4,.clubmate-6{stroke:#1c2d7f;}.clubmate-8{fill:#f4b554;}.clubmate-9{fill:#f2664a;}.clubmate-10{fill:#ffeed1;}.clubmate-11{fill:#ffcc5a;}.clubmate-12{fill:#febc55;}.clubmate-13,.clubmate-14{fill:#1c2d7f;}.clubmate-15{fill:#1a5abc;}.clubmate-2{stroke:#f4784f;stroke-dasharray:0 0 0 1.22;stroke-linecap:round;stroke-width:.97px;}.clubmate-6{stroke-width:.48px;}.clubmate-16{clip-path:url(#clippath-1);}.clubmate-17{clip-path:url(#clippath-3);}.clubmate-18{clip-path:url(#clippath-2);}.clubmate-19{isolation:isolate;}.clubmate-14{font-family:African, African;font-size:11.6px;letter-spacing:-.04em;}.clubmate-20{opacity:.25;}.clubmate-20,.clubmate-21{mix-blend-mode:multiply;}.clubmate-21{opacity:.18;}.clubmate-22{fill:#7e8198;}.clubmate-22,.clubmate-23{opacity:.6;}.clubmate-23{fill:#e6e7e8;}.clubmate-24{fill:#e5ac45;}.clubmate-24,.clubmate-7{opacity:.85;}</style><clipPath id="clippath4"><path class="clubmate-1" d="M89.88,136.57c-.17-.04-.33-.1-.51-.13-5.01-1.01-10.69,1.14-13.56,5.5-4.83,7.35-2.67,18.88,4.47,23.98,1.31,.94,2.78,1.67,4.33,2.11,4.25,1.23,9.21,.23,12.45-2.74"/></clipPath><clipPath id="clippath-1"><path class="clubmate-1" d="M39.3,60.12s-.08,.1-.13,.15c-2.07,2.54-1.89,7-.6,9.81,1.03,2.25,3.09,4.08,5.56,4.63,3.83,.86,7.67-1.52,8.22-5.46,.53-3.79-1.42-9.22-5.02-10.99-2.66-1.31-6.15-.31-8.03,1.87Z"/></clipPath><clipPath id="clippath-2"><path class="clubmate-1" d="M67.38,136.26c-5.17,3.48-12.56,11.23-14.93,16.94-5.89,14.19-3.03,27.98,.51,42.67,6.09,25.34,24.88,39.09,49.06,32.5,2.22-.61,6.56-2.42,8.43-4.18-11.02-52.58-22.22-93.86-22.22-93.86-5.62-.16-15.42,2.28-20.85,5.93Z"/></clipPath><clipPath id="clippath-3"><path class="clubmate-1" d="M15.38,73.38c3.26-.39,6.6-.9,9.33-2.77,2.2-1.56,4.36-3.3,5.95-5.47s3.08-4.43,4.98-6.35,4.26-3.48,6.91-3.9c7.33-1.17,9.42,6.77,12.45,11.67,1.4,2.26,2.82,4.51,4.24,6.76,.66,1.05,1.56,2.13,2.07,3.27,.47,1.06,.24,1.86-.1,2.99-1.33,4.49-5.21,7.92-9.44,9.66-2.31,.95-4.78,1.48-7.26,1.76-7.03,.78-13.98-.91-20.92-1.63-4.23-.44-8.55-.17-12.71-.96-.93-.18-1.69-.28-2.08-.47,0,0,.05-.66,.11-1.42,.09-1.29,.21-2.59,.33-3.88,.18-1.91,.26-3.83,.32-5.74,.03-.98,.05-3.07,.05-3.07,0,0,4.68-.31,5.77-.44Z"/></clipPath></defs><g class="clubmate-19"><g id="Layer_2"><g id="Left"><g id="Left-ClubMate"><path class="clubmate-23" d="M85.28,120.78c-6.92-18.29-17.7-34.26-28.19-50.78-10.49-16.51-21.03-43.81-23.46-53.48-4.7-2.19-12.57-1.15-15.5-.41s-10.36,3.53-13.46,7.69c2.43,9.67,6.05,38.71,4.62,58.22-1.43,19.51-3.37,38.68-.82,58.07,2.13,16.22,25.44,98.79,31.61,120.48,.92,3.25,3.49,5.77,6.76,6.63,2.75,.72,5.69,1.47,6.36,1.56,15.73,2.11,32.42-1.37,46.32-8.93,4.42-2.41,8.65-5.27,12.35-8.7,.02-.02,.05-.05,.09-.09,2.31-2.28,3.25-5.6,2.55-8.78-4.69-21.41-23.39-106.09-29.22-121.49Z"/><path class="clubmate-22" d="M102.78,244.45c1.75-.07,3.97,.22,4.46,1.9,.34,1.18-.49,2.43-1.57,3s-2.35,.62-3.58,.67c-16.88,.73-33.62,4.52-49.17,11.13-1.85,.79-5.63,3.79-6.68,1.5-.84-1.84,2.37-4.9,3.57-5.75,6.35-4.49,16.73-6.5,24.17-8.34,9.43-2.34,19.1-3.72,28.8-4.1Z"/><path class="clubmate-24" d="M80.46,123.14c-6.01-15.87-14.16-29.04-23.25-43.36-9.1-14.32-15.6-27.87-19.14-37.5-2.45-.69-10.42,.94-12.96,1.58s-10.75,3.3-12.16,4.74c1.49,11.06,2.11,25.17,.87,42.09-1.24,16.92-2.19,32.38,.02,49.2,1.85,14.07,24.29,94.52,29.64,113.33,.8,2.82,3.03,5,5.87,5.75,2.39,.63,4.93,1.28,5.51,1.35,13.64,1.83,28.13-1.19,40.18-7.75,3.84-2.09,7.5-4.57,10.71-7.55,.02-.02,3.53-2.76,2.29-7.69-4.64-18.44-22.51-100.85-27.57-114.21Z"/><path class="clubmate-15" d="M33.7,11.58c-.53-.5-1.11-.98-1.33-1.66-.32-.99,.21-2.04,.35-3.07,.26-1.87-.93-3.85-2.71-4.49-.08-.03-.57-1.75-1.13-2.04-.89-.47-2.23-.27-3.2-.26-2.5,.01-5,.21-7.47,.59C13.19,1.42,8.28,2.95,3.71,5.19c-.88,.43-1.78,.92-2.39,1.69s-.84,1.93-.3,2.75c-1.23,1.37-1.38,3.59-.34,5.11,.66,.97,1.78,1.74,1.88,2.92,.06,.71-.28,1.38-.5,2.05-.47,1.45-.4,3.08,.2,4.48,.35,.81,.92,1.59,1.76,1.87,1.25,.41,2.53-.4,3.62-1.12,6.91-4.52,15.34-6.66,23.57-5.98,1.54,.13,3.42,.19,4.23-1.12,.32-.51,.38-1.14,.36-1.74-.06-1.59-.74-3.15-1.87-4.28-.08-.09-.17-.17-.26-.25Z"/><path class="clubmate-21" d="M34.74,13.81c.85,.32,.74,1.69,0,2.22s-1.72,.49-2.63,.46c-9.13-.3-17.89,3.24-26.33,6.72-.79,.32-3.21,1.51-2.3,2.61,.99,1.2,3.32-.31,4.18-.88,6.91-4.52,15.34-6.66,23.57-5.98,1.54,.13,3.42,.19,4.23-1.12,.32-.51,.38-1.14,.36-1.74-.04-1.09-.12-1.94-1.09-2.3Z"/><path class="clubmate-20" d="M17.64,10.38c-4.73,.98-9.39,2.58-13.45,5.22-.42,.27-.88,.67-.79,1.16,.08,.42,.56,.65,.98,.62s.8-.27,1.16-.49c7.96-4.92,17.77-6.29,26.82-6.55-.15-.41-.05-1.39-.4-1.64s-1.36,.03-1.76,.06c-1.44,.12-2.88,.25-4.31,.4-2.77,.29-5.53,.66-8.25,1.23Z"/><path class="clubmate-20" d="M16.03,3.03c-4.48,.96-8.88,2.69-12.41,5.61,1.74-.85,3.48-1.69,5.28-2.4,3.27-1.28,6.7-2.08,10.16-2.62,3.54-.56,6.59-.98,10.78-1.2-.09-.36-.18-.72-.27-1.08-1.96,.29-3.98,.47-5.96,.63-2.54,.21-5.07,.52-7.57,1.06Z"/><path class="clubmate-7" d="M17.16,37.64c-.17-.46-.35-.93-.54-1.39-.42-1.05-.46-2.55-1.52-3.19-1.77-1.07-2.41,.64-2.55,2.1-.13,1.34,.32,2.66,.75,3.94,3.34,9.97,4.29,20.21,3.85,30.71-.04,.98-.23,3.28,1.01,3.65,.7,.21,1.46-.19,1.9-.77s.62-1.31,.78-2.02c1.44-6.52,1.24-13.31,.04-19.85-.6-3.31-1.46-6.56-2.51-9.75-.38-1.15-.78-2.29-1.21-3.42Z"/><g><path class="clubmate-11" d="M9.6,70.71c5.85,.18,12.04-1.38,16.53-5.84,2.19-2.18,3.91-4.77,5.9-7.14s4.34-4.57,7.26-5.57,6.9-.69,8.95,1.62c0,0,3.48,7.48,6.76,12.78s8.85,14.04,8.85,14.04c-.64,4.66-4.58,9.27-8.89,11.16-6.32,2.78-13.18,3.88-19.93,2.89-4.58-.67-9.18-1.2-13.79-1.61-4.29-.38-8.56-.28-12.69-1.5,0,0,.23-4.11,.67-8.92s.36-11.93,.36-11.93Z"/><polygon class="clubmate-9" points="61.3 79.07 62.95 79.2 61.3 76.59 55.77 68.65 50.01 57.45 49.74 57.65 48.89 55.12 48.03 56.06 47.4 54.04 46.26 55.15 45.2 52.71 43.8 54.78 42.54 53.1 41.71 55.06 39.32 53.29 39.01 56.16 37.19 55.25 37.14 57.43 34.38 56.52 35.02 59.43 32.93 59.26 33.5 61.24 30.69 61.09 31.61 63.8 29.6 63.72 30.22 65.73 27.17 65.09 27.91 68.11 25.97 67.41 26.23 69.49 23.25 68.16 23.12 71.49 21.29 70.13 20.74 72.39 18.59 70.34 17.57 73.08 15.93 71.64 14.7 73.45 13.04 71.21 11.84 73.72 10.56 72.25 9.58 73.81 15.65 83.9 8.84 87.27 8.62 90.58 10.48 88.34 11.21 90.33 12.78 88.71 14.36 91.39 16.28 88.98 17.47 90.97 19.05 89.09 20.98 91.96 23.14 89.33 24.33 91.19 25.79 89.63 27.23 92.55 29.78 90.18 30.74 92.04 32.2 90.52 33.8 93.45 36.26 90.99 37.34 92.69 38.51 91.01 40.59 94.09 42.61 91.13 43.98 92.95 44.86 90.9 47.06 93.21 48.27 90.35 50.08 91.63 50.51 89.8 53.09 91.37 53.63 88.34 55.6 89.16 55.72 87.02 59.1 87.64 58.52 84.42 60.73 84.55 59.88 82.54 62.53 82.26 61.3 79.07"/><path class="clubmate-10" d="M15.38,73.38c3.26-.39,6.6-.9,9.33-2.77,2.2-1.56,4.36-3.3,5.95-5.47s3.08-4.43,4.98-6.35,4.26-3.48,6.91-3.9c7.33-1.17,9.42,6.77,12.45,11.67,1.4,2.26,2.82,4.51,4.24,6.76,.66,1.05,1.56,2.13,2.07,3.27,.47,1.06,.24,1.86-.1,2.99-1.33,4.49-5.21,7.92-9.44,9.66-2.31,.95-4.78,1.48-7.26,1.76-7.03,.78-13.98-.91-20.92-1.63-4.23-.44-8.55-.17-12.71-.96-.93-.18-1.69-.28-2.08-.47,0,0,.05-.66,.11-1.42,.09-1.29,.21-2.59,.33-3.88,.18-1.91,.26-3.83,.32-5.74,.03-.98,.05-3.07,.05-3.07,0,0,4.68-.31,5.77-.44Z"/></g><path class="clubmate-11" d="M86.5,124.4c-16.89-.38-32.96,8.85-40.55,23.92-9.28,18.43-5.56,33.74,1.11,55.46,5.59,18.23,17.72,35.17,44.1,33.86,10.69-.53,18.84-6.28,20.43-8.6,0,0-18.78-84.63-25.08-104.65Z"/><path class="clubmate-10" d="M67.38,136.26c-5.17,3.48-12.56,11.23-14.93,16.94-5.89,14.19-3.03,27.98,.51,42.67,6.09,25.34,24.88,39.09,49.06,32.5,2.22-.61,6.56-2.42,8.43-4.18-11.02-52.58-22.22-93.86-22.22-93.86-5.62-.16-15.42,2.28-20.85,5.93Z"/><g><g><path class="clubmate-9" d="M85.98,126.89c.84,1.11,1.6,2.27,2.25,3.44-1.34-.03-2.74,.07-4.13,.23,.56-1.25,1.18-2.46,1.88-3.67Z"/><path class="clubmate-9" d="M82.07,128.21c.71,.77,1.39,1.54,2.03,2.35-1.07,.12-2.15,.31-3.22,.52,.37-.95,.76-1.93,1.19-2.87Z"/></g><g><path class="clubmate-9" d="M77.98,128.16c1.01,.94,1.99,1.92,2.91,2.92-1.39,.29-2.77,.61-4.13,1.02,.35-1.31,.76-2.63,1.22-3.93Z"/><path class="clubmate-9" d="M74.37,130.1c.83,.66,1.61,1.3,2.39,1.99-1.05,.3-2.08,.66-3.11,1.03,.21-.99,.45-2.01,.72-3.02Z"/></g><g><path class="clubmate-9" d="M70.3,130.72c1.16,.74,2.28,1.57,3.34,2.4-1.32,.5-2.6,1.06-3.84,1.68,.09-1.33,.25-2.72,.49-4.08Z"/><path class="clubmate-9" d="M67.09,133.34c.94,.43,1.87,.95,2.73,1.46-.94,.51-1.83,1.01-2.71,1.64-.06-1.03-.07-2.05-.02-3.1Z"/></g><g><path class="clubmate-9" d="M63.27,134.94c1.32,.45,2.6,.93,3.83,1.5-1.14,.79-2.26,1.66-3.33,2.59-.22-1.35-.39-2.71-.5-4.09Z"/><path class="clubmate-9" d="M60.78,138.19c1.02,.26,2,.53,2.99,.84-.83,.71-1.64,1.46-2.44,2.22-.2-1-.4-2.03-.55-3.06Z"/></g><g><path class="clubmate-9" d="M57.31,140.35c1.36,.26,2.7,.57,4.02,.9-1.02,1-2.02,2.01-2.97,3.08-.39-1.31-.74-2.63-1.05-3.98Z"/><path class="clubmate-9" d="M55.29,143.9c1.04,.12,2.06,.26,3.08,.43-.74,.82-1.44,1.66-2.11,2.52-.34-.96-.68-1.96-.97-2.95Z"/></g><g><path class="clubmate-9" d="M52.15,146.55c1.38,.03,2.77,.14,4.11,.3-.86,1.12-1.68,2.26-2.38,3.43-.64-1.18-1.22-2.44-1.73-3.73Z"/><path class="clubmate-9" d="M50.79,150.49c1.03-.15,2.08-.2,3.08-.21-.25,.46-.53,.91-.74,1.37l-.33,.69-.3,.76c-.61-.85-1.2-1.69-1.71-2.6Z"/></g><g><path class="clubmate-9" d="M48.44,153.88c1.37-.31,2.73-.57,4.06-.79l-.79,1.98-.66,2.02c-.89-1.02-1.76-2.09-2.61-3.21Z"/><path class="clubmate-9" d="M48.07,157.97c.98-.33,1.97-.62,2.98-.88-.37,1.03-.58,2.1-.87,3.15-.71-.73-1.41-1.49-2.1-2.27Z"/></g><g><path class="clubmate-9" d="M46.33,161.68c1.3-.53,2.55-1.02,3.85-1.44-.29,1.38-.61,2.76-.77,4.17-1.06-.86-2.11-1.77-3.08-2.73Z"/><path class="clubmate-9" d="M46.6,165.77c.92-.48,1.88-.93,2.81-1.36-.07,.54-.16,1.08-.21,1.62l-.13,1.64c-.83-.6-1.65-1.24-2.47-1.9Z"/></g><g><path class="clubmate-9" d="M45.49,169.7c1.18-.73,2.35-1.41,3.58-2.03-.07,.7-.08,1.42-.1,2.13-.01,.71-.05,1.42-.02,2.13-1.19-.7-2.32-1.43-3.46-2.22Z"/><path class="clubmate-9" d="M46.39,173.69c.86-.61,1.71-1.2,2.57-1.76,.02,1.1,.05,2.2,.14,3.3-.9-.49-1.83-1-2.71-1.54Z"/></g><g><path class="clubmate-9" d="M45.82,177.72c1.06-.86,2.17-1.7,3.28-2.49,.08,1.43,.26,2.85,.43,4.28-1.25-.56-2.47-1.16-3.71-1.79Z"/><path class="clubmate-9" d="M47.19,181.55c.78-.7,1.56-1.38,2.34-2.04,.17,1.1,.3,2.2,.5,3.3-.96-.4-1.91-.82-2.85-1.26Z"/></g><g><path class="clubmate-9" d="M46.99,185.6c1-.95,2.02-1.88,3.04-2.79,.24,1.43,.51,2.85,.81,4.27-1.28-.48-2.56-.97-3.85-1.48Z"/><path class="clubmate-9" d="M48.65,189.29c.73-.74,1.45-1.48,2.2-2.21,.22,1.1,.48,2.2,.72,3.29l-2.92-1.09Z"/></g><g><polygon class="clubmate-9" points="48.68 193.32 51.56 190.38 52.59 194.64 48.68 193.32"/><path class="clubmate-9" d="M50.46,196.93l2.13-2.28,.41,1.65,.46,1.59c-.99-.3-1.99-.62-2.99-.96Z"/></g><g><path class="clubmate-9" d="M50.73,200.99c.9-1.07,1.81-2.1,2.73-3.1l.6,2.06,.3,1.03,.37,1c-.67-.14-1.35-.29-2.03-.46l-1.97-.54Z"/><path class="clubmate-9" d="M52.86,204.46c.61-.85,1.23-1.68,1.86-2.48l1.16,3.1c-1-.18-2-.39-3.02-.62Z"/></g><g><path class="clubmate-9" d="M53.6,208.48c.74-1.18,1.46-2.29,2.28-3.4,.55,1.31,1.2,2.58,1.79,3.87-1.34-.12-2.69-.27-4.07-.47Z"/><path class="clubmate-9" d="M56.17,211.66c.48-.92,.94-1.8,1.5-2.71,.46,.99,1.08,1.9,1.61,2.86-1.02-.02-2.06-.08-3.11-.15Z"/></g><g><path class="clubmate-9" d="M57.49,215.54c.5-1.24,1.17-2.53,1.79-3.73,.66,1.26,1.52,2.38,2.34,3.53-1.34,.11-2.72,.18-4.13,.21Z"/><path class="clubmate-9" d="M60.54,218.29c.32-.99,.7-1.99,1.08-2.95,.32,.44,.62,.9,.96,1.32l1.07,1.22c-1.01,.16-2.05,.3-3.11,.41Z"/></g><g><path class="clubmate-9" d="M62.54,221.89c.33-1.38,.7-2.72,1.12-4.01l1.39,1.59c.5,.49,1.03,.95,1.54,1.43-1.3,.38-2.66,.72-4.04,.99Z"/><path class="clubmate-9" d="M66.09,224c.14-1.06,.3-2.09,.49-3.1l1.19,1.1c.4,.36,.86,.65,1.28,.98-.95,.36-1.98,.74-2.96,1.02Z"/></g><g><path class="clubmate-9" d="M68.79,227.12c.03-1.42,.12-2.8,.26-4.14l1.68,1.25c.56,.42,1.2,.72,1.79,1.08-1.18,.64-2.47,1.3-3.73,1.81Z"/><path class="clubmate-9" d="M72.71,228.43c-.1-1.06-.16-2.1-.19-3.13,.93,.54,1.84,1.12,2.85,1.5-.85,.56-1.78,1.17-2.67,1.63Z"/></g><g><path class="clubmate-9" d="M76.03,230.89c-.29-1.39-.5-2.75-.66-4.08l1.91,.84c.31,.15,.64,.27,.98,.36l1,.3c-.51,.45-1.04,.9-1.58,1.34-.55,.45-1.1,.87-1.66,1.24Z"/><path class="clubmate-9" d="M80.14,231.31c-.33-1.01-.62-2.01-.87-3,1.04,.29,2.04,.7,3.12,.84-.72,.76-1.47,1.51-2.24,2.16Z"/></g><g><path class="clubmate-9" d="M83.91,232.98c-.58-1.29-1.09-2.56-1.53-3.83,1.38,.22,2.73,.61,4.14,.64-.81,1.11-1.69,2.21-2.62,3.19Z"/><path class="clubmate-9" d="M88.01,232.52c-.53-.91-1.02-1.82-1.48-2.73,1.08,.06,2.16,.21,3.24,.2-.56,.92-1.14,1.69-1.76,2.53Z"/></g><g><path class="clubmate-9" d="M92.01,233.41c-.81-1.14-1.55-2.28-2.24-3.42,1.41-.06,2.82-.04,4.22-.16-.6,1.26-1.26,2.38-1.98,3.58Z"/><path class="clubmate-9" d="M95.94,232.21c-.68-.79-1.33-1.59-1.94-2.38l3.25-.41c-.41,.93-.84,1.86-1.31,2.8Z"/></g><g><path class="clubmate-9" d="M100.03,232.43c-.97-.98-1.89-1.93-2.78-3.02,.71-.06,1.4-.25,2.09-.4l2.08-.46c-.42,1.28-.88,2.57-1.39,3.88Z"/><path class="clubmate-9" d="M103.74,230.67c-.83-.64-1.57-1.41-2.32-2.12,.52-.12,1.12-.23,1.53-.37,.46-.15,.95-.34,1.43-.54-.14,1-.34,2.01-.64,3.03Z"/></g><g><path class="clubmate-9" d="M107.84,229.86c-1.22-.68-2.39-1.41-3.47-2.21,1.25-.54,2.5-1.18,3.67-1.9,.02,1.35-.05,2.73-.2,4.11Z"/><path class="clubmate-9" d="M110.88,227c-.99-.37-1.92-.79-2.83-1.25,.9-.55,1.76-1.16,2.44-1.78,.26,.94,.36,1.98,.4,3.03Z"/></g></g><path class="clubmate-2" d="M38.85,59.76c-.33,.39-.63,.81-.87,1.27-1.13,2.11-1.15,4.7-.66,6.99,.17,.81,.42,1.6,.76,2.35,1.11,2.43,3.3,4.24,5.96,4.84s5.6-.64,7.32-2.74c1.66-2.04,1.83-4.33,1.16-6.82-1.03-3.79-2.47-7.73-7.04-8.37-2.54-.36-4.96,.57-6.62,2.49Z"/><path class="clubmate-6" d="M39.3,60.12s-.08,.1-.13,.15c-2.07,2.54-1.89,7-.6,9.81,1.03,2.25,3.09,4.08,5.56,4.63s5.28-.28,6.88-2.23c1.54-1.89,1.79-4.55,1.16-6.87-.75-2.77-2.09-6.01-4.83-7.36s-6.15-.31-8.03,1.87Z"/><path class="clubmate-4" d="M89.88,136.57c-.17-.04-.33-.1-.51-.13-5.01-1.01-10.69,1.14-13.56,5.5-4.83,7.35-2.67,18.88,4.47,23.98,1.31,.94,2.78,1.67,4.33,2.11,4.25,1.23,9.21,.23,12.45-2.74"/><g><g><path class="clubmate-9" d="M89.02,133.82c.34,.67,.62,1.35,.85,2.01-.72-.14-1.45-.25-2.19-.28,.4-.6,.84-1.16,1.34-1.73Z"/><path class="clubmate-9" d="M86.8,134.14c.32,.47,.61,.93,.87,1.4l-.86-.02-.86,.04c.25-.47,.53-.95,.84-1.42Z"/></g><g><path class="clubmate-9" d="M84.59,133.87c.51,.56,.96,1.11,1.38,1.7-.74,.05-1.47,.17-2.2,.32,.23-.66,.5-1.35,.82-2.02Z"/><path class="clubmate-9" d="M82.55,134.78c.43,.36,.83,.73,1.21,1.11-.56,.14-1.11,.29-1.65,.48,.12-.52,.26-1.07,.44-1.59Z"/></g><g><path class="clubmate-9" d="M80.34,135.09c.63,.41,1.21,.81,1.77,1.28-.7,.24-1.38,.55-2.04,.89,.05-.7,.13-1.45,.27-2.17Z"/><path class="clubmate-9" d="M78.61,136.5c.51,.24,.99,.48,1.46,.76-.5,.28-1,.56-1.46,.89-.02-.54-.03-1.1,0-1.65Z"/></g><g><path class="clubmate-9" d="M76.55,137.39c.72,.21,1.39,.45,2.05,.76-.62,.41-1.18,.89-1.71,1.4-.15-.68-.29-1.43-.34-2.16Z"/><path class="clubmate-9" d="M75.28,139.24c.56,.08,1.08,.16,1.61,.31-.4,.4-.79,.81-1.13,1.26-.19-.5-.37-1.04-.49-1.57Z"/></g><g><path class="clubmate-9" d="M73.6,140.72c.74-.02,1.45,0,2.17,.09-.46,.57-.81,1.23-1.2,1.85-.36-.62-.67-1.25-.96-1.94Z"/><path class="clubmate-9" d="M72.94,142.86c.55-.09,1.09-.15,1.62-.19-.24,.52-.5,1.03-.73,1.56-.33-.44-.6-.89-.89-1.37Z"/></g><g><path class="clubmate-9" d="M71.72,144.71c.72-.2,1.43-.37,2.12-.49-.23,.71-.54,1.39-.68,2.14-.51-.52-1.01-1.07-1.44-1.65Z"/><path class="clubmate-9" d="M71.61,146.93c.52-.21,1.04-.4,1.55-.57-.13,.56-.29,1.12-.34,1.7-.41-.36-.85-.74-1.21-1.13Z"/></g><g><path class="clubmate-9" d="M70.83,149.01c.67-.35,1.33-.67,1.99-.95l-.16,1.12-.05,1.13c-.6-.4-1.19-.83-1.78-1.3Z"/><path class="clubmate-9" d="M71.21,151.2c.43-.31,.94-.61,1.4-.88-.05,.58,0,1.17,.01,1.75-.47-.27-.94-.56-1.42-.86Z"/></g><g><path class="clubmate-9" d="M70.88,153.38c.54-.47,1.15-.91,1.75-1.32,0,.76,.14,1.51,.23,2.26-.65-.28-1.31-.59-1.97-.94Z"/><path class="clubmate-9" d="M71.66,155.45c.39-.4,.76-.77,1.19-1.13,.08,.58,.24,1.14,.35,1.72-.51-.18-1.02-.37-1.54-.58Z"/></g><g><path class="clubmate-9" d="M71.74,157.66c.48-.57,.92-1.1,1.45-1.62,.18,.74,.42,1.46,.65,2.17-.71-.14-1.39-.33-2.11-.55Z"/><path class="clubmate-9" d="M72.9,159.55c.31-.46,.62-.91,.95-1.34,.22,.54,.43,1.08,.67,1.62-.54-.07-1.07-.17-1.61-.28Z"/></g><g><path class="clubmate-9" d="M73.41,161.7c.35-.66,.72-1.28,1.1-1.88,.37,.66,.65,1.37,1.08,1.98-.73,.01-1.47-.02-2.18-.1Z"/><path class="clubmate-9" d="M74.93,163.32c.21-.52,.43-1.03,.67-1.52,.32,.48,.6,.99,.99,1.43-.54,.05-1.11,.1-1.65,.09Z"/></g><g><path class="clubmate-9" d="M75.9,165.33c.2-.73,.43-1.43,.68-2.09l.7,.88,.78,.8c-.69,.17-1.42,.32-2.16,.42Z"/><path class="clubmate-9" d="M77.78,166.54c.05-.53,.17-1.11,.29-1.63,.38,.43,.85,.77,1.29,1.13-.5,.18-1.03,.35-1.58,.5Z"/></g><g><path class="clubmate-9" d="M79.25,168.24c-.04-.74,.02-1.49,.11-2.21,.57,.5,1.17,.84,1.84,1.21-.62,.36-1.26,.7-1.95,1Z"/><path class="clubmate-9" d="M81.38,168.88c-.08-.55-.14-1.1-.18-1.64,.51,.27,1.04,.53,1.58,.76-.45,.31-.92,.6-1.4,.88Z"/></g><g><path class="clubmate-9" d="M83.2,170.15c-.18-.72-.32-1.44-.42-2.15,.69,.3,1.41,.57,2.1,.75-.5,.5-1.08,.96-1.68,1.39Z"/><path class="clubmate-9" d="M85.45,170.28c-.23-.51-.43-1.01-.57-1.53,.51,.13,1.1,.23,1.66,.29-.33,.42-.7,.85-1.08,1.24Z"/></g><g><path class="clubmate-9" d="M87.58,170.96c-.39-.63-.75-1.27-1.05-1.92,.74,.07,1.48,.11,2.23,.08-.35,.63-.75,1.24-1.18,1.84Z"/><path class="clubmate-9" d="M89.75,170.45c-.35-.43-.68-.87-.98-1.32,.58-.02,1.15-.07,1.72-.15-.22,.5-.47,.99-.74,1.47Z"/></g><g><path class="clubmate-9" d="M91.97,170.59c-.54-.53-1.03-1.05-1.48-1.61,.74-.1,1.47-.26,2.19-.46-.19,.69-.42,1.38-.7,2.07Z"/><path class="clubmate-9" d="M93.95,169.55c-.45-.32-.88-.69-1.28-1.04,.55-.16,1.09-.35,1.61-.57-.07,.55-.19,1.06-.33,1.61Z"/></g><g><path class="clubmate-9" d="M96.15,169.08c-.66-.33-1.29-.72-1.87-1.14,.68-.29,1.31-.64,1.91-1.04,.04,.7,.04,1.45-.05,2.18Z"/><path class="clubmate-9" d="M97.74,167.47c-.55-.16-1.05-.34-1.54-.56,.23-.16,.44-.33,.66-.5l.61-.55c.12,.51,.22,1.05,.28,1.61Z"/></g></g><g class="clubmate-3"><g><path class="clubmate-13" d="M95.83,145.92c-1.83-2.37-5.59-3.27-7.93-1.36-2.06,1.68-3.17,5.17-1.58,7.62-.87,.42-1.73,.9-2.53,1.43-4.31,2.85-5.96,9.07-2.4,13.34,3.16,3.79,8.94,4.54,12.79,1.56,4.38-3.39,4.87-10.06,4.18-15.18-.3-2.25-1.05-5.3-2.39-7.21-.05-.07-.1-.14-.15-.2Z"/><path class="clubmate-13" d="M86.81,148.48l-9.05-4.17c-.63-.3-.29-1.27,.38-1.08,0,0,9.52,2.8,9.52,2.8,1.73,.58,.84,3.15-.85,2.45h0Z"/><path class="clubmate-13" d="M93.82,175.15c-.06,.02-.12,.03-.19,.04-.54,.04-1.01-.36-1.06-.91l-.82-8.97c-.05-.55,.34-1.03,.88-1.08,.54-.04,1.01,.36,1.06,.91l.82,8.97c.04,.48-.25,.91-.69,1.04Z"/><path class="clubmate-13" d="M90.59,176.97c-.26,.08-.56,.02-.78-.19-.33-.31-.36-.83-.07-1.17,.09-.11,2.35-2.63,6.28-1.94,.44,.08,.75,.51,.68,.96-.07,.45-.49,.76-.93,.68-3.03-.53-4.74,1.34-4.81,1.42-.1,.12-.23,.19-.37,.24Z"/><path class="clubmate-13" d="M92.28,175.87c-.43,.13-.92-.07-1.14-.5l-3.5-6.73c-.25-.49-.08-1.09,.4-1.35,.47-.25,1.07-.06,1.32,.43l3.5,6.73c.25,.49,.08,1.09-.4,1.35-.06,.03-.12,.06-.18,.07Z"/></g><path class="clubmate-5" d="M90.62,146.26c-.07,0-.15,0-.22,.04s-.15,.13-.18,.25c-.05,.21,.04,.38,.14,.48,.31,.32,.73,.39,1.14,.37,.08,0,.17-.01,.25-.07s.16-.19,.17-.32c.02-.32-.33-.44-.47-.51-.26-.12-.53-.22-.82-.24Z"/></g><g class="clubmate-16"><g><path class="clubmate-13" d="M49.69,63.37c-.94-1.28-2.94-1.82-4.25-.85-1.15,.85-1.83,2.67-1.03,3.99-.48,.21-.96,.45-1.4,.71-2.4,1.43-3.43,4.68-1.61,7,1.62,2.05,4.72,2.55,6.87,1.04,2.44-1.71,2.86-5.22,2.61-7.93-.11-1.19-.44-2.81-1.12-3.84-.02-.04-.05-.07-.08-.11Z"/><path class="clubmate-13" d="M44.76,64.56l-4.79-2.35c-.33-.17-.13-.68,.23-.56,0,0,5.08,1.64,5.08,1.64,.92,.34,.38,1.68-.52,1.28h0Z"/><path class="clubmate-13" d="M47.92,78.74s-.07,.01-.1,.02c-.29,.01-.54-.21-.55-.5l-.23-4.75c-.01-.29,.21-.54,.5-.55,.29-.01,.54,.21,.55,.5l.23,4.75c.01,.26-.16,.48-.4,.54Z"/><path class="clubmate-13" d="M46.13,79.65c-.14,.04-.3,0-.41-.11-.17-.17-.18-.44,0-.62,.05-.05,1.33-1.34,3.44-.92,.24,.05,.39,.28,.34,.52-.05,.24-.28,.39-.52,.34-1.62-.33-2.59,.63-2.63,.67-.06,.06-.13,.1-.21,.12Z"/><path class="clubmate-13" d="M47.07,79.1c-.24,.06-.49-.05-.6-.28l-1.73-3.61c-.13-.26-.02-.58,.25-.7,.26-.12,.58-.02,.7,.25l1.73,3.61c.13,.26,.02,.58-.25,.7-.03,.02-.07,.03-.1,.04Z"/></g><path class="clubmate-5" d="M46.99,63.56s-.08,0-.13,.02-.09,.07-.11,.14c-.04,.11,.01,.21,.06,.27,.17,.18,.4,.23,.63,.22,.05,0,.09,0,.14-.03s.09-.1,.1-.17c.02-.18-.17-.25-.25-.29-.14-.07-.29-.13-.45-.15Z"/></g><path class="clubmate-7" d="M31.71,182.71c.41-.7,.47-1.59,.44-2.41-.12-3.36-1.57-6.23-2.63-9.34-.93-2.76-1.53-5.73-2.29-8.57-3.9-14.51-6.25-28.67-5.65-43.75,.16-4.16,.5-8.39-.5-12.43-.3-1.21-.83-2.51-1.96-3.03-3.46-1.56-2.63,5.41-2.62,6.99,.03,3.73,.05,7.46,.14,11.19,.18,7.45,.59,14.91,1.69,22.28,1.05,7.08,3.06,14.1,4.84,21.02,1.01,3.91,2.05,7.82,3.19,11.7,.5,1.7,1.04,5.83,2.66,6.9,.75,.49,1.8,.5,2.43-.19,.1-.11,.19-.24,.27-.36Z"/><g class="clubmate-18"><g><path class="clubmate-8" d="M69.69,194.66c-.58-3.52-1.34-7.01-2.28-10.45-.21-.76-1.03-1.22-1.78-1.01s-1.22,1.03-1.01,1.78c.94,3.44,1.7,6.93,2.28,10.45,.13,.77,1.09,1.2,1.78,1.01,.82-.23,1.14-1.01,1.01-1.78h0Z"/><path class="clubmate-8" d="M69.32,191.64c2.19-2.38,4.04-5.07,5.42-7.99,.32-.68,.21-1.6-.52-1.98-.64-.34-1.64-.21-1.98,.52-.66,1.38-1.41,2.72-2.27,3.99-.2,.3-.41,.59-.62,.89-.12,.16-.24,.33-.36,.49-.01,.02-.18,.23-.09,.12s-.08,.1-.09,.12c-.49,.62-1,1.22-1.54,1.8s-.59,1.51,0,2.05c.56,.51,1.5,.6,2.05,0h0Z"/><path class="clubmate-8" d="M69.33,191.02c2.14,1.04,4.28,2.08,6.42,3.11,.68,.33,1.6,.21,1.98-.52,.34-.65,.21-1.63-.52-1.98-2.14-1.04-4.28-2.08-6.42-3.11-.68-.33-1.6-.21-1.98,.52-.34,.65-.21,1.63,.52,1.98h0Z"/><path class="clubmate-8" d="M79.55,181.34c1.2,3.52,2.26,7.08,3.16,10.69,.19,.76,1.04,1.22,1.78,1.01s1.2-1.02,1.01-1.78c-.91-3.6-1.96-7.17-3.16-10.69-.25-.74-1-1.23-1.78-1.01-.72,.2-1.27,1.04-1.01,1.78h0Z"/><path class="clubmate-8" d="M72.73,214.57c-.23-3.62-.29-7.24-.21-10.86l-2.7,.73c2.06,3.07,4.31,6,6.73,8.79,.67,.77,2.26,.42,2.42-.64,.51-3.36,.77-6.74,.73-10.14l-2.7,.73c1.73,3.3,3.89,6.37,6.38,9.14,1.25,1.39,3.29-.66,2.05-2.05-2.33-2.6-4.31-5.47-5.93-8.56-.68-1.29-2.72-.67-2.7,.73,.04,3.13-.16,6.27-.62,9.37l2.42-.64c-2.26-2.6-4.36-5.34-6.28-8.2-.79-1.18-2.66-.75-2.7,.73-.09,3.62-.02,7.25,.21,10.86,.05,.78,.63,1.45,1.45,1.45,.75,0,1.5-.66,1.45-1.45h0Z"/><path class="clubmate-8" d="M93.05,210.23c-.2-1.92-.12-3.87,.14-5.78,.13-.95,.3-1.89,.48-2.83,.09-.47,.19-.94,.28-1.41,.05-.23,.1-.47,.15-.7,.03-.14,.06-.27,.09-.41,.07-.2,.07-.22-.02-.07-.06,.13-.16,.21-.31,.23,.16-.05,.2-.06,.12-.03-.12,.11-.16-.15-.06,.03,.12,.21,.43,.47,.58,.69,.52,.78,1.01,1.59,1.49,2.4,1.01,1.69,1.96,3.41,2.93,5.12,.56,.99,1.92,.89,2.5,0-.18,.28-.61,.47-.93,.28,1.6,.96,3.06-1.54,1.46-2.5-1.08-.65-2.37-.26-3.04,.76h2.5c-1.16-2.05-2.3-4.12-3.54-6.13-1.08-1.74-2.63-4.43-5.11-3.28-1.17,.54-1.37,1.69-1.61,2.84s-.48,2.35-.66,3.53c-.38,2.4-.6,4.83-.34,7.26,.08,.78,.61,1.45,1.45,1.45,.72,0,1.53-.67,1.45-1.45h0Z"/><path class="clubmate-8" d="M98.85,204.65c-.95,.21-1.9,.42-2.82,.76-.53,.2-1.05,.42-1.55,.69-.11,.06-.22,.12-.33,.17-.06,.03-.21,.07-.25,.12,.21-.09,.24-.1,.09-.05-.06,.02-.11,.04-.17,.05-.16,.03-.12,.03,.12-.01-.06,0-.12,0-.18,0-.76-.02-1.48,.68-1.45,1.45s.64,1.43,1.45,1.45c.66,.02,1.27-.21,1.85-.51,.22-.11,.44-.24,.66-.35,.1-.05,.25-.15,.36-.17-.2,.08-.22,.09-.07,.03,.05-.02,.09-.04,.14-.05,.94-.36,1.93-.58,2.91-.79,.74-.16,1.25-1.06,1.01-1.78-.25-.78-.99-1.19-1.78-1.01h0Z"/><path class="clubmate-8" d="M102.37,193.86l-.62,.16c-.19,.04-.35,.13-.49,.26-.16,.1-.28,.24-.37,.41-.11,.17-.16,.35-.17,.54-.04,.19-.03,.39,.03,.58l.15,.35c.13,.22,.3,.39,.52,.52l.35,.15c.26,.07,.51,.07,.77,0l.62-.16c.19-.04,.35-.13,.49-.26,.16-.1,.28-.24,.37-.41,.11-.17,.16-.35,.17-.54,.04-.19,.03-.39-.03-.58l-.15-.35c-.13-.22-.3-.39-.52-.52l-.35-.15c-.26-.07-.51-.07-.77,0h0Z"/><path class="clubmate-8" d="M86.59,179.83c2.38,3.35,3.95,7.24,6.59,10.41,.42,.5,1.24,.08,1.24-.51,.01-3.76-.22-7.63,.61-11.32l-1.32,.17c2.26,3.19,4.34,6.51,6.61,9.7,.37,.52,1.44,.42,1.35-.37-.14-1.21-.15-2.43-.25-3.64-.14-1.79-.62-3.54-1.05-5.27-.23-.9-1.63-.52-1.4,.39,.41,1.65,.88,3.31,1.01,5.01,.09,1.17,.11,2.35,.24,3.52l1.35-.37c-2.26-3.19-4.34-6.51-6.61-9.7-.33-.47-1.18-.48-1.32,.17-.86,3.83-.65,7.82-.66,11.71l1.24-.51c-2.56-3.07-4.06-6.87-6.37-10.12-.54-.75-1.79-.03-1.25,.73h0Z"/></g><g><g><path class="clubmate-13" d="M76.4,199.26c.1,0,.19-.02,.28-.04,.1-.02,.22-.05,.33-.08,.12-.03,.23-.07,.35-.1,.1-.03,.21-.07,.33-.1,.12-.03,.23-.06,.33-.08,.28-.06,.54-.07,.78-.03,.25,.04,.45,.18,.62,.44,.63,1.22,1.31,2.39,2.04,3.52,.73,1.13,1.47,2.25,2.21,3.35,.05,.06,.09,.12,.12,.18,.04,.06,.08,.12,.12,.18,.74,1.08,1.46,2.16,2.16,3.24,.71,1.08,1.37,2.21,1.98,3.37-.1,.08-.21,.17-.31,.25-.18,.04-.37,.09-.57,.13-.19,.05-.39,.1-.58,.16-.16,.04-.31,.07-.47,.11-.15,.04-.31,.07-.47,.11-.45,.11-.9,.2-1.34,.29-.44,.08-.86,.15-1.26,.18-.27-.36-.5-.75-.69-1.16-.19-.41-.37-.82-.55-1.24-.02-.03-.03-.05-.04-.08,0-.03-.02-.05-.02-.08-.2-.47-.42-.93-.65-1.38-.23-.45-.51-.88-.85-1.28-.08,.41-.15,.83-.2,1.26-.05,.43-.09,.85-.11,1.27,0,.12-.02,.23-.03,.34-.01,.11-.02,.23-.03,.35-.03,.49-.07,.97-.11,1.45-.04,.48-.11,.95-.2,1.43-.04,0-.1,0-.16,0-.06,0-.12,.01-.17,.03-.03,0-.05,.01-.08,.02-.03,0-.05,.01-.08,.02-.12,.03-.24,.06-.36,.09-.12,.03-.23,.07-.35,.11-.11,.04-.23,.07-.35,.11-.12,.03-.24,.06-.35,.09-.36,.08-.69,.07-.99-.03-.3-.1-.51-.38-.62-.86,0-.03-.02-.06-.02-.08,0-.03-.01-.05-.02-.08-.2-.22-.39-.46-.56-.72-.18-.26-.34-.53-.5-.8-.03-.05-.06-.1-.09-.15-.03-.04-.06-.09-.09-.13-.23-.38-.46-.74-.69-1.08-.23-.34-.49-.62-.77-.85,.02,.89,.05,1.79,.11,2.7,.05,.91,.15,1.82,.31,2.75-.39,.12-.78,.23-1.18,.34-.4,.1-.8,.19-1.21,.27-.4,.08-.8,.15-1.19,.2-.4,.05-.79,.1-1.19,.13-.13-1.23-.22-2.45-.27-3.68-.05-1.23-.08-2.45-.12-3.67,0-.12,0-.23,0-.34,0-.11,0-.22,0-.34-.03-1.34-.06-2.67-.12-4.01-.05-1.34-.15-2.69-.29-4.05,.05-.11,.11-.23,.16-.34,1.02-.15,2.04-.29,3.05-.45,.43,.71,.86,1.42,1.31,2.12,.45,.7,.9,1.4,1.37,2.08,.12,.2,.25,.39,.39,.59,.14,.2,.27,.4,.39,.59,.1,.16,.2,.31,.3,.46,.1,.15,.2,.29,.3,.44,.09-.06,.19-.13,.28-.19,.06-.54,.1-1.08,.12-1.62,.02-.54,.04-1.08,.06-1.63,0-.06,0-.12,0-.18,0-.06,0-.12,0-.2,.02-.6,.04-1.21,.07-1.81,.03-.6,.09-1.2,.17-1.81,.08,0,.17,0,.27,0Zm-3.16,7.26c-.48-.65-.96-1.3-1.43-1.93-.47-.63-.89-1.2-1.26-1.7,.03,1.03,.05,2.05,.07,3.07,.02,1.02,.03,2.04,.04,3.05,.01,1.03,.03,2.05,.05,3.07,.02,1.02,.04,2.03,.06,3.05,.18-.03,.36-.07,.54-.1-.03-.57-.05-1.13-.06-1.68,0-.55-.01-1.11-.01-1.66,0-.12,0-.24,0-.36,0-.13,0-.25,0-.38-.01-.98-.04-1.97-.07-2.94-.03-.98-.11-1.97-.23-2.98,.05-.25,.1-.49,.16-.74,.36,.51,.73,1.01,1.1,1.51,.38,.5,.76,1,1.15,1.5,.72,.96,1.44,1.92,2.15,2.87,.72,.96,1.39,1.94,2.04,2.95,.09,0,.17,0,.26,.01,.15-1.59,.26-3.19,.32-4.8,.06-1.61,.11-3.23,.14-4.84,.05-.18,.1-.36,.15-.54,.18,.31,.57,.92,1.17,1.82,.6,.9,1.23,1.85,1.9,2.86,.69,1.03,1.34,1.99,1.95,2.88,.61,.89,.99,1.45,1.14,1.69,.06,0,.11,0,.15,0,.01,0,.03,0,.06,0,.03,0,.06,0,.08,0,.03,0,.05-.01,.08-.02,.03,0,.05-.01,.08-.02,.07-.02,.11-.04,.12-.06,.01-.03-.02-.06-.1-.1-.2-.2-.7-.89-1.51-2.08-.81-1.18-1.68-2.48-2.62-3.89-.02-.04-.05-.08-.07-.12-.03-.04-.05-.08-.07-.12-.5-.75-.99-1.5-1.48-2.23-.48-.73-.91-1.4-1.3-1.99-.21,3.47-.41,6.93-.62,10.4-1.71-2.25-3.07-4.07-4.08-5.45Z"/><path class="clubmate-13" d="M96.73,196.98c.95,1.27,1.99,2.69,3.13,4.27,.09,.11,.17,.22,.26,.33,.08,.12,.16,.23,.24,.34,1.14,1.58,2.18,3.04,3.12,4.39,.94,1.35,1.46,2.16,1.58,2.45-1.62,.46-3.23,.91-4.85,1.35-.14-.09-.28-.2-.42-.33-.14-.13-.26-.26-.37-.39-.23-.29-.47-.68-.74-1.17-.26,.13-.57,.25-.91,.35-.35,.11-.7,.21-1.07,.3-.03,0-.05,.01-.08,.02-.03,0-.05,.01-.08,.02-.21,.06-.42,.11-.64,.15-.21,.05-.42,.1-.62,.15-.21,.05-.42,.1-.63,.15-.21,.05-.39,.09-.55,.13-.05,.01-.11,.03-.16,.04-.05,.01-.11,.03-.16,.04-.03,.11-.04,.26-.03,.46,0,.19,0,.4,0,.6,0,.32,0,.61-.04,.87-.03,.26-.11,.39-.24,.4-1.46,.35-2.92,.69-4.38,1.03-.02,0-.03-.03-.05-.05-.01-.03-.03-.06-.04-.1-.12-.42-.1-1.56,.06-3.41,.16-1.85,.35-3.85,.58-5.98,.13-1.34,.25-2.65,.38-3.92,.13-1.27,.22-2.36,.27-3.27,.23-.04,.52-.09,.87-.16,.35-.07,.73-.15,1.12-.25,.05-.01,.1-.03,.16-.04,.05-.01,.11-.03,.16-.04,.25-.06,.5-.12,.74-.19,.24-.06,.47-.13,.68-.18,.26-.06,.49-.12,.67-.18,.18-.05,.31-.09,.39-.11,.03,0,.05-.01,.08-.02,.11,.03,.64,.68,1.58,1.95Zm-3.02,.51c-.13,.03-.27,.06-.4,.09-.11,.03-.21,.05-.33,.07-.11,.02-.24,.02-.39,0-.02,.14-.04,.27-.05,.41-.02,.14-.04,.26-.06,.39-.25,2-.49,3.99-.72,5.99-.23,2-.41,3.99-.54,5.97,.01,0,.03,0,.04,0,.01,0,.03,0,.04,0,.05-.01,.09-.01,.12,0,.03,.02,.05,.03,.07,.06,0,.01,.01,.03,.02,.04,.01,.01,.02,.02,.02,.04,0,.01,0,0,0-.02,0-.03,0-.09,0-.2,0-.09,.02-.23,.05-.42,.03-.19,.06-.39,.08-.6,0-.04,0-.08,.01-.11,0-.03,0-.07,.01-.11,.04-.2,.08-.38,.11-.54,.03-.16,.07-.28,.1-.34,2.69-.69,5.37-1.41,8.06-2.15,.27,.25,.49,.46,.66,.65,.08,.09,.17,.19,.25,.28,.08,.09,.16,.19,.23,.28,.05,.09,.11,.17,.16,.26,.05,.09,.1,.17,.14,.25,.08,.04,.16,.04,.22,0,.07-.03,.13-.11,.18-.24-.85-1.16-1.72-2.31-2.61-3.46-.89-1.15-1.78-2.31-2.68-3.45-.4-.52-.8-1.04-1.2-1.56-.4-.52-.79-1.03-1.17-1.55-.16-.02-.31-.01-.44,.01Zm6,8.17c-2.53,.68-5.06,1.34-7.6,1.97,.03-.5,.07-1.09,.13-1.77,.06-.68,.13-1.37,.2-2.07,0-.07,.02-.15,.03-.24,.01-.08,.02-.17,.02-.26,.13-1.27,.33-2.92,.58-4.94,0-.12,.05-.2,.11-.25,.06-.04,.14-.07,.22-.08,.03,0,.05-.01,.07-.02,.02,0,.04,0,.05-.01,.04-.01,.08-.02,.12-.03,.04,0,.08-.02,.12-.03,.03,0,.05-.01,.07-.02,.02,0,.04,0,.05-.01,1.94,2.61,3.89,5.19,5.84,7.74Zm-3.2-1.17c-.12-.19-.25-.4-.38-.61-.22-.31-.46-.6-.72-.89-.27-.29-.55-.53-.85-.73-.02,.17-.05,.33-.08,.49-.03,.16-.07,.33-.1,.49-.1,.43-.18,.87-.23,1.31-.05,.44-.02,.87,.11,1.29,.07-.03,.15-.06,.22-.09,.07-.02,.14-.05,.21-.06,.12-.03,.24-.05,.35-.07,.12-.01,.23-.03,.34-.04,.06,0,.12,0,.18-.01,.06,0,.12-.02,.17-.03,.05-.01,.11-.02,.16-.03,.05,0,.11-.02,.16-.03,.13-.03,.26-.08,.39-.15,.13-.06,.26-.15,.38-.25-.08-.2-.19-.39-.31-.58Z"/><path class="clubmate-13" d="M110.93,192.37c.02,.46,.04,.91,.04,1.37,0,.36,0,.72,.02,1.06,.02,.35,.05,.69,.1,1.04-.18,.05-.38,.09-.58,.12-.2,.02-.4,.04-.61,.06-.2,.01-.4,.03-.61,.06-.21,.03-.43,.07-.64,.13-.07,.02-.13,.04-.21,.06-.07,.02-.14,.05-.2,.08,.16,.88,.34,1.72,.54,2.54,.2,.81,.42,1.62,.65,2.41,.18,.61,.37,1.23,.58,1.85,.21,.62,.41,1.26,.62,1.9,.28,.64,.56,1.29,.84,1.93-1.77,.54-3.54,1.06-5.32,1.57-.08-.06-.17-.13-.25-.19-.12-.69-.24-1.36-.37-2.03-.13-.66-.27-1.33-.41-2-.15-.65-.31-1.31-.47-1.97-.17-.66-.34-1.32-.54-1.97-.13-.48-.27-.96-.43-1.44-.16-.48-.33-.96-.5-1.45-.09,0-.17,0-.25,0-.08,0-.16,.01-.23,.02-.08,.02-.16,.04-.24,.05-.08,.01-.16,.03-.24,.05-.21,.06-.42,.13-.62,.21-.2,.09-.4,.17-.59,.25-.2,.1-.39,.19-.58,.26-.19,.08-.38,.15-.58,.2-.08,.02-.16,.04-.24,.05-.08,.01-.16,.03-.25,.03,0-.22,0-.44,0-.65,0-.22,0-.43,0-.65,0-.01,0-.03-.01-.04,0-.01,0-.03,0-.04-.01-.58-.01-1.15,0-1.73,0-.57,.06-1.13,.14-1.68,.88-.1,1.76-.25,2.64-.44,.88-.19,1.77-.41,2.67-.66,.37-.1,.74-.21,1.11-.32,.37-.11,.74-.22,1.11-.32,.12-.03,.24-.07,.36-.1,.12-.04,.25-.07,.38-.11,.48-.15,.97-.3,1.47-.44,.5-.14,.99-.28,1.48-.41,.11,.43,.18,.87,.2,1.32Zm-8.68,2.75c-.03,.05-.08,.1-.16,.14-.08,.04-.17,.09-.27,.13-.01,0-.03,0-.05,.01-.02,0-.04,.01-.05,.01-.15,.07-.28,.15-.4,.24-.12,.09-.15,.22-.1,.4,0,.01,0,.03,.01,.04,0,.01,0,.03,.01,.04,.18-.02,.36-.05,.55-.09,.19-.04,.37-.09,.55-.14,.12-.03,.24-.06,.35-.1,.12-.03,.23-.07,.35-.12,.12-.03,.23-.06,.34-.09,.11-.03,.22-.06,.33-.09,.18-.05,.37-.09,.55-.13,.18-.04,.35-.06,.5-.07,1.05,3.59,2.1,7.16,3.16,10.73,.22-.06,.44-.11,.66-.17-1.03-3.5-2.06-7-3.08-10.52,.02-.09,.03-.18,.05-.27,1.04-.29,2.09-.59,3.13-.89,.12-.3,.24-.6,.35-.9-2.26,.64-4.52,1.26-6.79,1.85Z"/><path class="clubmate-13" d="M113.83,190.04c.81-.26,1.64-.51,2.47-.75,.2-.06,.39-.12,.58-.18,.19-.06,.38-.12,.56-.17,.68-.21,1.35-.44,2.02-.68,.67-.24,1.33-.51,1.98-.8,.44,.65,.87,1.32,1.28,2.01,.41,.7,.76,1.42,1.05,2.17-.96,.16-1.92,.35-2.88,.56-.96,.22-1.93,.48-2.92,.79-.17,.05-.34,.11-.51,.16-.17,.05-.35,.11-.53,.18-.08,.11-.13,.22-.14,.33-.01,.11,0,.22,.03,.32,.02,.06,.05,.13,.08,.2,.03,.07,.07,.14,.11,.21,.02,.07,.05,.13,.08,.2,.03,.07,.06,.14,.09,.22,0,.03,.01,.05,.02,.07,0,.02,.01,.04,.02,.07,.47-.12,.95-.24,1.45-.37,.5-.13,.99-.27,1.48-.43,.39-.13,.78-.26,1.15-.41,.37-.15,.73-.32,1.08-.5,.1,.24,.23,.46,.39,.68,.16,.21,.32,.43,.49,.64,.04,.03,.08,.07,.11,.11,.04,.05,.07,.09,.1,.14,.18,.2,.33,.41,.47,.64,.14,.22,.25,.47,.33,.73,.03,.09,.05,.19,.07,.3,.02,.11,.03,.22,.04,.33-1.94,.65-3.88,1.28-5.82,1.9-.03,.14-.04,.29-.03,.45,.01,.16,.04,.33,.1,.5,.04,.13,.08,.25,.13,.37,.05,.11,.1,.23,.15,.34,.02,.04,.05,.07,.07,.11,.02,.04,.03,.07,.04,.11,.44-.08,.86-.18,1.27-.28,.41-.1,.82-.22,1.22-.36,.12-.04,.23-.08,.34-.11,.11-.04,.23-.07,.34-.11,.3-.11,.59-.22,.88-.34,.29-.11,.58-.22,.88-.34,.28-.11,.57-.22,.84-.33,.28-.11,.56-.22,.84-.33,.04,.04,.08,.08,.1,.13,.03,.04,.05,.08,.08,.11,.02,.05,.03,.1,.05,.14,.02,.04,.04,.09,.05,.14,.05,.17,.08,.35,.08,.54,0,.19,0,.38-.02,.57,0,.03,.01,.05,.01,.07,0,.02,0,.04-.01,.06,0,.17-.01,.34-.02,.51,0,.17,0,.33,.02,.5,0,.37-.02,.75-.02,1.12-3.38,1.16-6.77,2.27-10.16,3.34-.44-1.33-.86-2.63-1.26-3.9-.4-1.28-.79-2.56-1.17-3.83-.34-1.13-.67-2.28-.99-3.43-.32-1.16-.65-2.34-.98-3.55,.8-.32,1.61-.61,2.43-.87Zm7.02,.04s0-.05,0-.07c0-.03-.02-.05-.05-.07-.03-.02-.06-.04-.1-.08-.03,0-.06-.02-.08-.04-.02-.02-.04-.04-.06-.07-.47,.15-.93,.3-1.39,.44-.46,.14-.92,.28-1.38,.41-.68,.21-1.36,.42-2.04,.63-.68,.21-1.36,.41-2.02,.62,.24,.75,.49,1.54,.74,2.38,.26,.84,.52,1.69,.77,2.54,.02,.08,.05,.15,.07,.23,.02,.07,.04,.14,.06,.21,.36,1.16,.73,2.31,1.08,3.42,.36,1.11,.71,2.11,1.04,2.97,.57-.15,1.15-.31,1.74-.49,.59-.17,1.18-.36,1.77-.56,.55-.18,1.1-.37,1.64-.56,.54-.19,1.07-.39,1.59-.6,0-.03,0-.06-.02-.1-.02-.04-.03-.07-.04-.11-.03-.04-.06-.07-.1-.11-.04-.04-.08-.07-.12-.1,0-.01-.02-.02-.03-.03-.02,0-.03-.02-.05-.03-.35,.13-.7,.26-1.04,.39-.34,.13-.68,.26-1.02,.38-.17,.06-.34,.11-.52,.17-.18,.06-.35,.12-.52,.17-.49,.16-.97,.31-1.47,.44-.49,.14-.99,.28-1.49,.43-.18-.51-.36-1.02-.53-1.51-.17-.49-.33-.98-.47-1.46-.12-.38-.22-.76-.31-1.14-.09-.38-.18-.76-.27-1.13,.4-.15,.79-.3,1.17-.43,.38-.13,.76-.26,1.14-.38,.28-.09,.55-.17,.84-.26,.28-.08,.57-.17,.86-.26,.28-.09,.56-.18,.87-.27,.3-.09,.61-.19,.93-.29,0-.09-.02-.15-.07-.19-.05-.04-.11-.07-.17-.09,0-.01-.01-.02-.03-.02-.02,0-.03,0-.05-.02-1.87,.61-3.75,1.21-5.62,1.79-.18-.45-.33-.84-.47-1.19-.09-.21-.19-.45-.28-.71-.09-.26-.19-.52-.28-.8-.06-.14-.11-.28-.15-.43-.04-.15-.09-.29-.13-.43-.09-.3-.16-.59-.22-.85-.06-.26-.09-.49-.1-.67,2.12-.64,4.23-1.3,6.34-1.98,.03-.04,.05-.07,.06-.09Z"/></g><g><path class="clubmate-13" d="M76.82,181.84c-.21,.41-.41,.81-.61,1.19-.2,.39-.4,.77-.6,1.15-.14,.29-.29,.57-.44,.84-.15,.27-.3,.55-.45,.82-.29,.51-.58,1.03-.88,1.55-.3,.53-.61,1.06-.93,1.61,.02,.08,.04,.17,.07,.25,2.34,1.31,4.67,2.59,7.02,3.84,.03,.12,.06,.24,.1,.35-1.18,.93-2.37,1.85-3.56,2.77-.15,0-.31-.01-.46-.02-.7-.59-1.45-1.15-2.25-1.65-.8-.51-1.6-.96-2.4-1.36-.23-.12-.45-.23-.67-.33-.22-.1-.44-.2-.66-.29,.05,.37,.1,.75,.17,1.14,.07,.39,.14,.77,.22,1.15,.05,.26,.12,.51,.18,.76,.07,.25,.13,.51,.2,.76,.03,.1,.05,.2,.08,.3,.03,.1,.05,.2,.08,.29-.23,.12-.46,.21-.69,.28-.23,.07-.46,.13-.7,.17-.12,.02-.24,.04-.35,.05-.11,.01-.22,.03-.33,.05-.07,0-.14,0-.22,0-.07,0-.14,.02-.21,.03-.21,.02-.43,.05-.65,.07-.22,.02-.44,.06-.67,.1-.05,0-.11,.02-.16,.03-.05,0-.11,.02-.16,.03-.05,0-.1,.02-.16,.04-.05,.02-.1,.03-.15,.04-.22-.61-.42-1.26-.61-1.95-.19-.69-.37-1.39-.54-2.1,0-.03-.02-.06-.02-.09,0-.03-.01-.06-.02-.09-.05-.18-.1-.37-.14-.55-.05-.18-.1-.37-.14-.55-.02-.09-.05-.17-.08-.26-.03-.09-.06-.19-.08-.28-.03-.1-.05-.2-.08-.29-.02-.09-.05-.18-.07-.26-.15-.52-.3-1.06-.44-1.63-.14-.56-.28-1.12-.43-1.69-.07-.26-.13-.51-.19-.77-.06-.26-.12-.51-.19-.77-.02-.09-.05-.17-.07-.27-.02-.09-.05-.19-.07-.29-.17-.67-.36-1.33-.55-1.99-.19-.66-.4-1.3-.63-1.91,1.62-.25,3.24-.5,4.87-.77,.02,.06,.03,.11,.05,.17,.02,.05,.04,.1,.05,.15,.01,.06,.03,.11,.05,.17,.01,.06,.03,.11,.04,.17,.06,.23,.11,.45,.16,.67,.05,.22,.09,.45,.14,.67,.03,.23,.07,.46,.12,.68,.05,.22,.1,.44,.15,.65,.04,.14,.08,.29,.13,.43,.05,.15,.1,.29,.15,.43,.07,.15,.14,.3,.21,.43,.07,.14,.15,.28,.25,.42,.72-.85,1.31-1.76,1.77-2.75,.46-.99,.88-2.01,1.27-3.06,.01-.05,.03-.09,.04-.13,.01-.04,.02-.07,.04-.11,1.66,.36,3.33,.71,5,1.04,.04,.15,.08,.31,.12,.46Zm-11.91,1.61c.18,.75,.37,1.52,.56,2.31,.19,.79,.39,1.58,.6,2.37,.34,1.23,.68,2.48,1.04,3.75,.36,1.27,.72,2.55,1.09,3.85,.05-.04,.09-.07,.12-.09,.04-.02,.07-.03,.11-.04,.03,0,.05,0,.07,0,.02,0,.04,.01,.06,.02,.03,.01,.06,.02,.09,.03-.04-.17-.1-.36-.15-.57-.06-.21-.12-.44-.18-.68-.04-.17-.09-.34-.12-.51-.04-.17-.08-.34-.12-.51-.09-.4-.18-.78-.25-1.15-.08-.37-.13-.7-.17-.99,.31-.32,.6-.57,.85-.77,.08-.07,.16-.15,.26-.22,.1-.07,.2-.15,.31-.21,.02-.02,.05-.04,.08-.06,.03-.02,.06-.04,.1-.06,.18,.1,.36,.2,.53,.29,.18,.09,.35,.19,.53,.29,.99,.53,1.97,1.07,2.94,1.63,.97,.56,1.91,1.18,2.84,1.84,.21-.03,.43-.06,.64-.08-.53-.48-1.11-.91-1.74-1.3-.63-.38-1.28-.76-1.94-1.14-.06-.02-.12-.04-.17-.08-.05-.03-.11-.07-.17-.1-.52-.29-1.04-.58-1.56-.89-.52-.31-1.02-.65-1.49-1.03,.16-.22,.33-.44,.5-.66,.17-.22,.35-.44,.51-.64,.02-.03,.04-.06,.06-.09,.02-.03,.04-.05,.06-.09,.63-.79,1.23-1.6,1.8-2.44,.57-.84,1.01-1.77,1.31-2.8-.11-.04-.21-.08-.32-.12-.13,.23-.26,.46-.39,.7-.13,.24-.26,.46-.38,.68-.08,.16-.17,.32-.25,.48-.09,.16-.18,.32-.27,.48-.19,.31-.38,.63-.58,.95-.2,.32-.41,.65-.65,.99-.53,.74-1.09,1.46-1.67,2.15-.59,.69-1.25,1.24-1.99,1.65-.09-.28-.18-.58-.28-.89-.1-.32-.19-.63-.27-.94-.06-.24-.13-.49-.18-.74-.06-.25-.12-.51-.19-.76-.02-.06-.03-.12-.05-.18-.02-.06-.03-.13-.03-.2-.08-.31-.16-.62-.24-.94-.07-.31-.15-.62-.23-.91-.08-.3-.16-.59-.24-.87-.08-.28-.17-.55-.26-.8-.17,.03-.34,.05-.51,.08Z"/><path class="clubmate-13" d="M77.58,179.45c.19-.05,.37-.1,.55-.15,.03,0,.05-.01,.07-.02,.02-.01,.04-.02,.07-.02,.4-.11,.8-.22,1.21-.33,.41-.11,.83-.21,1.26-.3,.26-.05,.52-.1,.78-.14,.26-.04,.53-.07,.81-.1,.22,.79,.42,1.59,.62,2.41,.2,.82,.4,1.63,.61,2.45,.07,.31,.14,.61,.22,.91,.08,.3,.15,.6,.22,.91,.15,.61,.31,1.22,.46,1.83,.15,.61,.32,1.22,.48,1.82,.24,.88,.5,1.74,.77,2.59,.27,.85,.56,1.66,.88,2.45-.23,.07-.47,.14-.71,.23-.24,.08-.49,.17-.75,.25-.15,.06-.31,.12-.47,.17-.16,.05-.32,.1-.47,.15-.18,.05-.36,.11-.55,.16-.19,.05-.37,.1-.56,.14-.29,.06-.58,.11-.88,.14-.3,.03-.59,.02-.88-.02-.31-1.38-.61-2.7-.9-3.96-.29-1.26-.6-2.5-.94-3.74-.04-.14-.07-.27-.11-.41-.04-.13-.07-.27-.11-.41-.3-1.1-.63-2.21-.99-3.33-.36-1.12-.78-2.3-1.24-3.53,.18-.05,.36-.1,.55-.15Zm3.27,2.16c0-.05-.02-.1-.03-.16,0-.01,0-.02,0-.03,0,0,0-.02,0-.03-.05-.14-.12-.25-.21-.35-.09-.1-.2-.14-.33-.11-.03,0-.06,.02-.09,.04-.04,.02-.08,.05-.12,.09,1.04,3.82,2.09,7.63,3.13,11.42,.15-.03,.3-.07,.45-.1-.93-3.53-1.85-7.08-2.78-10.63,0-.04,0-.09,0-.14Z"/><path class="clubmate-13" d="M88.78,178.42c.09,.17,.17,.34,.25,.5,.08,.16,.17,.33,.25,.5,.28,.56,.57,1.12,.85,1.66,.29,.55,.59,1.07,.91,1.58,.18-.55,.29-1.13,.33-1.73,.04-.6,.07-1.2,.07-1.82,0-.03-.01-.05,0-.06,0-.02,0-.03,0-.04,0-.42,.02-.84,.03-1.26,.01-.42,.06-.83,.12-1.24,.23-.13,.47-.22,.73-.3,.26-.07,.53-.14,.82-.19,.07-.02,.13-.03,.21-.05,.07-.02,.14-.03,.21-.05,.09-.02,.18-.04,.26-.06,.09-.02,.17-.05,.26-.08,.35,.37,.68,.75,.97,1.15,.3,.4,.58,.82,.86,1.24,.02,.01,.03,.02,.04,.03,0,.01,.02,.02,.02,.04,.29,.44,.59,.86,.89,1.27,.3,.41,.64,.8,1.01,1.18,.06-.11,.12-.22,.18-.33-.19-1.81-.37-3.62-.56-5.43,.07-.02,.13-.03,.21-.05,.07-.02,.14-.03,.21-.05,.18-.04,.36-.09,.54-.14,.17-.05,.36-.1,.56-.15,.03,0,.06-.01,.1-.02,.04,0,.08-.02,.12-.03,.14-.05,.29-.09,.44-.13,.15-.04,.3-.07,.44-.11,.34-.09,.68-.16,1.02-.22,.34-.06,.68-.09,1.02-.09,.17,1.4,.28,2.8,.35,4.2,.06,1.39,.12,2.78,.17,4.17,.01,.08,.01,.16,.01,.23,0,.07,0,.14,0,.21,.04,1.12,.09,2.24,.14,3.36,.05,1.12,.12,2.25,.21,3.38-.11,.15-.22,.31-.33,.46-.06,0-.11,0-.17,.01-.05,0-.1,.02-.14,.03-.05,.01-.1,.03-.16,.04-.05,.01-.11,.03-.16,.04-.07,.02-.13,.03-.19,.05-.06,.01-.12,.04-.18,.07-.03,0-.06,.02-.09,.02-.03,0-.06,.02-.09,.02-.09,.03-.18,.05-.27,.08-.09,.03-.19,.06-.29,.09-.04,.01-.08,.02-.11,.02-.03,0-.07,0-.11,.02-.08,.02-.16,.04-.24,.05-.08,.01-.17,.03-.26,.04-.54-.55-1.03-1.15-1.48-1.78-.44-.63-.88-1.28-1.32-1.93-.05-.09-.11-.18-.16-.27-.05-.09-.11-.17-.18-.26-.21-.32-.42-.65-.63-.96-.22-.32-.44-.63-.67-.94-.1,.18-.2,.37-.3,.55-.06,2.29-.11,4.59-.17,6.88-.1,.04-.21,.08-.32,.12-.11,.04-.23,.09-.34,.13-.08,.02-.15,.05-.23,.08-.07,.03-.15,.06-.23,.08-.1,.04-.2,.07-.3,.11-.1,.03-.2,.06-.3,.09-.28,.07-.54,.09-.79,.08-.25-.01-.47-.1-.67-.25-.87-1.48-1.76-2.93-2.69-4.37-.93-1.43-1.87-2.87-2.82-4.31-.05-.08-.1-.15-.15-.23-.05-.08-.1-.16-.15-.25-.5-.75-1-1.51-1.49-2.27-.49-.76-.99-1.53-1.48-2.31,.64-.23,1.29-.45,1.96-.64,.67-.19,1.36-.37,2.08-.52,.1-.02,.21-.05,.31-.07,.1-.02,.2-.04,.29-.07,.26,.39,.52,.79,.79,1.18Zm11.13-2.39c.01,1.71,.05,3.41,.11,5.12,.06,1.71,.14,3.41,.24,5.11-.05,.13-.09,.26-.14,.38-.53-.56-1.02-1.15-1.49-1.77-.47-.62-.92-1.25-1.35-1.88-.05-.07-.1-.15-.16-.22-.06-.07-.11-.15-.16-.22-.54-.78-1.1-1.55-1.66-2.32-.56-.77-1.17-1.48-1.83-2.13-.02,.53-.05,1.06-.08,1.6-.04,.54-.07,1.08-.1,1.63-.07,1.08-.13,2.17-.17,3.28-.04,1.11-.04,2.23,0,3.37-.08,.14-.16,.29-.24,.43-.61-.8-1.19-1.62-1.75-2.45-.56-.83-1.11-1.68-1.64-2.53-.04-.05-.08-.1-.1-.15-.03-.05-.06-.1-.11-.15-.4-.62-.8-1.25-1.2-1.87-.4-.63-.82-1.25-1.24-1.87-.01,0-.03,0-.04,0-.01,0-.03,0-.04,0-.01,0-.02,0-.03,0,0,0-.02,0-.03,0-.03,0-.05,.01-.07,.01-.02,0-.04,0-.05,.01-.05,.01-.09,.02-.11,.04-.02,.01-.04,.04-.04,.08,.27,.41,.53,.82,.8,1.24,.27,.42,.53,.83,.8,1.23,.08,.13,.16,.26,.24,.38,.08,.13,.16,.25,.24,.36,.81,1.26,1.63,2.51,2.46,3.74,.83,1.23,1.67,2.42,2.51,3.57-.02-.62-.02-1.23,0-1.84,.02-.61,.05-1.22,.09-1.84,0-.14,0-.29,.01-.44,0-.15,.02-.3,.03-.46,.05-.81,.09-1.63,.12-2.46,.03-.83,.03-1.66-.01-2.49,.07-.36,.13-.72,.2-1.07,.58,.66,1.14,1.34,1.67,2.03,.54,.69,1.07,1.38,1.58,2.06,.09,.14,.19,.27,.28,.39,.09,.12,.19,.24,.29,.36,.5,.67,1,1.33,1.51,1.99,.5,.65,1.03,1.28,1.57,1.89-.02-1.01-.05-2.02-.09-3.05-.04-1.03-.08-2.05-.14-3.08-.06-1.03-.12-2.05-.18-3.07-.06-1.02-.12-2.03-.19-3.03-.11,.03-.22,.06-.33,.08Z"/><path class="clubmate-13" d="M103.54,173.55c.18-.06,.37-.12,.55-.19,.03,0,.05-.02,.07-.03,.02-.01,.04-.02,.07-.03,.4-.13,.8-.27,1.21-.41,.41-.14,.83-.27,1.26-.38,.26-.07,.52-.13,.78-.19,.26-.05,.53-.11,.81-.16,.22,.76,.43,1.53,.64,2.32,.2,.79,.41,1.58,.63,2.36,.07,.3,.15,.59,.23,.88,.08,.29,.15,.58,.23,.88,.16,.59,.32,1.18,.48,1.77,.16,.59,.33,1.17,.5,1.76,.25,.85,.51,1.68,.79,2.49,.28,.81,.58,1.59,.9,2.35-.23,.08-.47,.17-.71,.27-.24,.1-.49,.2-.74,.3-.15,.07-.3,.14-.46,.2-.16,.06-.32,.12-.47,.18-.18,.07-.36,.13-.55,.2-.19,.07-.37,.13-.55,.18-.29,.08-.58,.15-.88,.2-.3,.05-.59,.06-.88,.04-.32-1.34-.63-2.61-.93-3.83-.3-1.21-.62-2.42-.97-3.61-.04-.13-.08-.26-.11-.39-.04-.13-.08-.26-.11-.39-.31-1.06-.65-2.13-1.02-3.2-.37-1.08-.79-2.21-1.27-3.38,.18-.06,.36-.12,.55-.19Zm3.29,1.88s-.02-.1-.03-.15c0-.01,0-.02,0-.03,0,0,0-.02,0-.03-.05-.13-.12-.24-.21-.33-.09-.09-.2-.12-.33-.08-.03,0-.06,.02-.09,.05-.04,.02-.08,.06-.12,.1,1.07,3.68,2.14,7.35,3.22,11.01,.15-.04,.3-.09,.45-.13-.96-3.41-1.91-6.83-2.86-10.25,0-.04,0-.09,0-.14Z"/><path class="clubmate-13" d="M118.84,177.59c.02,.2,.03,.39,.05,.6,.02,.2,.04,.4,.05,.6,.03,.39,.07,.79,.11,1.18,.04,.4,.07,.8,.1,1.21-.06,.08-.12,.17-.18,.25-2.05,.67-4.11,1.33-6.16,1.97-.07-.08-.15-.16-.22-.24,.17-1.39,.34-2.78,.51-4.16,1.85-.53,3.69-1.06,5.53-1.62,.07,.07,.14,.14,.21,.21Zm-1.98,2.06c-.21,.03-.43,.08-.65,.14-.09,.03-.18,.06-.27,.08-.09,.03-.18,.06-.27,.1-.03,0-.05,.02-.08,.02-.03,0-.05,.01-.06,.02-.12,.03-.23,.07-.35,.12-.12,.04-.23,.08-.33,.11-.03,0-.06,.02-.09,.03-.03,0-.06,.02-.09,.03-.06,.03-.11,.08-.15,.15-.04,.07-.04,.15-.01,.24,0,.01,0,.03,.01,.04,0,.01,0,.03,.01,.04,.1-.04,.21-.08,.32-.12,.11-.03,.22-.06,.32-.1,.09-.03,.18-.05,.27-.08,.09-.03,.18-.06,.27-.08,.08,0,.17-.03,.26-.06,.09-.03,.18-.06,.27-.08,.22-.07,.43-.15,.63-.24,.2-.09,.39-.2,.57-.32-.19-.06-.39-.07-.6-.04Z"/></g></g></g><g class="clubmate-17"><path class="clubmate-12" d="M20.89,85.01c.17-1.16,.35-2.32,.69-3.44s.72-2.17,.65-3.31c-.03-.62-1-.62-.97,0,.06,1.1-.34,2.13-.65,3.17s-.5,2.21-.66,3.33c-.04,.26,.06,.52,.34,.59,.23,.07,.56-.08,.59-.34h0Z"/><path class="clubmate-12" d="M21.46,82.93c2.04-.52,3.73-1.84,5.35-3.12,.2-.16,.17-.51,0-.68-.2-.2-.48-.16-.68,0-1.49,1.18-3.05,2.39-4.92,2.87-.6,.15-.35,1.09,.26,.93h0Z"/><path class="clubmate-12" d="M22.67,82.57c.82,1.1,1.68,2.17,2.58,3.2,.17,.2,.51,.18,.68,0,.19-.19,.17-.49,0-.68-.85-.97-1.67-1.97-2.43-3-.16-.21-.42-.32-.66-.17-.21,.12-.33,.45-.17,.66h0Z"/><path class="clubmate-12" d="M30.34,86.11c.26-2.13,.51-4.25,.77-6.38,.03-.26-.24-.48-.48-.48-.29,0-.45,.22-.48,.48-.26,2.13-.51,4.25-.77,6.38-.03,.26,.24,.48,.48,.48,.29,0,.45-.22,.48-.48h0Z"/><path class="clubmate-12" d="M34.32,79.7c.55,2.33,1.19,4.63,1.93,6.9,.17,.52,.92,.42,.95-.13,.12-2.19,1.47-4.08,2.05-6.15h-.93c.79,2.09,1.69,4.15,2.67,6.16,.18,.36,.81,.29,.88-.12,.4-2.14,.97-4.25,1.7-6.3,.21-.59-.73-.84-.93-.26-.73,2.05-1.29,4.16-1.7,6.3l.88-.12c-.95-1.93-1.81-3.91-2.58-5.92-.16-.43-.79-.49-.93,0-.61,2.17-1.95,4.1-2.08,6.41l.95-.13c-.74-2.27-1.38-4.57-1.93-6.9-.14-.61-1.08-.35-.93,.26h0Z"/><path class="clubmate-12" d="M46.51,79.95c.22,1.07,.24,2.15,.24,3.24s.03,2.24,.1,3.36c.04,.62,1.01,.62,.97,0-.07-1.16-.1-2.32-.11-3.48s-.04-2.26-.28-3.37c-.13-.61-1.06-.35-.93,.26h0Z"/><path class="clubmate-12" d="M52.4,82.9c.49-.09,.96-.28,1.39-.54,.11-.07,.19-.17,.22-.29s.02-.27-.05-.37c-.14-.21-.43-.32-.66-.17-.17,.1-.34,.19-.52,.27l.12-.05c-.24,.1-.49,.18-.75,.23-.11,.02-.23,.13-.29,.22-.06,.1-.09,.26-.05,.37s.11,.23,.22,.29c.12,.06,.24,.07,.37,.05h0Z"/><path class="clubmate-12" d="M58.25,81.09c-.88-2-1.79-3.99-2.74-5.97l-.76,.59c.67,.63,1.32,1.36,2.09,1.87s1.74,.8,2.6,1.15c.34,.14,.7-.27,.59-.59-.53-1.65-1.17-3.27-1.9-4.84l-.76,.59c.49,.53,.97,1.07,1.48,1.59,.2,.21,.42,.37,.71,.44,.26,.06,.61-.03,.85,.08,.56,.25,1.05-.58,.49-.83-.27-.12-.51-.16-.8-.17-.31,0-.43-.07-.65-.3-.46-.5-.92-1-1.38-1.49-.4-.43-.98,.11-.76,.59,.7,1.5,1.3,3.03,1.8,4.61l.59-.59c-.78-.32-1.66-.58-2.37-1.05s-1.29-1.15-1.89-1.72c-.41-.39-.99,.1-.76,.59,.95,1.97,1.86,3.96,2.74,5.97,.25,.57,1.08,.08,.83-.49h0Z"/><path class="clubmate-13" d="M56.35,72.51s.07-.03,.1-.05c.04-.02,.07-.05,.11-.08,.04-.03,.07-.06,.1-.1,.03-.03,.06-.06,.09-.09,.03-.03,.06-.06,.09-.08,.08-.07,.16-.11,.24-.12s.17,.03,.27,.13c.43,.5,.86,.93,1.35,1.29,.49,.35,1.08,.67,1.58,.92,.03,.01,.06,.03,.08,.04,.03,.01,.05,.03,.08,.04,.48,.23,.91,.39,1.34,.51,.43,.12,.87,.22,1.36,.35-.03,.04-.04,.06-.07,.11-.06,.04-.12,.09-.18,.14-.06,.05-.12,.11-.17,.16-.04,.05-.09,.09-.13,.14-.04,.05-.08,.1-.12,.15-.11,.15-.22,.3-.32,.46-.1,.16-.2,.32-.3,.46-.14,0-.28-.04-.42-.09-.14-.06-.28-.12-.43-.2-.01,0-.02,0-.03-.01,0,0-.02-.01-.03-.02-.17-.09-.36-.17-.55-.26-.19-.1-.39-.17-.6-.22,.07,.17,.15,.34,.24,.5,.09,.16,.17,.32,.26,.47,.03,.04,.05,.09,.07,.13,.02,.04,.05,.09,.07,.13,.11,.18,.21,.36,.3,.53,.1,.18,.18,.36,.26,.56-.02,.01-.03,.03-.05,.06-.02,.02-.04,.05-.05,.07,0,.01-.01,.02-.02,.04,0,.01-.01,.02-.02,.04-.03,.05-.07,.11-.1,.17-.03,.06-.06,.12-.09,.18-.03,.06-.06,.12-.09,.18-.03,.06-.06,.12-.1,.18-.1,.18-.22,.31-.35,.4-.13,.09-.26,.07-.41-.07,0,0-.02-.02-.03-.02,0,0-.02-.02-.03-.02-.12,0-.24-.03-.36-.07-.12-.04-.24-.09-.36-.15-.02-.01-.04-.02-.07-.03-.02,0-.04-.02-.06-.02-.17-.09-.34-.17-.5-.26-.17-.09-.33-.15-.49-.2,.21,.43,.44,.84,.66,1.25,.23,.4,.47,.78,.74,1.12-.12,.2-.24,.39-.37,.57-.13,.18-.26,.33-.4,.49-.13,.15-.27,.3-.4,.44-.14,.14-.27,.28-.41,.42-.34-.56-.66-1.15-.97-1.77-.31-.61-.62-1.24-.92-1.86-.03-.06-.06-.12-.09-.18-.03-.06-.06-.12-.09-.18-.33-.7-.68-1.41-1.03-2.13-.35-.72-.73-1.45-1.12-2.19,0-.09-.01-.13-.02-.22,.45-.32,.67-.48,1.13-.77,.35,.32,.7,.62,1.05,.91,.35,.29,.7,.57,1.05,.83,.1,.08,.2,.15,.3,.23,.1,.08,.2,.15,.3,.22,.07,.06,.15,.11,.22,.17,.07,.05,.14,.1,.21,.15,.02-.06,.04-.09,.06-.15-.1-.27-.21-.53-.32-.8-.11-.26-.23-.53-.34-.81-.01-.03-.03-.06-.04-.09-.01-.03-.03-.06-.05-.1-.13-.3-.26-.61-.39-.92-.13-.31-.24-.62-.35-.94,.04-.01,.07-.02,.11-.04Zm.42,4.19c-.35-.23-.69-.47-1.03-.71-.34-.24-.65-.46-.92-.67,.26,.55,.52,1.09,.77,1.62,.25,.53,.5,1.06,.75,1.58,.25,.52,.5,1.04,.74,1.54,.25,.51,.49,1,.73,1.49,.07-.08,.11-.12,.18-.2-.14-.27-.28-.53-.41-.8-.13-.27-.26-.54-.39-.82-.03-.06-.06-.12-.09-.18-.03-.06-.06-.13-.09-.19-.24-.49-.48-.98-.73-1.48-.25-.49-.52-.99-.81-1.5-.05-.17-.07-.25-.12-.42,.27,.2,.54,.39,.81,.57,.27,.18,.54,.36,.81,.53,.51,.33,1.01,.64,1.48,.85,.47,.21,.92,.36,1.37,.5,.04-.04,.05-.06,.09-.09-.32-.64-.66-1.29-1-1.95-.35-.67-.69-1.36-1.03-2.1-.03-.11-.04-.16-.07-.27,.12,.11,.36,.32,.74,.56,.38,.25,.8,.48,1.28,.69,.5,.22,.95,.37,1.32,.47,.37,.1,.58,.13,.67,.15,.02-.01,.03-.03,.04-.04,0,0,0-.01,.02-.02,0,0,.02-.01,.02-.02,0,0,.01-.02,.02-.03,0,0,.01-.02,.02-.03,.02-.02,.02-.04,.02-.05,0,0-.02,0-.05,0-.1,0-.36-.02-.86-.17-.5-.15-1.16-.4-1.8-.74-.02,0-.03-.02-.05-.03-.02,0-.03-.02-.05-.03-.34-.19-.65-.39-.96-.62-.3-.23-.57-.46-.81-.68,.8,2.03,1.23,2.93,2.11,4.62-1.09-.26-2.01-.86-2.73-1.35Z"/></g><g><path class="clubmate-13" d="M28.59,79.3c-.21,.18-.41,.35-.61,.52-.2,.17-.4,.33-.59,.5-.14,.12-.29,.25-.44,.36-.15,.11-.3,.23-.44,.35-.28,.21-.57,.43-.86,.65-.29,.22-.6,.44-.91,.66,0,.06-.01,.09-.02,.14,1.22,1.34,1.85,2.01,3.12,3.32-.01,.08-.02,.12-.03,.2-1.1,.32-1.65,.48-2.76,.77-.11-.04-.16-.06-.26-.1-.26-.45-.55-.88-.89-1.3-.33-.42-.68-.81-1.03-1.17-.1-.11-.2-.21-.3-.3-.1-.09-.2-.19-.3-.28-.07,.2-.13,.41-.19,.62-.06,.21-.12,.42-.17,.63-.04,.14-.07,.28-.09,.43-.03,.14-.05,.29-.08,.43-.01,.06-.02,.11-.03,.17-.01,.06-.02,.11-.03,.17-.16,.01-.32,.01-.47,0-.15-.01-.3-.03-.45-.06-.07-.01-.15-.03-.21-.05-.07-.02-.14-.03-.2-.04-.04-.01-.08-.03-.13-.04-.04-.01-.09-.02-.13-.03-.13-.03-.26-.07-.39-.1-.13-.03-.27-.06-.41-.09-.03,0-.07-.01-.1-.02-.03,0-.06-.01-.1-.02-.03,0-.07-.01-.1-.01-.03,0-.07,0-.1-.01,.04-.35,.1-.72,.18-1.11,.08-.39,.16-.78,.24-1.17,0-.02,0-.03,0-.05,0-.02,0-.03,0-.05,.02-.1,.04-.21,.06-.31,.02-.1,.04-.2,.06-.31,0-.05,.02-.1,.02-.15,0-.05,.01-.11,.02-.16,.01-.06,.02-.11,.03-.16,0-.05,.02-.1,.03-.15,.05-.29,.1-.6,.17-.91,.06-.31,.12-.62,.18-.94,.03-.14,.05-.28,.08-.42,.03-.14,.06-.28,.08-.43,0-.05,.02-.1,.03-.15,0-.05,.02-.11,.03-.16,.07-.37,.13-.74,.18-1.11,.05-.37,.09-.73,.11-1.09,1.14,.22,1.71,.33,2.87,.52,0,.03,0,.06,0,.1,0,.03,0,.06,0,.08,0,.03,0,.06-.01,.1,0,.03,0,.06-.01,.1-.02,.13-.04,.25-.07,.37-.03,.12-.05,.25-.08,.37-.03,.12-.06,.25-.09,.37-.03,.12-.05,.24-.07,.36-.01,.08-.02,.16-.03,.25,0,.08-.01,.17-.01,.25,0,.09,0,.18,.01,.26,0,.08,.02,.17,.04,.26,.61-.3,1.15-.66,1.63-1.08,.48-.43,.95-.88,1.4-1.36,.02-.02,.04-.04,.05-.06,.01-.02,.03-.03,.05-.05,1.02,.58,1.54,.86,2.58,1.42-.01,.11-.02,.16-.03,.26Zm-7.04-1.33c-.08,.42-.15,.85-.24,1.28-.08,.44-.16,.88-.24,1.32-.12,.69-.23,1.39-.35,2.11-.12,.72-.24,1.44-.37,2.17,.04,0,.07-.02,.09-.02,.03,0,.05,0,.08,0,.02,0,.03,0,.04,.01,.01,0,.02,.01,.03,.02,.01,.01,.03,.02,.04,.03,.02-.09,.04-.2,.06-.32,.02-.12,.05-.25,.07-.38,.02-.09,.04-.19,.06-.28,.02-.09,.04-.19,.06-.28,.05-.22,.1-.43,.15-.64,.05-.2,.09-.47,.15-.54,.11-.12,.49-.17,.67-.22,.06-.02,.13-.04,.2-.06,.07-.02,.16-.03,.23-.05,.02,0,.04-.01,.06-.01,.02,0,.04,0,.07-.01,.08,.09,.15,.17,.23,.25,.08,.08,.15,.17,.23,.25,.44,.46,.86,.93,1.28,1.41,.42,.48,.81,.98,1.18,1.5,.16,.03,.24,.05,.39,.08-.19-.35-.42-.69-.69-1.01-.27-.32-.55-.64-.84-.96-.03-.02-.06-.05-.08-.07-.02-.03-.05-.06-.07-.08-.23-.25-.45-.5-.67-.76-.22-.26-.42-.53-.6-.81,.15-.08,.29-.16,.45-.24,.15-.08,.3-.16,.44-.23,.02-.01,.04-.03,.05-.03,.02,0,.04-.02,.06-.03,.54-.29,1.07-.6,1.59-.93,.52-.33,.98-.74,1.38-1.22-.06-.05-.09-.07-.16-.12-.12,.1-.25,.2-.37,.3-.13,.1-.25,.19-.36,.28-.08,.07-.17,.14-.25,.2-.09,.06-.17,.13-.26,.2-.18,.13-.36,.26-.55,.39s-.38,.26-.6,.39c-.47,.28-.96,.55-1.46,.79-.5,.24-1.01,.39-1.54,.45,.02-.16,.04-.33,.07-.51,.02-.18,.05-.36,.08-.53,.02-.13,.05-.27,.08-.41,.03-.14,.05-.28,.08-.43,0-.03,.01-.07,.02-.1,0-.04,.02-.07,.03-.11,.03-.17,.06-.35,.09-.52,.03-.17,.06-.34,.09-.51,.03-.17,.05-.33,.07-.49,.02-.16,.04-.31,.04-.46-.12-.02-.18-.03-.3-.06Z"/><path class="clubmate-13" d="M29.55,78.17c.12,0,.23,0,.34,.01,.02,0,.03,0,.04,0,.01,0,.03,0,.04,0,.25,.01,.5,.02,.75,.03,.26,0,.51,.03,.78,.05,.16,.01,.31,.03,.47,.05,.16,.02,.31,.05,.48,.08-.04,.46-.08,.92-.14,1.39-.06,.47-.11,.94-.16,1.41-.03,.18-.05,.35-.07,.52-.02,.17-.04,.35-.07,.52-.04,.35-.09,.71-.13,1.06-.04,.35-.09,.71-.12,1.06-.06,.51-.1,1.02-.14,1.52s-.05,.99-.05,1.47c-.15,0-.31,0-.47,0-.16,0-.34,0-.5,0-.1,0-.21,0-.32,0-.11,0-.21,0-.31,0-.12,0-.24,0-.36-.01-.12,0-.24-.01-.36-.03-.19-.02-.37-.05-.55-.09-.18-.04-.35-.1-.51-.18,.16-.79,.3-1.54,.43-2.26,.13-.72,.24-1.43,.32-2.14,0-.08,.02-.16,.03-.23,0-.08,.02-.15,.03-.23,.08-.63,.13-1.28,.17-1.93,.04-.66,.06-1.35,.05-2.08,.11,0,.23,0,.34,.01Zm1.41,1.69s.01-.06,.01-.09c0,0,0-.01,0-.02,0,0,0-.01,0-.02,0-.08-.02-.16-.05-.22-.03-.07-.08-.11-.17-.11-.02,0-.04,0-.06,0-.02,0-.05,.02-.09,.03-.25,2.65-.4,3.97-.74,6.62,.12,.01,.17,.02,.29,.03,.35-2.46,.5-3.69,.77-6.14,0-.02,.02-.05,.03-.08Z"/><path class="clubmate-13" d="M36.18,79.41c.02,.11,.04,.21,.05,.31,.01,.1,.03,.21,.05,.31,.05,.35,.11,.7,.17,1.04,.06,.34,.13,.68,.22,1.01,.22-.27,.39-.57,.54-.89,.14-.32,.27-.65,.4-.99,0-.02,0-.03,0-.04,0,0,0-.02,0-.02,.08-.23,.17-.46,.26-.69,.09-.23,.19-.45,.3-.66,.15-.04,.31-.06,.48-.06,.16,0,.33,0,.51,.01,.04,0,.08,0,.13,0,.04,0,.09,0,.13,0,.06,0,.11,0,.17,0,.05,0,.11,0,.16,0,.14,.25,.26,.51,.36,.77,.1,.26,.16,.63,.27,.81,0,0,.01,.02,.02,.02,0,0,0,.02,0,.02,.09,.28,.19,.56,.28,.83,.1,.27,.22,.54,.37,.8,.07-.06,.1-.09,.17-.16,.27-1.24,.4-1.87,.65-3.11,.04,0,.08,0,.13,0,.04,0,.09,0,.13,0,.12,0,.23,0,.34,0,.11,0,.23,0,.35-.01,.02,0,.04,0,.06,0,.03,0,.05,0,.07,0,.09,0,.18-.01,.28-.02s.19,0,.28,0c.21,0,.42,0,.63,.01,.21,.01,.41,.04,.61,.08-.13,.81-.3,1.62-.51,2.41-.21,.8-.43,1.59-.66,2.38,0,.05-.02,.09-.03,.13-.01,.04-.03,.08-.04,.12-.18,.64-.37,1.28-.56,1.91-.19,.64-.38,1.29-.56,1.94-.12,.08-.18,.12-.3,.21-.03,0-.07-.01-.1-.02-.03,0-.07,0-.09,0-.03,0-.07,0-.1,0-.03,0-.07,0-.1,0-.04,0-.08,0-.12,0-.04,0-.08,0-.12,.01-.02,0-.04,0-.06,0-.02,0-.04,0-.06,0-.06,0-.12,0-.18,0-.06,0-.13,0-.2,0-.03,0-.05,0-.07,0-.02,0-.04,0-.07,0-.05,0-.1,0-.16,0-.05,0-.11-.01-.17-.02-.21-.39-.38-.8-.51-1.22-.13-.42-.28-.86-.39-1.28-.01-.06-.03-.11-.04-.17-.01-.06-.04-.12-.05-.17-.06-.2-.12-.42-.18-.63-.06-.21-.13-.41-.21-.62-.12,.1-.18,.16-.29,.26-.6,1.51-.91,2.27-1.56,3.77-.07,0-.14,.01-.22,.01-.08,0-.16,.01-.23,.02-.05,0-.1,0-.15,0-.05,0-.11,0-.16,0-.07,0-.14,0-.2,0-.06,0-.13,0-.2,0-.18,0-.34-.04-.49-.09-.15-.05-.26-.13-.34-.25-.18-.95-.39-1.89-.63-2.83-.23-.93-.48-1.86-.73-2.79-.01-.05-.03-.1-.04-.15-.01-.05-.02-.11-.04-.16-.11-.47-.27-.98-.39-1.47-.13-.49-.26-.98-.38-1.48,.41-.02,.83-.04,1.25-.04,.42,0,.85,.01,1.29,.03,.06,0,.13,0,.19,.01,.07,0,.13,0,.18,0,.09,.31,.14,.46,.23,.76Zm6.91,.26c-.29,.96-.57,1.92-.86,2.89-.28,.97-.56,1.93-.85,2.9-.07,.08-.1,.12-.16,.19-.2-.39-.38-.8-.54-1.21-.15-.41-.31-.83-.43-1.25-.01-.05-.03-.1-.05-.15-.02-.05-.04-.1-.05-.15-.16-.51-.35-1.02-.53-1.53-.18-.51-.41-.99-.67-1.45-.11,.29-.23,.58-.35,.87-.12,.29-.25,.59-.37,.88-.25,.58-.51,1.18-.76,1.78-.25,.6-.49,1.22-.7,1.85-.09,.08-.14,.12-.23,.2-.19-.54-.36-1.08-.51-1.62-.16-.55-.27-1.16-.43-1.64-.01-.03-.02-.07-.03-.1,0-.03-.02-.07-.03-.1-.12-.37-.21-.81-.32-1.21-.11-.4-.22-.81-.34-1.21,0,0-.02,0-.02,0,0,0-.02,0-.02,0,0,0-.01,0-.02,0,0,0-.01,0-.02,0-.02,0-.03,0-.04,0-.01,0-.02,0-.03,0-.03,0-.06,0-.07,0-.02,0-.04,.02-.04,.04-.01,.18,.14,.53,.21,.8,.07,.27,.15,.54,.22,.8,.02,.08,.04,.16,.06,.25,.02,.08,.04,.16,.06,.23,.21,.81,.43,1.62,.66,2.43,.23,.81,.47,1.59,.72,2.36,.12-.34,.26-.68,.4-1.01s.29-.66,.44-1c.03-.08,.06-.16,.1-.24,.03-.08,.07-.16,.11-.25,.2-.44,.39-.88,.57-1.34,.18-.45,.34-.91,.48-1.38,.13-.22,.19-.34,.32-.56,.21,.45,.41,.91,.59,1.37,.18,.46,.36,.92,.53,1.38,.03,.09,.06,.17,.09,.26,.03,.08,.07,.17,.1,.24,.18,.42,.33,.89,.5,1.33,.17,.44,.36,.87,.56,1.3,.19-.57,.38-1.14,.56-1.72,.18-.58,.35-1.16,.51-1.75,.16-.59,.31-1.17,.46-1.75,.15-.58,.29-1.16,.42-1.73-.08,0-.13,0-.21,0Z"/><path class="clubmate-13" d="M45.68,78.75c.12-.01,.24-.03,.35-.04,.02,0,.03,0,.04,0,.01,0,.03,0,.04,0,.26-.03,.52-.05,.78-.08,.26-.03,.53-.05,.8-.07,.17,0,.33-.01,.49-.02,.16,0,.33,0,.5,0,.02,.46,.02,.93,.02,1.41,0,.48,0,.95,0,1.43,0,.18,0,.36,0,.53,0,.18,0,.35-.01,.53,0,.36,0,.72-.01,1.08,0,.36,0,.72,0,1.08,0,.52,.01,1.03,.03,1.54s.06,1,.12,1.47c-.16,.02-.32,.04-.49,.06-.17,.03-.34,.05-.51,.08-.1,.02-.21,.04-.32,.05-.11,.01-.22,.03-.32,.04-.12,.01-.25,.03-.38,.04-.13,.01-.25,.02-.37,.03-.19,0-.38,0-.58-.01-.19-.01-.37-.05-.55-.1,.07-.81,.13-1.58,.18-2.31,.05-.73,.08-1.46,.08-2.19,0-.08,0-.16,0-.24,0-.08,0-.16,0-.24,0-.64-.01-1.29-.05-1.95-.04-.66-.1-1.35-.19-2.08,.11-.01,.23-.02,.35-.04Zm1.64,1.48s0-.06,0-.09c0,0,0-.01,0-.02,0,0,0-.01,0-.02-.01-.08-.04-.15-.07-.22-.04-.06-.1-.09-.18-.09-.02,0-.04,0-.06,.02-.02,0-.05,.02-.09,.04,.04,2.68,.04,4.02,0,6.71,.12,0,.18,0,.3-.01,.07-2.5,.09-3.75,.08-6.24,0-.02,.01-.05,.02-.08Z"/></g><text class="clubmate-14" transform="translate(51.65 86.09) rotate(-19.18)"><tspan x="0" y="0">-</tspan></text></g></g></g></g></svg>
