<?xml version="1.0" encoding="UTF-8"?><svg id="Layer_2" xmlns="http://www.w3.org/2000/svg"><defs><style>.left-1{fill:#7e8198;}.left-2{fill:#231f20;}.left-3{fill:#414042;}.left-4{fill:#27aae1;}.left-4,.left-5,.left-6,.left-7{opacity:.81;}.left-5{fill:#8dc63f;}.left-6{fill:#f15a29;}.left-7{fill:#0081ad;}</style></defs><g id="Left"><g id="Left-Phone"><path class="left-1" d="M116,151.21l-67.31,22.08c-3.57,1.17-7.43-1.05-8.49-4.88L.27,24.46c-1.06-3.83,1.11-7.72,4.76-8.55L74.1,.16c3.44-.78,6.94,1.43,7.93,5.03l38.18,137.62c1,3.6-.86,7.3-4.21,8.4Z"/><path class="left-2" d="M112.16,146.09l-58.27,19.34c-3.09,1.02-6.49-1.1-7.48-4.68L9.12,26.34c-.99-3.57,.83-7.15,4-7.86L73.04,5.04c2.98-.67,6.07,1.45,7,4.81l35.65,128.51c.93,3.36-.62,6.77-3.52,7.73Z"/><path class="left-3" d="M40.48,139.36L94.56,62.2l-14.49-52.25c-.07-.26-.16-.5-.25-.74L25.76,86.32l14.71,53.04Z"/><rect class="left-4" x="49.48" y="143.94" width="13.07" height="13.07" rx="3" ry="3" transform="translate(-41.01 22.54) rotate(-16.76)"/><rect class="left-5" x="65.28" y="138.8" width="13.07" height="13.07" rx="3" ry="3" transform="translate(-38.86 26.88) rotate(-16.76)"/><rect class="left-6" x="81.23" y="134.21" width="13.07" height="13.07" rx="3" ry="3" transform="translate(-36.85 31.28) rotate(-16.76)"/><rect class="left-7" x="97.07" y="129.23" width="13.07" height="13.07" rx="3" ry="3" transform="translate(-34.74 35.64) rotate(-16.76)"/></g></g></svg>
