<?xml version="1.0" encoding="UTF-8"?><svg id="Layer_2" xmlns="http://www.w3.org/2000/svg"><defs><style>.telescope-1,.telescope-2{fill:#eab363;}.telescope-3,.telescope-4{fill:#edd089;}.telescope-5{fill:#c08329;}.telescope-6{fill:#aa7126;}.telescope-7{fill:#ca974d;}.telescope-8{fill:#ad7e3e;}.telescope-2,.telescope-4{opacity:.5;}</style></defs><g id="Left"><g id="Left-Telescope"><polygon class="telescope-5" points="187.49 299.1 12.14 51.88 73.01 12.83 224.62 275.29 187.49 299.1"/><polygon class="telescope-6" points="218.38 277.46 63.6 18.51 73.01 12.83 224.62 275.29 218.38 277.46"/><rect class="telescope-1" x="113.26" y="11.62" width="10.77" height="302.77" transform="translate(-69.23 89.87) rotate(-32.68)"/><polygon class="telescope-5" points="120.34 210.1 19.66 63.62 80.53 24.57 171.71 177.14 120.34 210.1"/><polygon class="telescope-6" points="70.95 30.72 80.53 24.57 171.71 177.14 164.33 183.33 70.95 30.72"/><polygon class="telescope-2" points="77.38 121.93 185.08 289.56 206.08 275.57 98.37 107.94 77.38 121.93"/><rect class="telescope-1" x="87.01" y="33.26" width="10.77" height="177.65" transform="translate(-51.29 69.22) rotate(-32.68)"/><polygon class="telescope-2" points="26.7 43.03 79.01 124.56 99.53 110.07 47.22 28.54 26.7 43.03"/><rect class="telescope-7" x="31.19" y="-9.49" width="25.59" height="88.09" transform="translate(49.31 -21.12) rotate(57.32)"/><rect class="telescope-8" x="63.1" y="7.95" width="25.59" height="12.26" transform="translate(46.76 -57.4) rotate(57.32)"/><path class="telescope-7" d="M188.61,313.58c-2.17-7.66-11.44-23.06-11.44-23.06l43.95-28.2s10.12,17.19,16.19,20.01l-48.7,31.24Z"/><path class="telescope-8" d="M214.64,266.49l6.48-4.16s10.12,17.19,16.19,20.01l-7.82,5.02-14.85-20.87Z"/><rect class="telescope-7" x="89.93" y="74.86" width="9.89" height="78.05" transform="translate(139.5 -27.46) rotate(57.32)"/><rect class="telescope-8" x="118.62" y="90.54" width="9.89" height="9.89" transform="translate(137.21 -60.07) rotate(57.32)"/><rect class="telescope-7" x="141.08" y="160.85" width="9.89" height="65.53" transform="translate(230.15 -33.84) rotate(57.32)"/><rect class="telescope-8" x="165.33" y="174.11" width="9.89" height="7.91" transform="translate(228.21 -61.4) rotate(57.32)"/><rect class="telescope-4" x="22.39" y="29.44" width="19.22" height="25.59" transform="translate(-17.74 23.96) rotate(-32.68)"/><rect class="telescope-3" x="28.12" y="29.39" width="7.9" height="25.59" transform="translate(-17.7 24) rotate(-32.68)"/><polygon class="telescope-4" points="195.13 309.41 209.96 299.87 196.02 278.41 181.19 287.96 195.13 309.41"/><polygon class="telescope-3" points="199.22 306.78 205.87 302.51 191.93 281.05 185.28 285.32 199.22 306.78"/><polygon class="telescope-4" points="130.37 209.53 144.86 200.24 139.48 191.95 124.99 201.24 130.37 209.53"/><polygon class="telescope-3" points="134.38 206.97 141.03 202.7 135.64 194.41 128.99 198.68 134.38 206.97"/><polygon class="telescope-4" points="78.93 129.99 92.97 120.98 87.59 112.69 73.55 121.7 78.93 129.99"/><polygon class="telescope-3" points="82.77 127.53 89.42 123.26 84.03 114.97 77.38 119.24 82.77 127.53"/></g></g></svg>
