<?xml version="1.0" encoding="UTF-8"?><svg id="Layer_2" xmlns="http://www.w3.org/2000/svg" xmlns:xlink="http://www.w3.org/1999/xlink"><defs><style>.magglass-1{fill:url(#linear-gradient2);opacity:.6;}.magglass-2{fill:#6c301e;}.magglass-3{fill:#c3922e;}.magglass-4{fill:rgba(109,110,113,.15);stroke:#c3922e;stroke-miterlimit:10;stroke-width:8.93px;}</style><linearGradient id="linear-gradient2" x1="108.36" y1="172.21" x2="179.28" y2="101.29" gradientTransform="translate(-133.44 72.94) rotate(-45.89)" gradientUnits="userSpaceOnUse"><stop offset="0" stop-color="#fff"/><stop offset=".02" stop-color="#fff" stop-opacity=".91"/><stop offset=".08" stop-color="#fff" stop-opacity=".59"/><stop offset=".14" stop-color="#fff" stop-opacity=".34"/><stop offset=".19" stop-color="#fff" stop-opacity=".16"/><stop offset=".23" stop-color="#fff" stop-opacity=".04"/><stop offset=".25" stop-color="#fff" stop-opacity="0"/><stop offset=".59" stop-color="#fff" stop-opacity="0"/><stop offset=".72" stop-color="#fff" stop-opacity=".28"/><stop offset="1" stop-color="#fff" stop-opacity=".99"/><stop offset="1" stop-color="#fff"/></linearGradient></defs><g id="Left"><g id="Left-MagnifyingGlass"><circle class="magglass-4" cx="64.85" cy="64.85" r="60.38"/><circle class="magglass-1" cx="64.85" cy="64.85" r="50.15"/><path class="magglass-2" d="M219.31,201.18l-13.37,13.8s-34.7-32.23-46.04-43.21c-11.33-10.99-44.63-44.67-44.63-44.67l13.37-13.8s34.7,32.23,46.04,43.21c11.33,10.99,44.63,44.67,44.63,44.67Z"/><path class="magglass-3" d="M115.51,99.33l-14.61,15.08-5.41,5.58,.67,.07c7.64,.75,14.62,3.94,19.95,9.1h0s14.61-15.08,14.61-15.08h0c-5.33-5.17-8.73-12.05-9.72-19.66l-.09-.67-5.41,5.58Z"/><path class="magglass-3" d="M201.29,200.64h21.12v9.95c0,1.79-1.46,3.25-3.25,3.25h-14.61c-1.79,0-3.25-1.46-3.25-3.25v-9.95h0Z" transform="translate(-84.41 215.13) rotate(-45.89)"/><circle class="magglass-3" cx="214.85" cy="210.15" r="7.11"/></g></g></svg>
