<?xml version="1.0" encoding="UTF-8"?><svg xmlns="http://www.w3.org/2000/svg"><defs><style>.jacko-1{fill:#f96328;}.jacko-2{fill:#ffad4a;}.jacko-3{fill:#2d0e05;}.jacko-4{fill:#2b5919;}.jacko-5{mix-blend-mode:multiply;opacity:.12;}.jacko-6{isolation:isolate;}</style></defs><g class="jacko-6"><g id="Layer_2"><g id="Left"><g id="Left-JackoLantern"><g id="_9me4dm"><path class="jacko-1" d="M154.97,73.18c29.62-23.64,71.84-9.49,83.61,1.38,2.25,2.08,7.09,1.61,10.77,1.84,15.24,.92,29.97,3.5,41.1,15.07,19.17,19.92,36.13,45.9,40.2,73.67,5.48,37.33,5.12,79.73-14.66,113.1-6.89,11.63-17.79,17.47-30.97,19.27-2.3,.31-3.69,1.11-4.86,3.28-12.85,23.95-38.29,32.64-63.31,21.78-.78-.34-1.6-.59-1.51-.56-6.46,4.68-12.07,9.44-18.32,13.12-17.84,10.48-35.26,8.51-51.4-3.7-5.39-4.07-9.58-4.95-16.33-2.71-22.68,7.55-42.62,2.22-59.18-15.3-1.4-1.48-3.63-2.47-5.65-3.04C17.27,297.22-.01,241.58,0,197.32c.01-47.38,22.23-111.35,78.21-113.52,5.7-.22,9.95-4.06,14.66-6.76,6.85-3.93,14.08-6.11,21.57-8.47,9.26-2.92,27.27-2.05,36.08,2.43,1.11,.57,2.25,1.1,4.47,2.18Z"/></g><path class="jacko-5" d="M128.69,93.84c1.79,6.75-2.8,22.55-4.64,30.52-2.59,11.24-2.35,22.29-1.53,27.17,2.35-9.36,5.17-18.61,8.45-27.7,2.6-7.21,5.47-20.51,10.9-26.02,9.38-9.51,16.59,9.07,14.8,16.51,2.21-9.21,8.61-28.49,20.89-27.42,8.61,.75,13.08,9.89,15.73,16.82,4.26,11.14,10.82,38.03,11.16,39.91,1.15-7.82-.61-14.72-1.69-22.52-1.33-9.6-6.93-26.49,1.93-33.93,4.55-3.82,9.4-2.65,14.53-1.04,9.55,3,18.67,8.25,25.61,15.52,.2-6.46-4.19-12.36-9.65-15.81-3.53-2.23-7.66-4.45-11.76-5.35-4.33-.95-7.93-.84-11.86-3.57,6.32-.51,12.65-1.03,18.97-1.54-12.48-3.26-25.51-4.92-38.41-4.64s-24.54-1.95-36.91-.7c-10.09,1.01-19.76,3.56-29.21,7.19-2.5,.96-5.38,1.27-7.78,2.4s-12.75,3.7-14.88,5.39c-4.55,3.61-8.73,7.72-12.23,12.37-5.27,6.99-8.97,15.27-9.91,23.97,.79-7.28,11.4-17.94,16.82-22.6,7.04-6.05,18.37-13.35,27.39-8,1.43,.85,2.93,1.7,3.3,3.08Z"/><g id="_9me4dm-2" class="jacko-5"><path d="M215.43,215.07c-.09-2.52-.21-5.04-.37-7.56,.28,4.4,3.45,9.83,4.55,14.22,1.28,5.13,2.21,10.36,2.78,15.62,1.02,9.47,2.82,18.27,2.97,27.97,.13,8.32,0,12.18,5.75,18.51,4.61,5.07,10.17,8.77,17.23,8.65,35.15-.57,37.66-43.11,30.82-68.59,3.13,5.08,5.65,10.55,7.46,16.24,1.27,3.96,2.21,8.06,4.06,11.79,7.1,14.27,18.59,8.28,26.15-1.91,11.61-15.64,17.52-35.42,16.41-54.87,1.61,28.26-2.54,58.26-17.26,83.08-6.89,11.63-17.79,17.47-30.97,19.27-2.3,.31-3.69,1.11-4.86,3.28-12.85,23.95-38.29,32.64-63.31,21.78-.78-.34-1.6-.59-1.51-.56-6.46,4.68-12.07,9.44-18.32,13.12-17.84,10.48-35.26,8.51-51.4-3.7-5.39-4.07-9.58-4.95-16.33-2.71-22.68,7.55-42.62,2.22-59.18-15.3-1.4-1.48-3.63-2.47-5.65-3.04C17.27,297.22-.01,241.58,0,197.32c0-14.77,2.32-32.65,6.89-46.95-.86,4.1,.27,11.91,.55,15.82,2.55,36.13,10.39,71.5,37.47,96.6,1.11,1.03,2.26,2.02,3.44,2.96,2.77,2.19,5.98,4.19,9.51,4.16,10.38-.1,7.78-20.23,7.39-26.71-.48-7.94-.12-16.34,3.96-23.18-.7,19.82-.22,40.36,12.63,56.5,5.85,7.35,13.66,13.16,22.4,16.63,7.37,2.93,17.2,7.16,22.82-.88,3.94-5.63,1.24-12.42,.25-18.55-4.38-26.92-6.68-54.38-2.92-81.51-.21,18.75,2.24,37.12,7.11,55.18,3.65,13.51,8.4,29,16.99,40.26,8.68,11.36,20.69,16.45,34.55,14.79,7.75-.93,15.05-4.87,20.3-10.62,8.72-9.57,9.2-27.24,10.62-39.67,1.41-12.3,1.91-24.7,1.49-37.07Z"/></g><path class="jacko-4" d="M257.87,14.63c-6.37-1.45-12.38-4.27-18.78-5.6-5.68-1.18-12.3-1.48-18.73-.8-1.8-1.61-3.88-3.1-6.28-4.56-9.37-5.71-21.8-4.3-31.36,1.09-9.56,5.38-16.43,11.69-22.69,20.69-8,11.49-15.01,28.94-23.4,39.98-7.92,10.4-23.91,16.21-36.56,19.61,9.39,.71,21.78,1,30.55-2.21,4.51-1.65,14.02-6.38,19.66-5.58,3.36,.48,4.1,8.41,5.08,11.7,1.58,5.33,2.33,12.94,4.27,18.15,2.5-7.93,5-15.87,7.5-23.8,.79-2.49,1.71-5.17,3.86-6.66,5.83-4.01,16.32,.4,22.74,.81,4.32,.28,8.66,.19,12.97-.27,3.42-.36,8.38-1.08,11.16-2.05-9.19-.63-19.85-4.53-27.94-9.28-5.93-3.48-8.87-11.23-9.45-17.51-1.25-13.46,6.7-35.8,22.88-35.28-2.47,1.33-4.63,2.93-6.33,4.81-9.9,10.38-8.37,30.27,8.68,33.14,6.55,1.1,13.43-1.99,17.58-7.17,4.16-5.18,5.75-12.12,5.2-18.74-.19-2.36-.6-4.47-1.21-6.4,2.13-.11,4.21-.11,6.09,.04,7.68,.61,15.27,2.44,22.97,2.27,7.7-.17,15.91-2.76,20.32-9.07-5.16,4.01-12.4,4.14-18.78,2.68Zm-43.36,21.29c-1.76,1.4-4.07,2.27-6.29,1.87-2.82-.51-4.3-2.75-4.45-5.27,.26-5.36,2.79-7.46,4.03-8.59,1.49-1.36,4.32-2.54,7.73-3.44,3.4,4.96,4.15,11.31-1.03,15.43Z"/><path class="jacko-3" d="M274.25,120.42c2.59,15.32,1.03,31.82-2.06,45.8-3.56,16.06-14.71,31.56-30.74,35.25-9.11,2.1-20.03,.27-28.58-3.52s-13.3-8.54-19.95-15.12c0,0,21.2-12.34,40.54-27.49,20.53-16.09,35.2-28.5,40.79-34.92Z"/><path class="jacko-2" d="M274.25,120.42c2.59,15.32,1.03,31.82-2.06,45.79-3.56,16.06-14.71,31.56-30.74,35.25-3.56,.82-7.22,1-10.79,.8-2.76-.15-5.64-.52-8.4-1.21,18.39-2.37,27.06-10.58,33.9-23.19,5.32-9.81,5.52-28.94,6.15-46.2,1.91-1.32,8.65-7.78,11.94-11.25Z"/><path class="jacko-3" d="M49.19,127.93c-.94,15.51,2.35,31.75,6.91,45.32,5.24,15.59,17.97,29.82,34.31,31.79,9.28,1.12,19.94-1.86,28.04-6.53,8.1-4.67,12.32-9.91,18.24-17.15,0,0-22.4-10.01-43.23-23.03-22.12-13.82-38.03-24.6-44.27-30.39Z"/><polygon class="jacko-3" points="38.76 213.97 67.31 270.86 84.32 258.92 95.51 282.65 110.07 271.7 122.13 293.63 141.63 278.73 155.47 302.52 171.73 282.71 185.99 300.83 196.97 282.95 212.93 296.05 218.76 277.2 235.54 287.24 242.68 263.77 261.08 274.33 266.01 246.27 282.98 251.22 293.44 205.98 271.49 233.38 250.59 225.05 247.38 248.1 226.54 233.93 219.11 258.59 204.07 242.76 189.91 263.07 174.83 244.72 158.83 259.99 145.42 242.2 130.03 256.43 118.66 236.54 101.05 250.86 83.61 229.98 71.17 246.09 38.76 213.97"/><polygon class="jacko-3" points="167.75 189.6 150.75 223.31 188.41 221.3 167.75 189.6"/><path class="jacko-2" d="M49.19,127.93c-.96,15.5,2.25,31.75,6.8,45.32,5.23,15.6,17.95,29.83,34.28,31.82,3.62,.44,7.28,.23,10.82-.34,2.72-.44,5.55-1.11,8.22-2.09-19.1-1.53-28.51-8.9-36.64-20.72-6.32-9.19-8.05-26.97-10.49-44.07-1.96-1.28-9.35-6.82-12.99-9.93Z"/><polygon class="jacko-2" points="167.75 189.6 150.75 223.31 177.49 221.88 160.06 219.73 171.21 194.92 167.75 189.6"/><polygon class="jacko-2" points="67.31 270.86 38.76 213.97 56.64 231.68 71.8 259.41 87.34 250.28 99.01 275.27 113.38 265.39 125.65 286.79 143.16 273.02 156.03 294.12 171.21 276.61 184.46 293.37 194.48 276.47 207.65 287.99 214.24 270.03 228.75 280.06 237.58 257.16 254.04 266.6 259.58 240.7 276.63 245.49 283.85 217.95 293.44 205.98 282.98 251.22 266.01 246.27 261.08 274.33 242.68 263.77 235.54 287.24 218.76 277.2 212.93 296.05 196.97 282.95 185.99 300.83 171.73 282.71 155.47 302.52 141.63 278.73 122.13 293.63 110.07 271.7 95.51 282.65 84.32 258.92 67.31 270.86"/><polygon class="jacko-2" points="71.17 246.09 76.02 246.14 85.82 232.63 83.61 229.98 71.17 246.09"/><polygon class="jacko-2" points="101.05 250.86 118.66 236.54 120.28 239.38 106.4 250.48 101.05 250.86"/><polygon class="jacko-2" points="130.03 256.43 145.42 242.2 147.22 244.59 134.89 255.96 130.03 256.43"/><polygon class="jacko-2" points="158.83 259.99 161.76 259.99 174.74 248.25 186.51 262.72 189.91 263.07 174.83 244.72 158.83 259.99"/><polygon class="jacko-2" points="204.07 242.76 202.11 245.58 214.67 258.54 219.11 258.59 204.07 242.76"/><polygon class="jacko-2" points="226.54 233.93 225.55 237.21 243.51 248.68 247.38 248.1 226.54 233.93"/><polygon class="jacko-2" points="250.59 225.05 250.15 228.2 266.01 234.23 271.49 233.38 250.59 225.05"/></g></g></g></g></svg>
