<?xml version="1.0" encoding="UTF-8"?><svg id="Layer_2" xmlns="http://www.w3.org/2000/svg"><defs><style>.left-1{fill:none;stroke:#b4b6c8;stroke-linecap:round;stroke-miterlimit:10;stroke-width:14px;}.left-2{fill:#f9ed32;}.left-3{fill:#ea86bf;}.left-4{fill:#fff;opacity:.3;}</style></defs><g id="Left"><g id="Left-Wand"><line class="left-1" x1="62.93" y1="88.51" x2="142.9" y2="244.18"/><path class="left-3" d="M95.84,103.63l-21.12,.13c-2.79,.02-5.4,1.41-6.96,3.72l-11.86,17.47c-3.95,5.82-12.85,4.58-15.07-2.09l-6.65-20.04c-.88-2.65-3.01-4.7-5.69-5.47l-20.28-5.88c-6.75-1.96-8.33-10.81-2.67-14.98l17.01-12.52c2.25-1.66,3.54-4.31,3.45-7.1l-.67-21.11c-.22-7.03,7.71-11.26,13.42-7.17l17.16,12.3c2.27,1.63,5.19,2.03,7.82,1.09l19.87-7.16c6.61-2.39,13.09,3.85,10.96,10.55l-6.4,20.13c-.85,2.66-.33,5.57,1.38,7.77l12.95,16.68c4.31,5.55,.38,13.64-6.65,13.69Z"/><polygon class="left-4" points="36.85 44.33 55.42 68.36 78.83 49.02 61.72 74.1 87.34 90.39 58.2 81.87 50.63 111.27 49.73 80.92 19.42 82.81 48.01 72.57 36.85 44.33"/><path class="left-2" d="M61.21,36.64c-1.27-13.8-3.71-16.25-17.39-17.42-.83-.07-.84-1.29,0-1.36,13.69-1.3,16.17-3.72,17.4-17.23,.08-.83,1.29-.83,1.36,0,1.2,13.57,3.67,16,17.39,17.26,.83,.08,.83,1.29,0,1.36-13.76,1.21-16.2,3.65-17.4,17.39-.07,.83-1.29,.83-1.36,0Z"/><path class="left-2" d="M82.83,44.43c-.9-9.72-2.61-11.45-12.25-12.27-.58-.05-.59-.91,0-.96,9.64-.91,11.39-2.62,12.26-12.14,.05-.58,.91-.58,.96,0,.85,9.56,2.59,11.27,12.25,12.16,.58,.05,.58,.91,0,.96-9.69,.85-11.41,2.57-12.26,12.25-.05,.58-.91,.59-.96,0Z"/><path class="left-2" d="M12.69,137.11c-.9-9.72-2.61-11.45-12.25-12.27-.58-.05-.59-.91,0-.96,9.64-.91,11.39-2.62,12.26-12.14,.05-.58,.91-.58,.96,0,.85,9.56,2.59,11.27,12.25,12.16,.58,.05,.58,.91,0,.96-9.69,.85-11.41,2.57-12.26,12.25-.05,.58-.91,.59-.96,0Z"/><path class="left-2" d="M113.59,100.13c-.9-9.72-2.61-11.45-12.25-12.27-.58-.05-.59-.91,0-.96,9.64-.91,11.39-2.62,12.26-12.14,.05-.58,.91-.58,.96,0,.85,9.56,2.59,11.27,12.25,12.16,.58,.05,.58,.91,0,.96-9.69,.85-11.41,2.57-12.26,12.25-.05,.58-.91,.59-.96,0Z"/></g></g></svg>
