<?xml version="1.0" encoding="UTF-8"?><svg id="Layer_2" xmlns="http://www.w3.org/2000/svg"><defs><style>.fan-1{fill:#ed1c24;}.fan-2{fill:#a25b15;}.fan-3{fill:#b56c2d;}.fan-4{fill:#9f5711;}.fan-5{fill:#bb7133;}.fan-6{fill:#b86e2f;}.fan-7{fill:#ab6422;}.fan-8{fill:#a8601e;}.fan-9{fill:#a55d1a;}.fan-10{fill:#be7337;}.fan-11{fill:#be1e2d;}.fan-12{fill:#c1763a;}.fan-13{fill:#ca7e45;}.fan-14{fill:#c77c42;}.fan-15{fill:#c4793e;}.fan-16{fill:#ae6626;}.fan-17{fill:#b1692a;}.fan-18{fill:#6d6e71;}.fan-19{stroke-width:4.68px;}.fan-19,.fan-20{fill:none;stroke:#be1e2d;stroke-miterlimit:10;}.fan-20{stroke-linecap:round;stroke-width:2px;}</style></defs><g id="Left"><g id="Left-Fan"><rect class="fan-4" x="129.48" y="141.58" width="7.2" height="224.49" rx="3.6" ry="3.6" transform="translate(258.91 -3.68) rotate(53.71)"/><polygon class="fan-11" points="133.85 258.58 42.48 326.49 38.41 308.42 132.03 250.6 133.85 258.58"/><polygon class="fan-1" points="38.41 308.42 24.29 298.52 125.54 246.47 132.03 250.6 38.41 308.42"/><rect class="fan-2" x="121.98" y="129.42" width="7.2" height="224.49" rx="3.6" ry="3.6" transform="translate(284.39 20.42) rotate(63.13)"/><polygon class="fan-11" points="125.55 246.48 24.3 298.52 23.24 280.02 125.06 238.31 125.55 246.48"/><polygon class="fan-1" points="23.24 280.02 10.94 267.95 119.34 233.18 125.06 238.31 23.24 280.02"/><rect class="fan-9" x="116.55" y="116.16" width="7.2" height="224.49" rx="3.6" ry="3.6" transform="translate(302.09 45.37) rotate(72.58)"/><polygon class="fan-11" points="119.34 233.15 10.91 267.86 12.91 249.44 120.19 225.01 119.34 233.15"/><polygon class="fan-1" points="12.91 249.44 2.75 235.51 115.39 219.01 120.19 225.01 12.91 249.44"/><rect class="fan-8" x="113.39" y="102.27" width="7.2" height="224.49" rx="3.6" ry="3.6" transform="translate(313.03 68.68) rotate(81.96)"/><polygon class="fan-11" points="115.41 219.07 2.78 235.65 7.75 217.8 117.58 211.18 115.41 219.07"/><polygon class="fan-1" points="7.75 217.8 0 202.39 113.83 204.47 117.58 211.18 7.75 217.8"/><rect class="fan-7" x="112.53" y="88.03" width="7.2" height="224.49" rx="3.6" ry="3.6" transform="translate(319.11 88.95) rotate(91.36)"/><polygon class="fan-11" points="113.83 204.51 0 202.46 7.83 185.67 117.26 197.08 113.83 204.51"/><polygon class="fan-1" points="7.83 185.67 2.7 169.21 114.65 189.85 117.26 197.08 7.83 185.67"/><rect class="fan-16" x="114.01" y="73.86" width="7.2" height="224.49" rx="3.6" ry="3.6" transform="translate(322.39 105.29) rotate(100.75)"/><polygon class="fan-11" points="114.65 189.91 2.68 169.31 13.14 154.02 119.25 183.14 114.65 189.91"/><polygon class="fan-1" points="13.14 154.02 10.77 136.94 117.85 175.58 119.25 183.14 13.14 154.02"/><rect class="fan-17" x="117.76" y="60.17" width="7.2" height="224.49" rx="3.6" ry="3.6" transform="translate(324.99 117.74) rotate(110.11)"/><polygon class="fan-11" points="117.83 175.68 10.7 137.15 23.5 123.76 123.46 169.75 117.83 175.68"/><polygon class="fan-1" points="23.5 123.76 23.94 106.52 123.31 162.06 123.46 169.75 23.5 123.76"/><rect class="fan-3" x="123.72" y="47.21" width="7.2" height="224.49" rx="3.6" ry="3.6" transform="translate(328.81 127.21) rotate(119.51)"/><polygon class="fan-11" points="123.3 162.1 23.91 106.59 38.73 95.47 129.83 157.17 123.3 162.1"/><polygon class="fan-1" points="38.73 95.47 41.97 78.54 130.94 149.57 129.83 157.17 38.73 95.47"/><path class="fan-19" d="M194.87,361.03c-7.75-16.85-7.21-35.7-3.65-53.47s9.97-34.99,13.68-52.74c3.71-17.74,4.57-36.55-2.76-53.54,11.4,7.95,18.61,21.98,20.87,34.53s1.23,25.31,1.11,37.99c-.24,25.18,3.58,51.45,19.32,72.71"/><rect class="fan-6" x="131.73" y="35.4" width="7.2" height="224.49" rx="3.6" ry="3.6" transform="translate(335.21 135.11) rotate(128.92)"/><polygon class="fan-11" points="130.92 149.6 41.94 78.59 58.38 70.04 138.17 145.8 130.92 149.6"/><polygon class="fan-1" points="58.38 70.04 64.34 53.87 140.51 138.48 138.17 145.8 58.38 70.04"/><rect class="fan-5" x="141.52" y="25.07" width="7.2" height="224.49" rx="3.6" ry="3.6" transform="translate(344.83 143.31) rotate(138.3)"/><polygon class="fan-11" points="140.46 138.53 64.24 53.97 81.85 48.22 148.23 135.97 140.46 138.53"/><polygon class="fan-1" points="81.85 48.22 90.37 33.23 151.73 129.12 148.23 135.97 81.85 48.22"/><rect class="fan-10" x="152.92" y="16.46" width="7.2" height="224.49" rx="3.6" ry="3.6" transform="translate(357.59 153.91) rotate(147.72)"/><polygon class="fan-11" points="151.73 129.13 90.37 33.24 108.68 30.44 159.81 127.87 151.73 129.13"/><polygon class="fan-1" points="108.68 30.44 119.55 17.05 164.38 121.7 159.81 127.87 108.68 30.44"/><rect class="fan-12" x="165.57" y="9.82" width="7.2" height="224.49" rx="3.6" ry="3.6" transform="translate(372.48 168.8) rotate(157.13)"/><polygon class="fan-11" points="164.37 121.71 119.53 17.07 138.05 17.31 172.55 121.79 164.37 121.71"/><polygon class="fan-1" points="138.05 17.31 150.96 5.87 178.07 116.44 172.55 121.79 138.05 17.31"/><rect class="fan-15" x="179.06" y="5.36" width="7.2" height="224.49" rx="3.6" ry="3.6" transform="translate(387.73 189.31) rotate(166.5)"/><polygon class="fan-11" points="177.98 116.47 150.76 5.93 169 9.18 186.04 117.88 177.98 116.47"/><polygon class="fan-1" points="169 9.18 183.59 0 192.36 113.51 186.04 117.88 169 9.18"/><rect class="fan-14" x="193.05" y="3.16" width="7.2" height="224.49" rx="3.6" ry="3.6" transform="translate(401.17 216.22) rotate(175.83)"/><polygon class="fan-11" points="192.22 113.53 183.29 .04 200.76 6.2 199.94 116.23 192.22 113.53"/><polygon class="fan-1" points="200.76 6.2 216.11 4.98 210.98 110.99 199.94 116.23 200.76 6.2"/><rect class="fan-13" x="203.62" y="1.08" width="7.2" height="226.47" rx="3.6" ry="3.6" transform="translate(408.67 238.5) rotate(-177.23)"/><circle class="fan-18" cx="202.95" cy="202.52" r="2.17"/><circle class="fan-11" cx="193.36" cy="358.1" r="5.2"/><circle class="fan-11" cx="241.95" cy="345.11" r="5.2"/><path class="fan-20" d="M191.12,356.95c-4.41,14.37-4.46,25.03-3.62,36.45"/><path class="fan-20" d="M193.68,358.81c-1.73,11.51-1.57,23.3,.48,34.76"/><path class="fan-20" d="M190.66,361.11c-1.08,14.49-.27,17.7,.16,32.23"/><path class="fan-20" d="M195.95,361.84c2.26,9.39,3.43,21.31,3.48,30.97"/><path class="fan-20" d="M195.88,358.81c4.61,9.76,7.05,22.79,7.1,33.58"/><path class="fan-20" d="M193.21,358.81c1.95,12.29,2.74,22.47,3.62,34.24"/><path class="fan-20" d="M239.59,344.35c-3.14,11.4-5.15,23.42-3.69,35.16"/><path class="fan-20" d="M243.05,345.51l.33,34.45"/><path class="fan-20" d="M239.9,347.43c-2.25,11.75-1.99,20.37-1.46,32.32"/><path class="fan-20" d="M243.44,346.82c4.61,9.44,6.68,20.11,5.94,30.59"/><path class="fan-20" d="M241.62,346.34c-1.39,12.01-2.18,21.95-.09,33.86"/><path class="fan-20" d="M244.67,345.89c4.52,9.72,7.01,20.37,7.26,31.09"/><path class="fan-20" d="M243.55,346.82c1.74,10.3,3.54,21.92,3.11,32.36"/><path class="fan-20" d="M192.29,359.63c-2.91,8.6-1.54,17.98-.15,26.95"/><path class="fan-20" d="M194.11,357.23c2.44,9.75,3.39,19.87,2.81,29.91"/></g></g></svg>
