<?xml version="1.0" encoding="UTF-8"?><svg xmlns="http://www.w3.org/2000/svg"><defs><style>.skull-1{fill:#e9ebf9;}.skull-2{fill:#494c67;}.skull-3{fill:#b4b6c8;}.skull-3,.skull-4{mix-blend-mode:multiply;}.skull-4{fill:#0a0c1b;opacity:.1;}.skull-5{isolation:isolate;}</style></defs><g class="skull-5"><g id="Layer_2"><g id="Left"><g id="Left-Skull"><path class="skull-1" d="M60.6,14.14C111.66-7.86,176.6-9.91,209.96,50.1c.03,.06,.06,.11,.09,.17,2.31,4.58,4.22,9.36,5.7,14.27,6.46,21.39,4.43,43.3-4.13,62.14-3.23,7.12-3.93,15.12-1.72,22.62l2.89,9.76c2.76,9.32-2.53,19.49-11.9,22.08-7.98,2.2-16.24-1.56-19.96-8.65-.17-.33-.67-.17-.63,.2,.74,8.07-4.28,15.81-12.35,18.2-8.08,2.39-16.51-1.37-20.28-8.56-.17-.33-.67-.19-.63,.19,.75,8.22-4.61,15.92-12.96,18.39-10.78,3.19-18.75-4.36-20.98-12.44-1.19,.41-2.39,.79-3.6,1.15-47.63,14.1-91.02-12.86-105.12-60.5C-3.86,101.25-.93,71.42,17.1,48.63c11.57-14.63,26.42-27.13,43.5-34.49Z"/><path class="skull-4" d="M21,43.93c-6.56,12.08-4.57,29.89-4.39,43.09,.23,17.72,6.82,35.28,17.04,49.63,10.54,14.8,24.65,24.41,41.52,30.76,7.84,2.95,16.87,6.21,25.38,5.89,2.16-.08,5.6-1.14,7.55,0,.68,.4,1.17,1.05,1.63,1.7,2.56,3.6,3.89,6.56,5.64,10.62,2.46,5.71,10.29,9.11,15.36,8.45,5.25-.68,8.76-3.75,10.38-8.71,2.01-6.12,3.57-12.74,2.84-19.22,.59,3.67,2.05,7.19,4.23,10.2,1.85,2.54,5.52,5.34,8.43,6.51,4.52,1.82,10.19,1.02,14.05-1.9,2.11-1.59,3.73-3.8,4.68-6.27,1.23-3.21,2.45-6.14,2.6-9.66,.13-3.02-.24-6.05-.62-9.05,.55,4.32,2.74,10.37,6.11,13.31,3.11,2.71,7.08,6.3,11.4,6.64,5.65,.44,11.37-3.09,13.9-8.11,2.12-4.21,2.33-14.65,2.26-14.89,1.81,6.12,3.88,11.36,1.55,17.08-2.51,6.15-5.97,9.46-11.63,11.12-7.98,2.2-16.24-1.56-19.96-8.65-.17-.33-.67-.17-.63,.2,.74,8.07-4.28,15.81-12.35,18.2-8.08,2.39-16.51-1.37-20.28-8.56-.17-.33-.67-.19-.63,.19,.75,8.22-4.61,15.92-12.96,18.39-10.78,3.19-18.75-4.36-20.98-12.44-1.19,.41-2.39,.79-3.6,1.15-47.63,14.1-91.02-12.86-105.12-60.5C.15,114.8-1.26,99.53,1.23,84.76c2.24-13.28,8.37-28.94,19.77-40.83Z"/><path class="skull-3" d="M108.76,172.49c-.24-.86-.5-1.76-1.11-2.42-1.33-1.44-3.62-1.14-5.57-.93-3.5,.39-7.13,.13-10.4-1.19s-6.15-3.77-7.59-6.99c-.42,3.49,1.36,7.02,4.11,9.21s6.32,3.15,9.83,3.21c1.54,.03,3.24-.06,4.44,.91,.78,.63,1.2,1.59,1.57,2.51,1.96,4.91,4.03,13.19,4.07,13.22,0,0,3.46-.98,5-1.55-.93-2.85-3.47-12.89-4.34-15.98Z"/><path class="skull-2" d="M125.33,103.92c-.05,5.31-1.03,10.3-3.25,14.06-10.46,17.71-43.5,15.78-44.87-7.15-.65-10.99,3.78-22.48,11.59-30.24,7.59-7.53,22.09-13.71,29.55-2.68,4.17,6.16,7.06,16.58,6.97,26.01Z"/><path class="skull-2" d="M201.05,67c-7.93-8.75-25.29-16.94-36.47-9.87-9.12,5.76-5.63,17.33-3.16,25.38,1.99,6.45,4.81,12.86,10.16,17.23,14.01,11.42,41.4,4.6,37.3-16.84-1.21-6.3-3.97-11.63-7.83-15.9Z"/><path class="skull-2" d="M164.38,115.67c-1.02-.91-2.1-1.75-3.17-2.51-3.22-2.3-7.5-5.23-11.65-3.88-1.74,.57-3.13,1.89-4.3,3.3-3.14,3.79-6.13,8.73-6.8,13.59-.67,4.77,.81,10.91,6.89,11.51,2.39,.24,5.06-.76,6.74-2.49,.64-.67,3.59-5.03,2.78-5.89,1.69,1.8,4.51,3.89,6.97,4.08,2.47,.19,4.91-1.26,6.37-3.2,1.46-1.96,2.11-4.75,1.37-7.12-.91-2.9-2.9-5.35-5.19-7.4Z"/><path class="skull-3" d="M59.98,46.49c-.04,2.76-.7,5.51-2.1,7.89-5.57,9.5-15.92,4.26-23.77,7.56-3.73,1.57-6.4,4.86-8.91,8.03l-2.41,3.04c-.75,.95,.55,2.15,1.44,1.32l1.47-1.38c3.15-2.97,6.43-6.02,10.53-7.43,3.91-1.35,8.18-1.07,12.31-.78,.71,.05,1.49,.14,1.95,.68,.38,.45,.42,1.08,.44,1.67,.16,4.88-.19,9.85,1.03,14.58,.92,3.56,2.71,7.11,3.87,10.64,.39,1.18,2.17,.69,1.88-.53-.27-1.15-.62-2.28-.97-3.35-1.01-3.07-2.01-6.07-2.76-9.61-.51-2.45-.54-5,.11-7.42,1.13-4.21,2.96-4.85,4.78-8.04,.28-.5,.95-1.87,1.15-2.4,2.89-7.68,3.03-17.9-.2-26.55-.45-1.2-2.25-.69-1.97,.56,.96,4.24,2.17,7.17,2.11,11.54Z"/></g></g></g></g></svg>
