<?xml version="1.0" encoding="UTF-8"?><svg xmlns="http://www.w3.org/2000/svg"><defs><style>.syringe-1{fill:#e9ebf9;}.syringe-2{fill:#b4b6c8;}.syringe-3{fill:#9ea1b5;}.syringe-4{fill:#be1e2d;}.syringe-5{isolation:isolate;}.syringe-6{mix-blend-mode:multiply;opacity:.18;}.syringe-7{fill:none;stroke:#e9ebf9;stroke-miterlimit:10;stroke-width:2.44px;}</style></defs><g class="syringe-5"><g id="Layer_2"><g id="Left"><g id="Left-Syringe"><path class="syringe-3" d="M19.7,26.06h8.44c2.42,0,4.38,1.96,4.38,4.38v18.13H15.32V30.43c0-2.42,1.96-4.38,4.38-4.38Z" transform="translate(-15.15 16.4) rotate(-29.18)"/><path class="syringe-1" d="M93.74,124.35l-32.35,18.06L13.4,56.48h0c7-11.14,19.19-17.94,32.35-18.06h0s47.99,85.94,47.99,85.94Z"/><path class="syringe-2" d="M90.15,126.35l-25.17,14.06L18.61,57.37h0c5.45-8.67,14.93-13.96,25.17-14.06h0s46.37,83.03,46.37,83.03Z"/><path class="syringe-4" d="M66.82,84.56l-25.17,14.06L18.61,57.37h0c5.45-8.67,14.93-13.96,25.17-14.06h0s23.03,41.24,23.03,41.24Z"/><rect class="syringe-3" x="56.17" y="132.76" width="47.56" height="9.79" rx="1.68" ry="1.68" transform="translate(-56.97 56.45) rotate(-29.18)"/><rect class="syringe-3" x="74.2" y="154.66" width="35.74" height="9.41" rx="4.7" ry="4.7" transform="translate(-66.01 65.12) rotate(-29.18)"/><rect class="syringe-3" x="77.47" y="140.96" width="17.19" height="15.26" transform="translate(-61.53 60.82) rotate(-29.18)"/><rect class="syringe-6" x="75.03" y="141.6" width="17.19" height="5.28" transform="translate(-59.71 59.08) rotate(-29.18)"/><polygon class="syringe-3" points="22.01 28.38 17.31 31 0 0 9.64 6.22 22.01 28.38"/><line class="syringe-7" x1="37.85" y1="56.74" x2="48.89" y2="50.58"/><line class="syringe-7" x1="45.39" y1="70.24" x2="56.43" y2="64.07"/><line class="syringe-7" x1="52.93" y1="83.74" x2="63.97" y2="77.57"/><line class="syringe-7" x1="60.46" y1="97.23" x2="71.5" y2="91.07"/><line class="syringe-7" x1="68" y1="110.73" x2="79.04" y2="104.56"/><line class="syringe-7" x1="75.54" y1="124.22" x2="86.58" y2="118.06"/></g></g></g></g></svg>
