<?xml version="1.0" encoding="UTF-8"?><svg id="Layer_2" xmlns="http://www.w3.org/2000/svg"><defs><style>.fishing-1{fill:#fff;}.fishing-2{fill:#85999e;}.fishing-3{fill:#bcbec0;}.fishing-4{fill:#bcc5c9;}.fishing-5{fill:#1c75bc;}.fishing-6{fill:#6d6e71;}.fishing-7{fill:#808285;}.fishing-8{fill:#58595b;}.fishing-9{stroke-miterlimit:10;}.fishing-9,.fishing-10,.fishing-11{fill:none;stroke-linecap:round;}.fishing-9,.fishing-11{stroke:#a1b0b5;stroke-width:7px;}.fishing-10{stroke:#d1d3d4;stroke-width:4px;}.fishing-10,.fishing-11{stroke-linejoin:round;}</style></defs><g id="Layer_1-2"><g id="Left-Fishing"><path class="fishing-3" d="M16.42,3.36c112.89,165.12,200.01,348.36,252.41,541.78,1.95,7.2-2.31,14.61-9.51,16.56-7.2,1.95-14.61-2.31-16.56-9.51C194.84,360.27,112.19,177.34,3.75,11.85-1.37,3.59,10.16-4.86,16.42,3.36h0Z"/>
  <path class="fishing-5" d="M311.92,653.06l-36.83,11.44c-4.51,1.4-9.38-1.48-10.77-6.37l-37.93-133.44c-1.34-4.72,1.05-9.55,5.4-10.9l28.9-8.98c4.31-1.34,8.99,1.23,10.59,5.82l45.86,130.98c1.7,4.84-.68,10.04-5.22,11.46Z"/>
  <g><circle class="fishing-3" cx="198.81" cy="538.64" r="45.89"/>
  <path class="fishing-7" d="M191.22,566.23c-.63-5.77,3.55-10.95,9.32-11.56h0c5.76-.62,10.94,3.56,11.55,9.32h0c.62,5.76-3.56,10.94-9.32,11.56h0c-1.12,.12-2.21,.05-3.24-.16h0c-4.35-.9-7.81-4.51-8.31-9.16Zm-26.26-12.38h0c-2.38-5.29-.02-11.5,5.27-13.88h0c5.29-2.38,11.5-.02,13.88,5.27h0c2.38,5.28,.02,11.5-5.26,13.88h0c-2.1,.94-4.34,1.14-6.43,.7h0c-3.19-.66-6.02-2.78-7.47-5.97Zm57.72,.56c-5.68-1.19-9.3-6.77-8.11-12.44h0v-.03h0v-.04h0c1.17-5.68,6.73-9.33,12.41-8.16h0c5.68,1.17,9.33,6.73,8.16,12.41h0v.04h0l-.02,.12h0c-1.19,5.66-6.74,9.28-12.4,8.11h-.04Zm-49.53-28.43c-3.89-4.3-3.57-10.94,.74-14.83h0c4.3-3.9,10.94-3.57,14.83,.73h0c3.89,4.3,3.56,10.94-.74,14.84h0c-2.58,2.34-6.01,3.15-9.17,2.49h0c-2.11-.44-4.1-1.52-5.65-3.23Zm33.66-1.34c-5.03-2.88-6.79-9.29-3.91-14.33h0c2.88-5.03,9.29-6.79,14.33-3.91h0c5.03,2.87,6.78,9.28,3.91,14.33h0c-2.32,4.04-6.91,5.97-11.24,5.08h0c-1.06-.22-2.1-.61-3.09-1.17Z"/>
  <path class="fishing-8" d="M245.99,609.72c-2.72,0-5.4-1.23-7.17-3.56l-47.17-62.08c-3.01-3.96-2.24-9.6,1.72-12.61,3.96-3.01,9.6-2.24,12.61,1.72l47.17,62.08c3.01,3.96,2.24,9.6-1.72,12.61-1.63,1.24-3.54,1.83-5.44,1.83Z"/>
  <path class="fishing-8" d="M232.34,597.46l29.09-22.05c4.26-3.23,10.34-2.39,13.57,1.87l1.47,1.93c3.23,4.26,2.39,10.34-1.87,13.57l-19.56,14.82c-5.5,4.17-13.34,3.09-17.51-2.41l-5.19-7.74Z"/>
</g><path class="fishing-10" d="M228.69,497.82c-33.87-21.56-50.04-73.72-37.19-111.76-43.48-25.78-66.49-81.82-53.7-130.72-40.3-29.15-66.97-77.28-62.79-126.84C26.72,110.11,3.02,54.49,4.75,3.62-.67,149.08-1.62,232.74,36.33,373.28c19.51,72.23,44.66,143.17,57.02,216.96,12.37,73.79,11.13,152.28-20.51,220.09"/>
  <g><path class="fishing-2" d="M77.38,870.99c7.55,13.89,12.78,28.62,15.56,43.56,2.29,12.3,4.48,26.04,2.85,38.52-.59,4.51-3.05,9.04-7.21,10.85-8.53,3.71-30.11,1.79-35.75-6.32-.84-1.2-4.26-8.08-3.54-9.35-2.26,3.96-6.26,7.52-11.61,8.1-5.35,.58-10.84-.76-16.1-2.22-5.9-1.64-12.13-3.7-15.91-8.03-5.81-6.65-3.63-15.78-.55-23.26,9.68-23.44,25.61-44.63,46.27-61.54,9.25,2.52,17.43,5.58,25.99,9.68Z"/>
  <path class="fishing-2" d="M150.89,833.51c1.72,5.78,3.15,12.17,.74,17.7-2.62,6.01-9.05,9.35-15.22,11.56-8.01,2.87-16.41,4.65-24.89,5.29-3.8,.28-8.11,.15-10.74-2.6-3.02-3.15-2.46-8.17-1.64-12.45,2.34-12.17,5.21-24.23,8.6-36.14,2.58-9.04,4.73-25.65,13.33-31.22,9.74-6.3,14.49,9.8,17.74,16.57,4.85,10.09,8.89,20.57,12.07,31.3Z"/>
  <path class="fishing-9" d="M45.06,888.61c-10.67,18.47-23.76,46.66-23.76,46.66"/>
  <path class="fishing-9" d="M58,895.09c-2.56,12.57-5.12,25.14-7.68,37.71"/>
  <path class="fishing-9" d="M72.02,889.98c2.68,20,4.29,38.58-1.26,58.25"/>
  <path class="fishing-4" d="M126.32,825.55c7.67-30.83,3.61-62.18-9.56-90.39-6.88-14.72-25.49-19.35-38.46-9.56-24.86,18.75-43.12,44.56-50.78,75.38-9.02,36.28-1.81,73.28,17.4,105.04,3.49,5.78,11.05,7.66,16.84,4.19,31.85-19.06,55.55-48.38,64.57-84.66Z"/>
  <path class="fishing-11" d="M46.58,776.92c-2.3,7.4,.22,16.07,6.14,21.08,5.92,5.01,14.88,6.07,21.81,2.58,1.93,6.35,7.65,11.39,14.2,12.5s13.61-1.75,17.54-7.1"/>
  <path class="fishing-11" d="M54.24,823.83c-2.02,6.61,.94,14.4,6.84,18s14.18,2.67,19.13-2.14c1.58,3.64,4.8,6.53,8.59,7.7,3.79,1.17,8.08,.61,11.44-1.5"/>
  <path class="fishing-11" d="M40.95,854.68c-.94,5.91,2.2,12.25,7.47,15.1,5.27,2.84,12.29,1.98,16.72-2.05"/>
  <g><path class="fishing-6" d="M95.92,775.26c-.97,0-1.95-.12-2.91-.36-6.42-1.6-10.34-8.12-8.75-14.54,1.33-5.36,6.11-9.1,11.63-9.1,.97,0,1.95,.12,2.91,.36,3.11,.77,5.73,2.71,7.38,5.46s2.14,5.97,1.36,9.08c-1.33,5.36-6.11,9.1-11.63,9.1Z"/>
  <path class="fishing-1" d="M95.9,753.26h0c.81,0,1.63,.1,2.42,.3,2.59,.64,4.78,2.26,6.15,4.55,1.38,2.29,1.78,4.97,1.14,7.56-1.11,4.47-5.09,7.59-9.69,7.59-.81,0-1.63-.1-2.42-.3-5.35-1.33-8.62-6.76-7.29-12.11,1.11-4.47,5.09-7.59,9.69-7.59m0-4c-6.28,0-11.99,4.25-13.57,10.62-1.87,7.5,2.7,15.09,10.2,16.96,1.13,.28,2.27,.42,3.39,.42,6.28,0,11.99-4.25,13.57-10.62,1.87-7.5-2.7-15.09-10.2-16.96-1.13-.28-2.27-.42-3.39-.42h0Z"/>
</g></g></g></g></svg>
