<?xml version="1.0" encoding="UTF-8"?><svg xmlns="http://www.w3.org/2000/svg"><defs><style>.shield-1{fill:#a8a8a8;}.shield-2{fill:#563717;}.shield-3{opacity:.12;}.shield-3,.shield-4{mix-blend-mode:multiply;}.shield-5{isolation:isolate;}.shield-4{opacity:.18;}</style></defs><g class="shield-5"><g id="Layer_2"><g id="Left"><g id="Left-Shield"><ellipse class="shield-1" cx="131.25" cy="219.46" rx="117.43" ry="220.09" transform="translate(-19.22 12.71) rotate(-5.17)"/><ellipse class="shield-3" cx="131.25" cy="219.46" rx="117.43" ry="220.09" transform="translate(-19.22 12.71) rotate(-5.17)"/><ellipse class="shield-2" cx="118.63" cy="220.6" rx="117.43" ry="220.09" transform="translate(-19.38 11.58) rotate(-5.17)"/><path class="shield-4" d="M196.59,73.59c-1.19-2.16-2.4-4.28-3.63-6.37-7.98-.92-15.95-1.62-23.92-2.13-30.92-1.96-61.69-1.02-92.29,1.24-15.33,1.13-30.63,2.6-45.91,4.2-2.74,.29-5.47,.6-8.2,.89-.66,1.52-1.3,3.05-1.93,4.6,.24-.02,.47-.03,.71-.05,11.42-.78,22.83-1.66,34.23-2.64,25.82-2.22,51.55-6.47,77.5-5.84,21.07,.52,42.38,5.56,63.44,6.07Z"/><path class="shield-4" d="M220.53,131.47c-45.93,7.2-91.98,13.74-138.59,12.62-16-.38-32.05-1.66-48.01-1.5-8.16,.08-16.3,.52-24.37,1.67-1.56,.22-3.86,.21-6.34,.35-.33,2.48-.63,4.97-.91,7.49,13.84,1.01,28.01-.91,41.51-1.06,31.86-.35,63.64-1.84,95.26-5.2,27.41-2.91,54.7-7.23,81.74-13.38-.1-.33-.19-.66-.29-.98Z"/><path class="shield-4" d="M235.3,207.1c-.09-.93-.18-1.87-.27-2.8-11.49,4.57-23.34,7.04-35.36,7.35-14.65,.38-29.49-4.23-44.07-2.97-10.26,.89-20.07,5.4-30.38,6.55-11.01,1.23-22.09,1.73-33.18,1.98-12.17,.28-24.37,.25-36.55,.57-9.71,.25-19.4,.71-29.05,1.72-5.93,.62-11.8,1.92-17.49,4.29-2.6,1.08-4.99,3.38-7.42,5.48,.05,.63,.1,1.27,.16,1.9,.02,.17,.03,.34,.05,.5,24.82-5.98,49.92-9.81,75.2-11.41,13.51-.86,27.08-1.09,40.68-.69,6.09,.18,12.52,1.56,18.35-.28,5.83-1.84,11.73-3.06,17.75-3.53,26.81-2.07,56.42,6.67,81.58-8.67Z"/><path class="shield-4" d="M194.94,290.11c-29.05,1.05-57.37,7.88-86.59,7.92-9.78,.01-19.59-.99-29.38-1.28-8.22-.25-16.72,2.29-24.98,3.04-7.77,.7-15.54,1.42-23.31,2.15-2.38,.22-10.95-.78-15.91,1.08,.54,1.93,1.1,3.85,1.67,5.76,6.52,.82,14.1-1.45,19.9-1.62,8.76-.25,17.51-.56,26.26-.93,23.35-.99,46.69-.32,69.93-4.39,19.22-3.36,38.44-7.28,58-7.03,14.86,.19,29.51-1.73,44.21-3.87,.03-.25,.05-.5,.08-.75-13.24,.53-26.75-.56-39.9-.08Z"/><path class="shield-4" d="M220,356.13c-14.78,6.24-29.72,11.5-45.08,13.62-5.59,.77-11.42-.48-16.85,.84-5.83,1.42-11.58,2.93-17.53,3.44-12.17,1.04-24.5-.26-36.8-1.54-12.27-1.28-24.57-2.62-36.71-1.63-7.4,.6-14.28,3.05-21.11,5.84,.33,.54,.65,1.07,.98,1.6,16.78-2.31,34.22,1.88,51.28,2.25,13.02,.28,25.99-.08,38.92-1.08,6.46-.5,12.91-1.16,19.34-1.98,5.53-.71,11.69,1.02,17.07-.41,14.93-3.95,29.99-7.99,44.33-15.15,.74-1.9,1.46-3.82,2.16-5.78Z"/><path class="shield-1" d="M98.82,1.4C34.23,7.24-9.26,110.11,1.69,231.17c10.94,121.06,72.17,214.47,136.76,208.63,64.59-5.84,108.08-108.71,97.13-229.77C224.64,88.97,163.41-4.44,98.82,1.4Zm39.65,416.69c-.39-.64-.81-1.42-1.36-2.34-4.34-7.23-8.59-14.51-12.89-21.77-2.64,6.54-4.88,13.22-6.78,20.01-.81,2.9-.6,5.34-3.56,5.98-2.21,.48-7.08-2.53-9.11-3.42-9.39-4.09-17.83-10.17-25.32-17.11-23.52-21.81-39.26-50.73-49.75-80.75-5.36-15.33-9.41-31.11-12.46-47.05-1.47-7.65-2.72-15.34-3.72-23.06-.59-4.54-.4-6.26,1.41-10.45,.51-1.19,6-11.61,5.49-12.09-2.66-2.56-8.44-7.45-9.91-10.81-1.25-2.85-.46-6.45-.56-9.55-.25-7.51-.3-15.03-.13-22.55,.37-15.6,1.69-31.2,4.31-46.59,5.13-30.1,15.32-59.93,33.7-84.61,6.46-8.67,14.14-16.59,23.27-22.44,2.98-1.91,6.1-3.6,9.35-5s6.01-3.53,7.33-.1c2.58,6.71,7.29,14.45,9.06,19.04,2.15-6.79,4.6-13.49,7.32-20.07,1.23-2.97,1.68-4.17,4.89-3.81,2.68,.3,5.35,1.04,7.93,1.8,3.97,1.16,7.94,2.53,11.7,4.25,9.98,4.55,18.86,11.31,26.66,18.97,19.76,19.38,33.42,44.64,43.43,70.2,6.98,17.82,12.26,36.29,16.05,55.04,1.58,7.8,5.97,20.43,4.59,28.3-.74,4.24-12.49,11.67-17.91,15.6,2.18,1.13,19.15,10.52,20.36,13.58,3.41,8.65,.69,24.23,.33,33.44-.89,22.74-3.98,45.44-9.84,67.44-6.63,24.92-16.96,50.25-34.46,69.6-6.92,7.65-15.08,14.33-24.47,18.69-2.82,1.31-7.11,4.01-10.26,4.07-2.79,.05-3.63-.68-4.7-2.44Z"/><ellipse class="shield-1" cx="106.01" cy="221.74" rx="30.82" ry="57.77" transform="translate(-19.53 10.44) rotate(-5.17)"/><path class="shield-1" d="M129.46,219.62c-2.47-27.37-15.99-48.67-30.54-48.65v-.06c-.27,.02-.53,.07-.79,.1-.17,0-.35,0-.52,.02-.87,.08-1.71,.24-2.55,.46-20.68,4.31-35.06,27.61-32.66,54.19,2.4,26.57,20.73,46.91,41.85,47.45,.86,.07,1.72,.08,2.59,0,.18-.02,.35-.05,.52-.07,.26-.02,.53-.02,.79-.05v-.06c14.31-2.59,23.79-25.96,21.31-53.33Z"/><path class="shield-3" d="M129.46,219.62c-.85-9.4-3.01-18.81-6.91-27.43-1.64-3.61-3.58-7.11-5.96-10.28-.93-1.24-1.92-2.68-3.03-3.75-.93-.89-2.9-2.54-4.46-3.23,9.28,11.95,10,32.34,7.52,48.1-1.61,10.25-7.62,24.9-16.03,30.96-8.86,6.39-23.12,1.45-31.58-5.46,7.93,14.93,19.66,23.3,35.24,24.61,.86,.07,1.72,.08,2.59,0,.18-.02,.35-.05,.52-.07,.26-.02,.53-.02,.79-.05v-.06c14.31-2.59,23.79-25.96,21.31-53.33Z"/></g></g></g></g></svg>
