<?xml version="1.0" encoding="UTF-8"?>
<svg xmlns="http://www.w3.org/2000/svg" xmlns:xlink="http://www.w3.org/1999/xlink" width="48px" height="px" viewBox="0 0 48 24" version="1.1">
<defs>
<filter id="alpha" filterUnits="objectBoundingBox" x="0%" y="0%" width="100%" height="100%">
  <feColorMatrix type="matrix" in="SourceGraphic" values="0 0 0 0 1 0 0 0 0 1 0 0 0 0 1 0 0 0 1 0"/>
</filter>
<mask id="mask0">
  <g filter="url(#alpha)">
<rect x="0" y="0" width="48" height="24" style="fill:rgb(0%,0%,0%);fill-opacity:0.121569;stroke:none;"/>
  </g>
</mask>
<clipPath id="clip1">
  <rect x="0" y="0" width="48" height="24"/>
</clipPath>
<g id="surface5" clip-path="url(#clip1)">
<path style=" stroke:none;fill-rule:nonzero;fill:rgb(0%,0%,0%);fill-opacity:1;" d="M 7.175781 21.164062 C 17.039062 22.683594 27.082031 20.863281 37.0625 20.847656 C 40.480469 20.847656 44.699219 20.878906 47.746094 19.316406 C 47.839844 20.519531 47.042969 21.058594 45.984375 21.640625 C 43.945312 22.746094 39.113281 23.273438 36.832031 23.449219 C 31.296875 23.878906 28.222656 24.039062 22.667969 23.996094 C 16.269531 23.945312 9.863281 23.367188 3.605469 22.011719 C 2.816406 21.84375 2.007812 21.648438 1.367188 21.164062 C 1.023438 20.902344 0.136719 19.871094 0.542969 19.378906 C 0.859375 18.992188 2.082031 19.839844 2.5 20 C 4 20.582031 5.589844 20.917969 7.175781 21.164062 Z M 7.175781 21.164062 "/>
</g>
</defs>
<g id="surface1">
<use xlink:href="#surface5" mask="url(#mask0)"/>
<path style="fill:none;stroke-width:8;stroke-linecap:round;stroke-linejoin:miter;stroke:rgb(79.215686%,79.607843%,84.705882%);stroke-opacity:1;stroke-miterlimit:10;" d="M 4.433945 60.725444 C 19.195244 66.488076 54.878755 68.35502 72.975659 68.35502 C 110.849717 68.35502 132.394243 66.338721 148.051675 61.970073 " transform="matrix(0.313849,0,0,0.313849,0.139663,0)"/>
<path style="fill:none;stroke-width:6;stroke-linecap:round;stroke-linejoin:round;stroke:rgb(79.215686%,79.607843%,84.705882%);stroke-opacity:1;stroke-miterlimit:4;" d="M 3.027515 60.00356 C 7.47084 44.794194 12.499141 33.356055 22.020552 19.864277 C 33.421353 37.36376 43.117012 51.41562 58.737104 66.338721 C 75.328008 51.41562 85.845122 38.595942 100.444619 19.7896 C 106.77978 28.377539 113.475884 38.085645 120.719624 45.939253 C 127.963364 53.792861 137.186064 60.762783 148.624204 61.098833 " transform="matrix(0.313849,0,0,0.313849,0.139663,0)"/>
<path style="fill:none;stroke-width:6;stroke-linecap:round;stroke-linejoin:round;stroke:rgb(79.215686%,79.607843%,84.705882%);stroke-opacity:1;stroke-miterlimit:4;" d="M 116.612349 41.072754 C 112.330825 50.034082 106.132573 58.049492 99.237329 65.206108 C 88.297041 55.933623 76.672207 20.42436 60.404907 3.024448 C 44.93417 18.395615 35.835933 43.487334 20.962617 62.405693 C 17.054482 54.776118 11.988843 49.025933 10.109453 40.674473 " transform="matrix(0.313849,0,0,0.313849,0.139663,0)"/>
<path style="fill:none;stroke-width:5;stroke-linecap:round;stroke-linejoin:round;stroke:rgb(79.215686%,79.607843%,84.705882%);stroke-opacity:1;stroke-miterlimit:4;" d="M 56.285186 63.451182 C 52.825117 59.09498 49.564189 53.382134 47.435874 48.167139 C 45.295112 42.96459 44.398979 37.015264 45.80541 31.52645 C 46.340601 29.435474 47.274072 27.344497 48.954321 26.099868 C 50.920835 24.656099 53.683911 24.668545 55.749995 25.962959 C 57.816079 27.244927 59.048262 29.373242 59.471436 31.053491 C 60.006626 33.231592 59.172725 35.72085 57.5796 37.201958 C 55.986475 38.683066 53.298076 38.832422 51.84186 37.201958 " transform="matrix(0.313849,0,0,0.313849,0.139663,0)"/>
<path style="fill:none;stroke-width:5;stroke-linecap:round;stroke-linejoin:round;stroke:rgb(79.215686%,79.607843%,84.705882%);stroke-opacity:1;stroke-miterlimit:4;" d="M 63.093306 62.318569 C 66.540928 57.974814 69.814302 53.39458 71.942617 48.167139 C 74.070933 42.952144 74.967065 37.015264 73.573081 31.52645 C 73.025444 29.435474 72.091973 27.344497 70.42417 26.099868 C 68.44521 24.656099 65.69458 24.668545 63.61605 25.962959 C 61.549966 27.244927 60.342676 29.323457 59.894609 31.053491 C 59.346973 33.219146 60.205767 35.72085 61.786445 37.201958 C 63.37957 38.683066 66.067969 38.832422 67.524185 37.201958 " transform="matrix(0.313849,0,0,0.313849,0.139663,0)"/>
<path style="fill:none;stroke-width:5;stroke-linecap:round;stroke-linejoin:round;stroke:rgb(79.215686%,79.607843%,84.705882%);stroke-opacity:1;stroke-miterlimit:4;" d="M 59.844824 26.834199 C 53.683911 18.096904 56.048706 8.662617 60.404907 3.024448 C 65.570117 8.911543 66.279556 19.105054 59.844824 26.834199 Z M 59.844824 26.834199 " transform="matrix(0.313849,0,0,0.313849,0.139663,0)"/>
<path style="fill:none;stroke-width:5;stroke-linecap:round;stroke-linejoin:round;stroke:rgb(79.215686%,79.607843%,84.705882%);stroke-opacity:1;stroke-miterlimit:4;" d="M 57.417798 62.691958 C 55.575747 60.016006 54.729399 56.804863 55.065449 53.668398 C 55.413945 50.54438 57.268442 47.519932 59.645684 45.204922 C 62.184727 47.420361 64.263257 51.278711 64.300596 54.452515 C 64.337935 58.373096 61.935801 61.733594 60.616494 62.828867 " transform="matrix(0.313849,0,0,0.313849,0.139663,0)"/>
<path style="fill:none;stroke-width:5;stroke-linecap:round;stroke-linejoin:round;stroke:rgb(79.215686%,79.607843%,84.705882%);stroke-opacity:1;stroke-miterlimit:4;" d="M 32.114492 60.289824 C 32.064707 60.215146 32.027368 60.165361 31.990029 60.090684 C 29.052705 54.913027 33.234658 48.32894 39.296001 50.494595 C 41.710581 51.365835 43.540186 53.543936 44.224731 56.020747 C 44.822153 58.136616 44.560781 60.625874 43.042334 62.218999 C 41.984399 63.326719 40.453506 63.886802 38.922612 63.949033 C 36.221768 64.06105 33.508477 62.604834 32.102046 60.302271 Z M 32.114492 60.289824 " transform="matrix(0.313849,0,0,0.313849,0.139663,0)"/>
<path style="fill:none;stroke-width:5;stroke-linecap:round;stroke-linejoin:round;stroke:rgb(79.215686%,79.607843%,84.705882%);stroke-opacity:1;stroke-miterlimit:4;" d="M 76.995811 51.863687 C 80.430986 50.382578 85.235254 51.627207 87.139536 54.975259 C 88.073008 56.605723 88.284595 59.09498 87.56271 60.849907 C 86.542114 63.326719 84.152427 65.106538 81.551152 65.766191 C 79.472622 66.288936 77.13272 66.127134 75.402686 64.870059 C 73.884238 63.774785 72.988105 61.945181 72.764072 60.090684 C 72.465361 57.539194 73.398833 54.875688 75.228438 53.05853 C 75.763628 52.535786 76.36105 52.137505 76.995811 51.876133 Z M 76.995811 51.863687 " transform="matrix(0.313849,0,0,0.313849,0.139663,0)"/>
<path style="fill:none;stroke-width:5;stroke-linecap:round;stroke-linejoin:round;stroke:rgb(79.215686%,79.607843%,84.705882%);stroke-opacity:1;stroke-miterlimit:4;" d="M 34.354824 40.612241 C 33.894312 38.33457 31.504624 35.895098 28.455283 35.895098 C 25.928687 35.895098 23.277627 37.687363 22.145015 39.940142 C 21.174204 37.786934 18.436021 36.517412 16.096118 36.79123 C 13.756216 37.065049 11.52833 39.031562 11.105156 41.209663 " transform="matrix(0.313849,0,0,0.313849,0.139663,0)"/>
<path style="fill:none;stroke-width:5;stroke-linecap:round;stroke-linejoin:round;stroke:rgb(79.215686%,79.607843%,84.705882%);stroke-opacity:1;stroke-miterlimit:4;" d="M 22.145015 39.952588 L 21.273774 60.016006 " transform="matrix(0.313849,0,0,0.313849,0.139663,0)"/>
<path style="fill:none;stroke-width:5;stroke-linecap:round;stroke-linejoin:round;stroke:rgb(79.215686%,79.607843%,84.705882%);stroke-opacity:1;stroke-miterlimit:4;" d="M 85.197915 41.495928 C 85.708213 38.098091 89.554116 35.335015 92.454102 35.335015 C 96.237773 35.335015 98.353643 38.172769 99.53604 41.134985 C 100.469512 37.911396 103.705547 35.733296 107.066045 35.58394 C 110.414097 35.434585 113.762148 37.89895 114.981885 41.022969 " transform="matrix(0.313849,0,0,0.313849,0.139663,0)"/>
<path style="fill:none;stroke-width:5;stroke-linecap:round;stroke-linejoin:round;stroke:rgb(79.215686%,79.607843%,84.705882%);stroke-opacity:1;stroke-miterlimit:4;" d="M 99.548486 41.134985 L 99.237329 65.206108 " transform="matrix(0.313849,0,0,0.313849,0.139663,0)"/>
<path style="fill:none;stroke-width:5;stroke-linecap:round;stroke-linejoin:round;stroke:rgb(79.215686%,79.607843%,84.705882%);stroke-opacity:1;stroke-miterlimit:4;" d="M 110.040708 52.560679 C 114.035967 55.834053 116.413208 60.028452 118.952251 64.534009 C 119.499888 59.754634 122.835493 55.012598 126.357793 51.714331 " transform="matrix(0.313849,0,0,0.313849,0.139663,0)"/>
<path style="fill:none;stroke-width:2;stroke-linecap:round;stroke-linejoin:round;stroke:rgb(91.372549%,92.156863%,97.647059%);stroke-opacity:1;stroke-miterlimit:4;" d="M 0.99877 60.464072 C 3.027515 48.56542 14.71458 22.801602 21.709395 17.711069 " transform="matrix(0.313849,0,0,0.313849,0.139663,0)"/>
<path style="fill:none;stroke-width:2;stroke-linecap:round;stroke-linejoin:round;stroke:rgb(91.372549%,92.156863%,97.647059%);stroke-opacity:1;stroke-miterlimit:4;" d="M 22.543296 25.290859 C 23.887495 28.228184 25.555298 31.028599 27.45958 33.629873 C 25.605083 33.555195 23.750586 34.550898 22.792222 36.131577 " transform="matrix(0.313849,0,0,0.313849,0.139663,0)"/>
<path style="fill:none;stroke-width:2;stroke-linecap:round;stroke-linejoin:round;stroke:rgb(91.372549%,92.156863%,97.647059%);stroke-opacity:1;stroke-miterlimit:4;" d="M 19.668203 40.74915 L 19.20769 53.095869 " transform="matrix(0.313849,0,0,0.313849,0.139663,0)"/>
<path style="fill:none;stroke-width:2;stroke-linecap:round;stroke-linejoin:round;stroke:rgb(91.372549%,92.156863%,97.647059%);stroke-opacity:1;stroke-miterlimit:4;" d="M 24.360454 52.896729 L 31.890459 41.184771 " transform="matrix(0.313849,0,0,0.313849,0.139663,0)"/>
<path style="fill:none;stroke-width:2;stroke-linecap:round;stroke-linejoin:round;stroke:rgb(91.372549%,92.156863%,97.647059%);stroke-opacity:1;stroke-miterlimit:4;" d="M 35.537222 34.27708 C 40.416167 26.286563 44.722583 19.540674 49.962471 11.774189 C 52.625977 7.828716 55.774888 3.684102 59.720361 0.995703 " transform="matrix(0.313849,0,0,0.313849,0.139663,0)"/>
<path style="fill:none;stroke-width:2;stroke-linecap:round;stroke-linejoin:round;stroke:rgb(91.372549%,92.156863%,97.647059%);stroke-opacity:1;stroke-miterlimit:4;" d="M 43.29126 33.592534 C 42.532036 37.264189 42.594268 41.110093 43.4904 44.756855 " transform="matrix(0.313849,0,0,0.313849,0.139663,0)"/>
<path style="fill:none;stroke-width:2;stroke-linecap:round;stroke-linejoin:round;stroke:rgb(91.372549%,92.156863%,97.647059%);stroke-opacity:1;stroke-miterlimit:4;" d="M 53.708804 16.055713 C 53.335415 18.34583 53.509663 20.735518 54.206655 22.97585 " transform="matrix(0.313849,0,0,0.313849,0.139663,0)"/>
<path style="fill:none;stroke-width:2;stroke-linecap:round;stroke-linejoin:round;stroke:rgb(91.372549%,92.156863%,97.647059%);stroke-opacity:1;stroke-miterlimit:4;" d="M 59.99418 22.117056 C 62.446099 17.785747 62.707471 12.296934 60.703618 7.754038 " transform="matrix(0.313849,0,0,0.313849,0.139663,0)"/>
<path style="fill:none;stroke-width:2;stroke-linecap:round;stroke-linejoin:round;stroke:rgb(91.372549%,92.156863%,97.647059%);stroke-opacity:1;stroke-miterlimit:4;" d="M 67.101011 16.951846 C 68.295854 18.843682 69.31645 20.835088 70.150352 22.926064 " transform="matrix(0.313849,0,0,0.313849,0.139663,0)"/>
<path style="fill:none;stroke-width:2;stroke-linecap:round;stroke-linejoin:round;stroke:rgb(91.372549%,92.156863%,97.647059%);stroke-opacity:1;stroke-miterlimit:4;" d="M 35.972842 44.731963 C 36.333784 45.665435 36.881421 46.549121 37.565967 47.295898 " transform="matrix(0.313849,0,0,0.313849,0.139663,0)"/>
<path style="fill:none;stroke-width:2;stroke-linecap:round;stroke-linejoin:round;stroke:rgb(91.372549%,92.156863%,97.647059%);stroke-opacity:1;stroke-miterlimit:4;" d="M 38.474546 51.925918 C 39.445356 51.925918 42.768516 53.743076 42.768516 57.004004 C 42.768516 60.849907 40.503291 61.84561 39.071968 62.318569 " transform="matrix(0.313849,0,0,0.313849,0.139663,0)"/>
<path style="fill:none;stroke-width:2;stroke-linecap:round;stroke-linejoin:round;stroke:rgb(91.372549%,92.156863%,97.647059%);stroke-opacity:1;stroke-miterlimit:4;" d="M 53.347861 27.792563 C 54.555151 28.178398 55.662871 28.937622 56.37231 29.995557 C 57.081748 31.065938 57.355566 32.410137 57.019517 33.642319 C 56.695913 34.874502 55.725103 35.932437 54.505366 36.293379 " transform="matrix(0.313849,0,0,0.313849,0.139663,0)"/>
<path style="fill:none;stroke-width:2;stroke-linecap:round;stroke-linejoin:round;stroke:rgb(91.372549%,92.156863%,97.647059%);stroke-opacity:1;stroke-miterlimit:4;" d="M 64.48729 28.526895 C 66.416465 27.506299 68.955508 28.526895 70.225029 30.306714 C 71.494551 32.086533 71.768369 34.37665 71.780815 36.567197 C 71.793262 42.068457 70.287261 47.569717 67.474399 52.299307 " transform="matrix(0.313849,0,0,0.313849,0.139663,0)"/>
<path style="fill:none;stroke-width:2;stroke-linecap:round;stroke-linejoin:round;stroke:rgb(91.372549%,92.156863%,97.647059%);stroke-opacity:1;stroke-miterlimit:4;" d="M 59.65813 49.909619 C 60.952544 51.428066 61.661982 53.419473 61.624644 55.410879 C 61.599751 57.402285 60.828081 59.368799 59.483882 60.849907 " transform="matrix(0.313849,0,0,0.313849,0.139663,0)"/>
<path style="fill:none;stroke-width:2;stroke-linecap:round;stroke-linejoin:round;stroke:rgb(91.372549%,92.156863%,97.647059%);stroke-opacity:1;stroke-miterlimit:4;" d="M 76.485513 33.50541 C 77.879497 35.646172 79.149019 37.874058 80.269185 40.176621 C 78.688506 41.881763 77.107827 43.574458 75.527148 45.2796 " transform="matrix(0.313849,0,0,0.313849,0.139663,0)"/>
<path style="fill:none;stroke-width:2;stroke-linecap:round;stroke-linejoin:round;stroke:rgb(91.372549%,92.156863%,97.647059%);stroke-opacity:1;stroke-miterlimit:4;" d="M 53.522109 53.805308 C 54.044854 49.822495 56.210508 46.076162 59.409204 43.649136 " transform="matrix(0.313849,0,0,0.313849,0.139663,0)"/>
<path style="fill:none;stroke-width:2;stroke-linecap:round;stroke-linejoin:round;stroke:rgb(91.372549%,92.156863%,97.647059%);stroke-opacity:1;stroke-miterlimit:4;" d="M 6.935649 57.564087 C 9.823188 58.510005 12.785405 59.23189 15.797407 59.729741 " transform="matrix(0.313849,0,0,0.313849,0.139663,0)"/>
<path style="fill:none;stroke-width:2;stroke-linecap:round;stroke-linejoin:round;stroke:rgb(91.372549%,92.156863%,97.647059%);stroke-opacity:1;stroke-miterlimit:4;" d="M 24.634272 61.634023 L 30.023516 62.492817 " transform="matrix(0.313849,0,0,0.313849,0.139663,0)"/>
<path style="fill:none;stroke-width:2;stroke-linecap:round;stroke-linejoin:round;stroke:rgb(91.372549%,92.156863%,97.647059%);stroke-opacity:1;stroke-miterlimit:4;" d="M 45.245327 63.637876 L 51.64272 64.135728 " transform="matrix(0.313849,0,0,0.313849,0.139663,0)"/>
<path style="fill:none;stroke-width:2;stroke-linecap:round;stroke-linejoin:round;stroke:rgb(91.372549%,92.156863%,97.647059%);stroke-opacity:1;stroke-miterlimit:4;" d="M 65.196729 64.695811 C 67.125903 65.019414 69.092417 65.106538 71.034038 64.944736 " transform="matrix(0.313849,0,0,0.313849,0.139663,0)"/>
<path style="fill:none;stroke-width:2;stroke-linecap:round;stroke-linejoin:round;stroke:rgb(91.372549%,92.156863%,97.647059%);stroke-opacity:1;stroke-miterlimit:4;" d="M 79.995366 52.72248 C 81.936987 52.498447 83.965732 53.382134 85.135684 54.950366 C 86.305635 56.518599 86.554561 58.721592 85.795337 60.513857 C 85.023667 62.306123 83.243848 63.62543 81.314673 63.874355 " transform="matrix(0.313849,0,0,0.313849,0.139663,0)"/>
<path style="fill:none;stroke-width:2;stroke-linecap:round;stroke-linejoin:round;stroke:rgb(91.372549%,92.156863%,97.647059%);stroke-opacity:1;stroke-miterlimit:4;" d="M 82.870459 46.026377 L 84.961436 48.976147 " transform="matrix(0.313849,0,0,0.313849,0.139663,0)"/>
<path style="fill:none;stroke-width:2;stroke-linecap:round;stroke-linejoin:round;stroke:rgb(91.372549%,92.156863%,97.647059%);stroke-opacity:1;stroke-miterlimit:4;" d="M 90.41291 59.107427 C 91.458398 60.750337 92.653242 62.306123 93.984995 63.725 C 93.014185 63.712554 92.155391 63.998818 91.18458 63.986372 " transform="matrix(0.313849,0,0,0.313849,0.139663,0)"/>
<path style="fill:none;stroke-width:2;stroke-linecap:round;stroke-linejoin:round;stroke:rgb(91.372549%,92.156863%,97.647059%);stroke-opacity:1;stroke-miterlimit:4;" d="M 71.307856 64.919844 C 70.946914 63.488521 70.697988 62.032305 70.573525 60.576089 " transform="matrix(0.313849,0,0,0.313849,0.139663,0)"/>
<path style="fill:none;stroke-width:2;stroke-linecap:round;stroke-linejoin:round;stroke:rgb(91.372549%,92.156863%,97.647059%);stroke-opacity:1;stroke-miterlimit:4;" d="M 90.201323 38.807529 C 91.918911 38.309678 93.93521 37.849165 95.354087 38.944438 C 96.636055 39.952588 96.822749 41.794639 96.88498 43.425103 C 97.084121 47.905767 97.295708 52.386431 97.494849 56.854648 " transform="matrix(0.313849,0,0,0.313849,0.139663,0)"/>
<path style="fill:none;stroke-width:2;stroke-linecap:round;stroke-linejoin:round;stroke:rgb(91.372549%,92.156863%,97.647059%);stroke-opacity:1;stroke-miterlimit:4;" d="M 102.249331 57.725889 L 108.771187 49.735371 C 109.804229 48.46585 110.837271 47.183882 111.484478 45.702773 C 112.119238 44.209219 112.318379 42.441846 111.633833 40.973184 C 110.936841 39.504521 109.231699 38.459033 107.663467 38.882207 " transform="matrix(0.313849,0,0,0.313849,0.139663,0)"/>
<path style="fill:none;stroke-width:2;stroke-linecap:round;stroke-linejoin:round;stroke:rgb(91.372549%,92.156863%,97.647059%);stroke-opacity:1;stroke-miterlimit:4;" d="M 99.63561 36.641875 C 101.788818 34.886948 104.402539 33.704551 107.128276 33.206699 C 104.850605 30.381392 102.834307 27.319604 101.154058 24.096016 " transform="matrix(0.313849,0,0,0.313849,0.139663,0)"/>
<path style="fill:none;stroke-width:2;stroke-linecap:round;stroke-linejoin:round;stroke:rgb(91.372549%,92.156863%,97.647059%);stroke-opacity:1;stroke-miterlimit:4;" d="M 84.550708 35.222998 C 89.10605 29.248779 93.910317 23.473701 98.951064 17.897764 " transform="matrix(0.313849,0,0,0.313849,0.139663,0)"/>
<path style="fill:none;stroke-width:2;stroke-linecap:round;stroke-linejoin:round;stroke:rgb(91.372549%,92.156863%,97.647059%);stroke-opacity:1;stroke-miterlimit:4;" d="M 110.949287 56.282119 L 115.915356 63.227148 C 112.442842 63.314272 108.957881 63.725 105.535151 64.421992 " transform="matrix(0.313849,0,0,0.313849,0.139663,0)"/>
<path style="fill:none;stroke-width:2;stroke-linecap:round;stroke-linejoin:round;stroke:rgb(91.372549%,92.156863%,97.647059%);stroke-opacity:1;stroke-miterlimit:4;" d="M 126.295562 55.199292 C 129.369795 57.327607 132.618276 59.206997 136.016113 60.825015 C 131.610127 61.484668 127.216587 62.131875 122.823047 62.791528 " transform="matrix(0.313849,0,0,0.313849,0.139663,0)"/>
<path style="fill:none;stroke-width:2;stroke-linecap:round;stroke-linejoin:round;stroke:rgb(91.372549%,92.156863%,97.647059%);stroke-opacity:1;stroke-miterlimit:4;" d="M 116.923506 46.735815 L 122.661245 51.664546 C 120.333789 53.133208 118.690879 55.634912 118.255259 58.335757 " transform="matrix(0.313849,0,0,0.313849,0.139663,0)"/>
</g>
</svg>
