<?xml version="1.0" encoding="UTF-8"?>
<svg xmlns="http://www.w3.org/2000/svg" xmlns:xlink="http://www.w3.org/1999/xlink" width="48px" height="px" viewBox="0 0 47 24" version="1.1">
<defs>
<filter id="alpha" filterUnits="objectBoundingBox" x="0%" y="0%" width="100%" height="100%">
  <feColorMatrix type="matrix" in="SourceGraphic" values="0 0 0 0 1 0 0 0 0 1 0 0 0 0 1 0 0 0 1 0"/>
</filter>
<mask id="mask0">
  <g filter="url(#alpha)">
<rect x="0" y="0" width="47" height="24" style="fill:rgb(0%,0%,0%);fill-opacity:0.121569;stroke:none;"/>
  </g>
</mask>
<clipPath id="clip1">
  <rect x="0" y="0" width="47" height="24"/>
</clipPath>
<g id="surface5" clip-path="url(#clip1)">
<path style=" stroke:none;fill-rule:nonzero;fill:rgb(0%,0%,0%);fill-opacity:1;" d="M 15.382812 20.171875 C 18.453125 19.699219 21.585938 19.832031 24.691406 20.167969 C 26.792969 20.398438 28.847656 20.867188 30.902344 21.34375 C 31.949219 21.589844 32.984375 21.890625 33.992188 22.269531 C 34.242188 22.363281 36.90625 23.4375 36.851562 23.578125 C 37.230469 22.589844 36.722656 21.433594 35.917969 20.753906 C 35.113281 20.074219 34.074219 19.765625 33.066406 19.472656 C 30.933594 18.851562 28.796875 18.226562 26.660156 17.605469 C 24.332031 16.925781 21.980469 16.242188 19.566406 16.03125 C 17.148438 15.820312 14.628906 16.109375 12.496094 17.277344 C 11.707031 17.710938 10.957031 18.304688 10.328125 18.953125 C 9.996094 19.296875 9.648438 19.6875 9.472656 20.140625 C 9.253906 20.691406 9.347656 21.441406 9.308594 22.039062 C 9.324219 21.820312 10.816406 21.386719 11.023438 21.320312 C 12.457031 20.859375 13.914062 20.398438 15.386719 20.171875 Z M 15.382812 20.171875 "/>
</g>
</defs>
<g id="surface1">
<use xlink:href="#surface5" mask="url(#mask0)"/>
<path style=" stroke:none;fill-rule:nonzero;fill:rgb(25.490196%,25.098039%,25.882353%);fill-opacity:1;" d="M 42.582031 20.839844 C 45.128906 19.121094 48.121094 16.292969 46.566406 13.253906 C 45.828125 11.808594 44.824219 11.4375 43.378906 11.277344 C 40.507812 10.957031 37.351562 11.140625 35.101562 8.933594 C 33.570312 7.429688 32.601562 5.816406 31.230469 4.167969 C 29.148438 1.667969 26.066406 -0.0625 22.78125 0.0117188 C 20.632812 0.0625 18.472656 0.863281 16.824219 2.265625 C 15.097656 3.730469 13.769531 5.640625 11.804688 6.824219 C 9.785156 8.039062 7.242188 8.332031 5.015625 8.582031 C 3.003906 8.808594 -0.164062 9.257812 0.0078125 11.976562 C 0.0546875 12.746094 0.375 13.972656 0.730469 14.65625 C 2.058594 17.191406 4.726562 19.269531 7.0625 20.894531 C 7.285156 21.050781 9.234375 22.457031 9.355469 22.210938 C 9.585938 21.742188 10.429688 20.605469 10.429688 20.605469 C 16.113281 17.800781 21.347656 18.367188 27.566406 19.542969 C 30.453125 20.085938 33.355469 20.839844 35.957031 22.183594 C 35.957031 22.183594 36.511719 23.289062 36.90625 23.988281 C 37.757812 23.757812 40.859375 22.003906 42.585938 20.839844 Z M 42.582031 20.839844 "/>
<path style=" stroke:none;fill-rule:nonzero;fill:rgb(99.607843%,76.470588%,24.313725%);fill-opacity:1;" d="M 46.761719 13.691406 C 44.804688 12.472656 42.996094 12.601562 40.515625 12.269531 C 40.113281 12.214844 39.707031 12.171875 39.320312 12.128906 C 37.757812 11.960938 36.28125 11.679688 34.933594 10.890625 C 33.730469 10.1875 32.816406 8.871094 31.933594 7.597656 C 31.714844 7.28125 31.492188 7 31.296875 6.695312 C 29.550781 3.988281 27.140625 1.953125 23.996094 1.632812 C 21.097656 1.339844 18.964844 2.066406 16.125 4.863281 C 15.742188 5.238281 15.398438 5.667969 15.019531 6.109375 C 14.039062 7.253906 13.023438 8.4375 11.824219 9.027344 C 10.371094 9.738281 8.65625 9.800781 7 9.859375 C 6.691406 9.871094 6.386719 9.878906 6.082031 9.894531 C 3.261719 10.03125 1.222656 10.746094 0.0117188 12.042969 C 0.0351562 12.597656 0.277344 13.441406 0.277344 13.441406 C 1.191406 11.992188 3.199219 11.128906 6.136719 10.984375 C 6.433594 10.96875 6.734375 10.957031 7.039062 10.949219 C 8.804688 10.886719 10.632812 10.820312 12.292969 10.007812 C 13.695312 9.320312 14.78125 8.050781 15.835938 6.820312 C 16.203125 6.390625 16.550781 5.984375 16.898438 5.617188 C 19.191406 3.207031 21.3125 2.457031 23.886719 2.71875 C 25.28125 2.859375 26.597656 3.488281 27.714844 4.328125 C 28.828125 5.167969 29.613281 6.222656 30.429688 7.34375 C 30.632812 7.621094 30.835938 7.914062 31.050781 8.226562 C 31.957031 9.53125 32.984375 11.011719 34.394531 11.835938 C 35.941406 12.738281 37.601562 13.042969 39.203125 13.214844 C 39.585938 13.257812 39.984375 13.296875 40.371094 13.351562 C 42.886719 13.6875 45.050781 13.761719 46.992188 15.046875 C 47.035156 14.539062 46.84375 13.875 46.761719 13.691406 Z M 46.761719 13.691406 "/>
<path style=" stroke:none;fill-rule:nonzero;fill:rgb(94.509804%,94.901961%,94.901961%);fill-opacity:1;" d="M 26.382812 8.316406 C 26.40625 8.136719 26.441406 7.957031 26.449219 7.773438 C 26.496094 6.023438 25.011719 4.566406 23.136719 4.515625 C 21.261719 4.464844 19.703125 5.839844 19.65625 7.585938 C 19.652344 7.773438 19.6875 7.953125 19.695312 8.132812 C 19.707031 8.503906 19.710938 8.644531 19.683594 9.015625 C 19.679688 9.085938 19.660156 9.15625 19.660156 9.230469 C 19.640625 9.894531 20.132812 10.464844 20.800781 10.609375 C 20.976562 10.648438 21.09375 10.8125 21.089844 10.992188 L 21.085938 11.214844 C 21.074219 11.65625 21.417969 12.023438 21.855469 12.035156 L 24.019531 12.09375 C 24.453125 12.105469 24.816406 11.757812 24.828125 11.316406 L 24.835938 11.097656 C 24.839844 10.917969 24.964844 10.757812 25.140625 10.730469 C 25.820312 10.621094 26.339844 10.078125 26.359375 9.414062 C 26.359375 9.339844 26.351562 9.269531 26.34375 9.195312 C 26.320312 8.832031 26.332031 8.691406 26.382812 8.316406 Z M 26.382812 8.316406 "/>
<path style=" stroke:none;fill-rule:nonzero;fill:rgb(0%,0%,0%);fill-opacity:1;" d="M 23.898438 8.257812 C 23.675781 8.355469 23.476562 8.550781 23.449219 8.792969 C 23.429688 8.992188 23.519531 9.1875 23.640625 9.347656 C 23.835938 9.609375 24.125 9.808594 24.445312 9.863281 C 24.765625 9.921875 25.121094 9.824219 25.34375 9.582031 C 25.570312 9.34375 25.644531 8.964844 25.503906 8.667969 C 25.242188 8.121094 24.429688 8.0625 23.933594 8.246094 C 23.921875 8.253906 23.910156 8.257812 23.898438 8.261719 Z M 23.898438 8.257812 "/>
<path style=" stroke:none;fill-rule:nonzero;fill:rgb(0%,0%,0%);fill-opacity:1;" d="M 22.175781 8.210938 C 22.394531 8.320312 22.582031 8.523438 22.59375 8.769531 C 22.605469 8.96875 22.503906 9.160156 22.375 9.3125 C 22.164062 9.5625 21.867188 9.746094 21.542969 9.785156 C 21.21875 9.824219 20.871094 9.707031 20.660156 9.453125 C 20.449219 9.203125 20.394531 8.820312 20.550781 8.53125 C 20.839844 8 21.65625 7.988281 22.140625 8.199219 C 22.152344 8.203125 22.164062 8.207031 22.175781 8.210938 Z M 22.175781 8.210938 "/>
<path style=" stroke:none;fill-rule:nonzero;fill:rgb(0%,0%,0%);fill-opacity:1;" d="M 22.730469 9.777344 L 22.460938 10.277344 C 22.351562 10.484375 22.558594 10.722656 22.777344 10.636719 L 22.886719 10.59375 C 22.945312 10.574219 23.003906 10.574219 23.058594 10.601562 L 23.167969 10.648438 C 23.382812 10.746094 23.601562 10.519531 23.503906 10.304688 L 23.261719 9.789062 C 23.15625 9.566406 22.847656 9.558594 22.730469 9.777344 Z M 22.730469 9.777344 "/>
<path style=" stroke:none;fill-rule:nonzero;fill:rgb(94.509804%,94.901961%,94.901961%);fill-opacity:1;" d="M 25.390625 15.976562 L 19.96875 13.402344 C 19.816406 13.328125 19.632812 13.359375 19.507812 13.472656 C 19.300781 13.660156 18.984375 13.703125 18.726562 13.542969 C 18.464844 13.382812 18.351562 13.0625 18.445312 12.777344 C 18.511719 12.570312 18.664062 12.421875 18.84375 12.355469 C 18.78125 12.167969 18.796875 11.957031 18.910156 11.773438 C 19.070312 11.519531 19.390625 11.402344 19.671875 11.5 C 19.960938 11.597656 20.128906 11.871094 20.117188 12.152344 C 20.113281 12.324219 20.207031 12.480469 20.359375 12.554688 L 25.78125 15.128906 C 25.9375 15.199219 26.117188 15.171875 26.242188 15.058594 C 26.453125 14.871094 26.765625 14.828125 27.027344 14.988281 C 27.285156 15.148438 27.398438 15.464844 27.304688 15.753906 C 27.238281 15.960938 27.085938 16.109375 26.90625 16.175781 C 26.96875 16.359375 26.957031 16.574219 26.839844 16.757812 C 26.679688 17.011719 26.359375 17.125 26.078125 17.03125 C 25.792969 16.933594 25.621094 16.660156 25.632812 16.378906 C 25.636719 16.207031 25.546875 16.046875 25.390625 15.976562 Z M 25.390625 15.976562 "/>
<path style=" stroke:none;fill-rule:nonzero;fill:rgb(94.509804%,94.901961%,94.901961%);fill-opacity:1;" d="M 20.273438 15.835938 L 25.828125 13.5625 C 25.984375 13.5 26.160156 13.539062 26.28125 13.660156 C 26.480469 13.855469 26.792969 13.917969 27.058594 13.769531 C 27.328125 13.625 27.457031 13.3125 27.378906 13.023438 C 27.324219 12.8125 27.179688 12.65625 27.003906 12.578125 C 27.078125 12.398438 27.074219 12.183594 26.96875 11.992188 C 26.824219 11.730469 26.511719 11.597656 26.222656 11.679688 C 25.9375 11.761719 25.75 12.023438 25.742188 12.308594 C 25.738281 12.476562 25.636719 12.632812 25.480469 12.695312 L 19.925781 14.96875 C 19.769531 15.03125 19.589844 14.992188 19.46875 14.871094 C 19.273438 14.675781 18.960938 14.613281 18.691406 14.761719 C 18.425781 14.90625 18.296875 15.21875 18.371094 15.507812 C 18.425781 15.71875 18.570312 15.875 18.75 15.953125 C 18.671875 16.132812 18.675781 16.347656 18.78125 16.539062 C 18.929688 16.800781 19.242188 16.933594 19.527344 16.851562 C 19.820312 16.765625 20.003906 16.503906 20.011719 16.222656 C 20.011719 16.050781 20.113281 15.898438 20.273438 15.835938 Z M 20.273438 15.835938 "/>
</g>
</svg>
