<?xml version="1.0" encoding="UTF-8"?>
<svg xmlns="http://www.w3.org/2000/svg" xmlns:xlink="http://www.w3.org/1999/xlink" width="48px" height="px" viewBox="0 0 47 33" version="1.1">
<defs>
<filter id="alpha" filterUnits="objectBoundingBox" x="0%" y="0%" width="100%" height="100%">
  <feColorMatrix type="matrix" in="SourceGraphic" values="0 0 0 0 1 0 0 0 0 1 0 0 0 0 1 0 0 0 1 0"/>
</filter>
<mask id="mask0">
  <g filter="url(#alpha)">
<rect x="0" y="0" width="47" height="33" style="fill:rgb(0%,0%,0%);fill-opacity:0.168627;stroke:none;"/>
  </g>
</mask>
<clipPath id="clip1">
  <rect x="0" y="0" width="47" height="33"/>
</clipPath>
<g id="surface5" clip-path="url(#clip1)">
<path style=" stroke:none;fill-rule:nonzero;fill:rgb(0%,0%,0%);fill-opacity:1;" d="M 20.742188 29.035156 C 26.914062 29.476562 33.863281 31.648438 36.992188 32.992188 C 36.5 32.148438 36.351562 31.613281 35.738281 31.191406 C 35.128906 30.769531 34.410156 30.542969 33.703125 30.324219 C 31.175781 29.542969 28.644531 28.757812 26.113281 27.976562 C 24.140625 27.367188 22.152344 26.75 20.101562 26.554688 C 17.964844 26.347656 15.808594 26.601562 13.699219 27.019531 C 11.777344 27.402344 8.632812 27.695312 6.78125 28.347656 C 5.867188 28.671875 5.339844 29.378906 4.570312 30.265625 C 12.984375 28.417969 18.238281 28.859375 20.742188 29.035156 Z M 20.742188 29.035156 "/>
</g>
<mask id="mask1">
  <g filter="url(#alpha)">
<rect x="0" y="0" width="47" height="33" style="fill:rgb(0%,0%,0%);fill-opacity:0.168627;stroke:none;"/>
  </g>
</mask>
<clipPath id="clip2">
  <rect x="0" y="0" width="47" height="33"/>
</clipPath>
<g id="surface8" clip-path="url(#clip2)">
<path style=" stroke:none;fill-rule:nonzero;fill:rgb(0%,0%,0%);fill-opacity:1;" d="M 42.792969 23.542969 C 43.167969 23.3125 43.636719 23.03125 44.003906 23.277344 C 44.265625 23.453125 44.316406 23.84375 44.199219 24.140625 C 44.082031 24.4375 43.832031 24.660156 43.585938 24.859375 C 42.882812 25.417969 42.140625 25.785156 41.355469 26.175781 C 40.726562 26.496094 40.351562 27.296875 40.488281 27.992188 C 40.542969 28.265625 40.667969 28.523438 40.792969 28.773438 C 40.992188 29.179688 41.210938 29.589844 41.558594 29.875 C 42.234375 30.4375 43.351562 30.078125 44.113281 29.863281 C 45.035156 29.605469 45.9375 29.164062 46.644531 28.5 C 46.488281 28.878906 45.058594 30.332031 44.03125 31.105469 C 43.242188 31.703125 42.375 31.835938 40.347656 31.59375 C 39.144531 31.453125 37.960938 31.246094 36.800781 31.011719 C 36.484375 30.945312 36.054688 31.144531 35.832031 30.902344 C 35.636719 30.691406 35.621094 30.371094 35.621094 30.078125 C 35.640625 28.269531 35.851562 26.761719 36.621094 25.101562 C 36.894531 24.507812 37.234375 24.785156 37.820312 24.644531 C 38.511719 24.480469 39.222656 24.417969 39.984375 24.375 C 40.96875 24.316406 41.949219 24.066406 42.789062 23.542969 Z M 42.792969 23.542969 "/>
</g>
<mask id="mask2">
  <g filter="url(#alpha)">
<rect x="0" y="0" width="47" height="33" style="fill:rgb(0%,0%,0%);fill-opacity:0.0784314;stroke:none;"/>
  </g>
</mask>
<clipPath id="clip3">
  <rect x="0" y="0" width="47" height="33"/>
</clipPath>
<g id="surface11" clip-path="url(#clip3)">
<path style=" stroke:none;fill-rule:nonzero;fill:rgb(0%,0%,0%);fill-opacity:1;" d="M 29.660156 29.777344 C 31.285156 29.667969 32.796875 28.441406 33.535156 26.964844 C 34.328125 25.382812 33.949219 23.53125 32.636719 22.332031 C 31.898438 21.652344 30.964844 21.238281 30.007812 20.988281 C 28.980469 20.714844 27.980469 20.359375 26.949219 20.089844 C 25.542969 19.726562 24.105469 19.496094 22.65625 19.414062 C 21.136719 19.320312 19.648438 19.148438 18.105469 19.191406 C 16.558594 19.234375 15.023438 19.371094 13.5 19.601562 C 10.625 20.035156 8.109375 20.578125 5.257812 21.121094 C 5.738281 20.671875 6.253906 20.285156 6.859375 20.015625 C 7.628906 19.675781 7.617188 18.929688 7.1875 18.21875 C 6.898438 17.734375 6.453125 17.375 6.011719 17.03125 C 5.496094 16.632812 4.957031 16.230469 4.648438 15.652344 C 4.296875 14.996094 4.296875 14.191406 4.492188 13.46875 C 4.671875 12.816406 5.09375 11.339844 5.777344 12.226562 C 6.289062 12.890625 6.578125 13.933594 6.972656 14.6875 C 7.414062 15.535156 7.882812 16.371094 8.371094 17.191406 C 9.011719 18.265625 10.667969 19.773438 11.335938 17.671875 C 11.480469 17.222656 11.449219 16.734375 11.332031 16.28125 C 10.992188 14.957031 10.132812 13.917969 9.511719 12.726562 C 8.832031 11.417969 8.410156 9.96875 8.46875 8.480469 C 8.496094 7.816406 8.675781 7.179688 8.703125 6.523438 C 8.726562 5.910156 8.84375 5.304688 9.164062 4.769531 C 9.476562 4.242188 10.050781 3.828125 10.65625 3.898438 C 13.253906 4.1875 11.742188 8.601562 11.863281 10.21875 C 12.015625 12.261719 12.65625 14.269531 13.753906 15.992188 C 14.015625 16.410156 14.316406 16.816406 14.734375 17.070312 C 15.210938 17.355469 15.785156 17.402344 16.339844 17.441406 C 17.800781 17.546875 19.738281 17.867188 21.191406 17.53125 C 22.753906 17.167969 23.628906 15.378906 24.132812 13.976562 C 24.671875 12.484375 24.898438 10.902344 25.21875 9.347656 C 25.335938 8.765625 25.539062 8.101562 26.082031 7.894531 C 26.53125 10.9375 26.386719 14.070312 25.65625 17.0625 C 25.570312 17.425781 25.472656 17.824219 25.625 18.167969 C 26.078125 19.195312 28.15625 19.230469 29.050781 19.042969 C 30.546875 18.730469 31.984375 17.867188 33.066406 16.785156 C 34.425781 15.421875 35.320312 13.582031 35.550781 11.648438 C 35.578125 11.421875 35.597656 11.183594 35.714844 10.984375 C 35.828125 10.789062 36.070312 10.640625 36.285156 10.722656 C 36.496094 10.800781 36.582031 11.050781 36.628906 11.277344 C 37.058594 13.320312 36.183594 15.386719 35.308594 17.28125 C 35.105469 17.722656 34.898438 18.175781 34.855469 18.664062 C 34.808594 19.148438 34.964844 19.683594 35.359375 19.960938 C 35.988281 20.40625 37.410156 19.511719 37.941406 19.121094 C 39.371094 18.070312 40.257812 16.226562 40.953125 14.625 C 41.914062 12.425781 41.871094 9.957031 40.917969 7.742188 C 40.917969 7.835938 41.304688 8.140625 41.378906 8.222656 C 41.558594 8.414062 41.734375 8.613281 41.898438 8.816406 C 42.222656 9.207031 42.527344 9.613281 42.808594 10.039062 C 43.308594 10.785156 43.785156 11.964844 44.128906 12.859375 C 44.519531 13.875 44.675781 14.667969 44.917969 15.675781 C 45.179688 16.773438 45.40625 17.875 45.621094 18.984375 C 46.054688 21.261719 46.421875 23.558594 46.871094 25.832031 C 47.128906 27.121094 46.996094 28.316406 46.179688 29.117188 C 45.269531 30.011719 43.933594 31.789062 42.066406 31.703125 C 39.945312 31.601562 38.878906 31.460938 36.800781 31.011719 C 36.746094 31.441406 36.65625 31.871094 36.605469 32.296875 C 34.324219 31.257812 32.140625 30.5 29.660156 29.777344 Z M 29.660156 29.777344 "/>
</g>
</defs>
<g id="surface1">
<path style=" stroke:none;fill-rule:nonzero;fill:rgb(94.509804%,94.901961%,94.901961%);fill-opacity:1;" d="M 5.738281 22.140625 C 3.363281 19.167969 1.570312 15.71875 0.5 12.046875 C 0.09375 10.660156 -0.207031 9.167969 0.183594 7.773438 C 0.644531 6.113281 2.003906 4.890625 3.332031 3.8125 C 5.523438 2.035156 7.960938 0.320312 10.75 0.046875 C 13.066406 -0.179688 15.355469 0.613281 17.679688 0.761719 C 20.988281 0.972656 24.304688 -0.128906 27.597656 0.277344 C 30.882812 0.679688 33.804688 2.535156 36.570312 4.390625 C 38.742188 5.847656 40.945312 7.378906 42.464844 9.53125 C 44.347656 12.203125 44.984375 15.546875 45.570312 18.777344 C 45.933594 20.761719 46.292969 22.746094 46.65625 24.726562 C 46.976562 26.492188 47.46875 27.957031 45.984375 29.269531 C 45.261719 29.910156 44.464844 30.914062 43.621094 31.367188 C 42.851562 31.785156 41.980469 31.707031 41.082031 31.664062 C 40.5625 31.636719 35.253906 30.9375 35.347656 30.40625 C 35.660156 28.570312 35.976562 26.734375 36.289062 24.898438 C 27.953125 23.851562 19.542969 23.640625 11.144531 23.957031 C 10.191406 23.992188 9.226562 24.035156 8.300781 23.816406 C 7.371094 23.601562 6.335938 22.894531 5.738281 22.144531 Z M 5.738281 22.140625 "/>
<use xlink:href="#surface5" mask="url(#mask0)"/>
<use xlink:href="#surface8" mask="url(#mask1)"/>
<path style=" stroke:none;fill-rule:nonzero;fill:rgb(90.196078%,90.588235%,90.980392%);fill-opacity:1;" d="M 36.609375 32.296875 C 19.519531 24.585938 5.0625 29.699219 5.0625 29.699219 L 5.082031 21.179688 C 5.082031 21.179688 21.460938 13.085938 37.777344 24.058594 Z M 36.609375 32.296875 "/>
<use xlink:href="#surface11" mask="url(#mask2)"/>
</g>
</svg>
