<?xml version="1.0" encoding="UTF-8"?>
<svg xmlns="http://www.w3.org/2000/svg" xmlns:xlink="http://www.w3.org/1999/xlink" width="48px" height="px" viewBox="0 0 47 34" version="1.1">
<defs>
<filter id="alpha" filterUnits="objectBoundingBox" x="0%" y="0%" width="100%" height="100%">
  <feColorMatrix type="matrix" in="SourceGraphic" values="0 0 0 0 1 0 0 0 0 1 0 0 0 0 1 0 0 0 1 0"/>
</filter>
<mask id="mask0">
  <g filter="url(#alpha)">
<rect x="0" y="0" width="47" height="34" style="fill:rgb(0%,0%,0%);fill-opacity:0.239216;stroke:none;"/>
  </g>
</mask>
<clipPath id="clip1">
  <rect x="0" y="0" width="47" height="34"/>
</clipPath>
<g id="surface5" clip-path="url(#clip1)">
<path style=" stroke:none;fill-rule:nonzero;fill:rgb(0%,0%,0%);fill-opacity:1;" d="M 10.425781 23.320312 C 11.597656 22.671875 12.765625 22.503906 14.09375 22.484375 C 15.359375 22.464844 16.628906 22.449219 17.890625 22.558594 C 19.027344 22.65625 20.226562 22.652344 21.28125 23.125 C 22.136719 23.507812 22.839844 24.085938 23.625 24.566406 C 24.511719 25.113281 25.398438 25.660156 26.285156 26.203125 C 28.015625 27.261719 29.757812 28.304688 31.535156 29.277344 C 34.90625 31.117188 39.847656 33.265625 43.710938 33.5 C 43.785156 33.507812 43.863281 33.507812 43.941406 33.515625 C 44.371094 33.535156 45.300781 33.335938 45.675781 33.511719 C 41.269531 31.464844 36.84375 29.410156 32.757812 26.773438 C 28.632812 24.113281 24.636719 20.769531 19.78125 20.148438 C 16.992188 19.789062 14.144531 20.386719 11.554688 21.484375 C 8.964844 22.582031 6.601562 24.160156 4.328125 25.828125 C 3.398438 26.511719 2.46875 27.21875 1.753906 28.125 C 1.375 28.597656 1.023438 29.132812 0.808594 29.699219 C 0.503906 30.496094 0.796875 30.953125 1.558594 30.421875 C 2.933594 29.464844 4.289062 28.386719 5.53125 27.296875 C 7.046875 25.972656 8.550781 24.425781 10.289062 23.402344 C 10.335938 23.375 10.382812 23.347656 10.429688 23.324219 Z M 10.425781 23.320312 "/>
</g>
<mask id="mask1">
  <g filter="url(#alpha)">
<rect x="0" y="0" width="47" height="34" style="fill:rgb(0%,0%,0%);fill-opacity:0.239216;stroke:none;"/>
  </g>
</mask>
<clipPath id="clip2">
  <rect x="0" y="0" width="47" height="34"/>
</clipPath>
<g id="surface8" clip-path="url(#clip2)">
<path style=" stroke:none;fill-rule:nonzero;fill:rgb(0%,0%,0%);fill-opacity:1;" d="M 19.148438 16.671875 C 19.703125 17.125 20.226562 17.613281 20.734375 18.121094 C 21.105469 18.511719 21.46875 18.914062 21.910156 19.222656 C 23.242188 20.105469 24.667969 20.894531 26.011719 21.765625 C 26.011719 21.765625 26 21.796875 26 21.796875 C 24.960938 21.492188 23.980469 20.976562 23.101562 20.34375 C 22.503906 19.933594 21.996094 19.410156 21.421875 18.972656 C 20.679688 18.453125 19.972656 17.878906 19.433594 17.140625 C 19.324219 16.996094 19.21875 16.847656 19.121094 16.691406 C 19.121094 16.691406 19.144531 16.671875 19.144531 16.671875 Z M 19.148438 16.671875 "/>
</g>
<mask id="mask2">
  <g filter="url(#alpha)">
<rect x="0" y="0" width="47" height="34" style="fill:rgb(0%,0%,0%);fill-opacity:0.239216;stroke:none;"/>
  </g>
</mask>
<clipPath id="clip3">
  <rect x="0" y="0" width="47" height="34"/>
</clipPath>
<g id="surface11" clip-path="url(#clip3)">
<path style=" stroke:none;fill-rule:nonzero;fill:rgb(0%,0%,0%);fill-opacity:1;" d="M 20.222656 15.898438 C 22.195312 16.601562 24.074219 17.53125 25.839844 18.652344 C 28.9375 20.378906 31.828125 22.375 33.433594 25.6875 C 33.433594 25.6875 33.40625 25.703125 33.40625 25.703125 C 32.226562 23.96875 30.777344 22.476562 29.183594 21.144531 C 28.113281 20.269531 27.007812 19.410156 25.789062 18.746094 C 24.5625 18.097656 23.28125 17.558594 22.054688 16.910156 C 21.433594 16.597656 20.816406 16.273438 20.210938 15.929688 C 20.210938 15.929688 20.222656 15.898438 20.222656 15.898438 Z M 20.222656 15.898438 "/>
</g>
<mask id="mask3">
  <g filter="url(#alpha)">
<rect x="0" y="0" width="47" height="34" style="fill:rgb(0%,0%,0%);fill-opacity:0.239216;stroke:none;"/>
  </g>
</mask>
<clipPath id="clip4">
  <rect x="0" y="0" width="47" height="34"/>
</clipPath>
<g id="surface14" clip-path="url(#clip4)">
<path style=" stroke:none;fill-rule:nonzero;fill:rgb(0%,0%,0%);fill-opacity:1;" d="M 21.773438 14.492188 C 23.890625 14.417969 25.996094 15.15625 27.773438 16.296875 C 29.535156 17.46875 31.050781 18.964844 32.574219 20.433594 C 35.535156 23.421875 38.59375 26.46875 40.519531 30.277344 C 38.222656 26.800781 35.253906 23.683594 32.445312 20.558594 C 30.359375 18.203125 27.773438 16.257812 24.820312 15.179688 C 23.84375 14.824219 22.820312 14.605469 21.773438 14.523438 C 21.773438 14.523438 21.773438 14.492188 21.773438 14.492188 Z M 21.773438 14.492188 "/>
</g>
<mask id="mask4">
  <g filter="url(#alpha)">
<rect x="0" y="0" width="47" height="34" style="fill:rgb(0%,0%,0%);fill-opacity:0.239216;stroke:none;"/>
  </g>
</mask>
<clipPath id="clip5">
  <rect x="0" y="0" width="47" height="34"/>
</clipPath>
<g id="surface17" clip-path="url(#clip5)">
<path style=" stroke:none;fill-rule:nonzero;fill:rgb(0%,0%,0%);fill-opacity:1;" d="M 21.351562 13.429688 C 25.523438 13.804688 29.691406 14.738281 33.429688 16.699219 C 37.339844 18.621094 40.453125 21.304688 42.566406 25.191406 C 43.898438 27.660156 44.976562 30.417969 45.617188 33.074219 C 44.664062 30.433594 43.648438 27.804688 42.261719 25.367188 C 37.425781 16.703125 30.226562 15.140625 21.351562 13.429688 Z M 21.351562 13.429688 "/>
</g>
<mask id="mask5">
  <g filter="url(#alpha)">
<rect x="0" y="0" width="47" height="34" style="fill:rgb(0%,0%,0%);fill-opacity:0.239216;stroke:none;"/>
  </g>
</mask>
<clipPath id="clip6">
  <rect x="0" y="0" width="47" height="34"/>
</clipPath>
<g id="surface20" clip-path="url(#clip6)">
<path style=" stroke:none;fill-rule:nonzero;fill:rgb(0%,0%,0%);fill-opacity:1;" d="M 23.023438 12.492188 C 26.402344 12.257812 29.816406 12.777344 33.027344 13.847656 C 37.230469 15.09375 40.164062 16.636719 42.671875 20.402344 C 43.628906 21.816406 44.441406 23.324219 45.199219 24.851562 C 43.960938 23.042969 42.847656 20.941406 41.382812 19.253906 C 38.546875 15.664062 34.101562 13.898438 29.710938 13.230469 C 28.605469 13.035156 27.496094 12.875 26.382812 12.757812 C 25.269531 12.636719 24.148438 12.570312 23.023438 12.523438 C 23.023438 12.523438 23.023438 12.492188 23.023438 12.492188 Z M 23.023438 12.492188 "/>
</g>
<mask id="mask6">
  <g filter="url(#alpha)">
<rect x="0" y="0" width="47" height="34" style="fill:rgb(0%,0%,0%);fill-opacity:0.239216;stroke:none;"/>
  </g>
</mask>
<clipPath id="clip7">
  <rect x="0" y="0" width="47" height="34"/>
</clipPath>
<g id="surface23" clip-path="url(#clip7)">
<path style=" stroke:none;fill-rule:nonzero;fill:rgb(0%,0%,0%);fill-opacity:1;" d="M 25.183594 11.339844 C 27.488281 10.660156 29.964844 10.75 32.296875 11.230469 C 34.65625 11.65625 36.96875 12.398438 39.015625 13.683594 C 41.445312 15.164062 43.625 17.507812 44.640625 20.136719 C 42.796875 16.753906 39.816406 14.160156 36.34375 12.613281 C 34.628906 11.785156 32.761719 11.300781 30.859375 11.21875 C 29.914062 11.171875 28.96875 11.125 28.023438 11.144531 C 27.078125 11.160156 26.128906 11.222656 25.1875 11.371094 C 25.1875 11.371094 25.179688 11.339844 25.179688 11.339844 Z M 25.183594 11.339844 "/>
</g>
<mask id="mask7">
  <g filter="url(#alpha)">
<rect x="0" y="0" width="47" height="34" style="fill:rgb(0%,0%,0%);fill-opacity:0.239216;stroke:none;"/>
  </g>
</mask>
<clipPath id="clip8">
  <rect x="0" y="0" width="47" height="34"/>
</clipPath>
<g id="surface26" clip-path="url(#clip8)">
<path style=" stroke:none;fill-rule:nonzero;fill:rgb(0%,0%,0%);fill-opacity:1;" d="M 29.566406 9.25 C 31.019531 9.132812 32.496094 9.230469 33.921875 9.542969 C 34.988281 9.808594 36.015625 10.183594 37.050781 10.535156 C 38.765625 11.132812 40.445312 11.976562 41.910156 13.066406 C 43.082031 13.953125 44.144531 14.988281 45.039062 16.152344 C 45.039062 16.152344 45.011719 16.175781 45.011719 16.175781 C 43.207031 14.390625 41.175781 12.824219 38.964844 11.59375 C 37.695312 10.894531 36.359375 10.300781 34.933594 10.011719 C 33.902344 9.8125 32.761719 9.621094 31.726562 9.488281 C 31.007812 9.40625 30.285156 9.347656 29.5625 9.285156 C 29.5625 9.285156 29.5625 9.25 29.5625 9.25 Z M 29.566406 9.25 "/>
</g>
<mask id="mask8">
  <g filter="url(#alpha)">
<rect x="0" y="0" width="47" height="34" style="fill:rgb(0%,0%,0%);fill-opacity:0.239216;stroke:none;"/>
  </g>
</mask>
<clipPath id="clip9">
  <rect x="0" y="0" width="47" height="34"/>
</clipPath>
<g id="surface29" clip-path="url(#clip9)">
<path style=" stroke:none;fill-rule:nonzero;fill:rgb(0%,0%,0%);fill-opacity:1;" d="M 23.738281 15.054688 C 24.976562 14.308594 26.199219 13.535156 27.398438 12.730469 C 30.480469 10.65625 33.773438 8.53125 35.671875 5.210938 C 35.695312 5.171875 33.722656 5.320312 33.523438 5.378906 C 32.855469 5.570312 32.179688 5.730469 31.527344 5.984375 C 30.027344 6.566406 28.652344 7.425781 27.300781 8.289062 C 22.6875 11.222656 18.019531 14.210938 14.164062 18.148438 C 13.152344 19.183594 11.835938 20.296875 11.230469 21.640625 C 11.667969 21.691406 12.214844 21.269531 12.621094 21.113281 C 13.210938 20.886719 13.796875 20.648438 14.371094 20.386719 C 15.472656 19.890625 16.546875 19.332031 17.601562 18.742188 C 19.683594 17.578125 21.691406 16.28125 23.738281 15.054688 Z M 23.738281 15.054688 "/>
</g>
<mask id="mask9">
  <g filter="url(#alpha)">
<rect x="0" y="0" width="47" height="34" style="fill:rgb(0%,0%,0%);fill-opacity:0.239216;stroke:none;"/>
  </g>
</mask>
<clipPath id="clip10">
  <rect x="0" y="0" width="47" height="34"/>
</clipPath>
<g id="surface32" clip-path="url(#clip10)">
<path style=" stroke:none;fill-rule:nonzero;fill:rgb(0%,0%,0%);fill-opacity:1;" d="M 29.558594 8.988281 C 30.339844 8.597656 31.1875 8.355469 32.046875 8.246094 C 32.695312 8.191406 33.34375 8.214844 33.992188 8.167969 C 35.933594 8.015625 37.957031 8.300781 39.667969 9.277344 C 39.667969 9.277344 39.65625 9.304688 39.65625 9.304688 C 38.414062 8.953125 37.171875 8.679688 35.90625 8.476562 C 35.0625 8.371094 34.210938 8.226562 33.351562 8.300781 C 32.292969 8.445312 31.253906 8.695312 30.203125 8.886719 C 29.996094 8.9375 29.785156 8.984375 29.570312 9.015625 C 29.570312 9.015625 29.558594 8.984375 29.558594 8.984375 Z M 29.558594 8.988281 "/>
</g>
<mask id="mask10">
  <g filter="url(#alpha)">
<rect x="0" y="0" width="47" height="34" style="fill:rgb(0%,0%,0%);fill-opacity:0.239216;stroke:none;"/>
  </g>
</mask>
<clipPath id="clip11">
  <rect x="0" y="0" width="47" height="34"/>
</clipPath>
<g id="surface35" clip-path="url(#clip11)">
<path style=" stroke:none;fill-rule:nonzero;fill:rgb(0%,0%,0%);fill-opacity:1;" d="M 41.511719 28.769531 C 40.21875 27.324219 38.914062 25.761719 37.695312 24.25 C 36.472656 22.703125 35.320312 21.101562 34.050781 19.59375 C 34.050781 19.59375 33.929688 19.449219 33.929688 19.449219 C 35.859375 19.914062 37.328125 21.386719 38.542969 22.894531 C 40.535156 25.316406 42.117188 28.097656 43.183594 31.054688 C 43.183594 31.054688 43.152344 31.070312 43.152344 31.070312 C 42.886719 30.5 42.609375 29.941406 42.324219 29.382812 C 41.464844 27.71875 40.488281 26.117188 39.40625 24.597656 C 37.984375 22.683594 36.433594 20.367188 34.078125 19.613281 C 34.078125 19.613281 34.140625 19.519531 34.140625 19.519531 C 35.96875 21.84375 37.980469 24.015625 39.761719 26.382812 C 39.761719 26.382812 40.660156 27.558594 40.660156 27.558594 C 40.953125 27.953125 41.25 28.347656 41.539062 28.75 Z M 41.511719 28.769531 "/>
</g>
<mask id="mask11">
  <g filter="url(#alpha)">
<rect x="0" y="0" width="47" height="34" style="fill:rgb(0%,0%,0%);fill-opacity:0.239216;stroke:none;"/>
  </g>
</mask>
<clipPath id="clip12">
  <rect x="0" y="0" width="47" height="34"/>
</clipPath>
<g id="surface38" clip-path="url(#clip12)">
<path style=" stroke:none;fill-rule:nonzero;fill:rgb(0%,0%,0%);fill-opacity:1;" d="M 0.046875 30.347656 C 0.316406 28.972656 0.804688 27.644531 1.46875 26.414062 C 1.789062 25.867188 2.25 25.171875 2.597656 24.652344 C 3.199219 23.796875 3.785156 22.933594 4.453125 22.128906 C 5.113281 21.367188 5.917969 20.578125 6.695312 19.9375 C 7.789062 19.070312 8.988281 18.339844 10.265625 17.808594 L 10.28125 17.839844 C 8.796875 18.722656 7.425781 19.746094 6.128906 20.878906 C 4.867188 22.027344 3.625 23.273438 2.683594 24.710938 C 1.980469 25.875 1.398438 27.179688 0.835938 28.417969 C 0.574219 29.058594 0.324219 29.703125 0.0742188 30.351562 C 0.0742188 30.351562 0.0429688 30.34375 0.0429688 30.34375 L 0.046875 30.34375 Z M 0.046875 30.347656 "/>
</g>
<mask id="mask12">
  <g filter="url(#alpha)">
<rect x="0" y="0" width="47" height="34" style="fill:rgb(0%,0%,0%);fill-opacity:0.239216;stroke:none;"/>
  </g>
</mask>
<clipPath id="clip13">
  <rect x="0" y="0" width="47" height="34"/>
</clipPath>
<g id="surface41" clip-path="url(#clip13)">
<path style=" stroke:none;fill-rule:nonzero;fill:rgb(0%,0%,0%);fill-opacity:1;" d="M 1.78125 28.160156 C 1.976562 27.570312 2.269531 26.992188 2.609375 26.472656 C 2.941406 25.9375 3.410156 25.5 3.84375 25.054688 C 4.429688 24.460938 4.972656 23.820312 5.632812 23.308594 C 6.605469 22.527344 7.730469 21.917969 8.910156 21.53125 C 8.910156 21.53125 8.921875 21.558594 8.921875 21.558594 C 7.875 22.230469 6.835938 22.855469 5.816406 23.558594 C 5.15625 24.042969 4.460938 24.503906 3.921875 25.128906 C 3.402344 25.765625 2.976562 26.472656 2.503906 27.144531 C 2.269531 27.484375 2.050781 27.835938 1.808594 28.175781 C 1.808594 28.175781 1.78125 28.160156 1.78125 28.160156 Z M 1.78125 28.160156 "/>
</g>
<mask id="mask13">
  <g filter="url(#alpha)">
<rect x="0" y="0" width="47" height="34" style="fill:rgb(0%,0%,0%);fill-opacity:0.239216;stroke:none;"/>
  </g>
</mask>
<clipPath id="clip14">
  <rect x="0" y="0" width="47" height="34"/>
</clipPath>
<g id="surface44" clip-path="url(#clip14)">
<path style=" stroke:none;fill-rule:nonzero;fill:rgb(0%,0%,0%);fill-opacity:1;" d="M 3.007812 21.851562 C 5.097656 17.046875 8.933594 13.046875 13.621094 10.792969 C 16.425781 9.445312 19.472656 8.714844 22.332031 7.523438 C 24.230469 6.726562 26.058594 5.742188 27.679688 4.472656 C 27.933594 4.246094 28.3125 4.054688 28.445312 3.742188 C 28.53125 3.394531 28.183594 3.421875 27.878906 3.546875 C 25.726562 4.429688 23.558594 5.316406 21.316406 5.953125 C 18.324219 6.761719 15.25 7.367188 12.144531 7.445312 C 15.144531 7.121094 18.28125 6.535156 21.230469 5.648438 C 23.453125 4.992188 25.601562 4.09375 27.757812 3.234375 C 28.25 3.003906 28.925781 3.148438 28.75 3.839844 C 28.585938 4.265625 28.183594 4.445312 27.867188 4.722656 C 24.546875 7.335938 20.410156 8.3125 16.535156 9.714844 C 15.566406 10.070312 14.617188 10.484375 13.703125 10.960938 C 9.117188 13.335938 5.371094 17.289062 3.007812 21.851562 Z M 3.007812 21.851562 "/>
</g>
</defs>
<g id="surface1">
<use xlink:href="#surface5" mask="url(#mask0)"/>
<path style=" stroke:none;fill-rule:nonzero;fill:rgb(85.098039%,85.882353%,90.980392%);fill-opacity:1;" d="M 8.863281 22.589844 C 14.695312 21.007812 21.023438 21.375 26.636719 23.613281 C 24.886719 18.882812 20.5 15.359375 15.535156 14.792969 C 14.40625 14.664062 13.226562 14.6875 12.1875 15.152344 C 11.058594 15.660156 10.214844 16.632812 9.410156 17.582031 C 8.871094 18.210938 8.324219 18.855469 7.992188 19.617188 C 7.660156 20.378906 8.480469 21.851562 8.863281 22.589844 Z M 8.863281 22.589844 "/>
<path style=" stroke:none;fill-rule:nonzero;fill:rgb(7.843137%,81.960784%,87.45098%);fill-opacity:1;" d="M 23.929688 23.730469 C 26.03125 25.164062 28.894531 27.039062 31.128906 28.171875 C 33.070312 29.160156 38.660156 31.707031 40.285156 32.371094 C 41.601562 32.90625 42.988281 33.335938 44.359375 33.710938 C 44.492188 33.746094 45.886719 34.179688 45.933594 33.914062 C 47.121094 26.730469 48.105469 19.53125 44.277344 12.933594 C 41.347656 7.882812 36.410156 4.996094 31.476562 2.285156 C 29.277344 1.078125 26.777344 0.355469 24.261719 0.496094 C 22.285156 0.605469 20.476562 2.261719 19.300781 3.777344 C 16.011719 8.027344 15.472656 13.179688 18.238281 17.886719 C 19.660156 20.304688 21.667969 22.183594 23.929688 23.730469 Z M 23.929688 23.730469 "/>
<use xlink:href="#surface8" mask="url(#mask1)"/>
<use xlink:href="#surface11" mask="url(#mask2)"/>
<use xlink:href="#surface14" mask="url(#mask3)"/>
<use xlink:href="#surface17" mask="url(#mask4)"/>
<use xlink:href="#surface20" mask="url(#mask5)"/>
<use xlink:href="#surface23" mask="url(#mask6)"/>
<use xlink:href="#surface26" mask="url(#mask7)"/>
<use xlink:href="#surface29" mask="url(#mask8)"/>
<use xlink:href="#surface32" mask="url(#mask9)"/>
<path style=" stroke:none;fill-rule:nonzero;fill:rgb(7.843137%,81.960784%,87.45098%);fill-opacity:1;" d="M 6.65625 25.410156 C 9.46875 22.832031 12.917969 21.164062 16.152344 19.210938 C 20.757812 16.429688 25.253906 13.445312 29.734375 10.46875 C 30.703125 9.824219 37.371094 5.6875 35.382812 4.019531 C 29.417969 -0.980469 19.707031 -1.230469 13.167969 2.796875 C 10.191406 4.632812 7.683594 7.203125 5.808594 10.171875 C 2.328125 15.671875 1.542969 22.015625 0.234375 28.269531 C 0.0820312 29 -0.0078125 29.757812 0.0078125 30.503906 C 0.0195312 31.148438 0.332031 31.730469 0.496094 32.332031 C 0.570312 32.09375 0.699219 31.816406 0.777344 31.679688 C 0.933594 31.402344 1.113281 31.140625 1.308594 30.886719 C 1.722656 30.359375 2.207031 29.898438 2.660156 29.40625 C 3.929688 28.011719 5.269531 26.683594 6.65625 25.410156 Z M 6.65625 25.410156 "/>
<use xlink:href="#surface35" mask="url(#mask10)"/>
<use xlink:href="#surface38" mask="url(#mask11)"/>
<use xlink:href="#surface41" mask="url(#mask12)"/>
<use xlink:href="#surface44" mask="url(#mask13)"/>
</g>
</svg>
