<?xml version="1.0" encoding="UTF-8"?>
<svg xmlns="http://www.w3.org/2000/svg" xmlns:xlink="http://www.w3.org/1999/xlink" width="48px" height="px" viewBox="0 0 48 30" version="1.1">
<defs>
<filter id="alpha" filterUnits="objectBoundingBox" x="0%" y="0%" width="100%" height="100%">
  <feColorMatrix type="matrix" in="SourceGraphic" values="0 0 0 0 1 0 0 0 0 1 0 0 0 0 1 0 0 0 1 0"/>
</filter>
<mask id="mask0">
  <g filter="url(#alpha)">
<rect x="0" y="0" width="48" height="30" style="fill:rgb(0%,0%,0%);fill-opacity:0.180392;stroke:none;"/>
  </g>
</mask>
<clipPath id="clip1">
  <rect x="0" y="0" width="48" height="30"/>
</clipPath>
<g id="surface5" clip-path="url(#clip1)">
<path style=" stroke:none;fill-rule:nonzero;fill:rgb(0%,0%,0%);fill-opacity:1;" d="M 38.101562 29.511719 C 37.914062 29.234375 37.609375 29.0625 37.3125 28.902344 C 30.582031 25.261719 23.355469 22.546875 15.90625 20.859375 C 13.414062 20.296875 10.871094 19.847656 8.320312 19.988281 C 7.046875 20.054688 5.777344 20.28125 4.566406 20.699219 C 3.667969 21.011719 1.757812 21.664062 1.324219 22.566406 C 1.480469 22.246094 2.632812 22.386719 2.898438 22.394531 C 3.679688 22.417969 4.464844 22.367188 5.253906 22.332031 C 6.984375 22.261719 8.714844 22.257812 10.445312 22.320312 C 13.8125 22.441406 17.3125 22.691406 20.601562 23.453125 C 23.84375 24.207031 27.003906 25.359375 30.101562 26.570312 C 32.769531 27.609375 38.292969 29.789062 38.101562 29.511719 Z M 38.101562 29.511719 "/>
</g>
<mask id="mask1">
  <g filter="url(#alpha)">
<rect x="0" y="0" width="48" height="30" style="fill:rgb(0%,0%,0%);fill-opacity:0.45098;stroke:none;"/>
  </g>
</mask>
<clipPath id="clip2">
  <rect x="0" y="0" width="48" height="30"/>
</clipPath>
<g id="surface8" clip-path="url(#clip2)">
<path style=" stroke:none;fill-rule:nonzero;fill:rgb(100%,100%,100%);fill-opacity:1;" d="M 7.878906 21.613281 C 10.429688 21.386719 11.394531 21.367188 14.003906 21.5 L 15.046875 8.003906 L 13.453125 4.769531 C 14.382812 4.425781 15.046875 3.527344 15.046875 2.464844 C 15.046875 1.109375 13.960938 0.0078125 12.621094 0.0078125 C 11.277344 0.0078125 10.191406 1.109375 10.191406 2.464844 C 10.191406 3.402344 10.710938 4.214844 11.46875 4.628906 L 8.8125 8.339844 Z M 7.878906 21.613281 "/>
</g>
<mask id="mask2">
  <g filter="url(#alpha)">
<rect x="0" y="0" width="48" height="30" style="fill:rgb(0%,0%,0%);fill-opacity:0.180392;stroke:none;"/>
  </g>
</mask>
<clipPath id="clip3">
  <rect x="0" y="0" width="48" height="30"/>
</clipPath>
<g id="surface11" clip-path="url(#clip3)">
<path style=" stroke:none;fill-rule:nonzero;fill:rgb(0%,0%,0%);fill-opacity:1;" d="M 38.222656 29.992188 L 45.328125 14.148438 C 46.191406 14.347656 47.210938 13.703125 47.714844 12.589844 C 48.273438 11.355469 47.984375 10.015625 47.074219 9.59375 C 46.160156 9.171875 44.96875 9.828125 44.410156 11.0625 C 44.015625 11.9375 44.046875 12.867188 44.425781 13.484375 L 37.910156 17.390625 L 37.296875 13.53125 L 31.492188 26.378906 C 35.875 28.347656 38.222656 29.992188 38.222656 29.992188 Z M 38.222656 29.992188 "/>
</g>
</defs>
<g id="surface1">
<use xlink:href="#surface5" mask="url(#mask0)"/>
<path style=" stroke:none;fill-rule:nonzero;fill:rgb(98.431373%,69.019608%,25.098039%);fill-opacity:1;" d="M 38.222656 29.992188 C 38.222656 29.992188 32.019531 25.648438 20.953125 22.625 C 10.765625 19.84375 1.390625 22.789062 1.390625 22.789062 L 1.503906 4.121094 L 6.316406 11.824219 L 12.605469 3.042969 L 17.199219 12.378906 L 24.660156 4.476562 L 28.773438 14.453125 L 36.3125 7.34375 L 37.910156 17.390625 L 46.0625 12.5 Z M 38.222656 29.992188 "/>
<path style=" stroke:none;fill-rule:nonzero;fill:rgb(98.431373%,69.019608%,25.098039%);fill-opacity:1;" d="M 3.632812 3.679688 C 3.632812 2.320312 2.820312 1.222656 1.816406 1.222656 C 0.8125 1.222656 0 2.320312 0 3.679688 C 0 5.035156 0.8125 6.136719 1.816406 6.136719 C 2.820312 6.136719 3.632812 5.035156 3.632812 3.679688 Z M 3.632812 3.679688 "/>
<path style=" stroke:none;fill-rule:nonzero;fill:rgb(98.431373%,69.019608%,25.098039%);fill-opacity:1;" d="M 47.070312 9.589844 C 46.160156 9.167969 44.96875 9.828125 44.410156 11.0625 C 43.855469 12.292969 44.140625 13.636719 45.054688 14.058594 C 45.964844 14.480469 47.15625 13.824219 47.714844 12.589844 C 48.269531 11.355469 47.984375 10.011719 47.070312 9.589844 Z M 47.070312 9.589844 "/>
<path style=" stroke:none;fill-rule:nonzero;fill:rgb(98.431373%,69.019608%,25.098039%);fill-opacity:1;" d="M 15.046875 2.464844 C 15.046875 3.824219 13.960938 4.921875 12.621094 4.921875 C 11.277344 4.921875 10.191406 3.824219 10.191406 2.464844 C 10.191406 1.109375 11.277344 0.0078125 12.621094 0.0078125 C 13.960938 0.0078125 15.046875 1.109375 15.046875 2.464844 Z M 15.046875 2.464844 "/>
<path style=" stroke:none;fill-rule:nonzero;fill:rgb(98.431373%,69.019608%,25.098039%);fill-opacity:1;" d="M 27.238281 3.835938 C 27.238281 5.195312 26.152344 6.292969 24.8125 6.292969 C 23.472656 6.292969 22.382812 5.195312 22.382812 3.835938 C 22.382812 2.480469 23.472656 1.378906 24.8125 1.378906 C 26.152344 1.378906 27.238281 2.480469 27.238281 3.835938 Z M 27.238281 3.835938 "/>
<path style=" stroke:none;fill-rule:nonzero;fill:rgb(98.431373%,69.019608%,25.098039%);fill-opacity:1;" d="M 38.898438 6.609375 C 38.898438 7.96875 37.8125 9.066406 36.46875 9.066406 C 35.128906 9.066406 34.042969 7.96875 34.042969 6.609375 C 34.042969 5.253906 35.128906 4.15625 36.46875 4.15625 C 37.8125 4.15625 38.898438 5.253906 38.898438 6.609375 Z M 38.898438 6.609375 "/>
<use xlink:href="#surface8" mask="url(#mask1)"/>
<use xlink:href="#surface11" mask="url(#mask2)"/>
</g>
</svg>
