<?xml version="1.0" encoding="UTF-8"?>
<svg xmlns="http://www.w3.org/2000/svg" xmlns:xlink="http://www.w3.org/1999/xlink" width="48px" height="px" viewBox="0 0 47 30" version="1.1">
<g id="surface1">
<path style=" stroke:none;fill-rule:nonzero;fill:rgb(0%,0%,0%);fill-opacity:1;" d="M 37.789062 15.832031 C 41.296875 19.410156 43.609375 24.613281 45.464844 29.496094 C 45.804688 30.394531 47.144531 29.992188 46.941406 29.050781 C 46.941406 29.039062 46.9375 29.03125 46.9375 29.019531 C 46.222656 25.765625 44.871094 22.449219 43.351562 19.492188 C 40.160156 13.285156 34.136719 8.894531 27.460938 7.410156 C 21.265625 6.035156 14.945312 6.644531 9.777344 10.488281 C 7.714844 12.019531 5.214844 14.667969 4.574219 17.25 C 4.546875 17.351562 4.675781 17.417969 4.746094 17.339844 C 7.941406 13.65625 12.785156 8.585938 20.777344 8.585938 C 23.675781 8.585938 26.59375 9.449219 28.402344 10.019531 C 32.316406 11.253906 34.894531 12.878906 37.792969 15.832031 Z M 37.789062 15.832031 "/>
<path style=" stroke:none;fill-rule:nonzero;fill:rgb(0%,0%,0%);fill-opacity:1;" d="M 40.722656 0.882812 C 41.757812 0.390625 42.9375 -0.03125 44.046875 0.285156 C 45.976562 0.835938 46.597656 3.1875 46.78125 5.152344 C 47.113281 8.765625 47.066406 12.308594 46.023438 15.808594 C 45.5625 17.347656 45 19.023438 43.617188 19.875 C 43.339844 20.046875 42.980469 20.175781 42.695312 20.027344 C 42.503906 19.925781 42.394531 19.726562 42.289062 19.539062 C 41.039062 17.269531 39.347656 14.890625 36.929688 13.851562 C 35.207031 13.109375 31.71875 12.113281 31.425781 9.859375 C 31.214844 8.269531 34.085938 5.722656 35.152344 4.714844 C 36.792969 3.164062 38.675781 1.859375 40.722656 0.882812 Z M 40.722656 0.882812 "/>
<path style=" stroke:none;fill-rule:nonzero;fill:rgb(0%,0%,0%);fill-opacity:1;" d="M 11.359375 11.117188 C 11.84375 10.898438 12.332031 10.472656 12.765625 10.25 C 13.199219 10.03125 13.667969 9.765625 13.792969 9.332031 C 13.898438 8.976562 13.738281 9.039062 13.574219 8.703125 C 11.96875 5.425781 9.46875 3.277344 6.394531 1.027344 C 5.585938 0.4375 4.609375 -0.140625 3.585938 0.03125 C 1.382812 0.394531 0.96875 2.996094 0.816406 4.617188 C 0.59375 6.976562 0.511719 8.570312 0.515625 10.941406 C 0.523438 13.738281 0.578125 17.605469 3.128906 19.578125 C 3.734375 18.613281 6.695312 14.542969 8.039062 13.652344 C 8.65625 13.242188 8.914062 12.863281 9.5 12.390625 C 10.015625 11.972656 10.683594 11.425781 11.359375 11.121094 Z M 11.359375 11.117188 "/>
<path style=" stroke:none;fill-rule:nonzero;fill:rgb(90.196078%,90.588235%,90.980392%);fill-opacity:1;" d="M 42.6875 4.378906 C 42.808594 4.34375 42.941406 4.316406 43.070312 4.335938 C 43.230469 4.367188 43.367188 4.484375 43.472656 4.609375 C 44.050781 5.292969 43.917969 6.304688 44.230469 7.136719 C 44.503906 7.867188 45.148438 8.453125 45.914062 8.660156 C 45.507812 9.144531 44.847656 9.375 44.207031 9.402344 C 43.570312 9.433594 43.558594 9.433594 42.9375 9.289062 C 43.285156 10.132812 43.925781 10.90625 45.003906 11.546875 C 44.175781 11.699219 42.804688 12.101562 42.039062 11.757812 C 42.304688 12.675781 42.859375 13.3125 43.464844 14.058594 C 42.09375 14.472656 40.386719 13.964844 39.1875 13.1875 C 37.539062 12.117188 36.4375 10.640625 37.621094 8.921875 C 38.804688 7.203125 40.550781 4.960938 42.6875 4.378906 Z M 42.6875 4.378906 "/>
<path style=" stroke:none;fill-rule:nonzero;fill:rgb(90.196078%,90.588235%,90.980392%);fill-opacity:1;" d="M 6.710938 5.636719 C 6.195312 5.011719 5.617188 4.425781 4.988281 3.894531 C 4.746094 3.691406 4.472656 3.484375 4.140625 3.464844 C 3.746094 3.445312 3.398438 3.703125 3.164062 3.996094 C 2.722656 4.546875 2.449219 5.15625 1.914062 5.644531 C 1.679688 5.855469 0.394531 6.929688 0.0351562 6.765625 C 1.214844 7.316406 2.515625 7.652344 3.835938 7.75 C 2.800781 8.535156 1.671875 9.210938 0.46875 9.765625 C 1.441406 9.867188 2.585938 9.800781 3.554688 9.789062 C 3.738281 9.789062 2.933594 10.503906 2.496094 10.929688 C 1.933594 11.476562 1.410156 11.90625 0.710938 12.316406 C 1.210938 12.433594 2.261719 12.335938 2.648438 12.296875 C 3.511719 12.214844 4.316406 11.867188 4.875 11.25 C 4.882812 11.5625 4.664062 13.183594 4.191406 13.183594 C 4.550781 13.183594 6.164062 12.402344 6.546875 12.148438 C 7.714844 11.382812 8.914062 10.375 8.652344 8.800781 C 8.535156 8.089844 8.015625 7.488281 7.628906 6.886719 C 7.351562 6.457031 7.046875 6.039062 6.714844 5.636719 Z M 6.710938 5.636719 "/>
</g>
</svg>
