<?xml version="1.0" encoding="UTF-8"?>
<svg xmlns="http://www.w3.org/2000/svg" xmlns:xlink="http://www.w3.org/1999/xlink" width="48px" height="px" viewBox="0 0 48 44" version="1.1">
<defs>
<filter id="alpha" filterUnits="objectBoundingBox" x="0%" y="0%" width="100%" height="100%">
  <feColorMatrix type="matrix" in="SourceGraphic" values="0 0 0 0 1 0 0 0 0 1 0 0 0 0 1 0 0 0 1 0"/>
</filter>
<mask id="mask0">
  <g filter="url(#alpha)">
<rect x="0" y="0" width="48" height="44" style="fill:rgb(0%,0%,0%);fill-opacity:0.180392;stroke:none;"/>
  </g>
</mask>
<clipPath id="clip1">
  <rect x="0" y="0" width="48" height="44"/>
</clipPath>
<g id="surface5" clip-path="url(#clip1)">
<path style=" stroke:none;fill-rule:nonzero;fill:rgb(0%,0%,0%);fill-opacity:1;" d="M 11.765625 15.070312 C 14.539062 14.464844 17.476562 14.363281 20.253906 14.371094 C 20.820312 14.371094 21.390625 14.382812 21.957031 14.421875 C 25.167969 14.632812 28.433594 15.234375 31.449219 16.363281 C 31.539062 15.648438 30.921875 15.203125 30.347656 14.765625 C 29.777344 14.328125 29.070312 14.113281 28.378906 13.921875 C 22.050781 12.1875 14.546875 11.933594 8.390625 14.511719 C 7.339844 14.953125 6.542969 15.824219 6.277344 16.960938 C 6.308594 16.824219 10.371094 15.375 11.765625 15.070312 Z M 11.765625 15.070312 "/>
</g>
<mask id="mask1">
  <g filter="url(#alpha)">
<rect x="0" y="0" width="48" height="44" style="fill:rgb(0%,0%,0%);fill-opacity:0.180392;stroke:none;"/>
  </g>
</mask>
<clipPath id="clip2">
  <rect x="0" y="0" width="48" height="44"/>
</clipPath>
<g id="surface8" clip-path="url(#clip2)">
<path style=" stroke:none;fill-rule:nonzero;fill:rgb(0%,0%,0%);fill-opacity:1;" d="M 30.976562 39.363281 C 31.070312 40.019531 31.074219 40.808594 31.46875 41.367188 C 32.808594 43.261719 36.242188 40.535156 37.347656 39.550781 C 38.671875 38.371094 39.34375 37.5 40.25 35.898438 C 41.941406 32.921875 43.175781 29.289062 45.800781 27.097656 C 42.316406 24.429688 39.257812 21.203125 36.769531 17.582031 C 36.214844 16.773438 35.507812 17.308594 34.734375 17.546875 C 33.832031 17.824219 33 18.351562 32.367188 19.058594 C 31.917969 19.558594 31.40625 20.105469 31.324219 20.777344 C 30.933594 23.90625 30.527344 36.195312 30.972656 39.363281 Z M 30.976562 39.363281 "/>
</g>
<mask id="mask2">
  <g filter="url(#alpha)">
<rect x="0" y="0" width="48" height="44" style="fill:rgb(0%,0%,0%);fill-opacity:0.180392;stroke:none;"/>
  </g>
</mask>
<clipPath id="clip3">
  <rect x="0" y="0" width="48" height="44"/>
</clipPath>
<g id="surface11" clip-path="url(#clip3)">
<path style=" stroke:none;fill-rule:nonzero;fill:rgb(0%,0%,0%);fill-opacity:1;" d="M 7.179688 15.898438 C 7.1875 15.867188 7.191406 15.835938 7.195312 15.804688 C 7.246094 15.460938 7.191406 15.109375 7.136719 14.761719 C 6.898438 13.253906 6.65625 11.746094 6.417969 10.238281 C 6.386719 10.042969 6.351562 9.839844 6.222656 9.6875 C 6.023438 9.449219 5.640625 9.429688 5.375 9.589844 C 4.171875 10.316406 4.613281 12.441406 4.605469 13.609375 C 4.597656 15.792969 4.359375 17.914062 3.972656 20.046875 C 3.742188 21.332031 3.578125 22.636719 3.320312 23.921875 C 3.230469 24.359375 2.824219 27.65625 2.699219 28.011719 C 2.839844 27.984375 3.890625 27.675781 3.890625 27.675781 C 3.785156 25.503906 3.992188 23.34375 4.5625 21.378906 C 4.898438 20.226562 5.375 19.113281 5.9375 18.054688 C 6.160156 17.632812 6.375 17.15625 6.648438 16.761719 C 6.855469 16.464844 7.09375 16.261719 7.179688 15.898438 Z M 7.179688 15.898438 "/>
</g>
<clipPath id="clip4">
  <path d="M 9 0 L 16 0 L 16 16 L 9 16 Z M 9 0 "/>
</clipPath>
<clipPath id="clip5">
  <path d="M 7.253906 15.914062 C 13.359375 12.984375 24.691406 12.867188 30.914062 15.535156 C 31.222656 23.660156 31.59375 31.484375 31.902344 39.609375 C 31.910156 39.835938 31.933594 40.09375 32.109375 40.238281 C 32.269531 40.378906 32.507812 40.367188 32.71875 40.335938 C 34.972656 40.015625 36.828125 38.359375 38.164062 36.507812 C 39.5 34.65625 40.46875 32.550781 41.832031 30.722656 C 43.199219 28.894531 45.121094 27.289062 47.386719 27.082031 C 44.683594 23.082031 41.996094 18.421875 39.859375 14.089844 C 38.429688 11.203125 37.207031 8.097656 34.871094 5.886719 C 31.089844 2.304688 25.949219 0.546875 20.75 0.65625 C 17.476562 0.722656 14.226562 1.578125 11.320312 3.082031 C 8.710938 4.433594 5.519531 6.449219 4.320312 9.269531 C 3.789062 10.511719 3.703125 11.894531 3.625 13.25 C 3.445312 16.273438 3.085938 19.28125 2.730469 22.289062 C 2.691406 22.632812 2.207031 27.695312 2.089844 28.152344 C 2.695312 28.019531 3.890625 27.675781 3.890625 27.675781 C 3.785156 25.503906 3.992188 23.34375 4.5625 21.378906 C 5.132812 19.414062 6.203125 17.371094 7.253906 15.914062 Z M 7.253906 15.914062 "/>
</clipPath>
<clipPath id="clip6">
  <path d="M 15 0 L 25 0 L 25 15 L 15 15 Z M 15 0 "/>
</clipPath>
<clipPath id="clip7">
  <path d="M 7.253906 15.914062 C 13.359375 12.984375 24.691406 12.867188 30.914062 15.535156 C 31.222656 23.660156 31.59375 31.484375 31.902344 39.609375 C 31.910156 39.835938 31.933594 40.09375 32.109375 40.238281 C 32.269531 40.378906 32.507812 40.367188 32.71875 40.335938 C 34.972656 40.015625 36.828125 38.359375 38.164062 36.507812 C 39.5 34.65625 40.46875 32.550781 41.832031 30.722656 C 43.199219 28.894531 45.121094 27.289062 47.386719 27.082031 C 44.683594 23.082031 41.996094 18.421875 39.859375 14.089844 C 38.429688 11.203125 37.207031 8.097656 34.871094 5.886719 C 31.089844 2.304688 25.949219 0.546875 20.75 0.65625 C 17.476562 0.722656 14.226562 1.578125 11.320312 3.082031 C 8.710938 4.433594 5.519531 6.449219 4.320312 9.269531 C 3.789062 10.511719 3.703125 11.894531 3.625 13.25 C 3.445312 16.273438 3.085938 19.28125 2.730469 22.289062 C 2.691406 22.632812 2.207031 27.695312 2.089844 28.152344 C 2.695312 28.019531 3.890625 27.675781 3.890625 27.675781 C 3.785156 25.503906 3.992188 23.34375 4.5625 21.378906 C 5.132812 19.414062 6.203125 17.371094 7.253906 15.914062 Z M 7.253906 15.914062 "/>
</clipPath>
<clipPath id="clip8">
  <path d="M 22 1 L 32 1 L 32 15 L 22 15 Z M 22 1 "/>
</clipPath>
<clipPath id="clip9">
  <path d="M 7.253906 15.914062 C 13.359375 12.984375 24.691406 12.867188 30.914062 15.535156 C 31.222656 23.660156 31.59375 31.484375 31.902344 39.609375 C 31.910156 39.835938 31.933594 40.09375 32.109375 40.238281 C 32.269531 40.378906 32.507812 40.367188 32.71875 40.335938 C 34.972656 40.015625 36.828125 38.359375 38.164062 36.507812 C 39.5 34.65625 40.46875 32.550781 41.832031 30.722656 C 43.199219 28.894531 45.121094 27.289062 47.386719 27.082031 C 44.683594 23.082031 41.996094 18.421875 39.859375 14.089844 C 38.429688 11.203125 37.207031 8.097656 34.871094 5.886719 C 31.089844 2.304688 25.949219 0.546875 20.75 0.65625 C 17.476562 0.722656 14.226562 1.578125 11.320312 3.082031 C 8.710938 4.433594 5.519531 6.449219 4.320312 9.269531 C 3.789062 10.511719 3.703125 11.894531 3.625 13.25 C 3.445312 16.273438 3.085938 19.28125 2.730469 22.289062 C 2.691406 22.632812 2.207031 27.695312 2.089844 28.152344 C 2.695312 28.019531 3.890625 27.675781 3.890625 27.675781 C 3.785156 25.503906 3.992188 23.34375 4.5625 21.378906 C 5.132812 19.414062 6.203125 17.371094 7.253906 15.914062 Z M 7.253906 15.914062 "/>
</clipPath>
<clipPath id="clip10">
  <path d="M 29 5 L 38 5 L 38 16 L 29 16 Z M 29 5 "/>
</clipPath>
<clipPath id="clip11">
  <path d="M 7.253906 15.914062 C 13.359375 12.984375 24.691406 12.867188 30.914062 15.535156 C 31.222656 23.660156 31.59375 31.484375 31.902344 39.609375 C 31.910156 39.835938 31.933594 40.09375 32.109375 40.238281 C 32.269531 40.378906 32.507812 40.367188 32.71875 40.335938 C 34.972656 40.015625 36.828125 38.359375 38.164062 36.507812 C 39.5 34.65625 40.46875 32.550781 41.832031 30.722656 C 43.199219 28.894531 45.121094 27.289062 47.386719 27.082031 C 44.683594 23.082031 41.996094 18.421875 39.859375 14.089844 C 38.429688 11.203125 37.207031 8.097656 34.871094 5.886719 C 31.089844 2.304688 25.949219 0.546875 20.75 0.65625 C 17.476562 0.722656 14.226562 1.578125 11.320312 3.082031 C 8.710938 4.433594 5.519531 6.449219 4.320312 9.269531 C 3.789062 10.511719 3.703125 11.894531 3.625 13.25 C 3.445312 16.273438 3.085938 19.28125 2.730469 22.289062 C 2.691406 22.632812 2.207031 27.695312 2.089844 28.152344 C 2.695312 28.019531 3.890625 27.675781 3.890625 27.675781 C 3.785156 25.503906 3.992188 23.34375 4.5625 21.378906 C 5.132812 19.414062 6.203125 17.371094 7.253906 15.914062 Z M 7.253906 15.914062 "/>
</clipPath>
<clipPath id="clip12">
  <path d="M 30 14 L 42 14 L 42 22 L 30 22 Z M 30 14 "/>
</clipPath>
<clipPath id="clip13">
  <path d="M 7.253906 15.914062 C 13.359375 12.984375 24.691406 12.867188 30.914062 15.535156 C 31.222656 23.660156 31.59375 31.484375 31.902344 39.609375 C 31.910156 39.835938 31.933594 40.09375 32.109375 40.238281 C 32.269531 40.378906 32.507812 40.367188 32.71875 40.335938 C 34.972656 40.015625 36.828125 38.359375 38.164062 36.507812 C 39.5 34.65625 40.46875 32.550781 41.832031 30.722656 C 43.199219 28.894531 45.121094 27.289062 47.386719 27.082031 C 44.683594 23.082031 41.996094 18.421875 39.859375 14.089844 C 38.429688 11.203125 37.207031 8.097656 34.871094 5.886719 C 31.089844 2.304688 25.949219 0.546875 20.75 0.65625 C 17.476562 0.722656 14.226562 1.578125 11.320312 3.082031 C 8.710938 4.433594 5.519531 6.449219 4.320312 9.269531 C 3.789062 10.511719 3.703125 11.894531 3.625 13.25 C 3.445312 16.273438 3.085938 19.28125 2.730469 22.289062 C 2.691406 22.632812 2.207031 27.695312 2.089844 28.152344 C 2.695312 28.019531 3.890625 27.675781 3.890625 27.675781 C 3.785156 25.503906 3.992188 23.34375 4.5625 21.378906 C 5.132812 19.414062 6.203125 17.371094 7.253906 15.914062 Z M 7.253906 15.914062 "/>
</clipPath>
<clipPath id="clip14">
  <path d="M 30 19 L 45 19 L 45 30 L 30 30 Z M 30 19 "/>
</clipPath>
<clipPath id="clip15">
  <path d="M 7.253906 15.914062 C 13.359375 12.984375 24.691406 12.867188 30.914062 15.535156 C 31.222656 23.660156 31.59375 31.484375 31.902344 39.609375 C 31.910156 39.835938 31.933594 40.09375 32.109375 40.238281 C 32.269531 40.378906 32.507812 40.367188 32.71875 40.335938 C 34.972656 40.015625 36.828125 38.359375 38.164062 36.507812 C 39.5 34.65625 40.46875 32.550781 41.832031 30.722656 C 43.199219 28.894531 45.121094 27.289062 47.386719 27.082031 C 44.683594 23.082031 41.996094 18.421875 39.859375 14.089844 C 38.429688 11.203125 37.207031 8.097656 34.871094 5.886719 C 31.089844 2.304688 25.949219 0.546875 20.75 0.65625 C 17.476562 0.722656 14.226562 1.578125 11.320312 3.082031 C 8.710938 4.433594 5.519531 6.449219 4.320312 9.269531 C 3.789062 10.511719 3.703125 11.894531 3.625 13.25 C 3.445312 16.273438 3.085938 19.28125 2.730469 22.289062 C 2.691406 22.632812 2.207031 27.695312 2.089844 28.152344 C 2.695312 28.019531 3.890625 27.675781 3.890625 27.675781 C 3.785156 25.503906 3.992188 23.34375 4.5625 21.378906 C 5.132812 19.414062 6.203125 17.371094 7.253906 15.914062 Z M 7.253906 15.914062 "/>
</clipPath>
<clipPath id="clip16">
  <path d="M 31 25 L 48 25 L 48 37 L 31 37 Z M 31 25 "/>
</clipPath>
<clipPath id="clip17">
  <path d="M 7.253906 15.914062 C 13.359375 12.984375 24.691406 12.867188 30.914062 15.535156 C 31.222656 23.660156 31.59375 31.484375 31.902344 39.609375 C 31.910156 39.835938 31.933594 40.09375 32.109375 40.238281 C 32.269531 40.378906 32.507812 40.367188 32.71875 40.335938 C 34.972656 40.015625 36.828125 38.359375 38.164062 36.507812 C 39.5 34.65625 40.46875 32.550781 41.832031 30.722656 C 43.199219 28.894531 45.121094 27.289062 47.386719 27.082031 C 44.683594 23.082031 41.996094 18.421875 39.859375 14.089844 C 38.429688 11.203125 37.207031 8.097656 34.871094 5.886719 C 31.089844 2.304688 25.949219 0.546875 20.75 0.65625 C 17.476562 0.722656 14.226562 1.578125 11.320312 3.082031 C 8.710938 4.433594 5.519531 6.449219 4.320312 9.269531 C 3.789062 10.511719 3.703125 11.894531 3.625 13.25 C 3.445312 16.273438 3.085938 19.28125 2.730469 22.289062 C 2.691406 22.632812 2.207031 27.695312 2.089844 28.152344 C 2.695312 28.019531 3.890625 27.675781 3.890625 27.675781 C 3.785156 25.503906 3.992188 23.34375 4.5625 21.378906 C 5.132812 19.414062 6.203125 17.371094 7.253906 15.914062 Z M 7.253906 15.914062 "/>
</clipPath>
<clipPath id="clip18">
  <path d="M 31 36 L 39 36 L 39 41 L 31 41 Z M 31 36 "/>
</clipPath>
<clipPath id="clip19">
  <path d="M 7.253906 15.914062 C 13.359375 12.984375 24.691406 12.867188 30.914062 15.535156 C 31.222656 23.660156 31.59375 31.484375 31.902344 39.609375 C 31.910156 39.835938 31.933594 40.09375 32.109375 40.238281 C 32.269531 40.378906 32.507812 40.367188 32.71875 40.335938 C 34.972656 40.015625 36.828125 38.359375 38.164062 36.507812 C 39.5 34.65625 40.46875 32.550781 41.832031 30.722656 C 43.199219 28.894531 45.121094 27.289062 47.386719 27.082031 C 44.683594 23.082031 41.996094 18.421875 39.859375 14.089844 C 38.429688 11.203125 37.207031 8.097656 34.871094 5.886719 C 31.089844 2.304688 25.949219 0.546875 20.75 0.65625 C 17.476562 0.722656 14.226562 1.578125 11.320312 3.082031 C 8.710938 4.433594 5.519531 6.449219 4.320312 9.269531 C 3.789062 10.511719 3.703125 11.894531 3.625 13.25 C 3.445312 16.273438 3.085938 19.28125 2.730469 22.289062 C 2.691406 22.632812 2.207031 27.695312 2.089844 28.152344 C 2.695312 28.019531 3.890625 27.675781 3.890625 27.675781 C 3.785156 25.503906 3.992188 23.34375 4.5625 21.378906 C 5.132812 19.414062 6.203125 17.371094 7.253906 15.914062 Z M 7.253906 15.914062 "/>
</clipPath>
<clipPath id="clip20">
  <path d="M 3 6 L 7 6 L 7 14 L 3 14 Z M 3 6 "/>
</clipPath>
<clipPath id="clip21">
  <path d="M 7.253906 15.914062 C 13.359375 12.984375 24.691406 12.867188 30.914062 15.535156 C 31.222656 23.660156 31.59375 31.484375 31.902344 39.609375 C 31.910156 39.835938 31.933594 40.09375 32.109375 40.238281 C 32.269531 40.378906 32.507812 40.367188 32.71875 40.335938 C 34.972656 40.015625 36.828125 38.359375 38.164062 36.507812 C 39.5 34.65625 40.46875 32.550781 41.832031 30.722656 C 43.199219 28.894531 45.121094 27.289062 47.386719 27.082031 C 44.683594 23.082031 41.996094 18.421875 39.859375 14.089844 C 38.429688 11.203125 37.207031 8.097656 34.871094 5.886719 C 31.089844 2.304688 25.949219 0.546875 20.75 0.65625 C 17.476562 0.722656 14.226562 1.578125 11.320312 3.082031 C 8.710938 4.433594 5.519531 6.449219 4.320312 9.269531 C 3.789062 10.511719 3.703125 11.894531 3.625 13.25 C 3.445312 16.273438 3.085938 19.28125 2.730469 22.289062 C 2.691406 22.632812 2.207031 27.695312 2.089844 28.152344 C 2.695312 28.019531 3.890625 27.675781 3.890625 27.675781 C 3.785156 25.503906 3.992188 23.34375 4.5625 21.378906 C 5.132812 19.414062 6.203125 17.371094 7.253906 15.914062 Z M 7.253906 15.914062 "/>
</clipPath>
<clipPath id="clip22">
  <path d="M 2 15 L 7 15 L 7 20 L 2 20 Z M 2 15 "/>
</clipPath>
<clipPath id="clip23">
  <path d="M 7.253906 15.914062 C 13.359375 12.984375 24.691406 12.867188 30.914062 15.535156 C 31.222656 23.660156 31.59375 31.484375 31.902344 39.609375 C 31.910156 39.835938 31.933594 40.09375 32.109375 40.238281 C 32.269531 40.378906 32.507812 40.367188 32.71875 40.335938 C 34.972656 40.015625 36.828125 38.359375 38.164062 36.507812 C 39.5 34.65625 40.46875 32.550781 41.832031 30.722656 C 43.199219 28.894531 45.121094 27.289062 47.386719 27.082031 C 44.683594 23.082031 41.996094 18.421875 39.859375 14.089844 C 38.429688 11.203125 37.207031 8.097656 34.871094 5.886719 C 31.089844 2.304688 25.949219 0.546875 20.75 0.65625 C 17.476562 0.722656 14.226562 1.578125 11.320312 3.082031 C 8.710938 4.433594 5.519531 6.449219 4.320312 9.269531 C 3.789062 10.511719 3.703125 11.894531 3.625 13.25 C 3.445312 16.273438 3.085938 19.28125 2.730469 22.289062 C 2.691406 22.632812 2.207031 27.695312 2.089844 28.152344 C 2.695312 28.019531 3.890625 27.675781 3.890625 27.675781 C 3.785156 25.503906 3.992188 23.34375 4.5625 21.378906 C 5.132812 19.414062 6.203125 17.371094 7.253906 15.914062 Z M 7.253906 15.914062 "/>
</clipPath>
<clipPath id="clip24">
  <path d="M 2 22 L 6 22 L 6 27 L 2 27 Z M 2 22 "/>
</clipPath>
<clipPath id="clip25">
  <path d="M 7.253906 15.914062 C 13.359375 12.984375 24.691406 12.867188 30.914062 15.535156 C 31.222656 23.660156 31.59375 31.484375 31.902344 39.609375 C 31.910156 39.835938 31.933594 40.09375 32.109375 40.238281 C 32.269531 40.378906 32.507812 40.367188 32.71875 40.335938 C 34.972656 40.015625 36.828125 38.359375 38.164062 36.507812 C 39.5 34.65625 40.46875 32.550781 41.832031 30.722656 C 43.199219 28.894531 45.121094 27.289062 47.386719 27.082031 C 44.683594 23.082031 41.996094 18.421875 39.859375 14.089844 C 38.429688 11.203125 37.207031 8.097656 34.871094 5.886719 C 31.089844 2.304688 25.949219 0.546875 20.75 0.65625 C 17.476562 0.722656 14.226562 1.578125 11.320312 3.082031 C 8.710938 4.433594 5.519531 6.449219 4.320312 9.269531 C 3.789062 10.511719 3.703125 11.894531 3.625 13.25 C 3.445312 16.273438 3.085938 19.28125 2.730469 22.289062 C 2.691406 22.632812 2.207031 27.695312 2.089844 28.152344 C 2.695312 28.019531 3.890625 27.675781 3.890625 27.675781 C 3.785156 25.503906 3.992188 23.34375 4.5625 21.378906 C 5.132812 19.414062 6.203125 17.371094 7.253906 15.914062 Z M 7.253906 15.914062 "/>
</clipPath>
<clipPath id="clip26">
  <path d="M 30 10 L 40 10 L 40 16 L 30 16 Z M 30 10 "/>
</clipPath>
<clipPath id="clip27">
  <path d="M 7.253906 15.914062 C 13.359375 12.984375 24.691406 12.867188 30.914062 15.535156 C 31.222656 23.660156 31.59375 31.484375 31.902344 39.609375 C 31.910156 39.835938 31.933594 40.09375 32.109375 40.238281 C 32.269531 40.378906 32.507812 40.367188 32.71875 40.335938 C 34.972656 40.015625 36.828125 38.359375 38.164062 36.507812 C 39.5 34.65625 40.46875 32.550781 41.832031 30.722656 C 43.199219 28.894531 45.121094 27.289062 47.386719 27.082031 C 44.683594 23.082031 41.996094 18.421875 39.859375 14.089844 C 38.429688 11.203125 37.207031 8.097656 34.871094 5.886719 C 31.089844 2.304688 25.949219 0.546875 20.75 0.65625 C 17.476562 0.722656 14.226562 1.578125 11.320312 3.082031 C 8.710938 4.433594 5.519531 6.449219 4.320312 9.269531 C 3.789062 10.511719 3.703125 11.894531 3.625 13.25 C 3.445312 16.273438 3.085938 19.28125 2.730469 22.289062 C 2.691406 22.632812 2.207031 27.695312 2.089844 28.152344 C 2.695312 28.019531 3.890625 27.675781 3.890625 27.675781 C 3.785156 25.503906 3.992188 23.34375 4.5625 21.378906 C 5.132812 19.414062 6.203125 17.371094 7.253906 15.914062 Z M 7.253906 15.914062 "/>
</clipPath>
<mask id="mask3">
  <g filter="url(#alpha)">
<rect x="0" y="0" width="48" height="44" style="fill:rgb(0%,0%,0%);fill-opacity:0.180392;stroke:none;"/>
  </g>
</mask>
<clipPath id="clip28">
  <rect x="0" y="0" width="48" height="44"/>
</clipPath>
<g id="surface14" clip-path="url(#clip28)">
<path style=" stroke:none;fill-rule:nonzero;fill:rgb(0%,0%,0%);fill-opacity:1;" d="M 36.195312 14.128906 C 36.183594 14.128906 36.171875 14.128906 36.160156 14.128906 C 36.023438 14.148438 35.925781 14.28125 35.902344 14.414062 C 35.875 14.550781 35.910156 14.6875 35.945312 14.820312 C 36.328125 16.347656 36.558594 17.910156 36.957031 19.429688 C 37.355469 20.960938 37.785156 22.488281 38.136719 24.03125 C 38.734375 26.648438 39.3125 29.269531 39.953125 31.875 C 40.339844 33.460938 41.503906 31.164062 41.832031 30.726562 C 42.683594 29.613281 43.707031 28.527344 44.855469 27.734375 C 43.246094 24.152344 40.71875 20.988281 38.746094 17.601562 C 38.128906 16.539062 37.535156 14.84375 36.410156 14.203125 C 36.34375 14.164062 36.269531 14.132812 36.195312 14.128906 Z M 36.195312 14.128906 "/>
</g>
<mask id="mask4">
  <g filter="url(#alpha)">
<rect x="0" y="0" width="48" height="44" style="fill:rgb(0%,0%,0%);fill-opacity:0.180392;stroke:none;"/>
  </g>
</mask>
<clipPath id="clip29">
  <rect x="0" y="0" width="48" height="44"/>
</clipPath>
<g id="surface17" clip-path="url(#clip29)">
<path style=" stroke:none;fill-rule:nonzero;fill:rgb(0%,0%,0%);fill-opacity:1;" d="M 30.933594 15.851562 C 30.933594 16.359375 30.964844 16.886719 30.988281 17.476562 C 31.066406 19.472656 31.148438 21.46875 31.234375 23.464844 C 31.269531 24.324219 31.140625 25.394531 31.347656 26.226562 C 31.527344 26.949219 31.984375 29.785156 32.3125 30.433594 C 32.640625 31.082031 33.34375 31.601562 34.054688 31.457031 C 34.601562 31.347656 35.019531 30.871094 35.203125 30.34375 C 35.390625 29.816406 35.382812 29.242188 35.351562 28.683594 C 35.0625 23.738281 33.035156 19.03125 32.664062 14.09375 C 32.554688 12.589844 32.648438 10.933594 33.652344 9.8125 C 33.996094 9.429688 34.472656 8.953125 34.246094 8.492188 C 34.058594 8.121094 33.5 8.09375 33.164062 8.339844 C 32.832031 8.582031 32.667969 8.996094 32.527344 9.386719 C 32.027344 10.777344 31.585938 12.191406 31.207031 13.617188 C 30.988281 14.4375 30.933594 15.128906 30.933594 15.851562 Z M 30.933594 15.851562 "/>
</g>
<clipPath id="clip30">
  <path d="M 0 35 L 8 35 L 8 40 L 0 40 Z M 0 35 "/>
</clipPath>
<clipPath id="clip31">
  <path d="M 1.421875 41.808594 C 1.441406 41.820312 1.460938 41.832031 1.480469 41.84375 C 3.320312 42.925781 5.535156 43.660156 7.636719 44 C 7.390625 42.097656 7.058594 40.523438 6.621094 38.917969 C 6.011719 36.691406 5.417969 34.757812 4.925781 33.03125 L 1.921875 33.636719 C 1.867188 34.273438 1.171875 38.449219 1.023438 39.59375 C 0.910156 40.453125 0.570312 41.257812 1.421875 41.808594 Z M 1.421875 41.808594 "/>
</clipPath>
<mask id="mask5">
  <g filter="url(#alpha)">
<rect x="0" y="0" width="48" height="44" style="fill:rgb(0%,0%,0%);fill-opacity:0.180392;stroke:none;"/>
  </g>
</mask>
<clipPath id="clip32">
  <rect x="0" y="0" width="48" height="44"/>
</clipPath>
<g id="surface20" clip-path="url(#clip32)">
<path style=" stroke:none;fill-rule:nonzero;fill:rgb(0%,0%,0%);fill-opacity:1;" d="M 16.1875 3.3125 C 16.542969 3.597656 16.800781 3.976562 17.050781 4.351562 C 17.601562 5.164062 18.164062 6.023438 18.261719 6.988281 C 18.328125 7.683594 18.25 8.496094 17.925781 9.128906 C 17.550781 9.855469 17.003906 10.441406 16.921875 11.285156 C 16.84375 12.125 17.125 12.976562 17.578125 13.675781 C 17.484375 13.695312 17.0625 13.660156 16.980469 13.660156 C 16.761719 13.652344 16.558594 13.636719 16.382812 13.511719 C 16.15625 13.355469 16.019531 13.109375 15.890625 12.871094 C 15.613281 12.355469 15.332031 11.832031 15.222656 11.265625 C 15.082031 10.542969 15.226562 9.800781 15.277344 9.070312 C 15.339844 8.15625 15.257812 7.242188 15.171875 6.332031 C 15.09375 5.472656 15.015625 4.613281 14.933594 3.753906 C 14.90625 3.4375 14.695312 2.9375 15.15625 2.925781 C 15.53125 2.914062 15.90625 3.089844 16.1875 3.3125 Z M 16.1875 3.3125 "/>
</g>
<mask id="mask6">
  <g filter="url(#alpha)">
<rect x="0" y="0" width="48" height="44" style="fill:rgb(0%,0%,0%);fill-opacity:0.180392;stroke:none;"/>
  </g>
</mask>
<clipPath id="clip33">
  <rect x="0" y="0" width="48" height="44"/>
</clipPath>
<g id="surface23" clip-path="url(#clip33)">
<path style=" stroke:none;fill-rule:nonzero;fill:rgb(0%,0%,0%);fill-opacity:1;" d="M 2.085938 41.335938 C 2.097656 41.425781 2.117188 41.515625 2.140625 41.609375 C 2.464844 42.835938 6.234375 43.773438 7.636719 44 C 7.390625 42.09375 7.058594 40.523438 6.621094 38.914062 C 6.011719 36.6875 5.417969 34.757812 4.925781 33.03125 C 4.453125 33.125 3.234375 33.355469 2.761719 33.464844 C 2.761719 33.464844 2.101562 38.453125 2.050781 40.214844 C 2.039062 40.589844 2.027344 40.96875 2.082031 41.335938 Z M 2.085938 41.335938 "/>
</g>
<mask id="mask7">
  <g filter="url(#alpha)">
<rect x="0" y="0" width="48" height="44" style="fill:rgb(0%,0%,0%);fill-opacity:0.180392;stroke:none;"/>
  </g>
</mask>
<clipPath id="clip34">
  <rect x="0" y="0" width="48" height="44"/>
</clipPath>
<g id="surface26" clip-path="url(#clip34)">
<path style=" stroke:none;fill-rule:nonzero;fill:rgb(0%,0%,0%);fill-opacity:1;" d="M 14.890625 3.820312 C 14.8125 3.75 14.734375 3.667969 14.710938 3.566406 C 14.691406 3.46875 14.75 3.34375 14.859375 3.328125 C 14.824219 3.410156 14.835938 3.511719 14.894531 3.582031 C 15.070312 3.800781 15.339844 3.570312 15.558594 3.574219 C 15.757812 3.574219 15.953125 3.691406 16.039062 3.863281 C 16.171875 4.132812 15.953125 4.308594 15.90625 4.558594 C 15.835938 4.910156 15.746094 5.203125 15.714844 5.5625 C 15.652344 6.289062 15.542969 7.160156 15.503906 7.890625 C 15.429688 9.347656 15.558594 10.757812 15.589844 12.21875 C 15.585938 12.074219 15.496094 11.898438 15.464844 11.753906 C 15.421875 11.59375 15.386719 11.433594 15.355469 11.269531 C 15.289062 10.949219 15.242188 10.621094 15.207031 10.296875 C 15.136719 9.644531 15.121094 8.988281 15.136719 8.332031 C 15.15625 7.578125 15.171875 6.820312 15.304688 6.074219 C 15.351562 5.816406 15.40625 5.554688 15.386719 5.292969 C 15.363281 4.96875 15.324219 4.65625 14.957031 4.691406 C 14.550781 4.730469 14.152344 4.742188 13.742188 4.683594 C 13.410156 4.636719 13.0625 4.617188 12.808594 4.402344 C 12.644531 4.261719 12.363281 3.847656 12.789062 3.839844 C 12.9375 3.835938 13.152344 3.964844 13.304688 3.996094 C 13.480469 4.03125 13.660156 4.050781 13.835938 4.050781 C 14.035156 4.050781 14.234375 4.023438 14.425781 3.980469 C 14.46875 3.96875 14.871094 3.804688 14.890625 3.824219 Z M 14.890625 3.820312 "/>
</g>
<mask id="mask8">
  <g filter="url(#alpha)">
<rect x="0" y="0" width="48" height="44" style="fill:rgb(0%,0%,0%);fill-opacity:0.180392;stroke:none;"/>
  </g>
</mask>
<clipPath id="clip35">
  <rect x="0" y="0" width="48" height="44"/>
</clipPath>
<g id="surface29" clip-path="url(#clip35)">
<path style=" stroke:none;fill-rule:nonzero;fill:rgb(0%,0%,0%);fill-opacity:1;" d="M 15.035156 13.054688 C 15.4375 13.035156 15.851562 12.929688 16.238281 13.039062 C 16.613281 13.148438 16.945312 13.421875 17.207031 13.699219 C 16.761719 13.859375 15.71875 14.175781 15.097656 14.113281 C 14.652344 14.066406 14.199219 13.941406 13.824219 13.707031 C 13.59375 13.5625 13.257812 13.023438 13.210938 12.648438 C 13.78125 12.914062 14.375 13.085938 15.035156 13.054688 Z M 15.035156 13.054688 "/>
</g>
</defs>
<g id="surface1">
<use xlink:href="#surface5" mask="url(#mask0)"/>
<use xlink:href="#surface8" mask="url(#mask1)"/>
<path style=" stroke:none;fill-rule:nonzero;fill:rgb(92.941176%,75.294118%,36.470588%);fill-opacity:1;" d="M 7.253906 15.914062 C 13.359375 12.984375 24.691406 12.867188 30.914062 15.535156 C 31.222656 23.660156 31.59375 31.484375 31.902344 39.609375 C 31.910156 39.835938 31.933594 40.09375 32.109375 40.238281 C 32.269531 40.378906 32.507812 40.367188 32.71875 40.335938 C 34.972656 40.015625 36.828125 38.359375 38.164062 36.507812 C 39.5 34.65625 40.46875 32.550781 41.832031 30.722656 C 43.199219 28.894531 45.121094 27.289062 47.386719 27.082031 C 44.683594 23.082031 41.996094 18.421875 39.859375 14.089844 C 38.429688 11.203125 37.207031 8.097656 34.871094 5.886719 C 31.089844 2.304688 25.949219 0.546875 20.75 0.65625 C 17.476562 0.722656 14.226562 1.578125 11.320312 3.082031 C 8.710938 4.433594 5.519531 6.449219 4.320312 9.269531 C 3.789062 10.511719 3.703125 11.894531 3.625 13.25 C 3.445312 16.273438 3.085938 19.28125 2.730469 22.289062 C 2.691406 22.632812 2.207031 27.695312 2.089844 28.152344 C 2.695312 28.019531 3.890625 27.675781 3.890625 27.675781 C 3.785156 25.503906 3.992188 23.34375 4.5625 21.378906 C 5.132812 19.414062 6.203125 17.371094 7.253906 15.914062 Z M 7.253906 15.914062 "/>
<use xlink:href="#surface11" mask="url(#mask2)"/>
<g clip-path="url(#clip4)" clip-rule="nonzero">
<g clip-path="url(#clip5)" clip-rule="nonzero">
<path style=" stroke:none;fill-rule:nonzero;fill:rgb(13.333333%,18.039216%,34.901961%);fill-opacity:1;" d="M 9.246094 9.589844 C 9.257812 7.589844 9.640625 5.550781 10.664062 3.835938 C 11.6875 2.117188 13.6875 0.761719 15.65625 0.480469 C 15.175781 2.023438 13.816406 3.476562 13.214844 4.902344 C 12.574219 6.429688 12.160156 8.007812 12.257812 9.640625 C 12.347656 11.195312 12.652344 12.734375 12.832031 14.28125 C 12.976562 15.539062 11.421875 15.882812 10.375 15.609375 C 9.714844 15.4375 9.816406 14.929688 9.699219 14.234375 C 9.449219 12.699219 9.238281 11.148438 9.246094 9.589844 Z M 9.246094 9.589844 "/>
</g>
</g>
<g clip-path="url(#clip6)" clip-rule="nonzero">
<g clip-path="url(#clip7)" clip-rule="nonzero">
<path style=" stroke:none;fill-rule:nonzero;fill:rgb(13.333333%,18.039216%,34.901961%);fill-opacity:1;" d="M 15.980469 7.09375 C 16.21875 5.851562 16.757812 4.6875 17.347656 3.570312 C 18.046875 2.246094 18.914062 0.882812 20.292969 0.316406 C 21.320312 -0.105469 22.472656 -0.015625 23.578125 0.078125 C 23.71875 0.0898438 23.867188 0.109375 23.976562 0.195312 C 24.152344 0.339844 24.144531 0.621094 24.027344 0.816406 C 23.910156 1.007812 23.710938 1.132812 23.519531 1.253906 C 21.257812 2.667969 19.445312 4.539062 18.933594 7.265625 C 18.484375 9.664062 19.019531 12.203125 19.632812 14.523438 C 19.605469 14.421875 17.046875 14.882812 16.796875 14.855469 C 16.453125 14.824219 16.105469 14.636719 15.972656 14.316406 C 15.90625 14.152344 15.902344 13.96875 15.898438 13.789062 C 15.855469 11.601562 15.566406 9.253906 15.980469 7.09375 Z M 15.980469 7.09375 "/>
</g>
</g>
<g clip-path="url(#clip8)" clip-rule="nonzero">
<g clip-path="url(#clip9)" clip-rule="nonzero">
<path style=" stroke:none;fill-rule:nonzero;fill:rgb(13.333333%,18.039216%,34.901961%);fill-opacity:1;" d="M 28.949219 1.5 C 28.046875 1.390625 27.140625 1.738281 26.398438 2.265625 C 24.699219 3.480469 23.285156 5.292969 22.644531 7.328125 C 21.863281 9.792969 22.808594 12.234375 22.492188 14.734375 C 23.644531 14.773438 24.917969 14.820312 26.070312 14.859375 C 26.289062 14.867188 25.929688 10.867188 25.90625 10.484375 C 25.691406 7.03125 27.976562 3.046875 31.777344 3.058594 C 30.867188 2.480469 30.019531 1.628906 28.949219 1.5 Z M 28.949219 1.5 "/>
</g>
</g>
<g clip-path="url(#clip10)" clip-rule="nonzero">
<g clip-path="url(#clip11)" clip-rule="nonzero">
<path style=" stroke:none;fill-rule:nonzero;fill:rgb(13.333333%,18.039216%,34.901961%);fill-opacity:1;" d="M 35.554688 5.769531 C 34.601562 5.722656 33.636719 5.6875 32.707031 5.910156 C 31.78125 6.128906 30.582031 6.832031 30.09375 7.65625 C 29.6875 8.339844 29.605469 9.164062 29.53125 9.960938 C 29.367188 11.746094 29.503906 13.34375 29.339844 15.128906 C 29.867188 15.296875 30.390625 15.464844 30.917969 15.632812 C 30.984375 14.160156 31.425781 12.804688 31.851562 11.390625 C 32.046875 10.738281 32.472656 9.617188 32.527344 9.460938 C 33.152344 7.671875 33.640625 8.101562 37.125 8.160156 C 36.828125 7.351562 36.167969 6.375 35.554688 5.769531 Z M 35.554688 5.769531 "/>
</g>
</g>
<g clip-path="url(#clip12)" clip-rule="nonzero">
<g clip-path="url(#clip13)" clip-rule="nonzero">
<path style=" stroke:none;fill-rule:nonzero;fill:rgb(13.333333%,18.039216%,34.901961%);fill-opacity:1;" d="M 30.503906 18.539062 C 31.097656 17.605469 32.210938 17.136719 33.296875 16.933594 C 34.527344 16.703125 35.816406 16.753906 37.027344 16.433594 C 38.261719 16.105469 39.433594 15.542969 40.460938 14.777344 C 40.875 15.675781 41.429688 16.714844 41.84375 17.609375 C 40.296875 18.289062 38.617188 19.109375 36.953125 19.375 C 35.8125 19.554688 34.648438 19.632812 33.542969 19.964844 C 32.433594 20.296875 31.359375 20.921875 30.777344 21.921875 C 30.917969 20.984375 30.753906 19.457031 30.503906 18.539062 Z M 30.503906 18.539062 "/>
</g>
</g>
<g clip-path="url(#clip14)" clip-rule="nonzero">
<g clip-path="url(#clip15)" clip-rule="nonzero">
<path style=" stroke:none;fill-rule:nonzero;fill:rgb(13.333333%,18.039216%,34.901961%);fill-opacity:1;" d="M 36.742188 22.644531 C 39.03125 22.089844 41.492188 21.507812 43.0625 19.746094 C 43.644531 20.726562 44.226562 21.703125 44.808594 22.683594 C 44.183594 23.472656 43.273438 23.992188 42.332031 24.335938 C 41.390625 24.683594 40.398438 24.871094 39.425781 25.117188 C 36.386719 25.890625 33.496094 27.261719 30.996094 29.164062 C 31.257812 28.960938 30.617188 26.605469 30.652344 26.195312 C 30.707031 25.457031 31.453125 24.910156 32.027344 24.496094 C 33.414062 23.507812 35.109375 23.039062 36.742188 22.644531 Z M 36.742188 22.644531 "/>
</g>
</g>
<g clip-path="url(#clip16)" clip-rule="nonzero">
<g clip-path="url(#clip17)" clip-rule="nonzero">
<path style=" stroke:none;fill-rule:nonzero;fill:rgb(13.333333%,18.039216%,34.901961%);fill-opacity:1;" d="M 36.671875 29.734375 C 38.484375 28.890625 40.410156 28.425781 42.242188 27.664062 C 43.0625 27.324219 43.9375 27.132812 44.761719 26.804688 C 45.371094 26.558594 46.511719 25.417969 47.0625 25.699219 C 47.535156 25.945312 47.898438 26.417969 47.953125 26.949219 C 48.039062 27.769531 47.398438 28.503906 46.683594 28.910156 C 45.96875 29.320312 45.144531 29.515625 44.4375 29.933594 C 43.824219 30.296875 43.363281 30.796875 42.820312 31.238281 C 42.277344 31.679688 41.660156 31.757812 41.015625 31.960938 C 39.472656 32.449219 37.960938 33.027344 36.484375 33.6875 C 35.542969 34.109375 31.335938 36.226562 31.289062 36.65625 C 31.355469 36.035156 31.453125 35.410156 31.429688 34.789062 C 31.410156 34.386719 31.234375 33.820312 31.359375 33.425781 C 31.613281 32.648438 32.605469 31.957031 33.265625 31.558594 C 34.277344 30.945312 36.578125 29.78125 36.671875 29.738281 Z M 36.671875 29.734375 "/>
</g>
</g>
<g clip-path="url(#clip18)" clip-rule="nonzero">
<g clip-path="url(#clip19)" clip-rule="nonzero">
<path style=" stroke:none;fill-rule:nonzero;fill:rgb(13.333333%,18.039216%,34.901961%);fill-opacity:1;" d="M 38.839844 36.398438 C 37.921875 38.21875 36.34375 39.695312 34.472656 40.492188 C 33.914062 40.730469 33.3125 40.910156 32.707031 40.859375 C 32.25 40.824219 31.113281 40.457031 31.390625 39.824219 C 31.613281 39.308594 33.261719 38.804688 33.757812 38.566406 C 35.417969 37.769531 37.117188 37.046875 38.839844 36.398438 Z M 38.839844 36.398438 "/>
</g>
</g>
<g clip-path="url(#clip20)" clip-rule="nonzero">
<g clip-path="url(#clip21)" clip-rule="nonzero">
<path style=" stroke:none;fill-rule:nonzero;fill:rgb(13.333333%,18.039216%,34.901961%);fill-opacity:1;" d="M 6.96875 13.707031 C 6.808594 12.632812 6.722656 11.554688 6.519531 10.488281 C 6.417969 9.960938 6.308594 9.433594 6.1875 8.910156 C 6.085938 8.46875 5.816406 7.867188 5.921875 7.417969 C 5.972656 7.210938 6.078125 7.019531 6.183594 6.832031 C 6.289062 6.644531 6.394531 6.449219 6.4375 6.238281 C 6.207031 6.449219 5.980469 6.65625 5.753906 6.867188 C 5.53125 7.066406 5.429688 6.835938 5.175781 6.871094 C 4.921875 6.90625 4.6875 7.113281 4.519531 7.300781 C 3.582031 8.363281 3.0625 9.792969 3.097656 11.214844 C 3.105469 11.433594 3.128906 11.667969 3.253906 11.847656 C 3.519531 12.226562 4.074219 12.160156 4.53125 12.207031 C 6.339844 12.398438 6.917969 13.378906 6.96875 13.707031 Z M 6.96875 13.707031 "/>
</g>
</g>
<g clip-path="url(#clip22)" clip-rule="nonzero">
<g clip-path="url(#clip23)" clip-rule="nonzero">
<path style=" stroke:none;fill-rule:nonzero;fill:rgb(13.333333%,18.039216%,34.901961%);fill-opacity:1;" d="M 4.859375 15.671875 C 5.5625 16 6.164062 16.511719 6.695312 17.078125 C 6.816406 17.203125 6.941406 17.351562 6.949219 17.527344 C 6.957031 17.679688 6.875 17.824219 6.792969 17.957031 C 6.398438 18.609375 6.003906 19.261719 5.605469 19.917969 C 4.707031 19.589844 3.804688 19.261719 2.902344 18.933594 C 2.777344 18.886719 2.644531 18.835938 2.570312 18.722656 C 2.503906 18.617188 2.511719 18.480469 2.519531 18.351562 C 2.558594 17.824219 2.59375 17.296875 2.628906 16.769531 C 2.652344 16.449219 2.574219 15.878906 2.730469 15.589844 C 3.0625 14.96875 4.371094 15.445312 4.859375 15.671875 Z M 4.859375 15.671875 "/>
</g>
</g>
<g clip-path="url(#clip24)" clip-rule="nonzero">
<g clip-path="url(#clip25)" clip-rule="nonzero">
<path style=" stroke:none;fill-rule:nonzero;fill:rgb(13.333333%,18.039216%,34.901961%);fill-opacity:1;" d="M 1.871094 22.226562 C 1.707031 23.046875 1.597656 23.882812 1.535156 24.722656 C 1.519531 24.9375 1.507812 25.164062 1.589844 25.351562 C 1.753906 25.726562 2.183594 25.742188 2.539062 25.734375 C 3.3125 25.714844 4.085938 25.808594 4.832031 26.007812 C 5.015625 25.253906 5.503906 23.203125 4.882812 22.648438 C 4.65625 22.445312 1.855469 22.300781 1.871094 22.222656 Z M 1.871094 22.226562 "/>
</g>
</g>
<g clip-path="url(#clip26)" clip-rule="nonzero">
<g clip-path="url(#clip27)" clip-rule="nonzero">
<path style=" stroke:none;fill-rule:nonzero;fill:rgb(13.333333%,18.039216%,34.901961%);fill-opacity:1;" d="M 33.851562 10.890625 C 35.285156 10.382812 36.808594 10.113281 38.328125 10.097656 C 38.632812 10.765625 38.933594 11.429688 39.238281 12.097656 C 39.292969 12.21875 39.347656 12.347656 39.324219 12.476562 C 39.285156 12.695312 39.042969 12.804688 38.832031 12.871094 C 37.851562 13.171875 36.8125 13.222656 35.789062 13.296875 C 34.765625 13.371094 33.726562 13.476562 32.777344 13.867188 C 31.820312 14.261719 31.027344 14.957031 30.636719 15.929688 C 30.574219 14.96875 30.5625 13.574219 31.152344 12.746094 C 31.773438 11.871094 32.871094 11.238281 33.851562 10.890625 Z M 33.851562 10.890625 "/>
</g>
</g>
<use xlink:href="#surface14" mask="url(#mask3)"/>
<use xlink:href="#surface17" mask="url(#mask4)"/>
<path style=" stroke:none;fill-rule:nonzero;fill:rgb(92.941176%,75.294118%,36.470588%);fill-opacity:1;" d="M 1.421875 41.808594 C 1.441406 41.820312 1.460938 41.832031 1.480469 41.84375 C 3.320312 42.925781 5.535156 43.660156 7.636719 44 C 7.390625 42.097656 7.058594 40.523438 6.621094 38.917969 C 6.011719 36.691406 5.417969 34.757812 4.925781 33.03125 L 1.921875 33.636719 C 1.867188 34.273438 1.171875 38.449219 1.023438 39.59375 C 0.910156 40.453125 0.570312 41.257812 1.421875 41.808594 Z M 1.421875 41.808594 "/>
<g clip-path="url(#clip30)" clip-rule="nonzero">
<g clip-path="url(#clip31)" clip-rule="nonzero">
<path style=" stroke:none;fill-rule:nonzero;fill:rgb(13.333333%,18.039216%,34.901961%);fill-opacity:1;" d="M 7.15625 35.617188 C 7.191406 37.019531 7.351562 38.421875 7.640625 39.796875 C 5.0625 39.566406 2.511719 39.0625 0.0390625 38.296875 C 0.0195312 38.292969 0.519531 36.230469 0.605469 35.988281 C 0.773438 35.496094 1.007812 35.160156 1.550781 35.097656 C 2.386719 35 3.371094 35.246094 4.207031 35.328125 C 5.191406 35.425781 6.171875 35.519531 7.15625 35.617188 Z M 7.15625 35.617188 "/>
</g>
</g>
<use xlink:href="#surface20" mask="url(#mask5)"/>
<use xlink:href="#surface23" mask="url(#mask6)"/>
<path style=" stroke:none;fill-rule:nonzero;fill:rgb(81.960784%,65.098039%,32.156863%);fill-opacity:1;" d="M 12.953125 3.167969 C 12.6875 3.308594 12.394531 3.59375 12.453125 3.914062 C 12.507812 4.214844 12.78125 4.382812 12.960938 4.519531 C 12.949219 4.496094 12.359375 4.960938 12.175781 5.183594 C 11.101562 6.472656 10.980469 8.441406 11.894531 9.851562 C 12.253906 10.410156 12.804688 10.835938 12.992188 11.480469 C 13.191406 12.171875 13.164062 13.238281 13.816406 13.695312 C 14.339844 14.0625 15.023438 14.171875 15.652344 14.089844 C 15.925781 14.054688 16.183594 13.953125 16.457031 13.910156 C 16.527344 13.898438 17.214844 13.703125 17.210938 13.699219 C 16.515625 13.09375 16.136719 12.261719 16.195312 11.367188 C 16.265625 10.378906 17.160156 9.644531 17.554688 8.761719 C 18.25 7.199219 17.472656 5.59375 16.292969 4.488281 C 16.089844 4.296875 16.160156 3.984375 16.046875 3.734375 C 15.890625 3.375 15.535156 2.984375 15.132812 2.878906 C 14.472656 2.707031 13.804688 2.863281 13.183594 3.066406 C 13.105469 3.09375 13.027344 3.125 12.953125 3.164062 Z M 12.953125 3.167969 "/>
<path style=" stroke:none;fill-rule:nonzero;fill:rgb(25.098039%,36.078431%,30.196078%);fill-opacity:1;" d="M 15.769531 12.703125 C 15.640625 12.339844 15.582031 11.949219 15.550781 11.515625 C 15.5 10.796875 15.46875 10.066406 15.464844 9.34375 C 15.460938 8.554688 15.503906 7.769531 15.566406 6.984375 C 15.601562 6.582031 15.640625 6.179688 15.683594 5.78125 C 15.703125 5.589844 15.726562 5.394531 15.746094 5.203125 C 15.757812 5.121094 15.90625 4.554688 15.90625 4.554688 C 16.472656 4.984375 17.25 6.003906 17.414062 6.839844 C 17.542969 7.46875 17.480469 7.980469 17.269531 8.589844 C 17.078125 9.148438 16.554688 9.703125 16.25 10.210938 C 15.96875 10.667969 15.886719 11.382812 15.933594 11.90625 C 15.996094 12.613281 16.398438 13.320312 16.921875 13.816406 C 16.851562 13.828125 16.730469 13.875 16.632812 13.875 C 16.566406 13.875 16.5 13.792969 16.453125 13.746094 C 16.117188 13.421875 15.902344 13.078125 15.765625 12.699219 Z M 15.769531 12.703125 "/>
<path style=" stroke:none;fill-rule:nonzero;fill:rgb(25.098039%,36.078431%,30.196078%);fill-opacity:1;" d="M 13.476562 4.59375 C 13.460938 4.867188 12.804688 8.261719 14.136719 13.417969 C 14.191406 13.636719 14.476562 14.046875 14.757812 14.066406 C 14.363281 14.042969 14.015625 13.78125 13.804688 13.460938 C 13.59375 13.140625 13.433594 12.558594 13.359375 12.1875 C 13.273438 11.734375 13.21875 11.207031 12.964844 10.808594 C 12.542969 10.144531 11.921875 9.609375 11.695312 8.824219 C 11.46875 8.042969 11.496094 7.015625 11.832031 6.246094 C 12.011719 5.828125 12.253906 5.542969 12.566406 5.207031 C 12.945312 4.792969 13.476562 4.574219 13.476562 4.59375 Z M 13.476562 4.59375 "/>
<use xlink:href="#surface26" mask="url(#mask7)"/>
<use xlink:href="#surface29" mask="url(#mask8)"/>
</g>
</svg>
