<?xml version="1.0" encoding="UTF-8"?>
<svg xmlns="http://www.w3.org/2000/svg" xmlns:xlink="http://www.w3.org/1999/xlink" width="48px" height="px" viewBox="0 0 48 35" version="1.1">
<defs>
<filter id="alpha" filterUnits="objectBoundingBox" x="0%" y="0%" width="100%" height="100%">
  <feColorMatrix type="matrix" in="SourceGraphic" values="0 0 0 0 1 0 0 0 0 1 0 0 0 0 1 0 0 0 1 0"/>
</filter>
<mask id="mask0">
  <g filter="url(#alpha)">
<rect x="0" y="0" width="48" height="35" style="fill:rgb(0%,0%,0%);fill-opacity:0.25098;stroke:none;"/>
  </g>
</mask>
<clipPath id="clip1">
  <rect x="0" y="0" width="48" height="35"/>
</clipPath>
<g id="surface5" clip-path="url(#clip1)">
<path style=" stroke:none;fill-rule:nonzero;fill:rgb(0%,0%,0%);fill-opacity:1;" d="M 36.570312 26.53125 C 32.25 25.316406 27.699219 24.640625 23.277344 24.152344 C 20.460938 23.839844 17.632812 23.722656 14.808594 23.640625 C 11.984375 23.558594 1.253906 22.972656 0.0585938 26.183594 C 0.472656 27.941406 3.015625 29.332031 4.398438 30.046875 C 6.554688 31.164062 8.910156 31.835938 11.230469 32.527344 C 11.890625 32.722656 12.082031 32.953125 12.457031 32.328125 C 12.757812 31.828125 13.105469 31.351562 13.566406 30.992188 C 15.871094 29.199219 18.886719 28.878906 21.710938 29.003906 C 24.566406 29.128906 27.609375 29.449219 30.398438 30.082031 C 31.132812 30.25 31.851562 30.472656 32.539062 30.78125 C 33.46875 31.199219 34.316406 31.785156 34.984375 32.554688 C 35.601562 33.269531 35.953125 34.074219 36.738281 34.648438 C 37.171875 35.011719 38.839844 34.914062 39.40625 34.960938 C 41.566406 35.144531 47.125 34.667969 47.925781 31.8125 C 47.328125 29.398438 40.289062 27.578125 36.566406 26.53125 Z M 36.570312 26.53125 "/>
</g>
<mask id="mask1">
  <g filter="url(#alpha)">
<rect x="0" y="0" width="48" height="35" style="fill:rgb(0%,0%,0%);fill-opacity:0.25098;stroke:none;"/>
  </g>
</mask>
<clipPath id="clip2">
  <rect x="0" y="0" width="48" height="35"/>
</clipPath>
<g id="surface8" clip-path="url(#clip2)">
<path style=" stroke:none;fill-rule:nonzero;fill:rgb(0%,0%,0%);fill-opacity:1;" d="M 33.988281 16.234375 C 33.339844 15.902344 32.65625 15.628906 32 15.332031 C 31.414062 15.070312 30.84375 14.773438 30.261719 14.496094 C 30.070312 14.40625 29.519531 14.078125 29 13.824219 C 28.714844 13.683594 28.785156 13.253906 29.101562 13.214844 C 31.59375 12.90625 34.277344 14.300781 35.515625 16.445312 C 35.183594 15.328125 34.925781 14.191406 34.652344 13.058594 C 34.597656 12.820312 34.542969 12.5625 34.675781 12.339844 C 34.75 12.210938 34.894531 12.125 35.042969 12.152344 C 35.222656 12.1875 35.296875 12.363281 35.347656 12.519531 C 35.835938 13.988281 36.164062 15.644531 36.019531 17.199219 C 36.011719 17.296875 35.992188 17.410156 35.871094 17.429688 C 35.796875 17.441406 35.726562 17.414062 35.671875 17.363281 C 35.171875 16.898438 34.597656 16.539062 33.992188 16.234375 Z M 33.988281 16.234375 "/>
</g>
</defs>
<g id="surface1">
<path style=" stroke:none;fill-rule:nonzero;fill:rgb(15.686275%,23.529412%,45.882353%);fill-opacity:1;" d="M 34.398438 30.40625 C 28.429688 27.277344 19.496094 25.980469 13.378906 29.273438 C 14.285156 22.570312 18.121094 16.574219 22.707031 11.785156 C 23.296875 11.324219 23.984375 11.003906 24.667969 10.703125 C 28.597656 8.976562 32.777344 7.179688 36.910156 6.015625 C 37.542969 5.875 38.121094 5.582031 38.554688 5.085938 C 40.253906 3.394531 41.953125 1.699219 43.652344 0.00390625 C 42.828125 3.847656 42.375 7.800781 41.339844 11.582031 C 40.125 13.351562 38.53125 14.820312 37.160156 16.476562 C 36.710938 16.992188 36.25 17.519531 35.988281 18.152344 C 35.382812 20.671875 33.839844 29.488281 34.398438 30.40625 Z M 34.398438 30.40625 "/>
<path style=" stroke:none;fill-rule:nonzero;fill:rgb(90.980392%,61.960784%,30.196078%);fill-opacity:1;" d="M 16.675781 19.792969 C 15.480469 21.921875 14.53125 24.175781 13.921875 26.53125 C 15.9375 27.183594 18.144531 27.171875 20.277344 27.304688 C 20.546875 27.320312 20.816406 27.339844 21.089844 27.359375 C 23.257812 27.285156 25.488281 27.515625 27.625 27.984375 C 29.472656 28.117188 31.316406 28.148438 33.15625 27.914062 C 33.566406 27.863281 33.980469 27.796875 34.390625 27.730469 C 34.546875 26.183594 34.84375 24.207031 35.15625 22.40625 C 29.300781 20.140625 22.925781 19.238281 16.675781 19.792969 Z M 16.675781 19.792969 "/>
<path style=" stroke:none;fill-rule:nonzero;fill:rgb(15.686275%,23.529412%,45.882353%);fill-opacity:1;" d="M 12.257812 32.84375 C 12.257812 32.84375 11.515625 32.609375 11.230469 32.523438 C 8.910156 31.832031 6.558594 31.164062 4.398438 30.046875 C 2.828125 29.230469 -0.257812 27.542969 0.0195312 25.429688 C 0.550781 21.347656 11.96875 21.953125 14.898438 22.023438 C 17.824219 22.097656 20.546875 22.203125 23.363281 22.527344 C 27.785156 23.042969 32.332031 23.761719 36.644531 25.097656 C 40.695312 26.347656 48.6875 28.601562 47.953125 31.710938 C 47.257812 34.65625 41.59375 35.144531 39.410156 34.960938 C 38.84375 34.910156 37.175781 35.007812 36.742188 34.648438 C 36.742188 34.648438 35.746094 33.816406 35.480469 33.320312 C 35.480469 33.320312 35.207031 32.984375 34.449219 31.683594 C 33.023438 29.230469 29.59375 28.769531 27.058594 28.453125 C 24.523438 28.136719 21.960938 27.910156 19.410156 28.128906 C 17.554688 28.292969 14.402344 28.515625 13.335938 30.347656 C 12.8125 31.246094 12.554688 31.988281 12.257812 32.84375 Z M 12.257812 32.84375 "/>
<use xlink:href="#surface5" mask="url(#mask0)"/>
<use xlink:href="#surface8" mask="url(#mask1)"/>
</g>
</svg>
