<?xml version="1.0" encoding="UTF-8"?>
<svg xmlns="http://www.w3.org/2000/svg" xmlns:xlink="http://www.w3.org/1999/xlink" width="48px" height="px" viewBox="0 0 47 47" version="1.1">
<defs>
<filter id="alpha" filterUnits="objectBoundingBox" x="0%" y="0%" width="100%" height="100%">
  <feColorMatrix type="matrix" in="SourceGraphic" values="0 0 0 0 1 0 0 0 0 1 0 0 0 0 1 0 0 0 1 0"/>
</filter>
<mask id="mask0">
  <g filter="url(#alpha)">
<rect x="0" y="0" width="47" height="47" style="fill:rgb(0%,0%,0%);fill-opacity:0.180392;stroke:none;"/>
  </g>
</mask>
<clipPath id="clip1">
  <rect x="0" y="0" width="48" height="47"/>
</clipPath>
<g id="surface5" clip-path="url(#clip1)">
<path style=" stroke:none;fill-rule:nonzero;fill:rgb(0%,0%,0%);fill-opacity:1;" d="M 10.402344 31.976562 C 13.792969 30.546875 14.417969 30.421875 18.269531 31.628906 C 21.066406 32.507812 24.398438 34.664062 27.011719 36 C 28.914062 36.96875 31.53125 38.535156 32.664062 40.359375 C 33.734375 42.082031 33.429688 41.972656 34.4375 43.734375 C 35.457031 45.503906 37.332031 46.742188 39.339844 46.964844 C 41.347656 47.1875 43.4375 46.390625 44.808594 44.882812 C 40.484375 41.335938 37.425781 36.433594 33.289062 32.660156 C 29.585938 29.277344 25.035156 26.855469 20.1875 25.6875 C 16.605469 24.824219 12.75 24.660156 9.324219 26.027344 C 6.507812 27.152344 4.148438 29.25 2.253906 31.648438 C 0.167969 34.289062 0.0664062 37.070312 0.191406 40.320312 C 2.59375 36.128906 5.777344 33.929688 10.402344 31.976562 Z M 10.402344 31.976562 "/>
</g>
<mask id="mask1">
  <g filter="url(#alpha)">
<rect x="0" y="0" width="47" height="47" style="fill:rgb(0%,0%,0%);fill-opacity:0.180392;stroke:none;"/>
  </g>
</mask>
<clipPath id="clip2">
  <rect x="0" y="0" width="48" height="47"/>
</clipPath>
<g id="surface8" clip-path="url(#clip2)">
<path style=" stroke:none;fill-rule:nonzero;fill:rgb(0%,0%,0%);fill-opacity:1;" d="M 23.308594 8.691406 C 24.597656 6.726562 26.632812 5.257812 28.914062 4.777344 C 27.5 5.527344 26.5 6.949219 26.019531 8.496094 C 25.550781 10.019531 25.015625 13.367188 26.621094 14.441406 C 27.105469 14.765625 27.691406 14.886719 28.25 15.046875 C 31.664062 16.015625 34.398438 18.550781 36.996094 21.003906 C 36.59375 18.757812 36.632812 16.429688 37.109375 14.199219 C 37.074219 14.363281 39.089844 15.828125 39.320312 16.019531 C 40.378906 16.886719 41.25 17.847656 42.453125 18.5625 C 43.660156 19.277344 45.007812 19.878906 46.367188 20.195312 C 45.148438 20.34375 43.222656 20.242188 41.984375 19.867188 C 40.625 19.457031 39.339844 18.765625 38.40625 17.667969 C 38.566406 17.851562 38.398438 18.613281 38.402344 18.835938 C 38.402344 19.425781 38.472656 20.011719 38.578125 20.589844 C 38.898438 22.363281 39.425781 24.203125 40.386719 25.765625 C 41.453125 27.507812 43.082031 28.773438 44.730469 29.914062 C 44.957031 30.070312 46.113281 31.03125 46.367188 30.941406 C 41.339844 32.742188 35.097656 31.53125 30.542969 28.972656 C 28.160156 27.628906 26.285156 25.789062 23.875 24.511719 C 21.792969 23.410156 19.789062 22.023438 18.242188 20.214844 C 17.429688 19.265625 16.441406 18.128906 16.238281 16.882812 C 15.941406 15.09375 16.0625 13.285156 16.0625 13.285156 C 17.132812 13.058594 18.105469 12.960938 19.199219 12.945312 C 19.964844 12.929688 21.226562 13.324219 21.75 12.578125 C 21.921875 12.332031 21.972656 12.023438 22.035156 11.730469 C 22.261719 10.640625 22.703125 9.613281 23.308594 8.691406 Z M 23.308594 8.691406 "/>
</g>
<mask id="mask2">
  <g filter="url(#alpha)">
<rect x="0" y="0" width="47" height="47" style="fill:rgb(0%,0%,0%);fill-opacity:0.180392;stroke:none;"/>
  </g>
</mask>
<clipPath id="clip3">
  <rect x="0" y="0" width="48" height="47"/>
</clipPath>
<g id="surface11" clip-path="url(#clip3)">
<path style=" stroke:none;fill-rule:nonzero;fill:rgb(0%,0%,0%);fill-opacity:1;" d="M 0.152344 39.9375 C 0.625 38.808594 1.222656 37.402344 1.917969 36.445312 C 2.273438 35.953125 2.667969 35.570312 2.914062 35.285156 C 4.066406 33.9375 5.308594 33.027344 6.847656 32.289062 C 10.003906 30.777344 11.566406 29.886719 15.042969 29.59375 C 19 30.238281 23.589844 32.421875 26.867188 34.578125 C 30.742188 37.125 31.101562 36.742188 34.582031 40.425781 C 35.648438 39.664062 34.980469 38.988281 34.3125 38.085938 C 33.691406 37.242188 32.808594 36.65625 32.007812 35.992188 C 25.554688 30.648438 16.832031 27.6875 15.601562 27.628906 C 13.601562 27.53125 7.839844 29.765625 5.171875 31.765625 C 3.457031 33.054688 0.859375 35.332031 0.148438 37.433594 C 0.0976562 38.085938 0.191406 39.429688 0.148438 39.941406 Z M 0.152344 39.9375 "/>
</g>
<mask id="mask3">
  <g filter="url(#alpha)">
<rect x="0" y="0" width="47" height="47" style="fill:rgb(0%,0%,0%);fill-opacity:0.180392;stroke:none;"/>
  </g>
</mask>
<clipPath id="clip4">
  <rect x="0" y="0" width="48" height="47"/>
</clipPath>
<g id="surface14" clip-path="url(#clip4)">
<path style=" stroke:none;fill-rule:nonzero;fill:rgb(0%,0%,0%);fill-opacity:1;" d="M 37.667969 43.738281 C 39.527344 45.019531 41.808594 45.316406 43.820312 44.542969 C 44.363281 44.332031 44.683594 43.902344 45.089844 43.464844 C 40.890625 45.027344 38.0625 43.445312 35.398438 41.449219 C 36.042969 42.355469 36.816406 43.152344 37.667969 43.738281 Z M 37.667969 43.738281 "/>
</g>
</defs>
<g id="surface1">
<use xlink:href="#surface5" mask="url(#mask0)"/>
<path style=" stroke:none;fill-rule:nonzero;fill:rgb(74.509804%,11.764706%,17.647059%);fill-opacity:1;" d="M 18.546875 5.457031 C 20.875 1.808594 25.789062 -0.804688 30.390625 0.226562 C 36.433594 1.585938 39.636719 7.046875 45.988281 8.839844 C 44.808594 9.476562 41.375 9.324219 38.691406 8.019531 C 39.792969 10.164062 39.820312 12.503906 41.207031 14.652344 C 42.667969 16.910156 44.660156 18.820312 46.988281 20.128906 C 43.996094 20.515625 40.488281 20.113281 38.410156 17.667969 C 38.570312 17.855469 38.402344 18.613281 38.40625 18.839844 C 38.40625 19.425781 38.476562 20.011719 38.582031 20.589844 C 38.902344 22.367188 39.429688 24.203125 40.390625 25.769531 C 41.457031 27.507812 43.085938 28.773438 44.734375 29.914062 C 44.960938 30.070312 46.117188 31.03125 46.371094 30.941406 C 41.34375 32.742188 35.101562 31.535156 30.546875 28.972656 C 28.164062 27.632812 26.289062 25.789062 23.878906 24.511719 C 21.402344 23.199219 18.941406 21.5625 17.367188 19.160156 C 14.894531 15.386719 16.226562 9.09375 18.550781 5.457031 Z M 18.546875 5.457031 "/>
<use xlink:href="#surface8" mask="url(#mask1)"/>
<path style=" stroke:none;fill-rule:nonzero;fill:rgb(70.588235%,71.372549%,78.431373%);fill-opacity:1;" d="M 32.558594 31.699219 C 32.765625 34.582031 32.980469 37.503906 33.914062 40.234375 C 34.851562 42.960938 35.644531 44.226562 38.210938 45.484375 C 40.773438 46.738281 44.195312 46.386719 46.050781 44.195312 C 46.5625 43.59375 46.953125 42.769531 46.707031 42.015625 C 46.484375 41.324219 45.8125 40.914062 45.226562 40.496094 C 39.957031 36.734375 40.230469 32.609375 37.8125 27.191406 C 35.398438 21.773438 32.464844 18.140625 26.90625 16.136719 C 20.234375 13.734375 12.339844 14.414062 7.347656 19.453125 C 4.761719 22.066406 2.617188 25.222656 1.328125 28.695312 C 0.644531 30.535156 0.328125 32.335938 0.132812 34.292969 C 0.0273438 35.324219 -0.0117188 36.394531 0.0273438 37.429688 C 0.0507812 38.023438 0.183594 39.441406 0.152344 39.933594 C 1.164062 36.964844 2.652344 34.390625 4.035156 31.578125 C 4.898438 30.035156 5.886719 28.457031 7.339844 27.421875 C 8.019531 26.9375 8.53125 26.957031 9.289062 26.777344 C 10.230469 26.558594 11.136719 26.179688 12.082031 25.957031 C 15.875 25.054688 19.871094 25.011719 23.679688 25.835938 C 25.125 26.148438 26.546875 26.585938 27.914062 27.148438 C 29.964844 27.996094 32.398438 29.457031 32.558594 31.695312 Z M 32.558594 31.699219 "/>
<path style=" stroke:none;fill-rule:nonzero;fill:rgb(56.862745%,58.039216%,65.882353%);fill-opacity:1;" d="M 0.152344 39.9375 C 0.625 38.808594 1.222656 37.402344 1.917969 36.441406 C 2.273438 35.953125 2.667969 35.570312 2.914062 35.285156 C 4.066406 33.9375 5.308594 33.023438 6.847656 32.289062 C 10.003906 30.777344 11.566406 29.882812 15.042969 29.59375 C 19 30.238281 23.589844 32.421875 26.867188 34.578125 C 30.742188 37.125 31.101562 36.738281 34.582031 40.421875 C 34.828125 40.679688 35.523438 39.355469 35.597656 39.214844 C 36.246094 38.015625 36.429688 36.539062 36.648438 35.203125 C 37.328125 31.089844 32.488281 25.847656 28.339844 23.410156 C 24.367188 21.074219 19.929688 20.046875 16.457031 16.828125 C 16.457031 16.828125 14.707031 17.859375 14.171875 18.191406 C 13.539062 18.582031 12.894531 18.949219 12.246094 19.308594 C 11.019531 19.992188 9.769531 20.8125 8.585938 21.570312 C 6.292969 23.035156 4.34375 25.179688 2.671875 27.320312 C -0.472656 31.34375 0.152344 39.9375 0.152344 39.9375 Z M 0.152344 39.9375 "/>
<use xlink:href="#surface11" mask="url(#mask2)"/>
<use xlink:href="#surface14" mask="url(#mask3)"/>
<path style=" stroke:none;fill-rule:nonzero;fill:rgb(28.627451%,29.803922%,40.392157%);fill-opacity:1;" d="M 16.304688 18.136719 C 16.46875 18.140625 16.636719 18.1875 16.804688 18.300781 C 17.242188 18.585938 17.660156 18.914062 18.058594 19.257812 C 18.285156 19.449219 18.515625 19.671875 18.566406 19.96875 C 18.601562 20.160156 18.550781 20.355469 18.503906 20.546875 C 18.1875 21.761719 17.230469 25.953125 17.003906 26.992188 C 16.121094 26.582031 15.078125 26.550781 14.175781 26.910156 C 14.242188 25.949219 13.808594 20.0625 13.949219 19.636719 C 14.058594 19.300781 14.496094 19.035156 14.789062 18.875 C 15.277344 18.601562 15.773438 18.132812 16.304688 18.140625 Z M 16.304688 18.136719 "/>
<path style=" stroke:none;fill-rule:nonzero;fill:rgb(28.627451%,29.803922%,40.392157%);fill-opacity:1;" d="M 20.335938 20.867188 C 20.371094 20.84375 20.40625 20.824219 20.441406 20.8125 C 20.667969 20.746094 20.910156 20.808594 21.128906 20.890625 C 21.980469 21.199219 22.726562 21.730469 23.464844 22.257812 C 23.566406 22.328125 21.1875 27.34375 20.804688 28.464844 C 20.230469 28.195312 18.996094 27.894531 18.585938 27.417969 C 18.199219 26.976562 19.859375 21.226562 20.335938 20.867188 Z M 20.335938 20.867188 "/>
<path style=" stroke:none;fill-rule:nonzero;fill:rgb(28.627451%,29.803922%,40.392157%);fill-opacity:1;" d="M 25.039062 22.90625 C 25.863281 23.046875 27.757812 24.125 27.847656 24.351562 C 27.992188 24.703125 27.832031 25.101562 27.671875 25.445312 C 26.875 27.144531 26 28.804688 25.042969 30.417969 C 24.3125 30.03125 23.433594 29.707031 22.765625 29.214844 C 22.101562 28.722656 22.578125 28.234375 22.886719 27.574219 C 23.601562 26.019531 24.320312 24.460938 25.039062 22.90625 Z M 25.039062 22.90625 "/>
<path style=" stroke:none;fill-rule:nonzero;fill:rgb(28.627451%,29.803922%,40.392157%);fill-opacity:1;" d="M 29.675781 25.789062 C 30.804688 26.234375 31.773438 27.085938 32.371094 28.160156 C 31.390625 29.296875 28.953125 32.171875 28.691406 32.199219 C 28.519531 32.214844 28.351562 32.140625 28.199219 32.058594 C 27.605469 31.75 27.054688 31.355469 26.566406 30.894531 C 27.472656 29.164062 28.664062 27.488281 29.675781 25.789062 Z M 29.675781 25.789062 "/>
<path style=" stroke:none;fill-rule:nonzero;fill:rgb(28.627451%,29.803922%,40.392157%);fill-opacity:1;" d="M 32.441406 29.984375 C 33.203125 29.28125 33.621094 29.691406 34.078125 30.414062 C 34.535156 31.140625 34.953125 31.910156 35.316406 32.699219 C 35.359375 32.800781 35.40625 32.90625 35.40625 33.011719 C 35.410156 33.410156 34.75 33.71875 34.488281 33.953125 C 34.050781 34.339844 33.613281 34.726562 33.117188 35.03125 C 32.953125 35.132812 32.777344 35.234375 32.589844 35.214844 C 32.417969 35.199219 32.273438 35.078125 32.140625 34.96875 C 31.546875 34.472656 29.753906 33.5 30.144531 32.660156 C 30.351562 32.210938 31.96875 30.417969 32.441406 29.984375 Z M 32.441406 29.984375 "/>
<path style=" stroke:none;fill-rule:nonzero;fill:rgb(28.627451%,29.803922%,40.392157%);fill-opacity:1;" d="M 12.820312 27.027344 L 9.820312 28.304688 C 9.75 28.335938 8.875 24.496094 8.769531 24.132812 C 8.675781 23.808594 8.578125 23.472656 8.644531 23.140625 C 8.738281 22.652344 9.148438 22.296875 9.5625 22.03125 C 10.507812 21.433594 11.367188 20.617188 12.488281 20.378906 C 12.191406 20.441406 12.773438 26.476562 12.820312 27.027344 Z M 12.820312 27.027344 "/>
<path style=" stroke:none;fill-rule:nonzero;fill:rgb(28.627451%,29.803922%,40.392157%);fill-opacity:1;" d="M 6.941406 24.320312 C 7.0625 24.21875 7.1875 24.117188 7.3125 24.011719 C 7.402344 24.816406 8.414062 27.945312 8.386719 28.570312 C 8.378906 28.554688 5.617188 30.03125 4.839844 30.453125 C 4.746094 29.75 4.273438 27.304688 4.582031 26.769531 C 5.171875 25.742188 6.046875 25.054688 6.941406 24.320312 Z M 6.941406 24.320312 "/>
<path style=" stroke:none;fill-rule:nonzero;fill:rgb(28.627451%,29.803922%,40.392157%);fill-opacity:1;" d="M 3.59375 30.355469 C 3.609375 30.566406 3.609375 30.769531 3.566406 30.933594 C 3.328125 31.792969 2.089844 32.984375 1.351562 33.445312 C 1.210938 31.707031 2.273438 29.625 3.269531 28.273438 C 3.179688 28.394531 3.460938 29.359375 3.484375 29.550781 C 3.507812 29.777344 3.570312 30.070312 3.59375 30.355469 Z M 3.59375 30.355469 "/>
</g>
</svg>
