<?xml version="1.0" encoding="UTF-8"?>
<svg xmlns="http://www.w3.org/2000/svg" xmlns:xlink="http://www.w3.org/1999/xlink" width="48px" height="px" viewBox="0 0 48 22" version="1.1">
<defs>
<filter id="alpha" filterUnits="objectBoundingBox" x="0%" y="0%" width="100%" height="100%">
  <feColorMatrix type="matrix" in="SourceGraphic" values="0 0 0 0 1 0 0 0 0 1 0 0 0 0 1 0 0 0 1 0"/>
</filter>
<mask id="mask0">
  <g filter="url(#alpha)">
<rect x="0" y="0" width="48" height="22" style="fill:rgb(0%,0%,0%);fill-opacity:0.180392;stroke:none;"/>
  </g>
</mask>
<clipPath id="clip1">
  <rect x="0" y="0" width="48" height="22"/>
</clipPath>
<g id="surface5" clip-path="url(#clip1)">
<path style=" stroke:none;fill-rule:nonzero;fill:rgb(0%,0%,0%);fill-opacity:1;" d="M 44.742188 13.929688 C 45.519531 13.753906 46.359375 13.636719 47.085938 13.96875 C 47.414062 14.113281 47.707031 14.394531 47.757812 14.753906 C 47.84375 15.351562 47.039062 15.859375 46.5 16.128906 C 43.9375 17.417969 39.796875 18.378906 38.777344 18.378906 C 38.816406 18.359375 37.960938 17.5 37.789062 17.308594 C 37.617188 17.113281 36.855469 16.371094 35.609375 16.5 C 36.160156 16.304688 38.972656 15.351562 39.257812 15.273438 C 41.53125 14.628906 42.335938 14.472656 44.742188 13.929688 Z M 44.742188 13.929688 "/>
</g>
<mask id="mask1">
  <g filter="url(#alpha)">
<rect x="0" y="0" width="48" height="22" style="fill:rgb(0%,0%,0%);fill-opacity:0.180392;stroke:none;"/>
  </g>
</mask>
<clipPath id="clip2">
  <rect x="0" y="0" width="48" height="22"/>
</clipPath>
<g id="surface8" clip-path="url(#clip2)">
<path style=" stroke:none;fill-rule:nonzero;fill:rgb(0%,0%,0%);fill-opacity:1;" d="M 13.21875 16.421875 C 17.003906 15.972656 16.261719 9.832031 16.390625 7.15625 C 16.460938 5.707031 16.390625 1.449219 18.324219 1.03125 C 18.867188 0.914062 19.382812 1.289062 19.800781 1.652344 C 20.84375 2.554688 24.316406 5.800781 24.382812 7.039062 C 24.425781 7.839844 24.171875 8.625 23.941406 9.390625 C 23.710938 10.15625 21.660156 17.5625 22.472656 17.773438 C 22.863281 17.875 23.125 17.941406 23.523438 17.878906 C 24.109375 17.785156 24.695312 17.679688 25.285156 17.59375 C 24.949219 17.644531 24.574219 17.867188 24.253906 17.980469 C 23.890625 18.113281 23.523438 18.238281 23.15625 18.359375 C 22.421875 18.601562 21.683594 18.824219 20.9375 19.027344 C 19.449219 19.4375 17.9375 19.765625 16.410156 20.015625 C 13.851562 20.433594 11.199219 20.730469 8.601562 20.769531 C 7.609375 20.785156 6.617188 20.742188 5.632812 20.621094 C 4.765625 20.511719 3.699219 20.417969 2.925781 19.988281 C 2.304688 19.644531 1.789062 19.054688 1.679688 18.351562 C 1.585938 17.75 1.804688 17.128906 2.164062 16.636719 C 2.527344 16.148438 3.027344 15.777344 3.542969 15.457031 C 5.476562 14.257812 7.726562 13.707031 9.933594 13.171875 C 9.90625 14.195312 9.832031 14.816406 10.628906 15.570312 C 11.210938 16.117188 12 16.457031 12.800781 16.449219 C 12.945312 16.449219 13.085938 16.4375 13.21875 16.421875 Z M 13.21875 16.421875 "/>
</g>
<mask id="mask2">
  <g filter="url(#alpha)">
<rect x="0" y="0" width="48" height="22" style="fill:rgb(0%,0%,0%);fill-opacity:0.180392;stroke:none;"/>
  </g>
</mask>
<clipPath id="clip3">
  <rect x="0" y="0" width="48" height="22"/>
</clipPath>
<g id="surface11" clip-path="url(#clip3)">
<path style=" stroke:none;fill-rule:nonzero;fill:rgb(0%,0%,0%);fill-opacity:1;" d="M 19.101562 6.023438 C 19.90625 3.308594 21.945312 1.136719 24.527344 0 C 21.527344 0.117188 18.929688 -0.0117188 15.929688 0.105469 L 19.101562 6.027344 Z M 19.101562 6.023438 "/>
</g>
<mask id="mask3">
  <g filter="url(#alpha)">
<rect x="0" y="0" width="48" height="22" style="fill:rgb(0%,0%,0%);fill-opacity:0.180392;stroke:none;"/>
  </g>
</mask>
<clipPath id="clip4">
  <rect x="0" y="0" width="48" height="22"/>
</clipPath>
<g id="surface14" clip-path="url(#clip4)">
<path style=" stroke:none;fill-rule:nonzero;fill:rgb(0%,0%,0%);fill-opacity:1;" d="M 28.242188 6.515625 C 28.695312 9.214844 28.734375 13.761719 28.738281 16.5 L 29.390625 16.304688 C 29.421875 13.664062 29.308594 7.734375 28.6875 5.246094 C 28.125 3.015625 26.925781 1.226562 24.988281 0.128906 C 26.722656 2.460938 27.761719 3.621094 28.246094 6.511719 Z M 28.242188 6.515625 "/>
</g>
<mask id="mask4">
  <g filter="url(#alpha)">
<rect x="0" y="0" width="48" height="22" style="fill:rgb(0%,0%,0%);fill-opacity:0.180392;stroke:none;"/>
  </g>
</mask>
<clipPath id="clip5">
  <rect x="0" y="0" width="48" height="22"/>
</clipPath>
<g id="surface17" clip-path="url(#clip5)">
<path style=" stroke:none;fill-rule:nonzero;fill:rgb(0%,0%,0%);fill-opacity:1;" d="M 30.914062 1.648438 C 35.089844 4.238281 36.519531 9.644531 36.804688 14.097656 C 37.058594 13.996094 37.164062 13.894531 37.417969 13.796875 C 37.128906 11.914062 36.953125 10.308594 36.335938 8.316406 C 35.824219 6.664062 34.9375 5.269531 33.917969 3.835938 C 32.953125 2.476562 31.453125 1.132812 29.867188 0.636719 C 28.773438 0.292969 27.734375 0.105469 25.828125 0.0625 C 26.785156 0.222656 27.851562 0.496094 28.316406 0.601562 C 29.226562 0.816406 30.117188 1.152344 30.914062 1.648438 Z M 30.914062 1.648438 "/>
</g>
<mask id="mask5">
  <g filter="url(#alpha)">
<rect x="0" y="0" width="48" height="22" style="fill:rgb(0%,0%,0%);fill-opacity:0.180392;stroke:none;"/>
  </g>
</mask>
<clipPath id="clip6">
  <rect x="0" y="0" width="48" height="22"/>
</clipPath>
<g id="surface20" clip-path="url(#clip6)">
<path style=" stroke:none;fill-rule:nonzero;fill:rgb(0%,0%,0%);fill-opacity:1;" d="M 14.578125 3.980469 C 17.664062 6.585938 19.683594 7.03125 19.925781 7.390625 C 20.25 7.871094 19.832031 8.816406 19.671875 9.324219 C 19.210938 10.773438 18.898438 11.597656 18.191406 12.800781 C 17.828125 13.421875 17.175781 14.296875 16.664062 14.800781 C 16.523438 14.9375 14.726562 16.53125 14.609375 16.429688 C 15.453125 17.15625 17.289062 15.128906 17.75 14.585938 C 19.414062 12.648438 20.296875 10.140625 20.730469 7.652344 C 20.808594 7.222656 20.566406 6.792969 20.15625 6.640625 C 19.179688 6.277344 17.34375 5.476562 15.824219 4.019531 C 15.316406 3.53125 14.5625 3.964844 14.578125 3.980469 Z M 14.578125 3.980469 "/>
</g>
</defs>
<g id="surface1">
<path style=" stroke:none;fill-rule:nonzero;fill:rgb(84.705882%,13.72549%,13.72549%);fill-opacity:1;" d="M 45.78125 12.367188 C 45.242188 12.289062 44.6875 12.316406 44.140625 12.367188 C 41.597656 12.589844 39.761719 12.910156 37.308594 13.609375 C 35.195312 14.214844 33.769531 14.621094 31.636719 15.246094 C 29.1875 15.960938 22.140625 16.167969 19.589844 16.410156 C 17.925781 16.570312 15.992188 16.203125 15.128906 14.765625 C 14.730469 14.101562 14.558594 13.230469 13.890625 12.851562 C 13.476562 12.617188 12.96875 12.640625 12.496094 12.683594 C 10.855469 12.832031 7.277344 13.929688 5.691406 14.375 C 4.230469 14.785156 2.199219 15.578125 1.078125 16.621094 C 0.1875 17.453125 -0.292969 18.863281 0.304688 19.925781 C 0.753906 20.730469 1.679688 21.136719 2.5625 21.386719 C 7.292969 22.730469 14.621094 21.601562 19.285156 20.480469 C 22.835938 19.628906 30.449219 17.667969 34.03125 16.9375 C 35.105469 16.71875 35.597656 16.324219 36.714844 16.601562 C 37.421875 16.773438 38.582031 18.113281 38.777344 18.378906 C 38.902344 18.546875 44.902344 17.226562 46.617188 16.054688 C 47.472656 15.46875 48.296875 14.824219 47.824219 13.726562 C 47.542969 13.078125 46.90625 12.644531 46.230469 12.460938 C 46.082031 12.417969 45.933594 12.390625 45.785156 12.367188 Z M 45.78125 12.367188 "/>
<use xlink:href="#surface5" mask="url(#mask0)"/>
<path style=" stroke:none;fill-rule:nonzero;fill:rgb(84.705882%,13.72549%,13.72549%);fill-opacity:1;" d="M 9.886719 16.53125 C 9.886719 12.53125 10.058594 7.582031 13.03125 4.398438 C 15.707031 1.523438 20.1875 0.183594 24.175781 0.03125 C 26.191406 -0.046875 28.394531 0.25 30.347656 0.679688 C 33.28125 1.324219 35.621094 3.375 37.164062 5.695312 C 37.953125 6.886719 38.566406 8.183594 38.964844 9.535156 C 39.09375 9.980469 39.996094 13.449219 39.539062 13.625 C 31.816406 16.558594 23.289062 18.628906 14.933594 18.980469 C 13.839844 19.023438 12.699219 19.035156 11.695312 18.625 C 10.691406 18.21875 9.886719 17.546875 9.886719 16.53125 Z M 9.886719 16.53125 "/>
<use xlink:href="#surface8" mask="url(#mask1)"/>
<path style=" stroke:none;fill-rule:nonzero;fill:rgb(84.705882%,13.72549%,13.72549%);fill-opacity:1;" d="M 19.101562 6.023438 C 19.90625 3.308594 21.945312 1.136719 24.527344 0 C 21.527344 0.117188 18.929688 -0.0117188 15.929688 0.105469 L 19.101562 6.027344 Z M 19.101562 6.023438 "/>
<use xlink:href="#surface11" mask="url(#mask2)"/>
<path style=" stroke:none;fill-rule:nonzero;fill:rgb(84.705882%,13.72549%,13.72549%);fill-opacity:1;" d="M 9.480469 5.621094 C 9.800781 5.257812 13.957031 1.292969 14.714844 0.699219 C 15.761719 -0.125 16.160156 -0.0507812 17.273438 0.667969 C 19.496094 2.101562 23.308594 5.785156 23.5625 7.3125 C 23.660156 7.90625 21.832031 11.621094 21.414062 17.722656 C 20.457031 18.195312 16.070312 18.335938 14.761719 18.320312 C 13.300781 18.300781 11.097656 18.015625 9.976562 16.8125 C 10.0625 12.101562 8.640625 6.578125 9.480469 5.621094 Z M 9.480469 5.621094 "/>
<use xlink:href="#surface14" mask="url(#mask3)"/>
<use xlink:href="#surface17" mask="url(#mask4)"/>
<path style=" stroke:none;fill-rule:nonzero;fill:rgb(96.078431%,77.254902%,34.901961%);fill-opacity:1;" d="M 14.601562 4.019531 C 13.71875 4.84375 12.128906 6.132812 10.480469 6.492188 C 10.070312 6.582031 9.78125 6.945312 9.792969 7.371094 C 9.851562 9.359375 10.425781 14.59375 14.726562 16.488281 C 14.972656 16.597656 15.253906 16.585938 15.492188 16.460938 C 16.585938 15.886719 19.660156 13.761719 20.730469 7.65625 C 20.804688 7.222656 20.566406 6.796875 20.15625 6.644531 C 19.183594 6.28125 17.355469 5.464844 15.824219 4.019531 C 15.480469 3.699219 14.945312 3.699219 14.601562 4.019531 Z M 14.601562 4.019531 "/>
<use xlink:href="#surface20" mask="url(#mask5)"/>
<path style="fill:none;stroke-width:2;stroke-linecap:butt;stroke-linejoin:round;stroke:rgb(84.705882%,13.72549%,13.72549%);stroke-opacity:1;stroke-miterlimit:4;" d="M 104.372047 75.614702 C 102.180709 82.279048 102.245161 90.385201 104.694302 96.504865 C 106.821188 101.791486 111.94505 106.309144 117.616746 105.764462 C 121.032653 105.444061 124.061855 103.393493 126.317643 100.830282 C 132.988331 93.300852 133.117233 81.157644 129.121265 72.314569 C 128.057822 69.911559 126.575447 67.63671 124.448561 66.098784 C 117.971227 61.388885 109.979291 64.689018 106.305579 71.193164 C 105.532166 72.538849 104.887655 74.044735 104.372047 75.614702 Z M 104.372047 75.614702 " transform="matrix(0.121216,0,0,0.121917,0.0398497,0)"/>
<path style="fill:none;stroke-width:2;stroke-linecap:butt;stroke-linejoin:round;stroke:rgb(84.705882%,13.72549%,13.72549%);stroke-opacity:1;stroke-miterlimit:4;" d="M 106.853413 70.264 C 104.27537 66.707546 103.179701 63.984135 100.601658 60.427681 C 104.662076 61.164604 107.014541 57.063468 110.043742 54.243936 C 113.040718 51.424405 116.907784 49.598118 120.903751 50.719522 C 123.80405 51.520526 125.673132 53.154572 127.993371 55.14106 C 130.732543 57.447949 133.21391 58.697514 136.790945 58.601394 C 134.406255 62.510289 130.925896 66.387145 128.573431 70.29604 " transform="matrix(0.121216,0,0,0.121917,0.0398497,0)"/>
<path style="fill:none;stroke-width:1.87;stroke-linecap:butt;stroke-linejoin:round;stroke:rgb(84.705882%,13.72549%,13.72549%);stroke-opacity:1;stroke-miterlimit:4;" d="M 106.08 98.683594 C 104.436498 101.503125 101.342845 106.341184 98.410321 109.192756 C 100.279402 107.526669 102.374063 107.78299 104.662076 109.000515 C 106.95009 110.186 108.561367 112.108407 110.462675 113.742454 C 112.331756 115.40854 114.716447 116.882386 117.391167 116.754226 C 120.065887 116.658105 122.28945 114.959979 123.965178 113.133691 C 125.608681 111.275364 126.962154 109.192756 128.992363 107.65483 C 131.022572 106.148944 134.083999 105.34794 136.372013 106.565465 C 133.665067 103.521653 130.958121 100.445801 128.251176 97.401989 " transform="matrix(0.121216,0,0,0.121917,0.0398497,0)"/>
<path style="fill:none;stroke-width:2;stroke-linecap:butt;stroke-linejoin:round;stroke:rgb(84.705882%,13.72549%,13.72549%);stroke-opacity:1;stroke-miterlimit:4;" d="M 129.959129 93.749414 C 132.92388 97.049547 135.5986 100.509881 138.917831 103.553693 C 139.884597 98.363192 140.0135 96.440785 142.591543 91.827006 C 146.684187 84.553897 146.684187 76.896307 142.462641 69.815439 C 141.302521 67.893031 138.595576 64.240456 139.852372 61.773366 C 136.823171 66.002663 133.697293 70.264 129.926904 74.365137 " transform="matrix(0.121216,0,0,0.121917,0.0398497,0)"/>
<path style="fill:none;stroke-width:1.71;stroke-linecap:butt;stroke-linejoin:round;stroke:rgb(84.705882%,13.72549%,13.72549%);stroke-opacity:1;stroke-miterlimit:4;" d="M 103.953114 95.12714 C 101.407296 99.068075 98.861478 102.976971 96.31566 106.917907 C 97.443554 101.535165 95.864503 99.036035 94.897736 95.799982 C 93.125331 89.872559 92.48082 82.247008 94.575481 76.287544 C 96.186758 71.866007 98.410321 67.66875 97.959163 62.446209 C 100.086049 68.213432 101.987356 70.23196 104.629851 74.429217 " transform="matrix(0.121216,0,0,0.121917,0.0398497,0)"/>
<path style="fill:none;stroke-width:2;stroke-linecap:butt;stroke-linejoin:round;stroke:rgb(84.705882%,13.72549%,13.72549%);stroke-opacity:1;stroke-miterlimit:4;" d="M 107.433473 91.891087 L 125.769809 77.056507 " transform="matrix(0.121216,0,0,0.121917,0.0398497,0)"/>
<path style="fill:none;stroke-width:2;stroke-linecap:butt;stroke-linejoin:round;stroke:rgb(84.705882%,13.72549%,13.72549%);stroke-opacity:1;stroke-miterlimit:4;" d="M 106.724511 78.145872 C 113.266297 82.279048 119.775857 86.412225 126.317643 90.545401 " transform="matrix(0.121216,0,0,0.121917,0.0398497,0)"/>
<path style="fill:none;stroke-width:2;stroke-linecap:butt;stroke-linejoin:round;stroke:rgb(84.705882%,13.72549%,13.72549%);stroke-opacity:1;stroke-miterlimit:4;" d="M 109.979291 74.140856 C 111.010509 71.449485 113.524101 69.430957 116.327724 68.982395 C 119.163572 68.533833 122.160547 69.655238 123.965178 71.898047 " transform="matrix(0.121216,0,0,0.121917,0.0398497,0)"/>
<path style="fill:none;stroke-width:2;stroke-linecap:butt;stroke-linejoin:round;stroke:rgb(84.705882%,13.72549%,13.72549%);stroke-opacity:1;stroke-miterlimit:4;" d="M 111.558343 97.978711 C 114.845349 100.766202 120.420368 100.31764 123.191765 96.985467 " transform="matrix(0.121216,0,0,0.121917,0.0398497,0)"/>
<path style="fill:none;stroke-width:2;stroke-linecap:butt;stroke-linejoin:round;stroke:rgb(84.705882%,13.72549%,13.72549%);stroke-opacity:1;stroke-miterlimit:4;" d="M 109.173653 61.645206 C 111.236088 58.697514 114.684221 56.807147 118.293482 56.678986 C 121.870518 56.550826 125.479779 58.184872 127.735567 60.972363 " transform="matrix(0.121216,0,0,0.121917,0.0398497,0)"/>
<path style="fill:none;stroke-width:2;stroke-linecap:butt;stroke-linejoin:round;stroke:rgb(84.705882%,13.72549%,13.72549%);stroke-opacity:1;stroke-miterlimit:4;" d="M 108.11021 106.565465 C 110.269321 109.096635 113.588552 110.602521 116.940009 110.570481 C 120.291466 110.538441 123.546246 108.968475 125.673132 106.405265 " transform="matrix(0.121216,0,0,0.121917,0.0398497,0)"/>
<path style="fill:none;stroke-width:2;stroke-linecap:butt;stroke-linejoin:round;stroke:rgb(84.705882%,13.72549%,13.72549%);stroke-opacity:1;stroke-miterlimit:4;" d="M 137.757711 72.63497 C 139.497891 79.876039 138.369997 87.78995 134.664059 94.262056 " transform="matrix(0.121216,0,0,0.121917,0.0398497,0)"/>
<path style="fill:none;stroke-width:2;stroke-linecap:butt;stroke-linejoin:round;stroke:rgb(84.705882%,13.72549%,13.72549%);stroke-opacity:1;stroke-miterlimit:4;" d="M 99.344861 74.845739 C 97.153524 80.452761 96.799043 86.764666 98.410321 92.595969 " transform="matrix(0.121216,0,0,0.121917,0.0398497,0)"/>
</g>
</svg>
