<?xml version="1.0" encoding="UTF-8"?>
<svg xmlns="http://www.w3.org/2000/svg" xmlns:xlink="http://www.w3.org/1999/xlink" width="48px" height="px" viewBox="0 0 47 31" version="1.1">
<defs>
<filter id="alpha" filterUnits="objectBoundingBox" x="0%" y="0%" width="100%" height="100%">
  <feColorMatrix type="matrix" in="SourceGraphic" values="0 0 0 0 1 0 0 0 0 1 0 0 0 0 1 0 0 0 1 0"/>
</filter>
<mask id="mask0">
  <g filter="url(#alpha)">
<rect x="0" y="0" width="47" height="31" style="fill:rgb(0%,0%,0%);fill-opacity:0.180392;stroke:none;"/>
  </g>
</mask>
<clipPath id="clip1">
  <rect x="0" y="0" width="47" height="31"/>
</clipPath>
<g id="surface5" clip-path="url(#clip1)">
<path style=" stroke:none;fill-rule:nonzero;fill:rgb(0%,0%,0%);fill-opacity:1;" d="M 7.460938 13.148438 C 7.03125 13.519531 6.386719 13.832031 6.019531 14.128906 C 4.726562 15.171875 3.558594 16.382812 2.5625 17.722656 C 2.742188 16.824219 2.789062 15.910156 3.019531 15.011719 C 3.265625 14.039062 3.617188 13.097656 4.050781 12.199219 C 4.882812 10.445312 6.015625 8.835938 7.367188 7.460938 C 7.757812 7.058594 8.179688 6.6875 8.621094 6.34375 C 9.0625 6 9.464844 5.628906 9.886719 5.25 C 10.652344 4.5625 11.457031 3.917969 12.292969 3.320312 C 13.085938 2.761719 14.140625 2.410156 15.066406 2.167969 C 15.335938 2.097656 15.609375 2.128906 15.886719 2.097656 C 16.28125 2.054688 16.679688 2.015625 17.074219 1.984375 C 17.46875 1.957031 17.867188 1.933594 18.265625 1.917969 C 18.632812 1.902344 19.046875 1.953125 19.410156 1.890625 C 18.003906 2.136719 16.089844 2.957031 14.828125 3.679688 C 13.5 4.441406 12.542969 5.28125 11.464844 6.417969 C 10.320312 7.625 9.359375 9.015625 8.636719 10.527344 C 8.453125 10.914062 8.285156 11.304688 8.132812 11.707031 C 8.011719 12.023438 7.964844 12.449219 7.804688 12.742188 C 7.726562 12.886719 7.605469 13.019531 7.457031 13.148438 Z M 7.460938 13.148438 "/>
</g>
<mask id="mask1">
  <g filter="url(#alpha)">
<rect x="0" y="0" width="47" height="31" style="fill:rgb(0%,0%,0%);fill-opacity:0.180392;stroke:none;"/>
  </g>
</mask>
<clipPath id="clip2">
  <rect x="0" y="0" width="47" height="31"/>
</clipPath>
<g id="surface8" clip-path="url(#clip2)">
<path style=" stroke:none;fill-rule:nonzero;fill:rgb(0%,0%,0%);fill-opacity:1;" d="M 22.6875 2.148438 C 25.355469 2.269531 27.855469 2.746094 30.214844 3.84375 C 31.535156 4.457031 32.953125 5.703125 34.023438 6.703125 C 35.785156 8.347656 37.230469 10.773438 38.078125 13.101562 C 39.042969 15.753906 39.132812 18.820312 38.996094 21.617188 C 39.867188 19.667969 40.8125 19.394531 39.46875 13.863281 C 39.09375 12.3125 38.464844 10.824219 37.582031 9.503906 C 36.796875 8.332031 35.933594 7.222656 34.890625 6.296875 C 33.328125 4.910156 32.25 4.160156 30.632812 3.433594 C 28.335938 2.402344 25.238281 1.925781 22.6875 2.144531 Z M 22.6875 2.148438 "/>
</g>
</defs>
<g id="surface1">
<path style=" stroke:none;fill-rule:nonzero;fill:rgb(56.862745%,57.647059%,63.921569%);fill-opacity:1;" d="M 7.503906 13.242188 C 7.273438 13.527344 6.96875 13.753906 6.660156 14.007812 C 5.582031 14.886719 4.503906 15.769531 3.425781 16.652344 C 3.269531 16.777344 3.089844 16.914062 2.890625 16.882812 C 2.148438 16.765625 3.886719 12.519531 4.136719 12.011719 C 5.425781 9.394531 7.386719 7.242188 9.546875 5.347656 C 10.390625 4.605469 11.273438 3.886719 12.199219 3.253906 C 12.558594 3.007812 13.050781 2.90625 13.449219 2.734375 C 13.976562 2.511719 14.515625 2.3125 15.066406 2.167969 C 15.335938 2.097656 15.609375 2.128906 15.886719 2.09375 C 16.28125 2.050781 16.679688 2.015625 17.074219 1.984375 C 17.46875 1.953125 17.867188 1.929688 18.265625 1.914062 C 18.632812 1.902344 19.050781 1.949219 19.414062 1.886719 C 18.007812 2.132812 16.078125 2.980469 14.832031 3.679688 C 13.496094 4.425781 12.546875 5.28125 11.46875 6.417969 C 10.320312 7.625 9.359375 9.015625 8.636719 10.527344 C 8.308594 11.214844 8.03125 11.925781 7.816406 12.65625 C 7.75 12.882812 7.640625 13.070312 7.503906 13.238281 Z M 7.503906 13.242188 "/>
<use xlink:href="#surface5" mask="url(#mask0)"/>
<path style=" stroke:none;fill-rule:nonzero;fill:rgb(70.588235%,71.372549%,78.431373%);fill-opacity:1;" d="M 0.675781 17.714844 C 0.125 19.21875 -0.0273438 20.847656 0.00390625 22.453125 C 0.03125 23.921875 0.226562 25.441406 0.992188 26.683594 C 1.277344 25.621094 1.511719 24.546875 1.699219 23.460938 C 2.121094 21.011719 2.292969 18.519531 2.863281 16.097656 C 2.941406 15.765625 3.027344 15.4375 3.121094 15.109375 C 3.199219 14.835938 3.425781 14.414062 3.398438 14.148438 C 3.109375 14.1875 2.738281 14.605469 2.527344 14.804688 C 2.25 15.070312 1.996094 15.359375 1.769531 15.667969 C 1.304688 16.289062 0.945312 16.984375 0.675781 17.710938 Z M 0.675781 17.714844 "/>
<path style=" stroke:none;fill-rule:nonzero;fill:rgb(28.627451%,29.803922%,40.392157%);fill-opacity:1;" d="M 40.722656 12.171875 C 39.367188 12 37.355469 11.964844 36.199219 12.847656 C 34.6875 14 33.773438 16.191406 33.511719 17.988281 C 33.167969 20.359375 33.257812 22.761719 33.507812 25.148438 C 33.695312 26.902344 34.347656 28.894531 35.753906 30.125 C 36.164062 30.484375 36.707031 30.644531 37.246094 30.722656 C 38.757812 30.929688 40.730469 31.320312 42 30.308594 C 43.125 29.410156 43.066406 28.410156 43.46875 27.175781 C 43.871094 25.945312 44.710938 24.722656 45.097656 23.367188 C 45.9375 20.449219 46.113281 16.960938 44.386719 14.328125 C 43.5625 13.066406 42.21875 12.367188 40.769531 12.175781 C 40.753906 12.175781 40.738281 12.175781 40.726562 12.171875 Z M 40.722656 12.171875 "/>
<path style=" stroke:none;fill-rule:nonzero;fill:rgb(56.862745%,57.647059%,63.921569%);fill-opacity:1;" d="M 42.910156 15.933594 C 41.988281 2.6875 26.898438 -2.160156 16.019531 0.925781 C 9.996094 2.632812 4.625 7.796875 3.207031 14.238281 C 2.71875 16.441406 1.6875 18.714844 1.605469 20.972656 C 1.589844 21.34375 1.8125 21.878906 2.128906 21.699219 C 2.246094 21.632812 2.140625 21.488281 2.175781 21.359375 C 3.101562 18.039062 3.785156 14.507812 5.296875 11.425781 C 6.960938 8.03125 10.738281 4.234375 14.1875 2.957031 C 17.320312 1.796875 21.332031 1.957031 24.660156 2.308594 C 26.601562 2.546875 28.449219 3.019531 30.214844 3.84375 C 31.539062 4.457031 32.953125 5.703125 34.027344 6.703125 C 35.785156 8.347656 37.234375 10.773438 38.082031 13.101562 C 39.046875 15.753906 39.132812 18.820312 39 21.617188 C 39.09375 21.429688 39.179688 21.242188 39.257812 21.050781 C 39.253906 21.097656 39.253906 21.144531 39.25 21.191406 C 40.738281 20.375 42.371094 19.382812 42.8125 17.710938 C 42.964844 17.136719 42.953125 16.527344 42.910156 15.929688 Z M 42.910156 15.933594 "/>
<use xlink:href="#surface8" mask="url(#mask1)"/>
<path style=" stroke:none;fill-rule:nonzero;fill:rgb(70.588235%,71.372549%,78.431373%);fill-opacity:1;" d="M 37.273438 26.457031 C 37.574219 27.632812 38.042969 28.859375 39.035156 29.535156 C 40.183594 30.320312 41.785156 30.132812 42.941406 29.355469 C 44.09375 28.582031 44.855469 27.320312 45.382812 26.015625 C 46.285156 23.773438 46.582031 21.277344 46.230469 18.878906 C 45.949219 16.957031 45.1875 14.996094 43.648438 13.855469 C 42.5625 13.046875 41.015625 12.777344 39.753906 13.28125 C 38.328125 13.855469 37.929688 14.820312 37.5 16.246094 C 36.511719 19.542969 36.425781 23.121094 37.273438 26.457031 Z M 37.273438 26.457031 "/>
<path style=" stroke:none;fill-rule:nonzero;fill:rgb(56.862745%,57.647059%,63.921569%);fill-opacity:1;" d="M 38.917969 25.738281 C 39.183594 26.785156 39.605469 27.875 40.484375 28.476562 C 41.503906 29.171875 42.847656 28.859375 43.957031 28.316406 C 45.0625 27.773438 45.773438 26.675781 46.179688 25.496094 C 46.875 23.46875 47.191406 21.136719 46.882812 19.003906 C 46.632812 17.296875 45.953125 15.554688 44.585938 14.539062 C 43.621094 13.820312 42.246094 13.578125 41.125 14.03125 C 39.859375 14.539062 39.5 15.398438 39.121094 16.667969 C 38.242188 19.597656 38.164062 22.773438 38.917969 25.742188 Z M 38.917969 25.738281 "/>
<path style=" stroke:none;fill-rule:nonzero;fill:rgb(28.627451%,29.803922%,40.392157%);fill-opacity:1;" d="M 1.476562 24.695312 C 1.175781 23.558594 1.296875 22.363281 1.296875 21.195312 C 1.296875 19.953125 1.375 18.699219 1.65625 17.488281 C 2.277344 14.792969 3.976562 12.441406 6.785156 12 C 6.785156 12 7.648438 11.941406 8.355469 11.96875 C 9 11.992188 9.664062 12.066406 10.191406 12.300781 C 8.0625 13.882812 6.304688 15.542969 4.84375 17.644531 C 4.183594 18.597656 3.519531 19.703125 2.996094 20.734375 C 2.648438 21.414062 2.363281 22.15625 2.078125 22.871094 C 1.90625 23.304688 1.546875 24.511719 1.476562 24.695312 Z M 1.476562 24.695312 "/>
</g>
</svg>
