<?xml version="1.0" encoding="UTF-8"?>
<svg xmlns="http://www.w3.org/2000/svg" xmlns:xlink="http://www.w3.org/1999/xlink" width="48px" height="px" viewBox="0 0 48 40" version="1.1">
<defs>
<filter id="alpha" filterUnits="objectBoundingBox" x="0%" y="0%" width="100%" height="100%">
  <feColorMatrix type="matrix" in="SourceGraphic" values="0 0 0 0 1 0 0 0 0 1 0 0 0 0 1 0 0 0 1 0"/>
</filter>
<mask id="mask0">
  <g filter="url(#alpha)">
<rect x="0" y="0" width="48" height="40" style="fill:rgb(0%,0%,0%);fill-opacity:0.211765;stroke:none;"/>
  </g>
</mask>
<clipPath id="clip1">
  <rect x="0" y="0" width="48" height="40"/>
</clipPath>
<g id="surface5" clip-path="url(#clip1)">
<path style=" stroke:none;fill-rule:nonzero;fill:rgb(0%,0%,0%);fill-opacity:1;" d="M 47.945312 39.964844 C 46.582031 37.34375 43.746094 35.914062 41.054688 34.75 C 37.636719 33.273438 34.152344 31.949219 30.644531 30.699219 C 27.289062 29.5 23.871094 28.363281 20.324219 28.058594 C 16.078125 27.691406 11.804688 28.570312 7.878906 30.199219 C 5.875 31.035156 3.953125 32.0625 2.121094 33.238281 C 1.609375 33.566406 -0.171875 34.625 1.429688 34.546875 C 2.589844 34.488281 3.753906 34.390625 4.914062 34.339844 C 9.566406 34.132812 14.234375 34.1875 18.882812 34.5 C 23.550781 34.816406 28.203125 35.394531 32.808594 36.230469 C 37.394531 37.0625 41.933594 38.152344 46.398438 39.496094 C 46.65625 39.570312 47.828125 39.75 47.941406 39.96875 Z M 47.945312 39.964844 "/>
</g>
<mask id="mask1">
  <g filter="url(#alpha)">
<rect x="0" y="0" width="48" height="40" style="fill:rgb(0%,0%,0%);fill-opacity:0.0705882;stroke:none;"/>
  </g>
</mask>
<clipPath id="clip2">
  <rect x="0" y="0" width="48" height="40"/>
</clipPath>
<g id="surface8" clip-path="url(#clip2)">
<path style=" stroke:none;fill-rule:nonzero;fill:rgb(0%,0%,0%);fill-opacity:1;" d="M 46.644531 28.257812 C 46.578125 27.292969 46.5 26.074219 46.421875 25.265625 C 46.371094 24.761719 46.054688 22.441406 45.964844 21.96875 C 45.769531 22.957031 45.304688 24.195312 44.378906 24.683594 C 43.207031 25.300781 41.285156 25.226562 40 25.214844 C 36.976562 25.183594 34.007812 24.515625 31.027344 24.089844 C 24.648438 23.175781 17.8125 22.671875 11.402344 22.835938 C 9.894531 22.875 8.390625 22.960938 6.886719 23.089844 C 5.769531 23.1875 4.730469 23.148438 4.136719 24.285156 C 3.546875 25.421875 2.195312 27.648438 3.542969 28.710938 C 4.386719 29.378906 6.074219 29.542969 7.089844 29.847656 C 8.761719 30.351562 10.46875 30.730469 12.191406 30.984375 C 13.917969 31.242188 15.652344 31.351562 17.398438 31.371094 C 18.820312 31.390625 20.035156 31.851562 21.449219 32.027344 C 23.171875 32.246094 24.890625 32.351562 26.621094 32.40625 C 28.242188 32.457031 29.824219 32.933594 31.453125 33.203125 C 35.101562 33.808594 38.828125 33.957031 42.515625 33.636719 C 44.917969 33.425781 46.660156 34.203125 46.699219 32.003906 C 46.71875 30.699219 46.734375 29.574219 46.640625 28.257812 Z M 46.644531 28.257812 "/>
</g>
<mask id="mask2">
  <g filter="url(#alpha)">
<rect x="0" y="0" width="48" height="40" style="fill:rgb(0%,0%,0%);fill-opacity:0.129412;stroke:none;"/>
  </g>
</mask>
<clipPath id="clip3">
  <rect x="0" y="0" width="48" height="40"/>
</clipPath>
<g id="surface11" clip-path="url(#clip3)">
<path style=" stroke:none;fill-rule:nonzero;fill:rgb(0%,0%,0%);fill-opacity:1;" d="M 4.417969 34.359375 C 4.132812 33.914062 4.503906 32.355469 4.566406 32.078125 C 4.832031 30.949219 5.257812 29.851562 5.679688 28.757812 C 5.925781 28.128906 5.757812 27.429688 5.855469 26.78125 C 5.925781 26.3125 5.878906 25.625 6.300781 25.28125 C 6.730469 24.925781 7.386719 25.042969 7.921875 24.988281 C 6.996094 26.316406 6.664062 27.863281 6.371094 29.371094 C 6.226562 30.121094 6.097656 30.875 5.898438 31.613281 C 5.699219 32.351562 5.660156 33.164062 5.316406 33.882812 C 5.234375 34.058594 5.128906 34.230469 4.960938 34.34375 C 4.683594 34.535156 4.515625 34.507812 4.421875 34.359375 Z M 4.417969 34.359375 "/>
</g>
<mask id="mask3">
  <g filter="url(#alpha)">
<rect x="0" y="0" width="48" height="40" style="fill:rgb(0%,0%,0%);fill-opacity:0.129412;stroke:none;"/>
  </g>
</mask>
<clipPath id="clip4">
  <rect x="0" y="0" width="48" height="40"/>
</clipPath>
<g id="surface14" clip-path="url(#clip4)">
<path style=" stroke:none;fill-rule:nonzero;fill:rgb(0%,0%,0%);fill-opacity:1;" d="M 11.191406 33.554688 C 11.019531 33.75 10.625 33.65625 10.480469 33.445312 C 10.335938 33.234375 10.34375 33.128906 10.375 32.882812 C 10.65625 30.496094 10.941406 28.101562 11.617188 25.773438 C 11.753906 25.308594 12.007812 24.542969 12.78125 24.90625 C 13.339844 25.164062 12.9375 25.777344 12.804688 26.167969 C 12.414062 27.300781 12.089844 28.453125 11.828125 29.613281 C 11.523438 30.96875 11.320312 32.179688 11.191406 33.554688 Z M 11.191406 33.554688 "/>
</g>
<mask id="mask4">
  <g filter="url(#alpha)">
<rect x="0" y="0" width="48" height="40" style="fill:rgb(0%,0%,0%);fill-opacity:0.129412;stroke:none;"/>
  </g>
</mask>
<clipPath id="clip5">
  <rect x="0" y="0" width="48" height="40"/>
</clipPath>
<g id="surface17" clip-path="url(#clip5)">
<path style=" stroke:none;fill-rule:nonzero;fill:rgb(0%,0%,0%);fill-opacity:1;" d="M 17.691406 24.765625 C 17.890625 24.710938 18.125 24.699219 18.433594 24.683594 C 18.394531 24.683594 18.003906 25.535156 17.980469 25.59375 C 17.671875 26.320312 17.730469 27.3125 17.742188 28.085938 C 17.765625 29.328125 17.429688 30.558594 17.121094 31.789062 C 17.058594 32.054688 16.957031 33.316406 16.5625 33.34375 C 16.042969 33.375 16.117188 32.503906 16.144531 32.265625 C 16.351562 30.4375 17.117188 28.785156 16.6875 26.910156 C 16.570312 26.386719 16.691406 25.824219 16.984375 25.363281 C 17.210938 25.003906 17.414062 24.84375 17.691406 24.765625 Z M 17.691406 24.765625 "/>
</g>
<mask id="mask5">
  <g filter="url(#alpha)">
<rect x="0" y="0" width="48" height="40" style="fill:rgb(0%,0%,0%);fill-opacity:0.129412;stroke:none;"/>
  </g>
</mask>
<clipPath id="clip6">
  <rect x="0" y="0" width="48" height="40"/>
</clipPath>
<g id="surface20" clip-path="url(#clip6)">
<path style=" stroke:none;fill-rule:nonzero;fill:rgb(0%,0%,0%);fill-opacity:1;" d="M 22.464844 28.855469 C 22.097656 30.476562 21.53125 32.234375 22.25 33.742188 C 22.464844 33.972656 22.910156 33.789062 23.019531 33.5 C 23.132812 33.210938 23.03125 32.894531 22.945312 32.597656 C 22.4375 30.804688 23.199219 28.175781 24.113281 26.523438 C 24.339844 26.113281 25.175781 23.960938 23.625 25.050781 C 22.605469 25.765625 22.71875 27.753906 22.46875 28.855469 Z M 22.464844 28.855469 "/>
</g>
<mask id="mask6">
  <g filter="url(#alpha)">
<rect x="0" y="0" width="48" height="40" style="fill:rgb(0%,0%,0%);fill-opacity:0.129412;stroke:none;"/>
  </g>
</mask>
<clipPath id="clip7">
  <rect x="0" y="0" width="48" height="40"/>
</clipPath>
<g id="surface23" clip-path="url(#clip7)">
<path style=" stroke:none;fill-rule:nonzero;fill:rgb(0%,0%,0%);fill-opacity:1;" d="M 27.910156 31.597656 C 27.730469 32.09375 27.527344 32.601562 27.566406 33.121094 C 27.601562 33.640625 27.945312 34.1875 28.523438 34.324219 C 28.753906 32.226562 29.089844 29.828125 29.871094 27.832031 C 30.109375 27.222656 30.371094 26.578125 30.207031 25.957031 C 30.105469 25.578125 29.640625 25.117188 29.148438 25.46875 C 28.785156 25.726562 28.9375 26.878906 28.902344 27.234375 C 28.75 28.714844 28.417969 30.179688 27.910156 31.597656 Z M 27.910156 31.597656 "/>
</g>
<mask id="mask7">
  <g filter="url(#alpha)">
<rect x="0" y="0" width="48" height="40" style="fill:rgb(0%,0%,0%);fill-opacity:0.129412;stroke:none;"/>
  </g>
</mask>
<clipPath id="clip8">
  <rect x="0" y="0" width="48" height="40"/>
</clipPath>
<g id="surface26" clip-path="url(#clip8)">
<path style=" stroke:none;fill-rule:nonzero;fill:rgb(0%,0%,0%);fill-opacity:1;" d="M 34.589844 28.507812 C 34.472656 29.652344 34.3125 30.722656 33.851562 31.785156 C 33.40625 32.8125 33.363281 33.972656 33.742188 35.015625 C 33.996094 35.0625 34.0625 35.105469 34.316406 35.148438 C 34.257812 33 35.394531 30.894531 35.597656 28.746094 C 35.664062 28.066406 35.828125 26.085938 34.953125 26.320312 C 34.019531 26.570312 34.65625 27.839844 34.589844 28.503906 Z M 34.589844 28.507812 "/>
</g>
<mask id="mask8">
  <g filter="url(#alpha)">
<rect x="0" y="0" width="48" height="40" style="fill:rgb(0%,0%,0%);fill-opacity:0.129412;stroke:none;"/>
  </g>
</mask>
<clipPath id="clip9">
  <rect x="0" y="0" width="48" height="40"/>
</clipPath>
<g id="surface29" clip-path="url(#clip9)">
<path style=" stroke:none;fill-rule:nonzero;fill:rgb(0%,0%,0%);fill-opacity:1;" d="M 40.042969 31.269531 C 39.765625 32.660156 39.164062 33.984375 38.6875 35.332031 C 38.59375 35.597656 38.546875 35.960938 38.832031 36.089844 C 39.011719 36.175781 39.25 36.097656 39.386719 35.960938 C 39.519531 35.824219 39.582031 35.644531 39.636719 35.46875 C 40.078125 34.117188 40.515625 32.769531 40.953125 31.417969 C 41.214844 30.621094 41.472656 29.796875 41.320312 28.980469 C 41.21875 28.4375 39.765625 26.703125 39.75 27.75 C 39.742188 28.265625 40.132812 28.898438 40.171875 29.449219 C 40.214844 30.058594 40.160156 30.667969 40.042969 31.265625 Z M 40.042969 31.269531 "/>
</g>
<mask id="mask9">
  <g filter="url(#alpha)">
<rect x="0" y="0" width="48" height="40" style="fill:rgb(0%,0%,0%);fill-opacity:0.129412;stroke:none;"/>
  </g>
</mask>
<clipPath id="clip10">
  <rect x="0" y="0" width="48" height="40"/>
</clipPath>
<g id="surface32" clip-path="url(#clip10)">
<path style=" stroke:none;fill-rule:nonzero;fill:rgb(0%,0%,0%);fill-opacity:1;" d="M 45.183594 36.921875 C 45.121094 37.207031 45.050781 37.507812 45.152344 37.78125 C 45.257812 38.058594 45.609375 38.273438 45.890625 38.136719 C 46.027344 35.609375 46.085938 33.074219 46.070312 30.542969 C 46.070312 30.132812 46.058594 29.703125 45.859375 29.339844 C 45.777344 29.1875 45.335938 28.667969 45.089844 28.789062 C 44.84375 28.914062 45.074219 29.394531 45.117188 29.582031 C 45.304688 30.402344 45.441406 31.226562 45.511719 32.0625 C 45.644531 33.683594 45.535156 35.324219 45.183594 36.921875 Z M 45.183594 36.921875 "/>
</g>
<mask id="mask10">
  <g filter="url(#alpha)">
<rect x="0" y="0" width="48" height="40" style="fill:rgb(0%,0%,0%);fill-opacity:0.129412;stroke:none;"/>
  </g>
</mask>
<clipPath id="clip11">
  <rect x="0" y="0" width="48" height="40"/>
</clipPath>
<g id="surface35" clip-path="url(#clip11)">
<path style=" stroke:none;fill-rule:nonzero;fill:rgb(0%,0%,0%);fill-opacity:1;" d="M 37.988281 6.316406 L 37.972656 6.585938 C 37.96875 6.691406 38.03125 6.789062 38.125 6.816406 L 39.195312 7.121094 C 39.269531 7.144531 39.328125 7.210938 39.34375 7.292969 L 39.410156 7.617188 C 39.429688 7.707031 39.394531 7.800781 39.320312 7.847656 L 38.71875 8.214844 C 38.617188 8.273438 38.589844 8.417969 38.65625 8.519531 L 38.78125 8.710938 C 38.855469 8.828125 38.8125 8.984375 38.695312 9.03125 L 38.363281 9.167969 C 38.214844 9.230469 38.199219 9.445312 38.332031 9.546875 L 38.890625 9.96875 C 39.03125 10.078125 39 10.308594 38.835938 10.355469 L 38.449219 10.460938 C 38.355469 10.488281 38.292969 10.585938 38.304688 10.691406 L 38.359375 11.125 C 38.363281 11.144531 38.367188 11.164062 38.375 11.183594 L 37.90625 11.269531 C 37.9375 11.351562 37.921875 11.449219 37.859375 11.511719 L 37.574219 11.785156 C 37.535156 11.820312 37.484375 11.839844 37.433594 11.835938 L 37.308594 12.398438 C 37.28125 12.398438 37.257812 12.390625 37.230469 12.375 L 36.132812 11.816406 C 35.960938 11.730469 35.789062 11.914062 35.871094 12.097656 L 35.894531 12.15625 C 35.976562 12.339844 35.804688 12.523438 35.632812 12.4375 C 35.253906 12.246094 35.492188 12.9375 35.261719 13.039062 C 35.113281 13.101562 34.945312 13.054688 34.796875 12.992188 C 34.652344 12.933594 34.5 12.859375 34.339844 12.871094 C 34.042969 12.894531 33.863281 13.199219 33.691406 13.449219 C 33.519531 13.695312 33.203125 13.933594 32.949219 13.777344 C 32.824219 13.699219 32.761719 13.546875 32.679688 13.425781 C 32.496094 13.152344 32.160156 12.992188 31.835938 13.023438 C 31.980469 13.148438 31.941406 13.402344 31.789062 13.515625 C 31.636719 13.625 31.417969 13.601562 31.265625 13.488281 C 31.117188 13.375 31.027344 13.195312 30.984375 13.011719 C 30.953125 12.886719 30.933594 12.742188 30.835938 12.660156 C 30.65625 12.507812 30.382812 12.679688 30.242188 12.871094 C 30.101562 13.066406 29.957031 13.308594 29.722656 13.320312 C 29.535156 13.328125 29.378906 13.179688 29.277344 13.019531 C 29.179688 12.859375 29.117188 12.671875 28.988281 12.53125 C 28.863281 12.394531 28.640625 12.3125 28.488281 12.417969 C 28.632812 12.660156 28.628906 12.984375 28.488281 13.226562 C 28.347656 13.472656 28.0625 13.625 27.78125 13.609375 C 27.785156 13.261719 27.789062 12.910156 27.789062 12.558594 C 27.667969 12.742188 27.429688 12.835938 27.214844 12.785156 C 27.003906 12.730469 26.835938 12.535156 26.8125 12.316406 C 26.796875 12.167969 26.839844 12.023438 26.871094 11.878906 C 26.933594 11.558594 26.851562 11.328125 26.527344 11.328125 C 26.417969 11.328125 26.058594 11.480469 26.234375 11.113281 L 26.277344 11.023438 C 26.347656 10.875 26.238281 10.695312 26.082031 10.703125 L 25.757812 10.71875 C 25.558594 10.726562 25.460938 10.453125 25.617188 10.328125 L 25.90625 10.09375 C 26.0625 9.96875 25.960938 9.695312 25.761719 9.707031 L 24.921875 9.757812 C 24.710938 9.769531 24.621094 9.464844 24.800781 9.351562 C 24.984375 9.238281 25.226562 9.191406 25.339844 8.980469 C 25.390625 8.886719 25.410156 8.78125 25.46875 8.6875 C 25.777344 8.210938 26.117188 9.503906 26.203125 9.691406 C 26.398438 10.128906 27.019531 10.484375 27.304688 10.105469 C 27.574219 9.753906 27.214844 9.148438 27.523438 8.832031 C 27.5 8.855469 27.839844 9.414062 27.863281 9.46875 C 28.011719 9.804688 28.230469 10.089844 28.472656 10.375 C 28.566406 10.484375 28.695312 10.601562 28.832031 10.558594 C 28.96875 10.515625 29.007812 10.339844 29.023438 10.195312 C 29.039062 10.023438 29.054688 9.855469 29.070312 9.6875 C 29.085938 9.5625 29.113281 9.414062 29.226562 9.367188 C 29.332031 9.324219 29.453125 9.390625 29.515625 9.484375 C 29.628906 9.648438 29.636719 9.910156 29.800781 10.035156 C 29.925781 10.125 30.089844 10.128906 30.226562 10.203125 C 30.398438 10.300781 30.523438 10.472656 30.660156 10.609375 C 30.832031 10.789062 31.078125 10.945312 31.3125 10.859375 C 31.398438 10.828125 31.46875 10.765625 31.542969 10.707031 C 31.835938 10.472656 32.285156 10.628906 32.152344 10.132812 C 32.113281 9.972656 32.039062 9.8125 32.054688 9.652344 C 32.078125 9.449219 32.144531 9.417969 32.308594 9.472656 C 32.394531 9.503906 32.425781 9.617188 32.523438 9.621094 C 32.617188 9.625 32.785156 9.449219 32.890625 9.421875 C 33.210938 9.328125 33.285156 9.515625 33.460938 9.71875 C 33.628906 9.914062 33.976562 9.9375 34.214844 10.007812 C 34.269531 10.023438 34.328125 10.039062 34.382812 10.035156 C 34.4375 10.027344 34.496094 9.996094 34.515625 9.941406 C 34.535156 9.882812 34.503906 9.8125 34.460938 9.765625 C 34.421875 9.71875 34.367188 9.679688 34.335938 9.625 C 34.304688 9.570312 34.304688 9.488281 34.355469 9.453125 C 34.441406 9.386719 34.589844 9.5 34.660156 9.421875 C 34.695312 9.386719 34.691406 9.335938 34.679688 9.289062 C 34.640625 9.105469 34.488281 9.015625 34.378906 8.878906 C 34.257812 8.722656 34.222656 8.546875 34.242188 8.347656 C 34.3125 7.730469 35.164062 7.34375 35.625 7.757812 C 35.230469 7.789062 34.878906 7.339844 35 6.960938 C 35.125 6.570312 35.539062 6.75 35.851562 6.785156 C 35.90625 6.789062 35.96875 6.796875 36.023438 6.773438 C 36.109375 6.734375 36.148438 6.621094 36.132812 6.527344 C 36.113281 6.429688 36.050781 6.347656 35.980469 6.28125 C 35.769531 6.082031 35.484375 5.953125 35.34375 5.699219 C 35.304688 5.628906 35.277344 5.542969 35.3125 5.46875 C 35.355469 5.378906 35.472656 5.351562 35.570312 5.355469 C 35.847656 5.371094 35.988281 5.386719 36.035156 5.058594 C 36.066406 4.832031 35.984375 4.589844 35.816406 4.4375 C 35.5625 4.210938 35.167969 4.191406 34.945312 3.933594 C 34.753906 3.710938 34.765625 3.34375 34.96875 3.132812 C 35.171875 2.917969 35.496094 2.921875 35.742188 3.058594 C 35.628906 2.695312 35.632812 2.230469 35.898438 1.953125 C 36.058594 2.316406 35.941406 2.796875 35.875 3.195312 C 35.847656 3.359375 36.003906 3.503906 36.148438 3.441406 L 36.777344 3.175781 C 36.917969 3.121094 37.066406 3.246094 37.054688 3.402344 L 37.027344 3.738281 C 37.023438 3.785156 37.035156 3.824219 37.054688 3.863281 L 37.199219 4.148438 C 37.238281 4.226562 37.230469 4.320312 37.175781 4.386719 L 36.855469 4.804688 C 36.734375 4.960938 36.871094 5.199219 37.058594 5.15625 L 38.578125 4.792969 C 38.707031 4.761719 38.832031 4.875 38.828125 5.019531 L 38.816406 5.316406 C 38.8125 5.371094 38.792969 5.421875 38.757812 5.457031 L 38.054688 6.175781 C 38.015625 6.214844 37.996094 6.261719 37.992188 6.316406 Z M 37.988281 6.316406 "/>
</g>
</defs>
<g id="surface1">
<use xlink:href="#surface5" mask="url(#mask0)"/>
<path style=" stroke:none;fill-rule:nonzero;fill:rgb(94.509804%,94.901961%,94.901961%);fill-opacity:1;" d="M 8.519531 17.148438 C 13.828125 10.992188 21.003906 9.15625 28.835938 10.066406 C 32.089844 10.441406 35.332031 11.207031 38.269531 12.671875 C 41.410156 14.242188 44.636719 17.132812 45.660156 20.683594 C 46.539062 23.71875 46.746094 29.421875 46.703125 32.007812 C 46.667969 34.203125 44.925781 33.429688 42.519531 33.636719 C 38.832031 33.957031 35.109375 33.8125 31.457031 33.207031 C 29.832031 32.933594 28.246094 32.457031 26.625 32.40625 C 24.894531 32.355469 23.175781 32.246094 21.453125 32.03125 C 20.042969 31.851562 18.824219 31.390625 17.402344 31.375 C 15.660156 31.351562 13.921875 31.242188 12.195312 30.988281 C 10.46875 30.730469 8.769531 30.351562 7.097656 29.851562 C 6.082031 29.542969 4.390625 29.378906 3.546875 28.714844 C 2.679688 28.03125 3.070312 27.425781 3.390625 26.386719 C 4.445312 22.972656 6.214844 19.824219 8.523438 17.148438 Z M 8.519531 17.148438 "/>
<use xlink:href="#surface8" mask="url(#mask1)"/>
<path style=" stroke:none;fill-rule:nonzero;fill:rgb(84.705882%,13.72549%,13.72549%);fill-opacity:1;" d="M 1.710938 28.042969 C 1.921875 27.425781 2.6875 26.183594 3.203125 25.71875 C 3.996094 25.015625 5.796875 24.925781 6.933594 24.871094 C 13.5625 24.550781 19.667969 24.351562 26.28125 24.933594 C 32.207031 25.449219 38.027344 26.800781 43.769531 28.113281 C 45.074219 28.410156 46.417969 28.945312 47.074219 29.964844 C 47.464844 30.574219 47.558594 31.28125 47.648438 31.96875 C 47.59375 34.441406 47.863281 37.058594 48 39.546875 C 32.722656 34.34375 16.199219 32.070312 0 35.527344 C 0.0664062 32.675781 1.324219 29.179688 1.710938 28.042969 Z M 1.710938 28.042969 "/>
<use xlink:href="#surface11" mask="url(#mask2)"/>
<use xlink:href="#surface14" mask="url(#mask3)"/>
<use xlink:href="#surface17" mask="url(#mask4)"/>
<use xlink:href="#surface20" mask="url(#mask5)"/>
<use xlink:href="#surface23" mask="url(#mask6)"/>
<use xlink:href="#surface26" mask="url(#mask7)"/>
<use xlink:href="#surface29" mask="url(#mask8)"/>
<use xlink:href="#surface32" mask="url(#mask9)"/>
<path style=" stroke:none;fill-rule:nonzero;fill:rgb(84.705882%,13.72549%,13.72549%);fill-opacity:1;" d="M 37.988281 6.316406 L 37.972656 6.585938 C 37.96875 6.691406 38.03125 6.789062 38.125 6.816406 L 39.195312 7.121094 C 39.269531 7.144531 39.328125 7.210938 39.34375 7.292969 L 39.410156 7.617188 C 39.429688 7.707031 39.394531 7.800781 39.320312 7.847656 L 38.71875 8.214844 C 38.617188 8.273438 38.589844 8.417969 38.65625 8.519531 L 38.78125 8.710938 C 38.855469 8.828125 38.8125 8.984375 38.695312 9.03125 L 38.363281 9.167969 C 38.214844 9.230469 38.199219 9.445312 38.332031 9.546875 L 38.890625 9.96875 C 39.03125 10.078125 39 10.308594 38.835938 10.355469 L 38.449219 10.460938 C 38.355469 10.488281 38.292969 10.585938 38.304688 10.691406 L 38.359375 11.125 C 38.363281 11.144531 38.367188 11.164062 38.375 11.183594 L 37.90625 11.269531 C 37.9375 11.351562 37.921875 11.449219 37.859375 11.511719 L 37.574219 11.785156 C 37.535156 11.820312 37.484375 11.839844 37.433594 11.835938 L 37.308594 12.398438 C 37.28125 12.398438 37.257812 12.390625 37.230469 12.375 L 36.132812 11.816406 C 35.960938 11.730469 35.789062 11.914062 35.871094 12.097656 L 35.894531 12.15625 C 35.976562 12.339844 35.804688 12.523438 35.632812 12.4375 C 35.25 12.242188 35.484375 12.964844 35.238281 13.0625 C 35.101562 13.117188 34.941406 13.066406 34.804688 13.007812 C 34.667969 12.945312 34.53125 12.867188 34.378906 12.863281 C 34.179688 12.863281 34 13 33.867188 13.148438 C 33.730469 13.300781 33.621094 13.476562 33.460938 13.601562 C 33.300781 13.722656 33.070312 13.785156 32.898438 13.675781 C 32.796875 13.609375 32.738281 13.496094 32.664062 13.398438 C 32.449219 13.121094 32.078125 12.980469 31.734375 13.042969 C 31.851562 13.109375 31.898438 13.28125 31.835938 13.398438 C 31.753906 13.597656 31.449219 13.582031 31.296875 13.4375 C 31.144531 13.289062 31.085938 13.070312 30.996094 12.875 C 30.90625 12.679688 30.734375 12.492188 30.527344 12.507812 C 30.316406 12.527344 30.183594 12.738281 30.066406 12.914062 C 29.949219 13.09375 29.765625 13.28125 29.5625 13.222656 C 29.351562 13.167969 29.296875 12.902344 29.179688 12.714844 C 29.023438 12.472656 28.699219 12.351562 28.425781 12.433594 C 28.539062 12.667969 28.523438 12.964844 28.378906 13.183594 C 28.234375 13.402344 27.96875 13.53125 27.710938 13.515625 C 27.800781 13.378906 27.894531 13.238281 27.914062 13.078125 C 27.929688 12.914062 27.855469 12.730469 27.699219 12.683594 C 27.652344 12.671875 27.597656 12.671875 27.546875 12.671875 C 27.347656 12.675781 27.152344 12.679688 26.953125 12.683594 C 26.851562 12.550781 26.847656 12.363281 26.875 12.195312 C 26.898438 12.027344 26.945312 11.859375 26.925781 11.691406 C 26.90625 11.523438 26.792969 11.347656 26.625 11.332031 C 26.546875 11.324219 26.472656 11.347656 26.398438 11.363281 C 26.320312 11.375 26.234375 11.367188 26.179688 11.3125 C 26.089844 11.210938 26.230469 11.113281 26.273438 11.027344 C 26.34375 10.878906 26.234375 10.699219 26.078125 10.707031 L 25.753906 10.722656 C 25.554688 10.730469 25.457031 10.457031 25.613281 10.332031 L 25.902344 10.097656 C 26.058594 9.972656 25.957031 9.699219 25.757812 9.707031 L 24.917969 9.757812 C 24.707031 9.773438 24.617188 9.46875 24.796875 9.355469 L 25.152344 9.136719 C 25.300781 9.046875 25.273438 8.808594 25.109375 8.746094 L 24.671875 8.578125 C 24.550781 8.535156 24.496094 8.382812 24.554688 8.265625 L 24.707031 7.972656 C 24.734375 7.925781 24.773438 7.890625 24.820312 7.875 L 25.632812 7.621094 C 25.816406 7.5625 25.820312 7.285156 25.636719 7.210938 L 24.710938 6.835938 C 24.578125 6.78125 24.53125 6.601562 24.625 6.488281 L 24.742188 6.34375 C 24.800781 6.273438 24.804688 6.164062 24.753906 6.082031 L 24.605469 5.851562 C 24.507812 5.703125 24.609375 5.503906 24.777344 5.519531 L 26.148438 5.625 C 26.25 5.632812 26.339844 5.554688 26.351562 5.449219 L 26.375 5.289062 C 26.386719 5.214844 26.359375 5.140625 26.308594 5.09375 L 25.335938 4.144531 C 25.199219 4.015625 25.273438 3.78125 25.453125 3.773438 L 25.6875 3.761719 C 25.816406 3.757812 25.90625 3.625 25.867188 3.492188 L 25.722656 2.996094 C 25.699219 2.914062 25.722656 2.832031 25.777344 2.777344 L 26.015625 2.539062 C 26.0625 2.492188 26.132812 2.476562 26.199219 2.492188 L 26.980469 2.710938 C 27.058594 2.734375 27.140625 2.703125 27.1875 2.632812 L 27.285156 2.484375 C 27.347656 2.390625 27.46875 2.371094 27.5625 2.4375 L 28.132812 2.871094 C 28.292969 2.992188 28.496094 2.832031 28.433594 2.632812 L 28.113281 1.601562 C 28.097656 1.558594 28.097656 1.511719 28.109375 1.46875 L 28.238281 1.015625 C 28.273438 0.898438 28.390625 0.839844 28.5 0.886719 L 28.976562 1.097656 C 29 1.109375 29.023438 1.125 29.042969 1.144531 L 29.511719 1.632812 C 29.632812 1.757812 29.832031 1.683594 29.847656 1.507812 L 29.890625 1.078125 C 29.910156 0.90625 30.101562 0.832031 30.222656 0.949219 L 30.550781 1.265625 C 30.550781 1.265625 30.558594 1.273438 30.5625 1.277344 L 30.980469 1.734375 C 31.042969 1.804688 31.136719 1.824219 31.214844 1.78125 L 31.457031 1.65625 C 31.480469 1.640625 31.5 1.625 31.519531 1.601562 L 31.824219 1.210938 C 31.890625 1.125 32.011719 1.109375 32.097656 1.179688 L 32.382812 1.410156 L 32.605469 1.582031 C 32.703125 1.65625 32.839844 1.625 32.894531 1.511719 L 33.574219 0.144531 C 33.636719 0.0195312 33.796875 -0.00390625 33.890625 0.0976562 L 34.097656 0.320312 C 34.136719 0.359375 34.160156 0.414062 34.160156 0.46875 L 34.207031 1.753906 C 34.207031 1.753906 34.207031 1.769531 34.207031 1.777344 L 34.15625 2.503906 C 34.144531 2.695312 34.351562 2.8125 34.484375 2.699219 L 35.054688 2.207031 C 35.066406 2.195312 35.082031 2.183594 35.097656 2.175781 L 35.671875 1.910156 C 35.808594 1.847656 35.960938 1.960938 35.957031 2.121094 L 35.949219 2.660156 C 35.949219 2.671875 35.949219 2.683594 35.945312 2.695312 L 35.859375 3.191406 C 35.832031 3.359375 35.988281 3.5 36.136719 3.4375 L 36.761719 3.175781 C 36.902344 3.117188 37.054688 3.242188 37.042969 3.402344 L 37.015625 3.738281 C 37.011719 3.78125 37.019531 3.824219 37.039062 3.863281 L 37.183594 4.144531 C 37.222656 4.222656 37.214844 4.320312 37.164062 4.386719 L 36.839844 4.800781 C 36.71875 4.957031 36.859375 5.199219 37.042969 5.152344 L 38.5625 4.792969 C 38.691406 4.761719 38.816406 4.875 38.8125 5.015625 L 38.800781 5.3125 C 38.800781 5.367188 38.777344 5.421875 38.742188 5.457031 L 38.039062 6.175781 C 38.003906 6.210938 37.980469 6.261719 37.980469 6.316406 Z M 37.988281 6.316406 "/>
<use xlink:href="#surface35" mask="url(#mask10)"/>
</g>
</svg>
