<?xml version="1.0" encoding="UTF-8"?>
<svg xmlns="http://www.w3.org/2000/svg" xmlns:xlink="http://www.w3.org/1999/xlink" width="48px" height="px" viewBox="0 0 48 51" version="1.1">
<defs>
<filter id="alpha" filterUnits="objectBoundingBox" x="0%" y="0%" width="100%" height="100%">
  <feColorMatrix type="matrix" in="SourceGraphic" values="0 0 0 0 1 0 0 0 0 1 0 0 0 0 1 0 0 0 1 0"/>
</filter>
<mask id="mask0">
  <g filter="url(#alpha)">
<rect x="0" y="0" width="48" height="51" style="fill:rgb(0%,0%,0%);fill-opacity:0.121569;stroke:none;"/>
  </g>
</mask>
<clipPath id="clip1">
  <rect x="0" y="0" width="48" height="51"/>
</clipPath>
<g id="surface5" clip-path="url(#clip1)">
<path style=" stroke:none;fill-rule:nonzero;fill:rgb(0%,0%,0%);fill-opacity:1;" d="M 0.00390625 41.351562 C 4.023438 43.871094 8.679688 44.929688 13.417969 45.332031 C 15.847656 45.542969 18.453125 45.667969 20.890625 45.632812 C 23.441406 45.597656 26.03125 45.574219 28.550781 45.171875 C 28.066406 44.167969 27.027344 43.261719 26.011719 42.882812 C 24.996094 42.507812 23.898438 42.410156 22.824219 42.285156 C 18.96875 41.832031 15.183594 40.9375 11.332031 40.46875 C 7.480469 39.996094 4.253906 39.578125 0.582031 40.816406 L 0 41.351562 Z M 0.00390625 41.351562 "/>
</g>
<mask id="mask1">
  <g filter="url(#alpha)">
<rect x="0" y="0" width="48" height="51" style="fill:rgb(0%,0%,0%);fill-opacity:0.501961;stroke:none;"/>
  </g>
</mask>
<clipPath id="clip2">
  <rect x="0" y="0" width="48" height="51"/>
</clipPath>
<g id="surface8" clip-path="url(#clip2)">
<path style=" stroke:none;fill-rule:nonzero;fill:rgb(97.647059%,58.431373%,76.078431%);fill-opacity:1;" d="M 22.734375 7.496094 C 23.855469 9.546875 25.191406 11.535156 26.136719 13.8125 C 28.398438 19.257812 27.355469 25.464844 28.433594 31.253906 C 29.230469 35.558594 31.191406 39.554688 33.125 43.488281 C 34.058594 45.378906 35.015625 47.308594 36.511719 48.804688 C 38.003906 50.300781 40.15625 51.3125 42.242188 50.914062 C 42.339844 49.722656 42.4375 48.535156 42.539062 47.347656 C 43.492188 48.160156 44.933594 48.363281 46.074219 47.839844 C 47.21875 47.316406 48 46.101562 47.996094 44.851562 C 45.035156 44.023438 42.308594 42.390625 40.195312 40.171875 C 37.207031 37.039062 35.53125 32.90625 34.167969 28.808594 C 32.867188 24.917969 31.9375 20.769531 30.601562 16.835938 C 29.910156 14.804688 29.109375 12.804688 28.082031 10.914062 C 26.988281 8.914062 25.449219 7.265625 24.164062 5.398438 C 23.40625 4.300781 22.664062 3.1875 21.941406 2.066406 C 21.726562 1.734375 20.589844 0.394531 20.601562 0 C 20.519531 2.894531 21.5 5.234375 22.738281 7.496094 Z M 22.734375 7.496094 "/>
</g>
<mask id="mask2">
  <g filter="url(#alpha)">
<rect x="0" y="0" width="48" height="51" style="fill:rgb(0%,0%,0%);fill-opacity:0.501961;stroke:none;"/>
  </g>
</mask>
<clipPath id="clip3">
  <rect x="0" y="0" width="48" height="51"/>
</clipPath>
<g id="surface11" clip-path="url(#clip3)">
<path style=" stroke:none;fill-rule:nonzero;fill:rgb(97.647059%,58.431373%,76.078431%);fill-opacity:1;" d="M 36.78125 40.675781 C 35.195312 38.339844 33.988281 35.699219 33.628906 32.90625 C 34.539062 34.8125 35.621094 36.640625 36.847656 38.367188 C 38.074219 40.089844 39.566406 41.84375 41.144531 43.390625 C 41.539062 43.773438 45.992188 47.71875 46.179688 47.464844 C 45.832031 47.933594 45.21875 48.160156 44.632812 48.152344 C 43.0625 48.136719 42.261719 47.074219 41.292969 46.054688 C 39.675781 44.355469 38.097656 42.621094 36.78125 40.675781 Z M 36.78125 40.675781 "/>
</g>
<mask id="mask3">
  <g filter="url(#alpha)">
<rect x="0" y="0" width="48" height="51" style="fill:rgb(0%,0%,0%);fill-opacity:0.501961;stroke:none;"/>
  </g>
</mask>
<clipPath id="clip4">
  <rect x="0" y="0" width="48" height="51"/>
</clipPath>
<g id="surface14" clip-path="url(#clip4)">
<path style=" stroke:none;fill-rule:nonzero;fill:rgb(97.647059%,58.431373%,76.078431%);fill-opacity:1;" d="M 26.878906 12.808594 C 27.234375 11.691406 26.648438 10.507812 26.046875 9.5 C 24.625 7.125 22.851562 5.054688 21.269531 2.804688 C 21.871094 3.375 22.246094 4.449219 22.648438 5.175781 C 23.121094 6.023438 23.589844 6.871094 24.058594 7.71875 C 25 9.414062 25.9375 11.109375 26.878906 12.808594 Z M 26.878906 12.808594 "/>
</g>
<mask id="mask4">
  <g filter="url(#alpha)">
<rect x="0" y="0" width="48" height="51" style="fill:rgb(0%,0%,0%);fill-opacity:0.501961;stroke:none;"/>
  </g>
</mask>
<clipPath id="clip5">
  <rect x="0" y="0" width="48" height="51"/>
</clipPath>
<g id="surface17" clip-path="url(#clip5)">
<path style=" stroke:none;fill-rule:nonzero;fill:rgb(97.647059%,58.431373%,76.078431%);fill-opacity:1;" d="M 28.902344 24.660156 C 29 26.804688 29.078125 28.980469 29.554688 31.050781 C 30.027344 33.117188 30.957031 35.109375 32.339844 36.140625 C 31.628906 33.285156 30.941406 30.421875 30.277344 27.546875 C 29.949219 26.144531 29.632812 24.738281 29.316406 23.328125 C 29.0625 22.179688 28.914062 20.582031 28.433594 19.582031 C 28.703125 21.265625 28.824219 22.949219 28.902344 24.660156 Z M 28.902344 24.660156 "/>
</g>
<mask id="mask5">
  <g filter="url(#alpha)">
<rect x="0" y="0" width="48" height="51" style="fill:rgb(0%,0%,0%);fill-opacity:0.121569;stroke:none;"/>
  </g>
</mask>
<clipPath id="clip6">
  <rect x="0" y="0" width="48" height="51"/>
</clipPath>
<g id="surface20" clip-path="url(#clip6)">
<path style=" stroke:none;fill-rule:nonzero;fill:rgb(0%,0%,0%);fill-opacity:1;" d="M 0.410156 41.046875 C 0.417969 41.113281 0.414062 41.136719 0.472656 41.222656 C 0.550781 41.339844 1.113281 41.53125 1.265625 41.589844 C 3.386719 42.433594 5.609375 43.039062 7.839844 43.523438 C 14.589844 44.988281 21.582031 45.238281 28.457031 44.734375 C 28.34375 44.742188 27.203125 37.617188 27.132812 37.203125 C 26.171875 31.753906 25.207031 26.308594 24.246094 20.863281 L 21.511719 5.367188 C 21.199219 3.597656 20.878906 1.832031 20.578125 0.0625 C 19.789062 1.621094 20.242188 3.828125 20.277344 5.566406 C 20.320312 7.875 20.367188 10.183594 20.414062 12.492188 C 20.480469 15.824219 21.117188 31.011719 21.183594 32.964844 C 21.246094 34.941406 20.558594 36.949219 19.226562 38.425781 C 17.933594 39.863281 16.066406 40.757812 14.140625 40.945312 C 13.167969 41.042969 12.203125 40.886719 11.242188 40.925781 C 10.078125 40.972656 8.925781 40.957031 7.765625 40.859375 C 6.527344 40.753906 5.253906 40.429688 4.027344 40.605469 C 3.539062 40.671875 0.328125 40.296875 0.414062 41.050781 Z M 0.410156 41.046875 "/>
</g>
</defs>
<g id="surface1">
<use xlink:href="#surface5" mask="url(#mask0)"/>
<path style=" stroke:none;fill-rule:nonzero;fill:rgb(97.647059%,58.431373%,76.078431%);fill-opacity:1;" d="M 0.078125 41.078125 C 0.078125 41.078125 10.03125 46.097656 28.460938 44.734375 L 20.574219 0.0625 Z M 0.078125 41.078125 "/>
<use xlink:href="#surface8" mask="url(#mask1)"/>
<use xlink:href="#surface11" mask="url(#mask2)"/>
<use xlink:href="#surface14" mask="url(#mask3)"/>
<use xlink:href="#surface17" mask="url(#mask4)"/>
<path style=" stroke:none;fill-rule:nonzero;fill:rgb(95.686275%,76.470588%,86.27451%);fill-opacity:1;" d="M 0.773438 39.683594 C 1.886719 40.144531 4.09375 40.957031 7.359375 41.699219 C 10.761719 42.46875 15.863281 43.261719 22.414062 43.261719 C 24.222656 43.261719 26.140625 43.199219 28.164062 43.0625 L 27.9375 41.789062 C 13.253906 42.769531 4.058594 39.621094 1.351562 38.523438 Z M 0.773438 39.683594 "/>
<use xlink:href="#surface20" mask="url(#mask5)"/>
</g>
</svg>
