<?xml version="1.0" encoding="UTF-8"?>
<svg xmlns="http://www.w3.org/2000/svg" xmlns:xlink="http://www.w3.org/1999/xlink" width="48px" height="px" viewBox="0 0 48 52" version="1.1">
<defs>
<filter id="alpha" filterUnits="objectBoundingBox" x="0%" y="0%" width="100%" height="100%">
  <feColorMatrix type="matrix" in="SourceGraphic" values="0 0 0 0 1 0 0 0 0 1 0 0 0 0 1 0 0 0 1 0"/>
</filter>
<mask id="mask0">
  <g filter="url(#alpha)">
<rect x="0" y="0" width="48" height="52" style="fill:rgb(0%,0%,0%);fill-opacity:0.239216;stroke:none;"/>
  </g>
</mask>
<clipPath id="clip1">
  <rect x="0" y="0" width="48" height="52"/>
</clipPath>
<g id="surface5" clip-path="url(#clip1)">
<path style=" stroke:none;fill-rule:nonzero;fill:rgb(0%,0%,0%);fill-opacity:1;" d="M 11.523438 49.863281 C 14.539062 51.269531 17.914062 51.753906 21.25 51.929688 C 24.210938 52.089844 27.257812 52.003906 30.019531 50.945312 C 33.277344 49.695312 35.863281 47.222656 37.953125 44.539062 C 41.90625 39.464844 44.835938 33.472656 46.777344 27.160156 C 46.6875 27.671875 45.523438 28.535156 45.148438 28.890625 C 44.597656 29.414062 44.105469 29.789062 43.429688 30.109375 C 41.894531 30.832031 40.550781 32.183594 39.222656 33.226562 C 36.179688 35.605469 33.136719 37.988281 30.09375 40.367188 C 28.15625 41.882812 26.167969 43.425781 23.8125 44.171875 C 21.546875 44.886719 19.109375 44.8125 16.726562 44.726562 C 13.679688 44.621094 10.609375 44.507812 7.613281 43.902344 C 6.738281 43.726562 4.734375 43.046875 5.589844 44.597656 C 6.1875 45.679688 7 46.652344 7.917969 47.484375 C 8.984375 48.457031 10.210938 49.25 11.523438 49.863281 Z M 11.523438 49.863281 "/>
</g>
<mask id="mask1">
  <g filter="url(#alpha)">
<rect x="0" y="0" width="48" height="52" style="fill:rgb(0%,0%,0%);fill-opacity:0.239216;stroke:none;"/>
  </g>
</mask>
<clipPath id="clip2">
  <rect x="0" y="0" width="48" height="52"/>
</clipPath>
<g id="surface8" clip-path="url(#clip2)">
<path style=" stroke:none;fill-rule:nonzero;fill:rgb(0%,0%,0%);fill-opacity:1;" d="M 10.203125 11.34375 C 13.367188 10.5 16.78125 10.894531 19.847656 12.03125 C 23.386719 13.34375 26.675781 15.816406 28.003906 19.300781 C 28.355469 17.644531 28.6875 15.820312 27.84375 14.347656 C 27.421875 13.605469 26.742188 13.042969 26.039062 12.554688 C 23.6875 10.917969 20.902344 9.964844 18.070312 9.4375 C 15.238281 8.910156 12.34375 8.792969 9.464844 8.714844 C 8.507812 8.6875 7.527344 8.667969 6.625 8.988281 C 5.125 9.523438 4.09375 10.941406 3.632812 12.445312 C 3.421875 13.136719 3.3125 13.859375 3.257812 14.578125 C 3.226562 15.015625 3.003906 16.089844 3.359375 16.414062 C 3.828125 15.890625 4.15625 15.21875 4.640625 14.683594 C 5.125 14.148438 5.671875 13.660156 6.257812 13.230469 C 7.4375 12.363281 8.785156 11.722656 10.203125 11.347656 Z M 10.203125 11.34375 "/>
</g>
<mask id="mask2">
  <g filter="url(#alpha)">
<rect x="0" y="0" width="48" height="52" style="fill:rgb(0%,0%,0%);fill-opacity:0.180392;stroke:none;"/>
  </g>
</mask>
<clipPath id="clip3">
  <rect x="0" y="0" width="48" height="52"/>
</clipPath>
<g id="surface11" clip-path="url(#clip3)">
<path style=" stroke:none;fill-rule:nonzero;fill:rgb(0%,0%,0%);fill-opacity:1;" d="M 35.3125 18.960938 C 35.40625 18.601562 35.648438 18.140625 36.011719 18.246094 C 36.28125 18.320312 36.351562 18.664062 36.355469 18.941406 C 36.390625 20.859375 35.742188 22.738281 34.800781 24.414062 C 33.855469 26.089844 32.625 27.589844 31.402344 29.082031 C 34.03125 27.660156 36.480469 25.921875 38.679688 23.914062 C 38.699219 25.632812 37.4375 27.085938 36.148438 28.246094 C 35.199219 29.097656 26.84375 35.457031 25.914062 33.566406 C 25.652344 33.03125 28.953125 30.417969 29.488281 29.816406 C 30.78125 28.367188 31.910156 26.78125 32.855469 25.09375 C 33.933594 23.160156 34.769531 21.097656 35.3125 18.960938 Z M 35.3125 18.960938 "/>
</g>
<mask id="mask3">
  <g filter="url(#alpha)">
<rect x="0" y="0" width="48" height="52" style="fill:rgb(0%,0%,0%);fill-opacity:0.180392;stroke:none;"/>
  </g>
</mask>
<clipPath id="clip4">
  <rect x="0" y="0" width="48" height="52"/>
</clipPath>
<g id="surface14" clip-path="url(#clip4)">
<path style=" stroke:none;fill-rule:nonzero;fill:rgb(0%,0%,0%);fill-opacity:1;" d="M 8.15625 43.664062 C 10.199219 45.195312 12.613281 46.386719 14.6875 46.992188 C 18.71875 48.164062 23.226562 46.773438 26.398438 44.0625 C 25.992188 44.410156 24.136719 44.210938 23.589844 44.21875 C 22.652344 44.234375 21.714844 44.21875 20.777344 44.164062 C 17.894531 44.003906 14.902344 43.5625 12.074219 42.765625 C 10.597656 42.351562 9.148438 41.839844 7.75 41.222656 C 7 40.890625 4.777344 40.3125 4.382812 39.585938 C 5.199219 41.078125 6.566406 42.472656 8.15625 43.664062 Z M 8.15625 43.664062 "/>
</g>
<mask id="mask4">
  <g filter="url(#alpha)">
<rect x="0" y="0" width="48" height="52" style="fill:rgb(0%,0%,0%);fill-opacity:0.180392;stroke:none;"/>
  </g>
</mask>
<clipPath id="clip5">
  <rect x="0" y="0" width="48" height="52"/>
</clipPath>
<g id="surface17" clip-path="url(#clip5)">
<path style=" stroke:none;fill-rule:nonzero;fill:rgb(0%,0%,0%);fill-opacity:1;" d="M 34.039062 35.636719 C 34.582031 36.457031 34.484375 37.574219 34 38.425781 C 33.515625 39.28125 32.703125 39.90625 31.851562 40.410156 C 28.671875 42.296875 24.667969 42.839844 21.007812 42.710938 C 25.859375 41.472656 30.308594 38.9375 34.039062 35.640625 Z M 34.039062 35.636719 "/>
</g>
<mask id="mask5">
  <g filter="url(#alpha)">
<rect x="0" y="0" width="48" height="52" style="fill:rgb(0%,0%,0%);fill-opacity:0.180392;stroke:none;"/>
  </g>
</mask>
<clipPath id="clip6">
  <rect x="0" y="0" width="48" height="52"/>
</clipPath>
<g id="surface20" clip-path="url(#clip6)">
<path style=" stroke:none;fill-rule:nonzero;fill:rgb(0%,0%,0%);fill-opacity:1;" d="M 32.015625 42.710938 C 34.265625 40.65625 36.117188 38.226562 37.957031 35.8125 C 39.878906 33.289062 41.796875 30.769531 43.714844 28.25 C 43.539062 31.347656 41.464844 33.984375 39.484375 36.398438 C 37.402344 38.933594 35.320312 41.472656 33.015625 43.8125 C 31.761719 45.089844 30.417969 46.320312 28.804688 47.109375 C 27.632812 47.683594 24.707031 48.601562 23.640625 47.484375 C 24.472656 46.5625 26.589844 46.335938 27.726562 45.753906 C 29.292969 44.945312 30.71875 43.894531 32.015625 42.710938 Z M 32.015625 42.710938 "/>
</g>
<mask id="mask6">
  <g filter="url(#alpha)">
<rect x="0" y="0" width="48" height="52" style="fill:rgb(0%,0%,0%);fill-opacity:0.180392;stroke:none;"/>
  </g>
</mask>
<clipPath id="clip7">
  <rect x="0" y="0" width="48" height="52"/>
</clipPath>
<g id="surface23" clip-path="url(#clip7)">
<path style=" stroke:none;fill-rule:nonzero;fill:rgb(0%,0%,0%);fill-opacity:1;" d="M 42.355469 26.664062 C 42.550781 26.289062 42.703125 25.886719 42.878906 25.519531 C 43.035156 25.195312 43.3125 24.894531 43.546875 24.617188 C 43.664062 24.476562 44.296875 23.972656 44.300781 23.824219 C 44.242188 26.082031 42.871094 28.261719 40.84375 29.320312 C 40.570312 28.554688 41.269531 27.894531 41.78125 27.4375 C 42.019531 27.222656 42.203125 26.953125 42.355469 26.664062 Z M 42.355469 26.664062 "/>
</g>
<mask id="mask7">
  <g filter="url(#alpha)">
<rect x="0" y="0" width="48" height="52" style="fill:rgb(0%,0%,0%);fill-opacity:0.180392;stroke:none;"/>
  </g>
</mask>
<clipPath id="clip8">
  <rect x="0" y="0" width="48" height="52"/>
</clipPath>
<g id="surface26" clip-path="url(#clip8)">
<path style=" stroke:none;fill-rule:nonzero;fill:rgb(0%,0%,0%);fill-opacity:1;" d="M 2.851562 32.167969 C 4.125 34.277344 6.25 35.816406 8.582031 36.679688 C 10.917969 37.542969 13.453125 37.777344 15.945312 37.675781 C 12.875 38.265625 9.703125 38.339844 6.609375 37.90625 C 5.226562 37.710938 4.921875 37.46875 4.324219 36.222656 C 4.003906 35.550781 3.714844 34.863281 3.464844 34.164062 C 3.25 33.570312 3.175781 32.703125 2.851562 32.167969 Z M 2.851562 32.167969 "/>
</g>
<mask id="mask8">
  <g filter="url(#alpha)">
<rect x="0" y="0" width="48" height="52" style="fill:rgb(0%,0%,0%);fill-opacity:0.180392;stroke:none;"/>
  </g>
</mask>
<clipPath id="clip9">
  <rect x="0" y="0" width="48" height="52"/>
</clipPath>
<g id="surface29" clip-path="url(#clip9)">
<path style=" stroke:none;fill-rule:nonzero;fill:rgb(0%,0%,0%);fill-opacity:1;" d="M 10.847656 39.886719 C 12.46875 40.238281 14.15625 40.308594 15.800781 40.089844 C 14.699219 40.734375 13.398438 41.042969 12.121094 40.964844 C 14.148438 41.992188 16.59375 42.191406 18.765625 41.5 C 20.796875 40.855469 22.496094 39.515625 24.472656 38.746094 C 26.121094 38.105469 28.429688 37.605469 29.195312 35.820312 C 26.492188 36.605469 23.785156 37.386719 21.082031 38.171875 C 21.636719 37.890625 24.410156 36.726562 24.410156 36.015625 C 24.410156 34.914062 22.359375 36.671875 22.199219 36.796875 C 21.277344 37.492188 20.296875 38.085938 19.273438 38.617188 C 18.324219 39.109375 17.601562 39.136719 16.523438 39.171875 L 9.121094 39.398438 C 9.683594 39.597656 10.261719 39.761719 10.847656 39.886719 Z M 10.847656 39.886719 "/>
</g>
<mask id="mask9">
  <g filter="url(#alpha)">
<rect x="0" y="0" width="48" height="52" style="fill:rgb(0%,0%,0%);fill-opacity:0.180392;stroke:none;"/>
  </g>
</mask>
<clipPath id="clip10">
  <rect x="0" y="0" width="48" height="52"/>
</clipPath>
<g id="surface32" clip-path="url(#clip10)">
<path style=" stroke:none;fill-rule:nonzero;fill:rgb(0%,0%,0%);fill-opacity:1;" d="M 26.421875 10.1875 C 28.324219 12.59375 29.027344 15.679688 29.675781 18.660156 C 29.613281 17.160156 29.550781 15.664062 29.488281 14.164062 C 29.445312 13.132812 29.394531 12.078125 29.011719 11.117188 C 28.40625 9.609375 27.046875 8.523438 25.617188 7.71875 C 24.847656 7.28125 23.976562 6.730469 23.132812 6.453125 C 22.292969 6.175781 22.039062 6.421875 22.769531 6.996094 C 24.066406 8.019531 25.386719 8.878906 26.417969 10.1875 Z M 26.421875 10.1875 "/>
</g>
<mask id="mask10">
  <g filter="url(#alpha)">
<rect x="0" y="0" width="48" height="52" style="fill:rgb(0%,0%,0%);fill-opacity:0.180392;stroke:none;"/>
  </g>
</mask>
<clipPath id="clip11">
  <rect x="0" y="0" width="48" height="52"/>
</clipPath>
<g id="surface35" clip-path="url(#clip11)">
<path style=" stroke:none;fill-rule:nonzero;fill:rgb(0%,0%,0%);fill-opacity:1;" d="M 4.421875 12.148438 C 5.464844 9.894531 7.1875 7.839844 9.527344 6.914062 C 8.28125 9.101562 6.664062 11.160156 5.144531 13.175781 C 4.214844 14.414062 3.683594 15.496094 2.96875 17.820312 C 2.53125 16.230469 3.761719 13.582031 4.421875 12.148438 Z M 4.421875 12.148438 "/>
</g>
</defs>
<g id="surface1">
<use xlink:href="#surface5" mask="url(#mask0)"/>
<use xlink:href="#surface8" mask="url(#mask1)"/>
<path style=" stroke:none;fill-rule:nonzero;fill:rgb(7.45098%,9.019608%,21.176471%);fill-opacity:1;" d="M 27.128906 15.339844 C 24.003906 12.710938 20.074219 11.023438 15.988281 10.554688 C 11.902344 10.085938 7.679688 10.835938 4.019531 12.679688 C 6.238281 10.375 8.527344 7.886719 11.289062 6.246094 C 14.046875 4.609375 17.429688 3.71875 20.542969 4.558594 C 24.464844 5.613281 27.214844 9.195312 28.550781 12.96875 C 28.683594 13.339844 28.804688 13.730469 28.753906 14.117188 C 28.703125 14.507812 27.523438 15.273438 27.132812 15.34375 Z M 27.128906 15.339844 "/>
<path style=" stroke:none;fill-rule:nonzero;fill:rgb(64.705882%,19.607843%,36.862745%);fill-opacity:1;" d="M 45.15625 23.648438 C 43.902344 22.453125 41.941406 21.71875 40.230469 21.496094 C 40.835938 20.96875 41.078125 20.132812 41.042969 19.339844 C 41.011719 18.546875 40.734375 17.785156 40.4375 17.046875 C 39.183594 13.90625 37.5 10.949219 35.632812 8.125 C 33.167969 4.402344 29.894531 2.183594 25.566406 0.902344 C 22.164062 -0.105469 18.515625 -0.261719 15.035156 0.421875 C 11.792969 1.058594 9.089844 3.269531 6.921875 5.667969 C 4.574219 8.261719 2.855469 11.359375 1.671875 14.613281 C 0.558594 17.675781 -0.324219 21.46875 0.117188 24.703125 C 0.140625 24.871094 0.171875 25.105469 0.195312 25.269531 L 2.421875 24.71875 C 2.203125 22.042969 2.609375 19.28125 3.40625 16.578125 C 4.433594 13.089844 7.351562 10.421875 10.515625 8.738281 C 12.136719 7.875 13.90625 7.203125 15.71875 6.859375 C 17.625 6.496094 19.59375 7.820312 20.972656 9.019531 C 23.835938 11.507812 26.808594 13.761719 27.503906 17.675781 C 28.175781 21.429688 27.832031 25.359375 26.492188 28.941406 C 25.925781 30.449219 25.167969 31.929688 23.988281 33.042969 C 22.886719 34.082031 21.242188 34.714844 19.886719 35.378906 C 18.363281 36.125 16.675781 36.546875 14.972656 36.59375 C 12.785156 36.648438 10.5 36 8.511719 34.847656 C 6.597656 33.734375 4.960938 32.117188 3.957031 30.242188 C 2.957031 30.429688 1.273438 30.753906 1.273438 30.753906 C 1.339844 31.039062 1.445312 31.472656 1.511719 31.761719 C 1.761719 32.789062 2.234375 33.925781 2.34375 34.972656 C 2.4375 35.90625 1.976562 37 1.746094 37.921875 C 1.609375 38.476562 2.308594 39.753906 2.523438 40.269531 C 2.863281 41.082031 3.269531 41.867188 3.734375 42.617188 C 4.707031 44.179688 5.882812 45.441406 7.425781 46.46875 C 10.46875 48.492188 14.097656 49.539062 17.746094 49.96875 C 22.691406 50.558594 27.992188 49.984375 32.09375 47.203125 C 34.792969 45.375 36.792969 42.738281 38.738281 40.148438 C 42.347656 35.34375 46.011719 30.441406 47.996094 24.792969 C 47.167969 24.183594 46.179688 23.785156 45.15625 23.648438 Z M 45.15625 23.648438 "/>
<use xlink:href="#surface11" mask="url(#mask2)"/>
<use xlink:href="#surface14" mask="url(#mask3)"/>
<use xlink:href="#surface17" mask="url(#mask4)"/>
<use xlink:href="#surface20" mask="url(#mask5)"/>
<use xlink:href="#surface23" mask="url(#mask6)"/>
<use xlink:href="#surface26" mask="url(#mask7)"/>
<use xlink:href="#surface29" mask="url(#mask8)"/>
<use xlink:href="#surface32" mask="url(#mask9)"/>
<use xlink:href="#surface35" mask="url(#mask10)"/>
</g>
</svg>
