<?xml version="1.0" encoding="UTF-8"?>
<svg xmlns="http://www.w3.org/2000/svg" xmlns:xlink="http://www.w3.org/1999/xlink" width="48px" height="px" viewBox="0 0 48 48" version="1.1">
<g id="surface1">
<path style=" stroke:none;fill-rule:nonzero;fill:rgb(52.156863%,85.098039%,64.705882%);fill-opacity:1;" d="M 37.613281 32.492188 C 41.585938 36.410156 44.203125 42.101562 46.300781 47.445312 C 46.6875 48.433594 48.207031 47.992188 47.976562 46.957031 C 47.972656 46.949219 47.972656 46.9375 47.96875 46.925781 C 47.160156 43.367188 45.628906 39.738281 43.910156 36.5 C 40.296875 29.703125 33.476562 24.898438 25.917969 23.273438 C 18.90625 21.765625 11.75 22.4375 5.894531 26.640625 C 3.558594 28.320312 0.730469 31.21875 0.00390625 34.042969 C -0.0273438 34.15625 0.121094 34.230469 0.199219 34.144531 C 3.820312 30.109375 9.300781 24.558594 18.355469 24.558594 C 21.632812 24.558594 24.9375 25.273438 26.984375 25.894531 C 31.417969 27.246094 34.335938 29.257812 37.617188 32.492188 Z M 37.613281 32.492188 "/>
<path style="fill:none;stroke-width:11;stroke-linecap:butt;stroke-linejoin:miter;stroke:rgb(52.156863%,85.098039%,64.705882%);stroke-opacity:1;stroke-miterlimit:10;" d="M 138.307172 121.869589 C 160.312677 91.797397 164.452508 68.42872 165.998045 40.172843 " transform="matrix(0.212305,0,0,0.208613,0,0.00225228)"/>
<path style=" stroke:none;fill-rule:nonzero;fill:rgb(52.156863%,85.098039%,64.705882%);fill-opacity:1;" d="M 39.859375 4.859375 C 39.859375 7.542969 37.644531 9.71875 34.914062 9.71875 C 32.183594 9.71875 29.96875 7.542969 29.96875 4.859375 C 29.96875 2.175781 32.183594 0.00390625 34.914062 0.00390625 C 37.644531 0.00390625 39.859375 2.175781 39.859375 4.859375 Z M 39.859375 4.859375 "/>
<path style="fill:none;stroke-width:11;stroke-linecap:butt;stroke-linejoin:miter;stroke:rgb(52.156863%,85.098039%,64.705882%);stroke-opacity:1;stroke-miterlimit:10;" d="M 71.904274 115.166074 C 56.356907 92.995791 48.610822 56.388608 50.395549 37.251758 " transform="matrix(0.212305,0,0,0.208613,0,0.00225228)"/>
<path style=" stroke:none;fill-rule:nonzero;fill:rgb(52.156863%,85.098039%,64.705882%);fill-opacity:1;" d="M 15.265625 4.859375 C 15.265625 7.542969 13.054688 9.71875 10.320312 9.71875 C 7.589844 9.71875 5.378906 7.542969 5.378906 4.859375 C 5.378906 2.175781 7.589844 0.00390625 10.320312 0.00390625 C 13.054688 0.00390625 15.265625 2.175781 15.265625 4.859375 Z M 15.265625 4.859375 "/>
</g>
</svg>
