<?xml version="1.0" encoding="UTF-8"?>
<svg xmlns="http://www.w3.org/2000/svg" xmlns:xlink="http://www.w3.org/1999/xlink" width="48px" height="px" viewBox="0 0 47 24" version="1.1">
<defs>
<filter id="alpha" filterUnits="objectBoundingBox" x="0%" y="0%" width="100%" height="100%">
  <feColorMatrix type="matrix" in="SourceGraphic" values="0 0 0 0 1 0 0 0 0 1 0 0 0 0 1 0 0 0 1 0"/>
</filter>
<mask id="mask0">
  <g filter="url(#alpha)">
<rect x="0" y="0" width="47" height="24" style="fill:rgb(0%,0%,0%);fill-opacity:0.211765;stroke:none;"/>
  </g>
</mask>
<clipPath id="clip1">
  <rect x="0" y="0" width="47" height="24"/>
</clipPath>
<g id="surface5" clip-path="url(#clip1)">
<path style=" stroke:none;fill-rule:nonzero;fill:rgb(0%,0%,0%);fill-opacity:1;" d="M 11.910156 18.03125 C 12.097656 17.980469 12.300781 17.917969 12.421875 17.765625 C 12.601562 17.539062 12.535156 17.1875 12.347656 16.96875 C 12.164062 16.75 11.886719 16.632812 11.621094 16.53125 C 8.851562 15.488281 5.726562 15.441406 2.925781 16.398438 C 1.835938 16.769531 0.558594 17.488281 0.160156 18.675781 C -0.3125 20.082031 1.933594 19.53125 2.777344 19.488281 C 5.863281 19.332031 8.929688 18.84375 11.910156 18.03125 Z M 11.910156 18.03125 "/>
</g>
<mask id="mask1">
  <g filter="url(#alpha)">
<rect x="0" y="0" width="47" height="24" style="fill:rgb(0%,0%,0%);fill-opacity:0.180392;stroke:none;"/>
  </g>
</mask>
<clipPath id="clip2">
  <rect x="0" y="0" width="47" height="24"/>
</clipPath>
<g id="surface8" clip-path="url(#clip2)">
<path style=" stroke:none;fill-rule:nonzero;fill:rgb(0%,0%,0%);fill-opacity:1;" d="M 32.003906 23.121094 C 34.480469 22.421875 36.777344 21.195312 39.171875 20.242188 C 39.675781 20.042969 40.230469 19.753906 40.75 19.628906 C 41.378906 19.480469 42.132812 19.554688 42.777344 19.527344 L 46.964844 19.347656 C 47.0625 19.34375 46.402344 18.363281 46.328125 18.292969 C 46.070312 18.046875 45.847656 17.800781 45.601562 17.546875 C 44.925781 16.855469 43.988281 16.375 43.09375 16.0625 C 41.585938 15.539062 39.96875 15.429688 38.375 15.335938 C 34.5 15.105469 30.605469 14.933594 26.75 15.386719 C 25.394531 15.542969 24.046875 15.785156 22.726562 16.121094 C 22.046875 16.292969 21.378906 16.492188 20.71875 16.71875 C 20.203125 16.894531 19.664062 17.210938 19.140625 17.304688 C 18.25 17.472656 17.28125 17.261719 16.433594 17.644531 C 15.585938 18.03125 14.761719 18.226562 13.878906 18.460938 C 13.53125 18.550781 13.191406 18.609375 12.996094 18.910156 C 12.875 19.089844 12.4375 19.78125 12.4375 19.78125 C 13.261719 20.847656 14.8125 21.542969 15.457031 21.847656 C 16.738281 22.457031 18.078125 22.929688 19.453125 23.261719 C 23.597656 24.261719 27.90625 24.277344 32.007812 23.121094 Z M 32.003906 23.121094 "/>
</g>
<mask id="mask2">
  <g filter="url(#alpha)">
<rect x="0" y="0" width="47" height="24" style="fill:rgb(0%,0%,0%);fill-opacity:0.0901961;stroke:none;"/>
  </g>
</mask>
<clipPath id="clip3">
  <rect x="0" y="0" width="47" height="24"/>
</clipPath>
<g id="surface11" clip-path="url(#clip3)">
<path style=" stroke:none;fill-rule:nonzero;fill:rgb(0%,0%,0%);fill-opacity:1;" d="M 12.816406 15.664062 C 13.234375 15.753906 13.65625 15.835938 14.074219 15.917969 C 18.375 16.753906 22.714844 17.386719 27.066406 17.851562 C 28.617188 18.019531 30.167969 18.160156 31.722656 18.277344 C 33.433594 18.402344 35.128906 18.699219 36.839844 18.796875 C 37.308594 18.824219 39.078125 19.105469 39.421875 18.761719 C 39.769531 18.421875 39.375 16.765625 39.316406 16.289062 C 38.820312 12.355469 37.480469 8.609375 35.433594 5.242188 C 34.574219 3.828125 33.414062 2.5625 31.992188 1.71875 C 30.46875 0.8125 29.367188 0.703125 27.660156 0.898438 C 24.753906 1.226562 22.019531 2.398438 19.761719 4.273438 C 17.386719 6.242188 15.585938 8.855469 14.285156 11.648438 C 14.1875 11.859375 12.710938 15.640625 12.816406 15.660156 Z M 12.816406 15.664062 "/>
</g>
<linearGradient id="linear0" gradientUnits="userSpaceOnUse" x1="138.84" y1="1956.3" x2="102.37" y2="1993.11" gradientTransform="matrix(0.142909,0,0,-0.144631,7.893645,294.716645)">
<stop offset="0" style="stop-color:rgb(0%,50.588235%,67.843137%);stop-opacity:1;"/>
<stop offset="1" style="stop-color:rgb(7.843137%,81.960784%,87.45098%);stop-opacity:1;"/>
</linearGradient>
<linearGradient id="linear1" gradientUnits="userSpaceOnUse" x1="141.63" y1="1947.69" x2="93.77" y2="1996.01" gradientTransform="matrix(0.142909,0,0,-0.144631,7.893645,294.716645)">
<stop offset="0" style="stop-color:rgb(0%,50.588235%,67.843137%);stop-opacity:1;"/>
<stop offset="1" style="stop-color:rgb(7.843137%,81.960784%,87.45098%);stop-opacity:1;"/>
</linearGradient>
<linearGradient id="linear2" gradientUnits="userSpaceOnUse" x1="132.64" y1="2021.17" x2="175.1" y2="1978.29" gradientTransform="matrix(0.142909,0,0,-0.144631,7.893645,294.716645)">
<stop offset="0" style="stop-color:rgb(0%,50.588235%,67.843137%);stop-opacity:1;"/>
<stop offset="1" style="stop-color:rgb(7.843137%,81.960784%,87.45098%);stop-opacity:1;"/>
</linearGradient>
<linearGradient id="linear3" gradientUnits="userSpaceOnUse" x1="131.84" y1="2017.94" x2="172.16" y2="1977.22" gradientTransform="matrix(0.142909,0,0,-0.144631,7.893645,294.716645)">
<stop offset="0" style="stop-color:rgb(0%,50.588235%,67.843137%);stop-opacity:1;"/>
<stop offset="1" style="stop-color:rgb(7.843137%,81.960784%,87.45098%);stop-opacity:1;"/>
</linearGradient>
<linearGradient id="linear4" gradientUnits="userSpaceOnUse" x1="112.85" y1="2007.69" x2="156.3" y2="1964.82" gradientTransform="matrix(0.142909,0,0,-0.144631,7.893645,294.716645)">
<stop offset="0" style="stop-color:rgb(7.843137%,81.960784%,87.45098%);stop-opacity:1;"/>
<stop offset="1" style="stop-color:rgb(52.156863%,85.098039%,64.705882%);stop-opacity:1;"/>
</linearGradient>
<linearGradient id="linear5" gradientUnits="userSpaceOnUse" x1="106.98" y1="2012.01" x2="158.66" y2="1961" gradientTransform="matrix(0.142909,0,0,-0.144631,7.893645,294.716645)">
<stop offset="0" style="stop-color:rgb(7.843137%,81.960784%,87.45098%);stop-opacity:1;"/>
<stop offset="1" style="stop-color:rgb(52.156863%,85.098039%,64.705882%);stop-opacity:1;"/>
</linearGradient>
</defs>
<g id="surface1">
<path style=" stroke:none;fill-rule:nonzero;fill:rgb(28.627451%,29.803922%,40.392157%);fill-opacity:1;" d="M 11.910156 18.03125 C 12.097656 17.980469 12.300781 17.917969 12.421875 17.765625 C 12.601562 17.539062 12.535156 17.1875 12.347656 16.96875 C 12.164062 16.75 11.886719 16.632812 11.621094 16.53125 C 8.851562 15.488281 5.726562 15.441406 2.925781 16.398438 C 1.835938 16.769531 0.558594 17.488281 0.160156 18.675781 C -0.3125 20.082031 1.933594 19.53125 2.777344 19.488281 C 5.863281 19.332031 8.929688 18.84375 11.910156 18.03125 Z M 11.910156 18.03125 "/>
<use xlink:href="#surface5" mask="url(#mask0)"/>
<use xlink:href="#surface8" mask="url(#mask1)"/>
<path style=" stroke:none;fill-rule:nonzero;fill:rgb(28.627451%,29.803922%,40.392157%);fill-opacity:1;" d="M 12.816406 15.664062 C 12.816406 15.664062 30.894531 19.574219 46.683594 18.402344 C 46.683594 18.402344 49.3125 2.648438 31.34375 0.886719 C 16.640625 -0.558594 12.816406 15.664062 12.816406 15.664062 Z M 12.816406 15.664062 "/>
<use xlink:href="#surface11" mask="url(#mask2)"/>
<path style=" stroke:none;fill-rule:nonzero;fill:rgb(28.627451%,29.803922%,40.392157%);fill-opacity:1;" d="M 4.832031 17.121094 C 7.175781 16.878906 9.515625 17.523438 11.664062 18.363281 C 13.8125 19.207031 15.863281 20.253906 18.09375 20.910156 C 21.675781 21.957031 25.578125 21.933594 29.304688 21.351562 C 32.828125 20.800781 36.226562 19.773438 39.605469 18.726562 C 39.78125 18.671875 39.777344 18.417969 39.601562 18.363281 C 35.023438 16.976562 30.601562 15.210938 25.980469 13.933594 C 21.164062 12.601562 16.367188 11.429688 13.589844 12.316406 C 10.886719 13.183594 8.003906 13.441406 5.371094 14.558594 C 4.207031 15.050781 -0.746094 17.613281 0.128906 19.375 C 1.441406 18.179688 2.902344 17.316406 4.832031 17.121094 Z M 4.832031 17.121094 "/>
<path style=" stroke:none;fill-rule:nonzero;fill:rgb(28.627451%,29.803922%,40.392157%);fill-opacity:1;" d="M 29.015625 0.921875 C 29.289062 0.429688 29.804688 0.078125 30.359375 0.0117188 C 30.910156 -0.0546875 31.492188 0.15625 31.875 0.570312 C 32.039062 0.75 32.164062 1.039062 32.007812 1.222656 C 31.921875 1.324219 31.78125 1.351562 31.652344 1.371094 C 30.761719 1.484375 29.832031 1.28125 29.066406 0.808594 "/>
<path style=" stroke:none;fill-rule:nonzero;fill:url(#linear0);" d="M 25.179688 7.96875 C 24.652344 7.207031 24.226562 6.472656 23.9375 5.84375 C 23.824219 5.59375 23.722656 5.339844 23.644531 5.078125 C 22.695312 6.609375 22.695312 8.585938 23.652344 10.121094 C 23.75 9.652344 24.3125 8.863281 25.179688 7.96875 Z M 25.179688 7.96875 "/>
<path style=" stroke:none;fill-rule:nonzero;fill:url(#linear1);" d="M 26.363281 9.535156 C 25.304688 10.222656 24.429688 10.605469 23.976562 10.578125 C 25.164062 12.066406 27.164062 12.707031 29.027344 12.097656 C 28.6875 11.878906 28.320312 11.578125 27.917969 11.203125 C 27.355469 10.671875 26.835938 10.113281 26.363281 9.535156 Z M 26.363281 9.535156 "/>
<path style=" stroke:none;fill-rule:nonzero;fill:url(#linear2);" d="M 28.085938 5.519531 C 29.242188 4.714844 30.269531 4.207031 30.828125 4.175781 C 29.386719 2.769531 27.265625 2.480469 25.539062 3.34375 C 25.835938 3.5 26.167969 3.726562 26.539062 4.03125 C 27.078125 4.480469 27.597656 4.976562 28.085938 5.519531 Z M 28.085938 5.519531 "/>
<path style=" stroke:none;fill-rule:nonzero;fill:url(#linear3);" d="M 31.246094 4.640625 C 31.128906 5.175781 30.433594 6.09375 29.40625 7.097656 C 30.035156 7.929688 30.570312 8.757812 30.949219 9.492188 C 31.101562 9.789062 31.234375 10.09375 31.347656 10.410156 C 32.613281 8.671875 32.566406 6.324219 31.246094 4.640625 Z M 31.246094 4.640625 "/>
<path style=" stroke:none;fill-rule:nonzero;fill:url(#linear4);" d="M 27.375 6.035156 C 25.980469 4.492188 24.734375 3.628906 24.371094 3.964844 C 23.957031 4.347656 24.820312 6.207031 26.382812 8.234375 C 26.609375 8.523438 26.832031 8.800781 27.058594 9.0625 L 27.375 6.039062 Z M 27.375 6.035156 "/>
<path style=" stroke:none;fill-rule:nonzero;fill:url(#linear5);" d="M 28.742188 7.714844 C 28.476562 7.949219 28.195312 8.1875 27.90625 8.421875 C 27.613281 8.652344 27.332031 8.867188 27.054688 9.0625 C 28.523438 10.785156 29.980469 11.917969 30.425781 11.597656 C 30.875 11.277344 30.117188 9.582031 28.742188 7.714844 Z M 28.742188 7.714844 "/>
</g>
</svg>
