<?xml version="1.0" encoding="UTF-8"?>
<svg xmlns="http://www.w3.org/2000/svg" xmlns:xlink="http://www.w3.org/1999/xlink" width="48px" height="px" viewBox="0 0 47 33" version="1.1">
<defs>
<filter id="alpha" filterUnits="objectBoundingBox" x="0%" y="0%" width="100%" height="100%">
  <feColorMatrix type="matrix" in="SourceGraphic" values="0 0 0 0 1 0 0 0 0 1 0 0 0 0 1 0 0 0 1 0"/>
</filter>
<mask id="mask0">
  <g filter="url(#alpha)">
<rect x="0" y="0" width="47" height="33" style="fill:rgb(0%,0%,0%);fill-opacity:0.121569;stroke:none;"/>
  </g>
</mask>
<clipPath id="clip1">
  <rect x="0" y="0" width="47" height="33"/>
</clipPath>
<g id="surface5" clip-path="url(#clip1)">
<path style=" stroke:none;fill-rule:nonzero;fill:rgb(0%,0%,0%);fill-opacity:1;" d="M 13.722656 16.691406 C 16.136719 15.976562 18.402344 15.332031 20.640625 16.507812 C 22.46875 17.46875 23.460938 19.398438 24.59375 21.152344 C 27.011719 24.886719 29.894531 28.3125 33.050781 30.929688 C 36.203125 33.546875 41.144531 33.609375 44.660156 31.25 C 39.324219 28.59375 34.613281 24.789062 30.421875 20.449219 C 26.230469 16.113281 22.375 11.4375 17.984375 7.304688 C 17.917969 8.425781 18.519531 9.457031 18.960938 10.484375 C 19.40625 11.511719 19.671875 12.792969 19.015625 13.695312 C 18.558594 14.324219 17.777344 14.59375 17.042969 14.820312 C 13.34375 15.945312 9.578125 16.835938 5.773438 17.484375 C 4.820312 17.644531 3.867188 17.789062 2.910156 17.921875 C 2.617188 17.960938 -0.03125 17.894531 0.519531 18.429688 C 0.832031 18.730469 3.945312 18.480469 4.394531 18.445312 C 5.351562 18.363281 6.304688 18.253906 7.253906 18.117188 C 9.441406 17.796875 11.601562 17.320312 13.722656 16.691406 Z M 13.722656 16.691406 "/>
</g>
</defs>
<g id="surface1">
<use xlink:href="#surface5" mask="url(#mask0)"/>
<path style=" stroke:none;fill-rule:nonzero;fill:rgb(90.196078%,90.588235%,90.980392%);fill-opacity:1;" d="M 30.585938 1.332031 C 30.054688 0.691406 29.402344 0.0859375 28.601562 0.136719 C 27.578125 0.203125 27.121094 1.742188 26.828125 2.589844 C 26.449219 3.703125 26.28125 4.886719 26.347656 6.0625 C 27.320312 6.726562 28.363281 6.761719 29.4375 7.097656 C 30.640625 7.46875 31.878906 7.714844 33.132812 7.789062 C 33.414062 7.804688 33.734375 7.796875 33.914062 7.578125 C 34.363281 7.03125 33.230469 5.105469 32.945312 4.609375 C 32.328125 3.542969 31.566406 2.570312 30.808594 1.605469 C 30.734375 1.515625 30.664062 1.421875 30.585938 1.332031 Z M 30.585938 1.332031 "/>
<path style=" stroke:none;fill-rule:nonzero;fill:rgb(92.941176%,10.980392%,14.117647%);fill-opacity:1;" d="M 29.246094 1.339844 C 29.023438 2.4375 29.15625 3.574219 29.292969 4.6875 C 29.332031 4.992188 29.375 5.320312 29.5625 5.5625 C 29.714844 5.757812 29.941406 5.875 30.167969 5.972656 C 30.695312 6.207031 31.640625 6.652344 32.226562 6.46875 C 33.066406 6.207031 32.574219 5.472656 32.253906 4.988281 C 31.378906 3.671875 30.371094 2.445312 29.246094 1.339844 Z M 29.246094 1.339844 "/>
<path style=" stroke:none;fill-rule:nonzero;fill:rgb(94.509804%,94.901961%,94.901961%);fill-opacity:1;" d="M 44.492188 14.34375 C 46.03125 16.121094 46.808594 18.382812 46.980469 20.722656 C 47.164062 23.238281 46.105469 25.648438 45.109375 27.882812 C 44.746094 28.703125 44.339844 29.472656 43.871094 30.234375 C 43.453125 30.90625 42.878906 31.152344 42.140625 31.417969 C 35.609375 33.757812 29.753906 26.554688 26.363281 21.835938 C 25.867188 21.144531 25.382812 20.445312 24.90625 19.742188 C 22.472656 16.144531 20.183594 12.441406 18.207031 8.5625 C 17.4375 7.050781 16.699219 5.4375 16.753906 3.738281 C 16.808594 2.039062 17.90625 0.25 19.5625 0.015625 C 20.285156 -0.0898438 21.070312 1.421875 21.445312 1.875 C 22.125 2.699219 22.855469 3.476562 23.632812 4.207031 C 25.148438 5.632812 26.484375 5.179688 28.367188 5.0625 C 30.730469 4.910156 33.308594 6.179688 35.261719 7.414062 C 36.972656 8.496094 38.507812 9.90625 39.683594 11.578125 C 40.070312 12.128906 40.34375 12.832031 40.835938 13.292969 C 41.246094 13.675781 41.703125 13.570312 42.21875 13.550781 C 43.042969 13.523438 43.902344 13.660156 44.457031 14.300781 C 44.46875 14.3125 44.484375 14.328125 44.496094 14.339844 Z M 44.492188 14.34375 "/>
<path style=" stroke:none;fill-rule:nonzero;fill:rgb(92.941176%,10.980392%,14.117647%);fill-opacity:1;" d="M 23.464844 9.734375 C 23.507812 10.007812 23.558594 10.296875 23.628906 10.550781 C 23.238281 10.039062 22.835938 9.140625 22.539062 8.507812 C 22.207031 7.789062 20.507812 3.382812 20.210938 1.835938 C 20.546875 2.433594 21.488281 3.332031 21.914062 3.738281 C 22.550781 4.335938 23.234375 4.863281 23.945312 5.359375 C 24.46875 5.722656 24.484375 6.011719 24.195312 6.511719 C 23.824219 7.152344 23.503906 7.648438 23.425781 8.421875 C 23.382812 8.855469 23.402344 9.296875 23.464844 9.734375 Z M 23.464844 9.734375 "/>
<path style=" stroke:none;fill-rule:nonzero;fill:rgb(92.941176%,10.980392%,14.117647%);fill-opacity:1;" d="M 28.570312 5.199219 C 28.511719 5.210938 28.394531 5.230469 28.390625 5.300781 C 28.382812 5.367188 28.492188 5.425781 28.539062 5.449219 C 28.839844 5.609375 29.09375 5.710938 29.414062 5.808594 C 30.429688 6.125 31.421875 6.503906 32.390625 6.945312 C 32.007812 6.40625 31.46875 5.996094 30.878906 5.71875 C 30.289062 5.4375 29.972656 5.296875 29.324219 5.21875 C 29.070312 5.1875 28.730469 5.160156 28.570312 5.199219 Z M 28.570312 5.199219 "/>
<path style=" stroke:none;fill-rule:nonzero;fill:rgb(92.941176%,10.980392%,14.117647%);fill-opacity:1;" d="M 29.550781 6.703125 C 29.4375 6.707031 29.300781 6.734375 29.273438 6.847656 C 29.257812 6.902344 29.28125 6.964844 29.3125 7.015625 C 29.472656 7.308594 29.800781 7.472656 30.128906 7.527344 C 30.457031 7.582031 30.792969 7.546875 31.125 7.542969 C 31.382812 7.535156 31.617188 7.570312 31.867188 7.636719 C 31.992188 7.667969 32.035156 7.625 31.941406 7.523438 C 31.863281 7.4375 31.753906 7.367188 31.660156 7.304688 C 31.265625 7.035156 30.820312 6.855469 30.355469 6.765625 C 30.09375 6.714844 29.820312 6.691406 29.550781 6.703125 Z M 29.550781 6.703125 "/>
<path style=" stroke:none;fill-rule:nonzero;fill:rgb(92.941176%,10.980392%,14.117647%);fill-opacity:1;" d="M 33.410156 6.644531 C 33.300781 6.472656 33.132812 6.351562 32.945312 6.269531 C 32.761719 6.1875 32.527344 6.0625 32.445312 6.136719 C 32.394531 6.183594 32.484375 6.320312 32.585938 6.398438 C 32.757812 6.523438 32.925781 6.660156 33.085938 6.800781 C 33.222656 6.917969 33.359375 7.085938 33.554688 7.234375 C 33.546875 6.941406 33.484375 6.757812 33.410156 6.644531 Z M 33.410156 6.644531 "/>
<path style=" stroke:none;fill-rule:nonzero;fill:rgb(92.941176%,10.980392%,14.117647%);fill-opacity:1;" d="M 34.644531 11.308594 C 33.226562 10.53125 31.554688 10.109375 29.988281 10.488281 C 29.15625 10.691406 28.402344 11.175781 27.59375 11.457031 C 26.605469 11.796875 25.554688 12.011719 24.511719 11.9375 C 24.597656 11.941406 24.769531 12.117188 24.84375 12.171875 C 24.972656 12.257812 25.105469 12.347656 25.234375 12.433594 C 25.488281 12.59375 25.742188 12.75 26 12.902344 C 26.496094 13.195312 26.992188 13.488281 27.492188 13.769531 C 28.507812 14.332031 29.589844 14.773438 30.710938 15.078125 C 31.699219 15.347656 32.957031 15.605469 33.984375 15.378906 C 34.804688 15.195312 35.351562 14.828125 36.140625 14.539062 C 36.476562 14.414062 36.824219 14.3125 37.175781 14.246094 C 37.527344 14.183594 37.878906 14.230469 38.21875 14.1875 C 38.015625 13.945312 37.710938 13.609375 37.53125 13.449219 C 37.230469 13.179688 36.925781 12.917969 36.617188 12.664062 C 35.996094 12.160156 35.34375 11.691406 34.644531 11.308594 Z M 34.644531 11.308594 "/>
<path style=" stroke:none;fill-rule:nonzero;fill:rgb(0%,0%,0%);fill-opacity:1;" d="M 33.769531 11.195312 C 32.828125 10.964844 31.835938 11.027344 30.898438 11.273438 C 29.960938 11.519531 29.074219 11.941406 28.238281 12.433594 C 29.222656 13.324219 30.292969 14.140625 31.527344 14.601562 C 32.761719 15.0625 34.175781 15.140625 35.367188 14.570312 C 35.777344 14.375 36.1875 14.140625 36.609375 13.957031 C 37.085938 13.75 37.765625 13.808594 37.820312 13.863281 C 37.566406 13.601562 37.308594 13.34375 37.054688 13.082031 C 36.832031 12.855469 36.566406 12.613281 36.3125 12.421875 C 35.953125 12.152344 35.566406 11.890625 35.167969 11.671875 C 34.722656 11.429688 34.261719 11.316406 33.769531 11.195312 Z M 33.769531 11.195312 "/>
<path style=" stroke:none;fill-rule:nonzero;fill:rgb(92.941176%,10.980392%,14.117647%);fill-opacity:1;" d="M 35.667969 15.746094 C 35.308594 16.066406 35.003906 16.511719 34.628906 16.8125 C 33.632812 17.617188 32.238281 17.917969 31.011719 17.566406 C 29.851562 17.230469 28.804688 16.402344 27.761719 15.472656 C 29.386719 16.1875 30.625 16.492188 32.273438 16.535156 C 32.816406 16.550781 33.589844 16.476562 34.039062 16.328125 C 34.53125 16.167969 35.03125 15.789062 35.46875 15.511719 C 35.875 15.25 36.34375 15.027344 36.863281 15.015625 C 36.324219 15.210938 35.933594 15.511719 35.667969 15.746094 Z M 35.667969 15.746094 "/>
<path style=" stroke:none;fill-rule:nonzero;fill:rgb(92.941176%,10.980392%,14.117647%);fill-opacity:1;" d="M 27.351562 15.808594 C 27.277344 15.632812 27.226562 15.453125 27.160156 15.277344 C 27.09375 15.101562 27.003906 14.925781 26.859375 14.804688 C 26.71875 14.683594 26.519531 14.617188 26.34375 14.675781 C 26.152344 14.742188 26.027344 14.9375 25.996094 15.136719 C 25.953125 15.40625 26.046875 15.6875 26.210938 15.90625 C 26.371094 16.125 26.59375 16.292969 26.820312 16.441406 C 27.078125 16.605469 27.351562 16.75 27.644531 16.832031 C 27.851562 16.890625 28.09375 16.933594 28.308594 16.890625 C 28.613281 16.828125 28.230469 16.71875 28.125 16.660156 C 27.785156 16.46875 27.507812 16.167969 27.351562 15.808594 Z M 27.351562 15.808594 "/>
<path style=" stroke:none;fill-rule:nonzero;fill:rgb(92.941176%,10.980392%,14.117647%);fill-opacity:1;" d="M 29.898438 26.28125 C 32.484375 24.789062 34.757812 22.515625 36.140625 19.835938 C 36.058594 20.929688 35.960938 22.03125 35.679688 23.09375 C 35.398438 24.15625 34.925781 25.183594 34.175781 25.976562 C 33.433594 26.757812 32.546875 27.558594 31.714844 28.121094 C 31.117188 27.578125 30.457031 26.910156 29.898438 26.28125 Z M 29.898438 26.28125 "/>
<path style=" stroke:none;fill-rule:nonzero;fill:rgb(92.941176%,10.980392%,14.117647%);fill-opacity:1;" d="M 27.207031 22.992188 C 29.707031 21.414062 32.679688 20.035156 35.515625 19.242188 C 34.746094 19.925781 31.914062 22.296875 31.421875 22.710938 C 30.5 23.496094 29.613281 24.097656 28.695312 24.886719 C 28.199219 24.3125 27.691406 23.609375 27.207031 22.992188 Z M 27.207031 22.992188 "/>
<path style=" stroke:none;fill-rule:nonzero;fill:rgb(92.941176%,10.980392%,14.117647%);fill-opacity:1;" d="M 39.703125 11.605469 C 39.894531 12.253906 39.761719 12.941406 39.894531 13.59375 C 38.953125 12.257812 38.085938 11.261719 36.816406 9.449219 C 36.507812 9.007812 36.199219 8.566406 36.15625 8.027344 C 36.15625 8.027344 38.265625 9.496094 39.703125 11.605469 Z M 39.703125 11.605469 "/>
<path style=" stroke:none;fill-rule:nonzero;fill:rgb(0%,0%,0%);fill-opacity:1;" d="M 39.609375 11.480469 C 39.84375 11.839844 39.34375 12.3125 39.4375 12.734375 C 38.910156 12.089844 38.378906 11.445312 37.851562 10.796875 C 37.574219 10.457031 37.292969 10.117188 37.078125 9.726562 C 36.867188 9.339844 36.726562 8.957031 36.753906 8.515625 C 36.753906 8.515625 38.554688 9.851562 39.609375 11.480469 Z M 39.609375 11.480469 "/>
<path style=" stroke:none;fill-rule:nonzero;fill:rgb(0%,0%,0%);fill-opacity:1;" d="M 44.273438 14.269531 C 44.039062 13.980469 43.5 13.824219 43.144531 13.894531 C 42.734375 13.976562 43.144531 14.558594 43.320312 14.722656 C 43.554688 14.933594 43.851562 15.058594 44.148438 15.160156 C 44.441406 15.261719 44.746094 15.34375 45.023438 15.496094 C 44.78125 15.078125 44.574219 14.652344 44.273438 14.269531 Z M 44.273438 14.269531 "/>
<path style=" stroke:none;fill-rule:nonzero;fill:rgb(92.941176%,10.980392%,14.117647%);fill-opacity:1;" d="M 39.085938 23.429688 C 38.917969 23.3125 38.722656 23.230469 38.519531 23.226562 C 38.355469 23.226562 38.191406 23.277344 38.054688 23.371094 C 37.816406 23.542969 37.683594 23.847656 37.699219 24.144531 C 37.710938 24.4375 37.867188 24.71875 38.09375 24.90625 C 38.320312 25.09375 38.613281 25.1875 38.90625 25.195312 C 39.613281 25.207031 40.246094 24.722656 40.949219 24.660156 C 40.804688 24.671875 40.566406 24.53125 40.4375 24.46875 C 40.269531 24.386719 40.105469 24.289062 39.957031 24.175781 C 39.648438 23.949219 39.402344 23.644531 39.085938 23.429688 Z M 39.085938 23.429688 "/>
<path style=" stroke:none;fill-rule:nonzero;fill:rgb(0%,0%,0%);fill-opacity:1;" d="M 44.710938 15.0625 C 45.707031 16.242188 46.335938 17.730469 46.527344 19.277344 C 46.601562 20.257812 46.042969 21.160156 45.472656 21.878906 C 44.910156 22.613281 44.199219 23.261719 43.402344 23.734375 C 42.601562 24.226562 41.765625 24.671875 40.792969 24.761719 C 40.300781 24.804688 39.777344 24.730469 39.3125 24.53125 C 39.152344 24.460938 38.996094 24.375 38.84375 24.285156 C 38.652344 24.167969 38.585938 23.914062 38.699219 23.71875 C 38.832031 23.484375 39.160156 23.449219 39.339844 23.640625 C 39.699219 24.019531 40.21875 24.234375 40.773438 24.246094 C 41.652344 24.277344 42.449219 23.828125 43.179688 23.367188 C 43.945312 22.917969 44.625 22.34375 45.1875 21.644531 C 45.574219 21.1875 45.914062 20.695312 46.101562 20.144531 C 46.316406 19.574219 46.207031 18.996094 46.085938 18.417969 C 45.839844 17.238281 45.316406 16.125 44.566406 15.183594 C 44.488281 15.09375 44.628906 14.960938 44.710938 15.0625 Z M 44.710938 15.0625 "/>
<path style="fill:none;stroke-width:1.71;stroke-linecap:butt;stroke-linejoin:miter;stroke:rgb(0%,0%,0%);stroke-opacity:1;stroke-miterlimit:10;" d="M 311.088777 123.197309 C 312.034016 124.951599 313.399362 128.872955 314.790964 128.614971 " transform="matrix(0.148772,0,0,0.151414,0,0.0102061)"/>
<path style="fill:none;stroke-width:7;stroke-linecap:round;stroke-linejoin:miter;stroke:rgb(74.509804%,11.764706%,17.647059%);stroke-opacity:1;stroke-miterlimit:10;" d="M 148.901456 83.416189 C 102.007081 105.164233 56.057945 113.187533 3.492134 118.347211 " transform="matrix(0.148772,0,0,0.151414,0,0.0102061)"/>
</g>
</svg>
