<?xml version="1.0" encoding="UTF-8"?>
<svg xmlns="http://www.w3.org/2000/svg" xmlns:xlink="http://www.w3.org/1999/xlink" width="48px" height="px" viewBox="0 0 48 49" version="1.1">
<defs>
<filter id="alpha" filterUnits="objectBoundingBox" x="0%" y="0%" width="100%" height="100%">
  <feColorMatrix type="matrix" in="SourceGraphic" values="0 0 0 0 1 0 0 0 0 1 0 0 0 0 1 0 0 0 1 0"/>
</filter>
<mask id="mask0">
  <g filter="url(#alpha)">
<rect x="0" y="0" width="48" height="49" style="fill:rgb(0%,0%,0%);fill-opacity:0.168627;stroke:none;"/>
  </g>
</mask>
<clipPath id="clip1">
  <rect x="0" y="0" width="48" height="49"/>
</clipPath>
<g id="surface5" clip-path="url(#clip1)">
<path style=" stroke:none;fill-rule:nonzero;fill:rgb(0%,0%,0%);fill-opacity:1;" d="M 10.65625 14.511719 C 15.320312 13.59375 20.042969 15.707031 22.820312 19.445312 C 22.367188 15.996094 24.667969 12.359375 25.933594 9.183594 C 25.976562 12.738281 25.898438 17.101562 26.46875 20.367188 C 27.039062 23.632812 30.597656 22.617188 32.988281 22.382812 C 35.660156 22.121094 38.175781 22.328125 40.800781 22.972656 C 37.824219 23.558594 33.371094 24.054688 30.710938 25.425781 C 26.269531 27.710938 27.429688 29.984375 26.761719 34.390625 C 26.367188 36.980469 25.824219 39.546875 25.132812 42.070312 C 24.824219 39.023438 24.027344 35.433594 23.316406 32.902344 C 22.378906 29.542969 20.039062 27.765625 16.523438 28.082031 C 14.050781 28.304688 8.519531 30.417969 6.046875 31.539062 C 8.378906 28.617188 11.625 26.21875 15.292969 25.292969 C 16.886719 24.894531 21.152344 25.03125 19.574219 22.269531 C 18.617188 20.59375 12.835938 14.074219 10.652344 14.507812 Z M 10.65625 14.511719 "/>
</g>
</defs>
<g id="surface1">
<path style=" stroke:none;fill-rule:nonzero;fill:rgb(97.647059%,74.117647%,96.078431%);fill-opacity:1;" d="M 22.710938 1.597656 C 22.746094 1.574219 22.773438 1.554688 22.808594 1.53125 C 27.683594 -1.992188 33.695312 1.066406 36.089844 6.3125 C 37.511719 9.433594 36.761719 13.230469 34.84375 16.074219 C 32.8125 19.074219 28.355469 24.847656 24.445312 24.953125 C 19.917969 25.074219 18.863281 16.316406 18.460938 12.726562 C 17.996094 8.59375 19.371094 4.078125 22.710938 1.597656 Z M 22.710938 1.597656 "/>
<path style=" stroke:none;fill-rule:nonzero;fill:rgb(97.647059%,74.117647%,96.078431%);fill-opacity:1;" d="M 44.679688 17.382812 C 44.710938 17.40625 44.746094 17.425781 44.773438 17.453125 C 49.648438 20.976562 48.589844 27.613281 44.3125 31.503906 C 41.769531 33.816406 37.910156 34.277344 34.597656 33.339844 C 31.101562 32.34375 24.210938 29.914062 22.894531 26.246094 C 21.378906 22 29.421875 18.292969 32.726562 16.796875 C 36.53125 15.082031 41.273438 14.984375 44.675781 17.382812 Z M 44.679688 17.382812 "/>
<path style=" stroke:none;fill-rule:nonzero;fill:rgb(97.647059%,74.117647%,96.078431%);fill-opacity:1;" d="M 34.949219 44.019531 C 34.933594 44.054688 34.921875 44.09375 34.90625 44.128906 C 32.617188 49.675781 25.886719 50.21875 21.074219 47.007812 C 18.214844 45.097656 16.847656 41.476562 16.984375 38.054688 C 17.125 34.441406 17.867188 27.195312 21.136719 25.0625 C 24.925781 22.59375 30.449219 29.484375 32.691406 32.332031 C 35.269531 35.597656 36.480469 40.164062 34.949219 44.023438 Z M 34.949219 44.019531 "/>
<path style=" stroke:none;fill-rule:nonzero;fill:rgb(97.647059%,74.117647%,96.078431%);fill-opacity:1;" d="M 7.25 41.496094 C 7.207031 41.496094 7.171875 41.488281 7.128906 41.484375 C 1.144531 40.804688 -1.210938 34.507812 0.585938 29.027344 C 1.652344 25.769531 4.785156 23.476562 8.128906 22.671875 C 11.660156 21.824219 18.867188 20.5625 21.820312 23.113281 C 25.242188 26.066406 20.078125 33.230469 17.9375 36.152344 C 15.480469 39.507812 11.394531 41.910156 7.246094 41.492188 Z M 7.25 41.496094 "/>
<path style=" stroke:none;fill-rule:nonzero;fill:rgb(97.647059%,74.117647%,96.078431%);fill-opacity:1;" d="M 1.472656 15.785156 C 1.464844 15.75 1.449219 15.707031 1.441406 15.671875 C 0.0507812 9.835938 5.195312 5.488281 10.984375 5.304688 C 14.425781 5.191406 17.660156 7.339844 19.558594 10.199219 C 21.558594 13.21875 25.203125 19.53125 23.804688 23.160156 C 22.179688 27.367188 13.648438 24.972656 10.15625 23.964844 C 6.148438 22.804688 2.488281 19.804688 1.46875 15.78125 Z M 1.472656 15.785156 "/>
<use xlink:href="#surface5" mask="url(#mask0)"/>
<path style=" stroke:none;fill-rule:nonzero;fill:rgb(100%,94.901961%,0%);fill-opacity:1;" d="M 30.335938 24.292969 C 30.335938 28.132812 27.207031 31.246094 23.347656 31.246094 C 19.488281 31.246094 16.359375 28.132812 16.359375 24.292969 C 16.359375 20.449219 19.488281 17.335938 23.347656 17.335938 C 27.207031 17.335938 30.335938 20.449219 30.335938 24.292969 Z M 30.335938 24.292969 "/>
</g>
</svg>
