<?xml version="1.0" encoding="UTF-8"?>
<svg xmlns="http://www.w3.org/2000/svg" xmlns:xlink="http://www.w3.org/1999/xlink" width="48px" height="px" viewBox="0 0 48 24" version="1.1">
<defs>
<filter id="alpha" filterUnits="objectBoundingBox" x="0%" y="0%" width="100%" height="100%">
  <feColorMatrix type="matrix" in="SourceGraphic" values="0 0 0 0 1 0 0 0 0 1 0 0 0 0 1 0 0 0 1 0"/>
</filter>
<mask id="mask0">
  <g filter="url(#alpha)">
<rect x="0" y="0" width="48" height="24" style="fill:rgb(0%,0%,0%);fill-opacity:0.25098;stroke:none;"/>
  </g>
</mask>
<clipPath id="clip1">
  <rect x="0" y="0" width="48" height="24"/>
</clipPath>
<g id="surface5" clip-path="url(#clip1)">
<path style=" stroke:none;fill-rule:nonzero;fill:rgb(0%,0%,0%);fill-opacity:1;" d="M 34.878906 21.585938 C 31.027344 19.519531 27.003906 17.6875 22.734375 16.703125 C 18.929688 15.828125 14.894531 15.695312 11.085938 16.621094 C 10.148438 16.851562 9.226562 17.144531 8.332031 17.511719 C 7.527344 17.839844 6.566406 18.644531 5.75 18.820312 C 4.421875 19.101562 4.097656 16.519531 3.34375 15.347656 C 1.546875 12.566406 -0.171875 8.992188 0.0976562 5.75 C 2.589844 7.5 6.246094 10.261719 9.15625 11.148438 C 11.710938 11.925781 14.125 11.535156 16.730469 11.832031 C 19.351562 12.128906 21.902344 12.859375 24.417969 13.625 C 27.296875 14.496094 30.160156 15.476562 33.125 16.011719 C 36.089844 16.550781 38.980469 16.304688 41.921875 16.441406 C 43.410156 16.507812 44.902344 16.496094 46.390625 16.425781 C 48.09375 16.34375 48.011719 16.164062 47.972656 18.027344 C 47.929688 20.109375 46.230469 21.742188 44.425781 22.175781 C 43.542969 22.390625 41.09375 23.003906 40.21875 23.976562 C 40.164062 24.039062 36.199219 22.292969 34.878906 21.585938 Z M 34.878906 21.585938 "/>
</g>
</defs>
<g id="surface1">
<path style=" stroke:none;fill-rule:nonzero;fill:rgb(64.705882%,19.607843%,36.862745%);fill-opacity:1;" d="M 39.726562 23.28125 C 38.785156 22.121094 37.769531 21.789062 36.242188 20.957031 C 36.171875 20.917969 36.101562 20.878906 36.03125 20.839844 C 31.132812 18.199219 25.839844 15.988281 20.378906 14.886719 C 17.59375 14.324219 14.660156 14.039062 11.851562 14.601562 C 10.484375 14.878906 9.128906 15.449219 7.96875 16.273438 C 7.371094 16.695312 6.882812 17.246094 6.386719 17.785156 C 5.890625 18.320312 5.363281 19.125 4.941406 19.722656 C 4.648438 19.175781 4.722656 18.085938 4.488281 17.472656 C 4.199219 16.714844 3.777344 16.019531 3.339844 15.34375 C 1.976562 13.230469 -0.53125 9.023438 0.101562 6.429688 C 1.535156 0.523438 10.726562 -0.0664062 15.46875 0.703125 C 20.269531 1.484375 24.398438 5.058594 29.378906 4.945312 C 31.660156 4.890625 33.566406 5 35.800781 5.757812 C 40.300781 7.289062 44.316406 10.296875 46.96875 14.28125 C 49.085938 17.46875 47.800781 21.175781 44.425781 22.175781 C 42.789062 22.660156 41.515625 22.847656 40.222656 23.972656 C 40.058594 23.710938 39.894531 23.484375 39.726562 23.28125 Z M 39.726562 23.28125 "/>
<use xlink:href="#surface5" mask="url(#mask0)"/>
<path style=" stroke:none;fill-rule:nonzero;fill:rgb(64.705882%,19.607843%,36.862745%);fill-opacity:1;" d="M 26.5625 2.726562 C 26.597656 2 26.382812 1.265625 25.980469 0.664062 C 25.785156 0.371094 26.03125 -0.0195312 26.378906 0.03125 C 27.085938 0.128906 27.761719 0.414062 28.28125 0.964844 C 28.484375 1.179688 28.644531 1.425781 28.75 1.699219 C 29.296875 3.109375 28.3125 4.382812 27.398438 5.429688 C 26.929688 5.96875 25.617188 5.449219 25.554688 4.96875 C 25.511719 4.601562 26.527344 3.375 26.5625 2.726562 Z M 26.5625 2.726562 "/>
</g>
</svg>
