<?xml version="1.0" encoding="UTF-8"?>
<svg xmlns="http://www.w3.org/2000/svg" xmlns:xlink="http://www.w3.org/1999/xlink" width="48px" height="px" viewBox="0 0 48 21" version="1.1">
<defs>
<filter id="alpha" filterUnits="objectBoundingBox" x="0%" y="0%" width="100%" height="100%">
  <feColorMatrix type="matrix" in="SourceGraphic" values="0 0 0 0 1 0 0 0 0 1 0 0 0 0 1 0 0 0 1 0"/>
</filter>
<mask id="mask0">
  <g filter="url(#alpha)">
<rect x="0" y="0" width="48" height="21" style="fill:rgb(0%,0%,0%);fill-opacity:0.4;stroke:none;"/>
  </g>
</mask>
<clipPath id="clip1">
  <rect x="0" y="0" width="48" height="21"/>
</clipPath>
<g id="surface5" clip-path="url(#clip1)">
<path style=" stroke:none;fill-rule:nonzero;fill:rgb(70.588235%,71.372549%,78.431373%);fill-opacity:1;" d="M 24.867188 11.191406 C 24.660156 13.164062 23.925781 15.09375 22.679688 16.636719 C 22.121094 17.328125 21.464844 17.941406 20.71875 18.421875 C 20.132812 18.804688 19.453125 19.410156 18.753906 19.5 C 19.929688 18.539062 20.734375 17.140625 21.183594 15.695312 C 21.640625 14.226562 21.765625 12.671875 21.738281 11.136719 C 21.710938 9.761719 21.558594 8.375 21.085938 7.085938 C 20.617188 5.796875 19.800781 4.609375 18.65625 3.871094 C 16.6875 2.605469 14.058594 2.878906 11.964844 3.921875 C 13.191406 2 15.984375 0.984375 18.167969 1.214844 C 22.390625 1.664062 25.386719 6.132812 24.863281 11.191406 Z M 24.867188 11.191406 "/>
</g>
</defs>
<g id="surface1">
<path style=" stroke:none;fill-rule:nonzero;fill:rgb(28.627451%,29.803922%,40.392157%);fill-opacity:1;" d="M 23.722656 13.941406 C 27.65625 14.109375 31.589844 14.5625 35.417969 15.488281 C 40.230469 16.652344 46.113281 19.308594 47.976562 20.945312 C 48.136719 19.941406 47.40625 18.457031 46.867188 17.667969 C 46.121094 16.578125 45.222656 15.589844 44.210938 14.746094 C 42.222656 13.089844 39.828125 11.769531 37.402344 10.941406 C 29.292969 8.167969 20.441406 7.644531 12.070312 9.449219 C 9.523438 9.996094 7 10.765625 4.757812 12.109375 C 3.097656 13.105469 0.871094 15.601562 0 17.886719 C 3.585938 16.492188 8.902344 14.949219 10.769531 14.660156 C 14.417969 14.09375 18.113281 13.839844 21.804688 13.890625 C 22.445312 13.898438 23.085938 13.917969 23.722656 13.945312 Z M 23.722656 13.941406 "/>
<path style=" stroke:none;fill-rule:nonzero;fill:rgb(70.588235%,71.372549%,78.431373%);fill-opacity:1;" d="M 18.902344 0.300781 C 14.164062 -0.203125 9.847656 3.992188 9.257812 9.667969 C 8.667969 15.347656 12.03125 20.359375 16.769531 20.867188 C 21.507812 21.371094 25.828125 17.175781 26.414062 11.496094 C 27.003906 5.820312 23.640625 0.808594 18.902344 0.300781 Z M 18.902344 0.300781 "/>
<path style=" stroke:none;fill-rule:nonzero;fill:rgb(91.372549%,92.156863%,97.647059%);fill-opacity:1;" d="M 18.289062 0.09375 C 13.550781 -0.410156 9.230469 3.785156 8.644531 9.460938 C 8.054688 15.140625 11.417969 20.152344 16.15625 20.660156 C 20.894531 21.164062 25.210938 16.96875 25.800781 11.292969 C 26.390625 5.613281 23.027344 0.601562 18.289062 0.09375 Z M 18.289062 0.09375 "/>
<use xlink:href="#surface5" mask="url(#mask0)"/>
<path style=" stroke:none;fill-rule:nonzero;fill:rgb(49.411765%,50.588235%,59.607843%);fill-opacity:1;" d="M 17.296875 9.675781 C 16.972656 9.644531 16.679688 9.929688 16.640625 10.316406 C 16.597656 10.703125 16.828125 11.042969 17.148438 11.078125 C 17.472656 11.109375 17.765625 10.824219 17.804688 10.4375 C 17.847656 10.050781 17.617188 9.710938 17.296875 9.675781 Z M 17.296875 9.675781 "/>
</g>
</svg>
