<?xml version="1.0" encoding="UTF-8"?>
<svg xmlns="http://www.w3.org/2000/svg" xmlns:xlink="http://www.w3.org/1999/xlink" width="48px" height="px" viewBox="0 0 47 19" version="1.1">
<defs>
<filter id="alpha" filterUnits="objectBoundingBox" x="0%" y="0%" width="100%" height="100%">
  <feColorMatrix type="matrix" in="SourceGraphic" values="0 0 0 0 1 0 0 0 0 1 0 0 0 0 1 0 0 0 1 0"/>
</filter>
<mask id="mask0">
  <g filter="url(#alpha)">
<rect x="0" y="0" width="47" height="19" style="fill:rgb(0%,0%,0%);fill-opacity:0.180392;stroke:none;"/>
  </g>
</mask>
<clipPath id="clip1">
  <rect x="0" y="0" width="47" height="19"/>
</clipPath>
<g id="surface5" clip-path="url(#clip1)">
<path style=" stroke:none;fill-rule:nonzero;fill:rgb(0%,0%,0%);fill-opacity:1;" d="M 21.402344 16.097656 C 25.25 16.542969 28.171875 17.070312 31.949219 18.996094 C 31.6875 18.5 31.558594 18.285156 31.226562 17.976562 C 30.894531 17.664062 30.648438 17.464844 30.242188 17.269531 C 27.683594 16.023438 24.9375 15.101562 22.113281 14.851562 C 17.34375 14.433594 13.460938 15.335938 13.34375 15.351562 C 13.214844 15.371094 12.644531 15.917969 12.453125 16.136719 C 12.972656 16.574219 18.011719 15.703125 21.402344 16.097656 Z M 21.402344 16.097656 "/>
</g>
<mask id="mask1">
  <g filter="url(#alpha)">
<rect x="0" y="0" width="47" height="19" style="fill:rgb(0%,0%,0%);fill-opacity:0.180392;stroke:none;"/>
  </g>
</mask>
<clipPath id="clip2">
  <rect x="0" y="0" width="47" height="19"/>
</clipPath>
<g id="surface8" clip-path="url(#clip2)">
<path style=" stroke:none;fill-rule:nonzero;fill:rgb(0%,0%,0%);fill-opacity:1;" d="M 31.308594 17.511719 C 25.527344 14.222656 19.5 14.308594 12.9375 15.230469 L 11.761719 11.320312 C 12.542969 11.242188 13.964844 11.300781 15.074219 12.125 C 15.074219 12.125 15.445312 11.53125 15.246094 9.5625 C 17.097656 9.90625 18.894531 11.929688 18.894531 11.929688 L 21.054688 9.363281 L 22.761719 12.363281 C 22.761719 12.363281 25.136719 10.335938 26.195312 10.355469 C 26.277344 11.34375 26.613281 13.28125 26.613281 13.28125 C 26.613281 13.28125 28.820312 11.363281 31.132812 11.597656 C 30.269531 13.109375 29.910156 14.53125 29.910156 14.53125 C 29.910156 14.53125 31.195312 13.222656 33.175781 13.546875 L 31.304688 17.511719 Z M 31.308594 17.511719 "/>
</g>
<mask id="mask2">
  <g filter="url(#alpha)">
<rect x="0" y="0" width="47" height="19" style="fill:rgb(0%,0%,0%);fill-opacity:0.121569;stroke:none;"/>
  </g>
</mask>
<clipPath id="clip3">
  <rect x="0" y="0" width="47" height="19"/>
</clipPath>
<g id="surface11" clip-path="url(#clip3)">
<path style=" stroke:none;fill-rule:nonzero;fill:rgb(0%,0%,0%);fill-opacity:1;" d="M 3.121094 11.601562 C 3.226562 11.640625 3.351562 11.558594 3.375 11.511719 C 3.449219 11.363281 3.125 11.109375 3.035156 11.042969 C 2.703125 10.8125 2.484375 10.683594 2.109375 10.527344 C 1.738281 10.367188 1.359375 10.25 0.964844 10.160156 C 0.796875 10.121094 0.5625 10.113281 0.390625 10.117188 C 0.273438 10.117188 0.0976562 10.121094 0.0195312 10.226562 C -0.0390625 10.304688 0.09375 10.457031 0.144531 10.507812 C 0.492188 10.304688 1.414062 10.625 1.734375 10.75 C 2.25 10.949219 2.828125 11.179688 3.121094 11.601562 Z M 3.121094 11.601562 "/>
</g>
<mask id="mask3">
  <g filter="url(#alpha)">
<rect x="0" y="0" width="47" height="19" style="fill:rgb(0%,0%,0%);fill-opacity:0.121569;stroke:none;"/>
  </g>
</mask>
<clipPath id="clip4">
  <rect x="0" y="0" width="47" height="19"/>
</clipPath>
<g id="surface14" clip-path="url(#clip4)">
<path style=" stroke:none;fill-rule:nonzero;fill:rgb(0%,0%,0%);fill-opacity:1;" d="M 2.277344 11.394531 C 2.101562 11.289062 1.882812 11.332031 1.792969 11.488281 C 1.738281 11.585938 1.746094 11.703125 1.800781 11.804688 C 1.796875 11.808594 1.792969 11.808594 1.789062 11.8125 C 1.691406 11.882812 1.605469 11.960938 1.496094 12.015625 C 1.28125 12.132812 1.0625 12.171875 0.820312 12.171875 C 0.914062 12.242188 1.105469 12.335938 1.230469 12.371094 C 1.320312 12.386719 1.410156 12.359375 1.5 12.328125 C 1.699219 12.257812 1.902344 12.160156 2.046875 12.003906 C 2.203125 12.050781 2.367188 12 2.441406 11.871094 C 2.53125 11.710938 2.460938 11.5 2.28125 11.394531 Z M 2.277344 11.394531 "/>
</g>
<mask id="mask4">
  <g filter="url(#alpha)">
<rect x="0" y="0" width="47" height="19" style="fill:rgb(0%,0%,0%);fill-opacity:0.121569;stroke:none;"/>
  </g>
</mask>
<clipPath id="clip5">
  <rect x="0" y="0" width="47" height="19"/>
</clipPath>
<g id="surface17" clip-path="url(#clip5)">
<path style=" stroke:none;fill-rule:nonzero;fill:rgb(0%,0%,0%);fill-opacity:1;" d="M 43.878906 12.601562 C 43.773438 12.636719 43.648438 12.558594 43.625 12.507812 C 43.550781 12.359375 43.875 12.105469 43.964844 12.042969 C 44.296875 11.808594 44.515625 11.679688 44.890625 11.523438 C 45.261719 11.367188 45.640625 11.246094 46.035156 11.160156 C 46.203125 11.121094 46.4375 11.109375 46.609375 11.113281 C 46.726562 11.117188 46.902344 11.121094 46.980469 11.226562 C 47.039062 11.304688 46.90625 11.453125 46.855469 11.503906 C 46.507812 11.300781 45.585938 11.625 45.265625 11.746094 C 44.75 11.945312 44.171875 12.175781 43.878906 12.601562 Z M 43.878906 12.601562 "/>
</g>
<mask id="mask5">
  <g filter="url(#alpha)">
<rect x="0" y="0" width="47" height="19" style="fill:rgb(0%,0%,0%);fill-opacity:0.121569;stroke:none;"/>
  </g>
</mask>
<clipPath id="clip6">
  <rect x="0" y="0" width="47" height="19"/>
</clipPath>
<g id="surface20" clip-path="url(#clip6)">
<path style=" stroke:none;fill-rule:nonzero;fill:rgb(0%,0%,0%);fill-opacity:1;" d="M 45.503906 13.015625 C 45.394531 12.957031 45.3125 12.878906 45.210938 12.808594 C 45.207031 12.804688 45.203125 12.804688 45.199219 12.804688 C 45.257812 12.703125 45.261719 12.585938 45.207031 12.488281 C 45.117188 12.328125 44.898438 12.285156 44.722656 12.390625 C 44.542969 12.496094 44.46875 12.707031 44.558594 12.867188 C 44.632812 13 44.800781 13.046875 44.957031 13 C 45.097656 13.15625 45.304688 13.253906 45.503906 13.324219 C 45.589844 13.359375 45.679688 13.382812 45.773438 13.367188 C 45.894531 13.332031 46.085938 13.238281 46.183594 13.167969 C 45.941406 13.167969 45.722656 13.128906 45.503906 13.011719 Z M 45.503906 13.015625 "/>
</g>
</defs>
<g id="surface1">
<path style=" stroke:none;fill-rule:nonzero;fill:rgb(18.039216%,19.215686%,57.254902%);fill-opacity:1;" d="M 20.929688 13.464844 C 21.652344 9.753906 22.59375 5.1875 22.59375 5.1875 C 25.285156 1.589844 29.8125 0.269531 34.015625 0.855469 C 44.375 2.292969 45.191406 11.835938 45.191406 11.835938 C 45.191406 11.835938 42.632812 7.859375 37.570312 9.421875 C 33.648438 10.628906 32.378906 15.523438 31.839844 16.664062 C 29.3125 16.582031 20.757812 14.335938 20.929688 13.464844 Z M 20.929688 13.464844 "/>
<path style=" stroke:none;fill-rule:nonzero;fill:rgb(100%,83.137255%,0%);fill-opacity:1;" d="M 45.191406 11.835938 C 44.082031 7.578125 40.738281 4.089844 36.414062 3.335938 C 34.867188 3.035156 33.269531 3.042969 31.707031 3.238281 C 30.523438 3.40625 29.382812 3.804688 28.328125 4.371094 C 25.917969 5.683594 23.921875 7.789062 22.511719 10.152344 C 21.941406 11.144531 21.417969 12.183594 21.238281 13.300781 C 21.21875 13.433594 21.214844 13.554688 21.21875 13.648438 C 21.21875 13.648438 18.890625 13.648438 18.890625 13.648438 C 18.898438 13.367188 18.933594 13.121094 18.980469 12.894531 C 19.289062 11.476562 20.015625 10.191406 20.796875 9.023438 C 22.988281 5.859375 26.113281 3.195312 29.867188 2.265625 C 30.429688 2.128906 31 2.039062 31.578125 1.996094 C 33.261719 1.894531 34.96875 2.011719 36.609375 2.445312 C 41.046875 3.546875 44.335938 7.339844 45.191406 11.835938 Z M 45.191406 11.835938 "/>
<path style=" stroke:none;fill-rule:nonzero;fill:rgb(100%,83.137255%,0%);fill-opacity:1;" d="M 45.191406 11.835938 C 44.546875 10.113281 43.472656 8.539062 42.097656 7.34375 C 39.800781 5.316406 36.679688 4.878906 33.789062 5.621094 C 29.761719 6.519531 26.820312 9.949219 25.351562 13.714844 C 25.136719 14.253906 24.953125 14.804688 24.8125 15.347656 L 22.585938 14.648438 C 23.476562 12.152344 24.882812 9.871094 26.742188 8.003906 C 28.578125 6.152344 30.996094 4.804688 33.566406 4.4375 C 36.0625 4.023438 38.800781 4.355469 40.933594 5.804688 C 43.019531 7.199219 44.492188 9.425781 45.191406 11.835938 Z M 45.191406 11.835938 "/>
<path style=" stroke:none;fill-rule:nonzero;fill:rgb(100%,83.137255%,0%);fill-opacity:1;" d="M 45.191406 11.835938 C 43.574219 8.679688 40.511719 6.984375 37.046875 7.765625 C 32.808594 8.585938 30.253906 12.273438 29.242188 16.316406 C 29.242188 16.316406 27.015625 15.617188 27.015625 15.617188 C 27.722656 13.640625 28.730469 11.773438 30.125 10.203125 C 32.195312 7.820312 35.277344 6.414062 38.414062 6.625 C 41.515625 6.773438 44.121094 8.941406 45.191406 11.835938 Z M 45.191406 11.835938 "/>
<path style=" stroke:none;fill-rule:nonzero;fill:rgb(13.72549%,12.156863%,12.54902%);fill-opacity:1;" d="M 22.59375 5.1875 C 20.925781 2.632812 18.796875 1.316406 16.085938 0.5 C 11.195312 -0.972656 5.703125 0.847656 3.339844 5.582031 C 2.625 7.019531 2.214844 8.527344 2.078125 10.132812 C 3.796875 8.257812 6.457031 7.292969 8.824219 8.175781 C 11.957031 9.347656 11.949219 12.292969 12.636719 15 C 14.441406 14.925781 20.886719 14.371094 21.488281 13.832031 Z M 22.59375 5.1875 "/>
<path style=" stroke:none;fill-rule:nonzero;fill:rgb(74.509804%,11.764706%,17.647059%);fill-opacity:1;" d="M 17.363281 6.378906 C 16.171875 7.449219 14.777344 10.269531 14.542969 11.445312 C 15.71875 11.183594 19.84375 11.226562 21.488281 12.21875 C 21.558594 11.679688 21.722656 10.90625 21.96875 10.078125 L 22.5625 5.429688 C 20.628906 5.210938 18.554688 5.785156 17.363281 6.378906 Z M 17.363281 6.378906 "/>
<path style=" stroke:none;fill-rule:nonzero;fill:rgb(74.509804%,11.764706%,17.647059%);fill-opacity:1;" d="M 17.425781 6.453125 C 17.917969 4.9375 18.464844 2.902344 19.082031 1.777344 C 18.976562 1.714844 18.875 1.65625 18.769531 1.601562 C 15.765625 1.574219 13.96875 2.636719 12.488281 3.269531 C 12.136719 3.960938 11.726562 6.105469 11.511719 7.660156 C 13.234375 7.070312 15.269531 6.304688 17.425781 6.449219 Z M 17.425781 6.453125 "/>
<path style=" stroke:none;fill-rule:nonzero;fill:rgb(74.509804%,11.764706%,17.647059%);fill-opacity:1;" d="M 13.542969 0.0351562 C 13.25 0.0117188 12.0625 0.00390625 11.511719 0.0664062 C 9.542969 0.671875 8.035156 2.1875 7.453125 2.964844 C 7.285156 3.730469 7.589844 5.378906 7.941406 6.230469 C 9.25 5.066406 10.113281 4.140625 12.582031 3.300781 C 12.5625 2.445312 13.054688 1.007812 13.542969 0.0351562 Z M 13.542969 0.0351562 "/>
<path style=" stroke:none;fill-rule:nonzero;fill:rgb(74.509804%,11.764706%,17.647059%);fill-opacity:1;" d="M 7.449219 2.964844 C 7.023438 2.386719 6.816406 1.695312 6.816406 1.695312 C 5.625 2.457031 4.546875 3.488281 3.695312 4.9375 C 3.695312 4.9375 3.558594 5.683594 5.101562 6.484375 C 5.597656 4.988281 6.066406 4.058594 7.453125 2.964844 Z M 7.449219 2.964844 "/>
<path style=" stroke:none;fill-rule:nonzero;fill:rgb(74.509804%,11.764706%,17.647059%);fill-opacity:1;" d="M 2.410156 8.105469 C 2.832031 8.109375 3.339844 8.09375 3.339844 8.09375 C 3.015625 7.179688 3.339844 5.582031 3.339844 5.582031 C 2.933594 6.398438 2.628906 7.238281 2.410156 8.105469 Z M 2.410156 8.105469 "/>
<path style=" stroke:none;fill-rule:nonzero;fill:rgb(74.509804%,11.764706%,17.647059%);fill-opacity:1;" d="M 3.339844 8.09375 C 3.339844 8.09375 3.378906 8.496094 3.472656 8.949219 C 3.667969 8.820312 3.871094 8.699219 4.082031 8.589844 C 3.773438 8.4375 3.480469 8.257812 3.339844 8.09375 Z M 3.339844 8.09375 "/>
<path style=" stroke:none;fill-rule:nonzero;fill:rgb(74.509804%,11.764706%,17.647059%);fill-opacity:1;" d="M 5.101562 6.484375 C 5.101562 6.484375 4.898438 7.34375 4.9375 8.214844 C 5.257812 8.097656 5.589844 8.007812 5.921875 7.945312 C 5.617188 7.523438 5.277344 6.988281 5.101562 6.484375 Z M 5.101562 6.484375 "/>
<path style=" stroke:none;fill-rule:nonzero;fill:rgb(74.509804%,11.764706%,17.647059%);fill-opacity:1;" d="M 6.90625 7.847656 C 7.257812 7.84375 7.609375 7.875 7.960938 7.9375 C 7.894531 7.414062 7.871094 6.820312 7.9375 6.230469 C 7.9375 6.230469 7.335938 6.984375 6.90625 7.847656 Z M 6.90625 7.847656 "/>
<path style=" stroke:none;fill-rule:nonzero;fill:rgb(74.509804%,11.764706%,17.647059%);fill-opacity:1;" d="M 9.671875 8.574219 C 10.070312 8.800781 10.410156 9.0625 10.707031 9.355469 C 10.90625 8.804688 11.167969 8.222656 11.511719 7.660156 C 11.511719 7.660156 10.59375 7.902344 9.671875 8.574219 Z M 9.671875 8.574219 "/>
<path style=" stroke:none;fill-rule:nonzero;fill:rgb(74.509804%,11.764706%,17.647059%);fill-opacity:1;" d="M 12.25 13.578125 C 13.160156 12.40625 14.542969 11.445312 14.542969 11.445312 C 13.710938 11.25 12.578125 11.304688 11.8125 11.480469 C 12.0625 12.113281 12.078125 12.894531 12.246094 13.578125 Z M 12.25 13.578125 "/>
<use xlink:href="#surface5" mask="url(#mask0)"/>
<use xlink:href="#surface8" mask="url(#mask1)"/>
<path style=" stroke:none;fill-rule:nonzero;fill:rgb(100%,83.137255%,0%);fill-opacity:1;" d="M 31.796875 18.703125 C 26.015625 15.414062 19.019531 15.214844 12.453125 16.136719 C 12.453125 16.136719 12.335938 13.238281 10.65625 12.429688 C 10.65625 12.429688 12.757812 11.027344 15.171875 12.816406 C 15.171875 12.816406 15.738281 12.226562 15.539062 10.257812 C 17.390625 10.601562 18.894531 12.726562 18.894531 12.726562 L 20.957031 10.160156 L 22.667969 13.15625 C 22.667969 13.15625 25.132812 11.070312 26 11.050781 C 25.953125 12.160156 26.519531 14.175781 26.519531 14.175781 C 26.519531 14.175781 28.183594 12.171875 30.453125 12.292969 C 29.585938 13.804688 29.617188 15.226562 29.617188 15.226562 C 29.617188 15.226562 31.90625 13.292969 34.3125 14.484375 C 32.136719 15.835938 31.796875 18.707031 31.796875 18.707031 Z M 31.796875 18.703125 "/>
<path style=" stroke:none;fill-rule:nonzero;fill:rgb(97.647059%,78.823529%,19.607843%);fill-opacity:1;" d="M 3.308594 10.824219 C 3.308594 11.71875 2.59375 12.445312 1.710938 12.445312 C 0.828125 12.445312 0.113281 11.71875 0.113281 10.824219 C 0.113281 9.929688 0.828125 9.203125 1.710938 9.203125 C 2.59375 9.203125 3.308594 9.929688 3.308594 10.824219 Z M 3.308594 10.824219 "/>
<path style=" stroke:none;fill-rule:nonzero;fill:rgb(94.901961%,69.019608%,16.470588%);fill-opacity:1;" d="M 3.121094 11.601562 C 3.210938 11.636719 3.351562 11.574219 3.394531 11.488281 C 3.464844 11.339844 3.386719 11.191406 3.289062 11.082031 C 2.84375 10.582031 2.089844 10.320312 1.472656 10.125 C 1.226562 10.042969 0.964844 9.972656 0.699219 9.957031 C 0.511719 9.949219 0.105469 9.9375 0.0117188 10.152344 C -0.0351562 10.269531 0.0546875 10.417969 0.140625 10.507812 C 0.492188 10.304688 1.414062 10.625 1.734375 10.75 C 2.25 10.949219 2.828125 11.179688 3.121094 11.601562 Z M 3.121094 11.601562 "/>
<use xlink:href="#surface11" mask="url(#mask2)"/>
<path style=" stroke:none;fill-rule:nonzero;fill:rgb(94.901961%,69.019608%,16.470588%);fill-opacity:1;" d="M 2.277344 11.394531 C 2.101562 11.289062 1.882812 11.332031 1.792969 11.488281 C 1.738281 11.585938 1.746094 11.703125 1.800781 11.804688 C 1.796875 11.808594 1.792969 11.808594 1.789062 11.8125 C 1.691406 11.882812 1.605469 11.960938 1.496094 12.015625 C 1.28125 12.132812 1.0625 12.171875 0.820312 12.171875 C 0.914062 12.242188 1.105469 12.335938 1.230469 12.371094 C 1.320312 12.386719 1.410156 12.359375 1.5 12.328125 C 1.699219 12.257812 1.902344 12.160156 2.046875 12.003906 C 2.203125 12.050781 2.367188 12 2.441406 11.871094 C 2.53125 11.710938 2.460938 11.5 2.28125 11.394531 Z M 2.277344 11.394531 "/>
<use xlink:href="#surface14" mask="url(#mask3)"/>
<path style=" stroke:none;fill-rule:nonzero;fill:rgb(97.647059%,78.823529%,19.607843%);fill-opacity:1;" d="M 46.886719 11.824219 C 46.886719 12.71875 46.171875 13.445312 45.289062 13.445312 C 44.40625 13.445312 43.691406 12.71875 43.691406 11.824219 C 43.691406 10.925781 44.40625 10.199219 45.289062 10.199219 C 46.171875 10.199219 46.886719 10.925781 46.886719 11.824219 Z M 46.886719 11.824219 "/>
<path style=" stroke:none;fill-rule:nonzero;fill:rgb(94.901961%,69.019608%,16.470588%);fill-opacity:1;" d="M 43.878906 12.601562 C 43.789062 12.632812 43.648438 12.570312 43.605469 12.484375 C 43.535156 12.339844 43.613281 12.1875 43.710938 12.082031 C 44.15625 11.582031 44.910156 11.316406 45.527344 11.121094 C 45.773438 11.042969 46.035156 10.972656 46.300781 10.957031 C 46.488281 10.945312 46.894531 10.9375 46.988281 11.152344 C 47.035156 11.265625 46.945312 11.417969 46.859375 11.507812 C 46.507812 11.300781 45.585938 11.625 45.265625 11.746094 C 44.75 11.945312 44.171875 12.179688 43.878906 12.601562 Z M 43.878906 12.601562 "/>
<use xlink:href="#surface17" mask="url(#mask4)"/>
<path style=" stroke:none;fill-rule:nonzero;fill:rgb(94.901961%,69.019608%,16.470588%);fill-opacity:1;" d="M 45.503906 13.015625 C 45.394531 12.957031 45.3125 12.878906 45.210938 12.808594 C 45.207031 12.804688 45.203125 12.804688 45.199219 12.804688 C 45.257812 12.703125 45.261719 12.585938 45.207031 12.488281 C 45.117188 12.328125 44.898438 12.285156 44.722656 12.390625 C 44.542969 12.496094 44.46875 12.707031 44.558594 12.867188 C 44.632812 13 44.800781 13.046875 44.957031 13 C 45.097656 13.15625 45.304688 13.253906 45.503906 13.324219 C 45.589844 13.359375 45.679688 13.382812 45.773438 13.367188 C 45.894531 13.332031 46.085938 13.238281 46.183594 13.167969 C 45.941406 13.167969 45.722656 13.128906 45.503906 13.011719 Z M 45.503906 13.015625 "/>
<use xlink:href="#surface20" mask="url(#mask5)"/>
</g>
</svg>
