<?xml version="1.0" encoding="UTF-8"?>
<svg xmlns="http://www.w3.org/2000/svg" xmlns:xlink="http://www.w3.org/1999/xlink" width="48px" height="px" viewBox="0 0 48 39" version="1.1">
<defs>
<filter id="alpha" filterUnits="objectBoundingBox" x="0%" y="0%" width="100%" height="100%">
  <feColorMatrix type="matrix" in="SourceGraphic" values="0 0 0 0 1 0 0 0 0 1 0 0 0 0 1 0 0 0 1 0"/>
</filter>
<mask id="mask0">
  <g filter="url(#alpha)">
<rect x="0" y="0" width="48" height="39" style="fill:rgb(0%,0%,0%);fill-opacity:0.180392;stroke:none;"/>
  </g>
</mask>
<clipPath id="clip1">
  <rect x="0" y="0" width="48" height="39"/>
</clipPath>
<g id="surface5" clip-path="url(#clip1)">
<path style=" stroke:none;fill-rule:nonzero;fill:rgb(0%,0%,0%);fill-opacity:1;" d="M 33.917969 17.570312 C 34.78125 17.414062 35.660156 17.3125 36.542969 17.277344 C 37.089844 17.257812 37.765625 17.332031 37.984375 17.839844 C 38.148438 18.21875 37.953125 18.675781 37.636719 18.941406 C 37.316406 19.207031 36.90625 19.316406 36.507812 19.421875 C 34.339844 19.996094 31.433594 19.992188 29.5625 21.34375 C 26.578125 23.5 33.339844 27.875 34.898438 29.3125 C 36.144531 30.453125 35.300781 31.117188 33.917969 30.601562 C 30.703125 29.40625 27.9375 26.238281 25.859375 23.585938 C 24.117188 21.363281 27.449219 19.878906 29.269531 19.042969 C 30.746094 18.363281 32.3125 17.863281 33.914062 17.574219 Z M 33.917969 17.570312 "/>
</g>
<mask id="mask1">
  <g filter="url(#alpha)">
<rect x="0" y="0" width="48" height="39" style="fill:rgb(0%,0%,0%);fill-opacity:0.180392;stroke:none;"/>
  </g>
</mask>
<clipPath id="clip2">
  <rect x="0" y="0" width="48" height="39"/>
</clipPath>
<g id="surface8" clip-path="url(#clip2)">
<path style=" stroke:none;fill-rule:nonzero;fill:rgb(0%,0%,0%);fill-opacity:1;" d="M 16.398438 11.90625 C 15.800781 11.257812 15.15625 10.652344 14.476562 10.089844 C 14.050781 9.742188 13.464844 9.394531 12.984375 9.667969 C 12.628906 9.871094 12.511719 10.355469 12.609375 10.757812 C 12.707031 11.160156 12.96875 11.496094 13.222656 11.820312 C 14.617188 13.585938 16.941406 15.335938 17.636719 17.550781 C 18.738281 21.074219 10.71875 20.496094 8.617188 20.703125 C 6.9375 20.863281 7.21875 21.90625 8.632812 22.332031 C 11.917969 23.3125 16.019531 22.449219 19.261719 21.578125 C 21.980469 20.847656 20.203125 17.65625 19.246094 15.890625 C 18.464844 14.453125 17.511719 13.109375 16.402344 11.90625 Z M 16.398438 11.90625 "/>
</g>
</defs>
<g id="surface1">
<path style=" stroke:none;fill-rule:nonzero;fill:rgb(7.843137%,81.960784%,87.45098%);fill-opacity:1;" d="M 23.324219 26.894531 C 23.375 27.019531 23.433594 27.144531 23.496094 27.269531 C 25.117188 30.539062 27.300781 34.363281 30.089844 36.988281 C 31.167969 38 32.570312 38.785156 34.089844 38.960938 C 36.101562 39.195312 38.054688 38.332031 39.433594 37.082031 C 44.050781 32.914062 46.792969 24.566406 47.730469 18.800781 C 48.125 16.367188 48.167969 13.449219 46.003906 11.800781 C 44.15625 10.394531 41.480469 10.535156 39.199219 10.992188 C 36.660156 11.507812 34.203125 12.304688 31.914062 13.375 C 30.648438 13.964844 27.175781 15.054688 26.515625 16.207031 C 24.699219 19.386719 21.796875 23.1875 23.328125 26.894531 Z M 23.324219 26.894531 "/>
<use xlink:href="#surface5" mask="url(#mask0)"/>
<path style=" stroke:none;fill-rule:nonzero;fill:rgb(7.843137%,81.960784%,87.45098%);fill-opacity:1;" d="M 19.316406 25.757812 C 19.199219 25.828125 19.078125 25.890625 18.953125 25.953125 C 15.707031 27.589844 11.679688 29.332031 7.878906 29.753906 C 6.414062 29.917969 4.824219 29.695312 3.507812 28.921875 C 1.757812 27.894531 0.710938 26.023438 0.347656 24.191406 C -0.859375 18.074219 1.929688 9.738281 4.617188 4.5625 C 5.75 2.375 7.457031 0.015625 10.175781 0 C 12.488281 -0.0117188 14.546875 1.71875 16.097656 3.457031 C 17.828125 5.402344 19.3125 7.523438 20.511719 9.757812 C 21.167969 10.992188 23.300781 13.964844 23.136719 15.28125 C 22.695312 18.921875 22.75 23.71875 19.316406 25.761719 Z M 19.316406 25.757812 "/>
<use xlink:href="#surface8" mask="url(#mask1)"/>
<path style=" stroke:none;fill-rule:nonzero;fill:rgb(7.843137%,81.960784%,87.45098%);fill-opacity:1;" d="M 17.519531 23.128906 C 17.09375 24.800781 17.175781 26.351562 18.964844 26.976562 C 20.40625 27.480469 22.292969 28.84375 23.847656 28.171875 C 26.035156 27.226562 26.8125 23.972656 27.40625 21.917969 C 27.964844 19.992188 30.085938 17.566406 28.597656 15.679688 C 27.738281 14.589844 26.34375 14.113281 25.023438 13.691406 C 23.945312 13.34375 22.703125 13.015625 21.746094 13.621094 C 21.132812 14.007812 20.789062 14.699219 20.476562 15.359375 C 19.253906 17.914062 18.214844 20.386719 17.519531 23.132812 Z M 17.519531 23.128906 "/>
</g>
</svg>
