<?xml version="1.0" encoding="UTF-8"?>
<svg xmlns="http://www.w3.org/2000/svg" xmlns:xlink="http://www.w3.org/1999/xlink" width="48px" height="px" viewBox="0 0 48 30" version="1.1">
<g id="surface1">
<path style=" stroke:none;fill-rule:nonzero;fill:rgb(88.627451%,10.196078%,1.960784%);fill-opacity:1;" d="M 5.074219 11.601562 C 4.6875 11.921875 4.300781 12.234375 3.910156 12.554688 C 3.765625 12.671875 3.613281 12.792969 3.433594 12.851562 C 3.050781 12.972656 2.640625 12.628906 2.382812 12.382812 C 0.847656 10.917969 -0.0976562 7.636719 0.0351562 5.578125 C 0.160156 3.609375 0.789062 1.671875 1.839844 0 C 2.917969 2.90625 3.765625 4.761719 6.066406 6.8125 C 6.976562 7.625 7.996094 8.449219 8.464844 8.828125 C 8.628906 8.960938 8.464844 8.828125 8.222656 9.03125 C 7.171875 9.886719 6.125 10.746094 5.074219 11.601562 Z M 5.074219 11.601562 "/>
<path style=" stroke:none;fill-rule:nonzero;fill:rgb(0%,0%,0%);fill-opacity:1;" d="M 37.886719 14.667969 C 41.742188 18.539062 44.285156 24.171875 46.328125 29.457031 C 46.703125 30.429688 48.175781 29.992188 47.953125 28.972656 C 47.953125 28.960938 47.949219 28.953125 47.949219 28.941406 C 47.164062 25.421875 45.675781 21.832031 44 18.628906 C 40.492188 11.90625 33.863281 7.15625 26.519531 5.550781 C 19.707031 4.058594 12.75 4.722656 7.0625 8.882812 C 4.796875 10.539062 2.046875 13.40625 1.339844 16.199219 C 1.308594 16.3125 1.453125 16.382812 1.527344 16.300781 C 5.046875 12.308594 10.371094 6.824219 19.167969 6.824219 C 22.355469 6.824219 25.566406 7.527344 27.558594 8.144531 C 31.863281 9.476562 34.699219 11.46875 37.886719 14.667969 Z M 37.886719 14.667969 "/>
<path style=" stroke:none;fill-rule:nonzero;fill:rgb(88.627451%,10.196078%,1.960784%);fill-opacity:1;" d="M 38.847656 14.472656 C 40.039062 15.054688 41.578125 15.113281 42.609375 14.28125 C 44.257812 12.945312 45.460938 9.75 45.496094 7.6875 C 45.53125 5.714844 45.0625 3.730469 44.144531 1.984375 C 42.835938 4.792969 41.027344 6.667969 38.777344 8.78125 C 38.375 9.160156 37.898438 9.570312 37.398438 9.910156 C 36.761719 10.339844 36.484375 11.144531 36.761719 11.859375 C 37.210938 13.027344 37.929688 14.027344 38.847656 14.472656 Z M 38.847656 14.472656 "/>
</g>
</svg>
