<?xml version="1.0" encoding="UTF-8"?>
<svg xmlns="http://www.w3.org/2000/svg" xmlns:xlink="http://www.w3.org/1999/xlink" width="48px" height="px" viewBox="0 0 47 36" version="1.1">
<defs>
<filter id="alpha" filterUnits="objectBoundingBox" x="0%" y="0%" width="100%" height="100%">
  <feColorMatrix type="matrix" in="SourceGraphic" values="0 0 0 0 1 0 0 0 0 1 0 0 0 0 1 0 0 0 1 0"/>
</filter>
<mask id="mask0">
  <g filter="url(#alpha)">
<rect x="0" y="0" width="47" height="36" style="fill:rgb(0%,0%,0%);fill-opacity:0.25098;stroke:none;"/>
  </g>
</mask>
<clipPath id="clip1">
  <rect x="0" y="0" width="47" height="36"/>
</clipPath>
<g id="surface5" clip-path="url(#clip1)">
<path style=" stroke:none;fill-rule:nonzero;fill:rgb(0%,0%,0%);fill-opacity:1;" d="M 7.242188 34.769531 C 6.511719 35.042969 3.886719 33.585938 3.238281 33.15625 C 1.601562 32.078125 -0.722656 30.019531 0.578125 28.382812 C 1.21875 27.582031 2.714844 26.316406 3.65625 25.921875 C 12.503906 22.21875 25.167969 22.925781 35.785156 25.332031 C 39.445312 26.160156 42.011719 27.257812 44.996094 29.570312 C 45.566406 30.011719 46.121094 30.515625 46.433594 31.175781 C 47.933594 34.363281 43.75 35.65625 41.722656 35.863281 C 40.9375 35.945312 40.113281 36.09375 39.414062 35.617188 C 38.679688 35.113281 38.648438 34.21875 38.105469 33.617188 C 36.863281 32.246094 33.679688 31.710938 31.960938 31.242188 C 27.453125 30.003906 22.742188 29.515625 18.082031 29.820312 C 16.046875 29.957031 14 30.242188 12.085938 30.96875 C 11.113281 31.335938 10.175781 31.824219 9.328125 32.441406 C 8.859375 32.78125 8.386719 33.15625 8 33.59375 C 7.832031 33.785156 7.445312 34.664062 7.296875 34.746094 C 7.277344 34.757812 7.257812 34.765625 7.238281 34.773438 Z M 7.242188 34.769531 "/>
</g>
</defs>
<g id="surface1">
<path style=" stroke:none;fill-rule:nonzero;fill:rgb(27.843137%,27.843137%,27.843137%);fill-opacity:1;" d="M 37.8125 31.523438 C 29.585938 27.152344 17.28125 25.339844 8.859375 29.941406 C 9.433594 29.625 9.453125 24.757812 9.527344 23.984375 C 9.726562 21.832031 9.894531 19.675781 10.042969 17.519531 C 10.328125 13.355469 10.164062 9.199219 10.714844 5.046875 C 10.839844 4.082031 11.011719 3.074219 11.617188 2.320312 C 12.28125 1.492188 13.347656 1.125 14.367188 0.855469 C 17.980469 -0.0976562 21.757812 -0.121094 25.449219 0.339844 C 30.085938 0.914062 34.410156 1.550781 38.496094 4.035156 C 39.292969 4.523438 40.085938 5.074219 40.613281 5.855469 C 41.792969 7.617188 41.191406 9.570312 40.839844 11.472656 C 40.515625 13.246094 40.105469 14.984375 39.722656 16.769531 C 39.3125 18.671875 38.847656 20.574219 38.503906 22.492188 C 38.160156 24.410156 37.921875 26.355469 37.753906 28.289062 C 37.679688 29.140625 37.335938 30.726562 37.8125 31.519531 Z M 37.8125 31.523438 "/>
<path style=" stroke:none;fill-rule:nonzero;fill:rgb(74.509804%,11.764706%,17.647059%);fill-opacity:1;" d="M 37.8125 31.523438 C 29.585938 27.152344 17.28125 25.339844 8.859375 29.941406 C 9.433594 29.625 9.453125 24.757812 9.527344 23.984375 C 9.605469 23.128906 9.671875 22.273438 9.746094 21.414062 C 9.792969 20.851562 9.683594 19.683594 10.011719 19.210938 C 10.339844 18.738281 11.613281 18.550781 12.140625 18.425781 C 13.648438 18.0625 15.269531 17.957031 16.8125 17.820312 C 18.429688 17.675781 20.058594 17.621094 21.683594 17.652344 C 24.824219 17.714844 27.960938 18.105469 31.023438 18.820312 C 32.625 19.195312 34.210938 19.660156 35.765625 20.210938 C 36.515625 20.480469 38.425781 21.21875 38.675781 21.574219 C 38.675781 21.574219 38.511719 22.425781 38.441406 22.84375 C 38.351562 23.378906 38.265625 23.925781 38.1875 24.464844 C 38.007812 25.734375 37.867188 27.011719 37.753906 28.289062 C 37.679688 29.140625 37.335938 30.726562 37.8125 31.519531 Z M 37.8125 31.523438 "/>
<path style=" stroke:none;fill-rule:nonzero;fill:rgb(27.843137%,27.843137%,27.843137%);fill-opacity:1;" d="M 7.308594 34.925781 C 7.25 35.078125 3.472656 33.3125 3.238281 33.15625 C 0.554688 31.386719 -1.335938 29.429688 1.183594 26.125 C 4.09375 22.3125 16.773438 21.792969 20.183594 21.792969 C 25.917969 21.785156 31.761719 22.644531 37.363281 23.898438 C 40.789062 24.664062 46.75 27.847656 46.96875 30.414062 C 47.304688 34.296875 44.726562 35.558594 41.722656 35.863281 C 40.679688 35.96875 39.851562 36.128906 39.144531 35.371094 C 38.625 34.8125 38.257812 33.957031 37.878906 33.300781 C 35.914062 29.882812 31.1875 29.234375 27.695312 28.792969 C 24.207031 28.351562 20.671875 28.035156 17.160156 28.34375 C 14.605469 28.570312 10.265625 28.882812 8.796875 31.441406 C 8.074219 32.695312 7.71875 33.726562 7.308594 34.925781 Z M 7.308594 34.925781 "/>
<use xlink:href="#surface5" mask="url(#mask0)"/>
</g>
</svg>
