<?xml version="1.0" encoding="UTF-8"?>
<svg xmlns="http://www.w3.org/2000/svg" xmlns:xlink="http://www.w3.org/1999/xlink" width="48px" height="px" viewBox="0 0 48 50" version="1.1">
<defs>
<filter id="alpha" filterUnits="objectBoundingBox" x="0%" y="0%" width="100%" height="100%">
  <feColorMatrix type="matrix" in="SourceGraphic" values="0 0 0 0 1 0 0 0 0 1 0 0 0 0 1 0 0 0 1 0"/>
</filter>
<mask id="mask0">
  <g filter="url(#alpha)">
<rect x="0" y="0" width="48" height="50" style="fill:rgb(0%,0%,0%);fill-opacity:0.180392;stroke:none;"/>
  </g>
</mask>
<clipPath id="clip1">
  <rect x="0" y="0" width="48" height="50"/>
</clipPath>
<g id="surface5" clip-path="url(#clip1)">
<path style=" stroke:none;fill-rule:nonzero;fill:rgb(0%,0%,0%);fill-opacity:1;" d="M 15.644531 25.054688 C 15.777344 25.074219 15.90625 25.09375 16.039062 25.109375 C 16.035156 24.789062 16.386719 23.378906 15.972656 23.234375 C 14.152344 22.601562 9.808594 21.351562 8.453125 20.382812 C 7.09375 19.414062 6.011719 17.277344 6.386719 15.65625 C 6.429688 15.460938 6.707031 14.957031 6.386719 15.027344 C 6.101562 15.09375 5.757812 15.605469 5.597656 15.828125 C 5.136719 16.457031 4.84375 17.210938 4.785156 17.988281 C 4.730469 18.703125 4.871094 19.429688 5.175781 20.082031 C 5.449219 20.667969 5.875 21.320312 6.367188 21.738281 C 7.5625 22.75 9.003906 23.414062 10.4375 24.015625 C 11.246094 24.351562 12.109375 24.6875 13 24.65625 C 13.199219 24.652344 13.390625 24.597656 13.585938 24.632812 C 13.800781 24.667969 14.019531 24.75 14.238281 24.796875 C 14.703125 24.902344 15.171875 24.988281 15.644531 25.058594 Z M 15.644531 25.054688 "/>
</g>
<mask id="mask1">
  <g filter="url(#alpha)">
<rect x="0" y="0" width="48" height="50" style="fill:rgb(0%,0%,0%);fill-opacity:0.180392;stroke:none;"/>
  </g>
</mask>
<clipPath id="clip2">
  <rect x="0" y="0" width="48" height="50"/>
</clipPath>
<g id="surface8" clip-path="url(#clip2)">
<path style=" stroke:none;fill-rule:nonzero;fill:rgb(0%,0%,0%);fill-opacity:1;" d="M 4.085938 33.789062 C 3.9375 34.125 3.761719 34.457031 3.644531 34.800781 C 4.144531 34.808594 4.878906 34.363281 5.375 34.214844 C 6.105469 34 6.84375 33.804688 7.585938 33.640625 C 8.929688 33.335938 10.289062 33.136719 11.65625 32.980469 C 12.1875 32.921875 12.769531 32.871094 12.917969 33.433594 C 13.066406 34 12.589844 34.65625 12.675781 35.226562 C 12.859375 36.394531 13.128906 37.554688 13.488281 38.683594 C 13.617188 39.089844 13.792969 39.535156 14.175781 39.722656 C 15.183594 40.21875 16.121094 38.664062 16.683594 38.078125 C 17.246094 37.5 17.800781 36.914062 18.359375 36.332031 C 18.824219 35.847656 19.488281 35.152344 19.378906 34.449219 C 19.269531 33.742188 19.007812 33.320312 18.675781 32.769531 C 19.394531 32.714844 22.394531 33.199219 23.15625 33.304688 C 24.414062 33.476562 25.652344 33.742188 26.898438 33.972656 C 27.859375 34.152344 28.96875 34.488281 29.511719 35.367188 C 29.929688 36.035156 29.921875 36.875 29.921875 37.664062 C 29.917969 39.839844 30.707031 46.359375 30.933594 47.441406 C 31.074219 48.101562 31.214844 49.460938 31.851562 49.859375 C 32.554688 50.300781 33.3125 49.53125 33.839844 49.144531 C 34.566406 48.605469 35.277344 48.054688 35.953125 47.457031 C 36.988281 46.539062 38 45.554688 38.765625 44.394531 C 39.148438 43.816406 39.46875 43.1875 39.65625 42.515625 C 39.746094 42.1875 39.804688 41.847656 39.824219 41.507812 C 39.847656 41.117188 39.546875 40.984375 39.257812 40.769531 C 39.171875 40.703125 39.089844 40.636719 39.015625 40.558594 C 38.769531 40.304688 38.753906 40.03125 38.601562 39.722656 C 38.183594 38.882812 37.46875 38.085938 36.894531 37.34375 C 35.71875 35.828125 34.40625 34.402344 32.851562 33.269531 C 30.460938 31.527344 27.589844 30.53125 24.675781 30.003906 C 21.765625 29.472656 18.792969 29.382812 15.835938 29.292969 C 13.648438 29.226562 11.421875 29.164062 9.3125 29.746094 C 7.203125 30.328125 4.976562 31.800781 4.085938 33.792969 Z M 4.085938 33.789062 "/>
</g>
<mask id="mask2">
  <g filter="url(#alpha)">
<rect x="0" y="0" width="48" height="50" style="fill:rgb(0%,0%,0%);fill-opacity:0.180392;stroke:none;"/>
  </g>
</mask>
<clipPath id="clip3">
  <rect x="0" y="0" width="48" height="50"/>
</clipPath>
<g id="surface11" clip-path="url(#clip3)">
<path style=" stroke:none;fill-rule:nonzero;fill:rgb(0%,0%,0%);fill-opacity:1;" d="M 30.625 36.117188 C 30.554688 35.441406 30.546875 35.023438 30.050781 34.394531 C 29.695312 33.941406 28.933594 33.484375 28.371094 33.367188 C 25.296875 32.726562 22.578125 32.101562 17.101562 31.808594 C 17.660156 32.695312 18.398438 34.140625 18.355469 34.484375 C 18.289062 35.023438 15.882812 37.71875 15.261719 38.308594 C 15.027344 38.527344 14.316406 39.222656 13.832031 39.390625 C 14.0625 39.734375 14.554688 39.78125 14.84375 39.488281 C 16.339844 37.996094 17.398438 36.765625 18.796875 35.015625 C 18.988281 34.773438 19.023438 34.472656 18.882812 34.195312 C 18.46875 33.394531 18.28125 32.757812 17.925781 32.28125 C 21.003906 32.417969 24.542969 32.878906 28.527344 33.855469 C 29.378906 34.066406 30 34.800781 30.058594 35.671875 C 30.277344 38.800781 30.847656 46.128906 31.558594 48.710938 C 31.660156 49.085938 32.09375 49.265625 32.433594 49.074219 C 32.65625 48.949219 32.921875 48.769531 33.136719 48.644531 C 32.988281 48.730469 32.785156 48.777344 32.589844 48.773438 C 32.394531 48.769531 32.234375 48.636719 32.191406 48.449219 C 31.292969 44.710938 30.6875 36.726562 30.625 36.117188 Z M 30.625 36.117188 "/>
</g>
<mask id="mask3">
  <g filter="url(#alpha)">
<rect x="0" y="0" width="48" height="50" style="fill:rgb(0%,0%,0%);fill-opacity:0.180392;stroke:none;"/>
  </g>
</mask>
<clipPath id="clip4">
  <rect x="0" y="0" width="48" height="50"/>
</clipPath>
<g id="surface14" clip-path="url(#clip4)">
<path style=" stroke:none;fill-rule:nonzero;fill:rgb(0%,0%,0%);fill-opacity:1;" d="M 14.253906 26.640625 C 14.65625 25.550781 14.941406 24.4375 15.410156 23.371094 C 15.878906 22.304688 16.460938 21.230469 17.125 20.242188 C 16.78125 20.484375 16.527344 20.828125 16.289062 21.171875 C 15.417969 22.414062 14.777344 23.886719 13.773438 25.066406 C 12.792969 26.21875 11.425781 26.859375 9.980469 27.214844 C 9.273438 27.390625 8.558594 27.496094 7.84375 27.605469 C 7.589844 27.644531 5.988281 27.871094 5.945312 27.976562 C 5.894531 28.097656 5.851562 28.375 5.738281 28.542969 C 6.773438 28.328125 7.816406 28.101562 8.863281 27.945312 C 10.363281 27.71875 11.855469 27.625 13.367188 27.519531 C 13.578125 27.507812 13.796875 27.449219 13.941406 27.296875 C 14.027344 27.203125 14.078125 27.082031 14.125 26.964844 C 14.171875 26.855469 14.214844 26.746094 14.253906 26.640625 Z M 14.253906 26.640625 "/>
</g>
<mask id="mask4">
  <g filter="url(#alpha)">
<rect x="0" y="0" width="48" height="50" style="fill:rgb(0%,0%,0%);fill-opacity:0.180392;stroke:none;"/>
  </g>
</mask>
<clipPath id="clip5">
  <rect x="0" y="0" width="48" height="50"/>
</clipPath>
<g id="surface17" clip-path="url(#clip5)">
<path style=" stroke:none;fill-rule:nonzero;fill:rgb(0%,0%,0%);fill-opacity:1;" d="M 38.347656 35.675781 C 37.523438 37.519531 35.859375 40.574219 35.15625 40.945312 C 34.71875 38.851562 34.273438 36.53125 34.046875 34.402344 C 33.792969 32.015625 33.980469 31.160156 32.480469 29.988281 C 32.121094 29.703125 31.558594 29.574219 31.132812 29.425781 C 30.160156 29.089844 29.171875 28.800781 28.175781 28.539062 C 26.46875 28.089844 24.742188 27.707031 22.996094 27.429688 C 22.125 27.292969 21.246094 27.179688 20.367188 27.101562 C 20.15625 27.082031 19.945312 27.066406 19.734375 27.050781 C 19.59375 27.042969 19.175781 27.089844 19.066406 27.011719 C 18.898438 26.886719 19.117188 26.152344 19.160156 25.9375 C 19.417969 24.503906 19.84375 23.082031 20.613281 21.835938 C 21.574219 20.28125 23.148438 19.019531 24.972656 18.792969 C 24.902344 18.609375 24.65625 18.582031 24.460938 18.601562 C 23.3125 18.695312 22.234375 19.269531 21.402344 20.066406 C 20.574219 20.867188 19.980469 21.882812 19.542969 22.945312 C 19.03125 24.199219 18.542969 25.664062 18.414062 27.019531 C 18.40625 27.128906 18.402344 27.25 18.46875 27.339844 C 18.664062 27.59375 19.296875 27.550781 19.574219 27.578125 C 20.0625 27.625 20.554688 27.679688 21.039062 27.742188 C 22.023438 27.867188 23.003906 28.027344 23.976562 28.210938 C 25.925781 28.578125 27.851562 29.050781 29.761719 29.574219 C 30.097656 29.667969 30.4375 29.761719 30.773438 29.859375 C 31.277344 30 31.792969 30.175781 32.230469 30.453125 C 32.609375 30.691406 32.925781 31.003906 33.128906 31.441406 C 33.621094 32.496094 33.546875 33.703125 33.730469 34.828125 C 33.957031 36.199219 34.539062 40.734375 34.871094 41.988281 C 36.660156 40.542969 37.851562 38.410156 38.433594 36.28125 C 38.433594 36.28125 38.421875 35.957031 38.351562 35.679688 Z M 38.347656 35.675781 "/>
</g>
<mask id="mask5">
  <g filter="url(#alpha)">
<rect x="0" y="0" width="48" height="50" style="fill:rgb(0%,0%,0%);fill-opacity:0.180392;stroke:none;"/>
  </g>
</mask>
<clipPath id="clip6">
  <rect x="0" y="0" width="48" height="50"/>
</clipPath>
<g id="surface20" clip-path="url(#clip6)">
<path style=" stroke:none;fill-rule:nonzero;fill:rgb(0%,0%,0%);fill-opacity:1;" d="M 33.878906 28.679688 C 34.152344 29.050781 34.359375 29.269531 34.703125 29.546875 C 35.042969 29.824219 35.488281 30.003906 35.925781 29.9375 C 36.359375 29.871094 36.6875 29.574219 36.804688 29.234375 C 36.910156 28.921875 36.613281 28.339844 36.378906 28.109375 C 36.140625 27.875 35.890625 27.964844 35.601562 27.796875 C 34.28125 27.039062 33.070312 26.09375 32.011719 25.003906 C 32.535156 26.265625 33.058594 27.582031 33.878906 28.679688 Z M 33.878906 28.679688 "/>
</g>
<mask id="mask6">
  <g filter="url(#alpha)">
<rect x="0" y="0" width="48" height="50" style="fill:rgb(0%,0%,0%);fill-opacity:0.180392;stroke:none;"/>
  </g>
</mask>
<clipPath id="clip7">
  <rect x="0" y="0" width="48" height="50"/>
</clipPath>
<g id="surface23" clip-path="url(#clip7)">
<path style=" stroke:none;fill-rule:nonzero;fill:rgb(0%,0%,0%);fill-opacity:1;" d="M 3.601562 34.945312 C 3.46875 34.953125 3.207031 34.792969 3.171875 34.644531 C 3.171875 34.644531 3.277344 34.433594 3.371094 34.316406 C 3.960938 33.566406 4.753906 33.398438 5.597656 33.148438 C 8.054688 32.414062 10.734375 31.996094 13.296875 31.808594 C 13.132812 31.964844 12.882812 32.316406 12.882812 32.316406 C 12.882812 32.316406 7.925781 32.648438 4.097656 34.222656 Z M 3.601562 34.945312 "/>
</g>
<mask id="mask7">
  <g filter="url(#alpha)">
<rect x="0" y="0" width="48" height="50" style="fill:rgb(0%,0%,0%);fill-opacity:0.34902;stroke:none;"/>
  </g>
</mask>
<clipPath id="clip8">
  <rect x="0" y="0" width="48" height="50"/>
</clipPath>
<g id="surface26" clip-path="url(#clip8)">
<path style=" stroke:none;fill-rule:nonzero;fill:rgb(0%,0%,0%);fill-opacity:1;" d="M 35.402344 24.949219 C 36.445312 26.695312 36.894531 28.351562 36.402344 28.644531 C 35.90625 28.9375 34.660156 27.757812 33.617188 26.011719 C 32.574219 24.265625 32.097656 22.550781 32.621094 22.316406 C 33.117188 22.09375 34.359375 23.203125 35.402344 24.949219 Z M 35.402344 24.949219 "/>
</g>
<mask id="mask8">
  <g filter="url(#alpha)">
<rect x="0" y="0" width="48" height="50" style="fill:rgb(0%,0%,0%);fill-opacity:0.180392;stroke:none;"/>
  </g>
</mask>
<clipPath id="clip9">
  <rect x="0" y="0" width="48" height="50"/>
</clipPath>
<g id="surface29" clip-path="url(#clip9)">
<path style=" stroke:none;fill-rule:nonzero;fill:rgb(0%,0%,0%);fill-opacity:1;" d="M 40.691406 16.910156 C 41.386719 15.503906 41.261719 14.328125 41.234375 14.09375 C 41.175781 13.539062 41 12.992188 40.699219 12.527344 C 40.078125 11.5625 39.125 10.871094 38.339844 10.050781 C 37.449219 9.125 36.777344 8 36.34375 6.792969 C 35.945312 5.683594 35.738281 4.210938 35.785156 3.058594 C 36.167969 4.410156 36.621094 5.8125 37.378906 7.007812 C 37.949219 7.90625 38.707031 8.671875 39.484375 9.398438 C 40.371094 10.230469 41.515625 11.003906 42.015625 12.171875 C 42.449219 13.191406 42.234375 15.597656 40.691406 16.910156 Z M 40.691406 16.910156 "/>
</g>
<mask id="mask9">
  <g filter="url(#alpha)">
<rect x="0" y="0" width="48" height="50" style="fill:rgb(0%,0%,0%);fill-opacity:0.180392;stroke:none;"/>
  </g>
</mask>
<clipPath id="clip10">
  <rect x="0" y="0" width="48" height="50"/>
</clipPath>
<g id="surface32" clip-path="url(#clip10)">
<path style=" stroke:none;fill-rule:nonzero;fill:rgb(0%,0%,0%);fill-opacity:1;" d="M 34.117188 26.414062 C 36.722656 25.574219 39.183594 24.375 41.546875 22.972656 C 45.402344 20.6875 46.609375 18.628906 47.117188 18 C 47.351562 17.710938 47.554688 17.390625 47.746094 17.070312 C 47.808594 16.96875 47.992188 16.75 47.996094 16.628906 C 47.972656 17.542969 47.789062 18.449219 47.484375 19.308594 C 46.851562 21.097656 45.699219 22.710938 44.238281 23.925781 C 42.003906 25.789062 37.007812 28.660156 36.417969 28.582031 C 35.707031 28.488281 34.945312 27.730469 34.117188 26.414062 Z M 34.117188 26.414062 "/>
</g>
</defs>
<g id="surface1">
<path style=" stroke:none;fill-rule:nonzero;fill:rgb(61.960784%,58.823529%,50.980392%);fill-opacity:1;" d="M 15.351562 27.085938 C 15.75 26.117188 16.476562 24.265625 15.972656 23.234375 C 14.152344 22.601562 9.808594 21.351562 8.453125 20.382812 C 7.09375 19.414062 6.050781 17.289062 6.386719 15.65625 C 6.664062 14.296875 7.746094 13.273438 8.539062 12.128906 C 10.363281 9.503906 10.664062 5.898438 9.300781 3.011719 C 9.078125 2.539062 8.65625 2.011719 8.152344 2.144531 C 7.589844 2.292969 7.546875 3.050781 7.542969 3.628906 C 7.511719 6.339844 5.683594 8.660156 3.859375 10.667969 C 2.035156 12.671875 0.632812 14.671875 0.125 17.332031 C -0.574219 20.984375 1.730469 24.675781 4.929688 26.585938 C 7.398438 28.058594 12.722656 30.074219 13.289062 29.925781 C 14.183594 29.6875 15.058594 27.8125 15.351562 27.089844 Z M 15.351562 27.085938 "/>
<use xlink:href="#surface5" mask="url(#mask0)"/>
<use xlink:href="#surface8" mask="url(#mask1)"/>
<path style=" stroke:none;fill-rule:nonzero;fill:rgb(73.72549%,74.509804%,75.294118%);fill-opacity:1;" d="M 38.429688 36.28125 C 38.402344 36.238281 38.425781 36.09375 38.421875 36.042969 C 38.410156 35.8125 38.394531 35.582031 38.371094 35.355469 C 38.296875 34.539062 38.171875 33.730469 38.007812 32.929688 C 37.777344 31.789062 37.46875 30.667969 37.070312 29.578125 C 36.597656 28.285156 36.003906 27.039062 35.273438 25.875 C 34.464844 24.585938 33.488281 23.402344 32.347656 22.390625 C 31.070312 21.253906 29.601562 20.34375 28.015625 19.695312 C 27.277344 19.390625 26.515625 19.140625 25.742188 18.941406 C 25.542969 18.890625 25.304688 18.871094 25.113281 18.792969 C 24.898438 18.699219 24.707031 18.550781 24.480469 18.46875 C 23.964844 18.277344 23.414062 18.199219 22.871094 18.125 C 22.144531 18.023438 21.054688 18.015625 20.320312 18.039062 C 19.671875 18.054688 19.054688 18.246094 18.78125 18.363281 C 18.285156 18.582031 17.671875 18.625 17.140625 18.753906 C 16.074219 19.019531 15.039062 19.398438 14.050781 19.875 C 12.25 20.75 10.605469 21.941406 9.191406 23.355469 C 8.074219 24.46875 7.0625 25.730469 6.332031 27.132812 C 6.109375 27.566406 5.90625 28.019531 5.78125 28.492188 C 5.730469 28.667969 5.15625 28.835938 5.078125 28.996094 C 3.757812 31.738281 3.171875 34.644531 3.171875 34.644531 C 3.171875 34.644531 3.253906 34.882812 3.601562 34.949219 C 3.710938 34.824219 4.097656 34.226562 4.097656 34.226562 C 5.46875 33.664062 8.558594 32.660156 12.882812 32.316406 C 12.390625 32.914062 11.820312 33.738281 11.484375 34.265625 C 11.355469 34.464844 11.339844 34.71875 11.453125 34.929688 C 12.246094 36.421875 12.863281 37.949219 13.832031 39.394531 C 14.0625 39.738281 14.554688 39.785156 14.84375 39.492188 C 16.339844 38 17.476562 36.632812 18.796875 35.023438 C 18.992188 34.78125 19.027344 34.472656 18.878906 34.199219 C 18.507812 33.488281 18.277344 32.761719 17.925781 32.285156 C 21 32.421875 24.542969 32.882812 28.527344 33.859375 C 29.378906 34.070312 29.996094 34.804688 30.058594 35.675781 C 30.273438 38.804688 30.84375 46.132812 31.554688 48.714844 C 31.65625 49.09375 32.089844 49.269531 32.429688 49.078125 C 34.359375 47.996094 39.6875 44.007812 40.203125 40.242188 C 40.203125 40.242188 39.4375 37.941406 38.433594 36.289062 Z M 38.429688 36.28125 "/>
<use xlink:href="#surface11" mask="url(#mask2)"/>
<use xlink:href="#surface14" mask="url(#mask3)"/>
<use xlink:href="#surface17" mask="url(#mask4)"/>
<use xlink:href="#surface20" mask="url(#mask5)"/>
<use xlink:href="#surface23" mask="url(#mask6)"/>
<path style=" stroke:none;fill-rule:nonzero;fill:rgb(73.72549%,74.509804%,75.294118%);fill-opacity:1;" d="M 35.402344 24.949219 C 34.890625 24.089844 34.269531 23.171875 33.453125 22.570312 C 33.195312 22.378906 32.984375 22.265625 32.671875 22.308594 C 32.308594 22.359375 31.75 22.453125 31.597656 22.84375 C 31.496094 23.101562 31.5625 23.4375 31.613281 23.695312 C 31.8125 24.691406 32.300781 25.640625 32.816406 26.503906 C 33.34375 27.390625 33.976562 28.316406 34.800781 28.960938 C 35.011719 29.121094 35.289062 29.332031 35.570312 29.320312 C 36.019531 29.304688 36.492188 28.984375 36.628906 28.554688 C 36.78125 28.066406 36.488281 27.289062 36.324219 26.828125 C 36.09375 26.167969 35.761719 25.546875 35.402344 24.949219 Z M 35.402344 24.949219 "/>
<use xlink:href="#surface26" mask="url(#mask7)"/>
<path style=" stroke:none;fill-rule:nonzero;fill:rgb(61.960784%,58.823529%,50.980392%);fill-opacity:1;" d="M 33.902344 26.074219 C 33.355469 25.167969 32.332031 23.433594 32.671875 22.320312 C 34.394531 21.402344 38.53125 19.46875 39.734375 18.28125 C 40.9375 17.097656 41.640625 14.8125 41.050781 13.234375 C 40.554688 11.917969 39.3125 11.066406 38.339844 10.050781 C 36.101562 7.714844 35.226562 4.160156 36.132812 1.058594 C 36.277344 0.550781 36.617188 -0.0429688 37.140625 0.0117188 C 37.726562 0.0703125 37.886719 0.820312 37.984375 1.398438 C 38.445312 4.097656 40.640625 6.132812 42.78125 7.847656 C 44.921875 9.566406 46.640625 11.339844 47.570312 13.917969 C 48.847656 17.460938 47.132812 21.511719 44.238281 23.925781 C 42.003906 25.785156 37.007812 28.640625 36.417969 28.578125 C 35.484375 28.484375 34.3125 26.746094 33.902344 26.074219 Z M 33.902344 26.074219 "/>
<use xlink:href="#surface29" mask="url(#mask8)"/>
<use xlink:href="#surface32" mask="url(#mask9)"/>
</g>
</svg>
