<?xml version="1.0" encoding="UTF-8"?>
<svg xmlns="http://www.w3.org/2000/svg" xmlns:xlink="http://www.w3.org/1999/xlink" width="48px" height="px" viewBox="0 0 47 43" version="1.1">
<defs>
<filter id="alpha" filterUnits="objectBoundingBox" x="0%" y="0%" width="100%" height="100%">
  <feColorMatrix type="matrix" in="SourceGraphic" values="0 0 0 0 1 0 0 0 0 1 0 0 0 0 1 0 0 0 1 0"/>
</filter>
<mask id="mask0">
  <g filter="url(#alpha)">
<rect x="0" y="0" width="47" height="43" style="fill:rgb(0%,0%,0%);fill-opacity:0.211765;stroke:none;"/>
  </g>
</mask>
<clipPath id="clip1">
  <rect x="0" y="0" width="48" height="43"/>
</clipPath>
<g id="surface5" clip-path="url(#clip1)">
<path style=" stroke:none;fill-rule:nonzero;fill:rgb(0%,0%,0%);fill-opacity:1;" d="M 46.949219 42.964844 C 45.613281 40.390625 42.835938 38.988281 40.199219 37.84375 C 36.851562 36.394531 33.4375 35.09375 30.003906 33.867188 C 26.71875 32.691406 23.371094 31.574219 19.898438 31.273438 C 15.734375 30.914062 11.550781 31.777344 7.707031 33.378906 C 5.742188 34.195312 3.859375 35.203125 2.070312 36.359375 C 1.5625 36.683594 -0.179688 37.722656 1.386719 37.644531 C 2.527344 37.585938 3.664062 37.492188 4.804688 37.441406 C 9.359375 37.238281 13.929688 37.289062 18.480469 37.597656 C 23.054688 37.910156 27.613281 38.476562 32.125 39.296875 C 36.613281 40.113281 41.058594 41.183594 45.433594 42.5 C 45.6875 42.578125 46.832031 42.753906 46.945312 42.96875 Z M 46.949219 42.964844 "/>
</g>
<mask id="mask1">
  <g filter="url(#alpha)">
<rect x="0" y="0" width="47" height="43" style="fill:rgb(0%,0%,0%);fill-opacity:0.129412;stroke:none;"/>
  </g>
</mask>
<clipPath id="clip2">
  <rect x="0" y="0" width="48" height="43"/>
</clipPath>
<g id="surface8" clip-path="url(#clip2)">
<path style=" stroke:none;fill-rule:nonzero;fill:rgb(0%,0%,0%);fill-opacity:1;" d="M 46.074219 29.652344 C 46.007812 28.707031 45.933594 27.511719 45.855469 26.71875 C 45.804688 26.222656 45.492188 23.945312 45.40625 23.480469 C 45.09375 25.070312 44.378906 25.941406 43.445312 26.394531 C 43.625 26.144531 43.703125 25.824219 43.613281 25.53125 C 43.503906 25.1875 43.210938 24.90625 43.167969 24.550781 C 43.121094 24.171875 43.359375 23.816406 43.417969 23.441406 C 43.480469 23.023438 43.3125 22.597656 43.058594 22.269531 C 42.804688 21.9375 42.464844 21.683594 42.132812 21.429688 C 42.289062 20.910156 42.15625 20.308594 41.796875 19.90625 C 41.4375 19.5 40.859375 19.308594 40.332031 19.414062 C 40.378906 18.90625 40.191406 18.382812 39.835938 18.027344 C 39.480469 17.667969 38.964844 17.476562 38.464844 17.523438 C 38.710938 17.039062 38.644531 16.410156 38.304688 15.984375 C 38.074219 15.695312 37.582031 15.390625 37.210938 15.496094 C 37.289062 15.785156 37.691406 15.984375 37.84375 16.265625 C 38.015625 16.578125 38.085938 16.949219 38.011719 17.296875 C 37.945312 17.613281 37.785156 17.601562 37.945312 17.878906 C 38.191406 18.300781 38.878906 18.109375 39.246094 18.425781 C 39.601562 18.730469 39.507812 19.378906 39.875 19.667969 C 40.085938 19.832031 40.378906 20 40.636719 20.066406 C 41.011719 20.164062 41.335938 20.628906 41.480469 20.996094 C 41.625 21.359375 41.585938 21.796875 41.378906 22.128906 C 41.800781 22.148438 42.207031 22.386719 42.433594 22.75 C 42.660156 23.113281 42.695312 23.585938 42.527344 23.980469 C 42.417969 24.238281 42.226562 24.484375 42.261719 24.761719 C 42.304688 25.082031 42.625 25.269531 42.804688 25.53125 C 43.027344 25.859375 43 26.328125 42.769531 26.644531 C 41.414062 27.015625 39.75 26.785156 38.199219 26.652344 C 38.304688 26.566406 38.390625 26.472656 38.433594 26.410156 C 38.664062 26.070312 38.714844 25.578125 38.636719 25.183594 C 38.515625 24.574219 38.039062 24.050781 37.449219 23.878906 C 37.664062 23.539062 37.753906 23.121094 37.714844 22.714844 C 37.707031 22.617188 37.449219 21.71875 37.167969 22.03125 C 37.71875 21.414062 37.53125 20.285156 36.804688 19.890625 C 36.664062 19.8125 36.496094 19.753906 36.398438 19.617188 C 36.109375 19.210938 36.660156 18.746094 36.625 18.308594 C 36.585938 17.851562 36.277344 17.453125 35.917969 17.199219 C 35.589844 16.964844 34.96875 16.609375 34.566406 16.65625 C 34.78125 17.257812 35.496094 17.550781 35.792969 18.121094 C 36.105469 18.71875 35.753906 19.457031 35.269531 19.886719 C 35.414062 19.949219 35.554688 20.011719 35.691406 20.082031 C 35.859375 20.167969 36.023438 20.265625 36.167969 20.386719 C 36.417969 20.59375 36.683594 20.933594 36.664062 21.28125 C 36.65625 21.371094 36.253906 22.300781 36.242188 22.296875 C 36.539062 22.355469 36.863281 22.46875 36.988281 22.746094 C 37.222656 23.277344 36.523438 23.890625 36.761719 24.421875 C 36.878906 24.691406 37.1875 24.804688 37.457031 24.921875 C 37.726562 25.035156 38.019531 25.230469 38.027344 25.527344 C 38.03125 25.722656 37.910156 25.894531 37.789062 26.050781 C 37.667969 26.207031 37.546875 26.382812 37.558594 26.578125 C 37.558594 26.585938 37.558594 26.59375 37.558594 26.605469 C 36.074219 26.480469 34.417969 26.207031 32.71875 25.902344 C 32.671875 25.691406 32.542969 25.457031 32.539062 25.234375 C 32.539062 24.984375 32.714844 24.769531 32.832031 24.542969 C 33.195312 23.859375 33.015625 22.925781 32.425781 22.433594 C 32.910156 22.109375 33.195312 21.5 33.128906 20.914062 C 33.058594 20.324219 32.644531 19.796875 32.09375 19.597656 C 32.667969 19.367188 32.910156 18.632812 32.792969 18.019531 C 32.714844 17.617188 32.488281 17.015625 32.160156 16.78125 C 31.898438 17.015625 32.074219 17.855469 31.984375 18.21875 C 31.917969 18.484375 31.816406 18.738281 31.675781 18.96875 C 31.636719 19.039062 31.21875 19.511719 31.226562 19.539062 C 31.371094 20.125 32.273438 20.265625 32.394531 20.855469 C 32.507812 21.40625 31.851562 21.839844 31.808594 22.402344 C 31.777344 22.816406 32.089844 23.195312 32.101562 23.613281 C 32.105469 23.835938 32.023438 24.054688 31.941406 24.261719 C 31.757812 24.730469 31.574219 25.199219 31.390625 25.667969 C 30.082031 25.429688 28.769531 25.203125 27.511719 25.035156 C 27.75 24.777344 27.921875 24.429688 27.972656 24.160156 C 28.042969 23.78125 28 23.398438 27.90625 23.019531 C 27.835938 22.726562 27.738281 22.4375 27.636719 22.152344 C 27.710938 22.359375 28.265625 21.542969 28.300781 21.449219 C 28.488281 20.929688 28.539062 20.367188 28.363281 19.835938 C 28.320312 19.710938 28.265625 19.578125 28.304688 19.453125 C 28.410156 19.109375 28.792969 18.925781 28.9375 18.570312 C 29.117188 18.128906 29.320312 17.355469 29.238281 16.875 C 29.152344 16.371094 28.625 16.292969 28.453125 15.859375 C 28.765625 16.644531 28.71875 17.625 28.238281 18.332031 C 28.054688 18.597656 27.8125 18.835938 27.722656 19.144531 C 27.589844 19.613281 27.824219 20.050781 27.875 20.507812 C 27.929688 21.023438 27.75 21.433594 27.414062 21.828125 C 27.15625 22.136719 26.761719 22.558594 26.808594 22.996094 C 26.824219 23.160156 26.90625 23.304688 26.960938 23.460938 C 27.089844 23.792969 27.101562 24.167969 27.015625 24.515625 C 26.976562 24.671875 26.894531 24.8125 26.8125 24.945312 C 25.277344 24.753906 23.738281 24.59375 22.191406 24.464844 C 22.410156 24.214844 22.523438 23.867188 22.488281 23.539062 C 22.457031 23.261719 22.304688 22.957031 22.375 22.675781 C 22.441406 22.394531 22.671875 22.265625 22.847656 22.054688 C 23.097656 21.757812 23.289062 21.414062 23.414062 21.046875 C 23.535156 20.691406 23.355469 20.203125 23.539062 19.914062 C 23.632812 19.761719 23.800781 19.683594 23.949219 19.589844 C 24.496094 19.246094 24.839844 18.597656 24.824219 17.945312 C 24.816406 17.632812 24.742188 17.300781 24.890625 17.03125 C 24.988281 16.863281 25.15625 16.75 25.25 16.582031 C 25.386719 16.332031 25.324219 16.007812 25.164062 15.769531 C 25.003906 15.535156 24.761719 15.367188 24.53125 15.203125 C 24.714844 15.6875 24.570312 16.28125 24.183594 16.621094 C 24.347656 17.273438 24.242188 17.996094 23.898438 18.570312 C 23.589844 19.082031 22.882812 19.414062 22.75 20.003906 C 22.679688 20.328125 22.722656 20.671875 22.660156 20.996094 C 22.5625 21.523438 22.042969 21.671875 21.933594 22.195312 C 21.929688 22.226562 21.921875 22.253906 21.917969 22.285156 C 21.867188 22.6875 21.992188 23.113281 21.847656 23.496094 C 21.726562 23.816406 21.351562 24.050781 21.304688 24.398438 C 19.730469 24.28125 18.152344 24.195312 16.578125 24.148438 C 16.625 24.066406 16.664062 23.980469 16.699219 23.894531 C 16.722656 23.835938 16.835938 23.238281 16.824219 23.242188 C 17.324219 23.078125 18.054688 22.628906 18.238281 22.09375 C 18.457031 21.472656 18.332031 20.484375 18.167969 19.863281 C 19.121094 19.3125 20.027344 18.300781 19.53125 17.132812 C 20.167969 17.140625 20.796875 16.777344 21.152344 16.203125 C 21.507812 15.628906 21.574219 14.855469 21.324219 14.21875 C 21.824219 14.226562 22.324219 13.953125 22.613281 13.511719 C 22.855469 13.140625 23.042969 12.464844 22.796875 12.0625 C 22.359375 12.832031 21.757812 13.464844 20.867188 13.523438 C 21.160156 14.234375 21.078125 15.109375 20.660156 15.742188 C 20.242188 16.375 19.5 16.738281 18.789062 16.660156 C 19.167969 17.003906 19.128906 17.679688 18.859375 18.128906 C 18.625 18.511719 18.253906 18.730469 17.972656 19.042969 C 17.734375 19.308594 17.390625 19.574219 17.390625 19.964844 C 17.390625 20.328125 17.65625 20.589844 17.628906 20.960938 C 17.601562 21.308594 17.402344 21.679688 17.179688 21.9375 C 16.859375 22.308594 16.226562 22.457031 15.984375 22.871094 C 15.90625 23.003906 15.851562 24.074219 15.847656 24.074219 C 15.070312 24.207031 14.222656 24.097656 13.433594 24.09375 C 12.984375 24.09375 12.53125 24.097656 12.078125 24.101562 C 11.925781 24.105469 10.96875 24.015625 10.898438 24.125 C 11.339844 23.480469 11.335938 22.507812 10.867188 21.878906 C 11.878906 21.480469 12.761719 20.722656 13.359375 19.757812 C 13.578125 19.40625 13.757812 18.933594 13.542969 18.578125 C 14.386719 18.054688 15.28125 17.472656 15.683594 16.515625 C 15.808594 16.214844 15.882812 15.882812 16.074219 15.625 C 16.324219 15.285156 16.726562 15.132812 17.0625 14.898438 C 17.742188 14.429688 18.175781 13.5625 18.164062 12.6875 C 17.753906 13.382812 17.171875 13.960938 16.496094 14.339844 C 16.160156 14.527344 15.792969 14.679688 15.542969 14.988281 C 15.042969 15.609375 15.167969 16.703125 14.539062 17.164062 C 14.300781 17.335938 14.007812 17.375 13.730469 17.449219 C 13.457031 17.527344 13.164062 17.671875 13.046875 17.953125 C 12.953125 18.171875 12.988281 18.425781 12.984375 18.664062 C 12.964844 19.390625 12.558594 20.058594 12.039062 20.515625 C 11.519531 20.976562 10.894531 21.265625 10.273438 21.546875 C 10.40625 22.125 10.53125 22.753906 10.308594 23.296875 C 10.15625 23.664062 9.867188 23.921875 9.554688 24.117188 C 9.523438 24.132812 9.488281 24.15625 9.445312 24.171875 C 7.214844 24.277344 5.050781 24.574219 4.4375 25.753906 C 3.859375 26.871094 2.53125 29.058594 3.851562 30.101562 C 4.679688 30.753906 6.335938 30.917969 7.328125 31.214844 C 8.964844 31.710938 10.636719 32.082031 12.324219 32.332031 C 14.015625 32.585938 15.714844 32.691406 17.421875 32.710938 C 18.8125 32.726562 20.007812 33.179688 21.390625 33.355469 C 23.078125 33.570312 24.761719 33.675781 26.457031 33.726562 C 28.046875 33.777344 29.59375 34.246094 31.1875 34.511719 C 34.765625 35.105469 38.414062 35.25 42.023438 34.933594 C 44.378906 34.730469 46.085938 35.488281 46.121094 33.332031 C 46.140625 32.050781 46.15625 30.945312 46.066406 29.652344 Z M 46.074219 29.652344 "/>
</g>
<mask id="mask2">
  <g filter="url(#alpha)">
<rect x="0" y="0" width="47" height="43" style="fill:rgb(0%,0%,0%);fill-opacity:0.129412;stroke:none;"/>
  </g>
</mask>
<clipPath id="clip3">
  <rect x="0" y="0" width="48" height="43"/>
</clipPath>
<g id="surface11" clip-path="url(#clip3)">
<path style=" stroke:none;fill-rule:nonzero;fill:rgb(0%,0%,0%);fill-opacity:1;" d="M 4.316406 36.871094 C 4.039062 36.363281 4.398438 34.589844 4.460938 34.277344 C 4.722656 32.992188 5.140625 31.746094 5.554688 30.503906 C 5.792969 29.789062 5.628906 28.992188 5.722656 28.253906 C 5.792969 27.722656 5.75 26.945312 6.160156 26.546875 C 6.582031 26.144531 7.222656 26.28125 7.746094 26.21875 C 6.839844 27.726562 6.515625 29.484375 6.230469 31.199219 C 6.085938 32.050781 5.964844 32.910156 5.765625 33.746094 C 5.570312 34.585938 5.535156 35.511719 5.195312 36.328125 C 5.117188 36.523438 5.011719 36.71875 4.847656 36.851562 C 4.578125 37.0625 4.414062 37.035156 4.320312 36.867188 Z M 4.316406 36.871094 "/>
</g>
<mask id="mask3">
  <g filter="url(#alpha)">
<rect x="0" y="0" width="47" height="43" style="fill:rgb(0%,0%,0%);fill-opacity:0.129412;stroke:none;"/>
  </g>
</mask>
<clipPath id="clip4">
  <rect x="0" y="0" width="48" height="43"/>
</clipPath>
<g id="surface14" clip-path="url(#clip4)">
<path style=" stroke:none;fill-rule:nonzero;fill:rgb(0%,0%,0%);fill-opacity:1;" d="M 10.953125 35.957031 C 10.78125 36.175781 10.398438 36.070312 10.253906 35.832031 C 10.113281 35.589844 10.121094 35.46875 10.148438 35.191406 C 10.425781 32.480469 10.707031 29.757812 11.371094 27.113281 C 11.503906 26.585938 11.75 25.714844 12.507812 26.125 C 13.054688 26.421875 12.660156 27.113281 12.53125 27.558594 C 12.148438 28.847656 11.832031 30.15625 11.574219 31.476562 C 11.277344 33.015625 11.078125 34.390625 10.953125 35.957031 Z M 10.953125 35.957031 "/>
</g>
<mask id="mask4">
  <g filter="url(#alpha)">
<rect x="0" y="0" width="47" height="43" style="fill:rgb(0%,0%,0%);fill-opacity:0.129412;stroke:none;"/>
  </g>
</mask>
<clipPath id="clip5">
  <rect x="0" y="0" width="48" height="43"/>
</clipPath>
<g id="surface17" clip-path="url(#clip5)">
<path style=" stroke:none;fill-rule:nonzero;fill:rgb(0%,0%,0%);fill-opacity:1;" d="M 17.316406 25.964844 C 17.511719 25.902344 17.742188 25.886719 18.042969 25.875 C 18.003906 25.875 17.621094 26.839844 17.597656 26.90625 C 17.296875 27.730469 17.355469 28.859375 17.367188 29.734375 C 17.390625 31.148438 17.058594 32.546875 16.761719 33.945312 C 16.695312 34.246094 16.597656 35.679688 16.210938 35.710938 C 15.703125 35.75 15.773438 34.757812 15.800781 34.484375 C 16.007812 32.40625 16.753906 30.535156 16.335938 28.398438 C 16.21875 27.804688 16.339844 27.167969 16.625 26.640625 C 16.847656 26.234375 17.042969 26.050781 17.316406 25.964844 Z M 17.316406 25.964844 "/>
</g>
<mask id="mask5">
  <g filter="url(#alpha)">
<rect x="0" y="0" width="47" height="43" style="fill:rgb(0%,0%,0%);fill-opacity:0.129412;stroke:none;"/>
  </g>
</mask>
<clipPath id="clip6">
  <rect x="0" y="0" width="48" height="43"/>
</clipPath>
<g id="surface20" clip-path="url(#clip6)">
<path style=" stroke:none;fill-rule:nonzero;fill:rgb(0%,0%,0%);fill-opacity:1;" d="M 21.992188 30.613281 C 21.632812 32.457031 21.078125 34.453125 21.78125 36.167969 C 21.992188 36.429688 22.429688 36.222656 22.535156 35.890625 C 22.644531 35.5625 22.546875 35.203125 22.464844 34.867188 C 21.964844 32.828125 22.710938 29.84375 23.605469 27.964844 C 23.828125 27.5 24.648438 25.050781 23.128906 26.289062 C 22.132812 27.101562 22.238281 29.363281 21.996094 30.613281 Z M 21.992188 30.613281 "/>
</g>
<mask id="mask6">
  <g filter="url(#alpha)">
<rect x="0" y="0" width="47" height="43" style="fill:rgb(0%,0%,0%);fill-opacity:0.129412;stroke:none;"/>
  </g>
</mask>
<clipPath id="clip7">
  <rect x="0" y="0" width="48" height="43"/>
</clipPath>
<g id="surface23" clip-path="url(#clip7)">
<path style=" stroke:none;fill-rule:nonzero;fill:rgb(0%,0%,0%);fill-opacity:1;" d="M 27.324219 33.730469 C 27.152344 34.296875 26.953125 34.875 26.988281 35.464844 C 27.023438 36.054688 27.359375 36.675781 27.925781 36.828125 C 28.152344 34.445312 28.484375 31.71875 29.246094 29.449219 C 29.476562 28.761719 29.738281 28.03125 29.574219 27.320312 C 29.476562 26.894531 29.019531 26.367188 28.535156 26.769531 C 28.183594 27.058594 28.332031 28.371094 28.296875 28.773438 C 28.148438 30.453125 27.820312 32.121094 27.324219 33.734375 Z M 27.324219 33.730469 "/>
</g>
<mask id="mask7">
  <g filter="url(#alpha)">
<rect x="0" y="0" width="47" height="43" style="fill:rgb(0%,0%,0%);fill-opacity:0.129412;stroke:none;"/>
  </g>
</mask>
<clipPath id="clip8">
  <rect x="0" y="0" width="48" height="43"/>
</clipPath>
<g id="surface26" clip-path="url(#clip8)">
<path style=" stroke:none;fill-rule:nonzero;fill:rgb(0%,0%,0%);fill-opacity:1;" d="M 33.867188 30.21875 C 33.753906 31.519531 33.59375 32.738281 33.144531 33.945312 C 32.695312 35.152344 32.664062 36.429688 33.039062 37.617188 C 33.285156 37.667969 33.351562 37.714844 33.597656 37.769531 C 33.542969 35.324219 34.65625 32.933594 34.855469 30.492188 C 34.917969 29.71875 35.078125 27.46875 34.222656 27.734375 C 33.308594 28.019531 33.933594 29.460938 33.867188 30.21875 Z M 33.867188 30.21875 "/>
</g>
<mask id="mask8">
  <g filter="url(#alpha)">
<rect x="0" y="0" width="47" height="43" style="fill:rgb(0%,0%,0%);fill-opacity:0.129412;stroke:none;"/>
  </g>
</mask>
<clipPath id="clip9">
  <rect x="0" y="0" width="48" height="43"/>
</clipPath>
<g id="surface29" clip-path="url(#clip9)">
<path style=" stroke:none;fill-rule:nonzero;fill:rgb(0%,0%,0%);fill-opacity:1;" d="M 39.207031 33.359375 C 38.9375 34.9375 38.347656 36.441406 37.882812 37.976562 C 37.789062 38.277344 37.742188 38.691406 38.019531 38.839844 C 38.199219 38.933594 38.433594 38.84375 38.5625 38.691406 C 38.695312 38.539062 38.753906 38.332031 38.8125 38.136719 C 39.242188 36.597656 39.671875 35.0625 40.101562 33.527344 C 40.355469 32.625 40.609375 31.683594 40.460938 30.757812 C 40.359375 30.140625 38.9375 28.167969 38.921875 29.359375 C 38.914062 29.945312 39.296875 30.664062 39.332031 31.292969 C 39.375 31.980469 39.324219 32.675781 39.207031 33.355469 Z M 39.207031 33.359375 "/>
</g>
<mask id="mask9">
  <g filter="url(#alpha)">
<rect x="0" y="0" width="47" height="43" style="fill:rgb(0%,0%,0%);fill-opacity:0.129412;stroke:none;"/>
  </g>
</mask>
<clipPath id="clip10">
  <rect x="0" y="0" width="48" height="43"/>
</clipPath>
<g id="surface32" clip-path="url(#clip10)">
<path style=" stroke:none;fill-rule:nonzero;fill:rgb(0%,0%,0%);fill-opacity:1;" d="M 44.242188 39.78125 C 44.179688 40.105469 44.113281 40.449219 44.214844 40.757812 C 44.316406 41.070312 44.660156 41.316406 44.933594 41.164062 C 45.070312 38.289062 45.125 35.410156 45.113281 32.53125 C 45.109375 32.0625 45.101562 31.578125 44.90625 31.160156 C 44.824219 30.984375 44.394531 30.394531 44.152344 30.539062 C 43.910156 30.679688 44.136719 31.222656 44.179688 31.4375 C 44.363281 32.367188 44.496094 33.304688 44.5625 34.253906 C 44.695312 36.097656 44.585938 37.964844 44.242188 39.777344 Z M 44.242188 39.78125 "/>
</g>
<mask id="mask10">
  <g filter="url(#alpha)">
<rect x="0" y="0" width="47" height="43" style="fill:rgb(0%,0%,0%);fill-opacity:0.129412;stroke:none;"/>
  </g>
</mask>
<clipPath id="clip11">
  <rect x="0" y="0" width="48" height="43"/>
</clipPath>
<g id="surface35" clip-path="url(#clip11)">
<path style=" stroke:none;fill-rule:nonzero;fill:rgb(0%,0%,0%);fill-opacity:1;" d="M 38.769531 7.539062 L 38.75 7.863281 C 38.746094 7.988281 38.820312 8.101562 38.9375 8.136719 L 40.210938 8.503906 C 40.300781 8.527344 40.367188 8.605469 40.390625 8.703125 L 40.46875 9.09375 C 40.492188 9.203125 40.445312 9.3125 40.359375 9.367188 L 39.640625 9.804688 C 39.523438 9.878906 39.488281 10.046875 39.570312 10.171875 L 39.714844 10.402344 C 39.804688 10.539062 39.753906 10.722656 39.613281 10.785156 L 39.222656 10.949219 C 39.046875 11.023438 39.023438 11.28125 39.183594 11.402344 L 39.851562 11.90625 C 40.019531 12.035156 39.980469 12.3125 39.785156 12.363281 L 39.324219 12.492188 C 39.207031 12.523438 39.136719 12.640625 39.152344 12.765625 L 39.21875 13.28125 C 39.222656 13.308594 39.226562 13.332031 39.234375 13.355469 L 38.671875 13.453125 C 38.714844 13.554688 38.691406 13.671875 38.613281 13.746094 L 38.277344 14.070312 C 38.230469 14.113281 38.171875 14.136719 38.109375 14.132812 L 37.960938 14.800781 C 37.929688 14.800781 37.898438 14.792969 37.871094 14.777344 L 36.558594 14.105469 C 36.355469 14.003906 36.152344 14.226562 36.246094 14.445312 L 36.277344 14.511719 C 36.375 14.730469 36.167969 14.953125 35.964844 14.847656 C 35.519531 14.621094 35.800781 15.449219 35.523438 15.566406 C 35.347656 15.644531 35.148438 15.585938 34.96875 15.511719 C 34.792969 15.441406 34.613281 15.347656 34.421875 15.363281 C 34.066406 15.394531 33.855469 15.757812 33.648438 16.054688 C 33.445312 16.351562 33.066406 16.636719 32.765625 16.445312 C 32.613281 16.351562 32.542969 16.171875 32.445312 16.027344 C 32.226562 15.699219 31.824219 15.507812 31.4375 15.546875 C 31.605469 15.695312 31.5625 16.003906 31.378906 16.136719 C 31.199219 16.269531 30.9375 16.238281 30.753906 16.105469 C 30.574219 15.96875 30.46875 15.753906 30.417969 15.535156 C 30.382812 15.382812 30.359375 15.214844 30.242188 15.117188 C 30.027344 14.933594 29.699219 15.136719 29.535156 15.367188 C 29.367188 15.597656 29.195312 15.886719 28.914062 15.902344 C 28.691406 15.914062 28.5 15.734375 28.386719 15.542969 C 28.269531 15.351562 28.191406 15.128906 28.042969 14.960938 C 27.894531 14.792969 27.628906 14.695312 27.445312 14.828125 C 27.617188 15.117188 27.617188 15.503906 27.445312 15.792969 C 27.273438 16.085938 26.9375 16.265625 26.601562 16.25 C 26.605469 15.832031 26.609375 15.414062 26.609375 14.996094 C 26.464844 15.214844 26.179688 15.324219 25.929688 15.261719 C 25.675781 15.199219 25.476562 14.96875 25.449219 14.707031 C 25.429688 14.527344 25.480469 14.355469 25.515625 14.183594 C 25.589844 13.800781 25.492188 13.523438 25.109375 13.527344 C 24.980469 13.527344 24.546875 13.710938 24.757812 13.273438 L 24.808594 13.164062 C 24.890625 12.988281 24.761719 12.773438 24.578125 12.785156 L 24.1875 12.800781 C 23.953125 12.808594 23.835938 12.484375 24.023438 12.335938 L 24.363281 12.058594 C 24.554688 11.90625 24.433594 11.578125 24.195312 11.59375 L 23.195312 11.652344 C 22.941406 11.667969 22.832031 11.304688 23.050781 11.171875 C 23.273438 11.035156 23.558594 10.980469 23.695312 10.730469 C 23.753906 10.617188 23.78125 10.488281 23.851562 10.378906 C 24.214844 9.808594 24.625 11.355469 24.726562 11.578125 C 24.957031 12.101562 25.695312 12.527344 26.042969 12.074219 C 26.359375 11.652344 25.933594 10.929688 26.300781 10.550781 C 26.273438 10.578125 26.675781 11.246094 26.703125 11.308594 C 26.882812 11.710938 27.144531 12.054688 27.429688 12.394531 C 27.542969 12.523438 27.695312 12.664062 27.859375 12.609375 C 28.023438 12.558594 28.066406 12.347656 28.085938 12.175781 C 28.105469 11.972656 28.125 11.773438 28.144531 11.570312 C 28.160156 11.421875 28.195312 11.246094 28.328125 11.1875 C 28.453125 11.136719 28.597656 11.214844 28.675781 11.328125 C 28.808594 11.523438 28.816406 11.835938 29.015625 11.984375 C 29.164062 12.097656 29.359375 12.097656 29.519531 12.1875 C 29.726562 12.304688 29.871094 12.507812 30.035156 12.671875 C 30.238281 12.886719 30.539062 13.074219 30.8125 12.972656 C 30.914062 12.933594 31 12.859375 31.085938 12.789062 C 31.4375 12.507812 31.972656 12.695312 31.816406 12.101562 C 31.765625 11.910156 31.679688 11.722656 31.699219 11.527344 C 31.726562 11.285156 31.804688 11.246094 32 11.3125 C 32.101562 11.347656 32.136719 11.484375 32.257812 11.488281 C 32.371094 11.496094 32.570312 11.285156 32.695312 11.25 C 33.082031 11.144531 33.167969 11.367188 33.378906 11.609375 C 33.578125 11.835938 33.996094 11.875 34.277344 11.953125 C 34.34375 11.972656 34.410156 11.992188 34.476562 11.984375 C 34.542969 11.976562 34.613281 11.9375 34.636719 11.875 C 34.660156 11.800781 34.621094 11.722656 34.570312 11.664062 C 34.519531 11.609375 34.457031 11.5625 34.417969 11.496094 C 34.382812 11.429688 34.378906 11.332031 34.441406 11.285156 C 34.542969 11.210938 34.71875 11.347656 34.804688 11.25 C 34.84375 11.210938 34.839844 11.148438 34.828125 11.09375 C 34.78125 10.875 34.597656 10.769531 34.46875 10.601562 C 34.324219 10.414062 34.28125 10.207031 34.308594 9.96875 C 34.386719 9.230469 35.402344 8.769531 35.953125 9.261719 C 35.480469 9.304688 35.058594 8.765625 35.207031 8.308594 C 35.355469 7.847656 35.851562 8.058594 36.21875 8.101562 C 36.289062 8.105469 36.363281 8.113281 36.425781 8.085938 C 36.53125 8.039062 36.578125 7.902344 36.554688 7.789062 C 36.53125 7.675781 36.457031 7.578125 36.375 7.496094 C 36.125 7.257812 35.785156 7.105469 35.617188 6.800781 C 35.570312 6.71875 35.539062 6.613281 35.578125 6.527344 C 35.628906 6.421875 35.769531 6.386719 35.886719 6.394531 C 36.21875 6.410156 36.386719 6.425781 36.441406 6.035156 C 36.476562 5.765625 36.382812 5.476562 36.179688 5.296875 C 35.878906 5.023438 35.410156 5 35.144531 4.695312 C 34.917969 4.429688 34.925781 3.988281 35.167969 3.734375 C 35.414062 3.480469 35.800781 3.484375 36.089844 3.648438 C 35.953125 3.214844 35.964844 2.660156 36.277344 2.328125 C 36.46875 2.757812 36.328125 3.335938 36.25 3.808594 C 36.214844 4.007812 36.402344 4.175781 36.578125 4.105469 L 37.328125 3.789062 C 37.492188 3.722656 37.671875 3.871094 37.65625 4.0625 L 37.625 4.464844 C 37.621094 4.515625 37.628906 4.566406 37.652344 4.613281 L 37.824219 4.949219 C 37.871094 5.046875 37.863281 5.15625 37.800781 5.238281 L 37.417969 5.734375 C 37.269531 5.921875 37.4375 6.207031 37.660156 6.15625 L 39.472656 5.722656 C 39.625 5.6875 39.773438 5.820312 39.769531 5.992188 L 39.757812 6.34375 C 39.753906 6.410156 39.730469 6.472656 39.683594 6.515625 L 38.847656 7.375 C 38.804688 7.417969 38.78125 7.476562 38.777344 7.539062 Z M 38.769531 7.539062 "/>
</g>
</defs>
<g id="surface1">
<use xlink:href="#surface5" mask="url(#mask0)"/>
<path style=" stroke:none;fill-rule:nonzero;fill:rgb(90.980392%,82.745098%,68.627451%);fill-opacity:1;" d="M 8.730469 18.746094 C 13.929688 12.707031 20.957031 10.902344 28.628906 11.792969 C 31.816406 12.164062 34.992188 12.914062 37.871094 14.355469 C 40.945312 15.894531 44.105469 18.734375 45.109375 22.21875 C 45.964844 25.195312 46.171875 30.792969 46.128906 33.332031 C 46.09375 35.488281 44.386719 34.730469 42.03125 34.933594 C 38.421875 35.25 34.773438 35.105469 31.195312 34.511719 C 29.605469 34.246094 28.050781 33.773438 26.464844 33.726562 C 24.769531 33.675781 23.085938 33.570312 21.398438 33.355469 C 20.015625 33.179688 18.824219 32.726562 17.429688 32.710938 C 15.722656 32.691406 14.023438 32.585938 12.332031 32.332031 C 10.640625 32.082031 8.972656 31.710938 7.335938 31.214844 C 6.34375 30.914062 4.6875 30.753906 3.859375 30.101562 C 3.011719 29.429688 3.394531 28.835938 3.707031 27.816406 C 4.738281 24.464844 6.472656 21.375 8.734375 18.746094 Z M 8.730469 18.746094 "/>
<use xlink:href="#surface8" mask="url(#mask1)"/>
<path style=" stroke:none;fill-rule:nonzero;fill:rgb(90.980392%,82.745098%,68.627451%);fill-opacity:1;" d="M 1.703125 29.527344 C 1.910156 28.816406 2.664062 27.386719 3.175781 26.855469 C 3.953125 26.042969 5.714844 25.9375 6.828125 25.871094 C 13.320312 25.476562 19.304688 25.226562 25.78125 25.863281 C 31.582031 26.4375 37.277344 27.964844 42.898438 29.449219 C 44.175781 29.785156 45.492188 30.394531 46.128906 31.5625 C 46.507812 32.257812 46.597656 33.070312 46.683594 33.859375 C 46.621094 36.699219 46.875 39.695312 47 42.550781 C 32.058594 36.640625 15.882812 34.09375 0 38.121094 C 0.0742188 34.855469 1.320312 30.835938 1.703125 29.527344 Z M 1.703125 29.527344 "/>
<use xlink:href="#surface11" mask="url(#mask2)"/>
<use xlink:href="#surface14" mask="url(#mask3)"/>
<use xlink:href="#surface17" mask="url(#mask4)"/>
<use xlink:href="#surface20" mask="url(#mask5)"/>
<use xlink:href="#surface23" mask="url(#mask6)"/>
<use xlink:href="#surface26" mask="url(#mask7)"/>
<use xlink:href="#surface29" mask="url(#mask8)"/>
<use xlink:href="#surface32" mask="url(#mask9)"/>
<path style=" stroke:none;fill-rule:nonzero;fill:rgb(90.980392%,82.745098%,68.627451%);fill-opacity:1;" d="M 38.769531 7.539062 L 38.75 7.863281 C 38.746094 7.988281 38.820312 8.101562 38.9375 8.136719 L 40.210938 8.503906 C 40.300781 8.527344 40.367188 8.605469 40.390625 8.703125 L 40.46875 9.09375 C 40.492188 9.203125 40.445312 9.3125 40.359375 9.367188 L 39.640625 9.804688 C 39.523438 9.878906 39.488281 10.046875 39.570312 10.171875 L 39.714844 10.402344 C 39.804688 10.539062 39.753906 10.722656 39.613281 10.785156 L 39.222656 10.949219 C 39.046875 11.023438 39.023438 11.28125 39.183594 11.402344 L 39.851562 11.90625 C 40.019531 12.035156 39.980469 12.3125 39.785156 12.363281 L 39.324219 12.492188 C 39.207031 12.523438 39.136719 12.640625 39.152344 12.765625 L 39.21875 13.28125 C 39.222656 13.308594 39.226562 13.332031 39.234375 13.355469 L 38.671875 13.453125 C 38.714844 13.554688 38.691406 13.671875 38.613281 13.746094 L 38.277344 14.070312 C 38.230469 14.113281 38.171875 14.136719 38.109375 14.132812 L 37.960938 14.800781 C 37.929688 14.800781 37.898438 14.792969 37.871094 14.777344 L 36.558594 14.105469 C 36.355469 14.003906 36.152344 14.226562 36.246094 14.445312 L 36.277344 14.511719 C 36.375 14.730469 36.167969 14.953125 35.964844 14.847656 C 35.765625 14.746094 35.558594 14.964844 35.65625 15.183594 L 36.359375 16.796875 C 36.390625 16.871094 36.390625 16.953125 36.355469 17.023438 L 36.191406 17.355469 C 36.128906 17.488281 35.964844 17.527344 35.847656 17.4375 L 34.964844 16.765625 C 34.921875 16.734375 34.867188 16.71875 34.816406 16.71875 L 34.46875 16.730469 C 34.363281 16.734375 34.277344 16.8125 34.253906 16.921875 L 34.144531 17.417969 C 34.105469 17.597656 33.902344 17.671875 33.765625 17.546875 L 33.292969 17.132812 C 33.265625 17.109375 33.238281 17.09375 33.207031 17.082031 L 32.707031 16.921875 C 32.675781 16.910156 32.648438 16.894531 32.621094 16.871094 L 32.402344 16.679688 C 32.257812 16.554688 32.042969 16.640625 32.019531 16.839844 L 31.882812 17.964844 C 31.847656 18.25 31.46875 18.253906 31.414062 17.96875 L 31.167969 16.710938 C 31.132812 16.535156 30.949219 16.441406 30.808594 16.53125 L 30.582031 16.675781 C 30.582031 16.675781 30.574219 16.679688 30.570312 16.683594 L 30.207031 16.953125 C 30.085938 17.042969 29.914062 16.988281 29.851562 16.839844 L 29.761719 16.617188 C 29.691406 16.449219 29.484375 16.40625 29.367188 16.535156 L 29.050781 16.886719 C 28.925781 17.023438 28.703125 16.960938 28.648438 16.773438 L 28.5 16.28125 L 28.382812 15.921875 C 28.324219 15.742188 28.117188 15.683594 27.992188 15.808594 L 27.050781 16.757812 C 26.929688 16.878906 26.730469 16.824219 26.664062 16.65625 L 26.5625 16.398438 C 26.53125 16.3125 26.457031 16.25 26.371094 16.234375 L 26.066406 16.1875 C 25.921875 16.160156 25.824219 16 25.867188 15.847656 L 26.050781 15.195312 C 26.105469 15.003906 25.941406 14.8125 25.761719 14.859375 L 25.574219 14.910156 C 25.363281 14.960938 25.191406 14.703125 25.3125 14.507812 L 25.648438 13.972656 C 25.765625 13.785156 25.605469 13.527344 25.394531 13.574219 L 25.023438 13.648438 C 24.828125 13.691406 24.667969 13.464844 24.757812 13.273438 L 24.808594 13.164062 C 24.894531 12.988281 24.761719 12.773438 24.578125 12.785156 L 24.1875 12.800781 C 23.953125 12.808594 23.835938 12.484375 24.023438 12.335938 L 24.367188 12.058594 C 24.554688 11.90625 24.433594 11.578125 24.199219 11.59375 L 23.199219 11.652344 C 22.945312 11.667969 22.835938 11.304688 23.054688 11.171875 L 23.476562 10.910156 C 23.652344 10.800781 23.621094 10.515625 23.425781 10.441406 L 22.902344 10.246094 C 22.757812 10.191406 22.691406 10.011719 22.765625 9.871094 L 22.949219 9.523438 C 22.976562 9.464844 23.027344 9.421875 23.082031 9.40625 L 24.054688 9.101562 C 24.273438 9.03125 24.273438 8.699219 24.058594 8.613281 L 22.953125 8.164062 C 22.792969 8.101562 22.738281 7.886719 22.847656 7.753906 L 22.988281 7.578125 C 23.058594 7.492188 23.0625 7.363281 23 7.265625 L 22.824219 6.992188 C 22.710938 6.8125 22.832031 6.578125 23.027344 6.59375 L 24.660156 6.722656 C 24.78125 6.730469 24.890625 6.640625 24.90625 6.511719 L 24.933594 6.320312 C 24.945312 6.230469 24.917969 6.144531 24.855469 6.082031 L 23.691406 4.953125 C 23.53125 4.796875 23.621094 4.515625 23.832031 4.507812 L 24.113281 4.496094 C 24.269531 4.492188 24.375 4.332031 24.328125 4.171875 L 24.160156 3.578125 C 24.132812 3.484375 24.15625 3.382812 24.222656 3.320312 L 24.507812 3.035156 C 24.566406 2.976562 24.644531 2.957031 24.726562 2.976562 L 25.660156 3.238281 C 25.753906 3.265625 25.851562 3.226562 25.90625 3.144531 L 26.023438 2.96875 C 26.097656 2.855469 26.246094 2.832031 26.351562 2.914062 L 27.035156 3.429688 C 27.222656 3.574219 27.464844 3.382812 27.394531 3.144531 L 27.007812 1.914062 C 26.992188 1.863281 26.992188 1.808594 27.003906 1.757812 L 27.15625 1.21875 C 27.195312 1.078125 27.339844 1.003906 27.46875 1.0625 L 28.035156 1.316406 C 28.066406 1.328125 28.09375 1.347656 28.117188 1.371094 L 28.675781 1.953125 C 28.820312 2.105469 29.058594 2.015625 29.078125 1.804688 L 29.128906 1.292969 C 29.152344 1.085938 29.378906 0.996094 29.523438 1.136719 L 29.917969 1.519531 C 29.917969 1.519531 29.925781 1.527344 29.929688 1.53125 L 30.425781 2.078125 C 30.5 2.160156 30.613281 2.179688 30.707031 2.132812 L 30.992188 1.980469 C 31.023438 1.964844 31.046875 1.945312 31.070312 1.917969 L 31.433594 1.453125 C 31.511719 1.347656 31.652344 1.335938 31.757812 1.417969 L 32.101562 1.691406 L 32.363281 1.894531 C 32.480469 1.984375 32.644531 1.945312 32.710938 1.8125 L 33.519531 0.179688 C 33.59375 0.03125 33.78125 0.00390625 33.894531 0.125 L 34.140625 0.386719 C 34.1875 0.433594 34.214844 0.5 34.214844 0.566406 L 34.269531 2.101562 C 34.269531 2.109375 34.269531 2.117188 34.269531 2.128906 L 34.214844 3 C 34.199219 3.226562 34.445312 3.367188 34.605469 3.230469 L 35.285156 2.640625 C 35.300781 2.628906 35.316406 2.617188 35.335938 2.609375 L 36.023438 2.289062 C 36.183594 2.214844 36.363281 2.351562 36.363281 2.539062 L 36.351562 3.1875 C 36.351562 3.199219 36.351562 3.214844 36.347656 3.226562 L 36.25 3.820312 C 36.214844 4.019531 36.402344 4.191406 36.578125 4.117188 L 37.328125 3.804688 C 37.492188 3.734375 37.671875 3.882812 37.65625 4.074219 L 37.625 4.476562 C 37.621094 4.527344 37.628906 4.578125 37.652344 4.625 L 37.824219 4.964844 C 37.871094 5.058594 37.863281 5.167969 37.800781 5.25 L 37.417969 5.746094 C 37.269531 5.933594 37.4375 6.21875 37.660156 6.167969 L 39.472656 5.734375 C 39.625 5.699219 39.773438 5.835938 39.769531 6.003906 L 39.757812 6.359375 C 39.753906 6.421875 39.730469 6.484375 39.683594 6.527344 L 38.847656 7.386719 C 38.804688 7.429688 38.78125 7.492188 38.777344 7.554688 Z M 38.769531 7.539062 "/>
<use xlink:href="#surface35" mask="url(#mask10)"/>
</g>
</svg>
