<?xml version="1.0" encoding="UTF-8"?>
<svg xmlns="http://www.w3.org/2000/svg" xmlns:xlink="http://www.w3.org/1999/xlink" width="48px" height="px" viewBox="0 0 47 24" version="1.1">
<defs>
<filter id="alpha" filterUnits="objectBoundingBox" x="0%" y="0%" width="100%" height="100%">
  <feColorMatrix type="matrix" in="SourceGraphic" values="0 0 0 0 1 0 0 0 0 1 0 0 0 0 1 0 0 0 1 0"/>
</filter>
<mask id="mask0">
  <g filter="url(#alpha)">
<rect x="0" y="0" width="47" height="24" style="fill:rgb(0%,0%,0%);fill-opacity:0.211765;stroke:none;"/>
  </g>
</mask>
<clipPath id="clip1">
  <rect x="0" y="0" width="47" height="24"/>
</clipPath>
<g id="surface5" clip-path="url(#clip1)">
<path style=" stroke:none;fill-rule:nonzero;fill:rgb(0%,0%,0%);fill-opacity:1;" d="M 11.910156 18.03125 C 12.097656 17.980469 12.300781 17.917969 12.421875 17.765625 C 12.601562 17.539062 12.535156 17.1875 12.347656 16.96875 C 12.164062 16.75 11.886719 16.632812 11.621094 16.53125 C 8.851562 15.488281 5.726562 15.441406 2.925781 16.398438 C 1.835938 16.769531 0.558594 17.488281 0.160156 18.675781 C -0.3125 20.082031 1.933594 19.53125 2.777344 19.488281 C 5.863281 19.332031 8.929688 18.84375 11.910156 18.03125 Z M 11.910156 18.03125 "/>
</g>
<mask id="mask1">
  <g filter="url(#alpha)">
<rect x="0" y="0" width="47" height="24" style="fill:rgb(0%,0%,0%);fill-opacity:0.180392;stroke:none;"/>
  </g>
</mask>
<clipPath id="clip2">
  <rect x="0" y="0" width="47" height="24"/>
</clipPath>
<g id="surface8" clip-path="url(#clip2)">
<path style=" stroke:none;fill-rule:nonzero;fill:rgb(0%,0%,0%);fill-opacity:1;" d="M 32.003906 23.121094 C 34.480469 22.421875 36.777344 21.195312 39.171875 20.242188 C 39.675781 20.042969 40.230469 19.753906 40.75 19.628906 C 41.378906 19.480469 42.132812 19.554688 42.777344 19.527344 L 46.964844 19.347656 C 47.0625 19.34375 46.402344 18.363281 46.328125 18.292969 C 46.070312 18.046875 45.847656 17.800781 45.601562 17.546875 C 44.925781 16.855469 43.988281 16.375 43.09375 16.0625 C 41.585938 15.539062 39.96875 15.429688 38.375 15.335938 C 34.5 15.105469 30.605469 14.933594 26.75 15.386719 C 25.394531 15.542969 24.046875 15.785156 22.726562 16.121094 C 22.046875 16.292969 21.378906 16.492188 20.71875 16.71875 C 20.203125 16.894531 19.664062 17.210938 19.140625 17.304688 C 18.25 17.472656 17.28125 17.261719 16.433594 17.644531 C 15.585938 18.03125 14.761719 18.226562 13.878906 18.460938 C 13.53125 18.550781 13.191406 18.609375 12.996094 18.910156 C 12.875 19.089844 12.4375 19.78125 12.4375 19.78125 C 13.261719 20.847656 14.8125 21.542969 15.457031 21.847656 C 16.738281 22.457031 18.078125 22.929688 19.453125 23.261719 C 23.597656 24.261719 27.90625 24.277344 32.007812 23.121094 Z M 32.003906 23.121094 "/>
</g>
<mask id="mask2">
  <g filter="url(#alpha)">
<rect x="0" y="0" width="47" height="24" style="fill:rgb(0%,0%,0%);fill-opacity:0.0901961;stroke:none;"/>
  </g>
</mask>
<clipPath id="clip3">
  <rect x="0" y="0" width="47" height="24"/>
</clipPath>
<g id="surface11" clip-path="url(#clip3)">
<path style=" stroke:none;fill-rule:nonzero;fill:rgb(0%,0%,0%);fill-opacity:1;" d="M 12.816406 15.664062 C 13.234375 15.753906 13.65625 15.835938 14.074219 15.917969 C 18.375 16.753906 22.714844 17.386719 27.066406 17.851562 C 28.617188 18.019531 30.167969 18.160156 31.722656 18.277344 C 33.433594 18.402344 35.128906 18.699219 36.839844 18.796875 C 37.308594 18.824219 39.078125 19.105469 39.421875 18.761719 C 39.769531 18.421875 39.375 16.765625 39.316406 16.289062 C 38.820312 12.355469 37.480469 8.609375 35.433594 5.242188 C 34.574219 3.828125 33.414062 2.5625 31.992188 1.71875 C 30.46875 0.8125 29.367188 0.703125 27.660156 0.898438 C 24.753906 1.226562 22.019531 2.398438 19.761719 4.273438 C 17.386719 6.242188 15.585938 8.855469 14.285156 11.648438 C 14.1875 11.859375 12.710938 15.640625 12.816406 15.660156 Z M 12.816406 15.664062 "/>
</g>
</defs>
<g id="surface1">
<path style=" stroke:none;fill-rule:nonzero;fill:rgb(7.843137%,81.960784%,87.45098%);fill-opacity:1;" d="M 11.910156 18.03125 C 12.097656 17.980469 12.300781 17.917969 12.421875 17.765625 C 12.601562 17.539062 12.535156 17.1875 12.347656 16.96875 C 12.164062 16.75 11.886719 16.632812 11.621094 16.53125 C 8.851562 15.488281 5.726562 15.441406 2.925781 16.398438 C 1.835938 16.769531 0.558594 17.488281 0.160156 18.675781 C -0.3125 20.082031 1.933594 19.53125 2.777344 19.488281 C 5.863281 19.332031 8.929688 18.84375 11.910156 18.03125 Z M 11.910156 18.03125 "/>
<use xlink:href="#surface5" mask="url(#mask0)"/>
<use xlink:href="#surface8" mask="url(#mask1)"/>
<path style=" stroke:none;fill-rule:nonzero;fill:rgb(7.843137%,81.960784%,87.45098%);fill-opacity:1;" d="M 12.816406 15.664062 C 12.816406 15.664062 30.894531 19.574219 46.683594 18.402344 C 46.683594 18.402344 49.3125 2.648438 31.34375 0.886719 C 16.640625 -0.558594 12.816406 15.664062 12.816406 15.664062 Z M 12.816406 15.664062 "/>
<use xlink:href="#surface11" mask="url(#mask2)"/>
<path style=" stroke:none;fill-rule:nonzero;fill:rgb(7.843137%,81.960784%,87.45098%);fill-opacity:1;" d="M 4.832031 17.121094 C 7.175781 16.878906 9.515625 17.523438 11.664062 18.363281 C 13.8125 19.207031 15.863281 20.253906 18.09375 20.910156 C 21.675781 21.957031 25.578125 21.933594 29.304688 21.351562 C 32.828125 20.800781 36.226562 19.773438 39.605469 18.726562 C 39.78125 18.671875 39.777344 18.417969 39.601562 18.363281 C 35.023438 16.976562 30.601562 15.210938 25.980469 13.933594 C 21.164062 12.601562 16.367188 11.429688 13.589844 12.316406 C 10.886719 13.183594 8.003906 13.441406 5.371094 14.558594 C 4.207031 15.050781 -0.746094 17.613281 0.128906 19.375 C 1.441406 18.179688 2.902344 17.316406 4.832031 17.121094 Z M 4.832031 17.121094 "/>
<path style=" stroke:none;fill-rule:nonzero;fill:rgb(7.843137%,81.960784%,87.45098%);fill-opacity:1;" d="M 29.015625 0.921875 C 29.289062 0.429688 29.804688 0.078125 30.359375 0.0117188 C 30.910156 -0.0546875 31.492188 0.15625 31.875 0.570312 C 32.039062 0.75 32.164062 1.039062 32.007812 1.222656 C 31.921875 1.324219 31.78125 1.351562 31.652344 1.371094 C 30.761719 1.484375 29.832031 1.28125 29.066406 0.808594 "/>
</g>
</svg>
