<?xml version="1.0" encoding="UTF-8"?>
<svg xmlns="http://www.w3.org/2000/svg" xmlns:xlink="http://www.w3.org/1999/xlink" width="48px" height="px" viewBox="0 0 47 20" version="1.1">
<defs>
<filter id="alpha" filterUnits="objectBoundingBox" x="0%" y="0%" width="100%" height="100%">
  <feColorMatrix type="matrix" in="SourceGraphic" values="0 0 0 0 1 0 0 0 0 1 0 0 0 0 1 0 0 0 1 0"/>
</filter>
<mask id="mask0">
  <g filter="url(#alpha)">
<rect x="0" y="0" width="47" height="20" style="fill:rgb(0%,0%,0%);fill-opacity:0.14902;stroke:none;"/>
  </g>
</mask>
<clipPath id="clip1">
  <rect x="0" y="0" width="47" height="20"/>
</clipPath>
<g id="surface5" clip-path="url(#clip1)">
<path style=" stroke:none;fill-rule:nonzero;fill:rgb(0%,0%,0%);fill-opacity:1;" d="M 10.457031 17.695312 C 11.074219 17.574219 16.445312 17.542969 18.597656 17.574219 C 23.558594 17.648438 27.921875 18.804688 30.046875 19.191406 C 31.386719 19.433594 34.386719 19.929688 34.40625 20 C 34.117188 18.839844 32.914062 18.207031 31.828125 17.753906 C 26.144531 15.378906 19.875 13.875 13.851562 15.105469 C 13.070312 15.261719 12.273438 15.488281 11.679688 16.070312 C 11.089844 16.648438 10.894531 16.996094 10.457031 17.695312 Z M 10.457031 17.695312 "/>
</g>
<mask id="mask1">
  <g filter="url(#alpha)">
<rect x="0" y="0" width="47" height="20" style="fill:rgb(0%,0%,0%);fill-opacity:0.180392;stroke:none;"/>
  </g>
</mask>
<clipPath id="clip2">
  <rect x="0" y="0" width="47" height="20"/>
</clipPath>
<g id="surface8" clip-path="url(#clip2)">
<path style=" stroke:none;fill-rule:nonzero;fill:rgb(0%,0%,0%);fill-opacity:1;" d="M 8.578125 5.472656 C 7.726562 5.007812 5.421875 3.660156 4.488281 3.714844 C 3.0625 3.796875 2.65625 4.878906 2.449219 5.964844 C 2.148438 7.550781 2.609375 9.042969 3.4375 10.367188 C 4.265625 11.691406 5.238281 12.789062 6.546875 13.65625 C 7.984375 14.609375 9.703125 14.753906 11.390625 15.015625 C 14.132812 15.4375 16.925781 15.585938 19.699219 15.644531 C 20.789062 15.664062 21.871094 15.703125 22.953125 15.808594 C 24.253906 15.9375 25.566406 15.832031 26.863281 15.847656 C 25.347656 15.671875 23.714844 14.828125 22.339844 14.398438 C 20.59375 13.855469 19.097656 13.414062 17.472656 12.773438 C 16.269531 12.296875 15.523438 11.503906 14.789062 10.398438 C 14.125 9.402344 13.664062 8.746094 12.664062 7.960938 C 11.421875 6.988281 10.109375 6.304688 8.578125 5.472656 Z M 8.578125 5.472656 "/>
</g>
<mask id="mask2">
  <g filter="url(#alpha)">
<rect x="0" y="0" width="47" height="20" style="fill:rgb(0%,0%,0%);fill-opacity:0.180392;stroke:none;"/>
  </g>
</mask>
<clipPath id="clip3">
  <rect x="0" y="0" width="47" height="20"/>
</clipPath>
<g id="surface11" clip-path="url(#clip3)">
<path style=" stroke:none;fill-rule:nonzero;fill:rgb(0%,0%,0%);fill-opacity:1;" d="M 31.257812 14.09375 C 34.253906 13.375 37.34375 12.398438 40.390625 11.824219 C 41.527344 11.609375 42.820312 11.324219 43.902344 11.660156 C 46.039062 12.320312 46.988281 14.253906 45.855469 16.269531 C 44.550781 18.585938 43.457031 19.511719 40.460938 19.824219 C 38.238281 20.058594 36.566406 19.699219 33.097656 18.957031 C 27.597656 17.78125 24.289062 16.574219 19.859375 16.613281 C 23.523438 15.339844 27.386719 15.027344 31.253906 14.097656 Z M 31.257812 14.09375 "/>
</g>
</defs>
<g id="surface1">
<use xlink:href="#surface5" mask="url(#mask0)"/>
<path style=" stroke:none;fill-rule:nonzero;fill:rgb(60%,34.901961%,18.039216%);fill-opacity:1;" d="M 26.515625 17.414062 C 22.085938 16.300781 18.164062 16.644531 13.671875 16.683594 C 10.03125 16.71875 6.390625 16.421875 3.464844 13.890625 C 1.054688 11.808594 -2.117188 5.726562 1.996094 3.65625 C 3.257812 3.019531 4.792969 3.625 6.042969 4.191406 C 8.5625 5.339844 11.183594 6.777344 13.347656 8.484375 C 17.621094 11.84375 22.300781 13.949219 26.515625 17.414062 Z M 26.515625 17.414062 "/>
<use xlink:href="#surface8" mask="url(#mask1)"/>
<path style=" stroke:none;fill-rule:nonzero;fill:rgb(60%,34.901961%,18.039216%);fill-opacity:1;" d="M 34.152344 15.359375 C 34.644531 14.96875 34.8125 14.402344 34.796875 13.628906 C 34.710938 9.867188 34.121094 6.246094 32.121094 2.957031 C 31.808594 2.441406 31.4375 1.855469 30.832031 1.613281 C 29.953125 1.261719 29.167969 1.585938 28.339844 2.074219 C 26.625 3.082031 25.734375 3.617188 23.945312 2.296875 C 22.789062 1.449219 22.03125 -0.03125 20.414062 0 C 19.441406 0.0195312 18.667969 0.714844 17.957031 1.378906 C 16.277344 2.941406 14.988281 4.710938 13.8125 6.773438 C 13.507812 7.304688 11.957031 11.265625 12.394531 11.53125 C 16.097656 13.789062 19.503906 14.242188 23.523438 15.210938 C 25.59375 15.710938 27.40625 15.925781 29.558594 16.042969 C 31.007812 16.125 32.851562 16.394531 34.152344 15.359375 Z M 34.152344 15.359375 "/>
<path style=" stroke:none;fill-rule:nonzero;fill:rgb(23.529412%,14.117647%,8.235294%);fill-opacity:1;" d="M 34.414062 15.179688 C 34.601562 14.453125 34.742188 13.71875 34.839844 12.976562 C 33.148438 13.296875 31.421875 13.421875 29.703125 13.351562 C 27.683594 13.269531 25.652344 12.878906 23.675781 12.46875 C 21.6875 12.058594 19.726562 11.523438 17.796875 10.890625 C 16.773438 10.554688 13.664062 9.574219 12.988281 8.789062 C 12.765625 9.417969 12.097656 11.171875 12.394531 11.53125 C 13.160156 12.476562 16.046875 13.28125 17.140625 13.636719 C 19.023438 14.253906 21.015625 14.792969 22.972656 15.089844 C 25.105469 15.414062 32.078125 16.199219 33.449219 16.253906 C 33.628906 16.261719 34.078125 16.332031 34.152344 16.085938 C 34.25 15.785156 34.335938 15.484375 34.414062 15.179688 Z M 34.414062 15.179688 "/>
<path style=" stroke:none;fill-rule:nonzero;fill:rgb(60%,34.901961%,18.039216%);fill-opacity:1;" d="M 21.097656 16.585938 C 26.742188 16.972656 32.480469 19.238281 38.265625 19.859375 C 42.703125 20.335938 46.894531 18.082031 46.988281 13.105469 C 47.007812 12.273438 46.800781 11.503906 46.222656 10.875 C 45.507812 10.09375 44.472656 9.773438 43.402344 9.742188 C 41.90625 9.699219 40.0625 9.964844 38.675781 10.390625 C 34.351562 11.714844 30.191406 13.191406 25.804688 14.113281 C 21.414062 15.03125 17.097656 16.273438 12.601562 16.46875 C 15.4375 16.738281 18.261719 16.503906 21.097656 16.589844 Z M 21.097656 16.585938 "/>
<use xlink:href="#surface11" mask="url(#mask2)"/>
</g>
</svg>
