<?xml version="1.0" encoding="UTF-8"?>
<svg xmlns="http://www.w3.org/2000/svg" xmlns:xlink="http://www.w3.org/1999/xlink" width="48px" height="px" viewBox="0 0 47 29" version="1.1">
<defs>
<filter id="alpha" filterUnits="objectBoundingBox" x="0%" y="0%" width="100%" height="100%">
  <feColorMatrix type="matrix" in="SourceGraphic" values="0 0 0 0 1 0 0 0 0 1 0 0 0 0 1 0 0 0 1 0"/>
</filter>
<mask id="mask0">
  <g filter="url(#alpha)">
<rect x="0" y="0" width="47" height="29" style="fill:rgb(0%,0%,0%);fill-opacity:0.180392;stroke:none;"/>
  </g>
</mask>
<clipPath id="clip1">
  <rect x="0" y="0" width="47" height="29"/>
</clipPath>
<g id="surface5" clip-path="url(#clip1)">
<path style=" stroke:none;fill-rule:nonzero;fill:rgb(0%,0%,0%);fill-opacity:1;" d="M 23.625 28.472656 C 25.644531 28.015625 27.625 27.417969 29.589844 26.773438 C 30.226562 26.566406 30.867188 26.1875 31.535156 26.085938 C 32.160156 25.992188 32.722656 26.402344 33.285156 26.667969 C 33.992188 27 34.707031 27.335938 35.472656 27.488281 C 37.335938 27.867188 39.570312 26.992188 41.070312 25.917969 C 41.253906 25.785156 42.164062 25.078125 42.324219 24.871094 C 42.324219 24.871094 41.824219 24.070312 41.625 23.796875 C 41.390625 23.472656 40.871094 23.945312 40.609375 23.644531 C 39.894531 22.832031 38.871094 22.238281 37.882812 21.839844 C 36.222656 21.164062 34.414062 20.945312 32.632812 20.75 C 28.304688 20.269531 23.945312 19.847656 19.597656 20.132812 C 18.070312 20.230469 16.546875 20.421875 15.042969 20.71875 C 14.277344 20.875 13.511719 21.058594 12.757812 21.273438 C 12.175781 21.441406 11.550781 21.765625 10.957031 21.835938 C 9.613281 22.019531 8.277344 21.976562 6.9375 22.210938 C 5.605469 22.441406 4.601562 23.503906 4.179688 24.769531 C 4.007812 25.292969 3.5 25.4375 3.808594 25.890625 C 4.03125 26.210938 4.882812 26.886719 5.230469 27.0625 C 8.378906 28.691406 11.992188 28.855469 15.460938 28.949219 C 18.265625 29.027344 20.839844 29.101562 23.625 28.472656 Z M 23.625 28.472656 "/>
</g>
<mask id="mask1">
  <g filter="url(#alpha)">
<rect x="0" y="0" width="47" height="29" style="fill:rgb(0%,0%,0%);fill-opacity:0.180392;stroke:none;"/>
  </g>
</mask>
<clipPath id="clip2">
  <rect x="0" y="0" width="47" height="29"/>
</clipPath>
<g id="surface8" clip-path="url(#clip2)">
<path style=" stroke:none;fill-rule:nonzero;fill:rgb(0%,0%,0%);fill-opacity:1;" d="M 43.054688 20.238281 C 43.28125 20.425781 43.503906 20.617188 43.722656 20.8125 C 44.417969 21.429688 45.101562 22.105469 45.46875 22.960938 C 45.703125 23.507812 45.789062 24.140625 45.65625 24.722656 C 45.492188 25.433594 45.125 25.664062 44.472656 25.890625 C 44.097656 26.019531 43.503906 26.160156 43.113281 26.210938 C 42.839844 25.679688 42.113281 24.488281 41.585938 23.765625 C 41.480469 23.621094 40.667969 23.691406 40.511719 23.601562 C 40.324219 23.496094 40.105469 23.484375 39.894531 23.476562 C 39.59375 23.460938 39.1875 23.511719 38.90625 23.40625 C 38.820312 23.375 38.082031 23.09375 38.085938 23.039062 C 38.078125 21.878906 37.914062 20.726562 37.957031 19.558594 C 37.976562 18.976562 37.957031 18.230469 38.214844 17.691406 C 38.484375 17.113281 39.285156 17.542969 39.6875 17.796875 C 40.867188 18.527344 41.992188 19.34375 43.054688 20.238281 Z M 43.054688 20.238281 "/>
</g>
<mask id="mask2">
  <g filter="url(#alpha)">
<rect x="0" y="0" width="47" height="29" style="fill:rgb(0%,0%,0%);fill-opacity:0.180392;stroke:none;"/>
  </g>
</mask>
<clipPath id="clip3">
  <rect x="0" y="0" width="47" height="29"/>
</clipPath>
<g id="surface11" clip-path="url(#clip3)">
<path style=" stroke:none;fill-rule:nonzero;fill:rgb(0%,0%,0%);fill-opacity:1;" d="M 31.539062 16.117188 C 32.464844 19.019531 32.800781 19.152344 33.066406 22.191406 C 33.1875 23.582031 32.816406 23.652344 33.246094 24.109375 C 33.476562 24.351562 33.761719 24.832031 34.046875 24.679688 C 34.226562 24.585938 34.261719 24.085938 34.265625 23.992188 C 34.375 22.125 34.25 20.78125 33.6875 19 C 33.128906 17.21875 32.660156 15.359375 31.847656 13.679688 C 31.382812 12.714844 30.664062 10.8125 30.09375 9.902344 C 29.808594 9.453125 29.519531 9.019531 29.289062 8.683594 C 29.117188 8.425781 28.691406 7.847656 28.375 7.472656 C 29.4375 9.605469 30.808594 13.820312 31.542969 16.117188 Z M 31.539062 16.117188 "/>
</g>
<mask id="mask3">
  <g filter="url(#alpha)">
<rect x="0" y="0" width="47" height="29" style="fill:rgb(0%,0%,0%);fill-opacity:0.180392;stroke:none;"/>
  </g>
</mask>
<clipPath id="clip4">
  <rect x="0" y="0" width="47" height="29"/>
</clipPath>
<g id="surface14" clip-path="url(#clip4)">
<path style=" stroke:none;fill-rule:nonzero;fill:rgb(0%,0%,0%);fill-opacity:1;" d="M 17.195312 21.808594 C 21.171875 22.710938 25.351562 22.75 29.320312 22.5625 C 20.441406 23.371094 18.023438 22.96875 11.269531 20.824219 C 8.835938 20.050781 5.597656 17.453125 5.925781 17.472656 C 6.210938 17.484375 7.292969 18.171875 7.496094 18.320312 C 8.578125 19.101562 9.726562 19.601562 10.816406 20.035156 C 12.972656 20.886719 14.933594 21.296875 17.195312 21.808594 Z M 17.195312 21.808594 "/>
</g>
<mask id="mask4">
  <g filter="url(#alpha)">
<rect x="0" y="0" width="47" height="29" style="fill:rgb(0%,0%,0%);fill-opacity:0.180392;stroke:none;"/>
  </g>
</mask>
<clipPath id="clip5">
  <rect x="0" y="0" width="47" height="29"/>
</clipPath>
<g id="surface17" clip-path="url(#clip5)">
<path style=" stroke:none;fill-rule:nonzero;fill:rgb(0%,0%,0%);fill-opacity:1;" d="M 6.875 13.34375 C 6.722656 14.078125 6.601562 14.878906 6.746094 15.597656 C 7.042969 15.023438 7.5 14.570312 7.773438 13.992188 C 8.917969 11.558594 10.425781 8.980469 12.222656 7.292969 C 13.921875 5.695312 16.1875 4.796875 18.289062 3.890625 C 17.066406 3.679688 13.757812 5.332031 13.195312 5.671875 C 11.535156 6.675781 9.746094 8.476562 8.503906 9.972656 C 7.792969 10.835938 7.105469 12.226562 6.871094 13.34375 Z M 6.875 13.34375 "/>
</g>
</defs>
<g id="surface1">
<use xlink:href="#surface5" mask="url(#mask0)"/>
<path style=" stroke:none;fill-rule:nonzero;fill:rgb(49.411765%,50.588235%,59.607843%);fill-opacity:1;" d="M 4.648438 20.851562 C 4.648438 20.851562 23.480469 24.691406 41.246094 24.296875 C 41.246094 24.296875 42.226562 5.234375 26.195312 2.984375 C 9.777344 0.683594 4.648438 20.851562 4.648438 20.851562 Z M 4.648438 20.851562 "/>
<path style=" stroke:none;fill-rule:nonzero;fill:rgb(49.411765%,50.588235%,59.607843%);fill-opacity:1;" d="M 8.90625 27.238281 C 19.441406 28.71875 23.082031 28.023438 32.980469 23.863281 C 25.125 23.605469 22.636719 23.277344 16.660156 22.226562 C 13.597656 21.6875 8.074219 19.746094 5.925781 17.472656 C 5.046875 17.703125 0.457031 18.667969 0.0546875 22.15625 C -0.289062 25.117188 5.992188 26.828125 8.90625 27.238281 Z M 8.90625 27.238281 "/>
<path style=" stroke:none;fill-rule:nonzero;fill:rgb(49.411765%,50.588235%,59.607843%);fill-opacity:1;" d="M 44.082031 19.039062 C 44.796875 19.550781 45.523438 20.066406 46.082031 20.746094 C 46.644531 21.425781 47.03125 22.300781 46.949219 23.179688 C 46.832031 24.464844 45.734375 25.488281 44.523438 25.90625 C 44.078125 26.058594 43.582031 26.179688 43.113281 26.210938 C 42.871094 25.742188 42.054688 24.414062 41.871094 24.175781 C 41.53125 23.738281 41.027344 23.546875 40.496094 23.5 C 39.996094 23.457031 39.394531 23.589844 38.921875 23.410156 C 38.835938 23.378906 38.09375 23.097656 38.09375 23.042969 C 38.085938 21.882812 37.917969 20.726562 37.957031 19.558594 C 37.984375 18.660156 38.054688 17.503906 38.714844 16.816406 C 40.214844 15.269531 42.867188 18.179688 44.082031 19.039062 Z M 44.082031 19.039062 "/>
<use xlink:href="#surface8" mask="url(#mask1)"/>
<path style=" stroke:none;fill-rule:nonzero;fill:rgb(28.627451%,29.803922%,40.392157%);fill-opacity:1;" d="M 18.382812 3.476562 C 19.113281 3.476562 20.003906 3.300781 20.753906 3.183594 C 21.5625 3.054688 22.421875 2.921875 23.246094 2.875 C 26.128906 2.738281 29.070312 3.726562 31.269531 5.625 C 31.269531 5.625 30.539062 6.546875 30.539062 6.546875 C 29.699219 5.949219 28.773438 5.453125 27.808594 5.058594 C 26.359375 4.476562 24.832031 4.097656 23.273438 4.09375 C 21.617188 4.035156 19.964844 4.359375 18.300781 4.035156 C 18.300781 4.035156 18.382812 3.476562 18.382812 3.476562 Z M 18.382812 3.476562 "/>
<path style=" stroke:none;fill-rule:nonzero;fill:rgb(49.411765%,50.588235%,59.607843%);fill-opacity:1;" d="M 34.136719 20.765625 C 33.734375 18.414062 31.214844 10.3125 27.410156 6.386719 C 27.277344 6.25 27.136719 6.058594 27.191406 5.871094 C 27.246094 5.699219 27.4375 5.625 27.609375 5.574219 C 28.929688 5.183594 30.25 5.101562 31.597656 4.90625 C 32.824219 4.730469 33.542969 5.21875 34.460938 6.023438 C 39.058594 10.058594 42.09375 15.25 43.199219 21.300781 C 43.375 22.277344 43.488281 22.863281 42.808594 23.578125 C 42.316406 24.09375 41.441406 24.5 40.824219 24.851562 C 39.488281 25.613281 37.972656 26.65625 36.59375 26.539062 C 35.742188 26.460938 34.878906 26.335938 34.105469 25.96875 C 33.285156 25.582031 32.691406 25.011719 32.371094 24.152344 C 32.996094 24.179688 33.621094 24.207031 34.246094 24.234375 C 34.25 24.234375 34.410156 22.367188 34.136719 20.765625 Z M 34.136719 20.765625 "/>
<use xlink:href="#surface11" mask="url(#mask2)"/>
<use xlink:href="#surface14" mask="url(#mask3)"/>
<path style=" stroke:none;fill-rule:nonzero;fill:rgb(49.411765%,50.588235%,59.607843%);fill-opacity:1;" d="M 16.460938 3.824219 C 14.390625 4.421875 12.585938 5.367188 10.917969 6.730469 C 8.703125 8.550781 6.960938 10.761719 6.242188 13.589844 C 6.023438 14.445312 6.09375 15.566406 6.660156 16.234375 C 6.53125 16.078125 8.992188 13.1875 9.214844 12.929688 C 10.054688 11.949219 11 9.910156 11.929688 9.015625 C 13.785156 7.234375 15.808594 5.667969 17.957031 4.261719 C 18.363281 3.992188 18.753906 3.722656 19.144531 3.425781 C 18.660156 3.28125 18.136719 3.386719 17.644531 3.507812 C 17.246094 3.605469 16.855469 3.707031 16.460938 3.820312 Z M 16.460938 3.824219 "/>
<use xlink:href="#surface17" mask="url(#mask4)"/>
<path style="fill:none;stroke-width:5.26;stroke-linecap:butt;stroke-linejoin:round;stroke:rgb(28.627451%,29.803922%,40.392157%);stroke-opacity:1;stroke-miterlimit:4;" d="M 140.472166 15.970636 C 137.243336 14.627074 133.57887 12.421606 134.219511 8.568373 C 134.552644 6.540356 135.98768 4.867241 137.858351 3.979984 C 144.751648 0.811207 147.980478 3.650431 152.977477 7.782516 C 159.050753 12.827209 163.278983 18.480307 166.354059 20.609725 C 184.855769 13.131412 190.032148 8.897926 194.798516 8.872575 C 197.617336 8.821875 200.513033 9.506331 202.691212 11.255496 C 209.738262 16.959294 203.178099 21.294181 196.822941 21.851886 C 177.475586 23.601051 158.615117 23.601051 140.472166 15.970636 Z M 140.472166 15.970636 " transform="matrix(0.152435,0,0,0.154091,0.040217,0)"/>
<path style="fill:none;stroke-width:5.26;stroke-linecap:round;stroke-linejoin:round;stroke:rgb(28.627451%,29.803922%,40.392157%);stroke-opacity:1;stroke-miterlimit:4;" d="M 119.997283 40.636395 C 131.17006 27.530334 149.031129 20.457624 166.149054 22.38424 C 165.072778 26.972629 168.250356 31.78917 171.530438 35.160749 C 174.810519 38.532328 179.115626 40.687096 183.318231 42.791164 " transform="matrix(0.152435,0,0,0.154091,0.040217,0)"/>
</g>
</svg>
