<?xml version="1.0" encoding="UTF-8"?>
<svg xmlns="http://www.w3.org/2000/svg" xmlns:xlink="http://www.w3.org/1999/xlink" width="48px" height="px" viewBox="0 0 47 25" version="1.1">
<defs>
<filter id="alpha" filterUnits="objectBoundingBox" x="0%" y="0%" width="100%" height="100%">
  <feColorMatrix type="matrix" in="SourceGraphic" values="0 0 0 0 1 0 0 0 0 1 0 0 0 0 1 0 0 0 1 0"/>
</filter>
<mask id="mask0">
  <g filter="url(#alpha)">
<rect x="0" y="0" width="47" height="25" style="fill:rgb(0%,0%,0%);fill-opacity:0.180392;stroke:none;"/>
  </g>
</mask>
<clipPath id="clip1">
  <rect x="0" y="0" width="47" height="25"/>
</clipPath>
<g id="surface5" clip-path="url(#clip1)">
<path style=" stroke:none;fill-rule:nonzero;fill:rgb(0%,0%,0%);fill-opacity:1;" d="M 21.492188 19.890625 C 26.222656 19.613281 30.949219 20.292969 35.667969 20.761719 C 36.5625 20.851562 37.515625 20.917969 38.316406 20.5 C 39.039062 20.117188 39.511719 19.398438 39.953125 18.707031 C 42.621094 14.515625 46.589844 7.15625 46.839844 7.828125 C 44.554688 13.285156 42.753906 17.652344 39.890625 24.519531 C 39.222656 25.445312 32.660156 23.332031 28.878906 22.894531 C 24.027344 22.335938 20.390625 22.621094 15.5625 23.363281 C 14.816406 23.476562 9.25 25.117188 8.667969 24.960938 C 7.808594 24.734375 9.015625 23.914062 9.535156 23.410156 C 10.410156 22.566406 12.144531 22.074219 13.25 21.628906 C 14.496094 21.128906 15.792969 20.75 17.105469 20.46875 C 18.546875 20.160156 20.015625 19.976562 21.488281 19.894531 Z M 21.492188 19.890625 "/>
</g>
</defs>
<g id="surface1">
<path style=" stroke:none;fill-rule:nonzero;fill:rgb(94.509804%,94.901961%,94.901961%);fill-opacity:1;" d="M 39.894531 24.515625 C 30.035156 20.117188 16.144531 20.109375 8.425781 24.707031 C 5.75 20.117188 2.953125 13.6875 0.253906 8.714844 C -0.269531 7.75 0.0429688 6.53125 0.972656 5.964844 C 13.582031 -1.691406 33.085938 -1.945312 45.953125 5.234375 C 46.859375 5.738281 47.242188 6.859375 46.839844 7.824219 L 39.890625 24.515625 Z M 39.894531 24.515625 "/>
<use xlink:href="#surface5" mask="url(#mask0)"/>
<path style=" stroke:none;fill-rule:nonzero;fill:rgb(92.941176%,10.980392%,14.117647%);fill-opacity:1;" d="M 32.207031 10.441406 C 32.207031 14.886719 28.664062 18.492188 24.292969 18.492188 C 19.925781 18.492188 16.382812 14.886719 16.382812 10.441406 C 16.382812 5.996094 19.925781 2.390625 24.292969 2.390625 C 28.664062 2.390625 32.207031 5.996094 32.207031 10.441406 Z M 32.207031 10.441406 "/>
<path style=" stroke:none;fill-rule:nonzero;fill:rgb(94.509804%,94.901961%,94.901961%);fill-opacity:1;" d="M 22.902344 4.773438 L 25.6875 4.773438 L 25.6875 16.105469 L 22.902344 16.105469 Z M 22.902344 4.773438 "/>
<path style=" stroke:none;fill-rule:nonzero;fill:rgb(94.509804%,94.901961%,94.901961%);fill-opacity:1;" d="M 29.863281 9.023438 L 29.863281 11.859375 L 18.726562 11.859375 L 18.726562 9.023438 Z M 29.863281 9.023438 "/>
</g>
</svg>
