<?xml version="1.0" encoding="UTF-8"?><svg xmlns="http://www.w3.org/2000/svg" xmlns:xlink="http://www.w3.org/1999/xlink" viewBox="0 0 1364.67 1364.67"><defs><style>.squig-1,.squig-2{fill:none;}.squig-3{fill:#b7eae8;}.squig-4{fill:url(#Ripple);mix-blend-mode:overlay;opacity:.35;}.squig-5{isolation:isolate;}.squig-2{stroke:#231f20;stroke-width:.75px;}</style><pattern id="Ripple" x="0" y="0" width="72" height="72" patternTransform="translate(195.12 1020.93) scale(27.04)" patternUnits="userSpaceOnUse" viewBox="0 0 72 72"><g><rect class="squig-1" width="72" height="72"/><path class="squig-2" d="M80.4,64.14s.96,4.06-2.92,4c-3.88-.06-3.94,1.87-3.13,4.29s-.18,4.62-3.34,4.57"/><g><path class="squig-2" d="M13.35,15.53s3.79-1.74,4.5,2.08c.71,3.82,2.61,3.5,4.82,2.23,2.21-1.28,4.56-.74,5.14,2.37"/><path class="squig-2" d="M66.04,28.74s-2.6,3.26-4.95,.18c-2.36-3.08-3.91-1.94-5.3,.19-1.4,2.14-3.74,2.72-5.66,.2"/><path class="squig-2" d="M39.03,29.05s-3.82-1.67-1.45-4.74c2.38-3.07,.87-4.28-1.55-5.08-2.42-.8-3.59-2.91-1.65-5.41"/><path class="squig-2" d="M41.14,24.82s4.08-.88,2.36-4.36c-1.72-3.48-.01-4.36,2.52-4.67,2.54-.3,4.1-2.14,2.69-4.98"/><path class="squig-2" d="M55.12,14.87s4.08-.88,2.36-4.36c-1.72-3.48-.01-4.36,2.52-4.67,2.54-.3,4.1-2.14,2.69-4.98"/><path class="squig-2" d="M27.39,34.19s3.68-1.96,1.07-4.84c-2.61-2.87-1.21-4.19,1.15-5.18,2.36-.99,3.35-3.18,1.23-5.53"/><path class="squig-2" d="M10.39,22.94s1.29,3.96-2.58,4.23c-3.87,.27-3.77,2.19-2.76,4.53,1.01,2.35,.21,4.62-2.94,4.84"/><path class="squig-2" d="M7.56,41.16s-2.02-3.65,1.72-4.64c3.75-1,3.29-2.87,1.85-4.97-1.44-2.11-1.09-4.5,1.97-5.31"/><path class="squig-2" d="M20.44,17s1.35-3.95,4.6-1.83c3.25,2.12,4.33,.52,4.93-1.96,.6-2.48,2.61-3.82,5.26-2.09"/><path class="squig-2" d="M12.33,44.48s-1.77-3.78,2.04-4.51c3.81-.73,3.48-2.63,2.19-4.83-1.29-2.2-.77-4.56,2.34-5.16"/><path class="squig-2" d="M24.03,38.67s-3.43-2.37-.51-4.93c2.92-2.56,1.68-4.03-.55-5.28-2.23-1.25-2.96-3.55-.58-5.63"/><path class="squig-2" d="M11.01,59.64s.3-4.16,3.99-2.94c3.69,1.22,4.32-.6,4.27-3.15-.05-2.55,1.55-4.36,4.56-3.36"/><path class="squig-2" d="M29.5,52.86s-.38,4.15-4.04,2.87c-3.66-1.29-4.33,.52-4.33,3.07,0,2.55-1.63,4.33-4.62,3.28"/><path class="squig-2" d="M19.67,27.31s-4.17,.18-3.38-3.62c.79-3.8-1.09-4.22-3.62-3.88-2.53,.34-4.5-1.04-3.86-4.14"/><path class="squig-2" d="M32.71,27.97s-1.49,3.89,2.37,4.35c3.85,.46,3.66,2.38,2.53,4.66-1.13,2.29-.44,4.6,2.7,4.98"/><path class="squig-2" d="M3.32,45.67s1.92,3.7,4.82,1.13c2.91-2.57,4.21-1.15,5.17,1.21,.96,2.37,3.14,3.39,5.51,1.29"/><path class="squig-2" d="M51.02,83.38s-1.86-3.73,1.93-4.56c3.79-.83,3.41-2.72,2.07-4.89-1.34-2.17-.88-4.54,2.21-5.21"/><path class="squig-2" d="M64.56,9.98s2.47,3.36-1.13,4.83c-3.59,1.46-2.9,3.26-1.2,5.17,1.7,1.91,1.64,4.32-1.29,5.51"/><path class="squig-2" d="M59.95,14.27s-4.09,.84-2.4,4.33c1.68,3.5-.04,4.36-2.58,4.64-2.54,.28-4.12,2.1-2.75,4.95"/><path class="squig-2" d="M17.08,.72s4.17,.2,3.04,3.91c-1.13,3.71,.71,4.31,3.26,4.19,2.55-.11,4.39,1.44,3.47,4.47"/><path class="squig-2" d="M39.44,15.71s-4.05-.99-2.23-4.42c1.82-3.43,.13-4.36-2.39-4.74-2.53-.38-4.04-2.26-2.55-5.05"/><path class="squig-2" d="M18.03,7.9s-3.97-1.27-4.22,2.6c-.25,3.87-2.17,3.78-4.52,2.78-2.35-1-4.62-.19-4.82,2.97"/><path class="squig-2" d="M8.4,64.14s.96,4.06-2.92,4c-3.88-.06-3.94,1.87-3.13,4.29s-.18,4.62-3.34,4.57"/><path class="squig-2" d="M70.32,33.48s-2.27,3.5-4.91,.65c-2.64-2.84-4.08-1.56-5.26,.7-1.19,2.26-3.46,3.07-5.61,.75"/><path class="squig-2" d="M50.38,1.6s.96,4.06-2.92,4c-3.88-.06-3.95,1.87-3.13,4.28,.81,2.42-.18,4.62-3.34,4.57"/><path class="squig-2" d="M43.88,31.8s-1.63-3.83,2.2-4.44c3.83-.6,3.57-2.51,2.35-4.76-1.21-2.25-.61-4.58,2.51-5.07"/><path class="squig-2" d="M74.88,33.61s-4.15-.44-2.81-4.08c1.34-3.64-.46-4.34-3.01-4.38-2.55-.03-4.3-1.7-3.21-4.67"/><path class="squig-2" d="M62.12,38.22s3.47-2.32,4.77,1.34c1.3,3.65,3.13,3.04,5.11,1.43,1.98-1.61,4.39-1.45,5.45,1.53"/><path class="squig-2" d="M71.68,62.73s-.76,4.1-4.29,2.48c-3.53-1.62-4.36,.12-4.59,2.66-.23,2.54-2.02,4.16-4.9,2.84"/><path class="squig-2" d="M28.78,43.96s4.13,.55,2.7,4.16c-1.44,3.61,.34,4.35,2.89,4.45,2.55,.1,4.25,1.81,3.08,4.75"/><path class="squig-2" d="M14.79,43.43s1.2,3.99,4.53,2.01c3.33-1.99,4.35-.36,4.85,2.15,.5,2.5,2.46,3.91,5.18,2.29"/><path class="squig-2" d="M1.79,60.01s1.2,3.99,4.53,2.01c3.33-1.99,4.35-.36,4.85,2.15,.5,2.5,2.46,3.91,5.18,2.29"/><path class="squig-2" d="M37.88,69.01s4.15-.36,2.89-4.03c-1.27-3.67,.54-4.33,3.09-4.31,2.55,.02,4.33-1.61,3.3-4.6"/><path class="squig-2" d="M34.49,60.09s3.21,2.66,.08,4.95c-3.13,2.29-2.02,3.87,.09,5.31,2.11,1.44,2.65,3.79,.1,5.66"/><path class="squig-2" d="M50.83,63.59s-3.37-2.46-.39-4.94c2.98-2.48,1.78-3.99-.42-5.29-2.19-1.31-2.88-3.62-.44-5.64"/><path class="squig-2" d="M55.94,59.43s2.82-3.07,4.95,.17c2.13,3.24,3.76,2.21,5.3,.18,1.54-2.03,3.92-2.45,5.66,.2"/><path class="squig-2" d="M40.17,32.48s4.16,.24,3,3.94c-1.16,3.7,.66,4.31,3.22,4.22,2.55-.09,4.38,1.49,3.43,4.5"/><path class="squig-2" d="M31.67,40.41s-.39,4.15,3.45,3.56c3.83-.59,4.16,1.3,3.69,3.81-.47,2.51,.81,4.55,3.94,4.07"/><path class="squig-2" d="M19.47,42.71s1.06-4.03,4.46-2.16c3.4,1.88,4.36,.21,4.78-2.31,.42-2.52,2.33-3.99,5.1-2.46"/><path class="squig-2" d="M1.21,13.18s4.16-.21,3.03-3.92c-1.14-3.71,.69-4.31,3.24-4.2,2.55,.11,4.39-1.46,3.46-4.48"/><path class="squig-2" d="M35.69,57.65s-3.82-1.68-4.46,2.15c-.64,3.83-2.55,3.54-4.78,2.3s-4.57-.66-5.1,2.46"/><path class="squig-2" d="M83.79,52.82s-1.59-3.86-4.71-1.55c-3.12,2.31-4.29,.78-5.04-1.66-.75-2.44-2.83-3.65-5.38-1.77"/><path class="squig-2" d="M67.72,48.84s-1.02,4.04-4.44,2.21c-3.42-1.84-4.36-.16-4.75,2.36-.39,2.52-2.28,4.02-5.07,2.52"/><path class="squig-2" d="M59.64,60.81s-.12,4.17-3.86,3.11c-3.73-1.06-4.29,.78-4.13,3.33,.16,2.55-1.37,4.42-4.41,3.55"/><path class="squig-2" d="M51.35,47.94s2.02-3.65,4.85-1c2.83,2.65,4.17,1.27,5.2-1.07,1.02-2.34,3.24-3.3,5.54-1.14"/><path class="squig-2" d="M41.29,59.08s-1.96-3.68,1.81-4.61c3.77-.93,3.34-2.81,1.93-4.94-1.4-2.13-1.01-4.51,2.06-5.27"/><path class="squig-2" d="M62.01,83.53s-1.29-3.96,2.58-4.23c3.87-.27,3.77-2.19,2.76-4.53-1.01-2.34-.21-4.62,2.95-4.84"/><path class="squig-2" d="M46.41,34.02s4.09-.81,3.89,3.06c-.2,3.88,1.72,4.01,4.17,3.28,2.45-.72,4.61,.34,4.45,3.5"/><path class="squig-2" d="M66.59,12.82s4.13-.53,3.67,3.32c-.46,3.85,1.45,4.12,3.94,3.56,2.49-.56,4.58,.65,4.2,3.8"/><path class="squig-2" d="M65.07,53.84s2.41,3.4,4.94,.45c2.52-2.95,4.01-1.73,5.28,.48,1.28,2.21,3.58,2.92,5.64,.52"/><path class="squig-2" d="M45.46,62.83s-3.72,1.88-1.18,4.81c2.54,2.93,1.11,4.22-1.26,5.15-2.38,.93-3.42,3.11-1.35,5.5"/><path class="squig-2" d="M28.23,80.31s-3.57-2.16-.81-4.89c2.76-2.73,1.43-4.12-.87-5.24-2.3-1.12-3.18-3.36-.92-5.59"/><path class="squig-2" d="M19.97,65.69s1.2,4-2.68,4.17c-3.88,.17-3.83,2.09-2.87,4.46,.95,2.37,.1,4.62-3.06,4.76"/></g><g><path class="squig-2" d="M2.88,33.61s-4.15-.44-2.81-4.08c1.34-3.64-.46-4.34-3.01-4.38-2.55-.03-4.3-1.7-3.21-4.67"/><path class="squig-2" d="M-9.88,38.22s3.47-2.32,4.77,1.34c1.3,3.65,3.13,3.04,5.11,1.43,1.98-1.61,4.39-1.45,5.45,1.53"/><path class="squig-2" d="M-.32,62.73s-.76,4.1-4.29,2.48c-3.53-1.62-4.36,.12-4.59,2.66-.23,2.54-2.02,4.16-4.9,2.84"/><path class="squig-2" d="M-16.06,59.43s2.82-3.07,4.95,.17c2.13,3.24,3.76,2.21,5.3,.18,1.54-2.03,3.92-2.45,5.66,.2"/><path class="squig-2" d="M11.79,52.82s-1.59-3.86-4.71-1.55c-3.12,2.31-4.29,.78-5.04-1.66-.75-2.44-2.83-3.65-5.38-1.77"/><path class="squig-2" d="M-5.41,12.82s4.13-.53,3.67,3.32c-.46,3.85,1.45,4.12,3.94,3.56,2.49-.56,4.58,.65,4.2,3.8"/><path class="squig-2" d="M-6.93,53.84s2.41,3.4,4.94,.45c2.52-2.95,4.01-1.73,5.28,.48,1.28,2.21,3.58,2.92,5.64,.52"/></g><path class="squig-2" d="M80.4-7.86s.96,4.06-2.92,4c-3.88-.06-3.94,1.87-3.13,4.29s-.18,4.62-3.34,4.57"/><g><path class="squig-2" d="M51.02,11.38s-1.86-3.73,1.93-4.56c3.79-.83,3.41-2.72,2.07-4.89-1.34-2.17-.88-4.54,2.21-5.21"/><path class="squig-2" d="M8.4-7.86s.96,4.06-2.92,4C1.6-3.92,1.54-1.99,2.35,.43s-.18,4.62-3.34,4.57"/><path class="squig-2" d="M34.49-11.91s3.21,2.66,.08,4.95c-3.13,2.29-2.02,3.87,.09,5.31,2.11,1.44,2.65,3.79,.1,5.66"/><path class="squig-2" d="M62.01,11.53s-1.29-3.96,2.58-4.23c3.87-.27,3.77-2.19,2.76-4.53-1.01-2.34-.21-4.62,2.95-4.84"/><path class="squig-2" d="M45.46-9.17s-3.72,1.88-1.18,4.81c2.54,2.93,1.11,4.22-1.26,5.15-2.38,.93-3.42,3.11-1.35,5.5"/><path class="squig-2" d="M28.23,8.31s-3.57-2.16-.81-4.89c2.76-2.73,1.43-4.12-.87-5.24-2.3-1.12-3.18-3.36-.92-5.59"/><path class="squig-2" d="M19.97-6.31s1.2,4-2.68,4.17c-3.88,.17-3.83,2.09-2.87,4.46,.95,2.37,.1,4.62-3.06,4.76"/></g></g></pattern></defs><g class="squig-5"><g id="Layer_2"><g id="Background"><g id="Bkgd-Squiggles"><rect id="Bkgd-Blank" class="squig-3" width="1364.67" height="1364.67"/><rect id="Bkgd-Blank-2" class="squig-4" width="1364.67" height="1364.67"/></g></g></g></g></svg>
