<?xml version="1.0" encoding="UTF-8"?><svg xmlns="http://www.w3.org/2000/svg" xmlns:xlink="http://www.w3.org/1999/xlink" viewBox="0 0 1364.67 1364.67"><defs><style>.dots-1{fill:none;}.dots-2{fill:#b7eae8;}.dots-3{fill:#231f20;}.dots-4{fill:url(#_10_dpi_40_);mix-blend-mode:overlay;opacity:.3;}.dots-5{isolation:isolate;}</style><pattern id="_10_dpi_40_" x="0" y="0" width="28.8" height="28.8" patternTransform="translate(211.19 204.64) scale(26.31)" patternUnits="userSpaceOnUse" viewBox="0 0 28.8 28.8"><g><rect class="dots-1" x="0" y="0" width="28.8" height="28.8"/><g><path class="dots-3" d="M28.8,31.68c1.59,0,2.88-1.29,2.88-2.88s-1.29-2.88-2.88-2.88-2.88,1.29-2.88,2.88,1.29,2.88,2.88,2.88Z"/><path class="dots-3" d="M14.4,31.68c1.59,0,2.88-1.29,2.88-2.88s-1.29-2.88-2.88-2.88-2.88,1.29-2.88,2.88,1.29,2.88,2.88,2.88Z"/><path class="dots-3" d="M28.8,17.28c1.59,0,2.88-1.29,2.88-2.88s-1.29-2.88-2.88-2.88-2.88,1.29-2.88,2.88,1.29,2.88,2.88,2.88Z"/><path class="dots-3" d="M14.4,17.28c1.59,0,2.88-1.29,2.88-2.88s-1.29-2.88-2.88-2.88-2.88,1.29-2.88,2.88,1.29,2.88,2.88,2.88Z"/><path class="dots-3" d="M7.2,24.48c1.59,0,2.88-1.29,2.88-2.88s-1.29-2.88-2.88-2.88-2.88,1.29-2.88,2.88,1.29,2.88,2.88,2.88Z"/><path class="dots-3" d="M21.6,24.48c1.59,0,2.88-1.29,2.88-2.88s-1.29-2.88-2.88-2.88-2.88,1.29-2.88,2.88,1.29,2.88,2.88,2.88Z"/><path class="dots-3" d="M7.2,10.08c1.59,0,2.88-1.29,2.88-2.88s-1.29-2.88-2.88-2.88-2.88,1.29-2.88,2.88,1.29,2.88,2.88,2.88Z"/><path class="dots-3" d="M21.6,10.08c1.59,0,2.88-1.29,2.88-2.88s-1.29-2.88-2.88-2.88-2.88,1.29-2.88,2.88,1.29,2.88,2.88,2.88Z"/></g><g><path class="dots-3" d="M0,31.68c1.59,0,2.88-1.29,2.88-2.88S1.59,25.92,0,25.92s-2.88,1.29-2.88,2.88S-1.59,31.68,0,31.68Z"/><path class="dots-3" d="M0,17.28c1.59,0,2.88-1.29,2.88-2.88S1.59,11.52,0,11.52s-2.88,1.29-2.88,2.88S-1.59,17.28,0,17.28Z"/></g><g><path class="dots-3" d="M28.8,2.88c1.59,0,2.88-1.29,2.88-2.88s-1.29-2.88-2.88-2.88-2.88,1.29-2.88,2.88,1.29,2.88,2.88,2.88Z"/><path class="dots-3" d="M14.4,2.88c1.59,0,2.88-1.29,2.88-2.88s-1.29-2.88-2.88-2.88-2.88,1.29-2.88,2.88,1.29,2.88,2.88,2.88Z"/></g><path class="dots-3" d="M0,2.88C1.59,2.88,2.88,1.59,2.88,0S1.59-2.88,0-2.88-2.88-1.59-2.88,0-1.59,2.88,0,2.88Z"/></g></pattern></defs><g class="dots-5"><g id="Layer_2"><g id="Background"><g id="Bkgd-Dots"><rect id="Bkgd-Blank" class="dots-2" width="1364.67" height="1364.67"/><rect id="Bkgd-Blank-2" class="dots-4" width="1364.67" height="1364.67"/></g></g></g></g></svg>
