<?xml version="1.0" encoding="UTF-8"?><svg xmlns="http://www.w3.org/2000/svg" xmlns:xlink="http://www.w3.org/1999/xlink" viewBox="0 0 1364.67 1364.67"><defs><style>.stripp-1,.stripp-2{fill:none;}.stripp-3{fill:#b7eae8;}.stripp-2{stroke:#221f20;stroke-width:6px;}.stripp-4{fill:url(#_6_lpi_50_);mix-blend-mode:overlay;opacity:.35;}.stripp-5{isolation:isolate;}</style><pattern id="_6_lpi_50_" x="0" y="0" width="72" height="72" patternTransform="translate(591.5 1330.16) rotate(-45) scale(23.25 23.2)" patternUnits="userSpaceOnUse" viewBox="0 0 72 72"><g><rect class="stripp-1" width="72" height="72"/><g><line class="stripp-2" x1="71.75" y1="66" x2="144.25" y2="66"/><line class="stripp-2" x1="71.75" y1="42" x2="144.25" y2="42"/><line class="stripp-2" x1="71.75" y1="18" x2="144.25" y2="18"/><line class="stripp-2" x1="71.75" y1="54" x2="144.25" y2="54"/><line class="stripp-2" x1="71.75" y1="30" x2="144.25" y2="30"/><line class="stripp-2" x1="71.75" y1="6" x2="144.25" y2="6"/></g><g><line class="stripp-2" x1="-.25" y1="66" x2="72.25" y2="66"/><line class="stripp-2" x1="-.25" y1="42" x2="72.25" y2="42"/><line class="stripp-2" x1="-.25" y1="18" x2="72.25" y2="18"/><line class="stripp-2" x1="-.25" y1="54" x2="72.25" y2="54"/><line class="stripp-2" x1="-.25" y1="30" x2="72.25" y2="30"/><line class="stripp-2" x1="-.25" y1="6" x2="72.25" y2="6"/></g><g><line class="stripp-2" x1="-72.25" y1="66" x2=".25" y2="66"/><line class="stripp-2" x1="-72.25" y1="42" x2=".25" y2="42"/><line class="stripp-2" x1="-72.25" y1="18" x2=".25" y2="18"/><line class="stripp-2" x1="-72.25" y1="54" x2=".25" y2="54"/><line class="stripp-2" x1="-72.25" y1="30" x2=".25" y2="30"/><line class="stripp-2" x1="-72.25" y1="6" x2=".25" y2="6"/></g></g></pattern></defs><g class="stripp-5"><g id="Layer_2"><g id="Background"><g id="Bkgd-Stripes"><rect id="Bkgd-Blank" class="stripp-3" width="1364.67" height="1364.67"/><rect id="Bkgd-Blank-2" class="stripp-4" width="1364.67" height="1364.67"/></g></g></g></g></svg>
