<?xml version="1.0" encoding="UTF-8"?><svg xmlns="http://www.w3.org/2000/svg" xmlns:xlink="http://www.w3.org/1999/xlink" viewBox="0 0 1364.67 1364.67"><defs><style>.griddd-1,.griddd-2{fill:none;}.griddd-3{fill:url(#Grid_1_pica_Lines);mix-blend-mode:overlay;opacity:.35;}.griddd-4{fill:#b7eae8;}.griddd-2{stroke:#231f20;stroke-width:.3px;}.griddd-5{isolation:isolate;}</style><pattern id="Grid_1_pica_Lines" x="0" y="0" width="72" height="72" patternTransform="translate(381.09 891.69) scale(16.72)" patternUnits="userSpaceOnUse" viewBox="0 0 72 72"><g><rect class="griddd-1" width="72" height="72"/><g><line class="griddd-2" x1="6" y1="71.75" x2="6" y2="144.25"/><line class="griddd-2" x1="30" y1="71.75" x2="30" y2="144.25"/><line class="griddd-2" x1="54" y1="71.75" x2="54" y2="144.25"/><line class="griddd-2" x1="18" y1="71.75" x2="18" y2="144.25"/><line class="griddd-2" x1="42" y1="71.75" x2="42" y2="144.25"/><line class="griddd-2" x1="66" y1="71.75" x2="66" y2="144.25"/></g><g><line class="griddd-2" x1="71.75" y1="66" x2="144.25" y2="66"/><line class="griddd-2" x1="71.75" y1="42" x2="144.25" y2="42"/><line class="griddd-2" x1="71.75" y1="18" x2="144.25" y2="18"/><line class="griddd-2" x1="71.75" y1="54" x2="144.25" y2="54"/><line class="griddd-2" x1="71.75" y1="30" x2="144.25" y2="30"/><line class="griddd-2" x1="71.75" y1="6" x2="144.25" y2="6"/></g><g><line class="griddd-2" x1="6" y1="-.25" x2="6" y2="72.25"/><line class="griddd-2" x1="30" y1="-.25" x2="30" y2="72.25"/><line class="griddd-2" x1="54" y1="-.25" x2="54" y2="72.25"/><line class="griddd-2" x1="-.25" y1="66" x2="72.25" y2="66"/><line class="griddd-2" x1="-.25" y1="42" x2="72.25" y2="42"/><line class="griddd-2" x1="-.25" y1="18" x2="72.25" y2="18"/><line class="griddd-2" x1="-.25" y1="54" x2="72.25" y2="54"/><line class="griddd-2" x1="-.25" y1="30" x2="72.25" y2="30"/><line class="griddd-2" x1="-.25" y1="6" x2="72.25" y2="6"/><line class="griddd-2" x1="18" y1="-.25" x2="18" y2="72.25"/><line class="griddd-2" x1="42" y1="-.25" x2="42" y2="72.25"/><line class="griddd-2" x1="66" y1="-.25" x2="66" y2="72.25"/></g><g><line class="griddd-2" x1="-72.25" y1="66" x2=".25" y2="66"/><line class="griddd-2" x1="-72.25" y1="42" x2=".25" y2="42"/><line class="griddd-2" x1="-72.25" y1="18" x2=".25" y2="18"/><line class="griddd-2" x1="-72.25" y1="54" x2=".25" y2="54"/><line class="griddd-2" x1="-72.25" y1="30" x2=".25" y2="30"/><line class="griddd-2" x1="-72.25" y1="6" x2=".25" y2="6"/></g><g><line class="griddd-2" x1="6" y1="-72.25" x2="6" y2=".25"/><line class="griddd-2" x1="30" y1="-72.25" x2="30" y2=".25"/><line class="griddd-2" x1="54" y1="-72.25" x2="54" y2=".25"/><line class="griddd-2" x1="18" y1="-72.25" x2="18" y2=".25"/><line class="griddd-2" x1="42" y1="-72.25" x2="42" y2=".25"/><line class="griddd-2" x1="66" y1="-72.25" x2="66" y2=".25"/></g></g></pattern></defs><g class="griddd-5"><g id="Layer_2"><g id="Background"><g id="Bkgd-Grid"><rect id="Bkgd-Blank" class="griddd-4" width="1364.67" height="1364.67"/><rect id="Bkgd-Blank-2" class="griddd-3" width="1364.67" height="1364.67"/></g></g></g></g></svg>
