<?xml version="1.0" encoding="UTF-8"?><svg xmlns="http://www.w3.org/2000/svg" xmlns:xlink="http://www.w3.org/1999/xlink" viewBox="0 0 1364.67 1364.67"><defs><style>.batss-1{fill:none;}.batss-2{fill:#662d91;}.batss-3{fill:url(#New_Pattern);mix-blend-mode:overlay;opacity:.3;}.batss-4{isolation:isolate;}</style><pattern id="New_Pattern" x="0" y="0" width="81" height="90" patternTransform="translate(4323.09 -832.38) rotate(-12) scale(5.89)" patternUnits="userSpaceOnUse" viewBox="0 0 81 90"><g><rect class="batss-1" width="81" height="90"/><path d="M21.73,15.77c.11-.09,.15-.24,.11-.37l-.33-1.04c1.53-.32,2.87,1.01,3.41,1.63,.14,.17,.4,.17,.53,0,.38-.47,.97-1.45,.8-2.74-.27-2.02-2.27-3.43-3.24-4.01-.23-.14-.23-.47,0-.6,1.87-1.04,8.36-3.99,14.55,1.05,.23,.19,.12,.57-.17,.61-1.01,.14-2.66,.6-3.4,2.19-.82,1.79,.15,3.32,.68,3.96,.14,.17,.09,.41-.09,.52-.69,.41-2.08,1.45-2.12,3.16-.04,1.42,.59,2.34,.97,2.78,.14,.16,.11,.4-.06,.52-.44,.31-1.14,.94-1.29,1.79-.1,.61,.08,1.25,.31,1.77,.13,.3-.16,.59-.46,.46-.52-.23-1.16-.41-1.77-.31-.86,.15-1.48,.85-1.79,1.29-.12,.17-.36,.2-.52,.06-.44-.39-1.36-1.01-2.78-.97-1.71,.05-2.75,1.43-3.16,2.12-.11,.19-.36,.23-.52,.09-.64-.52-2.17-1.5-3.96-.68-1.59,.73-2.06,2.39-2.19,3.4-.04,.3-.42,.41-.61,.17-5.04-6.18-2.1-12.67-1.05-14.55,.13-.24,.47-.24,.6,0,.57,.97,1.98,2.97,4.01,3.24,1.3,.17,2.27-.42,2.74-.8,.17-.14,.17-.39,0-.53-.62-.54-1.95-1.89-1.63-3.41l1.04,.33c.14,.04,.29,0,.38-.12,.35-.43,.78-.81,1.02-1.01Z"/><path d="M63.3,62.21c.09,.11,.24,.15,.37,.11l1.04-.33c.32,1.53-1.01,2.87-1.63,3.41-.17,.14-.17,.4,0,.53,.47,.38,1.45,.97,2.74,.8,2.02-.27,3.43-2.27,4.01-3.24,.14-.23,.47-.23,.6,0,1.04,1.87,3.99,8.36-1.05,14.55-.19,.23-.57,.12-.61-.17-.14-1.01-.6-2.66-2.19-3.4-1.79-.82-3.32,.15-3.96,.68-.17,.14-.41,.09-.52-.09-.41-.69-1.45-2.08-3.16-2.12-1.42-.04-2.34,.59-2.78,.97-.16,.14-.4,.11-.52-.06-.31-.44-.94-1.14-1.79-1.29-.61-.1-1.25,.08-1.77,.31-.3,.13-.59-.16-.46-.46,.23-.52,.41-1.16,.31-1.77-.15-.86-.85-1.48-1.29-1.79-.17-.12-.2-.36-.06-.52,.39-.44,1.01-1.36,.97-2.78-.05-1.71-1.43-2.75-2.12-3.16-.19-.11-.23-.36-.09-.52,.52-.64,1.5-2.17,.68-3.96-.73-1.59-2.39-2.06-3.4-2.19-.3-.04-.41-.42-.17-.61,6.18-5.04,12.67-2.1,14.55-1.05,.24,.13,.24,.47,0,.6-.97,.57-2.97,1.98-3.24,4.01-.17,1.3,.42,2.27,.8,2.74,.14,.17,.39,.17,.53,0,.54-.62,1.89-1.95,3.41-1.63l-.33,1.04c-.04,.14,0,.29,.12,.38,.43,.35,.81,.78,1.01,1.02Z"/><path d="M66.77,17.89l2.79-1.47c.78-.41,1.69,.25,1.54,1.12l-.53,3.11c-.06,.34,.06,.7,.31,.94l2.26,2.2c.63,.62,.28,1.69-.59,1.81l-3.12,.45c-.35,.05-.65,.27-.8,.58l-1.4,2.83c-.39,.79-1.52,.79-1.91,0l-1.4-2.83c-.15-.31-.45-.53-.8-.58l-3.12-.45c-.87-.13-1.22-1.2-.59-1.81l2.26-2.2c.25-.24,.36-.6,.31-.94l-.53-3.11c-.15-.87,.76-1.53,1.54-1.12l2.79,1.47c.31,.16,.68,.16,.99,0Z"/><path d="M16.91,60.92l.46-2.18c.13-.61,.9-.81,1.31-.33l1.45,1.69c.16,.19,.4,.28,.65,.26l2.22-.24c.62-.07,1.05,.61,.72,1.14l-1.16,1.9c-.13,.21-.15,.47-.04,.7l.91,2.04c.25,.57-.25,1.18-.86,1.04l-2.17-.52c-.24-.06-.49,0-.68,.17l-1.66,1.5c-.46,.42-1.2,.12-1.25-.5l-.18-2.22c-.02-.25-.16-.47-.37-.59l-1.93-1.11c-.54-.31-.49-1.11,.09-1.34l2.06-.86c.23-.1,.4-.3,.45-.54Z"/></g></pattern></defs><g class="batss-4"><g id="Layer_2"><g id="Background"><g id="Bkgd-Bats"><rect id="Bkgd-Blank" class="batss-2" y="0" width="1364.67" height="1364.67"/><rect class="batss-3" y="0" width="1364.67" height="1364.67"/></g></g></g></g></svg>
