<?xml version="1.0" encoding="UTF-8"?><svg id="Layer_2" xmlns="http://www.w3.org/2000/svg"><defs><style>.logo123-1{fill:#0a0c1b;}</style></defs><g id="Background"><g id="Logo_Black"><g id="Layer_2-2"><g id="Logos"><path class="logo123-1" d="M109.02,97.01h3.58l16.4,23.31h.2v-23.31h3.54v29.22h-3.58l-16.4-23.31h-.2v23.31h-3.54v-29.22Z"/><path class="logo123-1" d="M137.71,97.01h3.95l11.35,24.67,11.37-24.67h3.93v29.22h-3.54v-22.18h-.2l-10.21,22.18h-2.68l-10.2-22.2h-.2v22.2h-3.56v-29.22Z"/><path class="logo123-1" d="M172.07,119.54l2.93-1.36c.79,3.13,3.65,5.29,6.88,5.19,3.09,0,5.74-1.69,5.74-5.02,0-3.01-2.14-4.33-5.56-5.69l-1.91-.74c-4.28-1.73-6.88-4.12-6.88-7.91,0-4.53,3.67-7.41,8.41-7.41,3.96-.13,7.54,2.34,8.81,6.09l-2.72,1.4c-1.15-2.63-3.05-4.24-6.02-4.24-2.8,0-4.94,1.56-4.94,4.2,0,2.06,1.24,3.67,4.7,5.02l1.98,.78c4.78,1.91,7.78,4.04,7.78,8.52,0,5.4-4.46,8.29-9.39,8.29s-8.82-2.93-9.81-7.13Z"/><path class="logo123-1" d="M0,111.63c0-8.93,6.88-15.03,15.16-15.03s15.15,6.09,15.15,15.03-6.92,15.04-15.15,15.04S0,120.57,0,111.63Zm23.59,0c0-5.39-3.83-8.86-8.44-8.86s-8.45,3.46-8.45,8.86,3.83,8.86,8.45,8.86,8.44-3.46,8.44-8.86Z"/><path class="logo123-1" d="M57.02,115.54c0,7.46-5.36,11.13-10.2,11.13-3.79,0-6.01-2.06-6.38-2.84h-.12v10.26h-6.38v-29.25h6.38v2.44h.12c.33-.78,2.55-2.84,6.38-2.84,4.82,0,10.2,3.67,10.2,11.12Zm-6.26,0c-.08-2.92-2.51-5.22-5.44-5.14-2.92,.08-5.22,2.51-5.14,5.44,.08,2.87,2.43,5.15,5.31,5.14,2.87,.05,5.23-2.24,5.28-5.11,0-.11,0-.22,0-.33Z"/><path class="logo123-1" d="M80.25,118.02h-15.22c.86,2.31,3,3.46,5.85,3.46,1.86,.06,3.67-.53,5.15-1.65l2.88,3.01c-1.77,2.23-4.82,3.83-8.73,3.83-5.93,0-11.28-4.04-11.28-11.08s5.39-11.16,10.91-11.16,11.8,3.79,10.44,13.6Zm-15.36-4.57h9.77c-.46-2.47-2.64-3.67-4.78-3.67-2.32-.11-4.4,1.42-4.99,3.67Z"/><path class="logo123-1" d="M104.11,113.65v12.59h-6.38v-11.48c0-2.68-1.36-4.66-4-4.66s-3.95,1.98-3.95,4.66v11.48h-6.38v-21.42h6.38v2.72c1.19-1.81,3.3-3.13,6.38-3.13,4.28,.02,7.95,2.7,7.95,9.24Z"/><path class="logo123-1" d="M78.63,43.74c-4.92-5.28-9.37-10.97-13.31-17.01-1.33-2.07-2.52-4.23-3.54-6.46-7.55,14.13-5.53,31.47,5.06,43.49,.44-4.14,4.85-11.56,11.8-20.02Z"/><path class="logo123-1" d="M90.28,55.38c-8.45,6.96-15.87,11.35-20.02,11.8,12.03,10.59,29.37,12.61,43.5,5.05-3.28-1.53-6.42-3.36-9.37-5.46-4.95-3.48-9.67-7.29-14.12-11.39Z"/><path class="logo123-1" d="M100.99,21.38c8.45-6.95,15.87-11.35,20.02-11.8-12.03-10.59-29.37-12.6-43.5-5.04,3.28,1.53,6.41,3.36,9.37,5.45,4.95,3.48,9.67,7.29,14.12,11.39Z"/><path class="logo123-1" d="M124.43,13.01c-.44,4.14-4.85,11.57-11.8,20.03,4.91,5.28,9.37,10.97,13.31,17.01,1.33,2.07,2.52,4.23,3.54,6.46,7.55-14.14,5.54-31.47-5.06-43.5Z"/><path class="logo123-1" d="M95.63,26.01h0c-13.2-11.92-25.11-18.78-28.13-15.75-3.5,3.51,6.25,18.94,21.79,34.48,2.13,2.13,4.25,4.14,6.34,6.03V26.01Z"/><path class="logo123-1" d="M108.01,38.39h0c-1.91,2.09-3.9,4.21-6.03,6.34s-4.25,4.14-6.34,6.03c13.2,11.92,25.11,18.78,28.13,15.75s-3.84-14.94-15.76-28.13Z"/></g></g></g></g></svg>
