<?xml version="1.0" encoding="UTF-8"?><svg id="Layer_2" xmlns="http://www.w3.org/2000/svg" viewBox="0 0 1364.67 1364.67"><defs><style>.haunt-1,.haunt-2{fill:#f7f0d2;}.haunt-3{fill:#734e9b;}.haunt-4{fill:#221647;}.haunt-5{fill:#3e276b;}.haunt-6{fill:#63428e;}.haunt-7{fill:#4b307a;}.haunt-2{opacity:.4;}</style></defs><g id="Background"><g id="Scene-HauntedHouse"><path class="haunt-5" d="M1364.67,1364.67V0H0V1364.67H1364.67Z"/><path class="haunt-6" d="M1283.98,799.13c-2.95-.22-5.89-.45-8.84-.67,1.61-25.75,.45-51.67-3.5-77.16-3.13-20.21-14.12-40.98-35.89-46.71-41.99-11.05-59.29,38.82-59.91,70.06-.3,15.2,.77,30.51-.13,45.64-1.03-.09-2.05-.18-3.08-.27-69.68-6.3-139.02-14.24-208.5-20.79-54.91-5.18-109.46-14.84-162.71-29.25-36.97-10.01-73.32-22.3-108.73-36.99-85.57-35.48-161.06-90.34-245.1-128.91-45.58-20.92-94.66-37.37-144.49-46.56-28.54-5.26-57.33-8.13-85.85-8.09-.24,2.8-.51,5.59-.84,8.38l-31.12,1.04c-.78-2.63-1.47-5.28-2.11-7.94-29.77,2.58-59.01,8.64-87.1,18.8-12.1,4.37-23.99,9.49-35.62,15.43-21.93,11.2-42.71,25.49-60.48,42.59v417.32c16.94-1.53,38.25-3.54,62.35-5.83,80.19-.93,526.13-45.92,577.47-74.48,71.17-13.49,142.27-27.16,212.23-46.6,71.6-19.89,242.45-32.49,316.38-24.93,71,7.26,135.94,31.85,191.42,76.75,1.61,1.3,3.21,2.61,4.81,3.94v-141.7c-29.43-1.88-73.85-2.57-80.69-3.07Z"/><path class="haunt-6" d="M361.7,908.99c-.96,23.71-2.03,49.9-3,72.98,25.72-2.95,50.94-6.32,76.14-10.1-.97-1.11-1.94-2.21-2.91-3.31-20.41-23.08-44.18-43.13-70.23-59.58Z"/><path class="haunt-3" d="M263.02,829.87c7.43-8.62,12.92-18.8,20.75-27.28,12.63-13.69,16.18-12.52,27.61,1.77,5.01,6.27,9.66,19.44,15.87,23.87,7.02,5.02,28.8,7.2,37.35,8.85,0,0-1.28,32.53-2.88,71.91,26.05,16.44,49.82,36.5,70.23,59.58,.97,1.09,1.93,2.2,2.91,3.31,44.12-6.62,88.2-14.52,134.8-23.68,23.38-4.6,46.78-9.01,70.18-13.45-16.82-16.46-36.51-36.9-41.22-40.58-25.63-20-53.14-37.6-82.04-52.5-56.86-29.31-119.03-48.71-181.33-60.95-21.48-4.22-44.52-9.29-59.24-25.49-21.77-23.95-16.47-60.79-14.75-93.11,1.29-24.35-.12-50.87-8.14-74.1-5.38-15.59-14.39-40.68-28.63-50.17-12.66-8.44-29.39-5.93-44.34-3.1,3.9-.74,15.97,22.85,17.64,26.17,8.45,16.77,11.88,32.84,12.02,48.6,.27,31.47-12.59,61.71-24.77,93.82-11.7,30.84-19.52,66.04-6.17,96.2,8.01,18.09,22.86,32.32,38.96,43.81,3.92,2.8,7.94,5.34,12.03,7.7,.1-2.81,.21-5.62,.3-8.41,10.79-3.08,25.65-4.36,32.88-12.75Z"/><path class="haunt-4" d="M658.65,1070.06c-223.79-7.11-450.54,25.08-658.65,106.54v188.06H1364.67v-158.41c-228.15-76.75-465.59-128.56-706.02-136.19Z"/><path class="haunt-5" d="M1204.54,385.47c62.48,0,119.06-25.23,160.13-66.05v-48.19c-35.48,50.21-93.97,83.01-160.13,83.01-71.68,0-134.35-38.49-168.51-95.93-4.27,.74-8.3,2.41-11.57,5.04-2.38,1.91-4.22,4.26-5.62,6.97-.12-.02-.23-.04-.35-.05,.02-2.77-.1-5.55,.07-8.31,.52-8.54,2.89-16.56,6.87-24.1-10.81-24.31-16.83-51.23-16.83-79.55,0-65.04,31.7-122.67,80.48-158.31h-47.44c-39.77,40.91-64.27,96.74-64.27,158.31,0,125.46,101.7,227.16,227.16,227.16Z"/><path class="haunt-2" d="M1204.54,385.47c62.48,0,119.06-25.23,160.13-66.05v-48.19c-35.48,50.21-93.97,83.01-160.13,83.01-71.68,0-134.35-38.49-168.51-95.93-4.27,.74-8.3,2.41-11.57,5.04-2.38,1.91-4.22,4.26-5.62,6.97-.12-.02-.23-.04-.35-.05,.02-2.77-.1-5.55,.07-8.31,.52-8.54,2.89-16.56,6.87-24.1-10.81-24.31-16.83-51.23-16.83-79.55,0-65.04,31.7-122.67,80.48-158.31h-47.44c-39.77,40.91-64.27,96.74-64.27,158.31,0,125.46,101.7,227.16,227.16,227.16Z"/><path class="haunt-5" d="M1364.67,45.38V0h-44.68c17.24,12.6,32.35,27.93,44.68,45.38Z"/><path class="haunt-2" d="M1364.67,45.38V0h-44.68c17.24,12.6,32.35,27.93,44.68,45.38Z"/><path class="haunt-5" d="M1364.67,86.07V45.38c-12.33-17.45-27.44-32.78-44.68-45.38h-39.31c37.12,17.89,66.99,48.45,83.99,86.07Z"/><path class="haunt-2" d="M1364.67,86.07V45.38c-12.33-17.45-27.44-32.78-44.68-45.38h-39.31c37.12,17.89,66.99,48.45,83.99,86.07Z"/><path class="haunt-2" d="M1364.67,86.07V45.38c-12.33-17.45-27.44-32.78-44.68-45.38h-39.31c37.12,17.89,66.99,48.45,83.99,86.07Z"/><path class="haunt-5" d="M1204.54,333.93c-54.42,0-103.05-24.75-135.27-63.61-.5,.38-.99,.77-1.48,1.17-.37,.3-.73,.62-1.18,1-2.06-3.58-4.63-6.53-7.83-8.94-6.43-4.85-15-6.59-22.76-5.24,34.16,57.43,96.83,95.93,168.51,95.93,66.16,0,124.65-32.79,160.13-83.01v-40.69c-27.55,60.97-88.88,103.39-160.13,103.39Z"/><path class="haunt-2" d="M1204.54,333.93c-54.42,0-103.05-24.75-135.27-63.61-.5,.38-.99,.77-1.48,1.17-.37,.3-.73,.62-1.18,1-2.06-3.58-4.63-6.53-7.83-8.94-6.43-4.85-15-6.59-22.76-5.24,34.16,57.43,96.83,95.93,168.51,95.93,66.16,0,124.65-32.79,160.13-83.01v-40.69c-27.55,60.97-88.88,103.39-160.13,103.39Z"/><path class="haunt-2" d="M1204.54,333.93c-54.42,0-103.05-24.75-135.27-63.61-.5,.38-.99,.77-1.48,1.17-.37,.3-.73,.62-1.18,1-2.06-3.58-4.63-6.53-7.83-8.94-6.43-4.85-15-6.59-22.76-5.24,34.16,57.43,96.83,95.93,168.51,95.93,66.16,0,124.65-32.79,160.13-83.01v-40.69c-27.55,60.97-88.88,103.39-160.13,103.39Z"/><path class="haunt-5" d="M1008.6,158.31c0,28.32,6.02,55.24,16.83,79.55,.15-.29,.29-.59,.45-.88,3.59-6.53,8.71-11.45,14.82-15.29-7.61-19.66-11.8-41.03-11.8-63.38,0-69.71,40.62-129.94,99.48-158.31h-39.31c-48.78,35.64-80.48,93.27-80.48,158.31Z"/><path class="haunt-2" d="M1008.6,158.31c0,28.32,6.02,55.24,16.83,79.55,.15-.29,.29-.59,.45-.88,3.59-6.53,8.71-11.45,14.82-15.29-7.61-19.66-11.8-41.03-11.8-63.38,0-69.71,40.62-129.94,99.48-158.31h-39.31c-48.78,35.64-80.48,93.27-80.48,158.31Z"/><path class="haunt-2" d="M1008.6,158.31c0,28.32,6.02,55.24,16.83,79.55,.15-.29,.29-.59,.45-.88,3.59-6.53,8.71-11.45,14.82-15.29-7.61-19.66-11.8-41.03-11.8-63.38,0-69.71,40.62-129.94,99.48-158.31h-39.31c-48.78,35.64-80.48,93.27-80.48,158.31Z"/><path class="haunt-1" d="M1028.91,158.31c0,22.35,4.18,43.72,11.8,63.38,1.2-.76,2.43-1.49,3.71-2.17,2.7-1.43,5.58-2.5,8.38-3.75,.78-.35,1.29-.16,1.99,.38,10.94,8.43,22.66,15.04,36.98,15.26,3.3,.05,6.62-.08,9.61-1.68,1.3-.7,2.52-1.66,3.55-2.72,1.89-1.97,2.4-4.31,1.16-6.86-2.36-4.83-4.73-9.64-7.09-14.46-.15-.31-.29-.64-.44-.96,.06-.04,.11-.09,.17-.13,1.7,1.61,3.38,3.24,5.12,4.81,4.02,3.64,5.64,3.78,10.52,1.42,2.59-1.25,3.99-3.11,4.03-6.01,.04-3.58,.15-7.17,.23-10.85,.77,1.82,1.53,3.6,2.28,5.39,1.48,3.54,3.21,6.93,5.68,9.89,.91,1.08,1.95,2.07,3,3.01,3.86,3.45,8.13,4.34,13.07,2.41,12.32-4.82,22.32-12.51,29.61-23.58,3.47-5.27,5.4-11.07,5.37-17.45,0-.22,.02-.43,.04-.72,9.88-.58,19.67-1.03,28.92,3.35,8.97,4.25,15.89,10.77,21.07,19.18,.16,.26,.31,.54,.45,.81,.06,.11,.08,.24,.12,.39-1.76-.03-3.52-.26-5.23-.05-9.37,1.15-16.83,5.42-21.56,13.79-2.49,4.4-2.86,9.18-1.85,14.09,.08,.39,.16,.78,.24,1.17,0,.03-.04,.07-.11,.18-.21-.03-.47-.03-.71-.1-7.69-2.13-14.85-.51-21.73,3.09-4.89,2.55-9.11,5.85-11.91,10.71-2.94,5.11-3.53,10.63-2.76,16.37,.06,.43,.12,.87,.19,1.43-2.82-.34-5.46-.13-8,.98-2.43,1.06-4.23,2.73-5.34,5.14-2.23,4.84-2.48,9.94-1.97,15.13,.03,.26,.06,.53,.08,.79,0,.08-.04,.17-.12,.45-.72-.67-1.41-1.24-2.03-1.88-3.42-3.56-7.65-5.52-12.44-6.48-5.85-1.18-10.79,.33-14.83,4.74-.15,.16-.3,.31-.56,.59-.42-.52-.78-1-1.18-1.44-2.23-2.47-4.36-5.03-6.73-7.36-4.77-4.69-10.78-5.84-17.2-5.72-8.69,.16-16.41,2.89-23.22,8.07,32.21,38.86,80.85,63.61,135.27,63.61,71.25,0,132.58-42.42,160.13-103.39V86.07c-17-37.62-46.86-68.18-83.99-86.07h-152.29c-58.86,28.36-99.48,88.59-99.48,158.31Z"/><path class="haunt-7" d="M1359.86,939.97c-55.48-44.9-120.42-69.5-191.42-76.75-73.93-7.56-244.78,5.04-316.38,24.93-69.96,19.44-141.06,33.11-212.23,46.6-23.4,4.44-46.8,8.85-70.18,13.45-46.6,9.16-90.68,17.06-134.8,23.68-25.21,3.78-50.43,7.15-76.14,10.1,.97-23.08,2.04-49.27,3-72.98,1.59-39.38,2.88-71.91,2.88-71.91-8.55-1.64-30.32-3.82-37.35-8.85-6.2-4.44-10.85-17.61-15.87-23.87-11.42-14.29-14.97-15.46-27.61-1.77-7.83,8.48-13.32,18.66-20.75,27.28-7.23,8.39-22.09,9.67-32.88,12.75-.09,2.8-.2,5.61-.3,8.41-1.74,47.45-5.1,96.25-6.26,143.28-16.88,1.48-33.88,3.01-50.68,4.55-3.92-18.95-6.36-38.25-11.63-56.87-6.82-24.08-13.45-48.04-35.23-60.38-43.1-24.42-83.36,15.8-77.49,59.78,3.06,22.89,7.67,45.57,13.8,67.83-24.1,2.28-45.41,4.3-62.35,5.83v161.55c208.11-81.46,434.86-113.65,658.65-106.54,240.43,7.64,477.86,59.45,706.02,136.19v-262.35c-1.6-1.32-3.2-2.64-4.81-3.94Z"/><path class="haunt-6" d="M344.92,350.22c-22.7,10.96-67.75,17.14-99.78,14.59,2.25-21.19,5.23-42.23,9.92-63.05,13.8,.27,26.4,.61,36.6,.99-33.53-13.7-69.88-88.27-89.23-146.66-18.8,54.88-64.29,132.62-92.12,147.8,5.55-.99,16.45-1.68,30.48-2.12,3.51,16.54,8.54,39.12,11.93,63.75-31.46,1.98-85.03-4.77-104.55-13.94,11.18,22.99,11.55,50.96,.99,74.24,10.5-1.56,21.3-1.04,31.62,1.43,8.2,37.5,15.08,73.47,15.32,112.45,28.09-10.15,57.33-16.21,87.1-18.8-2.54-10.58-3.97-21.42-4.22-32.3-.15-6.43,.13-12.98,2.17-19.08,3.21-9.58,14.08-15.95,24.81-11.89,13.24,5.01,11.59,20.34,12.02,31.6,.38,10.06,.14,20.15-.71,30.19,28.52-.03,57.31,2.83,85.85,8.09,4.11-33.41,9.62-66.8,16.88-99.99,8.84-2.26,18.02-3.48,26.72-4.02-11.03-15.52-6.01-54.72-1.8-73.3Zm-168.97-56.1c0-12.48,10.12-22.6,22.6-22.6s22.6,10.12,22.6,22.6c0,2.49-.41,4.89-1.16,7.14-2.99,8.98-11.46,15.46-21.44,15.46s-18.52-6.53-21.48-15.56c-.73-2.22-1.13-4.58-1.13-7.04Zm-54.1,192.92c-2.91-18.04-2.45-36.35-5.86-54.17,2.8,.08,33.96-4.55,33.96-4.55,.56,4.81-.91,56.36,.19,56.49-9.46-1.08-19.12-.32-28.29,2.23Zm156.02-2.74c-9.94-.06-19.87-.13-29.81-.19,1.3-5.42,2.33-48.65,2.32-53.16,0-.67,9.34-.72,18.33-.65,7.55,.06,14.86,.2,16.15,.13-.75,3.16-1.41,6.28-2.04,9.4-2.96,14.71-4.63,29.16-4.95,44.47Z"/><path class="haunt-5" d="M217.98,489.24c-.43-11.26,1.22-26.59-12.02-31.6-10.72-4.06-21.6,2.31-24.81,11.89-2.04,6.1-2.32,12.65-2.17,19.08,.25,10.88,1.68,21.72,4.22,32.3,.64,2.66,1.33,5.31,2.11,7.94l31.12-1.04c.33-2.79,.61-5.58,.84-8.38,.85-10.04,1.09-20.12,.71-30.19Z"/><path class="haunt-6" d="M297.03,170.08c3.28,.98,6.76,.97,10.19,.94,9.5-.07,19.01-.08,28.51-.07,46.72,.06,93.52,.78,140.47-.59,19.02-.55,38.15,.79,57.17,.91,12.38,.08,24.78,.03,37.14-.6,7.51-.38,27.88,1.63,23.23-11.36-1.02-2.84-3.17-5.13-5.57-6.96-8.2-6.27-18.76-7.43-28.76-7.46-2.42,0-22.62-.47-22.92,1.82,.58-4.37-1.27-8.99-4.72-11.74-3.45-2.75-8.37-3.53-12.5-1.98,3-5.1,.48-12.2-4.46-15.45-4.94-3.25-11.49-3.18-17.09-1.26-5.59,1.93-10.45,5.49-15.21,9,1.14-10.77-7.82-21.69-19.05-19.41-4.99,1.01-9.34,3.95-13.54,6.83-.83-11.19-11.05-20.88-22.27-21.1-11.22-.23-21.82,9.05-23.09,20.19-5.65-5.77-13.23-10.01-21.3-10.27-8.08-.26-16.49,4.03-19.81,11.4-3.32,7.37-.23,17.38,7.21,20.51-10.91-4.6-19.14-7.06-30.8-8.68-4.19-.58-9.16-.16-11.57,3.32-2.2,3.19-1.2,7.76,1.28,10.74,2.48,2.98,6.09,4.73,9.59,6.39-6.18-2.93-23.8,.61-30.64,1.24-5.01,.46-10.21,1.3-14.32,4.21-4.11,2.91-6.75,8.46-4.85,13.12,1.29,3.17,4.4,5.32,7.68,6.3Z"/><path class="haunt-6" d="M887.28,274.5c3.76-.07,7.74-2.96,7.54-6.72-.19-3.52-3.69-5.86-6.94-7.24-11.43-4.88-24.71-5.25-36.39-1.01,3.59-5.94-1.79-14.03-8.49-15.82-5.83-1.56-12.71,.24-18.33,1.6-1.08-8.04-1.81-18.58-11.48-21.91-6.98-2.41-15.23,1.15-18.98,7.37,1.56-8.24-4.91-17.98-13.62-18.19-10.35-.26-18.2,13.06-12.97,21.99-4.81-5.62-10.61-10.87-17.79-12.68s-15.91,.88-18.99,7.61c-2.17,4.75,.36,10.75,3.43,14.33-8.73-2.11-18.89-5.75-27.26,0-3.72,2.55-6.31,6.55-10.16,8.88-5.66,3.42-12.8,2.63-19.3,3.88-6.5,1.25-13.52,6.8-11.68,13.15,29.42,7.85,213.86,4.9,221.4,4.77Z"/><path class="haunt-4" d="M1058.78,263.55c3.2,2.41,5.77,5.36,7.83,8.94,.45-.38,.81-.69,1.18-1,.49-.4,.98-.79,1.48-1.17,6.81-5.18,14.52-7.92,23.22-8.07,6.42-.12,12.43,1.04,17.2,5.72,2.37,2.33,4.5,4.89,6.73,7.36,.4,.44,.76,.92,1.18,1.44,.26-.28,.41-.43,.56-.59,4.04-4.41,8.98-5.92,14.83-4.74,4.79,.97,9.01,2.93,12.44,6.48,.62,.64,1.31,1.22,2.03,1.88,.08-.28,.12-.37,.12-.45-.02-.27-.05-.53-.08-.79-.5-5.2-.25-10.29,1.97-15.13,1.11-2.41,2.91-4.08,5.34-5.14,2.54-1.11,5.19-1.31,8-.98-.08-.56-.14-.99-.19-1.43-.77-5.74-.18-11.26,2.76-16.37,2.8-4.86,7.02-8.16,11.91-10.71,6.88-3.59,14.04-5.22,21.73-3.09,.24,.07,.5,.07,.71,.1,.07-.12,.12-.16,.11-.18-.08-.39-.16-.78-.24-1.17-1.01-4.91-.64-9.69,1.85-14.09,4.73-8.37,12.19-12.64,21.56-13.79,1.71-.21,3.47,.02,5.23,.05-.04-.14-.06-.27-.12-.39-.14-.28-.29-.55-.45-.81-5.18-8.42-12.1-14.93-21.07-19.18-9.25-4.38-19.04-3.93-28.92-3.35-.02,.29-.04,.51-.04,.72,.02,6.38-1.9,12.18-5.37,17.45-7.29,11.07-17.29,18.76-29.61,23.58-4.94,1.93-9.21,1.04-13.07-2.41-1.06-.94-2.1-1.93-3-3.01-2.47-2.96-4.21-6.35-5.68-9.89-.75-1.79-1.51-3.58-2.28-5.39-.08,3.69-.18,7.27-.23,10.85-.03,2.9-1.44,4.76-4.03,6.01-4.88,2.36-6.5,2.22-10.52-1.42-1.74-1.57-3.41-3.2-5.12-4.81-.06,.04-.11,.09-.17,.13,.15,.32,.28,.64,.44,.96,2.36,4.82,4.74,9.64,7.09,14.46,1.25,2.55,.74,4.89-1.16,6.86-1.03,1.07-2.25,2.03-3.55,2.72-2.99,1.6-6.31,1.73-9.61,1.68-14.33-.22-26.04-6.82-36.98-15.26-.7-.54-1.21-.73-1.99-.38-2.79,1.25-5.68,2.32-8.38,3.75-1.28,.68-2.51,1.41-3.71,2.17-6.11,3.85-11.23,8.76-14.82,15.29-.16,.29-.3,.59-.45,.88-3.99,7.54-6.35,15.56-6.87,24.1-.17,2.76-.06,5.54-.07,8.31,.12,.02,.23,.04,.35,.05,1.4-2.71,3.24-5.06,5.62-6.97,3.27-2.63,7.3-4.3,11.57-5.04,7.75-1.35,16.33,.39,22.76,5.24Z"/></g></g></svg>
