<?xml version="1.0" encoding="UTF-8"?><svg xmlns="http://www.w3.org/2000/svg"><defs><style>.ulf-1{fill:none;stroke:#000;stroke-linecap:round;stroke-miterlimit:10;stroke-width:1.5px;}.ulf-2{fill:#fac045;}.ulf-3{fill:#d89664;}.ulf-4{mix-blend-mode:multiply;opacity:.08;}.ulf-5{isolation:isolate;}</style></defs><g class="ulf-5"><g id="Layer_2"><g id="Right_base_"><g id="Right-UlfPlushie"><path class="ulf-3" d="M198.39,19.1c-3.71-5.87-8.11-11.09-13.31-13.33-12.48-5.37-16.15,7.85-16.61,17.61-.4,8.48-.11,17.55,3.5,25.4,4.23,9.21,13.99,14.42,21.75,20.36,.71,.54,1.5,1.11,2.39,1.03,3.51-.32,4.54-5.93,5.62-8.43,2.21-5.14,5.18-9.89,7.21-15.15,.47-1.21,.91-2.46,.94-3.75,.04-1.91-.84-3.7-1.72-5.39-2.56-4.95-5.77-12.02-9.76-18.34Z"/><path class="ulf-4" d="M198.39,19.1c-3.71-5.87-8.11-11.09-13.31-13.33-2.4-1.03-5.24-1.46-7.68-1.34-.17,.65,.14,1.01,.65,1.42,7.51,6.11,11.53,15.7,12.77,25.3,1.24,9.6-.02,19.33-1.46,28.9-.74,4.94,.78,6.34,4.36,9.08,.71,.54,1.5,1.11,2.39,1.03,3.51-.32,4.54-5.93,5.62-8.43,2.21-5.14,5.18-9.89,7.21-15.15,.47-1.21,.91-2.46,.94-3.75,.04-1.91-.84-3.7-1.72-5.39-2.56-4.95-5.77-12.02-9.76-18.34Z"/><path class="ulf-3" d="M316.63,82.38c7.95,1.63,15.57,4.9,22.98,8.1,2.16,.93,4.42,1.94,5.86,3.8,2.32,3.01,1.8,7.42,.03,10.79-4.64,8.83-17.21,15.13-26.73,16.41-10.52,1.41-21.18-1.12-31.22-4.54-3.54-1.21-7.51-2.99-8.51-6.6-.51-1.81-.13-3.74,.24-5.59,1.91-9.39,2.65-15.37,11.75-20.01,7.78-3.97,17.2-4.05,25.59-2.36Z"/><path class="ulf-2" d="M76.5,280.71c1.09,5.85,1.7,11.8,1.96,17.73,.22,4.97,.27,10.47-2.74,14.7-3.13,4.4-9.32,6.29-14.48,6.78-12.94,1.23-25.62-.98-37.41-6.25-2.17-.97-4.36-1.95-6.21-3.45-3.67-2.99-6.35-8.02-9-11.86-3.46-5.03-6.28-10.91-8.01-16.79-.34-1.14-.63-2.31-.62-3.51,.02-1.17,.35-2.32,.78-3.41,4.32-10.92,17.84-14.8,28.08-17.66,6.54-1.83,12.67-3.33,17.95-7.95,2.04-1.78,32.2-36.96,36.57-41.67,0,0,22.86,22.46,22.86,22.46,0,0-11.87,12.78-12.57,13.54-3.93,4.23-7.86,8.46-11.79,12.7-2.68,2.88-6.98,6.38-8.12,10.26-.64,2.19,.37,4.42,.94,6.51,.71,2.59,1.3,5.21,1.8,7.86Z"/><path class="ulf-2" d="M286.14,344.99c5.99,5.61,11.64,11.57,16.96,17.82,4.59,5.38,9.2,11.9,8.05,18.87-.98,5.97-5.92,10.41-10.71,14.11-15.15,11.73-33.78,18.16-52.69,13.05-8.71-2.35-16.73-5.22-24.17-10.49-2.33-1.65-4.61-3.53-5.93-6.06-1.38-2.64-1.57-5.73-1.44-8.71,.39-8.88,3.42-17.49,7.81-25.22,.6-1.05,1.22-2.09,1.87-3.12,2.3-3.66,4.89-7.14,7.64-10.48,2.12-2.58,5.46-5.01,5.42-8.55-.09-7.34-1.19-14.88-1.7-22.23-.64-9.18-1.28-18.35-1.92-27.53,0,0,33.56-2.34,33.56-2.34,.45,6.52,.91,13.03,1.36,19.55,.41,5.94,.83,11.88,1.24,17.81,.38,5.48-.73,10.43,3.87,14.15,3.71,2.99,7.3,6.12,10.77,9.38Z"/><path class="ulf-4" d="M318.61,105.95c9.71-.84,19.17-4.8,26.28-11.48,.48-.45,1.95,3.07,2.05,3.52,.51,2.28-.4,5.08-1.45,7.08-4.64,8.83-17.21,15.13-26.73,16.41-10.52,1.41-21.18-1.12-31.22-4.54-3.54-1.21-7.51-2.99-8.51-6.6-1.28-4.59,1.34-8.28,5.85-9.19,5.69-1.16,11.25,1.22,16.61,2.8,5.49,1.62,11.42,2.5,17.12,2Z"/><path class="ulf-3" d="M100.79,160.14c6.1-9.26,12.63-18.24,19.52-26.87,17.54-21.96,41.49-48.97,65.68-63.79,3.17-1.94,6.52-3.8,8.78-6.74,1.91-2.48,2.89-5.53,3.99-8.46,7.45-19.89,22.08-37,40.57-47.44,7.74-4.37,16.54-7.66,25.38-6.65,14.84,1.7,26.06,15.47,29.38,30.03,3.33,14.56,.39,29.77-3.07,44.3-3.45,14.53-7.46,29.29-6.22,44.17,.78,9.35,3.6,18.38,5.72,27.52,7.3,31.42,6.31,64.72-2.86,95.65-3.3,11.12-7.57,21.95-10.42,33.21-1.42,5.61-2.5,11.32-2.83,17.1-.22,3.79,2.86,14.15-4.41,12.52,.98-5.8-11.45-7.87-15.2-8.15-7.07-.54-14.87,2.24-18.2,8.5-4.69-.79-8.6-4.93-9.14-9.65-.41-3.58,.2-8.51-3.77-9.14-.37-.06-.75-.06-1.13-.03-10.9,.82-22.13,2.68-33.17,3.15s-23.46-.31-33.56-5.96c-16.69-9.32-30.87-22.07-37.68-40.42-1.91-5.13-3.32-6.64-6.1-12.13-3.69,5.44-9.22,8.59-14.26,12.66-1.46,1.18-3.58,1.04-4.88-.31-5.58-5.8-11.06-11.3-16.68-17.2-3.28-3.45-4.9-3.99-3.79-8.33s3.83-8.73,5.65-12.77c7.46-16.6,12.56-29.37,22.71-44.77Z"/><path class="ulf-4" d="M249.07,296.28c2.03-8.76-.5-17.98-4.31-26.12-3.97-8.48-7.04-17.53-7.8-26.91-.86-10.48,2.05-18.69,5.81-28.18,7.22-18.22,10.02-37.81,11.18-57.27,.59-9.88,2.31-19.74,1.79-29.66-.24-4.46-.74-8.97-2.19-13.22-1.01-2.95-4.64-6.96-3.5-10.15,.62-1.72,2.18-2.88,3.61-4.01,8.1-6.37,15.19-15.32,19.98-24.43,5.47-10.39,7.68-22.07,8.78-33.66,.88-9.3-1.06-21.41,3.12-30.24,5.51,7.01,7.49,13.11,8.56,17.78,3.33,14.56,.39,29.77-3.07,44.3-3.45,14.53-7.46,29.29-6.22,44.17,.78,9.35,3.6,18.38,5.72,27.52,7.3,31.42,6.31,64.72-2.86,95.65-3.3,11.12-7.57,21.95-10.42,33.21-1.42,5.61-2.5,11.32-2.83,17.1-.22,3.79,2.76,13.96-4.09,12.58,.24,3.45,.48,6.91,.72,10.36,.12,1.7,.32,3.45,.4,5.16,.09,1.82,.16,3.52,.13,5.35-.02,1.25-.17,2.79,.26,3.97s.72,2.61,1.43,3.71c1.53,2.4,5.46,4.78,8.39,7.61,2.6,2.51,7.7,6.84,10.36,9.81,2.17,2.42,4.07,4.1,6.22,6.58,2.44,2.82,6.75,7.63,8.17,9.66,.72,1.03,1.87,2.65,2.41,3.79,.51,1.06,1.22,2.25,1.53,3.38,.51,1.81,1.06,3.63,.97,6.08-.15,3.93-2.84,9.39-8.67,13.83-1.32,1-2.95,2.39-4.31,3.35-6.21,4.4-12.35,8.03-18.94,10.03,3.21-.97,6.71-3.82,9.45-5.72,2.92-2.02,5.7-4.25,8.16-6.81,2.45-2.55,5.54-5.85,7.09-9.01,1.26-2.58,2.72-6.04,1.03-8.62-1.54-2.36-3.96-4.29-6.55-5.39-3.87-1.64-7.83-1.51-11.89-2.07-5.89-.82-9.04-5.56-11.79-10.28-3.3-5.66-7.61-10.63-12.19-15.29-5.19-5.28-11.68-10.99-12.04-18.77-.42-9.36-.87-18.84-1.53-28.25-.02-.31-.04-.61-.06-.92Z"/><path class="ulf-2" d="M242.33,104.46c-.12,3.21-3.88,6.62-5.54,8.79-9.71,12.66-54.13,75.37-70.57,89.82-1.16,1.02-2.38,2.01-3.83,2.55s-3.17,.53-4.43-.37c-1.42-1.02-1.92-2.89-2.11-4.63-1.4-13.1,7.46-28.73,12.15-40.49,10.03-25.15,18.16-49.94,27.66-75.25,.34-.93,.72-1.9,1.47-2.56,.73-.64,1.73-.89,2.69-1.05,9.57-1.59,18.81,3.62,27.12,8.63,3.96,2.39,13.77,8.91,15.19,13.23,.14,.44,.2,.89,.18,1.34Z"/><path class="ulf-4" d="M242.33,104.46c-.12,3.21-3.88,6.62-5.54,8.79-9.71,12.66-54.13,75.37-70.57,89.82-1.9,1.67-3.3,3.03-6.53,3.07,.29,0,2.21-3.56,2.48-3.94,1.45-2.06,3.07-4.01,4.58-6.02,8.33-11.09,16.4-22.37,24.23-33.82,7.16-10.46,11.83-17.4,20.23-32.59,5.41-9.78,14.24-27.29,20.08-37.08,0,0,9.21,6.01,10.86,10.43,.16,.43,.2,.89,.18,1.34Z"/><ellipse cx="222.54" cy="60.77" rx="10.56" ry="3.82" transform="translate(70.34 234.13) rotate(-63.99)"/><ellipse cx="242.18" cy="70.36" rx="10.56" ry="3.82" transform="translate(72.76 257.17) rotate(-63.99)"/><path class="ulf-1" d="M237.7,312.53c4.49-3.51,10.11-5.45,15.8-5.85s11.42,.69,16.73,2.75"/><path class="ulf-1" d="M239.13,329.61c9.67-5.58,21.8-6.69,32.32-2.94"/><path class="ulf-1" d="M225.67,387.44c.16,3.77,2.28,7.14,4.33,10.31"/><path class="ulf-1" d="M265.31,386.46c1.37,3.73,1.85,7.79,1.37,11.74"/><path class="ulf-1" d="M303.56,381.99c.07,3.65-.62,7.31-2.03,10.67"/><path class="ulf-1" d="M2.82,287.99c.42-2.08,.96-4.17,2.01-6.02s2.67-3.45,4.69-4.09"/><path class="ulf-1" d="M27.39,309.78c2.15-3.04,4.43-7.42,5.75-10.9"/><path class="ulf-1" d="M61.94,319.12c2.45-3.32,3.56-7.59,3.03-11.68"/><path class="ulf-1" d="M65.73,228.43c4.92,8.69,12.95,15.22,21.46,20.46"/><path class="ulf-1" d="M53.6,241.98c.56,2.07,1.96,3.81,3.4,5.4,5.25,5.79,11.65,10.55,18.71,13.91"/><path class="ulf-4" d="M110.26,222.56c-.2-.78-.42-1.59-.95-2.2-1.62-1.85-4.68-.61-6.55,.98-6.17,5.24-9.76,13.04-16.03,18.15-2.67,2.18-5.75,3.81-8.36,6.04-2.09,1.79-3.85,3.94-5.59,6.08-2.36,2.9-4.72,5.8-7.09,8.69-1.61,1.98-3.25,3.99-4.28,6.33-1.35,3.06-11.23,29.76-12.05,33.17-.71,2.94-1.44,5.21-.02,8.16,1.18,2.47,3.19,4.43,5.15,6.33,2.64,2.56,4.62,5.66,8.61,5.24,3.3-.35,6.71-1.23,9.42-3.21,3.4-2.48,5.3-6.39,5.7-10.51,.4-4.04,.33-8.11,0-12.16-.33-4.17-.93-8.32-1.8-12.42-.55-2.57-1.2-5.12-1.71-7.69-.47-2.35-1.38-5.27-.79-7.63,.59-2.35,2.31-3.82,3.82-5.57,1.67-1.94,3.46-3.77,5.28-5.56,3.6-3.55,6.85-7.34,10.39-11.13,.81,.24,.98,.71,2.42,.65,.86-.03,1.55-.47,2.6-1.31,1.72-1.38,5.71-4,8.35-6.42,1.93-1.76,4.97-4.58,5.45-6.4,.55-2.05-1.47-5.58-1.99-7.61Z"/></g></g></g></g></svg>
