<?xml version="1.0" encoding="UTF-8"?><svg id="Layer_2" xmlns="http://www.w3.org/2000/svg"><defs><style>.rwt-1{fill:#f4c3dc;}.rwt-2,.rwt-3{fill:#f995c2;}.rwt-3{opacity:.5;}</style></defs><g id="Layer_1-2"><g id="Right-Tutu"><path class="rwt-1" d="M508.12,52.44c45.73-11.46,95.17-22.67,140.29-33.98,14.08-3.53,14.59-1.81,22.88,9.27-6.04,4.68-11.23,10.47-15.22,16.94,5.35,1.96,10.08,5.22,13.74,9.44-14.58,14.81,2.89,17.32-.08,31.37-.68,3.2-4.22,5.34-7.48,5.52s-6.29-1.12-9.2-2.39c3.65,7.85,6.65,16.01,8.95,24.38-8.03-.63-16.08-1.27-24.15-1.9,5.33,6.45,10.65,12.87,15.96,19.29-.89-1.07-17.51,1.62-19.75,1.76,6.35,9.85,2.67,14.14-2.2,23.23-7.76,14.48-.91,8.23-16.79,5.47,.48,4.23,2.08,8.17,2.73,12.35,1.39,8.89-4.43,18.09-13.85,13.24,1.77,12.2-22.36,63.33-36.64,40.51-2.64,6.1-2.01,37.74-18.1,31.87-.09,11.49-1.98,25.75-13.14,30.71-11.63,5.17-14.75-2.31-15.96,13.15-1.05,13.46-11.23,19.81-21.94,9.45-5.29,5.87-9.05,13.56-17.81,16.19-2.47,.74-22.7-.76-22.87-2.93,.65,8.11,.4,17.94-5.25,25.04-5.75,7.22-19.73,8.67-22.59,.59,3.55,6.42-4.83,14.87-12.76,15.01-7.94,.14-14.42-4.89-20.07-9.79-1.71,8.81-3.42,17.61-5.13,26.39-.45,2.34-.96,4.8-2.58,6.71-3.01,3.57-8.91,3.81-12.86,1.71s-6.43-5.9-8.76-9.57c2.69,9.69-1.22,21.56-10.56,27.45-9.35,5.89-23.57,3.72-27.93-5.32-3.01,9.2-6.3,18.83-13.71,25.74-7.42,6.91-20.39,9.77-27.48,3.48-7.33,15.35-19.48,7.9-31.01,11.43-9.73,2.98-13.81,13.56-23.75,15.94-9.82,2.35-17.22-6.71-21.8-14.61-.75,9.25-9.42,17.9-19.48,19.44-10.08,1.55-20.45-4.2-23.29-12.94-4.46,6.13-9.3,12.57-16.53,15.79-7.23,3.22-17.48,1.53-19.77-5.19-7.99,6.79-17.32,12.29-27.35,16.12-3.69-6.25-7.39-12.52-11.09-18.8-10.16,8.15-20.33,16.3-30.5,24.45-2.86-6.32-7.47-13.69-15.23-13.29-3.31,.17-6.49,1.84-9.8,1.73-9.83-.35-9.73-13.32-6.58-21.88,16.44-44.63,36.08-87.13,55.62-130.9,70.79-38.12,138.66-77.72,208.63-115.4,78.94-42.5,153.96-86,212.23-152.26Z"/><path class="rwt-3" d="M511.16,52.74c46.34-18.76,86.52-33.97,132.87-52.74,5.29,20,1.82,42.16-9.33,59.59,1.63-2.81,5.07-4.46,8.28-3.98-2.04,10.22-7.93,19.62-16.22,25.92,3.17-1.4,6.87-1.56,10.15-.45-2.31,12.04-13.03,21.97-25.21,23.36,2.02-2.29,6.24-.64,7.26,2.24s-.19,6.07-1.74,8.7c-4.63,7.88-12.52,13.76-21.39,15.95-2.41-3.25,5.41-5.52,6.77-1.71s-1.81,7.62-4.71,10.43c-7.13,6.9-15.02,14.18-24.88,15.3,3.3,16.34-13.93,33.11-30.18,29.37,4.87,6.76,9.99,14.36,9.09,22.65-.9,8.28-11.61,15.23-17.79,9.64,2.9,9.18-.21,19.96-7.56,26.19-7.34,6.23-18.48,7.54-27.07,3.19,3.83,8.85,.81,20.14-6.91,25.9-7.73,5.76-19.41,5.43-26.8-.76,2.76,9.2,4,19.8-1.19,27.88-5.19,8.08-18.97,10.48-24.06,2.35,4.3,8.55,1.27,20.09-6.69,25.42-7.95,5.33-19.78,3.75-26.05-3.48,4.85,7.95-3.3,18.68-12.53,19.96s-18.08-3.53-26.15-8.18c3.52,20.77-27.98,26.16-28.58,17.89,.54,7.44-5.16,14.83-12.49,16.19-7.34,1.36-15.31-3.48-17.48-10.62-2.21,10.31-5.94,20.29-11.03,29.52-6.03-4.21-12.05-8.42-18.08-12.63,3.39,8.97-1.75,20.22-10.75,23.53-9,3.31-20.2-1.91-23.45-10.94-5.99,7.78-11.99,15.57-17.98,23.35-6.45-2.14-12.06-6.7-15.48-12.56-.91,9.55-4.54,19.67-12.77,24.59-8.23,4.92-21.41,1.27-23.06-8.17-4.43,6.45-9.42,13.21-16.81,15.76s-17.5-1.71-17.81-9.52c.45,8.25-5.89,16.34-14.02,17.87-8.12,1.53-16.97-3.71-19.55-11.56-1.15,7.49-5.65,14.94-12.81,17.43-7.16,2.49-16.54-1.94-17.4-9.47-6.65,16.05-34.49,15.51-40.51-.79-5.08,4.97-24.19,20.7-31.97,18.24-12.42-3.91-5.91-17.36-.1-24.5,26.3-32.34,50.03-67.85,76.33-100.18C193.31,264.34,404.11,158.17,511.16,52.74Z"/><path class="rwt-2" d="M502.29,40.34C382.55,164.07,228.16,245.49,71.86,317.73c4.83,4.15,8.97,9.18,13.81,13.33,20.3-6.17,39.36-16.91,58.24-26.6,88.2-45.22,176.94-90.78,255.69-150.96,19.49-14.89,38.31-30.64,57.09-46.42,20.87-17.54,38.05-32.83,54.47-54.35l-8.87-12.4Z"/></g></g></svg>
