<?xml version="1.0" encoding="UTF-8"?><svg id="Layer_2" xmlns="http://www.w3.org/2000/svg"><g id="Right_base_"><g id="Right-CatTail"><path d="M38.57,336.27c-9.93,0-19.44-5.6-23.97-15.17C1.23,292.85-3.07,263.16,2.16,235.24c5.76-30.74,22.68-56.8,48.93-75.36,40.06-28.33,84.46-25.25,123.63-22.53,21.59,1.5,41.98,2.91,60.44-.61,16.56-3.16,45.15-12.66,50.6-40.7,2.19-11.26-2.15-23.91-11.31-33.02-3.56-3.54-13.46-11.56-23.82-9.34-5.56-24.64-11.46-41.28-15.32-50.65,29.05-8.8,56.5,2.54,76.49,22.4,21.87,21.73,31.59,51.91,25.99,80.73-8.33,42.86-42.11,72.99-92.68,82.64-25.21,4.82-50.04,3.09-74.05,1.43-34.73-2.41-64.73-4.49-89.36,12.93-23.28,16.46-40.55,50.14-19.19,95.28,6.26,13.23,.61,29.03-12.62,35.29-3.66,1.73-7.52,2.55-11.32,2.55Z"/></g></g></svg>
