<?xml version="1.0" encoding="UTF-8"?><svg xmlns="http://www.w3.org/2000/svg"><defs><style>.axea-1{fill:#999cad;}.axea-2{fill:#b4b6c8;}.axea-3{fill:#c49a6c;}.axea-4{mix-blend-mode:multiply;opacity:.12;}.axea-5{isolation:isolate;}</style></defs><g class="axea-5"><g id="Layer_2"><g id="Right_base_"><g id="Right-Axe"><path class="axea-3" d="M111.48,134.32c8.87-.68,17.36-1.68,26.2-3.4,16.93-3.29,28.79-8.31,44.99-13.89,42.38-14.59,77.2-45.38,116.06-67.72C339.72,25.76,383.69,9.68,429.95,0c4.86,9.46,9.76,21.59,10.98,32.15,1.22,10.57-.13,21.4-8.88,27.45-9.87,6.81-23.03,4.62-35.02,4.42-21.99-.36-44.42,5.08-63.86,15.37-19.43,10.29-38.64,25.37-56.87,37.67-77.55,52.36-162.08,89.13-249.66,122.08-4.28,1.61-10.5-7.91-12.32-10.5-5.25-7.49-8.39-15.98-11.21-24.6-1.83-5.61-5.12-14.42-1.46-19.97,2.3-3.49,28.16-15.15,33.58-17.93,10.28-5.27,20.64-10.08,31.24-14.49s23.8-14.31,35.54-16.25c3.14-.52,6.3-.84,9.46-1.09Z"/><path class="axea-4" d="M106.72,207.34c-3.91,1.54-6.32,3.03-9.93,4.15-.45,.14-32.19-47.73-30.38-56.76,.93-4.66,5.61-5.26,10.53-8.38,3.97,10.7,8.27,21.24,13.58,31.48s10.16,19.84,16.21,29.52Z"/><path class="axea-1" d="M54,280.32c4.96,13.8,6.85,27.6,6.63,43.85,17.9-3.02,36.12-7.59,52.2-16.02,19.17-10.06,31.47-20.96,43.34-32.91-13.34-7.69-22.03-18.72-29.81-28.82-26.35-34.2-47.58-72.33-62.79-112.74-.53-1.4-33.8,12.45-36.79,13.83-6.01,2.77-11.91,5.76-17.7,8.97-4.04,2.23-7.94,4.06-5.99,9.18,2.25,5.92,6.33,11.61,9.28,17.23,3.1,5.91,6.13,11.87,9.07,17.86,5.95,12.1,11.09,24.58,16.39,36.97,5.97,13.95,11.04,28.32,16.18,42.6Z"/><path class="axea-2" d="M59.26,301.33c1.07,7.21,1.48,14.72,1.37,22.84,17.9-3.02,36.12-7.59,52.2-16.02,19.17-10.06,31.47-20.96,43.34-32.91-6.67-3.84-12.17-8.52-16.98-13.49-14.86,17.86-53.76,36.69-79.93,39.59Z"/></g></g></g></g></svg>
