<?xml version="1.0" encoding="UTF-8"?><svg id="Layer_2" xmlns="http://www.w3.org/2000/svg"><defs><style>.right-1{fill:#14d1df;}.right-2{fill:#131736;}.right-3{fill:#494c67;}</style></defs><g id="Right_base_"><g id="Right-Snowboard"><path class="right-1" d="M7.14,346.68c-7.68-19.86-9.61-41.7-3.61-61.21,7.12-23.13,23.38-42.67,42.74-56.75,5.04-3.67,10.33-6.99,15.81-9.95,31.15-16.82,66.4-24.02,100.72-32.71,133.56-33.83,259.26-92.66,383.68-151.82,32.98-15.68,74.36-39.11,111.8-33.34,16.05,2.47,31.92,7.69,45.22,17.2,42.55,30.4,44.59,91.28,14.67,130.74-22.89,30.18-68.93,42.12-103.53,53.78-130.56,44-261.8,89.12-381.31,157.68-30.71,17.61-61.05,36.95-95.12,46.53-23.95,6.73-50.36,7.05-73.99-1.16-25.9-9-46.72-32.19-57.08-58.98Z"/><path class="right-3" d="M189.52,214.38h81.54c17.48,0,31.68,14.19,31.68,31.68v23.06c0,17.48-14.19,31.68-31.68,31.68h-81.54c-19.2,0-34.8-15.59-34.8-34.8v-16.82c0-19.2,15.59-34.8,34.8-34.8Z" transform="translate(381.73 -51.06) rotate(67.97)"/><path class="right-2" d="M192.19,218.84h78.3c16.79,0,30.41,13.63,30.41,30.41v22.14c0,16.79-13.63,30.41-30.41,30.41h-78.3c-18.44,0-33.41-14.97-33.41-33.41v-16.15c0-18.44,14.97-33.41,33.41-33.41Z" transform="translate(384.96 -50.37) rotate(67.97)"/><path class="right-3" d="M178.42,263.66l4.7-11.88c1.18-3,4.43-4.63,7.54-3.79,10.93,2.96,22.78,2.21,33.25-2.2,10.47-4.41,19.28-12.37,24.8-22.26,1.57-2.81,5.01-3.99,7.98-2.74l11.78,4.94c3.46,1.45,4.9,5.56,3.13,8.87-8.22,15.39-21.7,27.8-37.83,34.6-16.13,6.8-34.43,7.78-51.19,2.9-3.6-1.05-5.54-4.95-4.16-8.44Z"/><g><path class="right-3" d="M289.15,281.64c-30.67,7.06-60.34,18.81-87.54,34.66"/><path class="right-3" d="M199.16,298.02c24.98-13.85,51.58-24.38,79.27-31.38,3.77-.95,7.59,1.38,8.46,5.17l4.57,19.83c.84,3.67-1.4,7.33-5.05,8.26-24.54,6.24-48.13,15.58-70.3,27.83-3.29,1.82-7.44,.69-9.33-2.57l-10.24-17.58c-1.96-3.36-.77-7.67,2.63-9.56Z"/></g><path class="right-3" d="M473.63,99.44h81.54c17.48,0,31.68,14.19,31.68,31.68v23.06c0,17.48-14.19,31.68-31.68,31.68h-81.54c-19.2,0-34.8-15.59-34.8-34.8v-16.82c0-19.2,15.59-34.8,34.8-34.8Z" transform="translate(452.73 -386.26) rotate(67.97)"/><path class="right-2" d="M476.29,103.89h78.3c16.79,0,30.41,13.63,30.41,30.41v22.14c0,16.79-13.63,30.41-30.41,30.41h-78.3c-18.44,0-33.41-14.97-33.41-33.41v-16.15c0-18.44,14.97-33.41,33.41-33.41Z" transform="translate(455.95 -385.57) rotate(67.97)"/><path class="right-3" d="M462.53,148.71l4.7-11.88c1.18-3,4.43-4.63,7.54-3.79,10.93,2.96,22.78,2.21,33.25-2.2,10.47-4.41,19.28-12.37,24.8-22.26,1.57-2.81,5.01-3.99,7.98-2.74l11.78,4.94c3.46,1.45,4.9,5.56,3.13,8.87-8.22,15.39-21.7,27.8-37.83,34.6-16.13,6.8-34.43,7.78-51.19,2.9-3.6-1.05-5.54-4.95-4.16-8.44Z"/><g><path class="right-3" d="M573.26,166.69c-30.67,7.06-60.34,18.81-87.54,34.66"/><path class="right-3" d="M483.27,183.07c24.98-13.85,51.58-24.38,79.27-31.38,3.77-.95,7.59,1.38,8.46,5.17l4.57,19.83c.84,3.67-1.4,7.33-5.05,8.26-24.54,6.24-48.13,15.58-70.3,27.83-3.29,1.82-7.44,.69-9.33-2.57l-10.24-17.58c-1.96-3.36-.77-7.67,2.63-9.56Z"/></g></g></g></svg>
