<?xml version="1.0" encoding="UTF-8"?><svg id="Layer_2" xmlns="http://www.w3.org/2000/svg" xmlns:xlink="http://www.w3.org/1999/xlink"><defs><style>.knifeblood-1{fill:none;}.knifeblood-2{clip-path:url(#clippath9);}.knifeblood-3{fill:#e9ebf9;}.knifeblood-4{fill:#cfd2e2;}.knifeblood-5{fill:#494c67;}</style><clipPath id="clippath9"><path class="knifeblood-1" d="M231.07,77.21S43,190.15,0,249.45c0,0,62.73,18.44,243.34-105.88,0,0-8.03-13.94-8.67-20.17s.22-14.32,13.37-22.2l-16.97-24Z"/></clipPath></defs><g id="Right_base_"><g id="Right-Knife_blood_"><path class="knifeblood-5" d="M335.29,8.27c7.85-4.72,17.4-10.48,26.03-7.41,9.12,3.25,12.12,11.54,10.49,21.09-1.4,8.23-6.42,16.81-11.96,23.6-1.19,1.46-3.4,1.34-4.53-.16-2.64-3.48-6.84-5.27-12.65-4.82-4.58,.35-10.41,5.97-14.99,9.9-20.22,17.36-79.64,50.73-79.64,50.73l-16.97-24S312.93,21.73,335.29,8.27Z"/><circle class="knifeblood-3" cx="262.99" cy="76" r="5.53"/><circle class="knifeblood-3" cx="305.1" cy="47.89" r="5.53"/><circle class="knifeblood-3" cx="347.13" cy="20.69" r="5.53"/><path class="knifeblood-4" d="M231.07,77.21S43,190.15,0,249.45c0,0,62.73,18.44,243.34-105.88,0,0-8.03-13.94-8.67-20.17s.22-14.32,13.37-22.2l-16.97-24Z"/><path class="knifeblood-3" d="M9.68,237.74c-3.74,4.08-6.99,8-9.68,11.71,0,0,62.73,18.44,243.34-105.88,0,0-2.98-5.17-5.45-10.63,0,0-142.4,100.1-228.21,104.8Z"/><g class="knifeblood-2"><g><path d="M55.41,224.01c.48,.4,.99,.77,1.43,1.22,1.32,1.33,1.73,3.96,.33,5.1-2.04,1.66-1.84,4.23-3.15,5.8,1.55,.88,3.44,1.37,4.23,2.57,.87,1.31,.72,3.29,1.02,5.04,3.08,.27,5.03-2.26,3.83-5.12-.44-1.03-.62-2.17-.94-3.36-2.63-.64-2.76-.88-1.77-3.57,.18-.5,.23-1.11,.55-1.5,.34-.42,.97-.94,1.4-.89,.43,.05,.97,.71,1.13,1.2,.3,.91,.36,1.89,.62,3.42,1.79-1.33,3.25-2.4,4.72-3.48,.32-.03,.64-.05,.96-.08,.48,.55,1.26,1.03,1.39,1.65,.39,1.77,.52,3.6,.76,5.44,1.62,.23,3.34,.48,5.25,.75-.33,4.78,1.62,7.96,5.91,9.67,1.33-1.11,2.09-3.25,4.83-1.86-1.23,.78-2.14,1.35-3.59,2.26,1.3-.26,1.94-.38,2.71-.53,.14,.96,.11,1.79,.41,2.49,.63,1.5,.16,2.58-.98,3.56-1.27,1.09-2.76,1.21-3.98,.3-3.19-2.37-7.42-2.53-10.48-5.28-1.08-.97-2.51-1.37-2.09-3.42-4.46,2.44-8.93,2.64-13.41,2.3-1.43-.11-2.82-.96-4.19-1.55-.82-.35-1.57-.85-2.35-1.29-1.04-.59-1.82-.36-2.55,.59-1.63,2.1-3.71,3.35-6.62,2.91-.63,1.51-1.24,2.95-1.58,3.78-1.27,1.11-2.19,1.8-2.96,2.62-1.26,1.33-3.3,1.22-3.85-.48-.69-2.17-1-4.47-1.47-6.75-.87-.03-2.04,.02-3.19-.13-2.11-.29-3.5-2.07-3.38-4.18,.18-3.2,2.99-5.08,6.06-4.02,.91,.31,1.78,.74,3.12,1.31-.04-1.12,.1-1.91-.12-2.58-.45-1.37,.23-2.07,1.29-2.55,.55-.25,1.37-.58,1.78-.35,.96,.52,1.74,1.37,2.59,2.07,1.82-.91,2.44-1.9,1.92-3.16-.16-.4-.44-.82-.78-1.08-2.03-1.58-.05-3.43-.38-5.12,.46-.08,1.04-.37,1.36-.2,.48,.27,.79,.87,1.16,1.33,.05-.19,.11-.38,.16-.57,1.43,.05,2.86,.19,4.28,.11,.62-.03,1.34-.36,1.81-.78,1.81-1.59,3.48-3.36,6.1-3.53,.24-.03,.48-.06,.73-.08Zm12.07,19.66c.13-.19,0-.57-.01-.86-.32,.04-.66,.04-.94,.16-.09,.04-.03,.42-.08,1.35,.47-.28,.85-.39,1.03-.65Zm-25.52-5c.12,0,.32,.04,.35-.01,.07-.13,.06-.3,.08-.45-.12,0-.25,0-.37,0-.02,.16-.04,.31-.05,.47Z"/><path d="M30.68,240.14c.11,4.48,2.33,7.92,4.2,10.94,1.98,.19,3.62,.06,5.05,.56,2.22,.77,2.32,2.71,.39,4.02-.88,.59-1.8,1.12-2.96,1.83,.83,.12,1.32,.14,1.8,.26,1.92,.48,3.23,2.16,3.42,4.33,.14,1.61-.92,3.19-2.66,3.97-1.81,.81-3.77,.31-5.36-1.36-1.52-1.6-1.47-1.55-3.05,.2-.39,.43-1.33,.75-1.83,.58-.39-.13-.58-1.1-.67-1.72-.07-.47,.39-1.27,.2-1.43-1.82-1.55-1.28-3.53-1.01-5.56-.98-.23-1.82-.47-2.69-.62-2.53-.42-4.09-2.11-5.34-4.13-.84-1.37-1.45-2.88-2.28-4.26-1.06-1.76-1.49-3.58-.89-5.58,.23-.76,.37-1.61,.82-2.21,1.02-1.35,.88-2.64,.21-4.03-.19-.39-.24-.84-.35-1.26,.22-.08,.44-.16,.66-.24,.61,1.36,1.23,2.73,1.67,3.71,2.53-.42,4.92-.82,7.12-1.18,1.38,1.24,2.56,2.3,3.56,3.19Zm4.33,18.35c.16,.01,.39,.09,.45,.02,.13-.16,.18-.39,.26-.59-.15-.02-.3-.05-.51-.08-.07,.21-.13,.43-.2,.65Zm-.38-2.04c-.08-.2-.23-.38-.35-.56-.11,.11-.32,.23-.31,.31,.03,.2,.17,.39,.28,.61,.18-.17,.4-.31,.38-.36Z"/><path d="M43.93,237.34c1.18,1.59,.97,3.19-.72,4.62-.78,.66-.59,1.53,.21,2.04,1.37,.87,.94,1.83,.42,3.08-1.32-.61-2.1-2.87-3.8-1.24-1.05,1.01-1.89,2.26-3.06,3.69-.47,.02-1.36,0-2.24,.13-1.93,.26-3.27,1.54-3.72,3.36-.46,1.9,.58,3.01,1.97,4,3.54,2.51,4.39,2.48,8.1,.06,1.47-.96,3.08-1.74,4.69-2.46,1.96-.88,2-.86,1.06-2.87-.1-.22-.16-.46-.32-.93,.51,.06,1-.02,1.1,.15,1.15,1.86,3.19,1.82,4.94,2.3,1.6,.44,3.28,.59,4.93,.87,1.83,.32,2.47-.95,3.41-2.46-1.21-.62-2.19-1.18-3.22-1.64-1.14-.51-1.9-1.13-1.99-2.55-.14-2.13-.58-4.24-.81-6.36-.35-3.2-3.7-5.49-6.87-4.69-1.3,.33-2.62,.58-4.09,.9Z"/><path d="M190.88,147.69c-2.02-.4-3.58-.46-5.05-1.63-1.84-1.46-4.02-1.05-5.27,.46-1.68,2.03-1.74,4.82-.14,6.66,1.54,1.77,3.7,2.02,5.78,.74,.66-.41,1.43-.92,2.15-.93,2.03-.02,2.91-1.12,3.17-2.77,4.04-.38,8.31,.37,11.13-3.91,.68-.05,1.69,.05,2.56-.26,.79-.28,1.43-1,2.34-1.69,1.22,1.4,2.84,2.25,4.82,1.3,1.94-.93,2.02-2.78,2.15-4.56-2.98-3.44-4.27-3.46-7.29-.19-1.2-.25-2.45-.86-3.55-.64-.99,.19-1.8,1.28-2.79,2.06-3.28-1-6.47,.27-9.69,1.25-.56,.17-1.12,.32-1.57,.45l1.25,3.64Z"/><path d="M114.39,164.38c.07-.03,.14-.05,.22-.08-.14-.26-.29-.52-.43-.78,.38-.24,.75-.48,1.13-.73,2.7-1.79,3.26-1.6,4.23,1.4,.22,.68,.56,1.32,.78,2,.65,2.1-.49,4.16-2.61,4.75-1.96,.55-3.65-.49-4.24-2.61-.15-.55-.26-1.11-.44-1.9-.54,.63-.94,.99-1.2,1.44-.16,.27-.09,.66-.14,.99-.25,1.79-1.12,2.28-2.7,1.55-.53-.25-1.19-.78-1.6-.64-2.63,.9-3.86-.17-4.28-2.7-.05-.32-.48-.56-.59-.89-.46-1.41-.87-2.84-1.15-3.78,1.62-1.55,2.8-2.73,4.03-3.83,.52-.46,1.13-1.03,1.77-1.12,3.94-.57,6.88,2.01,7.06,6.07,.06,.28,.11,.56,.17,.84Zm-9.11,3.6c.38,.3,1.21,.04,1.84,.03-.1-.55-.01-1.36-.34-1.61-.72-.54-1.65-.79-2.5-1.16l-.44,.65c.46,.72,.81,1.59,1.44,2.1Z"/><path d="M69.09,229.3c-.86,.05-1.72,.1-2.78,.16-.45-1.99-.89-3.79-1.26-5.6-.06-.29,.01-.78,.21-.94,1.88-1.44,.16-2.58-.45-3.57-.66-1.09-2-1.16-3.15-.6-1.21,.59-1.75,1.46-1.65,3.01,.13,2.01-.13,4.06,.59,6,.3,.82,.58,1.74,1.14,2.37,1.22,1.38,2.56,2.66,3.97,3.84,.47,.39,1.42,.64,1.96,.44,1.42-.53,3.28,.49,4.37-1.22,.07-.12,.65,.09,.99,.15,2.51,.41,4.75,.18,6.1-2.41,.17-.33,.65-.7,1.01-.71,2.36-.12,2.01-2.15,2.54-3.54,.09-.23-.14-.83-.33-.88-.36-.1-1.03-.08-1.18,.14-.97,1.51-2.03,1.87-3.8,1.12-1.12-.47-2.12,.53-2.83,1.58-.72,1.06-1.58,2.02-2.66,3.37-1.15-1.09-2.01-1.91-2.87-2.72h.06Z"/><path d="M65.22,238.34c-.57-1.18-1.01-1.88-1.24-2.64-.41-1.35-1.02-2.46-2.38-3.08-1.64-.74-3.07-.59-4.22,.53-1.18,1.15-1.28,2.41-.48,4.18,.91,2.01,1.73,4.06,2.66,6.26,2.48,.96,5.46-.09,6.24-2.44,1.38,.98,2.69,2.04,4.59,1.48,1.47-.44,2.28-1.28,2.46-2.81,.1-.85,.32-1.69,.54-2.52,.34-1.3-.43-2.19-1.74-1.7-.99,.38-1.6,.69-2.57-.23-.34-.32-1.85,.39-2.7,.87-.44,.25-.59,1-1.16,2.08Z"/><path d="M219.11,132.29c4.11-.49,7.9-.9,11.66-1.42,1.07-.15,1.05-.31,1.75-2.54-.9-.27-1.8-.53-2.93-.87,.57-1.38,1.12-2.71,1.75-4.24,.24-.07,.82-.06,1.05-.34,.51-.62,1.17-1.38,1.18-2.1,.02-1.06-.91-1.22-1.94-1.29-2.07-.15-4.01,.23-5.96,.81-2.08,.62-2.58,1.47-2.57,3.59,.01,1.64,.06,3.32-2.09,4.1-1.6,.58-1.81,2.24-1.91,4.29Z"/><path d="M12.27,246.95c-.08,3.12,1.28,5.25,3.75,5.68,2.68,.47,4.09-.86,5.19-4.96,.97,.04,1.97,.09,2.96,.14l.1-.48c-.42-.18-.83-.37-1.26-.52-1.22-.44-2.53-.71-3.65-1.33-1.42-.78-2.79-1.04-4.37-.67-3.43,.81-7.08-1.6-7.79-5.06-.18-.87-.39-1.76-.71-2.59-.58-1.52-1.76-2.24-3.1-1.91-1.53,.38-2.18,1.52-2.25,2.98-.12,2.4,1.49,3.77,3.3,4.79,2.45,1.38,5.02,2.54,7.83,3.94Z"/><path d="M92.89,215.89c1.47,.37,2.46,.75,3.45,.79,.32,.01,.87-.84,.95-1.36,.05-.33-.49-.99-.89-1.12-1.08-.35-2.23-.5-3.35-.72-.23-3.21-3.29-5.08-6.33-3.77-1.64,.7-3.14,1.61-5.06,.69-.61-.29-1.63-.04-2.34,.25-.57,.24-1.27,.86-1.36,1.4-.09,.57,.31,1.49,.79,1.81,.46,.3,1.35,.15,1.96-.06,.44-.15,.74-.72,1.48-1.5,.3,.87,.61,1.43,.68,2.03,.31,2.76,1.34,4.23,3.47,4.82,2.05,.56,4.79-.55,6.07-2.46,.24-.36,.44-.74,.47-.78Z"/><path d="M68.22,202.65c-1.01,.41-1.74,1.36-1.71,2.92,.02,.72-.06,1.6-.46,2.13-.68,.91-1,1.84-.27,2.66,.59,.65,1.62,1.42,2.36,1.33,1.54-.19,2.56,.13,3.41,1.42,.23,.35,.91,.6,1.37,.59,1.73-.06,4.52-2.55,4.79-4.16,.32-1.9-.74-3.51-2.9-4.59-.67-.34-1.29-.83-1.82-1.37-1.14-1.15-2.89-1.62-4.77-.93Z"/><path d="M105.38,202.2c.82,.65,1.57,1.26,2.49,1.99-.07,.36-.24,.86-.24,1.37-.01,1.1,.41,1.92,1.63,2.09,1.22,.17,2.12-.34,2.63-1.42,.48-1.04,.21-2.01-.84-2.49-.88-.39-1.07-.78-.98-1.79,.15-1.65-1.23-1.67-2.5-1.63-.37-1.59,.46-3.41-1.36-4.62-1.95-1.3-3.97-1.24-5.45,.52-1.64,1.95-2.3,4.46-1.31,5.64,1.73,2.06,3.78,.73,5.93,.36Z"/><path d="M194.93,121.9c.91,2.6,3.26,3.81,5.7,2.92,2.88-1.04,4.28-4.08,3.2-6.93-.88-2.32-3.45-3.48-5.92-2.67-2.9,.95-4.06,3.57-2.98,6.68Z"/><path d="M92.02,223.75c.72-.82,1.15-1.45,1.7-1.93,1.71-1.45,2.11-4.86,.72-6.62-1.63-2.05-5.02-2.55-7.03-1.03-2.03,1.53-2.48,4.37-1.03,6.41,.69,.97,3.95,2.75,5.64,3.16Z"/><path d="M132.32,174.35c1.36,3.61,3.23,4.62,5.91,3.34,2.75-1.32,4.09-4.94,2.71-7.42-.42-.76-.94-1.5-1.54-2.13-.31-.33-1.03-.69-1.33-.55-1.73,.85-3.55,1.66-5.03,2.86-1.24,.99-1.62,2.56-.72,3.9Z"/><path d="M67.46,243.78c-1.12,1.22-2.06,2.25-3.2,3.5,1.57,1.1,3.12,2.2,4.69,3.27,.86,.58,1.77,1.08,2.62,1.68,1.09,.77,2.09,.46,2.38-.83,.14-.6,.11-1.25,.31-1.82,1.12-3.11-.2-5.23-3.48-5.54-1.23-.11-2.47-.2-3.32-.26Z"/><path d="M96.55,187.05c.65,1.92,2.73,2.9,4.75,2.26,2.06-.66,3.11-2.33,2.52-4.02-.77-2.17-2.96-3.24-5.17-2.51-1.83,.61-2.73,2.43-2.1,4.26Z"/><path d="M220.78,167.8c1.89-.71,2.81-2.74,2.06-4.57-.66-1.62-2.53-2.48-4.17-1.91-1.96,.68-2.91,2.83-2.12,4.84,.67,1.72,2.31,2.35,4.23,1.63Z"/><path d="M60.15,215.8c.05,.13,.11,.54,.25,.57,1.9,.47,3.8,1.03,5.74,1.25,.52,.06,1.23-.88,1.73-1.46,.56-.64,.99-1.39,1.5-2.12-.76-.44-1.64-.96-2.52-1.47-1.85-1.08-3.03-.77-4.32,.92-.65,.85-1.53,1.51-2.38,2.32Z"/><path d="M172.47,152.02c.76,1.55,1.93,2.31,3.49,2.11,1.46-.19,2.78-1.45,2.89-2.76,.1-1.18-1.18-2.67-2.57-2.98-.16-.04-.35,.06-.53,.05-1.07-.08-2.4-1.33-3.12,.08-.48,.95-.14,2.32-.17,3.5Z"/><path d="M230.45,110.94c-1.55-.83-2.78-1.67-4.14-2.16-1.4-.5-2.4,.39-3,1.59-.71,1.41-.27,2.54,.97,3.48,1.08,.81,2.22,1.4,3.37,.41,.96-.84,1.68-1.96,2.8-3.32Z"/><path d="M116.7,226.63c-1.56,.67-3.19,1.24-4.66,2.08-.49,.28-.94,1.43-.75,1.94,.38,1.03,1.52,1.05,2.22,.38,.93-.89,1.79-1.19,3.02-.81,.45,.14,1.11,0,1.53-.24,1.03-.59,2.06-1.38,1.53-2.75-.56-1.43-1.83-1.1-2.89-.6Z"/><path d="M83.32,257.49c.22,.1,.44,.2,.67,.3,.61-.3,1.73-.57,1.75-.9,.08-1.31,1.12-1.74,1.83-2.46,.83-.85,1.39-1.9,.53-2.83-.57-.62-1.67-.97-2.56-1.01-1.23-.06-1.97,.9-2.08,2.06-.16,1.6-.11,3.23-.14,4.84Z"/><path d="M85.79,181.64c.42,.61,.56,1.09,.83,1.17,1.41,.44,2.48,1.27,3.55,2.3,.72,.69,2.28-.38,2.62-1.59,.34-1.22-.37-1.76-1.39-1.71-.92,.05-1.02-.23-1.34-1.04-.46-1.14-1.74-1.68-2.92-1-.63,.36-.94,1.29-1.34,1.87Z"/><path d="M93.14,193.68c-.12,.46-.62,1.38-.39,1.61,.96,1.01,2.02,2.06,3.26,2.63,1.34,.61,2.83-.63,3.06-2.19,.21-1.42-.48-2.1-2.31-2.19-.89-.05-1.79,.01-2.69,.03-.18,0-.36,.04-.93,.11Z"/><path d="M77.51,245.16c.12-.11,.47-.26,.49-.45,.18-1.58,.55-3.2,.35-4.73-.17-1.27-2.18-1.79-3.33-1.13-1.11,.63-1.14,1.43-.3,2.87,.31,.53,.33,1.24,.45,1.87,.22,1.24,1.27,2,2.35,1.58Z"/><path d="M101.26,221.58c-1.52,.55-2.37,2.1-1.85,3.35,.45,1.08,1.92,1.68,3.18,1.28,1.44-.46,2.37-2.02,1.98-3.34-.37-1.26-1.83-1.83-3.31-1.3Z"/><path d="M89.32,194.66c1.41-.44,2.34-1.86,2-3.05-.35-1.23-1.93-2.09-3.23-1.75-1.49,.39-2.37,1.88-1.97,3.3,.4,1.41,1.64,1.99,3.2,1.5Z"/><path d="M136.4,208.94c.64,.24,1.54,.91,1.97,.68,1.28-.68,2.43-1.66,3.5-2.65,.17-.16-.14-1.25-.51-1.5-1.25-.84-4.6,.64-4.92,2.08-.07,.33-.02,.7-.04,1.39Z"/><path d="M146.41,153.22c.53-.64,1.4-1.28,1.29-1.62-.43-1.42,.56-1.83,1.33-2.52,.39-.36,.52-1.01,.77-1.53-.62-.22-1.28-.71-1.84-.6-.93,.18-1.92,.57-2.62,1.18-.44,.39-.64,1.4-.49,2.01,.23,.94,.86,1.77,1.55,3.08Z"/><path d="M40.61,219.32c-.43-.58-.75-1.36-1.32-1.68-.98-.56-2.12-1.08-3.2-1.1-.51-.01-1.27,1.09-1.47,1.81-.08,.3,.95,1.22,1.57,1.33,1.28,.23,2.62,.11,3.93,.13,.16-.16,.33-.33,.49-.49Z"/><path d="M81.6,161.74c.44,1.11,1.74,1.62,2.87,1.13,1.22-.54,1.75-1.72,1.25-2.83-.5-1.13-1.67-1.57-2.9-1.1-1.2,.46-1.69,1.59-1.21,2.8Z"/><path d="M150.39,223.45c.66-.93,1.62-1.77,1.9-2.8,.2-.77-1.79-1.23-3.22-.66-1.05,.41-2.01,1.03-1.64,2.34,.4,1.45,1.56,1.13,2.97,1.12Z"/><path d="M170.2,176.88c.89,.75,1.7,1.64,2.71,2.18,.46,.25,1.48,.04,1.9-.35,.41-.38,.7-1.38,.49-1.85-.27-.6-1.08-1.24-1.71-1.31-.99-.11-2.02,.25-3.04,.41-.12,.31-.23,.61-.34,.92Z"/><path d="M219.01,181.28c-.82,.08-1.68,.16-2.53,.26-1.25,.13-2.36,.58-2.28,2.03,.03,.53,.66,1.25,1.2,1.49,1.01,.45,2.59-.46,3-1.58,.26-.71,.41-1.45,.61-2.2Z"/><path d="M217.96,140.23c3.81,.87,5.32-.51,4.31-3.99-.8,.85-1.17,2.06-2.8,1.64-1.31-.34-1.55,1.05-1.51,2.35Z"/><path d="M85.09,205.34c-1.06,.37-1.62,1.55-1.23,2.59,.37,.98,1.83,1.7,2.62,1.03,.62-.52,1.11-1.58,1.1-2.39,0-1.07-1.38-1.62-2.49-1.23Z"/><path d="M90.11,145.62c.57,.23,1.37,.76,1.57,.59,1.12-.93,2.13-2.01,3.07-3.12,.12-.14-.38-.86-.68-1.23-.11-.14-.59-.15-.75-.03-.99,.73-1.98,1.48-2.87,2.32-.26,.24-.2,.82-.34,1.48Z"/><path d="M87.24,220.94c-.33-.18-.63-.47-.77-.4-.52,.23-.99,.57-1.47,.87,.94,1.42-1.78,2.7-.21,4.01,.45,.37,1.5,.27,2.16,.05,.34-.12,.69-1.38,.57-1.46-1.29-.93-.34-2.06-.27-3.06Z"/><path d="M69.03,229.29c1.22-.56,2.24-1.23,1.58-2.83-.47-1.14-1.57-1.58-2.61-1.08-1.02,.5-1.36,1.7-.6,2.7,.41,.53,1.11,.82,1.68,1.22,0,0-.06-.01-.06-.01Z"/><path d="M87.66,205.44c.57,.15,1.47,.68,2.23,.52,1.02-.21,1.58-1.15,1.15-2.28-.41-1.07-1.27-1.48-2.35-1.07-1.03,.39-1.53,1.16-1.02,2.83Z"/><path d="M71.34,218.21c-.23,.69-.82,1.57-.73,2.36,.13,1.12,1.12,1.58,2.24,1.23,1.1-.35,1.54-1.23,1.26-2.32-.3-1.17-1.22-1.42-2.78-1.26Z"/><path d="M150.38,183.71c.78-1.22,1.92-2.2,1.81-3-.19-1.36-1.52-.69-2.39-.42-1.06,.33-2.12,.96-1.69,2.22,.17,.51,1.28,.71,2.26,1.2Z"/><path d="M92.1,270.24c.29,.14,.58,.29,.86,.43,1.61-1.32,1.78-2.03,.88-3.23-.69-.92-1.51-.82-2.37-.4-.96,.47-.93,1.24-.44,2.02,.28,.44,.7,.79,1.06,1.17Z"/><path d="M92.81,202.67c1.3,.33,2.25,.89,2.78,.62,.6-.31,1.17-1.4,1.1-2.09-.11-1.05-1.26-1.36-2.09-.91-.64,.35-.98,1.25-1.78,2.37Z"/><path d="M98.85,176.46c2.04,.77,3.29,.84,4.07-.66,.21-.39,.24-1.14,0-1.43-.23-.29-1.07-.43-1.38-.23-.85,.56-1.57,1.32-2.68,2.32Z"/><path d="M40.8,214.49c1.33,.25,2.22,.7,2.81,.44,.5-.22,.65-1.23,.96-1.9-.77-.28-1.57-.81-2.3-.73-.43,.05-.76,1.07-1.46,2.18Z"/><path d="M79.73,242.84c1.07,.3,1.62,.63,2.12,.56,.84-.11,1.79-2.17,1.38-3.09-.17-.38-1.25-.79-1.31-.71-.72,.9-1.32,1.9-2.19,3.24Z"/><path d="M171.56,92.53c.47-1.21,1.05-1.99,.94-2.67-.07-.44-1.14-.73-1.76-1.08-.39,.68-1.07,1.37-1.07,2.05,0,.46,.97,.92,1.88,1.7Z"/><path d="M97,242.6c1.3,.11,2.11,.41,2.63,.14,.45-.23,.56-1.11,.82-1.71-.66-.24-1.43-.81-1.96-.64-.51,.16-.78,1.08-1.5,2.2Z"/><path d="M155.87,212.06c-1.04-.07-1.65-.26-2.14-.1-.69,.22-1.31,.69-1.91,1.12-.06,.04,.24,.82,.36,.82,.75-.01,1.55-.03,2.23-.3,.46-.18,.76-.77,1.45-1.54Z"/><path d="M215.65,172.12c.94,.41,1.6,.95,1.93,.8,.52-.25,.81-.97,1.2-1.49-.53-.35-1.11-1.03-1.58-.97-.48,.07-.86,.87-1.55,1.66Z"/><path d="M203.5,134.99c-.33,1.1-.81,1.84-.61,2.27,.2,.43,1.21,.9,1.61,.74,.44-.18,.88-1.11,.8-1.62-.07-.43-.9-.74-1.79-1.39Z"/><path d="M59.06,249.09c1.14,.19,1.86,.48,2.5,.35,.3-.06,.43-.93,.64-1.43-.68-.24-1.36-.63-2.05-.64-.27,0-.56,.84-1.1,1.72Z"/><path d="M122.71,183.46c-1-.85-1.87-.92-2.53,.07-.18,.26,.04,1.15,.32,1.3,1.16,.62,1.75-.09,2.21-1.37Z"/><path d="M167.28,101.6c-.27,.91-.69,1.58-.51,1.97,.17,.39,.95,.52,1.46,.77,.24-.52,.74-1.1,.64-1.56-.09-.4-.84-.66-1.59-1.19Z"/><path d="M75.73,171.36c-.03,1.12-.05,1.85-.08,3.18,1-.49,1.98-.66,2.12-1.1,.38-1.21-.57-1.64-2.03-2.07Z"/><path d="M163.9,197.12c.09-.9,.17-1.64,.29-2.8-1.04,.12-1.92,.22-3.29,.37,1.27,1.03,2.05,1.65,3,2.42Z"/><path d="M181.45,61.55c.27-.83,.74-1.62,.56-1.81-.38-.41-1.1-.52-1.68-.75-.2,.52-.66,1.13-.51,1.52,.14,.4,.88,.59,1.64,1.04Z"/><path d="M51.17,233.85c.39-.98,.82-1.58,.77-2.14-.03-.29-1.11-.83-1.36-.68-.47,.29-.88,.98-.93,1.55-.03,.29,.75,.66,1.52,1.28Z"/><path d="M153.89,112c-.25,1-.58,1.59-.45,2.06,.09,.34,.77,.54,1.19,.79,.29-.47,.85-.99,.78-1.41-.06-.42-.75-.75-1.52-1.44Z"/><path d="M141.16,225.28c1.52,.87,2.39,.61,3.07-.83-1.33-1.08-2.2-.75-3.07,.83Z"/><path d="M149.88,273.84c1.58,.01,2.56,.02,3.94,.03-1.67-1.7-1.7-1.71-3.94-.03Z"/><path d="M82.61,172.89c.97-.9,1.94-1.8,3.05-2.82q-1.81-.54-3.05,2.82Z"/><path d="M249.94,163.19c-.23,.89-.39,1.48-.54,2.07,.46,.11,1.11,.46,1.33,.28,.39-.33,.65-.96,.7-1.49,.02-.18-.73-.44-1.49-.87Z"/><path d="M156.35,176.83c-1.19,.2-2.17,.46-2.08,1.88,.01,.19,.55,.53,.79,.48,1.24-.23,1.82-.91,1.29-2.36Z"/><path d="M102.64,210.23c.32-.85,.5-1.37,.69-1.88-.52-.16-1.09-.51-1.55-.41-.32,.07-.8,.91-.68,1.16,.2,.42,.81,.63,1.54,1.13Z"/><path d="M205.32,96.1c.86,.18,1.52,.52,1.76,.33,.38-.3,.48-.96,.7-1.46-.45-.16-1.02-.56-1.31-.41-.42,.22-.65,.83-1.14,1.55Z"/><path d="M137.68,276.69c.64-.16,1.29-.31,2.03-.49-.42-1.42-1.36-1.52-2.26-1.19-.27,.1-.25,.98-.36,1.5,.2,.06,.4,.12,.59,.18Z"/><path d="M81.63,131.66c.92,.1,1.53,.32,1.99,.15,.33-.13,.47-.78,.69-1.2-.54-.17-1.11-.52-1.62-.45-.33,.05-.55,.74-1.07,1.5Z"/><path d="M169.13,202.69c-.36,1.33-.71,2.08-.56,2.2,.39,.32,1.01,.35,1.53,.5,.12-.46,.43-.97,.31-1.35-.14-.43-.66-.74-1.28-1.36Z"/><path d="M209.74,84.24c.86,.14,1.57,.44,1.75,.24,.33-.36,.42-1,.45-1.53,0-.1-.87-.47-1.05-.33-.41,.32-.65,.88-1.15,1.62Z"/><path d="M218.68,56.38c.93,.28,1.68,.64,1.77,.51,.37-.5,.57-1.14,.72-1.76,.02-.07-.86-.56-1.03-.44-.49,.35-.82,.91-1.46,1.68Z"/><path d="M95.15,242.16c.27-.77,.67-1.47,.53-1.62-.35-.35-.97-.61-1.46-.57-.24,.02-.71,.93-.58,1.15,.25,.41,.85,.61,1.52,1.04Z"/><path d="M153.43,163.51c-.19,.69-.53,1.23-.39,1.57,.15,.34,.77,.48,1.18,.71,.22-.5,.59-1,.58-1.5,0-.23-.76-.44-1.38-.78Z"/><path d="M58.6,202.25c.69,.3,1.27,.76,1.51,.62,.42-.25,.63-.86,.93-1.31-.44-.19-.92-.59-1.3-.51-.37,.07-.63,.64-1.13,1.21Z"/><path d="M134.74,139.17c-1.05-.31-1.81-.15-1.89,1.07-.01,.23,.4,.69,.62,.69,1.12,0,1.57-.6,1.27-1.76Z"/><path d="M139.54,239.05c-.78-.12-1.34-.39-1.65-.21-.34,.2-.46,.8-.67,1.22,.44,.14,.95,.48,1.3,.36,.36-.13,.56-.71,1.02-1.37Z"/><path d="M101.69,255.91c.22-.56,.58-1.1,.46-1.25-.26-.33-.81-.68-1.16-.6-.29,.06-.46,.71-.68,1.1,.41,.22,.82,.44,1.38,.75Z"/><path d="M66.09,196.91c.79,.2,1.33,.52,1.66,.37,.33-.15,.44-.78,.65-1.19-.37-.15-.83-.51-1.1-.41-.39,.15-.66,.64-1.21,1.24Z"/><path d="M50.58,207.63c.65,.24,1.14,.59,1.36,.46,.36-.2,.54-.72,.8-1.1-.35-.2-.78-.64-1.02-.55-.39,.15-.64,.64-1.14,1.19Z"/><path d="M137.68,276.69c-.2-.06-.4-.12-.59-.18-.64,.01-1.28,.02-2.15,.04,1.48,1.72,1.69,1.71,2.75,.14Z"/><path d="M142.81,217.23c-.61,.32-1.22,.64-1.83,.96,.12,.27,.25,.55,.37,.82,.66-.26,1.32-.53,1.98-.79-.17-.33-.35-.66-.52-1Z"/><path d="M114.82,220.06c.79,.18,1.35,.5,1.68,.34,.37-.18,.52-.8,.77-1.22-.45-.16-.95-.52-1.33-.42-.37,.1-.61,.67-1.12,1.3Z"/><path d="M123.92,237.9c.24-.59,.4-.96,.55-1.34-.44-.17-.9-.48-1.33-.45-.22,.02-.64,.85-.56,.95,.3,.34,.78,.52,1.33,.84Z"/><path d="M184.03,160.24c.82,.2,1.29,.45,1.69,.37,.24-.05,.39-.6,.58-.92-.38-.14-.78-.43-1.14-.39-.31,.04-.57,.45-1.14,.94Z"/><path d="M222.98,174.41c.26-.57,.61-.98,.53-1.28-.07-.25-.72-.56-.97-.47-.3,.12-.62,.63-.61,.97,0,.22,.56,.43,1.05,.77Z"/><path d="M127.5,257.06c.7,.04,1.19,.21,1.45,.04,.28-.19,.33-.7,.48-1.07-.39-.1-.85-.37-1.14-.25-.3,.13-.42,.64-.79,1.28Z"/><path d="M100.73,160.45c-.66,.43-1.32,.86-1.98,1.29,.13,.22,.27,.45,.4,.67,.68-.41,1.37-.81,2.05-1.22-.16-.25-.32-.5-.48-.74Z"/><path d="M124.92,160.93c-.69,.35-1.38,.7-2.07,1.05,.11,.23,.22,.47,.33,.7,.72-.32,1.43-.64,2.15-.96-.14-.26-.28-.53-.41-.79Z"/><path d="M186.1,163.87c-.63,0-1.26,0-1.88,.05-.06,0-.14,.66-.11,.67,.61,.18,1.23,.3,1.85,.44,.05-.39,.09-.78,.14-1.16Z"/><path d="M75.67,248.09c.57,.19,1.06,.52,1.26,.39,.28-.18,.54-.76,.44-1.05-.08-.26-.7-.56-1-.49-.26,.07-.4,.62-.7,1.15Z"/><path d="M137.11,227.46c.67,.11,1.12,.32,1.39,.18,.29-.15,.43-.62,.63-.95-.37-.13-.78-.42-1.09-.33-.3,.08-.49,.55-.93,1.1Z"/><path d="M137.16,152.95c.37,.03,.86,.22,1.08,.05,.26-.2,.29-.7,.43-1.07-.37-.1-.79-.36-1.09-.26-.36,.11-.62,.53-.92,.82,.17,.16,.34,.31,.51,.47Z"/><path d="M55.36,217.95c-.02-.35,.08-.77-.09-1.02-.2-.3-.6-.52-.96-.65-.08-.03-.55,.56-.49,.69,.16,.32,.53,.55,.81,.81l.73,.17Z"/><path d="M144.39,219.85c-.41,.98-.68,1.32-.61,1.56,.06,.21,.67,.49,.76,.41,.28-.23,.57-.62,.58-.95,0-.28-.38-.56-.73-1.02Z"/><path d="M126.14,149.32c.22-.55,.46-.9,.46-1.26,0-.15-.65-.49-.76-.41-.29,.22-.53,.6-.6,.95-.03,.14,.46,.38,.9,.71Z"/><path d="M133.51,200.13c-.09,.59-.24,.99-.17,1.34,.03,.13,.75,.31,.83,.21,.23-.28,.37-.7,.37-1.07,0-.13-.53-.25-1.03-.48Z"/><path d="M66.48,167.4c-.06,.51-.13,1.03-.19,1.54,.13,.05,.25,.11,.38,.16,.2-.28,.51-.53,.58-.83,.06-.27-.14-.6-.22-.91-.18,.01-.36,.03-.55,.04Z"/><path d="M78.8,306.57c.62,.17,.99,.35,1.35,.33,.11,0,.35-.65,.24-.83-.14-.24-.58-.44-.87-.41-.21,.03-.38,.45-.73,.91Z"/><path d="M86.66,234.75c.64,.12,1.04,.31,1.38,.23,.18-.04,.26-.54,.38-.84-.36-.13-.73-.36-1.08-.34-.2,.02-.36,.47-.69,.95Z"/><path d="M204.44,89.16c.19-.56,.44-.92,.35-1.11-.1-.2-.53-.3-.81-.3-.12,0-.37,.44-.32,.58,.09,.25,.38,.42,.78,.83Z"/><path d="M256.58,214.94c-.16,.51-.33,.81-.3,1.1,0,.12,.5,.35,.63,.28,.26-.15,.42-.47,.62-.72-.25-.17-.5-.35-.94-.66Z"/><path d="M161.46,142.95c.02,.35-.06,.76,.08,1.05,.11,.22,.5,.37,.78,.39,.12,.01,.42-.39,.39-.55-.05-.26-.32-.47-.49-.7-.25-.06-.51-.12-.76-.18Z"/><path d="M92.55,222.1c.61-.12,1.05-.09,1.17-.27,.13-.19,.02-.62-.1-.89-.04-.09-.57-.1-.68,.03-.18,.21-.21,.56-.39,1.13Z"/><path d="M201.69,170.83c.17-.44,.44-.83,.35-.93-.17-.21-.56-.4-.81-.35-.19,.03-.32,.44-.48,.68,.26,.16,.51,.33,.94,.61Z"/><path d="M227.97,156.32c.47,.07,.77,.2,1.02,.13,.14-.03,.2-.38,.3-.59-.27-.1-.54-.27-.81-.27-.13,0-.25,.34-.52,.73Z"/><path d="M144.76,195.4c.67,0,.98,.08,1.22-.02,.17-.07,.23-.39,.34-.6-.27-.13-.57-.39-.8-.34-.22,.05-.36,.43-.77,.96Z"/><path d="M144.86,135.03c-.18,.51-.43,.86-.34,1.08,.08,.21,.58,.45,.76,.37,.23-.1,.45-.53,.42-.79-.02-.2-.43-.36-.84-.66Z"/><path d="M95.02,283.66c.27,.2,.57,.49,.62,.46,.22-.17,.37-.43,.55-.66-.21-.11-.43-.32-.63-.31-.16,0-.31,.29-.53,.52Z"/><path d="M223.74,136.08c.34-.36,.69-.72,1.03-1.08-.08-.1-.16-.2-.25-.3-.41,.29-.81,.58-1.22,.87,.14,.17,.29,.34,.43,.51Z"/><path d="M120.07,242.5c.67,.07,.97,.19,1.13,.09,.23-.14,.35-.45,.52-.69-.19-.12-.42-.37-.55-.32-.25,.09-.43,.34-1.1,.92Z"/><path d="M113.2,242.05c.47,.03,.78,.12,1.03,.03,.14-.05,.16-.41,.24-.62-.28-.07-.57-.21-.84-.18-.12,.01-.21,.36-.43,.77Z"/><path d="M199.11,152.85c-.44,.04-.77,0-1.02,.12-.12,.06-.09,.42-.13,.65,.3,.03,.62,.13,.9,.07,.11-.02,.13-.41,.26-.84Z"/><path d="M80.5,178.85c-.05,.21-.1,.42-.16,.63,.16,.02,.39,.11,.45,.04,.13-.15,.17-.37,.25-.57-.15-.03-.3-.06-.54-.1Z"/><path d="M150.27,193.88c.33,.11,.68,.3,.73,.24,.18-.23,.26-.54,.38-.81-.23-.04-.51-.17-.69-.09-.17,.07-.24,.37-.42,.66Z"/><path d="M157.31,191.26c.4,.21,.67,.45,.77,.4,.24-.15,.39-.43,.58-.65-.18-.12-.4-.38-.52-.34-.26,.08-.46,.32-.83,.6Z"/><path d="M83.96,184.63c.3-.03,.61-.03,.89-.13,.07-.02,.08-.52,0-.58-.19-.11-.49-.14-.71-.08-.24,.06-.45,.25-.67,.38,.17,.13,.33,.27,.5,.4Z"/><path d="M164.29,185.76c.25,.16,.54,.42,.6,.38,.22-.16,.36-.43,.52-.66-.21-.11-.44-.32-.63-.29-.17,.03-.29,.32-.5,.57Z"/><path d="M199.64,185.62c.25,.18,.56,.47,.61,.43,.22-.18,.37-.44,.54-.68-.22-.11-.44-.33-.64-.31-.17,.02-.3,.32-.51,.55Z"/><path d="M68.49,166.29c.18,.16,.3,.27,.41,.38,.12-.21,.28-.41,.35-.64,.02-.06-.21-.21-.33-.31-.15,.19-.29,.38-.44,.57Z"/><path d="M173.99,111.52c.75,.12,1.04,.25,1.18,.16,.15-.09,.16-.41,.23-.63-.22-.07-.46-.23-.64-.18-.21,.06-.38,.3-.77,.64Z"/><path d="M29.66,174.39c.24,.06,.47,.14,.71,.16,.04,0,.16-.38,.13-.4-.2-.12-.43-.19-.65-.28-.05,.14-.1,.28-.19,.52Z"/><path d="M179.07,154.54c-.16,.19-.26,.31-.36,.43,.17,.13,.32,.29,.51,.37,.06,.02,.32-.28,.3-.32-.12-.18-.29-.32-.45-.48Z"/><path d="M150.81,144.32c.13,.1,.25,.19,.38,.29,.11-.18,.23-.37,.34-.55-.15-.06-.34-.19-.46-.15-.12,.05-.18,.27-.26,.41Z"/><path d="M161.26,138.49c.13-.32,.22-.51,.3-.7-.21-.06-.41-.17-.62-.17-.08,0-.25,.3-.22,.37,.1,.17,.3,.29,.54,.5Z"/><path d="M144.85,276.03c.13,.05,.25,.1,.38,.16,.02-.13,.05-.26,.05-.4,0-.03-.17-.09-.19-.07-.09,.09-.16,.2-.23,.31Z"/><path d="M169.31,136.67c.1,.11,.22,.31,.31,.3,.13-.01,.24-.18,.36-.29-.11-.12-.22-.24-.33-.36-.11,.12-.22,.23-.34,.35Z"/><path d="M246.52,50.36c-.05,.13-.11,.26-.12,.39,0,.04,.15,.15,.18,.14,.11-.07,.2-.18,.29-.27-.11-.09-.23-.17-.34-.26Z"/><path d="M159.56,162.4c.08-.12,.15-.25,.22-.37-.13-.06-.26-.13-.4-.16-.03,0-.15,.16-.14,.19,.09,.13,.21,.23,.31,.35Z"/><path d="M115.22,236.81c.11,.1,.23,.26,.34,.27,.12,0,.25-.15,.38-.23-.12-.1-.23-.26-.36-.27-.11,0-.24,.15-.36,.24Z"/><path d="M106.64,185.3c.14-.06,.28-.13,.41-.19-.05-.06-.12-.18-.16-.17-.14,.03-.26,.11-.39,.17,.05,.07,.09,.13,.14,.2Z"/><path d="M217.06,107.94c.13-.02,.27-.04,.4-.06-.05-.12-.09-.25-.16-.36-.01-.02-.19,0-.19,.03-.03,.13-.03,.26-.05,.4Z"/></g></g></g></g></svg>
