<?xml version="1.0" encoding="UTF-8"?><svg id="Layer_2" xmlns="http://www.w3.org/2000/svg"><defs><style>.swordtwo-1{fill:#6c301e;}.swordtwo-2{fill:#989498;}.swordtwo-3{fill:#b2b6ba;}.swordtwo-4{fill:#c6cacc;}</style></defs><g id="Right_base_"><g id="Right-Sword2"><path class="swordtwo-3" d="M444.18,112.13c-60.61,58.44-134.64,105.25-213.66,121.71-79.02,16.46-157.5,1.84-230.51-32.58,45.62-2.24,88.12-24.26,123.07-53.67,23.67,19.01,73.36,24.44,134.33,15.9,70.77-9.91,137.31-56.87,167.21-73.44,7.69,2.54,14.72,15.58,19.56,22.08Z"/><path class="swordtwo-4" d="M444.18,112.13c-60.61,58.44-134.64,105.25-213.66,121.71-79.02,16.46-157.5,1.84-230.51-32.58,45.23,7.61,138.81,37.73,239.9,11.24,118.95-31.17,192.24-117.28,195.57-112.89s6.29,9.27,8.71,12.52Z"/><circle class="swordtwo-2" cx="532.55" cy="21.69" r="21.69"/><rect class="swordtwo-2" x="425.25" y="80.86" width="34.8" height="25.66" transform="translate(646.87 497.44) rotate(-128.78)"/><path class="swordtwo-1" d="M511.44,22.83l15.25,18.98-.66,.94c-16.35,23.25-37.69,42.54-62.46,56.46h0s-21.78-27.11-21.78-27.11h0c18.94-21.19,42.37-37.88,68.59-48.83l1.07-.45Z"/><polygon class="swordtwo-2" points="411.77 50.31 447.4 89.89 437.92 97.5 406.36 54.65 411.77 50.31"/><polygon class="swordtwo-2" points="473.65 137.21 438.02 97.63 447.5 90.01 479.06 132.86 473.65 137.21"/><circle class="swordtwo-2" cx="476.06" cy="135.27" r="6.08"/><circle class="swordtwo-2" cx="409.36" cy="52.25" r="6.08"/><path class="swordtwo-2" d="M454.06,107c7.27,6.28,16.35,10.45,25.86,11.85,19.52,2.89,40.02-6.48,51.69-22.38s14.58-37.53,8.79-56.39c-2.77-2.09-7.87-.58-8.68,2.79-.75,3.11,1.02,6.31,1.24,9.41s-1.07,6.13-2.06,9.01c-1.29,3.78-.81,6.18-.15,9.87,.57,3.18-1.82,5.55-4.15,7.34-2.41,1.84-3.85,4.85-4.51,7.89-.39,1.81-.48,3.75-1.43,5.33-1.91,3.17-6.29,3.58-9.35,5.65-2.31,1.56-3.85,4.09-6.22,5.57-3.09,1.93-7,1.75-10.65,1.74-2.49,0-5.14,.14-7.44,1.18-1.93,.88-3.23,2.49-5.2,3.35-3.94,1.72-8.52,1.74-12.59,.47-4.81-1.5-8.98-4.68-12.32-8.46-2.27,1.18-3.01,3.24-2.84,5.79Z"/></g></g></svg>
