<?xml version="1.0" encoding="UTF-8"?><svg id="Layer_2" xmlns="http://www.w3.org/2000/svg"><defs><style>.rightbook-1{fill:#006838;}.rightbook-2{fill:#03753c;}.rightbook-3{fill:#009444;}.rightbook-4{fill:#ccad56;}.rightbook-5{fill:#d3bf92;}.rightbook-6{fill:none;stroke:#009444;stroke-miterlimit:10;stroke-width:1.96px;}</style></defs><g id="Right_base_"><g id="Right-Book"><path class="rightbook-1" d="M75.96,268.33c.86,1.78,3.13,2.35,4.72,1.17l174.46-122.98c1.01-.74,1.4-2.07,.95-3.24L202.53,4.54s-.67-1.51-2.92-2.33L.35,114.36s-1.27,2.56,1.05,4.37l74.56,149.6Z"/><path class="rightbook-5" d="M2.86,115.04l75.56,149.48s11.91-.18,18.05,7.03S27.33,106.23,27.33,106.23l-22.38,4.84-2.1,3.98Z"/><path class="rightbook-3" d="M102.41,276.2l178.58-125.78c1.5-1.1,2.03-3.1,1.26-4.8L222.62,12.66s-.67-1.51-2.92-2.33L20.44,122.48s-1.03,2.06,1.29,3.87l76.54,148.85c.77,1.55,2.75,2.03,4.14,1.01Z"/><path class="rightbook-2" d="M222.62,12.66s-.67-1.51-2.92-2.33L20.44,122.48s-1.03,2.06,1.29,3.87L222.62,12.66Z"/><path class="rightbook-3" d="M219.7,10.33s2.2-3.15,0-6.95L20.21,116.9s-3.69,3.2,.23,5.58L219.7,10.33Z"/><path class="rightbook-1" d="M219.7,3.38s-11.56-7.61-23.56,0L6.23,107.83s-5.23,1.76-6.11,7.31c.86,1.49,3.92-.34,4.02-1.97s15.54,4.21,15.26,4.65S219.7,3.38,219.7,3.38Z"/><polygon class="rightbook-4" points="212.8 49.89 254.5 136.29 218.08 161.19 172.29 72.82 212.8 49.89"/><polygon class="rightbook-6" points="211.13 55.72 249.62 134.41 219.7 154.86 177.86 74.56 211.13 55.72"/></g></g></svg>
