<?xml version="1.0" encoding="UTF-8"?><svg id="Layer_2" xmlns="http://www.w3.org/2000/svg"><defs><style>.pitchfork-1,.pitchfork-2{fill:#e21a05;}.pitchfork-2{stroke:#000;stroke-linecap:round;stroke-miterlimit:10;stroke-width:28px;}</style></defs><g id="Right_base_"><g id="Right-Pitchfork"><line class="pitchfork-2" x1="275.97" y1="192.13" x2="829.35" y2="14"/><path class="pitchfork-1" d="M127.05,125.49c-2.07,.88-3.86,1.64-5.15,2.12-12.34,4.63-75.01,29.41-89.27,35.37l8.48,20.29c13.67-5.72,76.63-30.62,88.51-35.07,1.72-.65,3.71-1.49,6.01-2.46,15.01-6.36,42.95-18.21,64.88-4.8,10.03,6.14,15.58,18.44,19.49,31,4.17,13.42-3.23,27.69-16.6,32L61.5,249.62l6.74,20.93,142.12-45.75c13.31-4.29,27.54,2.92,32.1,16.14s7.54,27.21,2.71,38.68c-9.99,23.69-39.59,30.36-55.5,33.95-2.44,.55-4.54,1.02-6.32,1.5-12.24,3.31-77.9,19.81-92.35,23.14l4.95,21.43c15.07-3.48,80.42-19.91,93.14-23.34,1.33-.36,3.22-.79,5.42-1.28,18.35-4.14,56.54-12.75,70.92-46.86,5.37-12.72,6.27-26.78,4.82-40.38-.21-1.95-2.54-14.64-4.74-24.5-1.55-6.92,2.44-13.88,9.19-16.05l17.87-5.75-8.57-26.63s-9.43,3.04-17.83,5.74c-6.73,2.17-14.02-1.13-16.81-7.63-2.81-6.55-6.12-13.58-6.59-14.51-7.22-14.15-17.01-27.86-30.78-36.28-31.58-19.31-67.62-4.03-84.94,3.31Z"/><path class="pitchfork-1" d="M29.88,274.63l35.51,5.63c2.2,.35,4.17-1.42,4.04-3.64-.24-4.13-.94-10.65-3-17.03-2.05-6.38-5.29-12.09-7.5-15.58-1.19-1.88-3.83-2.17-5.41-.6l-25.56,25.28c-2.04,2.02-.92,5.5,1.91,5.95Z"/><path class="pitchfork-1" d="M3.24,190.84l35.85,2.71c2.22,.17,4.04-1.76,3.73-3.96-.57-4.09-1.81-10.54-4.38-16.73s-6.26-11.62-8.75-14.92c-1.34-1.78-3.99-1.85-5.44-.16L.85,185.07c-1.87,2.18-.47,5.56,2.39,5.77Z"/><path class="pitchfork-1" d="M55.77,354.02l27.54-23.12c1.71-1.43,4.31-.93,5.34,1.04,1.92,3.66,4.68,9.62,6.2,16.14,1.53,6.52,1.7,13.09,1.6,17.22-.05,2.23-2.16,3.83-4.33,3.3l-34.93-8.5c-2.79-.68-3.62-4.24-1.42-6.08Z"/></g></g></svg>
