<?xml version="1.0" encoding="UTF-8"?><svg xmlns="http://www.w3.org/2000/svg" xmlns:xlink="http://www.w3.org/1999/xlink"><defs><style>.candyb-1,.candyb-2{fill:none;}.candyb-2{stroke:#000;}.candyb-2,.candyb-3{stroke-linecap:round;stroke-miterlimit:10;stroke-width:6px;}.candyb-4{clip-path:url(#clippath8);}.candyb-5,.candyb-3{fill:#ea8b00;}.candyb-6{fill:#ffc91d;}.candyb-7{fill:#662d91;}.candyb-8{fill:#b9dd26;}.candyb-9{fill:#ce6200;}.candyb-10{fill:#58595b;}.candyb-11{opacity:.12;}.candyb-11,.candyb-12{mix-blend-mode:multiply;}.candyb-3{opacity:.4;stroke:#ce6200;}.candyb-13{isolation:isolate;}.candyb-12{opacity:.2;}.candyb-14{fill:#fff;opacity:.5;}</style><clipPath id="clippath8"><path class="candyb-1" d="M253.2,137.82c-2.01,1.18-4.04,2.38-6.05,3.64-27.57,17.34-64.73,18.43-96.44,18.43-8.82,0-17.65-.29-26.45-.9-17.62-1.22-35.64-3.41-52.51-8.88-3.82-1.24-7.51-2.85-11.14-4.57-2.04-.96-4.06-2.01-5.81-3.43s-3.24-3.24-3.94-5.38c-.2-.62-.34-1.27-.67-1.83-.55-.93-1.56-1.5-2.55-1.93-4.88-2.16-10.39-2.42-15.38-4.28-1.6-.6-2.6-2.01-3.75-3.23-8.22-8.72-13.48-21.01-11.13-32.76,1.8-8.96,7.72-16.58,14.49-22.73,18.74-17.04,44.1-24.8,69.04-29.19,53.65-9.45,111.78-4.78,157.92,24.21,10.99,6.91,21.91,16.27,24.13,29.06,1.8,10.33-2.65,21-9.59,28.85-5.82,6.59-12.91,10.67-20.16,14.92Z"/></clipPath></defs><g class="candyb-13"><g id="Layer_2"><g id="Right_base_"><g id="Right-CandyBucket"><path class="candyb-5" d="M294.09,178.7c-9.26-27.06-28.53-51.23-54.48-63.25H61.81c-25.95,12.02-45.21,36.2-54.48,63.25-9.26,27.06-9.13,56.73-3.11,84.68,5.25,24.41,15.31,48.49,33.06,66.05,15.95,15.79,37.19,25.38,58.99,30.72,35.62,8.73,73.25,8.73,108.88,0,21.8-5.34,43.04-14.93,58.99-30.72,17.75-17.56,27.81-41.64,33.06-66.05,6.01-27.96,6.15-57.63-3.11-84.68Z"/><g><path class="candyb-9" d="M150.71,162.89c-50.14,0-103.42-10.02-103.42-28.59s53.29-28.59,103.42-28.59,103.42,10.02,103.42,28.59-53.29,28.59-103.42,28.59Z"/><path class="candyb-5" d="M150.71,108.71c55.46,0,100.42,11.46,100.42,25.59s-44.96,25.59-100.42,25.59-100.42-11.46-100.42-25.59,44.96-25.59,100.42-25.59m0-6c-27.31,0-53.05,2.73-72.49,7.68-22.51,5.74-33.93,13.78-33.93,23.91s11.42,18.17,33.93,23.91c19.44,4.95,45.18,7.68,72.49,7.68s53.05-2.73,72.49-7.68c22.51-5.74,33.93-13.78,33.93-23.91s-11.42-18.17-33.93-23.91c-19.44-4.95-45.18-7.68-72.49-7.68h0Z"/></g><path class="candyb-2" d="M43.21,141.23c-15.42-34.82-4.47-78.24,22.64-104.98C92.97,9.52,133.68-1.04,171.37,4.38c31.96,4.59,60.95,20.95,78.34,48.15,17.39,27.2,17.11,62.92,7.92,88.26"/><path class="candyb-3" d="M61.29,154.32c-14.58,14.18-20.47,34.96-23.85,55.02-3.98,23.64-5.27,48.06-.18,71.49s16.98,45.9,35.84,60.71"/><path class="candyb-3" d="M105.73,167.59c-7.74,30.65-13.05,62.11-12.69,93.72s6.54,63.48,20.81,91.69"/><path class="candyb-3" d="M244.38,154.32c14.58,14.18,20.47,34.96,23.85,55.02,3.98,23.64,5.27,48.06,.18,71.49-5.08,23.43-16.98,45.9-35.84,60.71"/><path class="candyb-3" d="M199.93,167.59c7.74,30.65,13.05,62.11,12.69,93.72-.36,31.61-6.54,63.48-20.81,91.69"/><path class="candyb-3" d="M155.18,169.04c-1.85,63.49-3.42,125.35-4.32,186.34"/><path class="candyb-11" d="M294.09,178.7c1.23,33.15-4.99,63.64-10.74,78.97-9.27,24.74-27.92,47.19-50.79,60.42-15.6,9.03-40.43,16.09-58.18,19.2-40.38,7.08-83.13-2.02-120.32-19.27-17.51-8.12-30.06-21.61-43.84-34.71,3.27,16.83,15.03,34.21,27.06,46.12,15.95,15.79,37.19,25.38,58.99,30.72,35.62,8.73,73.25,8.73,108.88,0,21.8-5.34,43.04-14.93,58.99-30.72,17.75-17.56,27.81-41.64,33.06-66.05,6.01-27.96,6.15-57.63-3.11-84.68Z"/><path d="M89.51,188.45c-14.76,9.07-24.23,22.56-28.8,36.31-.85,2.57,.39,5.34,2.94,6.74,12.68,6.92,37.73,9.88,51.81,4.57,2.43-.91,3.96-3.16,3.75-5.57-1.16-13.43-9.2-30.6-21.92-41.49-2.14-1.83-5.4-2.03-7.79-.56Z"/><path d="M207.06,189.32c-12.46,12.04-18.8,27.25-20.3,41.66-.28,2.69,1.53,5.13,4.33,5.95,13.87,4.02,38.97,1.52,51.58-6.69,2.17-1.42,3.19-3.94,2.47-6.25-4.03-12.87-15.58-27.9-30.34-35.8-2.48-1.33-5.71-.82-7.73,1.13Z"/><path d="M147.66,233.56l-13.96,19.68c-2.44,3.44-1.21,8.84,2.28,10.29,14.5,6.01,27.42,2.97,34.95-.07,3.45-1.39,4.57-6.82,2.16-10.22l-13.95-19.68c-3.16-4.46-8.33-4.46-11.49,0Z"/><path d="M214.88,280.42l1.72,10.83c.4,2.5-1.31,4.86-3.81,5.26l-20.61,3.28c-2.5,.4-4.86-1.31-5.26-3.81l-1.3-8.19c-.39-2.46-2.68-4.18-5.15-3.83-9.19,1.31-18.41,2.02-27.53,2.02-9.62,0-19.33-.78-29.02-2.23-2.34-.35-4.55,1.16-5.11,3.46l-1.7,7.01c-.6,2.46-3.08,3.98-5.54,3.38l-20.28-4.91c-2.46-.6-3.98-3.08-3.38-5.54l1.65-6.82c.56-2.32-.75-4.7-3.03-5.44-9.8-3.16-19.38-6.92-28.6-11.16-3.86-1.78-7.86,2.26-6.07,6.12,15.53,33.45,53.33,59.8,93.38,62.85,2.77,.21,5.07-2.12,4.89-4.89l-.6-9.04c-.17-2.53,1.75-4.72,4.28-4.89l20.82-1.38c2.53-.17,4.72,1.75,4.89,4.28l.45,6.82c.2,3,3.18,4.98,6.04,4.05,29.92-9.69,55.82-31.56,68.01-57.8,1.8-3.88-2.24-7.87-6.13-6.08-9.6,4.42-19.6,8.31-29.83,11.56-2.18,.69-3.54,2.85-3.18,5.11Z"/><g class="candyb-4"><g id="Candy"><path class="candyb-6" d="M88.75,151.45s6.51-6.56,16.46-4.85c-.25-.03,2.57,4.46-.09,8.32-1.42,2.06-3.99,2.65-4.98,7.52-.73,3.58-4.27,5.76-7.6,6.16,0,0-5.09-6.89-3.78-17.15Z"/><g class="candyb-12"><path d="M88.95,152.04s-.01-.05-.02-.07c-.06-.36,.19-.69,.54-.75,.26-.04,6.44-.99,13.22,.46,.35,.08,.58,.42,.5,.77-.08,.35-1.75,2-2.1,1.92-6.54-1.4-11.36-1.87-11.42-1.86-.33,.05-.64-.15-.73-.47Z"/></g><path class="candyb-6" d="M49.12,128.09s-2.79,3.88-9.02,4.95-8.34-.97-8.34-.97c0,0-.81-3.11,1.72-6.82,2.53-3.71,15.65,2.84,15.65,2.84Z"/><path class="candyb-12" d="M49.12,128.09s-2.79,3.88-9.02,4.95-8.34-.97-8.34-.97c0,0-.81-3.11,1.72-6.82,2.53-3.71,15.65,2.84,15.65,2.84Z"/><path class="candyb-6" d="M49.12,128.09s2.87-6.23-2.74-14.14c-5.08-7.15-6.38,1.6-9.2,5.64s-6.86,6.34-3.65,8.24c1.78,1.05,8.62,3.39,15.6,.26Z"/><g class="candyb-12"><path d="M42.55,121.39c-.07-.19,.54-.96,.67-1.14,.21-.29,.62-.36,.91-.15,4.33,3.1,5.19,7.2,5.22,7.38,.07,.35-.16,.7-.51,.77s-.7-.16-.77-.51h0s-1.4-3.24-5.29-6.02c-.11-.08-.19-.19-.24-.31Z"/></g><rect class="candyb-6" x="45.09" y="131.24" width="48.53" height="17.33" rx="4.45" ry="4.45" transform="translate(79.74 -15.9) rotate(30.18)"/><path class="candyb-14" d="M46.59,136.3c.34,.44,.77,.83,1.29,1.13l7.35,4.27c6.47-2.86,12.89-5.81,19.28-8.84l-8.83-5.13c-6.33,2.94-12.69,5.79-19.09,8.56Z"/><path class="candyb-14" d="M64.28,146.97l8.56,4.98c6.12-3.19,12.29-6.28,18.55-9.18-.17-.14-.34-.28-.54-.39l-8.2-4.77c-6.19,2.99-12.3,6.14-18.37,9.36Z"/></g><g id="Candy-2"><path class="candyb-6" d="M183.48,137.04s7.45,5.47,7.21,15.57c0-.25-4.04,3.2-8.24,1.13-2.24-1.1-3.2-3.56-8.17-3.83-3.65-.2-6.32-3.38-7.21-6.61,0,0,6.07-6.04,16.41-6.26Z"/><g class="candyb-12"><path d="M182.93,137.33s.04-.02,.07-.03c.34-.11,.71,.08,.82,.43,.08,.25,1.93,6.23,1.49,13.15-.02,.36-.33,.63-.69,.61-.36-.02-2.23-1.44-2.21-1.8,.42-6.68,.19-11.51,.17-11.57-.1-.32,.06-.66,.36-.79Z"/></g><path class="candyb-6" d="M200.78,94.41s-4.24-2.19-6.22-8.2-.26-8.4-.26-8.4c0,0,2.95-1.26,7,.7,4.04,1.96-.51,15.89-.51,15.89Z"/><path class="candyb-12" d="M200.78,94.41s-4.24-2.19-6.22-8.2-.26-8.4-.26-8.4c0,0,2.95-1.26,7,.7,4.04,1.96-.51,15.89-.51,15.89Z"/><path class="candyb-6" d="M200.78,94.41s6.59,1.93,13.58-4.79c6.33-6.08-2.51-6.08-6.93-8.28s-7.28-5.85-8.68-2.4c-.78,1.91-2.09,9.02,2.03,15.47Z"/><g class="candyb-12"><path d="M206.43,86.93c.18-.1,1.03,.4,1.23,.5,.32,.16,.45,.56,.28,.88-2.43,4.74-6.36,6.19-6.53,6.25-.34,.12-.71-.06-.83-.39s.05-.71,.39-.83h0s3-1.86,5.18-6.12c.06-.12,.16-.22,.27-.28Z"/></g><rect class="candyb-6" x="167.79" y="107.5" width="48.53" height="17.33" rx="4.45" ry="4.45" transform="translate(371.1 -19.2) rotate(111.74)"/><path class="candyb-14" d="M192.28,93.11c-.39,.4-.71,.88-.93,1.44l-3.15,7.9c3.78,5.98,7.63,11.9,11.57,17.78l3.78-9.49c-3.83-5.83-7.59-11.7-11.27-17.63Z"/><path class="candyb-14" d="M184.32,112.17l-3.67,9.2c4.05,5.58,8.02,11.23,11.81,17,.11-.19,.22-.38,.31-.59l3.51-8.81c-3.87-5.68-7.88-11.27-11.96-16.8Z"/></g><g id="Candy-3"><path class="candyb-7" d="M106.77,119.84c8.7,10.22,5.14,21.84-1.02,29.98-9.92,5.73-21.63,5.77-29.75-3.78-8.7-10.22-5.14-21.84,1.02-29.98,9.92-5.73,21.63-5.77,29.75,3.78Z"/><path class="candyb-7" d="M105.04,149.12s10.8-5.34,22.34,.98c-.3-.14,1.28,6.59-3.63,10.21-2.62,1.93-6.03,1.58-9.33,7.17-2.42,4.1-7.7,5.29-11.97,4.38,0,0-3.36-10.64,2.59-22.74Z"/><g class="candyb-11"><path d="M105.04,149.94s0-.06,.01-.09c.08-.46,.52-.77,.98-.69,.34,.06,8.36,1.5,16.11,6.15,.4,.24,.53,.76,.29,1.17-.24,.4-3,1.72-3.4,1.48-7.47-4.49-13.21-7.11-13.29-7.12-.43-.08-.73-.46-.7-.89Z"/></g><path class="candyb-7" d="M77.67,116.7s-5.08,3.6-13.22,2.29c-8.14-1.31-9.88-4.73-9.88-4.73,0,0,.31-4.17,5-7.68,4.69-3.51,18.09,10.11,18.09,10.11Z"/><path class="candyb-11" d="M77.67,116.7s-5.08,3.6-13.22,2.29c-8.14-1.31-9.88-4.73-9.88-4.73,0,0,.31-4.17,5-7.68,4.69-3.51,18.09,10.11,18.09,10.11Z"/><path class="candyb-7" d="M77.67,116.7s6.18-6.47,2.6-18.59c-3.24-10.97-8.54-.73-13.73,3.06-5.19,3.79-11.13,4.91-7.98,8.61,1.75,2.05,9.19,7.82,19.12,6.92Z"/><g class="candyb-11"><path d="M72.41,105.67c0-.27,1.08-.96,1.31-1.13,.38-.27,.91-.18,1.19,.2,4.03,5.65,3.35,11.07,3.32,11.3-.06,.46-.49,.79-.96,.73s-.79-.49-.73-.95h0c0-.05-.35-4.58-3.97-9.66-.1-.15-.16-.32-.16-.48Z"/></g></g><g id="Candy-4"><path class="candyb-7" d="M167.18,116.81c-.67,13.4-11.22,19.42-21.29,21.12-11.15-2.62-19.7-10.63-19.07-23.15,.67-13.4,11.22-19.42,21.29-21.12,11.15,2.62,19.7,10.63,19.07,23.15Z"/><path class="candyb-7" d="M145.85,136.95s11.52,3.51,15.59,16.03c-.12-.31-3.58,5.67-9.64,4.95-3.24-.39-5.47-2.99-11.7-1.17-4.57,1.33-9.23-1.42-11.72-5.02,0,0,4.85-10.05,17.47-14.78Z"/><g class="candyb-11"><path d="M145.29,137.54s.05-.04,.07-.06c.38-.28,.91-.2,1.19,.17,.21,.27,5.06,6.82,7.51,15.52,.13,.45-.14,.92-.59,1.05-.45,.13-3.36-.8-3.49-1.25-2.36-8.39-4.74-14.23-4.79-14.3-.26-.35-.21-.84,.1-1.13Z"/></g><path class="candyb-7" d="M148.15,94.58s-6.16-.86-11.2-7.39c-5.03-6.53-3.95-10.21-3.95-10.21,0,0,3.09-2.82,8.91-2.16,5.82,.66,6.24,19.76,6.24,19.76Z"/><path class="candyb-11" d="M148.15,94.58s-6.16-.86-11.2-7.39c-5.03-6.53-3.95-10.21-3.95-10.21,0,0,3.09-2.82,8.91-2.16,5.82,.66,6.24,19.76,6.24,19.76Z"/><path class="candyb-7" d="M148.15,94.58s8.93-.48,14.63-11.75c5.16-10.21-5.72-6.39-12.09-7.18-6.37-.8-11.47-4.05-11.72,.8-.13,2.69,1.33,12,9.18,18.14Z"/><g class="candyb-11"><path d="M151.87,82.94c.18-.2,1.44,.04,1.73,.08,.47,.06,.79,.49,.73,.96-.94,6.88-5.15,10.36-5.33,10.5-.36,.3-.9,.24-1.19-.12s-.24-.9,.12-1.19h0s2.89-3.58,3.73-9.76c.02-.18,.1-.34,.22-.46Z"/></g></g><g id="Candy-5"><path class="candyb-8" d="M109.45,161.64s4.11-8.28,14.09-9.79c-.25,.05,3.84,3.42,2.53,7.92-.7,2.4-2.95,3.77-2.36,8.71,.43,3.63-2.24,6.81-5.27,8.24,0,0-7-4.93-8.99-15.08Z"/><g class="candyb-12"><path d="M109.84,162.13s-.03-.04-.04-.06c-.17-.32-.04-.71,.28-.88,.23-.12,5.8-2.97,12.69-3.73,.36-.04,.68,.22,.72,.58,.04,.36-1.03,2.44-1.39,2.48-6.65,.73-11.37,1.8-11.42,1.83-.3,.15-.66,.06-.84-.22Z"/></g><path class="candyb-8" d="M64.48,151.95s-1.43,4.56-7,7.54-8.23,1.71-8.23,1.71c0,0-1.75-2.69-.52-7.01,1.23-4.32,15.74-2.24,15.74-2.24Z"/><path class="candyb-12" d="M64.48,151.95s-1.43,4.56-7,7.54-8.23,1.71-8.23,1.71c0,0-1.75-2.69-.52-7.01,1.23-4.32,15.74-2.24,15.74-2.24Z"/><path class="candyb-8" d="M64.48,151.95s.76-6.82-7.06-12.55c-7.08-5.19-5.55,3.52-6.96,8.25-1.41,4.72-4.51,8.18-.87,8.97,2.02,.44,9.25,.5,14.89-4.66Z"/><g class="candyb-12"><path d="M56.14,147.67c-.13-.16,.21-1.09,.28-1.3,.11-.34,.47-.54,.82-.43,5.09,1.58,7.19,5.2,7.28,5.36,.18,.31,.07,.71-.24,.89s-.71,.07-.89-.24h0s-2.35-2.63-6.92-4.05c-.13-.04-.24-.12-.32-.22Z"/></g><rect class="candyb-8" x="63.15" y="148.12" width="48.53" height="17.33" rx="4.45" ry="4.45" transform="translate(33.95 -14.58) rotate(11.81)"/><path class="candyb-14" d="M64.67,160.54c.46,.31,.99,.55,1.58,.67l8.32,1.74c5.24-4.75,10.41-9.57,15.52-14.46l-10-2.09c-5.08,4.78-10.22,9.49-15.42,14.14Z"/><path class="candyb-14" d="M84.82,165.1l9.69,2.03c4.8-4.96,9.68-9.83,14.71-14.56-.21-.08-.41-.16-.64-.2l-9.28-1.94c-4.93,4.79-9.74,9.7-14.49,14.68Z"/></g><g id="Candy-6"><path class="candyb-10" d="M235.98,136.71c-1.54,13.33-12.46,18.66-22.61,19.7-10.96-3.34-18.97-11.88-17.53-24.34,1.54-13.33,12.46-18.66,22.61-19.7,10.96,3.34,18.97,11.88,17.53,24.34Z"/><path class="candyb-10" d="M213.4,155.43s11.27,4.25,14.52,17c-.1-.31-3.94,5.43-9.94,4.31-3.2-.6-5.27-3.34-11.6-1.93-4.65,1.03-9.12-2.01-11.37-5.77,0,0,5.49-9.72,18.39-13.62Z"/><g class="candyb-11"><path d="M212.8,155.99s.05-.04,.08-.06c.39-.26,.92-.15,1.18,.25,.19,.29,4.61,7.14,6.49,15.97,.1,.46-.2,.91-.65,1.01-.46,.1-3.3-1.02-3.4-1.48-1.82-8.53-3.81-14.51-3.86-14.58-.24-.37-.16-.85,.17-1.12Z"/></g><path class="candyb-10" d="M218.43,113.3s-6.1-1.26-10.69-8.1-3.28-10.44-3.28-10.44c0,0,3.26-2.62,9.03-1.58,5.77,1.04,4.95,20.13,4.95,20.13Z"/><path class="candyb-11" d="M218.43,113.3s-6.1-1.26-10.69-8.1-3.28-10.44-3.28-10.44c0,0,3.26-2.62,9.03-1.58,5.77,1.04,4.95,20.13,4.95,20.13Z"/><path class="candyb-10" d="M218.43,113.3s8.95,.1,15.36-10.78c5.81-9.86-5.29-6.74-11.6-7.95-6.31-1.21-11.19-4.79-11.74,.04-.31,2.68,.55,12.06,7.98,18.7Z"/><g class="candyb-11"><path d="M222.9,101.92c.19-.18,1.44,.13,1.72,.19,.46,.09,.76,.54,.66,1-1.38,6.8-5.81,10-6,10.14-.38,.27-.91,.18-1.18-.2s-.19-.91,.2-1.18h0s3.11-3.38,4.35-9.5c.04-.18,.13-.33,.25-.45Z"/></g></g><g id="Candy-7"><path class="candyb-8" d="M142.07,112.92c11.5,6.93,11.82,19.07,8.56,28.75-7.58,8.59-18.67,12.34-29.41,5.87-11.5-6.93-11.82-19.07-8.56-28.75,7.58-8.59,18.67-12.34,29.41-5.87Z"/><path class="candyb-8" d="M149.75,141.23s8.54-8.49,21.49-6.17c-.33-.04,3.31,5.84-.2,10.84-1.87,2.67-5.22,3.41-6.56,9.76-.99,4.66-5.61,7.47-9.96,7.96,0,0-6.57-9.02-4.77-22.38Z"/><g class="candyb-11"><path d="M150.01,142.01s-.02-.06-.02-.09c-.07-.46,.25-.9,.71-.97,.34-.05,8.41-1.24,17.23,.71,.46,.1,.75,.55,.65,1.01-.1,.46-2.3,2.59-2.76,2.48-8.51-1.88-14.78-2.54-14.86-2.53-.43,.07-.84-.21-.95-.62Z"/></g><path class="candyb-8" d="M113.49,119.19s-3.67,5.03-11.8,6.38-10.87-1.34-10.87-1.34c0,0-1.03-4.05,2.3-8.87,3.33-4.82,20.37,3.84,20.37,3.84Z"/><path class="candyb-11" d="M113.49,119.19s-3.67,5.03-11.8,6.38-10.87-1.34-10.87-1.34c0,0-1.03-4.05,2.3-8.87,3.33-4.82,20.37,3.84,20.37,3.84Z"/><path class="candyb-8" d="M113.49,119.19s3.8-8.1-3.45-18.45c-6.56-9.37-8.33,2.02-12.04,7.26-3.72,5.24-8.99,8.2-4.83,10.7,2.31,1.39,11.2,4.5,20.33,.48Z"/><g class="candyb-11"><path d="M105,110.41c-.09-.25,.72-1.25,.89-1.48,.28-.38,.81-.46,1.19-.19,5.62,4.08,6.7,9.43,6.74,9.66,.09,.46-.21,.91-.67,.99s-.9-.21-.99-.67h0s-1.79-4.23-6.84-7.9c-.15-.11-.25-.25-.3-.41Z"/></g></g><g id="Candy-8"><path class="candyb-10" d="M115.6,132.96s-8.99,2.15-16.54-4.55c.2,.16,.17-5.15,4.46-7.02,2.29-1,4.78-.15,8.2-3.77,2.51-2.66,6.66-2.64,9.7-1.23,0,0,.7,8.54-5.82,16.56Z"/><g class="candyb-12"><path d="M115.74,132.35s-.01,.05-.02,.07c-.14,.33-.52,.49-.85,.35-.24-.1-6-2.55-11-7.36-.26-.25-.27-.66-.02-.92,.25-.26,2.54-.77,2.8-.52,4.82,4.64,8.67,7.58,8.72,7.6,.31,.13,.47,.47,.37,.79Z"/></g><path class="candyb-10" d="M136.98,173.7s4.41-1.82,10.28,.54,6.58,5.22,6.58,5.22c0,0-.95,3.07-5.06,4.89-4.11,1.82-11.8-10.66-11.8-10.66Z"/><path class="candyb-12" d="M136.98,173.7s4.41-1.82,10.28,.54,6.58,5.22,6.58,5.22c0,0-.95,3.07-5.06,4.89-4.11,1.82-11.8-10.66-11.8-10.66Z"/><path class="candyb-10" d="M136.98,173.7s-5.73,3.78-5.12,13.46c.55,8.76,6.26,2.01,10.79,.06s9.17-1.77,7.44-5.08c-.96-1.83-5.54-7.42-13.12-8.44Z"/><g class="candyb-12"><path d="M139.03,182.85c-.04,.2-.97,.53-1.17,.62-.33,.14-.71-.02-.85-.35-2.05-4.91-.61-8.86-.55-9.02,.13-.34,.5-.51,.84-.38s.51,.5,.38,.84h0s-.52,3.49,1.32,7.91c.05,.13,.06,.26,.03,.39Z"/></g><rect class="candyb-10" x="101.73" y="144.33" width="48.53" height="17.33" rx="4.45" ry="4.45" transform="translate(50.13 336.09) rotate(-118.02)"/><path class="candyb-14" d="M143.45,168.06c-.06-.56-.22-1.12-.5-1.64l-3.99-7.51c-7-.98-14.02-1.86-21.04-2.65l4.8,9.02c6.92,.84,13.84,1.76,20.74,2.78Z"/><path class="candyb-14" d="M134.04,149.66l-4.65-8.74c-6.88-.51-13.75-1.13-20.61-1.97,.07,.21,.15,.42,.25,.62l4.46,8.37c6.84,.72,13.69,1.26,20.55,1.72Z"/></g><g id="Candy-9"><path class="candyb-10" d="M170.88,103.98s-8.86-2.64-12.04-12.23c.09,.24,2.72-4.37,7.38-3.84,2.48,.28,4.21,2.27,8.98,.85,3.5-1.04,7.09,1.05,9.01,3.8,0,0-3.67,7.74-13.34,11.42Z"/><g class="candyb-12"><path d="M171.31,103.52s-.04,.03-.06,.05c-.29,.22-.7,.16-.91-.13-.16-.21-3.91-5.21-5.83-11.87-.1-.35,.1-.71,.45-.81,.35-.1,2.58,.6,2.68,.95,1.85,6.43,3.71,10.9,3.74,10.95,.2,.27,.17,.64-.07,.87Z"/></g><path class="candyb-10" d="M168.98,149.95s4.73,.63,8.62,5.62,3.08,7.82,3.08,7.82c0,0-2.35,2.18-6.82,1.7-4.47-.48-4.88-15.14-4.88-15.14Z"/><path class="candyb-12" d="M168.98,149.95s4.73,.63,8.62,5.62,3.08,7.82,3.08,7.82c0,0-2.35,2.18-6.82,1.7-4.47-.48-4.88-15.14-4.88-15.14Z"/><path class="candyb-10" d="M168.98,149.95s-6.85,.41-11.17,9.09c-3.91,7.86,4.42,4.87,9.31,5.46,4.9,.58,8.82,3.06,8.99-.67,.09-2.07-1.08-9.2-7.13-13.88Z"/><g class="candyb-12"><path d="M166.17,158.9c-.14,.15-1.11-.02-1.33-.05-.36-.05-.61-.37-.56-.73,.69-5.28,3.9-7.97,4.04-8.08,.28-.23,.69-.19,.92,.09s.19,.69-.09,.92h0s-2.2,2.76-2.82,7.51c-.02,.14-.08,.26-.16,.35Z"/></g><rect class="candyb-10" x="145.58" y="117.86" width="48.53" height="17.33" rx="4.45" ry="4.45" transform="translate(37.38 291.78) rotate(-87.97)"/><path class="candyb-14" d="M177.41,148.31c.23-.51,.37-1.07,.39-1.67l.3-8.5c-5.57-4.35-11.2-8.63-16.89-12.83l-.36,10.21c5.57,4.19,11.09,8.46,16.55,12.79Z"/><path class="candyb-14" d="M178.48,127.67l.35-9.9c-5.7-3.89-11.34-7.87-16.85-12.03-.04,.22-.08,.43-.09,.66l-.34,9.48c5.56,4.05,11.22,7.95,16.92,11.78Z"/></g><g id="Candy-10"><path class="candyb-6" d="M163.05,135.67c13.42,.36,19.68,10.77,21.61,20.8-2.37,11.21-10.17,19.94-22.7,19.6-13.42-.36-19.68-10.77-21.61-20.8,2.37-11.21,10.17-19.94,22.7-19.6Z"/><path class="candyb-6" d="M183.68,156.53s3.24-11.6,15.66-15.96c-.3,.12,5.76,3.45,5.17,9.53-.31,3.24-2.86,5.54-.9,11.73,1.44,4.54-1.21,9.26-4.75,11.83,0,0-10.16-4.61-15.18-17.12Z"/><g class="candyb-11"><path d="M184.29,157.07s-.04-.05-.06-.07c-.29-.37-.23-.9,.14-1.19,.27-.21,6.71-5.22,15.34-7.87,.45-.14,.92,.12,1.06,.56,.14,.45-.72,3.38-1.17,3.52-8.34,2.56-14.12,5.07-14.18,5.12-.34,.27-.83,.23-1.13-.07Z"/></g><path class="candyb-6" d="M141.27,155.21s-.72,6.18-7.13,11.36c-6.41,5.18-10.12,4.19-10.12,4.19,0,0-2.9-3.02-2.37-8.85,.53-5.83,19.61-6.7,19.61-6.7Z"/><path class="candyb-11" d="M141.27,155.21s-.72,6.18-7.13,11.36c-6.41,5.18-10.12,4.19-10.12,4.19,0,0-2.9-3.02-2.37-8.85,.53-5.83,19.61-6.7,19.61-6.7Z"/><path class="candyb-6" d="M141.27,155.21s-.68-8.92-12.09-14.36c-10.33-4.92-6.25,5.86-6.9,12.26s-3.79,11.56,1.07,11.69c2.69,.07,11.96-1.61,17.93-9.59Z"/><g class="candyb-11"><path d="M129.55,151.75c-.2-.18,0-1.44,.04-1.73,.05-.47,.47-.8,.94-.75,6.9,.78,10.48,4.91,10.62,5.09,.3,.36,.26,.89-.1,1.2s-.89,.26-1.2-.1h0s-3.64-2.8-9.84-3.5c-.18-.02-.34-.1-.47-.21Z"/></g></g><g id="Candy-11"><path class="candyb-7" d="M183.54,117.29s-9.19-.99-14.06-9.83c.13,.21,1.88-4.79,6.56-5.12,2.49-.17,4.56,1.46,8.99-.8,3.25-1.66,7.16-.26,9.55,2.1,0,0-2.21,8.27-11.04,13.66Z"/><g class="candyb-12"><path d="M183.88,116.76s-.03,.04-.05,.06c-.24,.27-.65,.29-.92,.04-.19-.18-4.8-4.41-7.9-10.61-.16-.32-.03-.71,.29-.88,.32-.16,2.65,.12,2.81,.44,2.99,5.99,5.63,10.04,5.67,10.08,.25,.23,.28,.6,.09,.86Z"/></g><path class="candyb-7" d="M190.03,162.84s4.77-.24,9.5,3.96,4.45,7.13,4.45,7.13c0,0-1.92,2.57-6.4,2.91-4.48,.34-7.55-14-7.55-14Z"/><path class="candyb-12" d="M190.03,162.84s4.77-.24,9.5,3.96,4.45,7.13,4.45,7.13c0,0-1.92,2.57-6.4,2.91-4.48,.34-7.55-14-7.55-14Z"/><path class="candyb-7" d="M190.03,162.84s-6.66,1.65-9.33,10.97c-2.42,8.44,5.23,3.99,10.15,3.67s9.23,1.4,8.71-2.29c-.29-2.05-2.73-8.85-9.53-12.35Z"/><g class="candyb-12"><path d="M188.89,172.15c-.11,.17-1.09,.18-1.31,.19-.36,.02-.67-.26-.69-.62-.28-5.32,2.39-8.55,2.5-8.68,.23-.28,.64-.31,.92-.08s.31,.64,.08,.92h0s-1.66,3.11-1.4,7.89c0,.14-.03,.27-.1,.38Z"/></g><rect class="candyb-7" x="162.36" y="130.98" width="48.53" height="17.33" rx="4.45" ry="4.45" transform="translate(75.88 344.75) rotate(-98.44)"/><path class="candyb-14" d="M198.02,159.69c.13-.55,.17-1.12,.08-1.71l-1.25-8.41c-6.27-3.27-12.58-6.45-18.94-9.55l1.5,10.1c6.24,3.11,12.44,6.3,18.6,9.57Z"/><path class="candyb-14" d="M195.32,139.21l-1.45-9.79c-6.31-2.79-12.58-5.68-18.75-8.76,0,.22,0,.44,.03,.67l1.39,9.38c6.2,2.97,12.48,5.78,18.78,8.51Z"/></g><g id="Candy-12"><path class="candyb-8" d="M192.88,139.03c11.99-6.04,22.43,.16,28.89,8.07,3.23,10.99,.49,22.38-10.71,28.02-11.99,6.04-22.43-.16-28.89-8.07-3.23-10.99-.49-22.38,10.71-28.02Z"/><path class="candyb-8" d="M220.93,147.63s-2.64-11.75,6.23-21.48c-.21,.25,6.7,.31,9.06,5.94,1.26,3,.11,6.24,4.76,10.75,3.42,3.32,3.33,8.73,1.42,12.67,0,0-11.14,.75-21.48-7.89Z"/><g class="candyb-11"><path d="M221.73,147.82s-.06-.02-.09-.03c-.43-.19-.63-.69-.44-1.12,.14-.31,3.43-7.77,9.78-14.2,.33-.33,.87-.34,1.2,0,.33,.33,.96,3.32,.63,3.65-6.13,6.2-10.03,11.16-10.06,11.23-.17,.4-.62,.6-1.03,.47Z"/></g><path class="candyb-8" d="M182.96,166.56s2.3,5.78-.9,13.39c-3.19,7.6-6.92,8.48-6.92,8.48,0,0-3.98-1.29-6.28-6.68-2.3-5.39,14.1-15.19,14.1-15.19Z"/><path class="candyb-11" d="M182.96,166.56s2.3,5.78-.9,13.39c-3.19,7.6-6.92,8.48-6.92,8.48,0,0-3.98-1.29-6.28-6.68-2.3-5.39,14.1-15.19,14.1-15.19Z"/><path class="candyb-8" d="M182.96,166.56s-4.83-7.53-17.45-6.91c-11.43,.56-2.73,8.13-.27,14.06,2.46,5.94,2.15,11.98,6.48,9.79,2.41-1.21,9.77-7.08,11.24-16.94Z"/><g class="candyb-11"><path d="M171,169.07c-.26-.06-.68-1.27-.78-1.54-.17-.44,.04-.93,.47-1.1,6.44-2.58,11.55-.64,11.76-.55,.44,.17,.65,.66,.48,1.1s-.66,.65-1.1,.48h0s-4.54-.74-10.33,1.58c-.17,.07-.34,.08-.51,.04Z"/></g></g><g id="Candy-13"><path class="candyb-10" d="M246.87,123.8s-7.19-5.8-6.5-15.88c0,.25,4.18-3.01,8.28-.75,2.19,1.21,3.04,3.7,7.99,4.19,3.64,.36,6.16,3.66,6.9,6.93,0,0-6.33,5.76-16.67,5.51Z"/><g class="candyb-12"><path d="M247.44,123.54s-.05,.02-.07,.02c-.35,.09-.71-.11-.8-.46-.07-.25-1.64-6.31-.89-13.2,.04-.36,.36-.62,.72-.58,.36,.04,2.16,1.54,2.12,1.89-.73,6.65-.71,11.49-.69,11.55,.09,.32-.09,.66-.39,.77Z"/></g><path class="candyb-10" d="M227.66,165.61s4.14,2.38,5.85,8.47-.12,8.4-.12,8.4c0,0-3.01,1.12-6.96-1.02-3.95-2.14,1.23-15.86,1.23-15.86Z"/><path class="candyb-12" d="M227.66,165.61s4.14,2.38,5.85,8.47-.12,8.4-.12,8.4c0,0-3.01,1.12-6.96-1.02-3.95-2.14,1.23-15.86,1.23-15.86Z"/><path class="candyb-10" d="M227.66,165.61s-6.49-2.22-13.78,4.17c-6.6,5.79,2.24,6.18,6.54,8.58,4.31,2.4,7,6.18,8.57,2.79,.87-1.88,2.5-8.92-1.33-15.54Z"/><g class="candyb-12"><path d="M221.67,172.82c-.19,.09-1.01-.44-1.21-.55-.31-.18-.42-.58-.24-.89,2.64-4.62,6.64-5.89,6.81-5.94,.34-.11,.71,.09,.81,.43s-.08,.71-.43,.81h0s-3.08,1.72-5.45,5.87c-.07,.12-.17,.21-.29,.27Z"/></g><rect class="candyb-10" x="213.09" y="135.6" width="48.53" height="17.33" rx="4.45" ry="4.45" transform="translate(8.1 301.09) rotate(-65.66)"/><path class="candyb-14" d="M236.09,167.29c.41-.39,.75-.85,1-1.39l3.5-7.75c-3.5-6.14-7.09-12.24-10.75-18.28l-4.21,9.31c3.57,5.99,7.05,12.03,10.46,18.12Z"/><path class="candyb-14" d="M244.91,148.6l4.08-9.02c-3.8-5.76-7.5-11.58-11.02-17.52-.12,.19-.24,.37-.34,.58l-3.91,8.64c3.61,5.85,7.36,11.61,11.19,17.32Z"/></g></g></g></g></g></g></svg>
