<?xml version="1.0" encoding="UTF-8"?><svg xmlns="http://www.w3.org/2000/svg" xmlns:xlink="http://www.w3.org/1999/xlink"><defs><style>.orw-1{fill:url(#linear-gradient);}.orw-2{fill:#f7941d;}.orw-3{fill:#fff;}.orw-4{fill:#995628;}.orw-5{fill:#2f754b;}.orw-6{fill:#be1e2d;}.orw-7{fill:#723e14;}.orw-8{fill:#51280d;}.orw-9{stroke-linecap:round;}.orw-9,.orw-10{fill:none;stroke:#ea8947;stroke-miterlimit:10;stroke-width:9px;}.orw-11{fill:url(#linear-gradient-3);}.orw-12{fill:url(#linear-gradient-4);}.orw-13{fill:url(#linear-gradient-2);}.orw-14{fill:url(#linear-gradient-6);}.orw-15{fill:url(#linear-gradient-5);}.orw-16{isolation:isolate;}.orw-17{mix-blend-mode:multiply;opacity:.25;}</style><linearGradient id="linear-gradient" x1="209.63" y1="868.14" x2="154.98" y2="923.31" gradientTransform="translate(125.82 1142.82) scale(1 -1)" gradientUnits="userSpaceOnUse"><stop offset="0" stop-color="#0081ad"/><stop offset="1" stop-color="#14d1df"/></linearGradient><linearGradient id="linear-gradient-2" x1="209.78" y1="868.29" x2="155.13" y2="923.45" xlink:href="#linear-gradient"/><linearGradient id="linear-gradient-3" x1="193.06" y1="960.71" x2="245.09" y2="908.15" xlink:href="#linear-gradient"/><linearGradient id="linear-gradient-4" x1="193.21" y1="960.86" x2="245.24" y2="908.3" xlink:href="#linear-gradient"/><linearGradient id="linear-gradient-5" x1="170.06" y1="945.34" x2="229.67" y2="886.51" gradientTransform="translate(125.82 1142.82) scale(1 -1)" gradientUnits="userSpaceOnUse"><stop offset="0" stop-color="#14d1df"/><stop offset="1" stop-color="#85d9a5"/></linearGradient><linearGradient id="linear-gradient-6" x1="170.08" y1="945.36" x2="229.69" y2="886.53" xlink:href="#linear-gradient-5"/></defs><g class="orw-16"><g id="Layer_2"><g id="Layer_1-2"><g id="Right-Suitcase"><rect class="orw-7" x="29.01" y="62.35" width="439.9" height="295.69" rx="35.65" ry="35.65" transform="translate(-61.76 112.14) rotate(-22.66)"/><path class="orw-8" d="M119.38,104.1l-9.19-22.01c-3.1-7.42-2.43-15.98,1.83-23.47,3.66-6.43,9.69-11.65,16.99-14.69L215.07,8.01c16.6-6.93,34.33-1.02,40.37,13.45l9.19,22.01-25.84,10.79-8.77-21c-.8-.17-2.34-.17-4.17,.6l-86.05,35.92c-1.83,.76-2.91,1.86-3.35,2.54l8.77,21-25.84,10.79Z"/><g><circle class="orw-3" cx="325.65" cy="227.5" r="47.9"/><g id="OpenNMS_Logo-Mark_Full-color"><g id="Layer_2-2"><g id="Logos"><path class="orw-1" d="M308.06,233.28c-5.85-6.41-10.83-12.76-14.37-18.37-1.44-2.23-2.72-4.56-3.83-6.98-8.16,15.26-5.99,33.99,5.45,46.97,.48-4.47,5.23-12.49,12.74-21.63Z"/><path class="orw-13" d="M320.63,245.85c-9.14,7.51-17.15,12.26-21.62,12.74,12.99,11.44,31.71,13.61,46.97,5.45-3-1.33-6.35-3.29-10.11-5.89-5.35-3.76-10.44-7.87-15.24-12.3Z"/><path class="orw-11" d="M332.19,209.14c9.14-7.51,17.15-12.26,21.62-12.74-12.99-11.44-31.71-13.61-46.97-5.45,3,1.33,6.35,3.29,10.11,5.89,5.35,3.76,10.44,7.87,15.24,12.3Z"/><path class="orw-12" d="M357.5,200.1c-.48,4.46-5.23,12.48-12.74,21.62,5.85,6.41,10.83,12.76,14.37,18.37,1.44,2.23,2.71,4.56,3.82,6.98,8.16-15.26,5.99-33.98-5.45-46.96Z"/><path class="orw-15" d="M326.41,214.13h0c-14.25-12.88-27.11-20.27-30.38-17.01-3.78,3.79,6.75,20.45,23.53,37.23,2.3,2.3,4.59,4.47,6.85,6.52v-26.73Z"/><path class="orw-14" d="M339.77,227.5h0c-2.04,2.26-4.22,4.55-6.52,6.85s-4.59,4.48-6.85,6.52c14.25,12.87,27.11,20.27,30.38,17.01s-4.13-16.13-17.01-30.38Z"/></g></g></g></g><g><path class="orw-2" d="M143.35,211.56c-11.55,0-20.21-3.98-24.37-11.2-4.35-7.53-3.22-17.44,3.19-27.88,6-9.79,16.05-19.07,28.29-26.14,12.79-7.38,26.34-11.45,38.15-11.45s20.21,3.98,24.38,11.2c4.35,7.53,3.22,17.44-3.19,27.88-6,9.79-16.05,19.07-28.29,26.14-12.79,7.39-26.34,11.45-38.15,11.45Z"/><path class="orw-3" d="M188.61,138.39c9.85,0,17.7,3.13,21.34,9.45,7.6,13.17-5.92,35.22-30.2,49.24-12.64,7.3-25.7,10.98-36.4,10.98-9.85,0-17.7-3.13-21.34-9.45-7.6-13.17,5.92-35.22,30.2-49.24,12.64-7.3,25.7-10.98,36.4-10.98m0-7h0c-12.41,0-26.58,4.23-39.9,11.92-12.74,7.35-23.22,17.06-29.53,27.34-7.11,11.59-8.26,22.76-3.24,31.46,4.82,8.35,14.55,12.95,27.41,12.95s26.58-4.23,39.9-11.92c12.74-7.35,23.22-17.06,29.53-27.34,7.11-11.59,8.26-22.76,3.24-31.46-4.82-8.35-14.55-12.95-27.4-12.95h0Z"/></g><g><path class="orw-6" d="M172.16,327.61v-3.5c0-3.41-2.77-6.18-6.18-6.18h-3.5v-35.62h3.5c3.41,0,6.18-2.77,6.18-6.18v-3.5h59.89v3.5c0,3.41,2.77,6.18,6.18,6.18h3.5v35.62h-3.5c-3.41,0-6.18,2.77-6.18,6.18v3.5h-59.89Z"/><path class="orw-3" d="M228.55,276.14c0,5.35,4.33,9.68,9.68,9.68v28.62c-5.35,0-9.68,4.33-9.68,9.68h-52.89c0-5.35-4.33-9.68-9.68-9.68v-28.62c5.35,0,9.68-4.33,9.68-9.68h52.89m7-7h-66.89v7c0,1.48-1.2,2.68-2.68,2.68h-7v42.62h7c1.48,0,2.68,1.2,2.68,2.68v7h66.89v-7c0-1.48,1.2-2.68,2.68-2.68h7v-42.62h-7c-1.48,0-2.68-1.2-2.68-2.68v-7h0Z"/></g><g><rect class="orw-5" x="273.75" y="69.09" width="105.31" height="49.35" transform="translate(-13.12 86.1) rotate(-14.73)"/><path class="orw-3" d="M368.56,60.79l10.77,40.96-95.08,25.01-10.77-40.96,95.08-25.01m4.99-8.55l-6.77,1.78-95.08,25.01-6.77,1.78,1.78,6.77,10.77,40.96,1.78,6.77,6.77-1.78,95.08-25.01,6.77-1.78-1.78-6.77-10.77-40.96-1.78-6.77h0Z"/></g><g><rect class="orw-4" x="114.8" y="105.56" width="40.51" height="304.39" rx="5.25" ry="5.25" transform="translate(-88.87 71.93) rotate(-22.66)"/><path class="orw-17" d="M150.08,241.17l-37.38,15.61,15.72,37.66c.19,.09,.37,.18,.56,.26l17.21,6.93c5.97,2.4,12.72-.74,14.72-6.86l5.07-15.52-15.9-38.08Z"/><path class="orw-4" d="M149.82,241.28l-36.85,15.39,11.09,26.56c.99,2.37,2.88,4.24,5.26,5.2l14.85,5.98c5.15,2.07,10.97-.64,12.7-5.92l4.45-13.64c.71-2.18,.62-4.55-.27-6.67l-11.23-26.9Z"/><rect class="orw-10" x="103.33" y="210.02" width="40.51" height="40.51" rx="3.57" ry="3.57" transform="translate(-79.18 65.39) rotate(-22.66)"/><line class="orw-9" x1="123.59" y1="230.28" x2="130.82" y2="249.21"/></g><g><rect class="orw-4" x="342.27" y="10.59" width="40.51" height="304.39" rx="5.25" ry="5.25" transform="translate(-34.73 152.23) rotate(-22.66)"/><path class="orw-17" d="M377.55,146.2l-37.38,15.61,15.72,37.66c.19,.09,.37,.18,.56,.26l17.21,6.93c5.97,2.4,12.72-.74,14.72-6.86l5.07-15.52-15.9-38.08Z"/><path class="orw-4" d="M377.28,146.31l-36.85,15.39,11.09,26.56c.99,2.37,2.88,4.24,5.26,5.2l14.85,5.98c5.15,2.07,10.97-.64,12.7-5.92l4.45-13.64c.71-2.18,.62-4.55-.27-6.67l-11.23-26.9Z"/><rect class="orw-10" x="330.8" y="115.06" width="40.51" height="40.51" rx="3.57" ry="3.57" transform="translate(-25.03 145.69) rotate(-22.66)"/><line class="orw-9" x1="351.05" y1="135.32" x2="358.29" y2="154.24"/></g></g></g></g></g></svg>
