<?xml version="1.0" encoding="UTF-8"?><svg id="Layer_2" xmlns="http://www.w3.org/2000/svg"><defs><style>.right-1{fill:#e6e7e8;}.right-2{fill:#bcbec0;}.right-3{fill:#27aae1;}</style></defs><g id="Right_base_"><g id="Right-Tennis"><g><g><rect class="right-1" x="154.56" y="205.33" width="4.59" height="248.74" transform="translate(-171.64 170.34) rotate(-38.68)"/><rect class="right-1" x="130.29" y="226.43" width="4.59" height="244.15" transform="translate(-188.72 159.3) rotate(-38.68)"/><rect class="right-1" x="106.6" y="258.36" width="4.59" height="219.33" transform="translate(-206.11 148.77) rotate(-38.68)"/><rect class="right-1" x="82.62" y="289.47" width="4.59" height="195.44" transform="translate(-223.34 137.99) rotate(-38.68)"/><rect class="right-1" x="58.65" y="329.77" width="4.59" height="153.16" transform="translate(-240.58 127.21) rotate(-38.68)"/></g><g><rect class="right-1" x="178.82" y="188.83" width="4.59" height="244.15" transform="translate(-154.57 181.38) rotate(-38.68)"/><rect class="right-1" x="202.51" y="181.72" width="4.59" height="219.33" transform="translate(-137.18 191.9) rotate(-38.68)"/><rect class="right-1" x="226.49" y="174.5" width="4.59" height="195.44" transform="translate(-119.94 202.69) rotate(-38.68)"/><rect class="right-1" x="250.47" y="176.48" width="4.59" height="153.16" transform="translate(-102.71 213.47) rotate(-38.68)"/></g><rect class="right-1" x="1.11" y="327.32" width="311.36" height="4.59" transform="translate(-171.61 170.28) rotate(-38.68)"/><rect class="right-1" x="-9.22" y="304" width="297.84" height="4.59" transform="translate(-160.78 154.49) rotate(-38.68)"/><rect class="right-1" x="-15.75" y="281.16" width="275.52" height="4.59" transform="translate(-150.38 138.42) rotate(-38.68)"/><rect class="right-1" x="-9.17" y="259.67" width="223.59" height="4.59" transform="translate(-141.2 121.59) rotate(-38.68)"/><rect class="right-1" x="1.11" y="327.32" width="311.36" height="4.59" transform="translate(-171.61 170.28) rotate(-38.68)"/><rect class="right-1" x="26.89" y="349.1" width="297.84" height="4.59" transform="translate(-181.04 186.94) rotate(-38.68)"/><rect class="right-1" x="56.46" y="371.36" width="275.52" height="4.59" transform="translate(-190.92 203.33) rotate(-38.68)"/><rect class="right-1" x="99.15" y="394.98" width="223.59" height="4.59" transform="translate(-202.01 218.97) rotate(-38.68)"/></g><path class="right-2" d="M288.01,224.58c23.19,28.97,30.96,67.23,21.86,107.72-8.87,39.48-32.84,76.5-67.49,104.24-34.65,27.74-76.02,43.03-116.49,43.04-41.5,.01-77.13-15.94-100.32-44.91C2.38,405.69-5.39,367.44,3.71,326.95c8.87-39.48,32.84-76.5,67.49-104.24,34.65-27.74,76.02-43.03,116.48-43.04,41.5-.01,77.13,15.94,100.32,44.91ZM44.94,419.16c38.64,48.27,120.26,47.38,181.93-2,61.68-49.37,80.41-128.81,41.77-177.08-38.64-48.27-120.26-47.38-181.93,2C25.03,291.45,6.3,370.89,44.94,419.16Z"/><path class="right-2" d="M378.6,145.75l14.92,19.82c-42.64,32.1-64.75,93.9-82.29,155.91l-23.87-6.75c8.43-29.82,18.18-61.51,32.25-91.27,16.45-34.79,35.75-60.21,59-77.71Z"/><path class="right-2" d="M384.59,153.23c-22.16,18.85-51.19,32.12-88.74,40.56-32.12,7.22-65.18,9.79-96.12,11.49l-1.36-24.77c108.87-5.99,146.11-25.73,170.14-46.17l16.08,18.9Z"/><rect class="right-3" x="433.77" y="-23.95" width="53.71" height="219.69" rx="9.15" ry="9.15" transform="translate(681.43 499.17) rotate(-128.68)"/></g></g></svg>
