<?xml version="1.0" encoding="UTF-8"?><svg xmlns="http://www.w3.org/2000/svg" xmlns:xlink="http://www.w3.org/1999/xlink"><defs><style>.axeblood-1{fill:none;}.axeblood-2{clip-path:url(#clippath7);}.axeblood-3{fill:#a1a4b2;}.axeblood-4{fill:#b4b6c8;}.axeblood-5{fill:#c49a6c;}.axeblood-6{mix-blend-mode:multiply;opacity:.12;}.axeblood-7{isolation:isolate;}</style><clipPath id="clippath7"><path class="axeblood-1" d="M54,280.32c4.96,13.8,6.85,27.6,6.63,43.85,17.9-3.02,36.12-7.59,52.2-16.02,19.17-10.06,31.47-20.96,43.34-32.91-13.34-7.69-22.03-18.72-29.81-28.82-26.35-34.2-47.58-72.33-62.79-112.74-.53-1.4-33.8,12.45-36.79,13.83-6.01,2.77-11.91,5.76-17.7,8.97-4.04,2.23-7.94,4.06-5.99,9.18,2.25,5.92,6.33,11.61,9.28,17.23,3.1,5.91,6.13,11.87,9.07,17.86,5.95,12.1,11.09,24.58,16.39,36.97,5.97,13.95,11.04,28.32,16.18,42.6Z"/></clipPath></defs><g class="axeblood-7"><g id="Layer_2"><g id="Right_base_"><g id="Right-Axe_blood_"><path class="axeblood-5" d="M111.48,134.32c8.87-.68,17.36-1.68,26.2-3.4,16.93-3.29,28.79-8.31,44.99-13.89,42.38-14.59,77.2-45.38,116.06-67.72C339.72,25.76,383.69,9.68,429.95,0c4.86,9.46,9.76,21.59,10.98,32.15,1.22,10.57-.13,21.4-8.88,27.45-9.87,6.81-23.03,4.62-35.02,4.42-21.99-.36-44.42,5.08-63.86,15.37-19.43,10.29-38.64,25.37-56.87,37.67-77.55,52.36-162.08,89.13-249.66,122.08-4.28,1.61-10.5-7.91-12.32-10.5-5.25-7.49-8.39-15.98-11.21-24.6-1.83-5.61-5.12-14.42-1.46-19.97,2.3-3.49,28.16-15.15,33.58-17.93,10.28-5.27,20.64-10.08,31.24-14.49s23.8-14.31,35.54-16.25c3.14-.52,6.3-.84,9.46-1.09Z"/><path class="axeblood-6" d="M106.72,207.34c-3.91,1.54-6.32,3.03-9.93,4.15-.45,.14-32.19-47.73-30.38-56.76,.93-4.66,5.61-5.26,10.53-8.38,3.97,10.7,8.27,21.24,13.58,31.48s10.16,19.84,16.21,29.52Z"/><path class="axeblood-3" d="M54,280.32c4.96,13.8,6.85,27.6,6.63,43.85,17.9-3.02,36.12-7.59,52.2-16.02,19.17-10.06,31.47-20.96,43.34-32.91-13.34-7.69-22.03-18.72-29.81-28.82-26.35-34.2-47.58-72.33-62.79-112.74-.53-1.4-33.8,12.45-36.79,13.83-6.01,2.77-11.91,5.76-17.7,8.97-4.04,2.23-7.94,4.06-5.99,9.18,2.25,5.92,6.33,11.61,9.28,17.23,3.1,5.91,6.13,11.87,9.07,17.86,5.95,12.1,11.09,24.58,16.39,36.97,5.97,13.95,11.04,28.32,16.18,42.6Z"/><path class="axeblood-4" d="M59.26,301.33c1.07,7.21,1.48,14.72,1.37,22.84,17.9-3.02,36.12-7.59,52.2-16.02,19.17-10.06,31.47-20.96,43.34-32.91-6.67-3.84-12.17-8.52-16.98-13.49-14.86,17.86-53.76,36.69-79.93,39.59Z"/><g class="axeblood-2"><g><path d="M85.97,259.98c.03-.58-.09-1.22,.11-1.74,.57-1.46,1.34-2.84,1.91-4.3,.59-1.52,1.04-3.08,1.58-4.73-.18-.02-.47-.07-.76-.07-.99,0-1.19-.48-.89-1.35,.19-.57,.23-1.2,.43-1.77,.4-1.15-.22-1.75-1.09-2.32-1.66-1.09-1.65-1.11-.27-2.65-.26-.25-.51-.5-.78-.75-.22-.2-.45-.39-.68-.59,.91-.81,2.49-.75,2.84,.15,.43,1.12,.83,2.3,.94,3.48,.21,2.14,.39,2.46,2.44,2.8,.05,.16,.2,.37,.15,.51-1.18,3.14-.1,6.14,.53,9.17,.3,1.48,.54,2.98,.71,4.48,.29,2.53,.68,5.07,.72,7.61,.04,2.6,1.54,4.82,1.65,7.37,.02,.36,.14,.73,.1,1.08-.16,1.36-.17,1.36,.99,2.39-.85,1.84-.03,3.54,.65,5.24,.25,.62,.39,1.03-.04,1.71-.31,.5-.3,1.69,.07,2.06,1.38,1.37,.57,2.96,.75,4.44,.08,.68-.09,1.42,.09,2.06,.34,1.2-.04,2.07-.59,3.17-.75,1.48-1.93,1.71-3.22,1.95-1.29,.25-2.21-.62-2.96-1.43-.44-.48-.61-1.38-.58-2.08,.05-.93,.33-1.88,.68-2.76,.14-.36,.7-.55,1.07-.81,.16,.38,.45,.76,.44,1.13-.02,.69-.29,1.37-.3,2.06,0,.46,.15,1.25,.4,1.33,.45,.14,1.11-.02,1.55-.28,1.54-.9,1.26-2.53,1.3-3.93,.03-1.11-.32-2.24-.51-3.44-.09-.03-.25-.11-.42-.15-.38-.09-.76-.17-1.14-.25,.1-.35,.09-.88,.31-1.01,.83-.47,.79-1.12,.65-1.9-.08-.43-.04-.9,.08-1.32,.41-1.5,.06-2.84-.66-4.16-.26-.48-.59-1.22-.4-1.59,.46-.88-.05-1.43-.31-2.12-.23-.62-.34-1.29-.64-1.97-.62,3.6-3.25,5.9-5.33,8.54-.78,.99-1.7,1.88-2.49,2.86-.33,.41-.51,.95-.78,1.48,2.43,.46,2.92,1.13,2.84,3.53-.03,.94,.19,1.86-.69,2.64-.26,.23,.02,1.07,.06,1.64,1.53-.59,2.83-.28,3.34,.76,.46,.94-.1,1.92-1.71,2.84,.03,.48,.06,1.03,.11,1.68l-1.96,.49c.17,.35,.35,.71,.64,1.31,.66-.53,1.26-.94,1.78-1.44,1.47-1.4,2.61-1.16,3.42,.71,.17,.4,.4,.79,.68,1.12,1.47,1.75,1.52,1.96,.69,4.14,.52,.31,.74,1.48,1.76,.44,.52,.44,1.04,.89,1.56,1.34,.09-.09,.18-.18,.27-.26-.41-.49-.82-.97-1.21-1.44,.13-.2,.17-.35,.26-.39,1.7-.72,2.6-1.79,2.63-3.84,.01-1.11,1.23-2.16,1.55-3.33,.5-1.84,.75-3.74,.38-5.7-.22-1.14-.03-2.35-.02-3.84-2.33-2.08-.19-4.1,.73-6.33-1.32-.67-1.9-1.7-1.81-3.29,.13-2.12-.03-4.25-.07-6.41q1.13-.76,3.28-.28c-.24,2.7-.35,5.38,.78,7.94l.02-.04c-.17,.34-.33,.69-.53,1.01-.93,1.54-.78,2.38,.63,3.42,1.04,.77,1.17,2.27,.4,3.34-.28,.39-.48,1-.4,1.46,.2,1.23,.57,2.43,.89,3.72,.92,.03,2.02,.09,2.23,1.39,.19,1.23-.9,1.34-1.52,1.59-.3,1.07-.57,2.02-.89,3.12,.32,.4,.79,.97,1.4,1.71-1.09,.34-1.88,.82-1.58,1.99,.22,.89,.44,1.78,.63,2.52-1.01,.89-2.09,1.81-3.13,2.78-.95,.89-1.34,.9-3.21-.19-.2,1.35,1.26,2.87-.38,3.96,.48-.05,.97-.19,1.43-.13,.38,.05,.72,.34,1.07,.53-.29,.33-.56,.67-.88,.97-.12,.11-.35,.08-.75,.16,.38,1.05,.75,2.04,1.16,3.15-.9,.83-1.87,1.93-3.31,1.22-1.43-.71-3.37-1.16-3.06-3.51-2.4-1.12-1.77-3.23-1.6-5.08-1-.3-2.37-.33-2.67-.91-.36-.68,.21-1.85,.48-2.8-.22-1.71-1.49-2.21-3.38-2.38,.47,.7,.82,1.22,1.26,1.89-.39,1.14-1.06,2.45,0,3.74-.22,2.6,.54,5.06,1.23,7.51,.46,1.64-.21,2.75-1.38,3.72-.48,.4-1.02,.74-1.43,1.04-.73-.73-1.44-1.44-2.15-2.16-.22-.23-.55-.45-.6-.72-.18-.89-.49-1.86-.27-2.68,.09-.35,1.35-.39,2.08-.57,.06,.12,.11,.23,.17,.35,.13-.28,.44-.61,.37-.82-.51-1.52,.32-3.21-.65-4.66-.07-.1-.09-.25-.07-.37,.16-1.22,.37-2.45-.74-3.39-.08-.07-.14-.27-.1-.36,.73-1.68-.3-3.06-.74-4.54-.07-.24-.15-.53-.08-.75,.5-1.72-.59-2.8-1.48-4.02-.4-.55-.55-1.34-.65-2.05-.16-1.16-.44-2.38-.23-3.5,.42-2.22-1.28-2.86-2.22-3.57-.38-1.09-.72-1.8-.84-2.55-.06-.41,.13-1.11,.43-1.27,1.26-.68,1.1-1.47,.44-2.44-.32-.47-.56-.98-.84-1.47-.29,.2-.61,.43-1.1,.77-.32-1.35-.41-2.84-2.52-2.04,.66-1.69,1.17-3.01,1.72-4.4-.4-.55-.79-.46-1.3,.06-.18,.18-.7,.19-.97,.07-.18-.08-.35-.69-.25-.8,.86-.93,.07-1.94,.23-2.97,.52-.43,1.05-.96,1.68-1.35,.45-.28,1.16-.66,1.49-.49,.47,.24,1.03,.98,.98,1.45-.25,2.35,1.26,3.89,2.37,5.61,.18,.28,.57,.47,.9,.59,1.78,.63,2.6,1.42,2.55,2.63-.07,1.64-.95,2.56-2.62,2.74,.37,.93,.71,1.77,1.14,2.85,.47-.38,.88-.62,1.18-.97,1.4-1.65,2.7-3.38,4.14-4.98,2.66-2.94,3.59-6.48,3.79-10.3,.06-1.13,.1-2.26,.14-3.19-.65-.74-1.63-1.36-1.7-2.07-.07-.73,.75-1.55,1.19-2.36-.35-.65-.84-1.41-1.17-2.23-.12-.29,.14-.73,.23-1.13-.13-.14-.95-.68-.89-1.1,.08-.59,.8-1.1,1.35-1.77-.33-.78-.78-.56-1.22,.12-.71,1.12-1.35,2.29-2.13,3.36-.29,.41-.87,.61-1.32,.91,0,0,.04,.03,.04,.03Zm.51,38.98c.1-.4,.21-.6,.18-.78-.02-.12-.32-.32-.36-.29-.17,.12-.4,.31-.4,.47,0,.15,.27,.3,.58,.6Zm-2.86-9.61c-.09,0-.18,0-.28,.01,0,.23,0,.45,.01,.68,.05,0,.09,0,.14,0,.04-.23,.08-.46,.13-.69Zm2.05,10.84c.06-.12,.16-.23,.14-.32-.01-.1-.14-.18-.21-.26-.07,.14-.16,.27-.19,.41,0,.04,.16,.11,.25,.17Z"/><path d="M105.04,317.82c1.09-.26,1.94,.25,2.38,1.12,.49,.97,1.15,.98,2.08,.64,.28,1.91,1.46,3.07,2.66,4.3,1.29,1.32,2.35,2.87,3.5,4.33,.2,.25,.32,.58,.56,.76,1.82,1.32,2.41,3.5,3.66,5.22,1.2,1.64,1.47,3.62,1.56,5.57,.09,2.02-1.24,3.51-3.54,2.85-.3-.09-.59-.18-1.06-.31,.31,1.69,1.43,2.27,2.61,2.65,1-.7,1.91-1.34,2.82-1.98,.05-.04,.12-.05,.16-.1,.68-.6,2.87-1.56,3.63-1.58,.06,0,.13-.02,.19-.03h.01c.94,.77,.59,1.44-.18,2.02-.91,.69-2.23,.98-1.87,2.66,.11,.52-4.4,2.9-5.13,2.91-2.11,.02-3.5-.86-4.52-2.81-.94-1.8-2.39-3.34-3.58-5.02-.44-.62-.79-1.29-1.17-1.95-.68-1.15-1.09-1.39-2.5-1.35,.58-1.59-.94-2.5-1.23-3.92-.27-1.33-1.53-2.46-2.44-3.81,1.22-.72,2-1.98,3.49-1.77,.55,.08,1.42,.45,1.51,.83,.46,1.98,2.17,2.29,3.61,2.98,.22,.11,.47,.16,.97,.32-.54,.35-.92,.6-1.07,.69,.3,.96,.63,1.76,.79,2.6,.31,1.69,2.65,3.96,4.34,4.12,1.24,.12,1.81-.5,1.39-1.73-.67-1.95-1.37-3.8-2.67-5.57-1.66-2.25-3.67-4.12-5.4-6.26-.55-.68-1.11-1.38-1.51-2.16-.41-.78-.89-1.35-1.78-1.54-.23-.05-.52-.23-.6-.43-.58-1.42-1.11-2.85-1.66-4.28l-.03,.03Z"/><path d="M46.9,245.42c.77-.35,1.37-.62,1.97-.9,.88,.47,1.82,1.21,2.87,1.46,.71,.16,1.79-.16,2.31-.66,.61-.59,1.07-.99,1.69-.36,.57,.58,.43,1.28-.31,1.76-.15,.1-.31,.19-.47,.28,.71,.97,2.21,1.18,2.37,2.64,.02,.15,.37,.35,.59,.39,1.1,.22,1.33,1.02,1.04,1.86-.22,.65-.7,1.4-1.27,1.7-.8,.41-1.79-.02-2.09-.83-.54-1.45-1.93-1.52-2.97-2.15-.28-.17-.87-.04-1.21,.15-1.59,.83-2.85,.24-3.93-.89-1.08-1.13-1.56-2.43-.71-3.95,.09-.16,.09-.37,.12-.5Z"/><path d="M75.68,265.6c-.06,.24-.18,.72-.31,1.29-.28,0-.54,.06-.75-.01-1.03-.33-1.11-1.09-.8-1.96-.16-.08-.26-.13-.36-.17-.11-.04-3.79,.11-3.94,.14-1.06,.23-1.67-.32-2.12-1.19-.21-.41-.41-.97-.77-1.15-1.77-.88-1.61-2.48-1.84-3.99,2.9-.52,3.82,.11,4.38,2.86,.61,.09,1.22,.18,1.92,.29,.05-.13,.12-.28,.16-.44,.13-.44,.25-.89,.37-1.33,.43,.28,.99,.47,1.25,.86,.57,.88,.98,1.87,1.57,3.04,2.51-.03,5.32,.22,7.76-1.69,.27-.21,1.07-.15,1.29,.09,.46,.5,.23,1.07-.41,1.37-1.08,.5-2.13,1.12-3.26,1.42-1.23,.33-2.54,.37-4.14,.58Z"/><path d="M92.68,233.85c-.42-.33-.84-.5-.96-.8-.12-.28-.07-.8,.13-1.01,.17-.19,.84-.25,.96-.1,.58,.71,1.14,.41,1.84,.26,.83-.18,1.72-.07,2.66-.08,.14,1.25,.59,2.86-.78,3.67-.67,.4-1.94-.22-3.19-.42,.03-.03-.39,.3-.34,.43,.7,1.55-.57,2.99-.31,4.36,.24,1.29-.42,2.31-.34,3.48,.06,.8-.25,1.47-1.33,1.85-.15-.6-.43-1.13-.38-1.62,.22-1.84,.61-3.66,.82-5.5,.12-1.01,.11-2.06-.01-3.06-.11-.94,.35-1.27,1.23-1.44Z"/><path d="M92.7,221.74q1.28,1.67,.37,3.58s.08,.11,.13,.13c.93,.39,1.99,.66,1.96,1.98-.02,.72-1.35,1.96-2.38,2.23-.78,.2-1.29-.07-1.2-.93,.16-1.57-.09-3.01-.71-4.49-.25-.58,.24-1.48,.36-2.05-.29-.85-.57-1.65-.85-2.45-.09-.26-.14-.63-.33-.75-1.36-.85-.85-1.86-.41-3.03,1.29,.48,1.6,1.44,1.74,2.51,2.1-.18,2.4,.49,1.33,3.25Z"/><path d="M101.6,265.12c-1.21,.26-2.5-.9-2.12-2.04,.35-1.03,.04-1.87-.17-2.75-.31-1.33,.12-2.34,1.06-3.25,.51-.49,.96-.51,1.53-.18,1.45,.85,2.03,2.8,1.19,4.27-.38,.67-.7,1.24-.41,2.11,.31,.91-.27,1.56-1.09,1.85Z"/><path d="M99,319.41c3.92,.85,4.4,1.28,4.55,4.19,1.32,.41,2.62,1.02,2.48,2.75-.05,.61-.35,1.39-.81,1.7-.3,.2-1.2-.15-1.62-.51-.92-.78-1.71-1.71-1.4-3.13-1.13-.17-1.99-.22-2.08-1.74-.05-.82-1.3-1.58-1.2-2.75,.01-.17,.05-.34,.07-.51Z"/><path d="M98.09,245.27c-.91-.76-1.74-1.53-1.24-2.91,.09-.25-.56-.69-.6-1.07-.05-.42,.09-1.11,.37-1.25,.31-.16,.96,.06,1.29,.32,.57,.46,1.2,1,1.45,1.64,.34,.87,.35,1.87,.55,3.11,1,.65,1.81,1.77,1.4,3.44-.21,.84-.53,1.63-1.54,1.66-.93,.02-1.33-.7-1.5-1.47-.23-1.06-.34-2.15-.5-3.22,.11-.08,.21-.17,.32-.25Z"/><path d="M126.27,341.24c-1.53-1.67-1.39-2,.3-3.37,1.51-1.23,3.06-2.45,4.22-4.07,.55-.77,1.31-1.2,2.08-.48,.7,.66,.48,1.43-.23,2.13-.7,.7-1.07,1.81-2.55,1.47,.39,1.29,.01,2.04-1.02,2.49-.25,.11-.51,.43-.57,.7-.28,1.32-1.23,1.25-2.21,1.14h-.01Z"/><path d="M58.44,256.95c.33-.28,.66-.56,.98-.84-.2-.81-.51-1.53-.53-2.26-.03-1.2,.76-1.87,1.93-1.82,1.67,.07,2.97,1.98,2.41,3.56-.28,.79-1.13,1.36-.9,2.36,.02,.1-.37,.42-.55,.41-.27-.02-.68-.19-.75-.39-.13-.36-.04-.8-.05-1.22-.49,.45-.89,1.02-1.43,1.22-.21,.08-.72-.68-1.1-1.06,0,0-.01,.04-.01,.04Z"/><path d="M90.74,209.58c-.1-.87-.19-1.75-.29-2.62-.11,.08-.22,.15-.33,.23-.8-.6-1.8-1.07-2.37-1.84-.93-1.27-.14-2.65,1.47-2.73,.55-.03,.76-.03,.82-.65,.02-.2,.78-.58,1-.47,.36,.18,.73,.68,.76,1.06,.04,.53-.16,1.13-.4,1.63-.2,.42-.6,.74-1.07,1.3,1.66,.39,1.5,1.6,1.71,2.69,.24,1.21-.3,1.49-1.33,1.37l.03,.03Z"/><path d="M56.44,261.67c.37,1.36-.34,2.67-1.6,2.98-1.36,.33-2.85-.45-3.2-1.69-.38-1.34,.39-2.52,1.93-2.94,1.39-.38,2.49,.25,2.87,1.65Z"/><path d="M84.78,235.99c.03,.49,.2,.93,.05,1.22-.25,.5-.62,1.06-1.09,1.3-.27,.14-1.09-.22-1.21-.53-.19-.51-.22-1.55,.04-1.68,1.27-.66,.62-2.63,2.17-3.02,.06-.01-.13-.63,0-.86,.18-.34,.52-.77,.83-.81,.26-.03,.63,.41,.86,.71,.12,.16-.03,.5,.04,.73,.58,1.84,.58,1.85-1.04,2.68-.17,.09-.35,.14-.65,.26Z"/><path d="M107.66,312.87c.54,.22,1.01,.4,1.47,.61,1.18,.55,1.51,1.3,1.08,2.41-.46,1.16-1.98,2.14-2.85,1.66-.46-.26-.89-.92-.96-1.45-.15-1.17,.24-2.25,1.27-3.23Z"/><path d="M50.28,260.37c.33,1.21-.21,2.28-1.29,2.54-.97,.23-2.24-.57-2.48-1.57-.23-.98,.49-2.33,1.4-2.62,.93-.29,2.05,.49,2.36,1.65Z"/><path d="M133.04,301.9c-1.13,.29-2.12-.23-2.38-1.25-.25-1,.36-1.97,1.45-2.3,1.13-.34,2.3,.22,2.62,1.24,.31,1-.4,1.97-1.69,2.3Z"/><path d="M105.07,317.78c-1.23,.13-2.05-.29-2.46-1.54-.21-.64-.81-1.15-1.05-1.78-.15-.4-.08-1.26,.13-1.35,.44-.18,1.24-.19,1.52,.09,.82,.84,1.58,1.8,2.12,2.84,.22,.43-.17,1.17-.29,1.78l.03-.03Z"/><path d="M99.7,268.51c1.72-1.14,2.33-.87,2.56,1.17,.04,.37,.15,.74,.16,1.12,0,.92-.35,1.66-1.34,1.72-1.02,.07-1.45-.71-1.52-1.58-.06-.8,.09-1.61,.15-2.43Z"/><path d="M89.4,197.08c-.09-.35-.31-.72-.2-.93,.18-.37,.56-.65,.85-.96,.2,.33,.56,.66,.57,1,.03,.71-.12,1.43-.19,2.15-.02,.18-.11,.47-.04,.51,.69,.44,1.17,1.01,.23,1.53-.86,.47-2.57-.22-2.92-.96-.44-.94-.17-1.52,.95-2.03,.22-.1,.46-.18,.75-.3Z"/><path d="M56.05,237.08c-.33-1.19,.32-3.47,.66-3.19,.91,.75,1.76,1.66,2.33,2.68,.35,.64,.33,1.69-.81,1.95-.79,.18-1.95-.63-2.18-1.43Z"/><path d="M47.28,211.68c-.15-.96-.4-1.92-.42-2.89,0-.36,.5-.73,.77-1.1,.36,.35,1.09,.81,1.02,1.03-.39,1.23-.19,2.15,.77,3.05,.18,.17-.13,1.25-.5,1.52-.61,.44-1.2,.05-1.43-.69-.09-.3-.1-.62-.14-.93-.03,0-.06,0-.08,.01Z"/><path d="M112.1,310.6c.17-.42,.33-.81,.48-1.19,.19-.48,.37-.95,.56-1.43,.49,.21,1.01,.38,1.48,.64,.26,.14,.45,.43,.71,.7,1.05-1.24,1.72-.41,2.48,.42-.4,.28-.74,.71-1.11,.74-1.5,.11-3.01,.1-4.6,.13Z"/><path d="M111.35,288.31c-1.03-.52-1.23-1.19-.49-2.11,.32-.39,.54-.86,.85-1.25,.61-.73,1.41-.82,1.97-.25,.59,.6,.55,1.6-.1,2.2-.05,.04-.1,.08-.15,.11-.69,.43-1.38,.85-2.09,1.3Z"/><path d="M121.35,353.05c-.14-.8,.23-1.41,1.04-1.71,.84-.31,1.8,.28,2.04,1.21,.22,.87-.07,1.51-.96,1.77-.83,.25-1.87-.36-2.13-1.28Z"/><path d="M90.7,209.56c.11,.43,.3,.86,.3,1.29,0,.99-.64,1.62-1.53,1.57-.91-.04-1.42-.58-1.42-1.46,0-.92,.46-1.62,1.42-1.74,.4-.05,.83,.24,1.25,.37l-.03-.03Z"/><path d="M103.62,198.29c-.2-.83,.24-1.52,1.11-1.66,.87-.14,1.49,.18,1.73,1.08,.22,.85-.34,1.7-1.19,1.84-.73,.12-1.45-.43-1.64-1.26Z"/><path d="M42.88,191.74c-.01-.68-.09-1.48,.97-1.67,.86-.16,1.73,.49,1.88,1.46,.14,.89-.25,1.49-1.13,1.69-.84,.19-1.52-.38-1.71-1.47Z"/><path d="M72.61,321.05c-1.2,.37-2.2-.11-2.37-.89-.18-.83,.05-1.52,.94-1.81,.78-.26,1.78,.28,1.84,1.14,.04,.58-.3,1.18-.41,1.56Z"/><path d="M88.64,186.66c-1.48-1.95-1.48-3.96-.14-4.85,.29-.19,.93-.25,1.16-.06,.25,.21,.4,1.04,.28,1.13-1.32,.87-.81,2.38-1.3,3.79Z"/><path d="M82.48,223.95c-.3-.73-.23-1.44,.62-1.67,.9-.25,1.21,.39,1.36,1.15,.12,.62,.36,1.24,.35,1.85,0,.33-.4,.84-.7,.91-.3,.07-.87-.2-1.04-.49-.31-.52-.4-1.16-.58-1.75Z"/><path d="M50.17,185.82c-.39-.45-.78-.89-1.37-1.58,1.01-.43,1.92-.81,3.27-1.38,.06,1.18,.34,2.04,.07,2.65-.36,.8-1.25,.69-2,.29l.04,.03Z"/><path d="M62.76,243.38c.65,1.71,.51,2.41-.49,2.75-.84,.28-1.65-.22-1.79-1.12-.16-1.01,.38-1.41,2.28-1.63Z"/><path d="M70.12,166.93c.98,.26,1.83,.31,2.44,.73,.38,.26,.38,1.06,.56,1.62-.57,.07-1.22,.36-1.69,.17-.85-.33-1.31-1.1-1.31-2.52Z"/><path d="M83.1,216.37c.1,.74,.29,1.16,.17,1.47-.14,.35-.53,.78-.85,.83-.32,.04-.8-.3-1-.61-.18-.27-.07-.73-.1-1.1-.04-.7-.56-1.71,.58-1.81,.42-.04,.92,.92,1.19,1.23Z"/><path d="M64.03,279.88c-.31-.3-.9-.65-1.15-1.17-.35-.73,.22-1.53,1.03-1.66,.88-.13,1.26,.45,1.44,1.15,.21,.8-.18,1.31-1.32,1.68Z"/><path d="M65,176.34c-1.23,.21-1.69-.24-1.87-1.01-.2-.82,.23-1.38,.96-1.61,.86-.27,1.4,.32,1.44,1.05,.03,.57-.38,1.16-.53,1.56Z"/><path d="M123.29,304.07c.3-.38,.59-1.06,1.1-1.31,.78-.39,1.35,.18,1.53,.94,.18,.75-.12,1.41-.89,1.67-.86,.29-1.26-.31-1.73-1.3Z"/><path d="M65.58,250.46c-1.17,.05-1.75-.36-2.03-1.17-.25-.74,.04-1.23,.81-1.41,.85-.2,1.41,.16,1.49,.99,.05,.53-.18,1.09-.27,1.59Z"/><path d="M68.75,257.36c.28-.43,.45-1,.8-1.15,.26-.11,.76,.3,1.15,.49,.04,.02,.06,.11,.07,.17,.14,.68,.3,1.37,.39,2.06,0,.04-.68,.31-.8,.2-.54-.49-.99-1.07-1.6-1.77Z"/><path d="M81.36,213.83c-1.5-.92-1.64-1.49-.88-3.54,1.74,1.37,1.91,2.03,.88,3.54Z"/><path d="M64.35,190.58c-.68-.35-1.37-.6-1.95-1.01-.63-.45-.6-1.18-.03-1.58,.31-.22,1.17-.16,1.4,.1,.51,.6,1.23,1.29,.59,2.49Z"/><path d="M45.77,208.66c-.76-.66-1.37-.99-1.67-1.51-.33-.55,.32-1.53,.94-1.57,.79-.05,1.42,.38,1.47,1.14,.04,.5-.38,1.04-.74,1.94Z"/><path d="M51.49,224.86c.14-.19,.54-.89,.64-.84,.82,.34,1.58,.81,2.35,1.25-.19,.33-.31,.84-.59,.95-.91,.37-2.11-.23-2.4-1.36Z"/><path d="M77.27,186.19c.97-.04,1.75-.13,1.93,.77,.07,.37-.34,1.05-.71,1.25-.75,.39-2.09-.1-2.03-.67,.05-.47,.53-.9,.82-1.35Z"/><path d="M127.35,275c-.67-.6-1.18-.86-1.37-1.27-.32-.71,.26-1.51,1.06-1.65,.78-.14,1.32,.29,1.28,.97-.03,.56-.52,1.09-.98,1.96Z"/><path d="M53.65,229.61c-.31-.26-.9-.54-1.13-1-.37-.72-.01-1.51,.74-1.65,.43-.07,1.18,.42,1.42,.86,.38,.68,.08,1.35-1.03,1.79Z"/><path d="M79.4,225.12c.54-.77,.91-1.32,1.29-1.86,.3,.32,.81,.61,.87,.98,.13,.7,.33,1.65-.7,1.86-.33,.06-.78-.5-1.46-.98Z"/><path d="M92.08,216.5c-.26-.27-.58-.44-.63-.68-.2-.88-.39-1.78-.43-2.68-.02-.31,.37-.89,.61-.91,.33-.03,.97,.33,.99,.58,.1,1.02,.05,2.05,0,3.08,0,.18-.29,.34-.53,.61Z"/><path d="M78.65,194.29c.7,1.14,.86,2.19,.69,3.28-.04,.26-.49,.65-.73,.64-.27,0-.72-.4-.74-.65-.1-1.08-.07-2.18,.79-3.26Z"/><path d="M68.38,252.11c-.52,.73-.83,1.48-1.08,1.46-.52-.04-1.19-.37-1.48-.8-.37-.55,.02-1.2,.67-1.26,.49-.05,1.02,.31,1.88,.6Z"/><path d="M50.8,220.31c.97,.36,1.94,.57,1.37,1.83-.29,.64-.8,.99-1.53,.6-.83-.44-.81-1.13,.16-2.44Z"/><path d="M49.26,219c.04-1.13-.05-1.83,.13-2.46,.1-.35,.65-.56,.99-.84,.28,.35,.83,.74,.79,1.06-.11,.92-.67,1.63-1.91,2.24Z"/><path d="M84.55,227.93c1.03,.42,1.84,.78,1.08,1.86-.46,.66-1.24,.95-1.81,.38-1.01-1.02,.27-1.47,.73-2.23Z"/><path d="M55.68,184.42c.1-.25,.26-.67,.42-1.09,.42,.27,.85,.52,1.24,.83,.13,.1,.23,.35,.2,.5-.08,.48-.23,.95-.35,1.43-.37-.24-.77-.45-1.1-.74-.17-.15-.21-.44-.42-.92Z"/><path d="M79.93,205.46c.33,.32,.77,.56,.86,.88,.17,.63,.18,1.31,.18,1.97,0,.2-.21,.44-.38,.57-.11,.08-.48,.02-.5-.05-.29-.91-.57-1.83-.78-2.76-.03-.12,.32-.32,.63-.62Z"/><path d="M85.35,237.12c.5-.54,.82-1.18,1.16-1.19,.37,0,1.02,.52,1.07,.89,.07,.5-.3,1.07-.47,1.61-.5-.38-1.01-.76-1.76-1.31Z"/><path d="M70.16,204.72c.82,1.41-.81,1.12-1.08,1.75-.08,.18-.67,.27-.97,.19-.21-.06-.47-.5-.43-.73,.05-.31,.29-.74,.56-.85,.56-.21,1.19-.25,1.92-.37Z"/><path d="M81.16,310.58c-.58-.1-.86-.06-.92-.16-.4-.63-.77-1.27-1.1-1.93-.05-.11,.09-.4,.22-.48,.19-.12,.63-.23,.67-.16,.43,.67,.82,1.37,1.16,2.09,.1,.21-.02,.51-.03,.65Z"/><path d="M63.47,155.29c-.6-.53-1.23-.87-1.19-1.1,.09-.53,.51-1.01,.79-1.51,.39,.32,1.01,.58,1.11,.97,.1,.37-.35,.88-.71,1.64Z"/><path d="M111.28,295.75c-.59-.5-1.21-.78-1.22-1.08,0-.44,.41-.9,.65-1.34,.44,.24,1.14,.4,1.24,.75,.11,.37-.34,.91-.67,1.67Z"/><path d="M86.92,178.09c-.18-.59-.52-1.19-.51-1.78,.02-.72,.64-1.12,1.32-.87,.22,.08,.34,.81,.27,1.2-.09,.5-.42,.95-.65,1.42-.15,0-.29,.02-.44,.02Z"/><path d="M66.64,180.54c-.45-.91-.86-1.68,.07-2.28,.21-.14,.95,.1,1.06,.34,.43,.93-.01,1.54-1.13,1.94Z"/><path d="M61.63,179.34c.6,.39,.99,.65,1.38,.91-.32,.32-.58,.74-.96,.93-.58,.29-1.21,.13-1.28-.58-.03-.33,.46-.71,.86-1.27Z"/><path d="M121.89,277.97c-.48,.75-.68,1.32-1.07,1.55-.22,.13-1.1-.31-1.1-.48,.01-.46,.23-1.04,.58-1.31,.22-.18,.81,.11,1.58,.25Z"/><path d="M115.48,284.62c-.57-.56-1.13-.86-1.14-1.17-.01-.37,.39-1,.72-1.07,.3-.07,.95,.37,1.06,.71,.1,.32-.31,.79-.64,1.54Z"/><path d="M79.97,204.17c-.63-.63-1.13-.9-1.18-1.23-.07-.4,.25-.86,.4-1.29,.41,.27,.97,.45,1.18,.83,.15,.28-.17,.81-.4,1.7Z"/><path d="M62.09,324.71c-.51,.63-.74,1.19-1.07,1.26-.37,.08-.83-.28-1.25-.45,.23-.45,.36-1.04,.72-1.28,.23-.15,.81,.22,1.6,.47Z"/><path d="M68.56,308.37c.5-.66,.71-1.23,1.04-1.3,.34-.08,.79,.33,1.19,.53-.21,.39-.32,.97-.64,1.12-.3,.15-.81-.15-1.59-.35Z"/><path d="M39.29,236.01c.53-.7,1.06-1.39,1.73-2.28,.4,2.14,.22,2.42-1.36,2.63-.12-.12-.25-.23-.37-.35Z"/><path d="M81.23,147.99c-.39-.3-.82-.55-.79-.63,.28-.78,.63-1.53,.96-2.3,.24,.14,.72,.35,.7,.42-.23,.79-.52,1.56-.87,2.51Z"/><path d="M87.41,188.79c.58-.54,.86-1.01,1.12-1,.42,.02,.83,.36,1.24,.56-.19,.35-.36,.99-.56,.99-.47,.02-.95-.26-1.8-.55Z"/><path d="M85.93,259.95c.21,.92-.37,1.43-1.03,1.83-.21,.13-.68,.1-.83-.05-.17-.17-.24-.64-.12-.85,.43-.77,1.07-1.25,2.03-.89l-.04-.03Z"/><path d="M50.13,185.79c.08,.23,.19,.46,.23,.7,.09,.63-.07,1.2-.8,1.14-.31-.02-.73-.46-.84-.8-.21-.69,.21-1.03,.9-1.06,.18,0,.37,.02,.56,.03l-.04-.03Z"/><path d="M26.25,248.32c.21,1.04,.09,1.85-1.06,2.21-.74-1.42-.67-1.56,1.06-2.21Z"/><path d="M74.69,176.69c-.58-.68-1.1-1.02-1.1-1.35,0-.37,.5-.72,.78-1.09,.31,.25,.84,.47,.89,.77,.06,.38-.26,.83-.57,1.67Z"/><path d="M51.87,130.11c-.5-.64-.93-.96-.98-1.33-.04-.29,.39-.64,.62-.97,.34,.28,.82,.51,.96,.87,.1,.26-.27,.69-.6,1.43Z"/><path d="M12.13,250.67c.13,.18,.27,.27,.27,.36,.02,.75,.07,1.55-.81,1.87-.18,.06-.67-.19-.7-.36-.21-1.03,.36-1.57,1.24-1.88Z"/><path d="M115.07,251.96c-.24-.19-.32-.22-.33-.27-.25-.83,.07-1.44,.81-1.81,.13-.06,.55,.12,.59,.26,.25,.94-.23,1.47-1.07,1.82Z"/><path d="M103.53,281.58s.1-.08,.14-.12c.56-.57,1.17-.88,1.65,0,.12,.22-.16,.91-.42,1.03-.87,.4-1.26-.12-1.35-.95l-.02,.04Z"/><path d="M75.04,249.16c.98,.68,1.37,1.27,.77,2.05-.11,.15-.64,.19-.8,.06-.83-.65-.29-1.27,.03-2.11Z"/><path d="M84.83,253.53c.53-.56,.78-1.03,1.14-1.15,.22-.07,.84,.38,.88,.64,.04,.31-.3,.84-.61,.97-.26,.11-.7-.21-1.41-.47Z"/><path d="M50.37,127.36c-.47-.49-.91-.74-.94-1.03-.04-.32,.3-.68,.48-1.02,.32,.22,.82,.38,.91,.67,.09,.3-.21,.72-.45,1.39Z"/><path d="M87.23,178.92c.88,.51,.83,1.15,.4,1.79-.09,.14-.69,.16-.8,.03-.6-.76-.26-1.33,.39-1.81Z"/><path d="M107.86,272.6c-.54-.37-1.06-.53-1.13-.81-.07-.28,.23-.91,.48-.97,.3-.08,.88,.18,1.03,.45,.13,.23-.18,.71-.38,1.33Z"/><path d="M58.55,144.24c-.44-.47-.88-.73-.92-1.03-.04-.32,.31-.69,.49-1.04,.35,.25,.85,.44,.99,.78,.1,.24-.28,.69-.57,1.29Z"/><path d="M72.31,207.45c.46,.47,.92,.73,.93,1.01,.02,.31-.33,.85-.6,.91-.26,.06-.83-.32-.9-.59-.07-.29,.28-.7,.57-1.33Z"/><path d="M60.85,146.66c-.35,.43-.56,.93-.84,.98-.27,.04-.86-.38-.87-.62-.01-.32,.34-.75,.66-.93,.15-.09,.57,.29,1.05,.57Z"/><path d="M75,285.9c-.55-.45-1.06-.66-1.09-.93-.04-.31,.33-.68,.52-1.02,.3,.17,.78,.29,.85,.53,.1,.31-.13,.72-.29,1.42Z"/><path d="M119.72,240.98c.65,.67,.75,1.26,.08,1.8-.15,.12-.69,.04-.8-.12-.49-.74-.17-1.27,.72-1.68Z"/><path d="M74.63,214.31c.49,.47,.96,.72,.98,1,.03,.31-.36,.65-.56,.97-.31-.21-.8-.37-.89-.65-.09-.27,.23-.68,.48-1.31Z"/><path d="M33.46,228.85c-.43-.32-.94-.59-.91-.71,.12-.41,.42-.76,.65-1.14,.3,.23,.8,.43,.85,.7,.05,.3-.32,.67-.59,1.15Z"/><path d="M66.48,200.53c-.53-.43-.96-.62-1.08-.93-.09-.22,.21-.85,.38-.87,.34-.03,.89,.14,1.01,.4,.13,.27-.14,.73-.31,1.4Z"/><path d="M94,201.61c.3-.41,.46-.85,.71-.91,.24-.06,.59,.26,.89,.41-.19,.35-.32,.76-.6,1.01-.09,.08-.56-.28-1-.51Z"/><path d="M36.34,220.38c-.27,.51-.54,1.01-.8,1.52-.15-.01-.31-.03-.46-.04-.1-.42-.4-.92-.26-1.22,.16-.34,.71-.49,1.1-.72,.14,.16,.28,.31,.43,.47Z"/><path d="M77.91,282.43c.2,.56,.41,1.11,.67,1.82q-1.41-.3-1.08-1.69c.14-.04,.27-.09,.41-.13Z"/><path d="M112.68,259.65c-.41,.43-.64,.83-.96,.94-.18,.06-.77-.4-.74-.56,.06-.35,.32-.75,.63-.94,.14-.09,.56,.28,1.08,.56Z"/><path d="M85.93,168.19c-.39,.48-.64,.98-.81,.96-.36-.06-.68-.39-1.02-.6,.19-.28,.35-.77,.58-.8,.32-.05,.69,.23,1.25,.45Z"/><path d="M55.44,139.96c-.46-.41-.9-.63-.9-.85,0-.33,.31-.65,.48-.98,.28,.18,.76,.31,.8,.53,.06,.32-.19,.7-.39,1.3Z"/><path d="M28.17,249.3c-.01,1.01,.06,1.77-.92,1.99-.12,.03-.39-.15-.42-.26-.17-.89,.36-1.31,1.33-1.73Z"/><path d="M79.31,193.43c-.31,.22-.61,.6-.92,.61-.36,.02-.78-.23-1.06-.5-.08-.08,.19-.78,.41-.85,.32-.1,.73,.12,1.1,.21,.16,.18,.31,.35,.47,.53Z"/><path d="M80.01,127.42c-.26,.27-.49,.67-.8,.75-.2,.05-.76-.4-.73-.58,.04-.35,.31-.79,.61-.95,.27-.14,.71,.04,1.08,.08-.05,.23-.1,.46-.15,.69Z"/><path d="M76.68,302.86c.29-.21,.56-.54,.88-.59,.28-.05,.62,.19,.94,.31-.14,.34-.21,.78-.46,.99-.13,.11-.59-.18-.91-.29-.15-.14-.3-.27-.44-.41Z"/><path d="M77.87,191.39c-.38-.34-.79-.53-.83-.78-.04-.27,.28-.59,.44-.89,.32,.21,.75,.36,.92,.65,.09,.15-.28,.57-.53,1.02Z"/><path d="M63.68,273.14c-.32,.37-.65,.75-.97,1.12-.21-.26-.65-.68-.59-.76,.25-.36,.64-.62,.98-.92,.2,.19,.39,.37,.59,.56Z"/><path d="M107.53,293.45c-.33,.41-.58,.91-.74,.88-.34-.06-.64-.39-.96-.62,.22-.26,.41-.67,.69-.75,.23-.06,.57,.25,1.02,.48Z"/><path d="M21.88,257.07c-.49-.81-.06-1.27,1.16-1.83-.26,.9-.43,1.45-.59,2-.19-.06-.38-.11-.57-.17Z"/><path d="M81.66,152.69c-.18-.25-.47-.49-.5-.76-.04-.32,.15-.66,.24-.99,.31,.13,.78,.18,.88,.4,.11,.23-.14,.63-.23,.95-.13,.13-.26,.26-.39,.4Z"/><path d="M122.24,307.25c-.3-.29-.68-.5-.66-.67,.03-.29,.31-.56,.48-.84,.27,.18,.55,.36,.82,.54-.19,.28-.38,.57-.64,.97Z"/><path d="M49.95,254.45c-.38-.27-.65-.47-.93-.66,.22-.24,.41-.67,.65-.69,.25-.02,.61,.28,.78,.54,.06,.1-.27,.46-.5,.81Z"/><path d="M78.36,217.92c.13,.54,.27,1.08,.4,1.62-.23,.02-.67,.08-.67,.05-.1-.54-.15-1.08-.21-1.62,.16-.02,.32-.03,.48-.05Z"/><path d="M114.57,348.35c.36,.67,.73,1.35,1.09,2.02-.14,.08-.27,.16-.41,.24-.39-.66-.79-1.31-1.18-1.97,.16-.1,.33-.2,.49-.3Z"/><path d="M79.83,139.11c-.24,.32-.37,.69-.57,.72-.2,.04-.66-.27-.65-.39,.03-.3,.26-.57,.42-.86,.23,.15,.47,.31,.8,.53Z"/><path d="M69.83,166.74c-.18-.45-.37-.89-.52-1.35,0-.02,.56-.28,.58-.25,.26,.4,.47,.84,.69,1.27l-.75,.32Z"/><path d="M109.46,267.46c-.24,.36-.36,.72-.57,.78-.22,.06-.52-.18-.78-.28,.15-.3,.25-.65,.48-.86,.08-.08,.48,.19,.87,.36Z"/><path d="M83.46,166.54c.3-.21,.58-.56,.89-.6,.25-.03,.64,.28,.78,.54,.09,.16-.14,.7-.29,.73-.28,.06-.61-.14-.93-.23-.15-.15-.3-.29-.45-.44Z"/><path d="M75.17,294.62c.25-.39,.42-.84,.56-.84,.3,.02,.66,.22,.84,.46,.08,.11-.18,.69-.33,.71-.29,.03-.62-.18-1.08-.34Z"/><path d="M75.65,260.66c-.53,.42-.79,.73-1.1,.82-.21,.06-.7-.18-.72-.34-.04-.31,.15-.65,.24-.98,.31,.1,.62,.2,1.58,.5Z"/><path d="M29.35,235.82c.32-.49,.63-.97,.95-1.46,.17,.09,.33,.19,.5,.28-.25,.53-.51,1.06-.76,1.58-.23-.13-.46-.27-.68-.4Z"/><path d="M86.07,170.57c.23-.23,.42-.55,.69-.66,.12-.05,.61,.37,.58,.5-.06,.29-.29,.63-.55,.76-.22,.11-.58-.03-.87-.07,.05-.18,.1-.35,.15-.53Z"/><path d="M97.91,282.35c-.24-.16-.29-.19-.34-.22,.27-.41,.54-.82,.81-1.23,.13,.11,.39,.31,.38,.33-.27,.39-.57,.76-.85,1.12Z"/><path d="M86.07,223.25c.04,.5,.09,1.01,.15,1.76q-.94-.78-.15-1.76Z"/><path d="M50.47,211.51l.52,2.11c-.1,.03-.2,.05-.3,.08l-.53-2.13c.1-.02,.21-.04,.31-.06Z"/><path d="M55.09,256.69c-.2-.29-.5-.56-.58-.88-.05-.21,.2-.67,.37-.7,.29-.06,.63,.14,.95,.23-.1,.3-.2,.61-.3,.91-.15,.15-.29,.3-.44,.45Z"/><path d="M140.71,345.35c-.31-.34-.64-.56-.61-.72,.05-.29,.3-.55,.47-.83,.22,.15,.63,.31,.62,.46-.01,.3-.24,.59-.48,1.09Z"/><path d="M83.27,141.07c-.49,.33-.73,.6-1.01,.65-.22,.03-.62-.18-.68-.37-.07-.22,.09-.65,.27-.75,.17-.09,.51,.15,1.42,.47Z"/><path d="M80.97,313.41c-.34-.29-.77-.53-.73-.64,.09-.3,.37-.54,.57-.8,.21,.19,.55,.35,.59,.57,.04,.21-.23,.48-.43,.87Z"/><path d="M76.59,298.45c-.27-.39-.62-.71-.56-.84,.13-.27,.47-.45,.72-.66,.16,.24,.44,.49,.44,.72,0,.22-.32,.43-.61,.78Z"/><path d="M19.74,251.89c-.21,.43-.42,.86-.7,1.44-.9-1.2-.02-1.28,.7-1.44Z"/><path d="M92.36,291.55c.17-.39,.33-.78,.55-1.15,.02-.03,.4,.15,.61,.23-.15,.4-.31,.79-.46,1.19-.23-.09-.46-.18-.69-.27Z"/><path d="M117.49,284.91c-.17,.31-.28,.66-.37,.66-.25-.01-.49-.18-.74-.29,.11-.2,.17-.5,.34-.58,.15-.07,.42,.1,.77,.21Z"/><path d="M65.06,194.52c-.31-.33-.63-.53-.64-.74,0-.21,.29-.43,.46-.65,.21,.17,.55,.31,.59,.51,.04,.2-.21,.47-.41,.87Z"/><path d="M106.4,191.12c-.34-.22-.69-.34-.69-.47,0-.25,.15-.55,.33-.74,.06-.06,.57,.14,.59,.25,.04,.26-.11,.54-.22,.95Z"/><path d="M36.27,247.67c.28-.38,.57-.76,.85-1.14,.15,.09,.3,.18,.44,.27-.23,.42-.47,.84-.7,1.26-.2-.13-.4-.26-.59-.39Z"/><path d="M100.64,326.44c.28-.39,.41-.75,.6-.78,.21-.03,.51,.2,.68,.39,.06,.07-.14,.51-.29,.55-.23,.06-.51-.07-.99-.17Z"/><path d="M83.52,199.73c.04-.45,.07-.9,.11-1.35,.13,0,.27-.02,.4-.03,.1,.19,.29,.39,.29,.58,0,.28-.12,.56-.19,.84-.2-.01-.41-.02-.61-.04Z"/><path d="M58.45,256.91c-.08,.1-.14,.25-.24,.29-.31,.13-.63,.22-.95,.32-.04-.22-.07-.44-.11-.66,.33-.04,.65-.11,.98-.12,.1,0,.21,.13,.31,.21v-.04Z"/><path d="M107.36,292.17c-.18-.31-.4-.51-.37-.67,.03-.18,.29-.32,.44-.48,.17,.2,.4,.37,.49,.6,.03,.08-.29,.29-.56,.55Z"/><path d="M82.38,315.18c.19,.02,.44-.04,.55,.06,.2,.17,.33,.43,.46,.67,.01,.03-.21,.24-.25,.22-.24-.12-.5-.25-.67-.44-.1-.12-.06-.36-.08-.55l-.02,.04Z"/><path d="M99.51,323.63c-.34-.18-.7-.29-.7-.39,0-.25,.17-.49,.27-.74,.2,.11,.48,.18,.57,.35,.08,.15-.06,.41-.14,.78Z"/><path d="M21.76,260.19c-.18,.32-.36,.65-.54,.97-.13-.06-.25-.11-.38-.17,.14-.35,.29-.7,.43-1.06,.16,.08,.32,.16,.49,.25Z"/><path d="M32.41,255.59c.23-.34,.46-.68,.69-1.01,.14,.08,.28,.16,.42,.24-.19,.36-.37,.72-.56,1.09-.18-.11-.37-.21-.55-.32Z"/><path d="M31.17,228.45c-.16,.35-.33,.71-.49,1.06-.15-.07-.3-.14-.45-.21,.17-.35,.34-.7,.52-1.05,.14,.07,.28,.13,.42,.2Z"/><path d="M120.07,297.18c-.17-.25-.34-.5-.5-.76,0,0,.26-.19,.27-.19,.19,.24,.37,.5,.55,.75-.11,.06-.21,.13-.32,.19Z"/><path d="M76.12,332.05c-.3,.26-.46,.5-.63,.51-.16,0-.34-.22-.51-.35,.14-.17,.25-.43,.42-.47,.16-.04,.38,.15,.73,.31Z"/><path d="M104.25,283.49c-.2,.29-.36,.64-.45,.62-.24-.04-.45-.24-.67-.38,.13-.18,.24-.46,.41-.51,.16-.05,.39,.14,.71,.27Z"/><path d="M82.4,315.15c-.18,.06-.38,.21-.53,.17-.24-.08-.46-.27-.66-.44-.03-.03,.08-.31,.12-.31,.27,.02,.55,.03,.79,.14,.13,.06,.18,.31,.26,.48,0,0,.02-.04,.02-.04Z"/><path d="M62,152.35c-.19,.27-.29,.53-.46,.61-.11,.05-.34-.17-.52-.26,.14-.18,.26-.39,.44-.51,.08-.05,.28,.08,.54,.17Z"/><path d="M76.99,268.51c-.18-.24-.37-.39-.43-.59-.03-.1,.15-.27,.24-.41,.2,.17,.41,.33,.58,.52,.02,.02-.19,.24-.39,.47Z"/><path d="M109.12,193.69c-.26-.36-.49-.54-.47-.69,.02-.17,.25-.32,.4-.47,.13,.12,.35,.23,.35,.36,.01,.19-.13,.39-.28,.8Z"/><path d="M52.27,135.18c-.23-.22-.43-.34-.5-.52-.04-.1,.13-.29,.21-.44,.17,.12,.39,.2,.5,.36,.05,.08-.1,.29-.21,.59Z"/><path d="M55.84,146.27c-.28-.14-.54-.2-.55-.28-.02-.19,.08-.39,.13-.58,.15,.05,.4,.07,.43,.16,.06,.17,0,.39-.01,.7Z"/><path d="M81.07,137.12c-.33-.3-.55-.41-.63-.59-.05-.12,.08-.46,.13-.46,.2,0,.51,.03,.58,.16,.09,.16-.02,.42-.08,.89Z"/><path d="M82.01,156.85c-.3-.3-.57-.45-.56-.6,0-.17,.22-.37,.39-.49,.05-.03,.37,.16,.38,.27,.02,.2-.09,.41-.21,.82Z"/><path d="M52.4,255.28c-.11-.21-.29-.42-.31-.63,0-.17,.16-.4,.31-.51,.08-.06,.42,.06,.45,.15,.05,.18-.04,.39-.07,.6l-.38,.4Z"/><path d="M92.5,217.79c-.31-.13-.57-.17-.59-.26-.05-.2,.03-.43,.05-.65,.17,.05,.42,.05,.48,.16,.09,.17,.04,.41,.05,.75Z"/><path d="M58.56,181.83c-.19-.25-.36-.38-.39-.54-.04-.15,.06-.34,.09-.51,.19,.08,.42,.14,.57,.27,.05,.05-.1,.31-.26,.78Z"/><path d="M8.64,219.17c-.31,.25-.42,.41-.57,.44-.1,.02-.26-.12-.35-.24-.03-.05,.06-.27,.12-.28,.13-.03,.28,.02,.79,.09Z"/><path d="M10.64,213.16c.11-.2,.19-.35,.27-.5,.17,.12,.34,.23,.51,.35-.1,.14-.17,.37-.29,.39-.13,.03-.3-.14-.49-.24Z"/><path d="M75.54,179.05c-.1,.21-.13,.41-.24,.48-.12,.07-.31,.02-.48,.02,.06-.2,.08-.42,.19-.57,.04-.06,.29,.04,.53,.08Z"/><path d="M103.21,173.13c-.18-.13-.38-.2-.42-.32-.04-.15,.05-.34,.08-.51,.19,.09,.41,.15,.56,.28,.04,.04-.12,.3-.23,.55Z"/><path d="M23.63,235.32c.23-.24,.36-.44,.54-.51,.09-.04,.27,.15,.41,.24-.12,.18-.2,.4-.36,.52-.06,.05-.28-.11-.59-.25Z"/><path d="M17.78,193.43c-.15-.22-.32-.36-.29-.45,.04-.14,.21-.24,.33-.35,.07,.09,.22,.18,.21,.26-.02,.15-.12,.29-.24,.55Z"/><path d="M85.64,225.98c.11-.21,.18-.36,.25-.51,.14,.08,.37,.15,.39,.26,.03,.13-.11,.31-.18,.46-.14-.06-.28-.13-.47-.21Z"/><path d="M25.44,219.6c.26,.26,.44,.39,.55,.57,.03,.04-.19,.33-.29,.33-.15,0-.36-.14-.43-.27-.05-.11,.07-.3,.17-.63Z"/><path d="M81.45,260.45c-.2-.16-.42-.24-.43-.36-.02-.13,.14-.29,.23-.44,.13,.09,.34,.15,.38,.27,.04,.12-.09,.29-.17,.52Z"/><path d="M36.78,239.46c-.32-.15-.46-.23-.61-.3,.11-.16,.19-.36,.34-.46,.07-.04,.35,.11,.39,.23,.05,.13-.07,.32-.12,.52Z"/><path d="M38.09,243.58c-.18-.14-.38-.22-.43-.35-.04-.1,.11-.27,.18-.41,.18,.1,.36,.21,.54,.31-.09,.13-.17,.27-.29,.45Z"/><path d="M27.81,194.7c-.13-.11-.29-.24-.29-.25,.12-.17,.25-.32,.39-.48,.06,.09,.2,.21,.18,.27-.05,.16-.18,.3-.28,.46Z"/><path d="M64.98,181.55c-.2-.15-.44-.24-.45-.35-.02-.14,.14-.38,.26-.42,.11-.03,.36,.13,.41,.26,.04,.11-.12,.3-.22,.51Z"/><path d="M104.33,308.6c-.22,.19-.32,.35-.46,.39-.07,.02-.23-.18-.28-.31-.02-.06,.13-.25,.21-.26,.14,0,.29,.09,.53,.18Z"/><path d="M46.89,264.07c.19-.15,.33-.33,.44-.32,.13,.02,.24,.21,.36,.32-.11,.11-.22,.31-.34,.31-.13,0-.26-.17-.46-.32Z"/><path d="M65.51,318.8c-.29-.28-.48-.39-.48-.49,0-.13,.15-.33,.27-.37,.09-.03,.32,.13,.36,.25,.04,.14-.07,.32-.14,.62Z"/><path d="M92.97,202.05c.16,.26,.3,.4,.34,.56,.03,.15-.04,.33-.07,.49-.2-.07-.4-.15-.59-.22,.06-.16,.12-.31,.32-.83Z"/><path d="M93.12,205.59c-.1,.2-.19,.48-.24,.48-.2-.03-.38-.15-.56-.24,.09-.14,.16-.35,.29-.39,.12-.04,.31,.08,.51,.15Z"/><path d="M78.25,257.5c-.09-.05-.18-.1-.28-.16,.11-.11,.22-.22,.33-.34,.07,.09,.19,.19,.19,.28,0,.07-.15,.14-.24,.21Z"/><path d="M76.58,217.86c-.16-.23-.36-.39-.33-.48,.04-.13,.23-.22,.38-.29,.03-.01,.21,.17,.2,.25-.02,.15-.13,.28-.25,.53Z"/><path d="M128.35,270.91c-.05,.18-.08,.29-.11,.4-.15-.05-.31-.09-.44-.18-.03-.02,.04-.3,.08-.3,.16,0,.31,.04,.48,.08Z"/><path d="M17.12,208.66c-.1-.05-.2-.1-.3-.15,.09-.13,.17-.25,.26-.38,.08,.08,.22,.16,.23,.25,0,.09-.12,.19-.19,.28Z"/><path d="M45.57,222.99c-.08-.08-.15-.16-.23-.24,.12-.08,.24-.17,.36-.25,.05,.1,.15,.21,.13,.29-.03,.08-.17,.13-.26,.2Z"/><path d="M33.37,175.68c-.08-.06-.16-.12-.25-.19,.1-.11,.2-.22,.3-.32,.06,.09,.18,.19,.17,.27,0,.09-.14,.16-.22,.24Z"/><path d="M83.06,221.02c.11,.12,.23,.21,.29,.33,.02,.04-.15,.23-.17,.22-.13-.06-.24-.16-.36-.25,.06-.08,.13-.17,.24-.31Z"/><path d="M49.69,128.95c-.13-.09-.28-.14-.37-.25-.04-.05,.07-.2,.11-.31,.15,.06,.3,.12,.45,.18-.05,.1-.1,.2-.19,.38Z"/><path d="M52.83,210.42c-.21-.19-.41-.29-.41-.39,0-.12,.17-.26,.29-.35,.03-.02,.24,.11,.24,.18,.01,.14-.06,.29-.13,.56Z"/><path d="M85.73,173.18c.09-.07,.17-.13,.26-.2,.08,.1,.16,.21,.24,.31-.1,.05-.21,.15-.29,.13-.08-.02-.14-.16-.2-.24Z"/><path d="M59.86,239.02c-.07-.16-.16-.3-.17-.44,0-.06,.16-.13,.26-.2,.08,.14,.18,.27,.23,.42,0,.03-.16,.12-.31,.22Z"/><path d="M103.39,328.61c.09,.06,.18,.13,.27,.19-.1,.12-.2,.23-.3,.35-.06-.1-.17-.2-.17-.3,0-.08,.13-.16,.2-.24Z"/><path d="M19.72,190.38c-.09,.22-.19,.45-.28,.67-.09-.03-.18-.05-.28-.08,.05-.24,.1-.47,.15-.71,.14,.04,.27,.07,.41,.11Z"/><path d="M45.32,251.63c-.16-.11-.3-.18-.4-.29-.03-.03,.12-.28,.15-.27,.15,.04,.29,.13,.44,.2-.05,.1-.1,.19-.19,.36Z"/><path d="M112.29,270.97c-.09-.07-.17-.15-.26-.22,.11-.1,.23-.2,.34-.3,.06,.1,.18,.21,.17,.3-.01,.08-.16,.15-.25,.22Z"/><path d="M65.71,339.43c-.21-.08-.36-.14-.51-.19,.08-.18,.16-.36,.24-.54,.13,.07,.34,.12,.38,.23,.05,.11-.06,.29-.11,.5Z"/><path d="M105.42,277.09c.22,.12,.39,.18,.49,.29,.04,.05-.02,.3-.07,.31-.15,.03-.32,0-.49-.01,.02-.16,.04-.32,.07-.59Z"/><path d="M39.65,244.16c.08-.07,.17-.14,.25-.22,.08,.11,.17,.23,.25,.34-.1,.05-.21,.15-.29,.13-.09-.03-.14-.16-.21-.25Z"/><path d="M89.67,215.12c-.06,.08-.13,.16-.19,.24-.1-.09-.21-.17-.31-.26,.09-.07,.18-.18,.27-.18,.07,0,.15,.13,.23,.2Z"/><path d="M63.91,156.86c-.02,.1-.01,.24-.07,.27-.06,.04-.19-.02-.29-.04,.02-.1,.04-.21,.05-.31,.1,.02,.2,.05,.31,.07Z"/><path d="M114.92,272.12c-.1-.02-.26,0-.3-.06-.04-.07-.01-.27,.04-.29,.09-.04,.22,.02,.33,.03-.03,.11-.05,.22-.08,.32Z"/><path d="M40.29,176.33c-.09-.03-.17-.07-.26-.1,.06-.07,.1-.16,.17-.22,.02-.02,.14,.03,.14,.05,0,.09-.03,.18-.05,.27Z"/><path d="M121.19,349.5c.05,.02,.11,.05,.16,.07-.04,.09-.08,.18-.13,.26,0,0-.1-.04-.15-.06,.04-.09,.08-.18,.12-.27Z"/><path d="M19.07,137.38c-.08-.06-.15-.12-.23-.18,.07-.07,.13-.15,.21-.21,.01,0,.13,.07,.12,.09-.02,.1-.07,.2-.1,.29Z"/><path d="M27.62,170.62c-.04-.1-.09-.2-.13-.31,.1-.02,.21-.05,.31-.05,.02,0,.08,.13,.06,.15-.07,.08-.16,.14-.24,.21Z"/><path d="M114.71,253.48c-.09-.04-.18-.09-.27-.13,.08-.08,.14-.17,.23-.23,.02-.02,.15,.06,.15,.07-.02,.1-.07,.19-.11,.29Z"/><path d="M39.03,209.35c-.07-.05-.14-.1-.2-.16,0,0,.05-.12,.08-.12,.09,0,.18,.02,.28,.03-.05,.08-.11,.17-.16,.25Z"/><path d="M50.16,172.09c-.07-.09-.14-.18-.21-.27,.1-.06,.2-.18,.3-.18,.07,0,.14,.16,.21,.24-.1,.07-.2,.13-.3,.2Z"/><path d="M52.76,255.57c.02-.11,.02-.27,.08-.31,.09-.05,.23,0,.34,.02-.02,.11-.01,.28-.08,.32-.08,.05-.23-.01-.34-.03Z"/><path d="M108.64,310.55c-.11-.01-.22-.02-.33-.04,.06-.09,.1-.18,.17-.25,.03-.03,.16,0,.16,.02,.01,.09,0,.18,0,.27Z"/><path d="M79.56,199.79c-.11-.02-.27,0-.3-.06-.04-.07,.02-.21,.04-.32,.11,.02,.23,.04,.34,.05-.02,.11-.05,.22-.07,.32Z"/><path d="M55.03,214.1c-.06-.09-.18-.2-.15-.26,.03-.09,.17-.15,.26-.22,.06,.09,.19,.2,.16,.26-.04,.1-.17,.15-.26,.22Z"/><path d="M121.27,239.62c-.07,.09-.14,.18-.21,.27-.11-.1-.22-.19-.33-.29,.1-.06,.2-.17,.3-.17,.08,0,.16,.13,.24,.2Z"/><path d="M73.05,173.58c.06-.1,.13-.2,.19-.29,.09,.07,.25,.13,.26,.22,.02,.09-.1,.2-.16,.3-.09-.07-.19-.14-.29-.22Z"/></g><path d="M111.34,285.01c.81-.35,1.63-.7,2.6-1.12,.05-2.5,1.53-3.9,3.94-4.57,.55-.15,.99-.82,1.41-1.31,.68-.79,1.3-1.64,2.12-2.68-1.4-.33-3.26-.18-3.02-2.33,.06-.51,.08-1.2,.4-1.47,2.1-1.79,3.02,1.05,4.66,1.34,1.02,.18,1.27,1.77,.41,2.43-1.33,1.02-1.02,2.28-1.23,3.46,4.58,2.71,5.91,6.34,3.51,10.91-1.56,2.97-.58,5.84-.62,8.76,0,.58,.13,1.43-.19,1.71-2.56,2.21-.92,4.59-.4,6.93,.27,1.21,.72,2.39,.88,3.6,.22,1.68-.55,2.72-2.09,3.65-1.62,.98-2.93,2.52-4.28,3.9-.72,.74-1.12,2.18-1.9,2.39-1.58,.42-3.33,.36-4.99,.22-1.26-.11-2.48-.65-3.72-1-.06,.16-.12,.32-.19,.49,.63,.37,1.26,.74,2,1.19-.26,.63-.51,1.26-.76,1.86,1.2,1.96,3.35,1.56,5.02,2.23,.39,.16,1-.08,1.28,.14,2.44,1.92,4.81,3.96,5.31,7.24,.11,.74-.28,1.76-.79,2.35-1.5,1.72-3.02,3.48-5.61,3.7-.41,.03-.91,1.16-1.05,1.85-.44,2.12-.7,2.3-2.81,1.61-.43-.14-1.01-.17-1.42,0-1.64,.71-2.08-.2-2.39-1.64,.38-.27,.69-.61,1.07-.75,1.45-.55,1.39-1.42,.66-2.52-1.32-1.99-2.63-4-3.97-6.05-1.09-.05-2.31-.1-3.38-.14-.8,1.01-1.37,2.3-2.35,2.78-.83,.41-2.13-.12-3.65-.28-2.26,1.31-3.64,1.38-4.81,0-1-1.19-1-3.39,0-4.5,1.17-1.29,2.6-1.13,5.27,.62,1.07-.53,1.29-1.36,.91-2.45-1.17-3.34-.88-6.32,2.07-8.72,.38-.31,.67-1.21,.5-1.63-.84-2.08,.05-3.01,1.99-3.49-1.75,.01-3.51,.03-5.32,.04-.76,.96,.89,2.66-.83,3.25-.6,.2-1.42-.22-2.34-.39-.26,1.46-1.34,2.64-2.96,3.25-1.6,.6-3.25,1.07-4.61,1.52-3.57-2.41-5.68-5.69-7.67-9.06-.35-.59-.43-1.35-.6-2.04-.42-1.68-1.31-3.03-2.99-4.32-1.66,4.7,.22,9.19-.55,13.44-1.17-.07-2.54-.09-3.88-.27-1.37-.18-2.3-1.04-2.66-2.36-.37-1.36,.12-2.48,1.29-3.26,.44-.3,1.07-.39,1.41-.76,.38-.42,.87-1.17,.73-1.56-.58-1.54-1.17-3.16-2.17-4.41-.8-.99-.94-1.78-.7-2.91,.22-1.02,.22-2.08,.35-3.41-2.88-.15-5.02-1.05-5.18-4.06-2.24-.45-3.97-1.75-3.84-3.08,.07-.67,.62-1.59,1.2-1.85,1.97-.88,3.17,.42,3.81,1.41,2.11,.16,3.77,.23,5.4,.44,1.19,.15,2.09,.73,2.73,1.91,.54,.98,1.4,1.98,2.37,2.49,2.21,1.18,3.94,2.71,4.89,5.27,.87-.61,1.48-1.05,2.23-1.57,.4,.83,.77,1.58,1.25,2.56,.68-.43,1.22-.79,1.81-1.16-.58-1.5-1.09-2.82-1.65-4.29-.85,.06-1.66,.27-2.4,.13-.99-.19-1.94-.6-2.87-1.01-.38-.17-.62-.66-.99-.87-2.89-1.6-3.35-2.71-2.47-5.99,.32-1.21,.65-2.42,.93-3.64,.05-.23-.09-.5-.17-.91-1.61-.15-2.42,.59-2.87,2.09-.65,2.16-1.77,2.54-3.79,1.51-.66-.34-1.42-.5-2.07-.85-.48-.26-.87-.69-1.3-1.05,.41-.35,.85-1.01,1.24-.98,1.35,.11,1.64-.66,1.9-1.69q-4.49-.6-4.82-5.06c-1.44-.4-2.99-.92-4.57-1.26-1.46-.32-2.45-1.26-2.21-2.85,.3-2.02-.09-3.58-1.53-5.12-1.45-1.54-1.08-2.55,1.12-4.56-.44-.53-.92-1.04-1.34-1.6-1.44-1.9-.55-4.4,1.78-5.02,.09-.02,.18-.01,.27-.03,3.94-.96,4.18-.72,3.63,3.23-.09,.67,.06,1.43,.29,2.08,.47,1.31,1.02,2.59,1.63,3.84,.22,.45,.64,.86,1.07,1.14,1.49,.95,2.17,2.28,2.29,4.03,.12,1.72,.47,3.29,2.18,4.36,.82,.51,1.69,1.71,1.7,2.61,.03,2.19,1.65,3.19,2.58,4.7,1.35-.95,2.57-1.81,3.94-2.78,0-.01-.35-.4-.36-.79-.01-.55,.22-1.11,.36-1.66,.47,.17,1.01,.24,1.38,.53,1.66,1.27,3.06,1.04,4.07-.76,.22-.39,.24-.92,.52-1.23,.44-.47,1.08-1.16,1.53-1.1,.53,.08,1.22,.81,1.35,1.38,.2,.85,.27,1.49,1.31,1.64,.24,.03,.63,.76,.55,1.06-.68,2.55,1.76,4.19,1.43,6.61,.2,.07,.41,.14,.61,.21,1.16-.75,2.32-1.49,3.47-2.25,.37-.25,.68-.77,1.05-.8,1.89-.15,3.13-1.34,3.47-2.91,.33-1.49-.12-3.15-.27-4.74-.02-.25-.29-.46-.35-.72-.21-.85-.2-1.62,.87-1.9,1-.26,1.55,.08,1.61,1.15,0,.15,.17,.3,.29,.48,1.07-.92,2.11-1.86,3.19-2.75,3.07-2.53,9.21-.91,10.18,2.93,.45,1.77-.16,3.84-.42,5.75-.09,.68-.55,1.3-.84,1.95-1.59,.8-3.49,1.3-3.18,3.59-1.18-.14-2.25-.58-3.07-.29-1.55,.54-2.75,.27-3.84-.89-2.03,1.04-3.89,2.09-5.83,2.95-1.95,.87-4.02,1.47-5.95,2.38-.61,.28-1.46,1.47-1.32,1.7,.85,1.38,1.75,3.32,3.04,3.69,1.49,.43,3.79,1.27,4.73-.71,.94,.26,1.56,.54,2.19,.59,.59,.05,1.24-.35,1.78-.21,1.93,.51,3.81,1.19,5.73,1.74,.63,.18,1.32,.16,1.78,.21,.21-1.57,.89-3.1,.45-4.16-1.31-3.21,1.55-4.79,2.62-6.87,.69-1.35,1.26-2.32,.85-3.75Zm-17.94,27.87c.79-1.9-.6-3.57-.59-5.54q-1.95,1.46,.59,5.54Z"/></g></g></g></g></g></svg>
