<?xml version="1.0" encoding="UTF-8"?><svg id="Layer_2" xmlns="http://www.w3.org/2000/svg"><defs><style>.weights-1,.weights-2{fill:#a7a9ac;}.weights-3{fill:#6d6e71;}.weights-2{stroke:#6d6e71;stroke-linecap:round;stroke-miterlimit:10;stroke-width:3px;}</style></defs><g id="Right_base_"><g id="Right-Weights"><rect class="weights-3" x="-18.96" y="155.26" width="469.43" height="38.36" rx="10.9" ry="10.9" transform="translate(-61.06 155.61) rotate(-35.06)"/><rect class="weights-1" x="89.31" y="148.86" width="37.64" height="201.38" rx="6.31" ry="6.31" transform="translate(-123.74 107.41) rotate(-35.06)"/><rect class="weights-1" x="58.5" y="186.78" width="37.64" height="168.77" rx="5.36" ry="5.36" transform="translate(-141.75 93.64) rotate(-35.06)"/><rect class="weights-1" x="27.69" y="234.66" width="37.64" height="116.27" rx="5.83" ry="5.83" transform="translate(-159.77 79.86) rotate(-35.06)"/><line class="weights-2" x1="50.16" y1="199.71" x2="135.3" y2="321.01"/><line class="weights-2" x1="33.55" y1="241.56" x2="90.7" y2="322.98"/><rect class="weights-1" x="303.23" y="-1.29" width="37.64" height="201.38" rx="6.31" ry="6.31" transform="translate(642.76 -4.25) rotate(144.94)"/><rect class="weights-1" x="334.04" y="-6.61" width="37.64" height="168.77" rx="5.36" ry="5.36" transform="translate(686.36 -61.28) rotate(144.94)"/><rect class="weights-1" x="364.85" y="-1.98" width="37.64" height="116.27" rx="5.83" ry="5.83" transform="translate(729.97 -118.3) rotate(144.94)"/><line class="weights-2" x1="380.02" y1="149.24" x2="294.89" y2="27.94"/><line class="weights-2" x1="396.63" y1="107.38" x2="339.49" y2="25.97"/></g></g></svg>
