<?xml version="1.0" encoding="UTF-8"?><svg id="Layer_2" xmlns="http://www.w3.org/2000/svg"><defs><style>.battleaxe-1{fill:#a8a8a8;}.battleaxe-2{fill:#3f280f;}.battleaxe-3{fill:#808285;}.battleaxe-4{fill:#e6e7e8;opacity:.3;}</style></defs><g id="Right_base_"><g id="Right-BattleAxe"><path class="battleaxe-2" d="M495.05,4.92l19.46,26.51L113.06,326.4h0c-11.1-4.28-18.7-14.63-19.46-26.51h0S495.05,4.92,495.05,4.92Z"/><path class="battleaxe-1" d="M12.12,335.5c.91,2.24,4.21,1.77,4.42-.64,2.38-27.44,16.13-53.74,40.07-71.32,.08-.06,.16-.12,.24-.18,12.64-9.22,30.41-6.28,39.67,6.34l46.22,62.97c9.26,12.61,6.74,30.45-5.84,39.74-.08,.06-.16,.12-.24,.18-23.94,17.58-53.16,22.81-80.05,16.86-2.36-.52-3.8,2.49-1.94,4.03,56.81,47.02,140.32,51.41,202.46,5.79,58.7-43.09,80.54-117.74,59.32-183.43-.71-2.19-3.84-2.08-4.41,.15-5.48,21.42-18.12,41.15-37.33,55.26-5.48,4.02-11.23,7.39-17.16,10.13-12.23,5.64-26.76,1.69-34.73-9.17l-44.62-60.79c-7.97-10.86-7.39-25.9,1.66-35.88,4.39-4.84,9.33-9.32,14.81-13.34,19.21-14.11,41.82-20.26,63.9-19.06,2.3,.12,3.34-2.83,1.46-4.16-56.32-39.92-134.07-41.45-192.78,1.64C5.11,186.23-15.72,267.21,12.12,335.5Z"/><path class="battleaxe-4" d="M79.72,391.78c-7.78,.13-15.54-.66-23.11-2.34-2.36-.52-3.8,2.49-1.94,4.03,56.81,47.02,140.32,51.41,202.46,5.79,58.7-43.09,80.54-117.74,59.32-183.43-.71-2.19-3.84-2.08-4.41,.15-2.04,8-5.09,15.76-9.1,23.08,21.18,130.47-118.8,213.78-223.23,152.72Z"/><path class="battleaxe-4" d="M21.24,312.11c-2.45,7.38-4.02,15.02-4.69,22.75-.21,2.41-3.51,2.88-4.42,.64-27.84-68.29-7.01-149.27,55.14-194.89,58.7-43.09,136.46-41.56,192.78-1.64,1.88,1.33,.83,4.29-1.46,4.16-8.24-.45-16.56,.13-24.74,1.77C115.7,85.6-5.73,194.19,21.24,312.11Z"/><circle class="battleaxe-3" cx="138.03" cy="287.67" r="8.28"/><circle class="battleaxe-3" cx="182.4" cy="255.1" r="8.28"/><ellipse class="battleaxe-2" cx="497.63" cy="23.43" rx="17.4" ry="26.1" transform="translate(82.62 299.02) rotate(-36.28)"/><path class="battleaxe-2" d="M506.8,37.09s10.77-9.81,17.72-29.14c.98-2.72-1.09-5.59-3.98-5.43-21.22,1.18-33.2,8.06-33.2,8.06l19.46,26.51Z"/></g></g></svg>
