<?xml version="1.0" encoding="UTF-8"?><svg xmlns="http://www.w3.org/2000/svg"><defs><style>.sword-1{fill:#e6e7e8;}.sword-2,.sword-3,.sword-4{fill:#fff;}.sword-5,.sword-6{fill:#7289ff;}.sword-7{fill:#bcbec0;}.sword-8{fill:#d1d3d4;}.sword-9{fill:#494c67;}.sword-6{mix-blend-mode:multiply;}.sword-10{isolation:isolate;}.sword-3{opacity:.5;}.sword-4{opacity:.25;}</style></defs><g class="sword-10"><g id="Layer_2"><g id="Right_base_"><g id="Right-Sword"><polygon class="sword-8" points="407.87 95.02 433.14 143.46 101.78 339.18 0 338.68 57.8 254.91 407.87 95.02"/><polygon class="sword-1" points="343.72 196.28 242.19 170.69 117.03 227.86 238.44 258.46 343.72 196.28"/><path class="sword-7" d="M422.36,122.79S123.16,293.95,44.19,315.71c0,0,91.92-71.29,374.05-200.82l4.12,7.9Z"/><path class="sword-7" d="M345.42,101.27h171.96c0,13.56-11.01,24.56-24.56,24.56h-122.83c-13.56,0-24.56-11.01-24.56-24.56h0Z" transform="translate(530.31 548.54) rotate(-117.56)"/><rect class="sword-9" x="479.34" y="7.82" width="48.28" height="137.48" transform="translate(668.55 558.35) rotate(-117.56)"/><circle class="sword-7" cx="582.83" cy="35.16" r="35.15"/><polygon class="sword-5" points="583.75 13.58 564.6 23.57 563.68 45.15 581.91 56.74 601.06 46.75 601.98 25.17 583.75 13.58"/><polygon class="sword-3" points="583.32 23.64 573.09 28.97 572.6 40.5 582.34 46.68 592.56 41.35 593.05 29.82 583.32 23.64"/><polygon class="sword-6" points="593.05 29.82 583.32 23.64 583.75 13.58 601.98 25.17 593.05 29.82"/><polygon class="sword-2" points="572.6 40.5 582.34 46.68 581.91 56.74 563.68 45.15 572.6 40.5"/><polygon class="sword-4" points="581.91 56.74 582.34 46.68 592.56 41.35 601.06 46.75 581.91 56.74"/></g></g></g></g></svg>
