<?xml version="1.0" encoding="UTF-8"?><svg xmlns="http://www.w3.org/2000/svg"><defs><style>.stick-1{fill:#e6e7e8;}.stick-2{fill:#c49a6c;}.stick-3{fill:#231f20;}.stick-4{mix-blend-mode:multiply;opacity:.12;}.stick-5{isolation:isolate;}</style></defs><g class="stick-5"><g id="Layer_2"><g id="Right_base_"><g id="Right-HockeyStick"><path class="stick-2" d="M348.45,19.22h0c10.01,0,18.13,8.12,18.13,18.13V824.45h-36.26V37.35c0-10.01,8.12-18.13,18.13-18.13Z" transform="translate(172.35 939.86) rotate(-121.67)"/><path class="stick-3" d="M76.42,491.96h16.36c5.49,0,9.95,4.46,9.95,9.95v175.28h-36.26v-175.28c0-5.49,4.46-9.95,9.95-9.95Z" transform="translate(-368.52 963.46) rotate(-121.67)"/><path class="stick-2" d="M731.33,188.02c8.92-20.81,10.88-43.84,12.72-66.4,.7-8.52,1.39-17.04,2.09-25.56,1.83-22.42,3.48-45.99-5.91-66.43-9.38-20.44-33.86-35.82-54.62-27.16-19.02,7.94-28.63,30.44-30.29,50.99-3.17,39.33-6.45,99.19-20.4,139.66-9.14,26.53-24.74,40.16-56.03,65.27,10.09-2.04,46.34-8.1,53.94-9.88,14.11-3.31,28.86-5.66,42.69-10.06,24.33-7.75,45.75-26.99,55.8-50.43Z"/><path class="stick-1" d="M731.3,174.9c.52,0,1.04-.03,1.56-.08,3.26-.3,3.24-.46,4.17-3.55,1.57-5.21,2.49-10.71,3.36-16.08,1.81-11.12,2.74-22.36,3.66-33.58,.7-8.52,1.39-17.04,2.09-25.56,.88-10.78,2.78-22.76,1.27-33.54-.69-4.95-7.04-5.65-11.41-7.2-5.44-1.93-10.96-3.64-16.62-4.79-6.11-1.25-12.34-1.85-18.55-2.4-13.32-1.17-27.05-2.05-39.78,2.03-1.7,.54-3.42,1.21-4.71,2.44-2.68,2.57-1.64,8.76-1.91,12.18-.44,5.61-.87,11.21-1.32,16.82-.92,11.45-1.91,22.9-3.16,34.32-.63,5.78-1.33,11.56-2.11,17.33-.65,4.78-3.2,11.33-.24,15.1,6.07,7.72,17.85,13.45,26.75,17,15.77,6.28,32.98,7.72,49.9,9.08,2.29,.18,4.69,.51,7.03,.48Z"/><g class="stick-4"><path d="M740,151.83c-11.53-.32-24.18-.58-35.47-2.85-19.43-3.82-38.19-12.55-52.64-26.19,18.69,14.48,41.23,23.32,64.61,26.34,7.78,1.09,15.67,1.63,23.5,2.7h0Z"/></g><g class="stick-4"><path d="M739.67,123.49c-22.27-23.13-50.81-39.39-81.3-49.05,31.33,6.95,61.05,23.96,81.3,49.05h0Z"/></g><g class="stick-4"><path d="M746.51,99.32c-22.27-23.13-50.81-39.39-81.3-49.05,31.33,6.95,61.05,23.96,81.3,49.05h0Z"/></g><g class="stick-4"><path d="M671.62,133.82c20.59-4.1,40.82-9.4,60.79-15.88-18.98,9.07-39.8,14.5-60.79,15.88h0Z"/></g><g class="stick-4"><path d="M709.45,100.88c-17.04,7.65-38.46,14.71-57.28,13.81,19.64-2.08,38.35-8.5,57.28-13.81h0Z"/></g></g></g></g></g></svg>
