<?xml version="1.0" encoding="UTF-8"?>
<svg xmlns="http://www.w3.org/2000/svg" xmlns:xlink="http://www.w3.org/1999/xlink" viewBox="0 0 1073.9 1167.86">
    <defs>
        <style>
            @import url(style.css);
    </style>
        <linearGradient id="linear-gradient" x1="785.62" y1="1540.98" x2="730.97" y2="1596.15" gradientTransform="translate(125.82 2488.51) scale(1 -1)" gradientUnits="userSpaceOnUse">
            <stop offset="0" stop-color="#0081ad" />
            <stop offset="1" stop-color="#14d1df" />
        </linearGradient>
        <linearGradient id="linear-gradient-2" x1="785.77" y1="1541.13" x2="731.12" y2="1596.3" xlink:href="#linear-gradient" />
        <linearGradient id="linear-gradient-3" x1="769.05" y1="1633.55" x2="821.08" y2="1581" xlink:href="#linear-gradient" />
        <linearGradient id="linear-gradient-4" x1="769.2" y1="1633.7" x2="821.23" y2="1581.15" xlink:href="#linear-gradient" />
        <linearGradient id="linear-gradient-5" x1="746.05" y1="1618.18" x2="805.66" y2="1559.35" gradientTransform="translate(125.82 2488.51) scale(1 -1)" gradientUnits="userSpaceOnUse">
            <stop offset="0" stop-color="#14d1df" />
            <stop offset="1" stop-color="#85d9a5" />
        </linearGradient>
        <linearGradient id="linear-gradient-6" x1="746.07" y1="1618.2" x2="805.68" y2="1559.37" xlink:href="#linear-gradient-5" />
    </defs>
    <g class="cls-37">
        <g id="Layer_2">
            <g id="Layer_1-2">
                <g id="Left-Leg">
                    <path class="cls-8" d="M569.5,1034.94c2.35,9.8-4.13,19.54-14.08,21.16-3.89,.63-7.06,1.11-7.83,1.23-16.45,2.47-36.73,4.71-50.19,15.46-3.24,2.59-6.4,5.88-8.79,9.47-2.91,4.37,.99,10.07,6.15,9.1,16.31-3.07,32.52-5.58,48.86-8.81-7.97,6.76-15.81,14.55-23.78,21.31-4.14,3.51-8.34,6.73-11.05,11.53-1.76,3.11-4.99,9.65-3.77,18.01,.63,4.32,5.59,6.51,9.22,4.09,20.85-13.89,40.51-30.53,59.52-46.64-3.93,7.97-7.87,15.94-11.8,23.9-3.15,6.39-5.76,10.87-6.33,17.95-.38,4.77-.1,9.06,1.14,13.24,1.17,3.92,5.93,5.45,9.23,3.04,3.47-2.54,6.71-5.26,9.58-8.67,4.52-5.37,9.05-11.76,12.37-17.96,5.24-9.78,13.58-26.21,19.81-36.51,4.36-7.21,7.31-15.17,8.33-23.53l7.73-147.83-83.93-2.84s20.59,85.74,29.61,123.3Z" />
                    <path class="cls-28" d="M581.62,970.91c9.95,2.09,20.83,2.85,30.85,1.06s8.8-8.99,9.28-18.09c.69-13.13,1.37-26.27,2.06-39.4,0,0-83.88-2.83-83.92-2.83l10.45,43.46c3.89,9.3,21.37,13.63,30.27,15.59,.33,.07,.67,.15,1.01,.22Z" />
                </g>
                <g id="Right-Leg">
                    <path class="cls-8" d="M751.71,1043.89l34.2-154.66-95.72-6.19,18.37,159.26c.37,12.11-2.54,24.09-8.44,34.68-6.86,12.31-13.71,24.62-20.83,36.77-4.7,8.03-8.09,16.23-9.5,25.18-.71,4.5,3.39,8.26,7.81,7.17,1.57-.39,2.8-.71,3.12-.84,4.04-1.59,7.84-3.83,11.17-6.62,4.23-3.54,6.44-7.66,9.19-12.34,4.45-7.56,8.9-15.12,13.36-22.68,.59,7.09,1.17,14.17,1.76,21.26,1.09,13.24,1.78,29.14,10.03,40.35,2.9,3.95,9.03,3.35,10.96-1.15,7.18-16.75,3.75-42.79,2.01-63.9-.01-.16,7.74,9.82,11.79,16.84,3.74,6.49,7.28,13.72,12.92,18.82,3.02,2.73,6.52,5.1,10.2,7.09,4.41,2.38,9.72-1.05,9.36-6.04-.1-1.38-.18-2.42-.2-2.69-.65-9.98-4.61-19.1-9.54-27.66l-16.89-29.3c-5.81-10.09-7.65-21.99-5.13-33.35Z" />
                    <path class="cls-28" d="M736.45,972.58c7.84-1.64,15.44-4.44,22.44-8.32,4.17-2.31,10.15-5.28,12.51-9.43,0,0,11.14-50.39,14.5-65.6l-95.72-6.19c2.83,24.57,5.67,49.14,8.5,73.7,.73,6.3-.45,13.05,5.58,15.99s16.92,1.82,23.44,1.18c2.93-.29,5.85-.74,8.74-1.34Z" />
                </g>
                <g id="Left_wing">
                    <path class="cls-31" d="M444.65,784.44c.59,3.17-19.27,10-22.13,10.89-21.09,6.53-57.06,8.86-79.97,7.67-16.38-.86-58.63-7.85-67.62-23.78,7.25-2.22,14.85-3.73,22.29-5.45-4.57,1.06-24.07-1.79-28.89-3.03-22.43-5.75-42.34-20.42-52.38-43.33-1.51-3.45-2.85-7.39-1.68-10.94,1.24-3.77,5.08-5.94,8.8-6.19,5.47-.37,10.21,.53,15.64-.42-9.4-5.5-18.46-12.89-21.7-24.35-.95-3.35-1.13-7.62,1.49-9.61,2.49-1.88,37.75-16.06,72.41-30.36,18.89-7.8,45.01-19.98,62.98-31.93,3.32-2.21,11.8,33.1,13.7,36.26,5.51,9.18,10.81,18.52,16.06,27.88,11.68,20.84,23.07,51.89,34.22,73.06,4.3,8.16,25.05,24.31,26.78,33.66Z" />
                    <path class="cls-12" d="M444.65,784.44c.59,3.17-19.27,10-22.13,10.89-21.09,6.53-57.06,8.86-79.97,7.67-16.38-.86-58.63-7.85-67.62-23.78,7.25-2.22,14.85-3.73,22.29-5.45-4.57,1.06-24.07-1.79-28.89-3.03-22.43-5.75-42.34-20.42-52.38-43.33-1.51-3.45-2.85-7.39-1.68-10.94,1.24-3.77,5.08-5.94,8.8-6.19,5.47-.37,10.21,.53,15.64-.42-9.4-5.5-18.46-12.89-21.7-24.35-.95-3.35-1.13-7.62,1.49-9.61,2.49-1.88,37.75-16.06,72.41-30.36,18.89-7.8,45.01-19.98,62.98-31.93,3.32-2.21,11.8,33.1,13.7,36.26,5.51,9.18,10.81,18.52,16.06,27.88,11.68,20.84,23.07,51.89,34.22,73.06,4.3,8.16,25.05,24.31,26.78,33.66Z" />
                </g>
                <g id="Base">
                    <path class="cls-12" d="M914.32,718.18c-16.97-135.61-111.82-234.12-241.36-270.21-26.77-7.46-54.16-17.04-74.57-36.71s-29.14-54.86-49.02-74.85c-26.48-26.62-63.16-42.64-100.79-43.13-79.63-1.04-145.02,62.67-146.06,142.3-.54,41.51,21.33,86.63,27.9,126.86,8.08,49.45,21.43,107.67,33.19,156.26,26.73,110.49,119.12,196.64,229.88,219.54,59.81,12.37,122.24,11.72,180.43-6.66,53.77-16.98,107.47-49.62,129.23-105.43,12.91-33.12,15.87-70.36,11.16-107.99Z" />
                    <path class="cls-28" d="M895.11,843.32c6.47-12.2,10-20.89,13.78-34.33-26.62,28.72-65.55,44.93-103.73,53.46-40.81,9.12-78.51,10.62-120.01,7.73-27.37-1.91-54.58-6.05-81.27-12.4-13.67-3.25-27.2-7.09-40.55-11.5-5.11-1.7-10.03-3.91-15.02-5.94s-9.89-3.64-14.77-6.07c1.88,3.78,3.28,7.8,4.16,11.92,.31,1.44,.48,3.15-.56,4.2-1.04,1.04-2.74,.87-4.17,.56-18.85-3.98-31.13-18.9-43.51-32.43,2.29,2.5,5.25,11.59,5.31,14.83,.2,14.17-13.66,4.81-19.18,.82-8.33-6.01-14.96-13.96-22.37-21.07-32.61-31.28-61.41-60.76-93.74-111.89,3.97,16.77,7.95,33.4,13.99,49.59,35.39,94.88,121.1,166.98,220.05,187.45,59.81,12.37,122.24,11.72,180.43-6.66,24.45-7.72,48.21-18.36,69.37-32.93,10.8-7.43,20.86-15.94,29.89-25.46,7.82-7.82,16.83-20.3,21.91-29.89Z" />
                    <path class="cls-12" d="M406.43,321.02c12.28-20.87,17.39-39.94,12.77-63.75-.31-1.57-.55-3.47,.63-4.55,.87-.79,2.17-.8,3.33-.67,5.52,.61,10.76,3.5,14.21,7.86,6.56,8.26,5.51,16,3.82,23.91,5.93-5.84,9.43-14.1,13.92-23.47,.4-.83,.83-1.7,1.58-2.24,2.11-1.51,4.97,.5,6.5,2.6,7.77,10.63,6.53,25.13-2.4,34.48-5.52,5.77-12.3,10.15-19.01,14.47" />
                </g>
                <g id="Eye-Sparkle">
                    <path d="M372.15,393.76c0,11.13-3.41,23.12-15.88,23.26-14.09,.16-16.39-12.14-16.39-22.9s2.75-23.12,15.88-23.26c12.95-.15,16.39,12.12,16.39,22.9Z" />
                    <path d="M485.17,393.76c0,11.13-3.41,23.12-15.88,23.26-14.09,.16-16.39-12.14-16.39-22.9s2.75-23.12,15.88-23.26c12.95-.15,16.39,12.12,16.39,22.9Z" />
                    <path class="cls-7" d="M474.35,404.95c-1.27-13.8-3.71-16.25-17.39-17.42-.83-.07-.84-1.29,0-1.36,13.69-1.3,16.17-3.72,17.4-17.23,.08-.83,1.29-.83,1.36,0,1.2,13.57,3.67,16,17.39,17.26,.83,.08,.83,1.29,0,1.36-13.76,1.21-16.2,3.65-17.4,17.39-.07,.83-1.29,.83-1.36,0Z" />
                    <path class="cls-7" d="M361.32,404.95c-1.27-13.8-3.71-16.25-17.39-17.42-.83-.07-.84-1.29,0-1.36,13.69-1.3,16.17-3.72,17.4-17.23,.08-.83,1.29-.83,1.36,0,1.2,13.57,3.67,16,17.39,17.26,.83,.08,.83,1.29,0,1.36-13.76,1.21-16.2,3.65-17.4,17.39-.07,.83-1.29,.83-1.36,0Z" />
                    <path class="cls-7" d="M462.65,412.17c-.76-8.24-2.21-9.7-10.37-10.39-.5-.04-.5-.77,0-.81,8.17-.77,9.65-2.22,10.38-10.28,.05-.5,.77-.49,.81,0,.72,8.1,2.19,9.55,10.38,10.3,.5,.05,.49,.77,0,.81-8.21,.72-9.67,2.18-10.38,10.37-.04,.5-.77,.5-.81,0Z" />
                    <path class="cls-7" d="M349.62,412.17c-.76-8.24-2.21-9.7-10.37-10.39-.5-.04-.5-.77,0-.81,8.17-.77,9.65-2.22,10.38-10.28,.05-.5,.77-.49,.81,0,.72,8.1,2.19,9.55,10.38,10.3,.5,.05,.49,.77,0,.81-8.21,.72-9.67,2.18-10.38,10.37-.04,.5-.77,.5-.81,0Z" />
                </g>
                <g id="Hat-Witch">
                    <path class="cls-20" d="M576.49,365.9c-72.18-37.68-180.17-53.29-254.11-13.64,10.93-80.66,57.3-152.84,112.78-210.49,7.12-5.55,15.41-9.38,23.68-13,47.52-20.81,98.07-42.43,148-56.43,7.67-1.71,14.67-5.22,19.89-11.18,20.55-20.39,41.1-40.77,61.65-61.16-9.97,46.22-15.46,93.84-27.98,139.33-14.69,21.28-33.93,38.95-50.51,58.89-5.46,6.2-11.01,12.55-14.19,20.17-7.31,30.32-25.95,136.45-19.21,147.51Z" />
                    <path class="cls-6" d="M362.2,238.15c-14.44,25.62-25.94,52.75-33.28,81.1,24.35,7.84,51.04,7.73,76.84,9.31,3.27,.2,6.53,.43,9.8,.68,26.25-.91,53.18,1.87,79.05,7.49,22.33,1.6,44.62,1.98,66.83-.82,5-.63,9.99-1.42,14.97-2.24,1.88-18.61,5.47-42.37,9.22-64.07-70.79-27.25-147.87-38.14-223.43-31.46Z" />
                    <path class="cls-20" d="M308.79,395.24s-8.98-2.82-12.43-3.85c-28.03-8.32-56.48-16.37-82.58-29.83-19.02-9.81-56.32-30.13-52.97-55.58,6.45-49.12,144.5-41.83,179.89-40.97s68.31,2.13,102.36,6.07c53.46,6.18,108.46,14.85,160.57,30.9,48.96,15.08,145.6,42.21,136.74,79.61-8.4,35.43-76.89,41.33-103.29,39.1-6.86-.58-27.04,.59-32.25-3.74,0,0-12.05-10.02-15.27-16.01,0,0-3.28-4.03-12.46-19.7-17.26-29.48-58.72-35.07-89.37-38.87-30.62-3.8-61.64-6.54-92.47-3.87-22.41,1.94-60.52,4.65-73.42,26.69-6.34,10.83-9.45,19.73-13.04,30.06Z" />
                    <path class="cls-30" d="M602.74,319.24c-52.21-14.63-107.24-22.74-160.72-28.62-34.06-3.75-68.25-5.17-102.36-6.16-34.15-.99-163.9-8.02-178.37,30.61,5.01,21.17,35.79,37.89,52.48,46.5,26.1,13.46,54.56,21.51,82.59,29.83,8.01,2.38,10.33,5.14,14.85-2.37,3.64-6.04,7.83-11.78,13.41-16.1,27.89-21.58,64.35-25.4,98.48-23.91,34.51,1.5,71.3,5.36,105.02,12.99,8.87,2.01,17.6,4.68,25.9,8.41,11.21,5.02,21.47,12.07,29.57,21.35,7.47,8.56,11.68,18.26,21.21,25.2,5.21,4.33,25.39,3.16,32.25,3.74,26.09,2.2,93.3-3.54,102.97-37.89-7.21-29.07-92.33-50.97-137.3-63.57Z" />
                    <path class="cls-30" d="M571.54,195.31c-7.85-3.97-16.1-7.27-24.05-10.83-7.09-3.18-13.99-6.74-21.01-10.06-2.35-1.11-9-5.04-15.26-8.12-3.44-1.7-2.59-6.83,1.22-7.31,30.11-3.73,62.56,13.07,77.56,38.88-4.01-13.45-7.13-27.12-10.43-40.75-.7-2.88-1.35-6,.25-8.68,.93-1.56,2.66-2.57,4.44-2.23,2.19,.41,3.07,2.5,3.71,4.41,5.91,17.67,9.84,37.62,8.12,56.3-.11,1.18-.33,2.54-1.82,2.8-.86,.15-1.73-.19-2.37-.79-6.05-5.63-13.03-9.92-20.35-13.62Z" />
                </g>
                <g id="Right-Tutu">
                    <path class="cls-2" d="M859.94,574.75c45.73-11.46,95.17-22.67,140.29-33.98,14.08-3.53,14.59-1.81,22.88,9.27-6.04,4.68-11.23,10.47-15.22,16.94,5.35,1.96,10.08,5.22,13.74,9.44-14.58,14.81,2.89,17.32-.08,31.37-.68,3.2-4.22,5.34-7.48,5.52s-6.29-1.12-9.2-2.39c3.65,7.85,6.65,16.01,8.95,24.38-8.03-.63-16.08-1.27-24.15-1.9,5.33,6.45,10.65,12.87,15.96,19.29-.89-1.07-17.51,1.62-19.75,1.76,6.35,9.85,2.67,14.14-2.2,23.23-7.76,14.48-.91,8.23-16.79,5.47,.48,4.23,2.08,8.17,2.73,12.35,1.39,8.89-4.43,18.09-13.85,13.24,1.77,12.2-22.36,63.33-36.64,40.51-2.64,6.1-2.01,37.74-18.1,31.87-.09,11.49-1.98,25.75-13.14,30.71-11.63,5.17-14.75-2.31-15.96,13.15-1.05,13.46-11.23,19.81-21.94,9.45-5.29,5.87-9.05,13.56-17.81,16.19-2.47,.74-22.7-.76-22.87-2.93,.65,8.11,.4,17.94-5.25,25.04-5.75,7.22-19.73,8.67-22.59,.59,3.55,6.42-4.83,14.87-12.76,15.01-7.94,.14-14.42-4.89-20.07-9.79-1.71,8.81-3.42,17.61-5.13,26.39-.45,2.34-.96,4.8-2.58,6.71-3.01,3.57-8.91,3.81-12.86,1.71s-6.43-5.9-8.76-9.57c2.69,9.69-1.22,21.56-10.56,27.45-9.35,5.89-23.57,3.72-27.93-5.32-3.01,9.2-6.3,18.83-13.71,25.74-7.42,6.91-20.39,9.77-27.48,3.48-7.33,15.35-19.48,7.9-31.01,11.43-9.73,2.98-13.81,13.56-23.75,15.94-9.82,2.35-17.22-6.71-21.8-14.61-.75,9.25-9.42,17.9-19.48,19.44-10.08,1.55-20.45-4.2-23.29-12.94-4.46,6.13-9.3,12.57-16.53,15.79-7.23,3.22-17.48,1.53-19.77-5.19-7.99,6.79-17.32,12.29-27.35,16.12-3.69-6.25-7.39-12.52-11.09-18.8-10.16,8.15-20.33,16.3-30.5,24.45-2.86-6.32-7.47-13.69-15.23-13.29-3.31,.17-6.49,1.84-9.8,1.73-9.83-.35-9.73-13.32-6.58-21.88,16.44-44.63,36.08-87.13,55.62-130.9,70.79-38.12,138.66-77.72,208.63-115.4,78.94-42.5,153.96-86,212.23-152.26Z" />
                    <path class="cls-4" d="M862.98,575.05c46.34-18.76,86.52-33.97,132.87-52.74,5.29,20,1.82,42.16-9.33,59.59,1.63-2.81,5.07-4.46,8.28-3.98-2.04,10.22-7.93,19.62-16.22,25.92,3.17-1.4,6.87-1.56,10.15-.45-2.31,12.04-13.03,21.97-25.21,23.36,2.02-2.29,6.24-.64,7.26,2.24s-.19,6.07-1.74,8.7c-4.63,7.88-12.52,13.76-21.39,15.95-2.41-3.25,5.41-5.52,6.77-1.71s-1.81,7.62-4.71,10.43c-7.13,6.9-15.02,14.18-24.88,15.3,3.3,16.34-13.93,33.11-30.18,29.37,4.87,6.76,9.99,14.36,9.09,22.65-.9,8.28-11.61,15.23-17.79,9.64,2.9,9.18-.21,19.96-7.56,26.19-7.34,6.23-18.48,7.54-27.07,3.19,3.83,8.85,.81,20.14-6.91,25.9-7.73,5.76-19.41,5.43-26.8-.76,2.76,9.2,4,19.8-1.19,27.88-5.19,8.08-18.97,10.48-24.06,2.35,4.3,8.55,1.27,20.09-6.69,25.42-7.95,5.33-19.78,3.75-26.05-3.48,4.85,7.95-3.3,18.68-12.53,19.96s-18.08-3.53-26.15-8.18c3.52,20.77-27.98,26.16-28.58,17.89,.54,7.44-5.16,14.83-12.49,16.19-7.34,1.36-15.31-3.48-17.48-10.62-2.21,10.31-5.94,20.29-11.03,29.52-6.03-4.21-12.05-8.42-18.08-12.63,3.39,8.97-1.75,20.22-10.75,23.53-9,3.31-20.2-1.91-23.45-10.94-5.99,7.78-11.99,15.57-17.98,23.35-6.45-2.14-12.06-6.7-15.48-12.56-.91,9.55-4.54,19.67-12.77,24.59-8.23,4.92-21.41,1.27-23.06-8.17-4.43,6.45-9.42,13.21-16.81,15.76s-17.5-1.71-17.81-9.52c.45,8.25-5.89,16.34-14.02,17.87-8.12,1.53-16.97-3.71-19.55-11.56-1.15,7.49-5.65,14.94-12.81,17.43-7.16,2.49-16.54-1.94-17.4-9.47-6.65,16.05-34.49,15.51-40.51-.79-5.08,4.97-24.19,20.7-31.97,18.24-12.42-3.91-5.91-17.36-.1-24.5,26.3-32.34,50.03-67.85,76.33-100.18,109.99-64.58,320.79-170.76,427.85-276.19Z" />
                    <path class="cls-3" d="M854.11,562.65c-119.74,123.73-274.13,205.15-430.43,277.39,4.83,4.15,8.97,9.18,13.81,13.33,20.3-6.17,39.36-16.91,58.24-26.6,88.2-45.22,176.94-90.78,255.69-150.96,19.49-14.89,38.31-30.64,57.09-46.42,20.87-17.54,38.05-32.83,54.47-54.35l-8.87-12.4Z" />
                </g>
                <g id="Right-Suitcase">
                    <rect class="cls-17" x="605" y="735.2" width="439.9" height="295.69" rx="35.65" ry="35.65" transform="translate(-276.52 385.98) rotate(-22.66)" />
                    <path class="cls-22" d="M695.37,776.95l-9.19-22.01c-3.1-7.42-2.43-15.98,1.83-23.47,3.66-6.43,9.69-11.65,16.99-14.69l86.05-35.92c16.6-6.93,34.33-1.02,40.37,13.45l9.19,22.01-25.84,10.79-8.77-21c-.8-.17-2.34-.17-4.17,.6l-86.05,35.92c-1.83,.76-2.91,1.86-3.35,2.54l8.77,21-25.84,10.79Z" />
                    <g>
                        <circle class="cls-7" cx="901.64" cy="900.34" r="47.9" />
                        <g id="OpenNMS_Logo-Mark_Full-color">
                            <g id="Layer_2-2">
                                <g id="Logos">
                                    <path class="cls-1" d="M884.04,906.12c-5.85-6.41-10.83-12.76-14.37-18.37-1.44-2.23-2.72-4.56-3.83-6.98-8.16,15.26-5.99,33.99,5.45,46.97,.48-4.47,5.23-12.49,12.74-21.63Z" />
                                    <path class="cls-34" d="M896.62,918.7c-9.14,7.51-17.15,12.26-21.62,12.74,12.99,11.44,31.71,13.61,46.97,5.45-3-1.33-6.35-3.29-10.11-5.89-5.35-3.76-10.44-7.87-15.24-12.3Z" />
                                    <path class="cls-32" d="M908.18,881.99c9.14-7.51,17.15-12.26,21.62-12.74-12.99-11.44-31.71-13.61-46.97-5.45,3,1.33,6.35,3.29,10.11,5.89,5.35,3.76,10.44,7.87,15.24,12.3Z" />
                                    <path class="cls-33" d="M933.49,872.94c-.48,4.46-5.23,12.48-12.74,21.62,5.85,6.41,10.83,12.76,14.37,18.37,1.44,2.23,2.71,4.56,3.82,6.98,8.16-15.26,5.99-33.98-5.45-46.96Z" />
                                    <path class="cls-36" d="M902.4,886.98h0c-14.25-12.88-27.11-20.27-30.38-17.01-3.78,3.79,6.75,20.45,23.53,37.23,2.3,2.3,4.59,4.47,6.85,6.52v-26.73Z" />
                                    <path class="cls-35" d="M915.76,900.34h0c-2.04,2.26-4.22,4.55-6.52,6.85s-4.59,4.48-6.85,6.52c14.25,12.87,27.11,20.27,30.38,17.01s-4.13-16.13-17.01-30.38Z" />
                                </g>
                            </g>
                        </g>
                    </g>
                    <g>
                        <path class="cls-5" d="M719.34,884.4c-11.55,0-20.21-3.98-24.37-11.2-4.35-7.53-3.22-17.44,3.19-27.88,6-9.79,16.05-19.07,28.29-26.14,12.79-7.38,26.34-11.45,38.15-11.45s20.21,3.98,24.38,11.2c4.35,7.53,3.22,17.44-3.19,27.88-6,9.79-16.05,19.07-28.29,26.14-12.79,7.39-26.34,11.45-38.15,11.45Z" />
                        <path class="cls-7" d="M764.6,811.23c9.85,0,17.7,3.13,21.34,9.45,7.6,13.17-5.92,35.22-30.2,49.24-12.64,7.3-25.7,10.98-36.4,10.98-9.85,0-17.7-3.13-21.34-9.45-7.6-13.17,5.92-35.22,30.2-49.24,12.64-7.3,25.7-10.98,36.4-10.98m0-7h0c-12.41,0-26.58,4.23-39.9,11.92-12.74,7.35-23.22,17.06-29.53,27.34-7.11,11.59-8.26,22.76-3.24,31.46,4.82,8.35,14.55,12.95,27.41,12.95s26.58-4.23,39.9-11.92c12.74-7.35,23.22-17.06,29.53-27.34,7.11-11.59,8.26-22.76,3.24-31.46-4.82-8.35-14.55-12.95-27.4-12.95h0Z" />
                    </g>
                    <g>
                        <path class="cls-15" d="M748.15,1000.46v-3.5c0-3.41-2.77-6.18-6.18-6.18h-3.5v-35.62h3.5c3.41,0,6.18-2.77,6.18-6.18v-3.5h59.89v3.5c0,3.41,2.77,6.18,6.18,6.18h3.5v35.62h-3.5c-3.41,0-6.18,2.77-6.18,6.18v3.5h-59.89Z" />
                        <path class="cls-7" d="M804.54,948.98c0,5.35,4.33,9.68,9.68,9.68v28.62c-5.35,0-9.68,4.33-9.68,9.68h-52.89c0-5.35-4.33-9.68-9.68-9.68v-28.62c5.35,0,9.68-4.33,9.68-9.68h52.89m7-7h-66.89v7c0,1.48-1.2,2.68-2.68,2.68h-7v42.62h7c1.48,0,2.68,1.2,2.68,2.68v7h66.89v-7c0-1.48,1.2-2.68,2.68-2.68h7v-42.62h-7c-1.48,0-2.68-1.2-2.68-2.68v-7h0Z" />
                    </g>
                    <g>
                        <rect class="cls-10" x="849.74" y="741.94" width="105.31" height="49.35" transform="translate(-165.3 254.72) rotate(-14.73)" />
                        <path class="cls-7" d="M944.55,733.63l10.77,40.96-95.08,25.01-10.77-40.96,95.08-25.01m4.99-8.55l-6.77,1.78-95.08,25.01-6.77,1.78,1.78,6.77,10.77,40.96,1.78,6.77,6.77-1.78,95.08-25.01,6.77-1.78-1.78-6.77-10.77-40.96-1.78-6.77h0Z" />
                    </g>
                    <g>
                        <rect class="cls-9" x="690.79" y="778.4" width="40.51" height="304.39" rx="5.25" ry="5.25" transform="translate(-303.63 345.77) rotate(-22.66)" />
                        <path class="cls-30" d="M726.07,914.01l-37.38,15.61,15.72,37.66c.19,.09,.37,.18,.56,.26l17.21,6.93c5.97,2.4,12.72-.74,14.72-6.86l5.07-15.52-15.9-38.08Z" />
                        <path class="cls-9" d="M725.81,914.12l-36.85,15.39,11.09,26.56c.99,2.37,2.88,4.24,5.26,5.2l14.85,5.98c5.15,2.07,10.97-.64,12.7-5.92l4.45-13.64c.71-2.18,.62-4.55-.27-6.67l-11.23-26.9Z" />
                        <rect class="cls-27" x="679.32" y="882.87" width="40.51" height="40.51" rx="3.57" ry="3.57" transform="translate(-293.93 339.23) rotate(-22.66)" />
                        <line class="cls-25" x1="699.58" y1="903.12" x2="706.81" y2="922.05" />
                    </g>
                    <g>
                        <rect class="cls-9" x="918.26" y="683.44" width="40.51" height="304.39" rx="5.25" ry="5.25" transform="translate(-249.49 426.07) rotate(-22.66)" />
                        <path class="cls-30" d="M953.54,819.05l-37.38,15.61,15.72,37.66c.19,.09,.37,.18,.56,.26l17.21,6.93c5.97,2.4,12.72-.74,14.72-6.86l5.07-15.52-15.9-38.08Z" />
                        <path class="cls-9" d="M953.27,819.16l-36.85,15.39,11.09,26.56c.99,2.37,2.88,4.24,5.26,5.2l14.85,5.98c5.15,2.07,10.97-.64,12.7-5.92l4.45-13.64c.71-2.18,.62-4.55-.27-6.67l-11.23-26.9Z" />
                        <rect class="cls-27" x="906.79" y="787.91" width="40.51" height="40.51" rx="3.57" ry="3.57" transform="translate(-239.79 419.53) rotate(-22.66)" />
                        <line class="cls-25" x1="927.04" y1="808.16" x2="934.28" y2="827.09" />
                    </g>
                </g>
                <g id="Right_wing">
                    <path class="cls-29" d="M625.51,660.06c-12.44,1.61-26.23,3.32-38.2,6.53-5.4,1.45-4.65,2.13-3.08,8.29,5.31,20.88,22.06,40.89,37.04,56.12,17.1,17.39,33.52,23.26,56.62,31.13,25.68,8.76,57.75,12.73,84.16,4.84,2.75-.82,5.62-1.9,7.37-4.18,2.42-3.15,.35-5.94-1.06-9.62,9.65,1.06,20.68-.54,29.07-3.64,8.67-3.2,14.87-6.73,22.14-12.52,5.46-4.34,9.73-10.17,10.79-17.18,.56-3.69-.33-6.45-1.95-9.83-.93-1.94-3.99-8.65-6.28-9.16,3.05,.68,6.02-2.09,6.66-5.15s-.42-6.2-1.62-9.09c-6.16-14.88-11.31-19.84-20.15-33.15-8.81-13.26-17.23-28.24-28.08-43.78-1.49-2.13-1.24,.22-3.54-.97-5.75-2.97-10.43,2.28-15.09,4.68-5.48,2.83-11.69,4.95-17.34,7.6-13.61,6.38-27.2,12.82-41.01,18.75-11.41,4.91-22.71,10.69-34.9,12.7-13.91,2.29-27.53,5.8-41.57,7.62Z" />
                    <path class="cls-12" d="M575.99,668.11c19.28,24.43,42.08,46.58,69.38,61.51,15.74,8.61,32.98,14.66,50.77,17.16,8.37,1.18,16.87,1.4,25.3,.81,4.29-.3,8.56-.79,12.81-1.44,3.71-.57,7.76-.96,11.01-2.99,1.1-.69,1.93-1.99,1.65-3.26-.25-1.15-1.29-1.94-2.26-2.62-4.8-3.38-9.98-6.53-14.49-10.28,2.36-.65,6.19,1.3,8.63,1.86,3.38,.78,6.81,1.37,10.26,1.78,6.7,.79,13.5,.88,20.21,.22,13.39-1.32,26.52-5.67,37.68-13.25,2.4-1.63,4.97-4.02,4.52-6.89-.31-1.98-1.99-3.42-3.55-4.68-8.02-6.45-16.48-12.43-23.66-19.85,7.09,4.26,9.86,5.14,12.13,6,4.9,1.85,18.66,6.04,17.8-3.06-.18-1.93-1.03-3.72-1.87-5.46-6.13-12.62-12.22-26.74-18.9-39.41-7.45-14.13-12.83-25.92-15.48-41.52" />
                </g>
                <g id="Left-Fishing">
                    <path class="cls-13" d="M16.42,141.89c112.89,165.12,200.01,348.36,252.41,541.78,1.95,7.2-2.31,14.61-9.51,16.56-7.2,1.95-14.61-2.31-16.56-9.51C194.84,498.8,112.19,315.87,3.75,150.38c-5.12-8.26,6.42-16.71,12.68-8.49h0Z" />
                    <path class="cls-16" d="M311.92,791.59l-36.83,11.44c-4.51,1.4-9.38-1.48-10.77-6.37l-37.93-133.44c-1.34-4.72,1.05-9.55,5.4-10.9l28.9-8.98c4.31-1.34,8.99,1.23,10.59,5.82l45.86,130.98c1.7,4.84-.68,10.04-5.22,11.46Z" />
                    <g>
                        <circle class="cls-13" cx="198.81" cy="677.17" r="45.89" />
                        <path class="cls-19" d="M191.22,704.76c-.63-5.77,3.55-10.95,9.32-11.56h0c5.76-.62,10.94,3.56,11.55,9.32h0c.62,5.76-3.56,10.94-9.32,11.56h0c-1.12,.12-2.21,.05-3.24-.16h0c-4.35-.9-7.81-4.51-8.31-9.16Zm-26.26-12.38h0c-2.38-5.29-.02-11.5,5.27-13.88h0c5.29-2.38,11.5-.02,13.88,5.27h0c2.38,5.28,.02,11.5-5.26,13.88h0c-2.1,.94-4.34,1.14-6.43,.7h0c-3.19-.66-6.02-2.78-7.47-5.97Zm57.72,.56c-5.68-1.19-9.3-6.77-8.11-12.44h0v-.03h0v-.04h0c1.17-5.68,6.73-9.33,12.41-8.16h0c5.68,1.17,9.33,6.73,8.16,12.41h0v.04h0l-.02,.12h0c-1.19,5.66-6.74,9.28-12.4,8.11h-.04Zm-49.53-28.43c-3.89-4.3-3.57-10.94,.74-14.83h0c4.3-3.9,10.94-3.57,14.83,.73h0c3.89,4.3,3.56,10.94-.74,14.84h0c-2.58,2.34-6.01,3.15-9.17,2.49h0c-2.11-.44-4.1-1.52-5.65-3.23Zm33.66-1.34c-5.03-2.88-6.79-9.29-3.91-14.33h0c2.88-5.03,9.29-6.79,14.33-3.91h0c5.03,2.87,6.78,9.28,3.91,14.33h0c-2.32,4.04-6.91,5.97-11.24,5.08h0c-1.06-.22-2.1-.61-3.09-1.17Z" />
                        <path class="cls-21" d="M245.99,748.25c-2.72,0-5.4-1.23-7.17-3.56l-47.17-62.08c-3.01-3.96-2.24-9.6,1.72-12.61,3.96-3.01,9.6-2.24,12.61,1.72l47.17,62.08c3.01,3.96,2.24,9.6-1.72,12.61-1.63,1.24-3.54,1.83-5.44,1.83Z" />
                        <path class="cls-21" d="M232.34,735.99l29.09-22.05c4.26-3.23,10.34-2.39,13.57,1.87l1.47,1.93c3.23,4.26,2.39,10.34-1.87,13.57l-19.56,14.82c-5.5,4.17-13.34,3.09-17.51-2.41l-5.19-7.74Z" />
                    </g>
                    <path class="cls-24" d="M228.69,636.35c-33.87-21.56-50.04-73.72-37.19-111.76-43.48-25.78-66.49-81.82-53.7-130.72-40.3-29.15-66.97-77.28-62.79-126.84C26.72,248.64,3.02,193.02,4.75,142.15-.67,287.61-1.62,371.27,36.33,511.81c19.51,72.23,44.66,143.17,57.02,216.96,12.37,73.79,11.13,152.28-20.51,220.09" />
                    <g id="fish">
                        <path class="cls-11" d="M77.38,1009.52c7.55,13.89,12.78,28.62,15.56,43.56,2.29,12.3,4.48,26.04,2.85,38.52-.59,4.51-3.05,9.04-7.21,10.85-8.53,3.71-30.11,1.79-35.75-6.32-.84-1.2-4.26-8.08-3.54-9.35-2.26,3.96-6.26,7.52-11.61,8.1-5.35,.58-10.84-.76-16.1-2.22-5.9-1.64-12.13-3.7-15.91-8.03-5.81-6.65-3.63-15.78-.55-23.26,9.68-23.44,25.61-44.63,46.27-61.54,9.25,2.52,17.43,5.58,25.99,9.68Z" />
                        <path class="cls-11" d="M150.89,972.04c1.72,5.78,3.15,12.17,.74,17.7-2.62,6.01-9.05,9.35-15.22,11.56-8.01,2.87-16.41,4.65-24.89,5.29-3.8,.28-8.11,.15-10.74-2.6-3.02-3.15-2.46-8.17-1.64-12.45,2.34-12.17,5.21-24.23,8.6-36.14,2.58-9.04,4.73-25.65,13.33-31.22,9.74-6.3,14.49,9.8,17.74,16.57,4.85,10.09,8.89,20.57,12.07,31.3Z" />
                        <path class="cls-23" d="M45.06,1027.14c-10.67,18.47-23.76,46.66-23.76,46.66" />
                        <path class="cls-23" d="M58,1033.62c-2.56,12.57-5.12,25.14-7.68,37.71" />
                        <path class="cls-23" d="M72.02,1028.51c2.68,20,4.29,38.58-1.26,58.25" />
                        <path class="cls-14" d="M126.32,964.07c7.67-30.83,3.61-62.18-9.56-90.39-6.88-14.72-25.49-19.35-38.46-9.56-24.86,18.75-43.12,44.56-50.78,75.38-9.02,36.28-1.81,73.28,17.4,105.04,3.49,5.78,11.05,7.66,16.84,4.19,31.85-19.06,55.55-48.38,64.57-84.66Z" />
                        <path class="cls-26" d="M46.58,915.45c-2.3,7.4,.22,16.07,6.14,21.08,5.92,5.01,14.88,6.07,21.81,2.58,1.93,6.35,7.65,11.39,14.2,12.5s13.61-1.75,17.54-7.1" />
                        <path class="cls-26" d="M54.24,962.36c-2.02,6.61,.94,14.4,6.84,18s14.18,2.67,19.13-2.14c1.58,3.64,4.8,6.53,8.59,7.7,3.79,1.17,8.08,.61,11.44-1.5" />
                        <path class="cls-26" d="M40.95,993.2c-.94,5.91,2.2,12.25,7.47,15.1,5.27,2.84,12.29,1.98,16.72-2.05" />
                        <g>
                            <path class="cls-18" d="M95.92,913.79c-.97,0-1.95-.12-2.91-.36-6.42-1.6-10.34-8.12-8.75-14.54,1.33-5.36,6.11-9.1,11.63-9.1,.97,0,1.95,.12,2.91,.36,3.11,.77,5.73,2.71,7.38,5.46s2.14,5.97,1.36,9.08c-1.33,5.36-6.11,9.1-11.63,9.1Z" />
                            <path class="cls-7" d="M95.9,891.79h0c.81,0,1.63,.1,2.42,.3,2.59,.64,4.78,2.26,6.15,4.55,1.38,2.29,1.78,4.97,1.14,7.56-1.11,4.47-5.09,7.59-9.69,7.59-.81,0-1.63-.1-2.42-.3-5.35-1.33-8.62-6.76-7.29-12.11,1.11-4.47,5.09-7.59,9.69-7.59m0-4c-6.28,0-11.99,4.25-13.57,10.62-1.87,7.5,2.7,15.09,10.2,16.96,1.13,.28,2.27,.42,3.39,.42,6.28,0,11.99-4.25,13.57-10.62,1.87-7.5-2.7-15.09-10.2-16.96-1.13-.28-2.27-.42-3.39-.42h0Z" />
                        </g>
                    </g>
                </g>
                <g id="beak">
                    <path class="cls-8" d="M424.24,444.86c-2.84-13.22-15.85-21.64-29.07-18.8-66.79,14.32-119.49,27.07-184.32,48.45-67.41,22.23-97.17,50.91-109.23,66.75-2.82,3.71,.98,8.81,5.34,7.17,26.21-9.87,52.03-20.79,78.71-29.37,37.12-11.94,176.78-39.02,216.67-44.65,14.47-2.04,25.08-15.25,21.91-29.53Z" />
                </g>
            </g>
        </g>
    </g>
</svg>