<?xml version="1.0" encoding="UTF-8"?>
<svg xmlns="http://www.w3.org/2000/svg" xmlns:xlink="http://www.w3.org/1999/xlink" width="48px" height="px" viewBox="0 0 47 44" version="1.1">
<defs>
<filter id="alpha" filterUnits="objectBoundingBox" x="0%" y="0%" width="100%" height="100%">
  <feColorMatrix type="matrix" in="SourceGraphic" values="0 0 0 0 1 0 0 0 0 1 0 0 0 0 1 0 0 0 1 0"/>
</filter>
<mask id="mask0">
  <g filter="url(#alpha)">
<rect x="0" y="0" width="47" height="44" style="fill:rgb(0%,0%,0%);fill-opacity:0.101961;stroke:none;"/>
  </g>
</mask>
<clipPath id="clip1">
  <rect x="0" y="0" width="47" height="44"/>
</clipPath>
<g id="surface5" clip-path="url(#clip1)">
<path style=" stroke:none;fill-rule:nonzero;fill:rgb(3.921569%,4.705882%,10.588235%);fill-opacity:1;" d="M 4.5 9.585938 C 3.097656 12.222656 3.523438 16.109375 3.5625 18.988281 C 3.609375 22.855469 5.023438 26.6875 7.207031 29.816406 C 9.464844 33.046875 12.484375 35.144531 16.09375 36.527344 C 17.773438 37.171875 19.703125 37.882812 21.527344 37.8125 C 21.988281 37.796875 22.722656 37.566406 23.140625 37.8125 C 23.285156 37.902344 23.390625 38.042969 23.492188 38.183594 C 24.039062 38.96875 24.324219 39.617188 24.699219 40.503906 C 25.222656 41.75 26.898438 42.488281 27.984375 42.347656 C 29.109375 42.199219 29.859375 41.527344 30.207031 40.445312 C 30.636719 39.109375 30.96875 37.664062 30.8125 36.25 C 30.941406 37.050781 31.253906 37.820312 31.71875 38.476562 C 32.113281 39.03125 32.898438 39.640625 33.523438 39.898438 C 34.492188 40.296875 35.703125 40.121094 36.53125 39.484375 C 36.980469 39.136719 37.328125 38.652344 37.53125 38.113281 C 37.792969 37.414062 38.054688 36.777344 38.085938 36.007812 C 38.117188 35.347656 38.035156 34.6875 37.957031 34.03125 C 38.074219 34.976562 38.542969 36.296875 39.261719 36.9375 C 39.929688 37.527344 40.777344 38.3125 41.703125 38.386719 C 42.910156 38.480469 44.136719 37.710938 44.675781 36.617188 C 45.128906 35.699219 45.175781 33.417969 45.160156 33.367188 C 45.546875 34.703125 45.992188 35.847656 45.492188 37.09375 C 44.957031 38.4375 44.214844 39.15625 43.003906 39.519531 C 41.296875 40 39.527344 39.179688 38.730469 37.632812 C 38.695312 37.5625 38.589844 37.597656 38.597656 37.675781 C 38.753906 39.4375 37.679688 41.125 35.953125 41.648438 C 34.226562 42.167969 32.421875 41.347656 31.613281 39.78125 C 31.578125 39.707031 31.46875 39.738281 31.480469 39.820312 C 31.640625 41.613281 30.492188 43.296875 28.707031 43.835938 C 26.398438 44.53125 24.691406 42.882812 24.214844 41.121094 C 23.960938 41.210938 23.703125 41.292969 23.445312 41.371094 C 13.253906 44.449219 3.964844 38.566406 0.949219 28.167969 C 0.0390625 25.050781 -0.261719 21.71875 0.269531 18.496094 C 0.75 15.597656 2.0625 12.179688 4.5 9.585938 Z M 4.5 9.585938 "/>
</g>
</defs>
<g id="surface1">
<path style=" stroke:none;fill-rule:nonzero;fill:rgb(91.372549%,92.156863%,97.647059%);fill-opacity:1;" d="M 12.976562 3.085938 C 23.902344 -1.714844 37.800781 -2.164062 44.941406 10.933594 C 44.945312 10.945312 44.953125 10.957031 44.960938 10.96875 C 45.453125 11.96875 45.863281 13.011719 46.179688 14.082031 C 47.5625 18.75 47.128906 23.53125 45.296875 27.640625 C 44.605469 29.195312 44.453125 30.941406 44.925781 32.578125 L 45.546875 34.707031 C 46.136719 36.742188 45.003906 38.960938 43 39.523438 C 41.292969 40.003906 39.523438 39.183594 38.726562 37.636719 C 38.691406 37.566406 38.585938 37.601562 38.59375 37.679688 C 38.75 39.441406 37.675781 41.128906 35.949219 41.652344 C 34.21875 42.171875 32.417969 41.351562 31.609375 39.785156 C 31.574219 39.710938 31.464844 39.742188 31.476562 39.824219 C 31.636719 41.621094 30.488281 43.300781 28.703125 43.839844 C 26.394531 44.535156 24.6875 42.886719 24.210938 41.125 C 23.957031 41.214844 23.699219 41.296875 23.441406 41.375 C 13.246094 44.453125 3.960938 38.570312 0.945312 28.175781 C -0.820312 22.09375 -0.191406 15.582031 3.667969 10.609375 C 6.144531 7.417969 9.320312 4.691406 12.976562 3.085938 Z M 12.976562 3.085938 "/>
<use xlink:href="#surface5" mask="url(#mask0)"/>
<path style=" stroke:none;fill-rule:nonzero;fill:rgb(70.588235%,71.372549%,78.431373%);fill-opacity:1;" d="M 23.28125 37.636719 C 23.230469 37.449219 23.175781 37.253906 23.046875 37.109375 C 22.761719 36.796875 22.269531 36.859375 21.851562 36.90625 C 21.105469 36.992188 20.328125 36.933594 19.628906 36.648438 C 18.929688 36.359375 18.3125 35.824219 18.003906 35.121094 C 17.914062 35.882812 18.292969 36.652344 18.882812 37.132812 C 19.472656 37.609375 20.234375 37.820312 20.988281 37.832031 C 21.316406 37.839844 21.679688 37.820312 21.9375 38.03125 C 22.105469 38.167969 22.195312 38.378906 22.273438 38.578125 C 22.691406 39.648438 23.136719 41.457031 23.144531 41.460938 C 23.144531 41.460938 23.882812 41.25 24.214844 41.125 C 24.015625 40.503906 23.472656 38.3125 23.285156 37.636719 Z M 23.28125 37.636719 "/>
<path style=" stroke:none;fill-rule:nonzero;fill:rgb(28.627451%,29.803922%,40.392157%);fill-opacity:1;" d="M 26.828125 22.675781 C 26.816406 23.832031 26.609375 24.921875 26.132812 25.742188 C 23.894531 29.609375 16.824219 29.1875 16.53125 24.183594 C 16.390625 21.785156 17.339844 19.277344 19.011719 17.585938 C 20.636719 15.941406 23.738281 14.59375 25.335938 17 C 26.226562 18.34375 26.847656 20.617188 26.828125 22.675781 Z M 26.828125 22.675781 "/>
<path style=" stroke:none;fill-rule:nonzero;fill:rgb(28.627451%,29.803922%,40.392157%);fill-opacity:1;" d="M 43.035156 14.621094 C 41.335938 12.710938 37.621094 10.921875 35.230469 12.464844 C 33.277344 13.722656 34.023438 16.246094 34.550781 18.003906 C 34.976562 19.410156 35.582031 20.808594 36.726562 21.761719 C 39.726562 24.253906 45.585938 22.765625 44.710938 18.089844 C 44.449219 16.714844 43.859375 15.550781 43.035156 14.621094 Z M 43.035156 14.621094 "/>
<path style=" stroke:none;fill-rule:nonzero;fill:rgb(28.627451%,29.803922%,40.392157%);fill-opacity:1;" d="M 35.1875 25.238281 C 34.96875 25.039062 34.738281 24.855469 34.507812 24.691406 C 33.816406 24.191406 32.902344 23.550781 32.015625 23.84375 C 31.640625 23.96875 31.34375 24.257812 31.09375 24.566406 C 30.421875 25.390625 29.78125 26.46875 29.640625 27.53125 C 29.496094 28.570312 29.8125 29.910156 31.113281 30.042969 C 31.625 30.09375 32.195312 29.875 32.554688 29.5 C 32.691406 29.351562 33.324219 28.402344 33.152344 28.214844 C 33.511719 28.605469 34.117188 29.0625 34.640625 29.101562 C 35.171875 29.144531 35.691406 28.828125 36.003906 28.40625 C 36.316406 27.976562 36.457031 27.367188 36.296875 26.851562 C 36.105469 26.21875 35.679688 25.683594 35.1875 25.238281 Z M 35.1875 25.238281 "/>
<path style=" stroke:none;fill-rule:nonzero;fill:rgb(70.588235%,71.372549%,78.431373%);fill-opacity:1;" d="M 12.84375 10.144531 C 12.835938 10.746094 12.695312 11.347656 12.394531 11.867188 C 11.203125 13.9375 8.988281 12.796875 7.308594 13.515625 C 6.507812 13.859375 5.9375 14.574219 5.398438 15.265625 L 4.882812 15.929688 C 4.722656 16.136719 5.003906 16.398438 5.191406 16.21875 L 5.507812 15.917969 C 6.179688 15.269531 6.882812 14.605469 7.761719 14.296875 C 8.597656 14 9.511719 14.0625 10.394531 14.125 C 10.546875 14.136719 10.714844 14.15625 10.8125 14.273438 C 10.894531 14.371094 10.902344 14.511719 10.90625 14.640625 C 10.941406 15.703125 10.867188 16.789062 11.128906 17.820312 C 11.324219 18.597656 11.707031 19.371094 11.957031 20.140625 C 12.039062 20.398438 12.417969 20.292969 12.359375 20.027344 C 12.300781 19.777344 12.226562 19.527344 12.148438 19.296875 C 11.933594 18.625 11.71875 17.972656 11.558594 17.199219 C 11.449219 16.664062 11.445312 16.109375 11.582031 15.578125 C 11.824219 14.660156 12.214844 14.519531 12.605469 13.824219 C 12.664062 13.714844 12.808594 13.417969 12.851562 13.300781 C 13.46875 11.625 13.5 9.394531 12.808594 7.507812 C 12.714844 7.246094 12.328125 7.359375 12.386719 7.628906 C 12.59375 8.554688 12.851562 9.195312 12.839844 10.148438 Z M 12.84375 10.144531 "/>
</g>
</svg>
