<?xml version="1.0" encoding="UTF-8"?>
<svg xmlns="http://www.w3.org/2000/svg" xmlns:xlink="http://www.w3.org/1999/xlink" width="48px" height="px" viewBox="0 0 48 49" version="1.1">
<defs>
<filter id="alpha" filterUnits="objectBoundingBox" x="0%" y="0%" width="100%" height="100%">
  <feColorMatrix type="matrix" in="SourceGraphic" values="0 0 0 0 1 0 0 0 0 1 0 0 0 0 1 0 0 0 1 0"/>
</filter>
<mask id="mask0">
  <g filter="url(#alpha)">
<rect x="0" y="0" width="48" height="49" style="fill:rgb(0%,0%,0%);fill-opacity:0.121569;stroke:none;"/>
  </g>
</mask>
<clipPath id="clip1">
  <rect x="0" y="0" width="48" height="49"/>
</clipPath>
<g id="surface5" clip-path="url(#clip1)">
<path style=" stroke:none;fill-rule:nonzero;fill:rgb(0%,0%,0%);fill-opacity:1;" d="M 18.515625 13.449219 C 18.773438 14.414062 18.113281 16.679688 17.847656 17.824219 C 17.476562 19.433594 17.511719 21.015625 17.628906 21.714844 C 17.964844 20.375 18.371094 19.050781 18.84375 17.746094 C 19.214844 16.714844 19.628906 14.808594 20.410156 14.015625 C 21.757812 12.65625 22.792969 15.316406 22.539062 16.382812 C 22.855469 15.0625 23.773438 12.300781 25.539062 12.453125 C 26.777344 12.5625 27.421875 13.871094 27.800781 14.863281 C 28.414062 16.460938 29.355469 20.316406 29.40625 20.582031 C 29.570312 19.464844 29.316406 18.472656 29.164062 17.355469 C 28.972656 15.980469 28.167969 13.558594 29.441406 12.492188 C 30.09375 11.945312 30.792969 12.113281 31.527344 12.34375 C 32.902344 12.773438 34.210938 13.527344 35.210938 14.570312 C 35.238281 13.644531 34.609375 12.796875 33.824219 12.304688 C 33.316406 11.984375 32.722656 11.664062 32.132812 11.535156 C 31.511719 11.402344 30.992188 11.417969 30.429688 11.023438 C 31.335938 10.953125 32.246094 10.878906 33.15625 10.804688 C 31.359375 10.335938 29.488281 10.097656 27.632812 10.140625 C 25.777344 10.179688 24.105469 9.859375 22.328125 10.039062 C 20.878906 10.183594 19.488281 10.550781 18.128906 11.070312 C 17.769531 11.207031 17.355469 11.25 17.011719 11.414062 C 16.664062 11.574219 15.175781 11.945312 14.871094 12.1875 C 14.21875 12.703125 13.617188 13.292969 13.113281 13.957031 C 12.355469 14.960938 11.824219 16.148438 11.6875 17.394531 C 11.800781 16.351562 13.328125 14.824219 14.105469 14.15625 C 15.117188 13.289062 16.746094 12.242188 18.042969 13.007812 C 18.25 13.128906 18.464844 13.253906 18.519531 13.449219 Z M 18.515625 13.449219 "/>
</g>
<mask id="mask1">
  <g filter="url(#alpha)">
<rect x="0" y="0" width="48" height="49" style="fill:rgb(0%,0%,0%);fill-opacity:0.121569;stroke:none;"/>
  </g>
</mask>
<clipPath id="clip2">
  <rect x="0" y="0" width="48" height="49"/>
</clipPath>
<g id="surface8" clip-path="url(#clip2)">
<path style=" stroke:none;fill-rule:nonzero;fill:rgb(0%,0%,0%);fill-opacity:1;" d="M 30.984375 30.820312 C 30.972656 30.460938 30.953125 30.101562 30.929688 29.738281 C 30.972656 30.371094 31.425781 31.148438 31.585938 31.777344 C 31.769531 32.511719 31.902344 33.261719 31.984375 34.015625 C 32.132812 35.371094 32.390625 36.632812 32.410156 38.023438 C 32.429688 39.214844 32.410156 39.769531 33.238281 40.675781 C 33.902344 41.402344 34.699219 41.933594 35.714844 41.917969 C 40.769531 41.835938 41.128906 35.738281 40.144531 32.085938 C 40.59375 32.8125 40.957031 33.597656 41.21875 34.414062 C 41.398438 34.980469 41.535156 35.570312 41.800781 36.101562 C 42.820312 38.148438 44.472656 37.289062 45.558594 35.828125 C 47.230469 33.589844 48.078125 30.753906 47.917969 27.964844 C 48.152344 32.015625 47.554688 36.316406 45.4375 39.871094 C 44.449219 41.539062 42.882812 42.375 40.984375 42.632812 C 40.65625 42.679688 40.457031 42.792969 40.289062 43.105469 C 38.441406 46.535156 34.785156 47.78125 31.1875 46.226562 C 31.074219 46.175781 30.957031 46.140625 30.96875 46.144531 C 30.042969 46.816406 29.234375 47.5 28.335938 48.027344 C 25.773438 49.527344 23.269531 49.246094 20.949219 47.496094 C 20.171875 46.910156 19.570312 46.785156 18.601562 47.105469 C 15.339844 48.1875 12.472656 47.425781 10.09375 44.914062 C 9.890625 44.703125 9.570312 44.558594 9.28125 44.476562 C 2.5 42.59375 0.015625 34.621094 0.015625 28.277344 C 0.015625 26.160156 0.347656 23.597656 1.007812 21.550781 C 0.882812 22.136719 1.046875 23.257812 1.085938 23.816406 C 1.453125 28.996094 2.578125 34.0625 6.472656 37.660156 C 6.632812 37.808594 6.796875 37.949219 6.964844 38.085938 C 7.363281 38.398438 7.824219 38.6875 8.332031 38.679688 C 9.824219 38.667969 9.453125 35.78125 9.394531 34.855469 C 9.328125 33.714844 9.378906 32.511719 9.964844 31.53125 C 9.863281 34.371094 9.933594 37.316406 11.78125 39.628906 C 12.621094 40.683594 13.742188 41.515625 15 42.011719 C 16.058594 42.433594 17.472656 43.039062 18.28125 41.886719 C 18.847656 41.078125 18.460938 40.105469 18.316406 39.226562 C 17.6875 35.371094 17.355469 31.433594 17.898438 27.546875 C 17.867188 30.234375 18.21875 32.867188 18.917969 35.453125 C 19.445312 37.390625 20.125 39.609375 21.363281 41.222656 C 22.609375 42.851562 24.335938 43.582031 26.328125 43.34375 C 27.441406 43.210938 28.492188 42.644531 29.246094 41.820312 C 30.5 40.449219 30.570312 37.917969 30.773438 36.136719 C 30.976562 34.375 31.046875 32.597656 30.988281 30.824219 Z M 30.984375 30.820312 "/>
</g>
</defs>
<g id="surface1">
<path style=" stroke:none;fill-rule:nonzero;fill:rgb(97.647059%,38.823529%,15.686275%);fill-opacity:1;" d="M 22.292969 10.488281 C 26.550781 7.101562 32.621094 9.128906 34.3125 10.683594 C 34.636719 10.984375 35.332031 10.917969 35.859375 10.949219 C 38.050781 11.082031 40.167969 11.449219 41.769531 13.109375 C 44.523438 15.964844 46.960938 19.6875 47.546875 23.667969 C 48.335938 29.015625 48.28125 35.09375 45.441406 39.875 C 44.449219 41.542969 42.882812 42.378906 40.988281 42.636719 C 40.65625 42.679688 40.457031 42.796875 40.289062 43.105469 C 38.441406 46.539062 34.785156 47.785156 31.1875 46.226562 C 31.074219 46.179688 30.957031 46.144531 30.972656 46.148438 C 30.042969 46.820312 29.234375 47.5 28.335938 48.027344 C 25.773438 49.53125 23.269531 49.246094 20.949219 47.5 C 20.175781 46.914062 19.570312 46.789062 18.601562 47.109375 C 15.339844 48.191406 12.476562 47.429688 10.09375 44.917969 C 9.894531 44.703125 9.574219 44.5625 9.28125 44.480469 C 2.5 42.59375 0.015625 34.621094 0.015625 28.277344 C 0.015625 21.488281 3.210938 12.320312 11.257812 12.007812 C 12.078125 11.976562 12.6875 11.429688 13.367188 11.039062 C 14.351562 10.476562 15.390625 10.164062 16.464844 9.828125 C 17.796875 9.410156 20.386719 9.53125 21.652344 10.175781 C 21.8125 10.257812 21.976562 10.332031 22.296875 10.488281 Z M 22.292969 10.488281 "/>
<use xlink:href="#surface5" mask="url(#mask0)"/>
<use xlink:href="#surface8" mask="url(#mask1)"/>
<path style=" stroke:none;fill-rule:nonzero;fill:rgb(16.862745%,34.901961%,9.803922%);fill-opacity:1;" d="M 37.085938 2.097656 C 36.167969 1.890625 35.304688 1.484375 34.386719 1.292969 C 33.570312 1.125 32.617188 1.082031 31.691406 1.179688 C 31.433594 0.949219 31.136719 0.734375 30.789062 0.527344 C 29.441406 -0.292969 27.65625 -0.0898438 26.28125 0.683594 C 24.90625 1.453125 23.921875 2.359375 23.019531 3.648438 C 21.871094 5.292969 20.863281 7.792969 19.65625 9.375 C 18.519531 10.867188 16.21875 11.699219 14.402344 12.1875 C 15.75 12.289062 17.53125 12.332031 18.792969 11.871094 C 19.441406 11.632812 20.808594 10.957031 21.617188 11.070312 C 22.101562 11.140625 22.207031 12.277344 22.347656 12.746094 C 22.574219 13.511719 22.683594 14.601562 22.960938 15.347656 C 23.320312 14.210938 23.679688 13.074219 24.039062 11.9375 C 24.15625 11.582031 24.285156 11.195312 24.597656 10.984375 C 25.433594 10.410156 26.941406 11.039062 27.863281 11.097656 C 28.484375 11.140625 29.109375 11.125 29.730469 11.0625 C 30.222656 11.007812 30.933594 10.90625 31.332031 10.765625 C 30.011719 10.675781 28.480469 10.117188 27.316406 9.4375 C 26.464844 8.9375 26.042969 7.828125 25.957031 6.925781 C 25.777344 5 26.921875 1.796875 29.246094 1.871094 C 28.890625 2.0625 28.582031 2.292969 28.335938 2.5625 C 26.914062 4.046875 27.132812 6.898438 29.585938 7.308594 C 30.527344 7.46875 31.515625 7.023438 32.113281 6.28125 C 32.710938 5.539062 32.9375 4.546875 32.859375 3.597656 C 32.832031 3.257812 32.773438 2.957031 32.6875 2.679688 C 32.992188 2.664062 33.292969 2.664062 33.5625 2.6875 C 34.664062 2.773438 35.757812 3.035156 36.863281 3.011719 C 37.96875 2.988281 39.152344 2.617188 39.785156 1.710938 C 39.042969 2.285156 38.003906 2.304688 37.085938 2.09375 Z M 30.851562 5.148438 C 30.597656 5.347656 30.265625 5.472656 29.949219 5.414062 C 29.542969 5.34375 29.328125 5.023438 29.308594 4.660156 C 29.34375 3.890625 29.710938 3.589844 29.886719 3.429688 C 30.101562 3.234375 30.507812 3.066406 31 2.9375 C 31.488281 3.648438 31.59375 4.558594 30.851562 5.148438 Z M 30.851562 5.148438 "/>
<path style=" stroke:none;fill-rule:nonzero;fill:rgb(17.647059%,5.490196%,1.960784%);fill-opacity:1;" d="M 39.441406 17.257812 C 39.8125 19.453125 39.585938 21.816406 39.144531 23.820312 C 38.632812 26.121094 37.027344 28.34375 34.722656 28.875 C 33.414062 29.175781 31.84375 28.910156 30.617188 28.367188 C 29.386719 27.824219 28.703125 27.144531 27.75 26.203125 C 27.75 26.203125 30.796875 24.433594 33.574219 22.261719 C 36.527344 19.957031 38.636719 18.179688 39.441406 17.257812 Z M 39.441406 17.257812 "/>
<path style=" stroke:none;fill-rule:nonzero;fill:rgb(100%,67.843137%,29.019608%);fill-opacity:1;" d="M 39.441406 17.257812 C 39.8125 19.453125 39.585938 21.816406 39.144531 23.820312 C 38.632812 26.121094 37.027344 28.34375 34.722656 28.871094 C 34.210938 28.988281 33.6875 29.015625 33.171875 28.988281 C 32.777344 28.964844 32.363281 28.910156 31.964844 28.8125 C 34.609375 28.472656 35.855469 27.296875 36.839844 25.488281 C 37.605469 24.082031 37.632812 21.34375 37.722656 18.867188 C 37.996094 18.679688 38.964844 17.753906 39.441406 17.257812 Z M 39.441406 17.257812 "/>
<path style=" stroke:none;fill-rule:nonzero;fill:rgb(17.647059%,5.490196%,1.960784%);fill-opacity:1;" d="M 7.085938 18.332031 C 6.953125 20.558594 7.425781 22.882812 8.082031 24.828125 C 8.832031 27.0625 10.664062 29.101562 13.011719 29.386719 C 14.347656 29.546875 15.878906 29.117188 17.042969 28.449219 C 18.207031 27.78125 18.8125 27.027344 19.664062 25.992188 C 19.664062 25.992188 16.445312 24.554688 13.449219 22.691406 C 10.269531 20.710938 7.984375 19.164062 7.085938 18.335938 Z M 7.085938 18.332031 "/>
<path style=" stroke:none;fill-rule:nonzero;fill:rgb(17.647059%,5.490196%,1.960784%);fill-opacity:1;" d="M 5.585938 30.664062 L 9.691406 38.816406 L 12.136719 37.105469 L 13.746094 40.507812 L 15.839844 38.9375 L 17.570312 42.082031 L 20.375 39.945312 L 22.363281 43.355469 L 24.703125 40.515625 L 26.753906 43.113281 L 28.332031 40.550781 L 30.625 42.425781 L 31.460938 39.726562 L 33.875 41.164062 L 34.902344 37.800781 L 37.546875 39.316406 L 38.253906 35.292969 L 40.695312 36.003906 L 42.199219 29.519531 L 39.042969 33.445312 L 36.039062 32.253906 L 35.578125 35.554688 L 32.582031 33.523438 L 31.511719 37.058594 L 29.351562 34.789062 L 27.316406 37.703125 L 25.148438 35.070312 L 22.847656 37.261719 L 20.921875 34.710938 L 18.707031 36.75 L 17.074219 33.898438 L 14.542969 35.953125 L 12.035156 32.960938 L 10.246094 35.269531 Z M 5.585938 30.664062 "/>
<path style=" stroke:none;fill-rule:nonzero;fill:rgb(17.647059%,5.490196%,1.960784%);fill-opacity:1;" d="M 24.128906 27.171875 L 21.6875 32.003906 L 27.101562 31.714844 Z M 24.128906 27.171875 "/>
<path style=" stroke:none;fill-rule:nonzero;fill:rgb(100%,67.843137%,29.019608%);fill-opacity:1;" d="M 7.085938 18.332031 C 6.949219 20.554688 7.410156 22.882812 8.066406 24.828125 C 8.816406 27.066406 10.644531 29.105469 12.992188 29.390625 C 13.511719 29.453125 14.039062 29.421875 14.546875 29.339844 C 14.9375 29.277344 15.34375 29.179688 15.730469 29.039062 C 12.984375 28.820312 11.632812 27.765625 10.460938 26.070312 C 9.554688 24.753906 9.304688 22.207031 8.953125 19.753906 C 8.671875 19.570312 7.609375 18.777344 7.085938 18.332031 Z M 7.085938 18.332031 "/>
<path style=" stroke:none;fill-rule:nonzero;fill:rgb(100%,67.843137%,29.019608%);fill-opacity:1;" d="M 24.128906 27.171875 L 21.6875 32.003906 L 25.53125 31.796875 L 23.023438 31.488281 L 24.628906 27.933594 Z M 24.128906 27.171875 "/>
<path style=" stroke:none;fill-rule:nonzero;fill:rgb(100%,67.843137%,29.019608%);fill-opacity:1;" d="M 9.691406 38.816406 L 5.585938 30.664062 L 8.15625 33.203125 L 10.335938 37.175781 L 12.570312 35.867188 L 14.25 39.449219 L 16.3125 38.035156 L 18.078125 41.101562 L 20.59375 39.128906 L 22.445312 42.152344 L 24.628906 39.640625 L 26.53125 42.042969 L 27.972656 39.621094 L 29.867188 41.273438 L 30.8125 38.699219 L 32.898438 40.136719 L 34.167969 36.855469 L 36.535156 38.207031 L 37.332031 34.496094 L 39.78125 35.183594 L 40.820312 31.234375 L 42.199219 29.519531 L 40.695312 36.003906 L 38.253906 35.292969 L 37.546875 39.316406 L 34.902344 37.800781 L 33.875 41.164062 L 31.460938 39.726562 L 30.625 42.425781 L 28.332031 40.550781 L 26.753906 43.113281 L 24.703125 40.515625 L 22.363281 43.355469 L 20.375 39.945312 L 17.570312 42.082031 L 15.839844 38.9375 L 13.746094 40.507812 L 12.136719 37.105469 Z M 9.691406 38.816406 "/>
<path style=" stroke:none;fill-rule:nonzero;fill:rgb(100%,67.843137%,29.019608%);fill-opacity:1;" d="M 10.246094 35.269531 L 10.945312 35.273438 L 12.351562 33.339844 L 12.035156 32.960938 Z M 10.246094 35.269531 "/>
<path style=" stroke:none;fill-rule:nonzero;fill:rgb(100%,67.843137%,29.019608%);fill-opacity:1;" d="M 14.542969 35.953125 L 17.074219 33.898438 L 17.304688 34.304688 L 15.3125 35.898438 Z M 14.542969 35.953125 "/>
<path style=" stroke:none;fill-rule:nonzero;fill:rgb(100%,67.843137%,29.019608%);fill-opacity:1;" d="M 18.707031 36.75 L 20.921875 34.710938 L 21.179688 35.054688 L 19.40625 36.683594 Z M 18.707031 36.75 "/>
<path style=" stroke:none;fill-rule:nonzero;fill:rgb(100%,67.843137%,29.019608%);fill-opacity:1;" d="M 22.847656 37.261719 L 23.269531 37.261719 L 25.136719 35.578125 L 26.828125 37.652344 L 27.316406 37.703125 L 25.148438 35.070312 Z M 22.847656 37.261719 "/>
<path style=" stroke:none;fill-rule:nonzero;fill:rgb(100%,67.843137%,29.019608%);fill-opacity:1;" d="M 29.351562 34.789062 L 29.070312 35.195312 L 30.875 37.050781 L 31.511719 37.058594 Z M 29.351562 34.789062 "/>
<path style=" stroke:none;fill-rule:nonzero;fill:rgb(100%,67.843137%,29.019608%);fill-opacity:1;" d="M 32.582031 33.523438 L 32.4375 33.996094 L 35.019531 35.640625 L 35.578125 35.554688 Z M 32.582031 33.523438 "/>
<path style=" stroke:none;fill-rule:nonzero;fill:rgb(100%,67.843137%,29.019608%);fill-opacity:1;" d="M 36.039062 32.253906 L 35.976562 32.703125 L 38.253906 33.566406 L 39.042969 33.445312 Z M 36.039062 32.253906 "/>
</g>
</svg>
