<?xml version="1.0" encoding="UTF-8"?>
<svg xmlns="http://www.w3.org/2000/svg" xmlns:xlink="http://www.w3.org/1999/xlink" width="48px" height="px" viewBox="0 0 48 236" version="1.1">
<defs>
<filter id="alpha" filterUnits="objectBoundingBox" x="0%" y="0%" width="100%" height="100%">
  <feColorMatrix type="matrix" in="SourceGraphic" values="0 0 0 0 1 0 0 0 0 1 0 0 0 0 1 0 0 0 1 0"/>
</filter>
<mask id="mask0">
  <g filter="url(#alpha)">
<rect x="0" y="0" width="48" height="236" style="fill:rgb(0%,0%,0%);fill-opacity:0.439216;stroke:none;"/>
  </g>
</mask>
<clipPath id="clip1">
  <rect x="0" y="0" width="48" height="236"/>
</clipPath>
<g id="surface5" clip-path="url(#clip1)">
<path style=" stroke:none;fill-rule:nonzero;fill:rgb(100%,100%,100%);fill-opacity:1;" d="M 21.144531 6.183594 C 21.320312 7.03125 21.40625 7.851562 21.378906 8.503906 C 17.820312 10.199219 14.4375 12.269531 11.304688 14.660156 C 9.898438 15.734375 8.375 16.933594 6.609375 16.871094 C 7.734375 15.019531 8.898438 13.195312 10.183594 11.449219 C 12.144531 8.78125 14.132812 6.128906 16.144531 3.5 C 16.859375 2.566406 17.695312 0.777344 18.976562 1.808594 C 20.03125 2.65625 20.785156 4.480469 21.144531 6.183594 Z M 21.144531 6.183594 "/>
</g>
</defs>
<g id="surface1">
<path style=" stroke:none;fill-rule:nonzero;fill:rgb(40%,24.705882%,14.509804%);fill-opacity:1;" d="M 15.519531 26.738281 C 18.625 28.445312 22.730469 29.597656 26.144531 30.167969 C 27.011719 25.757812 29.402344 21.179688 29.128906 16.609375 C 28.949219 13.660156 27.542969 10.929688 26.988281 8.03125 C 26.433594 5.132812 27.089844 1.566406 29.75 0.28125 C 28.996094 0.640625 36.332031 20.367188 37.308594 22.800781 C 37.59375 23.511719 37.863281 24.257812 37.871094 25.027344 C 37.882812 26.015625 37.457031 26.957031 37.019531 27.839844 C 35.546875 30.8125 33.765625 33.648438 32.628906 36.765625 C 30.074219 43.78125 34.644531 48.488281 35.632812 55.351562 C 36.585938 61.945312 35.074219 67.941406 35.902344 74.339844 C 37.078125 83.414062 38.382812 92.351562 37.324219 101.519531 C 36.960938 104.6875 36.339844 107.835938 36.34375 111.023438 C 36.34375 115.175781 37.398438 119.242188 38.339844 123.289062 C 40.054688 130.667969 38.101562 138.519531 38.269531 146.003906 C 38.445312 153.738281 40.859375 161.394531 41.355469 169.128906 C 41.535156 171.9375 41.710938 174.753906 42.304688 177.507812 C 44.363281 187.097656 48.367188 186.367188 46.972656 196.167969 C 45.171875 208.789062 48.109375 212.214844 46.84375 224.75 C 46.546875 227.667969 46.253906 230.589844 45.960938 233.507812 C 45.789062 235.183594 44.136719 235.367188 42.519531 235.84375 C 40.285156 236.507812 40.210938 235.015625 40.042969 232.691406 C 39.132812 220.246094 38.84375 207.519531 36.234375 195.457031 C 33.875 184.566406 34.984375 190.636719 33.355469 179.707031 C 32.5 173.972656 29.484375 169.246094 29.273438 163.453125 C 29.121094 159.179688 30.410156 154.828125 29.394531 150.675781 C 28.839844 148.414062 27.625 146.335938 27.300781 144.027344 C 26.6875 139.59375 28.980469 135.269531 29.167969 130.867188 C 29.335938 126.992188 28.644531 122.890625 28.398438 119.027344 C 27.75 108.914062 28.085938 98.773438 28.253906 88.648438 C 28.304688 85.84375 28.332031 82.945312 27.25 80.355469 C 26.695312 79.03125 25.867188 77.835938 25.371094 76.488281 C 24.140625 73.125 24.039062 69.128906 23.0625 65.691406 C 22.132812 62.40625 22.914062 60.132812 22.507812 56.753906 C 22.226562 54.425781 19.652344 51.953125 17.859375 50.605469 C 13.378906 47.226562 6.570312 45.535156 5.378906 40.054688 C 4.914062 37.925781 5.457031 35.53125 4.355469 33.648438 C 3.570312 32.308594 2.09375 31.515625 1.171875 30.261719 C -0.503906 27.988281 -0.00390625 24.839844 0.574219 22.074219 C 1.191406 19.128906 1.804688 16.1875 2.421875 13.242188 C 3.230469 9.355469 10.046875 -0.128906 10.058594 7.734375 C 10.0625 11.117188 7.851562 13.585938 8.699219 17.378906 C 9.542969 21.171875 12.03125 24.824219 15.519531 26.738281 Z M 15.519531 26.738281 "/>
<path style=" stroke:none;fill-rule:nonzero;fill:rgb(44.705882%,53.72549%,100%);fill-opacity:1;" d="M 5.777344 18.457031 C 5.539062 20.382812 5.910156 22.339844 7.195312 24.304688 C 8.894531 26.914062 10.589844 29.519531 12.292969 32.125 C 12.953125 33.140625 13.636719 34.179688 14.621094 34.886719 C 15.335938 35.394531 16.171875 35.703125 16.992188 36.003906 C 19.183594 36.804688 21.371094 37.609375 23.5625 38.40625 C 24.644531 38.800781 30.859375 31.976562 31.582031 30.914062 C 34.105469 27.230469 33.472656 18.855469 31.554688 14.890625 C 28.011719 7.5625 27.808594 2.21875 18.957031 0.101562 C 18.613281 0.0195312 18.242188 -0.0585938 17.914062 0.0625 C 17.601562 0.179688 17.386719 0.457031 17.1875 0.71875 C 14.371094 5.765625 6.582031 11.933594 5.78125 18.457031 Z M 5.777344 18.457031 "/>
<path style=" stroke:none;fill-rule:nonzero;fill:rgb(44.705882%,53.72549%,100%);fill-opacity:1;" d="M 17.496094 35.304688 C 15.574219 34.257812 13.5625 33.128906 12.4375 31.253906 C 12.355469 31.113281 12.273438 30.964844 12.28125 30.796875 C 12.292969 30.5625 12.476562 30.378906 12.644531 30.214844 C 13.65625 29.269531 14.597656 28.25 15.460938 27.171875 C 18.175781 23.789062 20.199219 19.753906 23.640625 17.113281 C 23.8125 16.984375 24.003906 16.855469 24.214844 16.867188 C 24.425781 16.875 24.597656 17.027344 24.75 17.171875 C 26.832031 19.089844 28.816406 21.109375 30.691406 23.226562 C 31.570312 24.21875 32.464844 25.316406 32.601562 26.632812 C 32.769531 28.214844 31.8125 29.671875 30.886719 30.96875 C 29.433594 33.011719 27.910156 35.070312 25.84375 36.492188 C 24.804688 37.210938 23.261719 38.222656 21.980469 37.835938 C 20.503906 37.390625 18.867188 36.050781 17.492188 35.304688 Z M 17.496094 35.304688 "/>
<use xlink:href="#surface5" mask="url(#mask0)"/>
<path style=" stroke:none;fill-rule:nonzero;fill:rgb(40%,24.705882%,14.509804%);fill-opacity:1;" d="M 17.5 27.078125 C 17.160156 25.785156 16.734375 24.503906 16.605469 23.171875 C 16.054688 17.433594 21.054688 11.570312 18.644531 6.332031 C 20.894531 8.132812 23.128906 10.351562 23.535156 13.203125 C 24 16.457031 21.960938 19.5625 21.828125 22.847656 C 21.765625 24.328125 22.097656 25.796875 22.429688 27.242188 C 23.367188 31.351562 24.296875 35.460938 25.234375 39.570312 C 25.449219 40.523438 25.667969 41.535156 25.351562 42.457031 C 24.816406 44.027344 22.867188 44.753906 21.242188 44.417969 C 15.371094 43.210938 18.75 31.820312 17.503906 27.082031 Z M 17.5 27.078125 "/>
<path style=" stroke:none;fill-rule:nonzero;fill:rgb(23.529412%,14.117647%,8.235294%);fill-opacity:1;" d="M 28.453125 59.417969 C 27.234375 60.699219 25.792969 61.765625 24.640625 63.105469 C 21.953125 66.242188 21.101562 70.726562 21.976562 74.761719 C 22.847656 78.800781 25.3125 82.386719 28.449219 85.074219 C 27.46875 79.65625 28.464844 73.898438 31.210938 69.117188 C 33.117188 65.808594 35.835938 62.921875 37.03125 59.296875 C 38.015625 56.292969 37.792969 53.085938 36.859375 50.101562 C 36.457031 48.816406 34.203125 42.269531 32.378906 44.179688 C 31.574219 45.019531 32.566406 50.824219 32.191406 52.402344 C 31.574219 55.007812 30.308594 57.46875 28.453125 59.414062 Z M 28.453125 59.417969 "/>
<path style=" stroke:none;fill-rule:nonzero;fill:rgb(23.529412%,14.117647%,8.235294%);fill-opacity:1;" d="M 33.085938 100.988281 C 31.789062 102.066406 30.285156 102.875 29.054688 104.027344 C 26.613281 106.316406 25.5 109.734375 25.335938 113.074219 C 25.175781 116.417969 25.875 119.726562 26.570312 122.996094 C 26.625 123.253906 26.691406 123.535156 26.898438 123.699219 C 27.5625 124.222656 28.214844 123.050781 28.367188 122.21875 C 29.078125 118.269531 32.488281 115.488281 34.945312 112.316406 C 38.519531 107.707031 43.148438 94.546875 37.742188 89.753906 C 37.597656 94.035156 36.550781 98.117188 33.082031 100.988281 Z M 33.085938 100.988281 "/>
<path style=" stroke:none;fill-rule:nonzero;fill:rgb(23.529412%,14.117647%,8.235294%);fill-opacity:1;" d="M 29.167969 167.105469 C 30.789062 165.507812 30.519531 162.898438 30.628906 160.625 C 30.925781 154.277344 35.058594 151.347656 38.472656 146.644531 C 39.855469 144.742188 41.75 137.21875 36.871094 138.515625 C 33.785156 139.335938 29.5 149.113281 28.664062 151.96875 C 27.941406 154.433594 27.613281 157.015625 27.691406 159.582031 C 27.71875 160.363281 29.257812 167.007812 29.167969 167.105469 Z M 29.167969 167.105469 "/>
<path style=" stroke:none;fill-rule:nonzero;fill:rgb(23.529412%,14.117647%,8.235294%);fill-opacity:1;" d="M 32.6875 185.933594 C 31.914062 189.078125 33.347656 192.296875 34.746094 195.21875 C 35.296875 196.371094 35.847656 197.527344 36.398438 198.679688 C 39.984375 193.503906 42.6875 187.71875 44.355469 181.652344 C 44.96875 179.425781 45.390625 176.859375 44.078125 174.957031 C 41.605469 171.382812 39.738281 176.65625 38.347656 178.300781 C 36.28125 180.722656 33.484375 182.671875 32.683594 185.933594 Z M 32.6875 185.933594 "/>
<path style=" stroke:none;fill-rule:nonzero;fill:rgb(23.529412%,14.117647%,8.235294%);fill-opacity:1;" d="M 39.902344 215.730469 C 40.378906 214.414062 40.855469 213.09375 41.332031 211.78125 C 42.175781 209.445312 47.351562 202.429688 47.941406 208.589844 C 48.257812 211.851562 46.535156 215.042969 44.140625 217.28125 C 42.519531 218.796875 40.386719 220.644531 38.074219 220.789062 C 38.683594 219.105469 39.289062 217.417969 39.902344 215.734375 Z M 39.902344 215.730469 "/>
</g>
</svg>
