<?xml version="1.0" encoding="UTF-8"?>
<svg xmlns="http://www.w3.org/2000/svg" xmlns:xlink="http://www.w3.org/1999/xlink" width="48px" height="px" viewBox="0 0 48 146" version="1.1">
<g id="surface3">
<path style=" stroke:none;fill-rule:nonzero;fill:rgb(73.72549%,74.509804%,75.294118%);fill-opacity:1;" d="M 2.484375 0.507812 C 19.578125 25.492188 32.773438 53.214844 40.707031 82.476562 C 41 83.566406 40.355469 84.6875 39.265625 84.984375 C 38.175781 85.277344 37.054688 84.632812 36.757812 83.542969 C 29.503906 54.507812 16.988281 26.832031 0.566406 1.792969 C -0.207031 0.542969 1.539062 -0.734375 2.484375 0.507812 Z M 2.484375 0.507812 "/>
<path style=" stroke:none;fill-rule:nonzero;fill:rgb(10.980392%,45.882353%,73.72549%);fill-opacity:1;" d="M 47.230469 98.804688 L 41.652344 100.535156 C 40.972656 100.746094 40.234375 100.3125 40.023438 99.570312 L 34.28125 79.382812 C 34.078125 78.667969 34.4375 77.9375 35.097656 77.734375 L 39.472656 76.375 C 40.125 76.171875 40.835938 76.5625 41.078125 77.257812 L 48.019531 97.074219 C 48.277344 97.804688 47.917969 98.589844 47.230469 98.804688 Z M 47.230469 98.804688 "/>
<path style=" stroke:none;fill-rule:nonzero;fill:rgb(73.72549%,74.509804%,75.294118%);fill-opacity:1;" d="M 37.050781 81.492188 C 37.050781 85.328125 33.941406 88.4375 30.105469 88.4375 C 26.265625 88.4375 23.15625 85.328125 23.15625 81.492188 C 23.15625 77.660156 26.265625 74.550781 30.105469 74.550781 C 33.941406 74.550781 37.050781 77.660156 37.050781 81.492188 Z M 37.050781 81.492188 "/>
<path style=" stroke:none;fill-rule:nonzero;fill:rgb(50.196078%,50.980392%,52.156863%);fill-opacity:1;" d="M 28.953125 85.667969 C 28.859375 84.796875 29.492188 84.011719 30.367188 83.917969 C 31.238281 83.824219 32.023438 84.457031 32.113281 85.328125 C 32.207031 86.199219 31.574219 86.984375 30.703125 87.078125 C 30.535156 87.097656 30.367188 87.085938 30.210938 87.054688 C 29.554688 86.917969 29.03125 86.371094 28.953125 85.667969 Z M 24.976562 83.796875 C 24.617188 82.996094 24.976562 82.054688 25.777344 81.695312 C 26.578125 81.335938 27.515625 81.691406 27.878906 82.492188 C 28.238281 83.292969 27.882812 84.230469 27.082031 84.59375 C 26.761719 84.734375 26.425781 84.765625 26.109375 84.699219 C 25.625 84.597656 25.195312 84.277344 24.976562 83.796875 Z M 33.71875 83.878906 C 32.859375 83.699219 32.308594 82.855469 32.488281 81.996094 L 32.488281 81.988281 C 32.667969 81.128906 33.507812 80.574219 34.371094 80.753906 C 35.230469 80.929688 35.78125 81.769531 35.605469 82.628906 L 35.605469 82.636719 L 35.601562 82.652344 C 35.421875 83.511719 34.582031 84.058594 33.722656 83.882812 L 33.71875 83.882812 Z M 26.21875 79.578125 C 25.628906 78.929688 25.675781 77.921875 26.332031 77.335938 C 26.980469 76.746094 27.988281 76.792969 28.574219 77.445312 C 29.164062 78.09375 29.113281 79.101562 28.464844 79.691406 C 28.074219 80.042969 27.554688 80.167969 27.074219 80.066406 C 26.753906 80 26.453125 79.835938 26.21875 79.578125 Z M 31.316406 79.375 C 30.554688 78.941406 30.285156 77.96875 30.722656 77.207031 C 31.160156 76.445312 32.128906 76.179688 32.894531 76.617188 C 33.65625 77.050781 33.917969 78.019531 33.484375 78.785156 C 33.132812 79.394531 32.4375 79.6875 31.78125 79.550781 C 31.621094 79.519531 31.464844 79.460938 31.316406 79.375 Z M 31.316406 79.375 "/>
<path style=" stroke:none;fill-rule:nonzero;fill:rgb(34.509804%,34.901961%,35.686275%);fill-opacity:1;" d="M 37.246094 92.246094 C 36.835938 92.246094 36.429688 92.0625 36.160156 91.710938 L 29.019531 82.316406 C 28.5625 81.71875 28.679688 80.863281 29.28125 80.410156 C 29.878906 79.953125 30.734375 80.070312 31.1875 80.667969 L 38.332031 90.0625 C 38.789062 90.660156 38.671875 91.515625 38.070312 91.96875 C 37.824219 92.15625 37.535156 92.246094 37.246094 92.246094 Z M 37.246094 92.246094 "/>
<path style=" stroke:none;fill-rule:nonzero;fill:rgb(34.509804%,34.901961%,35.686275%);fill-opacity:1;" d="M 35.179688 90.394531 L 39.585938 87.058594 C 40.230469 86.566406 41.152344 86.695312 41.640625 87.339844 L 41.863281 87.632812 C 42.351562 88.277344 42.226562 89.195312 41.578125 89.683594 L 38.617188 91.925781 C 37.785156 92.558594 36.597656 92.394531 35.964844 91.5625 L 35.179688 90.390625 Z M 35.179688 90.394531 "/>
<path style="fill:none;stroke-width:4;stroke-linecap:round;stroke-linejoin:round;stroke:rgb(81.960784%,82.745098%,83.137255%);stroke-opacity:1;stroke-miterlimit:4;" d="M 228.695068 497.810493 C 194.822917 476.251873 178.647868 424.098084 191.495036 386.067129 C 148.026204 360.27424 125.014811 304.247646 137.810384 255.347014 C 97.488851 226.197694 70.840007 178.071624 75.019206 128.499706 C 26.726237 110.116786 3.018311 54.477472 4.746745 3.614619 C -0.670736 149.077215 -1.625244 232.729827 36.322917 373.286869 C 55.851644 445.501793 80.978434 516.4516 93.361247 590.241465 C 105.718262 664.03133 104.47998 742.5202 72.852214 810.320125 " transform="matrix(0.15142,0,0,0.151295,0,0)"/>
<path style=" stroke:none;fill-rule:nonzero;fill:rgb(52.156863%,60%,61.960784%);fill-opacity:1;" d="M 11.71875 131.777344 C 12.859375 133.878906 13.652344 136.105469 14.074219 138.367188 C 14.417969 140.226562 14.75 142.308594 14.503906 144.195312 C 14.414062 144.878906 14.042969 145.5625 13.414062 145.835938 C 12.121094 146.398438 8.851562 146.105469 8 144.878906 C 7.871094 144.699219 7.355469 143.65625 7.464844 143.464844 C 7.121094 144.066406 6.515625 144.605469 5.707031 144.691406 C 4.894531 144.777344 4.0625 144.578125 3.269531 144.355469 C 2.375 144.105469 1.429688 143.796875 0.859375 143.140625 C -0.0195312 142.132812 0.308594 140.753906 0.773438 139.621094 C 2.242188 136.074219 4.652344 132.867188 7.78125 130.3125 C 9.183594 130.691406 10.421875 131.15625 11.71875 131.773438 Z M 11.71875 131.777344 "/>
<path style=" stroke:none;fill-rule:nonzero;fill:rgb(52.156863%,60%,61.960784%);fill-opacity:1;" d="M 22.847656 126.105469 C 23.109375 126.980469 23.324219 127.949219 22.960938 128.785156 C 22.5625 129.695312 21.589844 130.199219 20.65625 130.53125 C 19.441406 130.96875 18.171875 131.238281 16.886719 131.332031 C 16.3125 131.375 15.660156 131.355469 15.261719 130.941406 C 14.804688 130.464844 14.886719 129.703125 15.011719 129.054688 C 15.367188 127.214844 15.800781 125.390625 16.3125 123.589844 C 16.703125 122.222656 17.03125 119.707031 18.332031 118.863281 C 19.808594 117.910156 20.527344 120.347656 21.019531 121.371094 C 21.753906 122.898438 22.363281 124.484375 22.847656 126.109375 Z M 22.847656 126.105469 "/>
<path style="fill:none;stroke-width:7;stroke-linecap:round;stroke-linejoin:miter;stroke:rgb(63.137255%,69.019608%,70.980392%);stroke-opacity:1;stroke-miterlimit:10;" d="M 45.068278 888.602445 C 34.388102 907.08864 21.308757 935.282668 21.308757 935.282668 " transform="matrix(0.15142,0,0,0.151295,0,0)"/>
<path style="fill:none;stroke-width:7;stroke-linecap:round;stroke-linejoin:miter;stroke:rgb(63.137255%,69.019608%,70.980392%);stroke-opacity:1;stroke-miterlimit:10;" d="M 57.992839 895.082941 C 55.438883 907.656651 52.884928 920.230362 50.330973 932.804072 " transform="matrix(0.15142,0,0,0.151295,0,0)"/>
<path style="fill:none;stroke-width:7;stroke-linecap:round;stroke-linejoin:miter;stroke:rgb(63.137255%,69.019608%,70.980392%);stroke-opacity:1;stroke-miterlimit:10;" d="M 72.026693 889.970837 C 74.709635 909.980335 76.309082 928.569804 70.762614 948.21784 " transform="matrix(0.15142,0,0,0.151295,0,0)"/>
<path style=" stroke:none;fill-rule:nonzero;fill:rgb(73.72549%,77.254902%,78.823529%);fill-opacity:1;" d="M 19.128906 124.902344 C 20.289062 120.238281 19.675781 115.496094 17.679688 111.226562 C 16.636719 109 13.820312 108.296875 11.855469 109.78125 C 8.09375 112.617188 5.328125 116.523438 4.167969 121.183594 C 2.800781 126.671875 3.894531 132.269531 6.800781 137.078125 C 7.332031 137.949219 8.476562 138.234375 9.351562 137.710938 C 14.175781 134.828125 17.761719 130.390625 19.128906 124.902344 Z M 19.128906 124.902344 "/>
<path style="fill:none;stroke-width:7;stroke-linecap:round;stroke-linejoin:round;stroke:rgb(63.137255%,69.019608%,70.980392%);stroke-opacity:1;stroke-miterlimit:4;" d="M 46.590332 776.910718 C 44.268555 784.320687 46.796712 792.995773 52.730143 798.004602 C 58.637777 803.013431 67.589518 804.071998 74.529053 800.586473 C 76.463867 806.937875 82.190918 811.972522 88.717692 813.082727 C 95.270264 814.192931 102.338786 811.327055 106.26001 805.982582 " transform="matrix(0.15142,0,0,0.151295,0,0)"/>
<path style="fill:none;stroke-width:7;stroke-linecap:round;stroke-linejoin:round;stroke:rgb(63.137255%,69.019608%,70.980392%);stroke-opacity:1;stroke-miterlimit:4;" d="M 54.252197 823.823309 C 52.214193 830.432898 55.180908 838.230148 61.088542 841.818948 C 66.970378 845.433567 75.251383 844.504094 80.204508 839.701814 C 81.778158 843.342252 85.002848 846.208128 88.795085 847.395789 C 92.587321 848.557631 96.86971 847.989619 100.249186 845.898304 " transform="matrix(0.15142,0,0,0.151295,0,0)"/>
<path style="fill:none;stroke-width:7;stroke-linecap:round;stroke-linejoin:round;stroke:rgb(63.137255%,69.019608%,70.980392%);stroke-opacity:1;stroke-miterlimit:4;" d="M 40.940674 854.676664 C 40.011963 860.589148 43.159261 866.94055 48.421956 869.780608 C 53.684652 872.620666 60.701579 871.768648 65.138753 867.74093 " transform="matrix(0.15142,0,0,0.151295,0,0)"/>
<path style=" stroke:none;fill-rule:nonzero;fill:rgb(42.745098%,43.137255%,44.313725%);fill-opacity:1;" d="M 14.523438 117.292969 C 14.378906 117.292969 14.230469 117.273438 14.082031 117.238281 C 13.113281 116.996094 12.519531 116.011719 12.757812 115.039062 C 12.960938 114.226562 13.683594 113.664062 14.519531 113.664062 C 14.667969 113.664062 14.816406 113.679688 14.960938 113.714844 C 15.429688 113.832031 15.828125 114.125 16.078125 114.542969 C 16.328125 114.957031 16.402344 115.445312 16.285156 115.917969 C 16.082031 116.726562 15.359375 117.292969 14.523438 117.292969 Z M 14.523438 117.292969 "/>
<path style=" stroke:none;fill-rule:nonzero;fill:rgb(100%,100%,100%);fill-opacity:1;" d="M 14.519531 113.964844 C 14.644531 113.964844 14.769531 113.980469 14.886719 114.011719 C 15.28125 114.105469 15.613281 114.351562 15.820312 114.699219 C 16.027344 115.046875 16.089844 115.449219 15.992188 115.84375 C 15.824219 116.519531 15.21875 116.992188 14.523438 116.992188 C 14.402344 116.992188 14.277344 116.976562 14.15625 116.945312 C 13.347656 116.742188 12.851562 115.921875 13.054688 115.113281 C 13.222656 114.4375 13.824219 113.964844 14.519531 113.964844 M 14.519531 113.359375 C 13.570312 113.359375 12.707031 114.003906 12.464844 114.964844 C 12.183594 116.101562 12.875 117.25 14.011719 117.53125 C 14.183594 117.574219 14.355469 117.597656 14.523438 117.597656 C 15.476562 117.597656 16.339844 116.953125 16.578125 115.988281 C 16.863281 114.855469 16.171875 113.707031 15.035156 113.421875 C 14.863281 113.378906 14.691406 113.359375 14.519531 113.359375 Z M 14.519531 113.359375 "/>
</g>
</svg>
