<?xml version="1.0" encoding="UTF-8"?>
<svg xmlns="http://www.w3.org/2000/svg" xmlns:xlink="http://www.w3.org/1999/xlink" width="48px" height="px" viewBox="0 0 48 89" version="1.1">
<g id="surface1">
<path style="fill:none;stroke-width:17;stroke-linecap:butt;stroke-linejoin:miter;stroke:rgb(75.686275%,64.705882%,51.764706%);stroke-opacity:1;stroke-miterlimit:10;" d="M 96.193245 296.422927 C 70.731428 345.614112 54.331023 399.502697 48.040457 454.593818 C 44.707954 484.055917 45.456831 517.388676 66.013503 538.808825 C 83.49978 557.034741 111.432891 561.694563 136.407937 557.974221 C 161.420427 554.2163 184.673057 543.31833 208.375012 534.449636 C 232.076968 525.618522 257.538784 518.62879 282.401499 523.138295 C 308.649636 527.873275 322.391528 536.215859 337.78095 557.974221 C 353.170371 579.732583 360.696584 605.587079 366.275718 631.66705 C 373.240273 664.398541 371.105974 698.558042 364.029087 731.251953 C 356.989644 763.983444 345.56927 795.174188 318.871807 815.354223 C 292.136899 835.496679 255.404485 843.313154 224.026541 831.701179 C 192.648596 820.051624 169.807849 790.213732 162.693518 757.482241 C 155.579187 724.78833 162.993069 689.952403 179.056479 660.603041 C 195.11989 631.216099 219.308616 606.93993 246.043523 586.835054 C 265.47688 572.254321 287.007092 559.402231 310.896267 555.005464 C 334.785442 550.571117 355.828884 555.757048 372.903279 573.043484 C 391.70009 592.096143 395.444475 621.182451 395.257256 647.938847 C 394.957705 692.582948 386.495396 737.151889 370.394541 778.752074 C 359.460938 807.086797 347.703569 836.586476 318.534812 845.004219 C 296.368054 851.392684 271.879778 843.576209 253.831843 829.183372 C 235.821353 814.828114 223.352551 794.648079 213.092937 773.979514 C 196.505313 740.534018 184.747944 704.683453 178.345046 667.893407 C 174.787881 647.525476 173.327571 624.977951 184.747944 607.766673 C 195.11989 592.096143 213.879258 584.429984 231.702529 578.45489 C 258.699543 569.43588 286.932205 562.220672 315.277197 564.550583 C 343.62219 566.880494 366.650156 580.145954 381.552808 604.346965 C 396.979673 629.449877 395.332144 661.317046 389.940229 690.290616 C 380.01761 743.878568 362.419001 798.180525 317.44894 828.995476 C 299.363562 841.396615 277.047029 849.551303 255.55426 845.267273 C 232.413962 840.645031 213.916702 822.118481 203.657087 800.848648 C 193.397473 779.578816 190.102415 755.716018 187.631121 732.229013 C 185.084939 708.328636 183.362522 683.188145 192.798372 661.09157 C 203.432424 636.101397 226.610166 612.088282 250.087458 598.522188 C 270.793906 586.571999 293.072996 576.312875 316.812395 573.381697 C 340.551794 570.450519 360.434478 582.400707 378.444968 598.183975 C 398.514871 615.808624 406.378079 643.917872 406.902292 670.63669 C 408.325159 745.64479 359.460938 818.135084 287.044536 837.563535 C 265.738987 843.275575 241.849812 844.47811 222.75345 833.467402 C 209.872766 826.064298 200.399473 813.738317 193.921687 800.360119 C 180.32957 772.175712 179.35603 738.655058 188.941655 708.854745 C 198.52728 679.054432 224.962637 631.441575 249.450913 611.975544 C 273.115425 593.148361 295.282183 579.995638 325.499368 579.281633 C 355.679109 578.567628 381.215813 613.065341 398.664646 637.717303 C 420.382078 668.344358 417.723564 709.192958 417.686121 746.734588 C 417.648677 784.313796 424.051575 827.191674 455.429519 847.897818 " transform="matrix(0.104323,0,0,0.103947,0,0.0236321)"/>
<path style="fill:none;stroke-width:17;stroke-linecap:butt;stroke-linejoin:miter;stroke:rgb(62.745098%,50.588235%,40.784314%);stroke-opacity:1;stroke-miterlimit:10;" d="M 96.193245 296.422927 C 96.118357 296.573244 96.043469 296.723561 95.968582 296.873878 " transform="matrix(0.104323,0,0,0.103947,0,0.0236321)"/>
<path style="fill:none;stroke-width:17;stroke-linecap:butt;stroke-linejoin:miter;stroke:rgb(62.745098%,50.588235%,40.784314%);stroke-opacity:1;stroke-miterlimit:10;" d="M 75.486797 342.570196 C 61.670017 378.571078 52.421387 416.263024 48.040457 454.593818 C 44.707954 484.055917 45.456831 517.388676 66.013503 538.808825 C 83.49978 557.034741 111.432891 561.694563 136.407937 557.974221 C 161.420427 554.2163 184.673057 543.31833 208.375012 534.449636 C 232.039524 525.618522 257.538784 518.62879 282.401499 523.138295 C 308.649636 527.873275 322.391528 536.215859 337.78095 557.974221 C 353.170371 579.732583 360.696584 605.587079 366.275718 631.66705 C 373.240273 664.398541 371.105974 698.558042 364.029087 731.251953 C 356.989644 763.983444 345.56927 795.174188 318.871807 815.354223 C 292.136899 835.496679 255.404485 843.313154 224.026541 831.701179 C 192.648596 820.051624 169.807849 790.213732 162.693518 757.482241 C 155.579187 724.78833 162.993069 689.952403 179.056479 660.603041 C 195.11989 631.216099 219.308616 606.93993 246.043523 586.835054 C 265.47688 572.254321 287.007092 559.402231 310.896267 555.005464 C 334.785442 550.571117 355.828884 555.757048 372.903279 573.043484 C 391.70009 592.096143 395.444475 621.182451 395.257256 647.938847 C 394.957705 692.582948 386.495396 737.151889 370.394541 778.752074 C 359.460938 807.086797 347.703569 836.586476 318.534812 845.004219 C 296.368054 851.392684 271.879778 843.576209 253.831843 829.183372 C 235.821353 814.828114 223.352551 794.648079 213.092937 773.979514 C 196.505313 740.534018 184.747944 704.683453 178.345046 667.893407 C 174.787881 647.525476 173.327571 624.977951 184.747944 607.766673 C 195.11989 592.096143 213.879258 584.429984 231.702529 578.45489 C 258.699543 569.43588 286.932205 562.220672 315.277197 564.550583 C 343.62219 566.880494 366.650156 580.145954 381.552808 604.346965 C 396.979673 629.449877 395.332144 661.317046 389.940229 690.290616 C 380.01761 743.878568 362.419001 798.180525 317.44894 828.995476 C 299.363562 841.396615 277.047029 849.551303 255.55426 845.267273 C 232.413962 840.645031 213.916702 822.118481 203.657087 800.848648 C 193.397473 779.578816 190.102415 755.716018 187.631121 732.229013 C 185.084939 708.328636 183.362522 683.188145 192.798372 661.09157 C 203.432424 636.101397 226.610166 612.088282 250.087458 598.522188 C 270.793906 586.571999 293.072996 576.312875 316.812395 573.381697 C 340.551794 570.450519 360.434478 582.400707 378.444968 598.183975 C 398.514871 615.808624 406.378079 643.917872 406.902292 670.63669 C 408.325159 745.64479 359.460938 818.135084 287.044536 837.563535 C 265.738987 843.275575 241.849812 844.47811 222.75345 833.467402 C 209.872766 826.064298 200.399473 813.738317 193.921687 800.360119 C 180.32957 772.175712 179.35603 738.655058 188.941655 708.854745 C 198.52728 679.054432 224.962637 631.441575 249.450913 611.975544 C 273.115425 593.148361 295.282183 579.995638 325.499368 579.281633 C 355.679109 578.567628 381.215813 613.065341 398.664646 637.717303 C 420.382078 668.344358 417.723564 709.192958 417.686121 746.734588 C 417.648677 775.520262 421.393062 807.42501 437.269253 830.085273 " transform="matrix(0.104323,0,0,0.103947,0,0.0236321)"/>
<path style="fill:none;stroke-width:17;stroke-linecap:butt;stroke-linejoin:miter;stroke:rgb(62.745098%,50.588235%,40.784314%);stroke-opacity:1;stroke-miterlimit:10;" d="M 455.017637 847.597184 C 455.167412 847.672343 455.317187 847.78508 455.429519 847.860239 " transform="matrix(0.104323,0,0,0.103947,0,0.0236321)"/>
<path style="fill:none;stroke-width:17;stroke-linecap:butt;stroke-linejoin:miter;stroke:rgb(75.686275%,64.705882%,51.764706%);stroke-opacity:1;stroke-miterlimit:10;" d="M 11.68248 238.287891 C 3.257615 267.674832 9.847732 321.48826 51.897173 316.452646 C 87.09439 312.243774 117.46135 279.136491 141.762407 256.213174 C 172.953132 226.826232 200.624136 193.906845 226.460391 159.747344 C 251.023555 127.278908 275.923713 93.983729 288.018076 54.563139 C 302.209294 8.115237 255.292153 1.651613 223.352551 13.977593 C 176.547742 31.978034 137.306589 65.536268 104.206228 102.439051 C 78.856743 130.698616 26.585132 186.315845 11.68248 238.287891 Z M 11.68248 238.287891 " transform="matrix(0.104323,0,0,0.103947,0,0.0236321)"/>
<path style="fill:none;stroke-width:17;stroke-linecap:butt;stroke-linejoin:miter;stroke:rgb(62.745098%,50.588235%,40.784314%);stroke-opacity:1;stroke-miterlimit:10;" d="M 11.68248 238.287891 C 3.257615 267.674832 9.847732 321.48826 51.897173 316.452646 C 87.09439 312.243774 117.46135 279.136491 141.762407 256.213174 C 172.953132 226.826232 200.624136 193.906845 226.460391 159.747344 C 251.023555 127.278908 275.923713 93.983729 288.018076 54.563139 C 302.209294 8.115237 255.292153 1.651613 223.352551 13.977593 C 176.547742 31.978034 137.306589 65.536268 104.206228 102.439051 C 78.856743 130.698616 26.585132 186.315845 11.68248 238.287891 Z M 11.68248 238.287891 " transform="matrix(0.104323,0,0,0.103947,0,0.0236321)"/>
</g>
</svg>
