<?xml version="1.0" encoding="UTF-8"?>
<svg xmlns="http://www.w3.org/2000/svg" xmlns:xlink="http://www.w3.org/1999/xlink" width="48px" height="px" viewBox="0 0 48 80" version="1.1">
<defs>
<filter id="alpha" filterUnits="objectBoundingBox" x="0%" y="0%" width="100%" height="100%">
  <feColorMatrix type="matrix" in="SourceGraphic" values="0 0 0 0 1 0 0 0 0 1 0 0 0 0 1 0 0 0 1 0"/>
</filter>
<mask id="mask0">
  <g filter="url(#alpha)">
<rect x="0" y="0" width="48" height="80" style="fill:rgb(0%,0%,0%);fill-opacity:0.301961;stroke:none;"/>
  </g>
</mask>
<clipPath id="clip1">
  <rect x="0" y="0" width="48" height="80"/>
</clipPath>
<g id="surface5" clip-path="url(#clip1)">
<path style=" stroke:none;fill-rule:nonzero;fill:rgb(100%,100%,100%);fill-opacity:1;" d="M 11.816406 14.117188 L 17.753906 21.773438 L 25.242188 15.613281 L 19.769531 23.601562 L 27.960938 28.789062 L 18.644531 26.074219 L 16.222656 35.4375 L 15.933594 25.773438 L 6.242188 26.375 L 15.386719 23.113281 Z M 11.816406 14.117188 "/>
</g>
</defs>
<g id="surface1">
<path style="fill:none;stroke-width:14;stroke-linecap:round;stroke-linejoin:miter;stroke:rgb(70.588235%,71.372549%,78.431373%);stroke-opacity:1;stroke-miterlimit:10;" d="M 62.929667 88.513968 L 142.894198 244.176886 " transform="matrix(0.319771,0,0,0.318497,0.0331874,0)"/>
<path style=" stroke:none;fill-rule:nonzero;fill:rgb(91.764706%,52.54902%,74.901961%);fill-opacity:1;" d="M 30.679688 33.003906 L 23.925781 33.046875 C 23.035156 33.054688 22.199219 33.496094 21.699219 34.230469 L 17.910156 39.796875 C 16.644531 41.648438 13.800781 41.253906 13.089844 39.128906 L 10.964844 32.746094 C 10.679688 31.902344 10 31.25 9.144531 31.003906 L 2.660156 29.132812 C 0.5 28.507812 -0.00390625 25.691406 1.804688 24.363281 L 7.242188 20.375 C 7.964844 19.84375 8.375 19 8.347656 18.113281 L 8.132812 11.390625 C 8.0625 9.152344 10.597656 7.804688 12.425781 9.105469 L 17.910156 13.023438 C 18.636719 13.542969 19.570312 13.667969 20.414062 13.371094 L 26.765625 11.089844 C 28.878906 10.328125 30.953125 12.316406 30.269531 14.449219 L 28.222656 20.863281 C 27.953125 21.707031 28.117188 22.636719 28.664062 23.335938 L 32.804688 28.648438 C 34.183594 30.417969 32.929688 32.992188 30.679688 33.007812 Z M 30.679688 33.003906 "/>
<use xlink:href="#surface5" mask="url(#mask0)"/>
<path style=" stroke:none;fill-rule:nonzero;fill:rgb(97.647059%,92.941176%,19.607843%);fill-opacity:1;" d="M 19.605469 11.667969 C 19.199219 7.273438 18.421875 6.496094 14.046875 6.121094 C 13.78125 6.097656 13.777344 5.710938 14.046875 5.6875 C 18.421875 5.273438 19.214844 4.503906 19.609375 0.199219 C 19.636719 -0.0625 20.023438 -0.0625 20.042969 0.199219 C 20.429688 4.523438 21.21875 5.296875 25.605469 5.699219 C 25.871094 5.722656 25.871094 6.109375 25.605469 6.132812 C 21.207031 6.515625 20.425781 7.292969 20.042969 11.667969 C 20.019531 11.933594 19.628906 11.933594 19.605469 11.667969 Z M 19.605469 11.667969 "/>
<path style=" stroke:none;fill-rule:nonzero;fill:rgb(97.647059%,92.941176%,19.607843%);fill-opacity:1;" d="M 26.519531 14.152344 C 26.230469 11.054688 25.683594 10.503906 22.601562 10.242188 C 22.417969 10.226562 22.414062 9.953125 22.601562 9.9375 C 25.683594 9.648438 26.246094 9.101562 26.523438 6.070312 C 26.539062 5.886719 26.8125 5.886719 26.828125 6.070312 C 27.101562 9.117188 27.65625 9.660156 30.746094 9.945312 C 30.933594 9.960938 30.933594 10.234375 30.746094 10.25 C 27.648438 10.519531 27.097656 11.066406 26.828125 14.152344 C 26.8125 14.335938 26.535156 14.339844 26.519531 14.152344 Z M 26.519531 14.152344 "/>
<path style=" stroke:none;fill-rule:nonzero;fill:rgb(97.647059%,92.941176%,19.607843%);fill-opacity:1;" d="M 4.089844 43.667969 C 3.804688 40.574219 3.257812 40.023438 0.175781 39.761719 C -0.0117188 39.746094 -0.015625 39.472656 0.175781 39.457031 C 3.257812 39.164062 3.816406 38.621094 4.09375 35.589844 C 4.109375 35.402344 4.386719 35.402344 4.402344 35.589844 C 4.671875 38.632812 5.230469 39.179688 8.320312 39.460938 C 8.503906 39.476562 8.503906 39.75 8.320312 39.765625 C 5.21875 40.039062 4.667969 40.585938 4.398438 43.667969 C 4.382812 43.855469 4.105469 43.855469 4.089844 43.667969 Z M 4.089844 43.667969 "/>
<path style=" stroke:none;fill-rule:nonzero;fill:rgb(97.647059%,92.941176%,19.607843%);fill-opacity:1;" d="M 36.355469 31.890625 C 36.066406 28.796875 35.519531 28.246094 32.4375 27.984375 C 32.253906 27.96875 32.25 27.691406 32.4375 27.675781 C 35.519531 27.386719 36.082031 26.84375 36.359375 23.8125 C 36.375 23.625 36.648438 23.625 36.667969 23.8125 C 36.9375 26.855469 37.496094 27.398438 40.582031 27.683594 C 40.769531 27.699219 40.769531 27.972656 40.582031 27.988281 C 37.484375 28.261719 36.933594 28.808594 36.664062 31.890625 C 36.648438 32.074219 36.371094 32.078125 36.355469 31.890625 Z M 36.355469 31.890625 "/>
</g>
</svg>
